<svg xmlns="http://www.w3.org/2000/svg" id="self" width="133" height="118" fill="none" viewBox="0 0 173 154"><path stroke="var(--accent-color, #F58220)" stroke-linejoin="round" d="m95.978 89.071 1.18 3.629a.72.72 0 0 0 .684.498h3.816c.099 0 .141.127.06.186l-3.087 2.242a.72.72 0 0 0-.261.805l1.179 3.629a.103.103 0 0 1-.159.115l-3.086-2.242a.72.72 0 0 0-.847 0l-3.087 2.242a.103.103 0 0 1-.158-.115l1.18-3.629a.72.72 0 0 0-.263-.805l-3.086-2.242a.103.103 0 0 1 .06-.186h3.816a.72.72 0 0 0 .684-.498l1.18-3.629a.103.103 0 0 1 .195 0Z"/><path fill="var(--accent-color, #F58220)" d="M48.13 48.963c-.116-.051-.196-.047-.307-.053-1.244-.06-2.753-.42-4.06-.972a.56.56 0 1 0-.435 1.032c1.442.61 3.054.993 4.442 1.06 12.59 5.653 20.435 12.636 22.69 20.2 1.463 4.902.557 9.954-2.69 15.018a.561.561 0 1 0 .943.605c3.432-5.35 4.381-10.715 2.821-15.944-2.358-7.905-10.45-15.148-23.404-20.946"/><path fill="var(--main-color, #377CB5)" d="M152.558 78.035c-.501-1.671-1.523-2.07-2.552-1.73-2.637.869-6.885 6.788-12.645 17.637a9.5 9.5 0 0 0-3.399-.092c-31.848-20.05-24.798-37.637-21.873-42.555q.309-.518.654-1.013a8.8 8.8 0 0 0 2.375-.329c5.343 5.538 13.011 10.896 19.767 7.206 1.511-.825 1.95-2.085.626-3.5-2.054-2.195-8.125-4.834-18.116-7.87.545-1.047.314-2.418-1.165-3.512-1.639-1.213-4.732-1.963-7.396-1.079-5.134-4.94-14.583-12.16-22.037-7.236-1.27.84-1.678 1.989-.676 3.16 2.224 2.602 10.729 4.993 18.538 6.714-.905 1.515-.04 3.128 1.366 4.248-11.803 12.323-33.247 5.864-41.997 2.476-3.653-1.414-7.246-3.106-10.151-4.778-.3-1.217-1.281-2.172-2.122-2.795 3.613-.034 16.797-.183 19.31-2.756.702-.717.783-1.753-.394-2.86-6.559-6.16-17.305-.322-21.912 2.699-3.232-1.58-7.69-.936-9.02 1.336-11.491-.537-15.775.288-17.456 1.116-1.434.706-1.757 1.976-.502 3.328 4.266 4.594 11.09 3.547 16.94 1.223-.205 2.271-.138 3.634.549 4.47 1.903 2.315 5.193 3.022 8.19 2.94 17.647 9.112 23.647 23.465 12.015 39.003-1.09-2.898-4.1-9.543-8.837-13.405-2.647-2.159-5.448-3.129-8.342-2.892-1.493.122-3.194.459-3.5 1.927-.565 2.7 4.814 8.1 15.984 16.055-.542.328-.955.732-1.23 1.192-2.955 1-2.926 2.69-3.218 4.849-.297 2.182-.54 4.379.392 5.617 3.366 4.466 12.927 4.803 13.971.273.007-.032.006-.025.1-.66 4.742 6.449 11.5 12.357 18.92 9.373 1.891-.76 2.213-2.116 1.394-3.523-2.158-3.708-12.97-9.049-16.871-10.931 8.802-5.16 10.37-3.392 12.912-.525 1.982 2.235 4.448 5.016 10.686 5.833 19.035 2.49 15.481-6.978 19.608-8.332 2.311-.758 7.201.83 15.804 5.146-4.901 4.151-9.529 10.074-7.103 16.512.723 1.921 2.219 2.333 4.096.571 2.805-2.633 6.323-9.644 8.003-13.129 3.463 2.754 11.538 3.376 12.538-.958l.886-3.902c.565-2.075-1.076-3.95-2.945-5.057-.274-.55-.688-1.08-1.225-1.564 5.479-3.39 13.471-9.89 11.06-17.921M87.415 34.896c6.921-4.571 16.058 2.641 20.888 7.348a.56.56 0 0 0 .624.107c3.823-1.475 9.241 1.242 7.169 3.33a.56.56 0 0 0 .261.964c11.435 3.432 16.815 6.108 18.346 7.742.725.775.617 1.257-.355 1.788-6.953 3.798-15.307-3.201-20.442-9.224a.56.56 0 0 0-.508-.19c-2.994.338-6.222-1.16-6.094-2.812.031-.405-.016-.697-.416-.781-3.15-.66-17.547-3.853-19.888-6.673-.558-.671-.33-1.105.415-1.599m-64.813 10.19c-.68-.732-.659-1.154.24-1.588 1.781-.86 6.958-1.454 17.21-.956a.57.57 0 0 0 .428-.178c.195-.204.31-1.05 1.95-1.646 1.853-.673 4.292-.483 6.068.473.225.121.44.105.61-.009 4.22-2.81 14.69-8.729 20.796-2.994.768.722.654 1.083.136 1.464-1.519 1.117-7.217 2.182-19.437 2.221a.56.56 0 0 0-.502.803c1.335 2.762-4.7 4.343-8.22 2.044-.267-.174-.493-.06-.633.005-6.144 2.867-14.019 5.344-18.646.362m40.996 61.784c-.802 3.334-9.076 3.137-11.98-.715-.565-.751-.48-2.338-.285-3.956 1.105 1.527 3.154 2.601 4.992 3.143a.56.56 0 0 0 .317-1.075c-2.49-.735-5.001-2.392-5.002-4.42.034-1.063.8-1.717 1.521-2.101-.036 3.617 5.535 5.842 9.315 5.269q.667 1.07 1.381 2.109zm19.7 7.905c-8.052 3.238-15.52-5.274-20.07-12.673a.56.56 0 0 0-.61-.249c-1.08.215-2.302.179-3.54-.107-3.026-.698-4.701-2.463-4.793-3.846-.068-1.042.79-1.731 1.762-2.103a.56.56 0 0 0 .137-1.004C45.532 87.274 39.442 81.5 39.892 79.346c.178-.853 1.909-1.014 2.78-1.058 10.268-.51 16.007 16.246 16.154 16.72a.56.56 0 0 0 .49.445c.974.1 1.926.352 2.822.747 1.818.805 3.872 2.503 2.912 4.238a.56.56 0 0 0 .214.753c.164.094 16.638 7.555 18.91 11.723.518.95.146 1.45-.877 1.861m27.796-17.504c-5.185 1.701-.465 10.726-19.113 8.286-5.822-.762-8.135-3.37-9.993-5.465-3.058-3.45-5.278-5.123-14.966.687l-.748-.352c.308-.92.12-1.83-.413-2.667 17.82-15.52 33.689-17.453 52.985-6.473a.56.56 0 1 0 .554-.974c-20.49-11.659-37.022-8.409-54.245 6.576-1.101-1.111-2.877-2.078-4.998-2.448 12.447-16.351 6.044-31.596-12.305-41.018-.147-.076-.273-.065-.436-.061-3.285.086-5.867-.812-7.28-2.532-.492-.597-.465-2.068-.24-4.246.35-.152.802-.346 1.653-.759 3.498 2.046 9.021 1.196 9.772-1.762.672.536 1.367 1.286 1.503 2.164a.56.56 0 0 0 .272.398c2.991 1.74 6.73 3.51 10.528 4.98 14.588 5.647 33.19 8.34 43.656-3.226a.556.556 0 0 0 .062-.67.6.6 0 0 0-.166-.171c-1.339-.897-2.404-2.292-1.316-3.442l.323.069c.034.682.363 1.341.965 1.92 1.164 1.122 3.512 2.02 6.095 1.813q.489.566.993 1.117a8.2 8.2 0 0 1-1.762.143.56.56 0 0 0-.469.229q-.47.646-.879 1.333c-1.774 2.983-4.381 9.232-1.91 17.566 2.677 9.026 10.507 17.755 23.277 25.958-2.73 1.08-3.417 3.887-1.178 6.171a49 49 0 0 0-3.121 2.289c-9.406-4.75-14.373-6.328-17.1-5.433m29.232 7.197a.56.56 0 0 0 .038 1.12c1.504-.051 2.763-.391 3.689-.965l-.364 1.605c-.763 3.307-8.13 2.675-10.947.162q.942-1.993 1.837-4.006c3.541 1.181 8.502.379 8.54-3.231 2.856 2.338 1.62 5.166-2.793 5.315m-.087-9.06a.57.57 0 0 0-.269.412.557.557 0 0 0 .16.465c.089.09.81.545 1.335 1.303.99 1.43.544 2.867-.87 3.605-1.667.871-4.474.687-6.088-.03a.55.55 0 0 0-.634.131c-.162.173-.496 1.157-2.3 4.946-.014.024-4.984 10.708-8.169 13.608-1.248 1.136-1.804.832-2.21-.248-3.693-9.8 11.111-18.334 11.461-18.76a.566.566 0 0 0-.08-.789c-1.13-.923-1.65-2.008-1.427-2.975.513-2.22 4.092-2.532 6.366-1.949a.57.57 0 0 0 .636-.281c6.369-12.049 10.333-16.856 12.111-17.466.692-.237.99.198 1.224.978 2.294 7.643-6.061 13.963-11.246 17.05"/></svg>