<svg xmlns="http://www.w3.org/2000/svg" id="self" width="133" height="118" fill="none" viewBox="0 0 173 154"><g clip-path="url(#clip0_7_2)"><path fill="#000" d="M117.867 111.637H43.686a17.43 17.43 0 0 1-14.673-8.052 54 54 0 0 1-2.49-5.547 74 74 0 0 1-1.744-4.652l-.314-.97h112.503l-.373 1a104 104 0 0 1-4.235 10.438 17.65 17.65 0 0 1-6.307 5.74 17.34 17.34 0 0 1-8.186 2.043M26.538 93.908a66 66 0 0 0 1.357 3.564 53 53 0 0 0 2.37 5.308 15.952 15.952 0 0 0 13.42 7.366h74.182c2.603-.01 5.163-.66 7.455-1.894a16.2 16.2 0 0 0 5.786-5.263 88 88 0 0 0 3.698-9.081z"/><path fill="var(--main-color, #337AB7)" d="M117.867 114.873H43.686a20.47 20.47 0 0 1-9.827-2.52 21.1 21.1 0 0 1-7.455-6.964 53.4 53.4 0 0 1-4.906-12.048.766.766 0 1 1 1.491-.357 52.6 52.6 0 0 0 4.727 11.585 19.3 19.3 0 0 0 6.948 6.472 19 19 0 0 0 9.111 2.341h74.092a19.13 19.13 0 0 0 15.88-8.559 35 35 0 0 0 2.714-5.965c.82-2.132 1.61-4.473 2.132-5.964a.747.747 0 0 1 1.402.477c-.522 1.491-1.313 3.817-2.133 5.965a38 38 0 0 1-2.877 6.262 20.63 20.63 0 0 1-17.118 9.275m0-3.236H43.686a17.43 17.43 0 0 1-14.673-8.052 54 54 0 0 1-2.49-5.547 74 74 0 0 1-1.744-4.652.778.778 0 0 1 1.49-.447c.373 1.178 1 2.833 1.686 4.473a53 53 0 0 0 2.37 5.308 15.95 15.95 0 0 0 13.42 7.366h74.122a15.85 15.85 0 0 0 7.455-1.893 16.2 16.2 0 0 0 5.786-5.264 99 99 0 0 0 4.07-10.08.75.75 0 0 1 .955-.447.745.745 0 0 1 .447.954 104 104 0 0 1-4.235 10.438 17.64 17.64 0 0 1-6.307 5.741 17.35 17.35 0 0 1-8.171 2.102m-20.875-33.46H43.984a.746.746 0 0 1-.746-.746v-6.128a.745.745 0 0 1 .746-.745h53.008a.745.745 0 0 1 .745.745v6.129a.76.76 0 0 1-.745.745m-52.188-1.491h51.412v-4.637H44.804z"/><path fill="var(--main-color, #337AB7)" d="M142.097 90.926H20.663a.72.72 0 0 1-.552-.239.69.69 0 0 1-.178-.581l.864-7.381a7.455 7.455 0 0 1 7.71-5.965h87.436a28.3 28.3 0 0 1 14.419 3.862l12.108 7.083a.75.75 0 0 1 .373.641v1.775a.746.746 0 0 1-.746.805M21.498 89.435h119.854v-.612l-11.75-6.993a26.84 26.84 0 0 0-13.659-3.653H28.506a5.964 5.964 0 0 0-6.232 4.712zm56.527-36.562H43.984a.745.745 0 0 1-.746-.745v-.582a5.77 5.77 0 0 1 5.77-5.77H73a5.77 5.77 0 0 1 5.77 5.77v.582a.746.746 0 0 1-.745.745m-33.221-1.49H77.28A4.294 4.294 0 0 0 73 47.266H49.01a4.294 4.294 0 0 0-4.205 4.115m97.427 18.429H99.527a.745.745 0 0 1-.746-.745V64.28a.745.745 0 0 1 .746-.745h42.704a.743.743 0 0 1 .746.745v4.787a.745.745 0 0 1-.746.745m-41.959-1.491h41.214v-3.295h-41.214z"/><path fill="var(--main-color, #337AB7)" d="M98.05 72.049H39.81a2.2 2.2 0 0 1-1.85-1.014l-5.59-8.544a2.2 2.2 0 0 1-.359-1.223v-7.65a2.237 2.237 0 0 1 2.222-2.236h49.519c.413-.001.817.118 1.163.343l14.314 8.947a2.24 2.24 0 0 1 1.044 1.908v7.232a2.234 2.234 0 0 1-2.222 2.237M34.232 52.873a.745.745 0 0 0-.73.746v7.65a.85.85 0 0 0 .119.417l5.576 8.529a.75.75 0 0 0 .612.343H98.05a.745.745 0 0 0 .731-.746v-7.261a.73.73 0 0 0-.298-.642l-14.315-8.946a.66.66 0 0 0-.372-.12zM152.535 72.05h-9.185a1.88 1.88 0 0 1-1.864-1.88v-7.32a1.88 1.88 0 0 1 1.864-1.88h9.185a1.88 1.88 0 0 1 1.864 1.88v7.32a1.88 1.88 0 0 1-1.864 1.88m-9.185-9.588a.39.39 0 0 0-.373.388v7.32a.39.39 0 0 0 .373.389h9.185a.386.386 0 0 0 .372-.388v-7.321a.386.386 0 0 0-.372-.388zM33.815 100.827a7.205 7.205 0 0 1-7.128-7.262v-.492a.751.751 0 0 1 1.491.179 2 2 0 0 0 0 .313 5.651 5.651 0 0 0 11.303 0q.01-.165 0-.328a.746.746 0 0 1 .67-.82.775.775 0 0 1 .82.67v.478a7.217 7.217 0 0 1-7.156 7.262m93.505 0a7.204 7.204 0 0 1-7.127-7.262v-.492a.75.75 0 0 1 1.491.179 2 2 0 0 0 0 .313 5.65 5.65 0 1 0 11.303 0q.01-.165 0-.328a.747.747 0 0 1 .671-.82.774.774 0 0 1 .82.67v.478a7.216 7.216 0 0 1-7.158 7.262"/><path fill="var(--main-color, #337AB7)" d="M112.35 110.757a9.825 9.825 0 0 1-9.722-9.915 9.98 9.98 0 0 1 4.473-8.306.752.752 0 1 1 .835 1.253 8.44 8.44 0 0 0-3.757 7.053 8.23 8.23 0 0 0 4.89 8.235 8.22 8.22 0 0 0 6.622 0 8.239 8.239 0 0 0 4.89-8.235 8.43 8.43 0 0 0-3.743-7.053.755.755 0 0 1-.209-1.044.76.76 0 0 1 .773-.32q.147.028.271.111a9.97 9.97 0 0 1 4.399 8.306 9.825 9.825 0 0 1-9.722 9.915m-20.92 0a9.824 9.824 0 0 1-9.722-9.915 9.93 9.93 0 0 1 4.473-8.306.75.75 0 0 1 1.156.48.75.75 0 0 1-.32.773 8.23 8.23 0 1 0 8.946 0 .75.75 0 0 1-.001-1.252.75.75 0 0 1 .836 0 9.96 9.96 0 0 1 4.399 8.305 9.84 9.84 0 0 1-2.826 6.985 9.83 9.83 0 0 1-6.941 2.93m-20.92 0a9.824 9.824 0 0 1-9.722-9.915 9.98 9.98 0 0 1 4.473-8.306.752.752 0 1 1 .835 1.253 8.44 8.44 0 0 0-3.757 7.053 8.23 8.23 0 0 0 4.89 8.235 8.22 8.22 0 0 0 6.622 0 8.242 8.242 0 0 0 4.89-8.235 8.42 8.42 0 0 0-3.743-7.053.752.752 0 1 1 .835-1.253 9.96 9.96 0 0 1 4.399 8.306 9.826 9.826 0 0 1-9.722 9.915m-20.92 0a9.824 9.824 0 0 1-9.722-9.915 9.93 9.93 0 0 1 4.474-8.306.752.752 0 1 1 .834 1.253 8.23 8.23 0 1 0 8.947 0 .752.752 0 1 1 .835-1.253 9.96 9.96 0 0 1 4.399 8.306 9.83 9.83 0 0 1-6.004 9.142 9.8 9.8 0 0 1-3.763.773"/><path fill="var(--accent-color, #F58220)" d="M142.097 93.908H20.663a2.237 2.237 0 0 1 0-4.473h121.434a2.24 2.24 0 0 1 2.237 2.236 2.24 2.24 0 0 1-2.237 2.237M20.663 90.926a.745.745 0 0 0 0 1.49h121.434a.745.745 0 0 0 0-1.49zM55.241 65.01H43.18a.746.746 0 0 1 0-1.491H55.24a.746.746 0 0 1 0 1.49m0-2.982H43.18a.746.746 0 0 1 0-1.492H55.24a.746.746 0 0 1 0 1.492m0-2.983H43.18a.746.746 0 0 1 0-1.49H55.24a.746.746 0 0 1 0 1.49"/></g><defs><clipPath id="clip0_7_2"><path fill="#fff" d="M0 0h173v154H0z"/></clipPath></defs></svg>