<svg xmlns="http://www.w3.org/2000/svg" id="self" fill="none" viewBox="0 0 174 153"><defs><path id="reuse-0" fill="#fff" d="M43 41h41v41H43z"/></defs><g clip-path="url(#prefix__clip0_8_167)" mask="url(#prefix__a)"><g stroke-linecap="round" stroke-linejoin="round" stroke-miterlimit="10" stroke-width="1.353" mask="url(#prefix__b)"><path stroke="var(--main-color, #337AB7)" d="m140.005 87.46 1.008 1.007a1.074 1.074 0 0 1-.282 1.716 1.07 1.07 0 0 1-.658.096l-1.988-.345a1.445 1.445 0 0 1-1.201-1.426 1.45 1.45 0 0 0-.423-1.024l-1.421-1.42a1.248 1.248 0 0 0-2.08 1.233l.189.644a1.24 1.24 0 0 1-.314 1.233l-.544.544c-.384.384-.6.905-.6 1.447a1.7 1.7 0 0 0 1.701 1.701h.506a2.59 2.59 0 0 1 1.953.89l1.005 1.154c.404.465.627 1.06.627 1.675v1.727a1.463 1.463 0 0 1-2.925 0v-1.118a1.036 1.036 0 0 0-1.769-.733l-1.047 1.046a1.03 1.03 0 0 1-.73.303h-.248c-.274 0-.537-.109-.731-.303l-1.511-1.51a1.033 1.033 0 0 0-1.763.73v1.498c0 .7-.567 1.266-1.267 1.266h-.745c-.364 0-.714-.145-.971-.402l-.12-.12a1.287 1.287 0 0 0-1.82 0l-1.133 1.132a1.304 1.304 0 0 1-1.847 0 1.307 1.307 0 0 0-1.847 0l-.845.845a1.3 1.3 0 0 1-.924.383 1.443 1.443 0 0 1-1.442-1.442v-.34c0-.986-.799-1.786-1.785-1.786h-.081a.89.89 0 0 1-.89-.89.89.89 0 0 0-.89-.89h-.763a1.28 1.28 0 0 0-1.28 1.28.89.89 0 0 1-.889.89h-.764c-.556 0-1.089-.22-1.482-.613l-1.184-1.184a1.47 1.47 0 0 0-1.04-.431h-.469a.86.86 0 0 0-.857.857 1.41 1.41 0 0 1-.414 1l-1.024 1.024a1.134 1.134 0 0 1-1.604 0l-1.192-1.192a1.76 1.76 0 0 1-.516-1.246v-.853a.88.88 0 0 1 .88-.88.88.88 0 0 0 .88-.88v-1.638a1.56 1.56 0 0 0-.46-1.108l-.598-.598a1.74 1.74 0 0 1-.175-2.258l2.045-2.802a2.18 2.18 0 0 1 1.762-.896h.306c.671 0 1.315-.267 1.79-.741l.389-.39m14.316-1.596h1.069c.563 0 1.019.456 1.019 1.019v.243c0 .55.446.996.996.996h2.462a1 1 0 0 0 .704-.292l2.257-2.257a1.9 1.9 0 0 1 1.351-.56 1.91 1.91 0 0 0 1.352-.56l2.08-2.079a2.3 2.3 0 0 1 1.627-.674 2.3 2.3 0 0 0 1.626-.674l1.267-1.267a1.04 1.04 0 0 1 .73-.302c.57 0 1.032.462 1.032 1.032v.643a2.15 2.15 0 0 0 .63 1.52c.403.404.63.95.63 1.52v.441a2.15 2.15 0 0 1-.63 1.52l-.349.35a2.15 2.15 0 0 0-.629 1.52c0 .398.158.78.44 1.063l.307.307"/><path stroke="var(--accent-color, #F58220)" d="M105.407 86.053c-2.12-2.697-4.138-6.246-4.138-9.953m-.001 0c0-5.208 3.735-9.43 8.942-9.43s8.942 4.222 8.942 9.43c0 7.256-7.733 13.903-8.823 14.747a.194.194 0 0 1-.238 0c-.349-.27-1.378-1.135-2.617-2.424"/><path stroke="var(--main-color, #337AB7)" d="M104.697 73.588h4.372m-4.331 3.977h10.738m-3.262-3.977h3.51"/><path stroke="var(--accent-color, #F58220)" d="M116.171 75.572a5.961 5.961 0 1 1-11.922 0 5.961 5.961 0 0 1 11.922 0"/></g><path stroke="var(--main-color, #337AB7)" stroke-width="1.5" d="M84 49.75h63.25v86.501H85a5.25 5.25 0 0 1-5.25-5.25V54A4.25 4.25 0 0 1 84 49.75z"/><path stroke="var(--main-color, #337AB7)" stroke-width="1.5" d="M80.15 129.213c0-2.325.346-5.813 9.168-5.813 4.765 0 40.151.197 58.682.197M91.587 49.674v73.456M91 49.474V25H33a5 5 0 0 0-5 5v72a6 6 0 0 0 6 6h45.019"/><path stroke="var(--main-color, #337AB7)" stroke-width="1.5" d="M28 103c0-3.2 0-8 9.23-8 4.531 0 24.15.27 41.77.27M40 26v70"/><g stroke="var(--main-color, #337AB7)" stroke-linecap="round" stroke-linejoin="round" stroke-miterlimit="10" stroke-width="1.5" clip-path="url(#prefix__clip1_8_167)" mask="url(#prefix__c)"><path d="M65.825 46.367h-3.851l-.457-.834a1.206 1.206 0 0 1 1.433-1.725 3.05 3.05 0 0 0 1.899 0 1.207 1.207 0 0 1 1.432 1.725zm-18.486 6.708a8.16 8.16 0 0 1-.052-4.524.887.887 0 0 1 1.485-.389l2.134 2.152m-3.305 8.17a6.9 6.9 0 0 1-3.6-5.63.848.848 0 0 1 1.221-.814l12.813 6.317m22.433-5.309a8.16 8.16 0 0 0 .044-4.497.887.887 0 0 0-1.485-.389l-9.256 9.335m13.774-3.18a7 7 0 0 0 .252-1.463.848.848 0 0 0-1.22-.814l-12.815 6.318m-9.618-8.83.784-.334c1.079-.461 1.515-1.75 1.046-2.827m-4.314 3.161-.31-1.322a.882.882 0 0 1 .86-1.083h1.384c.568 0 .988.53.859 1.083l-.309 1.322m-1.242-2.485v-.9"/><path d="M63.9 56.258v-2.24a4.49 4.49 0 0 0-4.49-4.49h-1.134a2.288 2.288 0 0 0-2.217 2.854h1.866a2.084 2.084 0 0 1 1.925 2.883l-.408.983m8.212-6.72-.783-.334c-1.08-.461-1.515-1.75-1.046-2.827m4.315 3.161.308-1.322a.882.882 0 0 0-.858-1.083h-1.385a.882.882 0 0 0-.86 1.083l.31 1.322m1.242-2.485v-.9"/><path d="M63.9 54.018a4.49 4.49 0 0 1 4.489-4.49h1.133a2.288 2.288 0 0 1 2.218 2.854h-1.866a2.084 2.084 0 0 0-1.925 2.883l.412.993m-4.461-12.3V43"/></g><g stroke-linecap="round" stroke-linejoin="round" stroke-miterlimit="10" stroke-width="1.2" clip-path="url(#prefix__clip2_8_167)" mask="url(#prefix__d)"><path stroke="var(--main-color, #337AB7)" d="M65.222 68.889c1.688 1.554 4.39 4.345 4.39 6.274 0 1.89-2.746 1.82-2.746 1.82m-5.933 0s-2.746.07-2.746-1.82c0-1.85 2.717-4.683 4.403-6.263m-15.357-.634-.71-1.053m4.091 6.067-1.588-2.356m5.084 7.538-1.243-1.843"/><path stroke="var(--accent-color, #F58220)" d="M49.718 69.334a1.597 1.597 0 1 0-3.153.503 1.597 1.597 0 0 0 3.154-.503z"/><path stroke="var(--main-color, #337AB7)" d="M66.455 75.27a7 7 0 0 1 .39 2.24c0 .686-.523 1.073-1.052 1.289a3.86 3.86 0 0 0-1.892 1.677l-.002.003a3.86 3.86 0 0 0-1.895-1.68c-.529-.215-1.05-.602-1.05-1.29 0-2.227 1.318-4.95 2.945-4.95.366 0 .716.138 1.039.377m-5.564-5.206c-1.586 0-2.872 1.036-2.872 2.314s1.286 2.314 2.872 2.314m.247-4.615a1.887 1.887 0 0 0 1.142 2.974m-8.286 2.473 4.24-2.096m2.039 2.231-5.158 1.8m-2.647.202a1.002 1.002 0 0 1-.659-1.857l.896-.518a1.002 1.002 0 1 1 1.003 1.736l-.896.517a1 1 0 0 1-.344.122"/><path stroke="var(--main-color, #337AB7)" d="M52.187 74.69a1.002 1.002 0 0 1 1.003 1.736l-.897.518a1.003 1.003 0 1 1-1.002-1.736"/><path stroke="var(--accent-color, #F58220)" d="M78.62 75.126a2.848 2.848 0 0 0-.912-5.544 2.846 2.846 0 0 0-2.623 3.954"/><path stroke="var(--main-color, #337AB7)" d="M68.423 67.73c1.586 0 2.871 1.036 2.871 2.314s-1.285 2.314-2.871 2.314m-.248-4.615a1.887 1.887 0 0 1-1.122 2.97m7.92 2.542-3.915-2.17m-2.018 2.24 5.33 2.066m1.808.576a1.003 1.003 0 0 0 1.908.493l.437-.938a1.002 1.002 0 1 0-1.817-.846l-.437.939a1 1 0 0 0-.091.352"/><path stroke="var(--main-color, #337AB7)" d="M76.703 74.68a1.002 1.002 0 1 0-1.817-.845l-.436.938a1 1 0 1 0 1.817.846M65.825 46.367h-3.851l-.457-.834a1.206 1.206 0 0 1 1.433-1.725 3.05 3.05 0 0 0 1.899 0 1.207 1.207 0 0 1 1.432 1.725zm-12.939 5.944 5.157 5.2m-10.704-4.436a8.16 8.16 0 0 1-.052-4.524.887.887 0 0 1 1.485-.389l2.134 2.152m-3.305 8.17a6.9 6.9 0 0 1-3.6-5.63.848.848 0 0 1 1.221-.814l12.813 6.317m-7.842 4.662a6.18 6.18 0 0 1-5.889-3.303.898.898 0 0 1 .831-1.313l12.907.505M54.79 65.84a6.56 6.56 0 0 1-6.438-.768.756.756 0 0 1 .144-1.3l9.533-4.196m-.417 8.64c-.952.63-2.093.9-3.934.578a.772.772 0 0 1-.406-1.273l4.758-5.24m22.438-9.233a8.16 8.16 0 0 0 .044-4.497.887.887 0 0 0-1.485-.389l-9.256 9.335m13.774-3.18a7 7 0 0 0 .252-1.463.848.848 0 0 0-1.22-.814l-12.815 6.318m7.843 4.661a6.18 6.18 0 0 0 5.89-3.303.898.898 0 0 0-.831-1.313l-12.902.505m3.249 6.932a6.56 6.56 0 0 0 6.436-.768.756.756 0 0 0-.144-1.3l-9.54-4.2m.515 8.706c.999.626 2.158.837 3.843.516a.772.772 0 0 0 .406-1.273l-4.765-5.247m-9.618-12.746.784-.334c1.079-.461 1.515-1.75 1.046-2.827m-4.314 3.161-.31-1.322a.882.882 0 0 1 .86-1.083h1.384c.568 0 .988.53.859 1.083l-.309 1.322"/><path stroke="var(--accent-color, #F58220)" d="M58.902 47.043v-.9"/><path stroke="var(--main-color, #337AB7)" d="M63.9 56.258v-2.24a4.49 4.49 0 0 0-4.49-4.49h-1.134a2.288 2.288 0 0 0-2.217 2.854h1.866a2.084 2.084 0 0 1 1.925 2.883l-.408.983m8.212-6.72-.783-.334c-1.08-.461-1.515-1.75-1.046-2.827m4.315 3.161.308-1.322a.882.882 0 0 0-.858-1.083h-1.385a.882.882 0 0 0-.86 1.083l.31 1.322"/><path stroke="var(--accent-color, #F58220)" d="M68.897 47.043v-.9"/><path stroke="var(--main-color, #337AB7)" d="M63.9 54.018a4.49 4.49 0 0 1 4.489-4.49h1.133a2.288 2.288 0 0 1 2.218 2.854h-1.866a2.084 2.084 0 0 0-1.925 2.883l.412.993"/><path stroke="var(--accent-color, #F58220)" d="M77.708 68.654v.907"/><path stroke="var(--main-color, #337AB7)" d="M68.546 67.73a5.35 5.35 0 0 0-3.77 1.542l-.877.865-.876-.865a5.35 5.35 0 0 0-3.77-1.543 1.203 1.203 0 0 1-1.206-1.202V57.47c0-.664.539-1.202 1.203-1.202h9.3c.663 0 1.202.538 1.202 1.202v9.057c0 .665-.54 1.204-1.206 1.202z"/><path stroke="var(--accent-color, #F58220)" d="M60.452 60.717v-2.044h6.895v6.654a4.47 4.47 0 0 0-3.388 1.535l-.06.068-.06-.068a4.47 4.47 0 0 0-3.387-1.535V63.52M63.9 43.958V43"/></g></g><defs><clipPath id="prefix__clip0_8_167"><path fill="#fff" d="M0 0h174v153H0z"/></clipPath><clipPath id="prefix__clip1_8_167"><path fill="#fff" d="M43 41h39v10H43z"/></clipPath><clipPath id="prefix__clip2_8_167"><path fill="#fff" d="M43 41h36v41H43z"/></clipPath></defs></svg>