<svg xmlns="http://www.w3.org/2000/svg" id="self" fill="none" viewBox="0 0 173 153"><g stroke-width="1.5"><path stroke="var(--main-color, #377CB5)" d="M135.821 52h-87.66a1 1 0 0 0-.99 1.148l9.88 66a1 1 0 0 0 .989.852h66.862a1 1 0 0 0 .986-.837l10.92-66a1 1 0 0 0-.987-1.163Z"/><path stroke="var(--accent-color, #F58220)" d="M65 83h30M64 77h43"/><path stroke="var(--main-color, #377CB5)" d="M67.5 93H106M54.705 52l-1.526-9.847A1 1 0 0 1 54.167 41h76.605a1 1 0 0 1 .979 1.202L129.727 52M61.403 41l-1.243-8.861A1 1 0 0 1 61.15 31h62.646a1 1 0 0 1 .983 1.184L123.129 41"/></g></svg>