<svg xmlns="http://www.w3.org/2000/svg" id="self" fill="none" viewBox="0 0 174 152"><path stroke="var(--main-color, #377CB5)" stroke-width="1.5" d="M87.872 51.23v76.183M88.457 50.645l-54.5-15.822v77.354L88.457 128l55.086-15.823V34.823z"/><path stroke="var(--main-color, #377CB5)" stroke-width="1.5" d="M43.333 37.166V26.618l43.952 23.44 47.467-23.44v10.548"/><path stroke="var(--main-color, #377CB5)" stroke-width="1.5" d="M50.952 30.134V19l36.334 30.473 40.435-28.715v8.79"/><path stroke="var(--main-color, #377CB5)" stroke-linecap="round" stroke-width="1.5" d="M38.646 55.334v16.725c0 .216.296.278.383.08l6.266-14.322c.087-.199.383-.136.383.08v16.19"/><path fill="var(--main-color, #377CB5)" d="M49.944 58.85a.75.75 0 0 0-1.5 0zm-1.5 16.408a.75.75 0 0 0 1.5 0zm7.36-14.8a.75.75 0 0 0-1.5 0zm-1.5 16.558a.75.75 0 0 0 1.5 0zm.497-9.127-.198.723zm-6.357-9.04v7.502h1.5V58.85zm0 7.502v8.907h1.5v-8.907zm.552.723 5.607 1.538.397-1.446-5.607-1.538zm6.808.622v-7.239h-1.5v7.239zm-1.5-7.239v16.56h1.5v-16.56zm.3 8.155a.95.95 0 0 0 1.2-.916h-1.5a.55.55 0 0 1 .696-.53z"/><path stroke="var(--main-color, #377CB5)" stroke-linecap="round" stroke-width="1.5" d="M62.086 62.366v16.995"/><path stroke="var(--main-color, #377CB5)" stroke-width="1.5" d="M58.148 65.23a2.25 2.25 0 0 1 2.898-2.155l2.665.801a3.25 3.25 0 0 1 2.313 3.113v5.405a2.25 2.25 0 0 1-2.898 2.155l-2.665-.802a3.25 3.25 0 0 1-2.313-3.112z"/><path stroke="var(--main-color, #377CB5)" stroke-linecap="round" stroke-width="1.5" d="M69.119 63.537v17.58M69.119 64.124l1.517.322a4 4 0 0 1 3.17 3.913v4.23a3 3 0 0 1-3.727 2.91l-.96-.24M74.393 82.877l4.772-16.21c.06-.201.348-.188.389.018l3.63 18.536M76.15 77.602l4.689 1.172"/><path stroke="var(--main-color, #377CB5)" stroke-width="1.5" d="M130.942 81.101c-4.877 9.858-15.249 14.38-23.046 10.523s-10.494-14.846-5.617-24.704c4.878-9.858 15.249-14.38 23.046-10.523s10.494 14.846 5.617 24.704ZM97.248 66.898c.627-2.147 2.066-5.264 4.753-8.177 2.741-2.972 5.703-4.216 6.653-4.56"/><path stroke="var(--accent-color, #F58220)" stroke-linecap="round" stroke-width="1.5" d="m110.14 82.876 2.271-17.037a.2.2 0 0 1 .367-.08l3.618 5.685a.2.2 0 0 0 .348-.018l3.66-7.321a.2.2 0 0 1 .377.06l2.251 15.195"/></svg>