<svg xmlns="http://www.w3.org/2000/svg" width="120" height="120" fill="none"><path fill="#fff" d="M46.553 104.694c-2.52-1.623-5.041-3.246-7.552-4.87-3.35-2.167-6.691-4.334-10.042-6.501-1.66-1.08-3.33-2.158-4.991-3.227-.514-.33-1.038-.622-1.562-.943-.83-.496-1.66-.991-2.48-1.487 0-.37-.01-.66-.376-.894-1.473-.962-2.916-1.973-4.389-2.935-1.59-1.04-3.182-2.08-4.813-3.071-.9-.545-1.858-.992-2.787-1.478-.415-.213-.87-.213-1.196.117A15 15 0 0 0 5.04 80.96c-.326.428-.583.914-.89 1.36-.592.866-1.195 1.711-1.778 2.576a13.6 13.6 0 0 0-1.552 3.12c-.267.768.03 1.166.583 1.604.178.136.366.252.544.388 1.018.768 2.006 1.565 3.044 2.304 1.305.923 2.63 1.817 3.963 2.702 1.078.719 2.165 1.419 3.262 2.109.356.223.741.486 1.137.554.366.058.642.214.919.398.89.564 1.789 1.108 2.659 1.701 1.453.992 3.044 1.779 4.3 3.033.098.097.226.165.345.243.83.505 1.68.981 2.481 1.525 1.226.817 2.47 1.624 3.627 2.537.96.748 1.918 1.477 2.956 2.119 2.994 1.856 5.99 3.713 8.974 5.569.05.029.109.058.148.097.257.224.505.214.781-.087.425.272.82.544 1.236.797.543.33 1.097.408 1.66.048.158-.097.316-.184.475-.272.929-.476 1.868-.758 2.905-.301.81.359 1.641.7 2.471 1.02.277.107.613.243.86.166.376-.117.663-.049.969.116.316.175.633.369.959.535.375.194.76.379 1.156.544.376.146.484.097.682-.262.06-.107.099-.224.129-.331.276-1.399.326-1.409-.88-2.226-.415-.281-.82-.592-1.206-.913-.79-.681-1.542-1.419-2.352-2.08-.445-.36-.702-.758-.663-1.332.04-.699.02-1.399.11-2.099.088-.709-.179-1.176-.782-1.545-.563-.35-1.087-.758-1.63-1.147.059-.204.108-.369.158-.574-.129-.097-.198-.165-.277-.223zm-1.275 4.189c-.228-.097-.307-.224-.159-.467.327-.524.633-1.069.96-1.632.77.233 1.136.884 1.6 1.545-.148-.709-.504-1.127-1.453-1.759.159-.301.317-.408.584-.243.543.34 1.077.709 1.581 1.118.119.097.148.359.148.544-.01.738-.04 1.477-.079 2.216-.04.768.257 1.331.9 1.778.632.438 1.196.953 1.798 1.429.228.175.307.369.159.622-.267.467-.514.953-.81 1.39-.248.36-.465.379-.89.204-.88-.369-1.77-.709-2.64-1.088-1.166-.506-2.283-.282-3.241.369-.89.602-1.611.466-2.382-.097-.158-.117-.267-.311-.396-.467.03-.029.05-.068.08-.097.385.126.77.262 1.156.389.01-.02.02-.049.03-.068-.327-.166-.653-.321-1.028-.515.336-.341.415-.885 1.028-.749-.07-.087-.139-.155-.248-.282.88-1.224 1.77-2.459 2.65-3.693.227.029.444.058.671.078-.187-.078-.375-.175-.533-.253 0-.496.365-.155.514-.291zm-27.952-9.739s.05-.068.07-.107c-.712-.456-1.424-.923-2.136-1.38-.138-.087-.276-.165-.405-.262-.395-.292-.395-.34-.04-.855l1.414.913s.04-.058.07-.097l-1.404-.913 1.136-1.692c1.048.758 2.056 1.487 3.054 2.216.02-.02.03-.038.05-.058-.998-.748-1.987-1.487-3.005-2.245l.306-.457c.85.593 1.69 1.186 2.53 1.769.02-.02.03-.039.05-.058-.81-.593-1.62-1.176-2.48-1.808 1.077-1.39 1.769-3.003 2.945-4.374l1.986 1.283.07-.097-1.977-1.283c.178-.233.316-.408.484-.641 1.374.933 2.708 1.837 4.033 2.74.02-.019.03-.048.05-.068-1.256-.874-2.501-1.749-3.865-2.701.494-.146.83-.195 1.166.019.978.641 1.957 1.293 2.945 1.924 1.463.943 2.936 1.876 4.389 2.829 3.034 1.973 6.068 3.965 9.113 5.938 2.075 1.341 4.16 2.663 6.246 3.995l1.987 1.282c-.158.807-.534 1.478-.89 2.148a32 32 0 0 1-1.067 1.886 23 23 0 0 1-1.176 1.74c-.702.933-1.434 1.837-2.165 2.75a2.5 2.5 0 0 1-.563.544c-.386.263-.771.146-1.137-.097-1.156-.738-2.323-1.487-3.489-2.216a542 542 0 0 0-4.715-2.896c-1.265-.768-2.431-1.681-3.538-2.653-.06-.049-.119-.117-.178-.166-1.453-1.02-2.886-2.089-4.378-3.051-2.452-1.575-4.952-3.081-7.423-4.627-.267-.165-.484-.418-.722-.631-.05-.04-.04-.136-.089-.321l2.768 1.788zm.148-7.707c-.257-.136-.504-.272-.741-.398 0 .01-.02.02-.02.039.208.145.415.3.672.486-.138.155-.257.291-.415.466l-2.056-1.332-.049.078 2.066 1.342c-.08.184-.119.36-.228.495a813 813 0 0 1-3.518 4.636c-.198-.107-.356-.184-.504-.282-2.461-1.671-4.922-3.333-7.364-5.034-1.196-.826-2.342-1.72-3.509-2.585-.632-.467-.731-.904-.395-1.614.8-1.74 1.918-3.295 3.015-4.86.415-.592.81-1.195 1.235-1.778.198-.272.405-.564.682-.758.583-.418 1.216-.544 1.878-.136 1.68 1.02 3.37 2.012 5.03 3.061 1.988 1.254 3.935 2.566 5.892 3.85l.267.194c-.356 1.496-.92 2.886-1.928 4.14zm33.398 24.337c.168-.068.277-.146.336-.126.366.155.731.33 1.117.466l-1.097-.709.05-.107c.414.194.82.388 1.235.583.01-.029.03-.049.04-.078-.377-.204-.752-.418-1.167-.651.158-.301.286-.564.435-.836.593.389 1.176.748 1.73 1.137a.46.46 0 0 1 .167.35c-.03.389-.108.778-.178 1.302-.938-.476-1.749-.874-2.658-1.331z"/><path fill="#fff" d="M29.384 96.345c1.562.943 3.124 1.896 4.695 2.838-.02.03-.04.068-.06.098-1.56-.943-3.113-1.886-4.674-2.838.01-.04.03-.068.04-.107zM34.978 99.038l-4.656-3.013s.02-.03.03-.049l4.655 3.013zM28.98 106.346c1.245.807 2.411 1.565 3.577 2.323-1.235-.661-2.48-1.283-3.578-2.323M21.012 101.254l3.261 1.953c-.02.029-.03.059-.049.078-1.097-.651-2.194-1.293-3.301-1.944.03-.029.06-.058.079-.087zM39.407 107.027l3.696 2.39s-.02.03-.03.039l-3.706-2.4s.02-.029.04-.039zM45.229 105.258c-.06 0-.129.029-.169 0a54 54 0 0 1-2.204-1.468c.801.457 1.602.924 2.412 1.38-.01.03-.03.059-.04.088M37.094 111.507l2.718 1.759c-1.028-.398-1.858-1.098-2.788-1.661.02-.03.04-.069.07-.098M38.012 110.992l2.244 1.448s-.03.039-.04.058l-2.243-1.448s.03-.039.04-.058M42.213 103.781l1.957 1.263s-.03.039-.04.058l-1.956-1.263s.03-.039.04-.058M42.787 110.001l-1.65-1.069s.02-.02.02-.039l1.67 1.079s-.03.009-.05.019zM2.025 88.696c1.434.885 2.877 1.779 4.31 2.663-1.582-.66-2.916-1.71-4.31-2.663M18.453 87.87c-1.463-.816-2.926-1.642-4.388-2.459 1.522.72 3.034 1.468 4.388 2.46M9.696 82.37c-.8-.72-1.76-1.167-2.837-1.507.83-.03 1.74.447 2.837 1.506M5.1 89.95c-.85-.33-1.611-.972-2.471-1.448a.7.7 0 0 1 .07-.107zM16.92 87.628c-.059 0-.128.038-.178.019-.77-.418-1.541-.846-2.312-1.273.02-.04.04-.068.059-.107.81.457 1.62.923 2.431 1.38zM13.018 96.628l-1.513-.983s.02-.029.03-.048l1.503.972s-.01.04-.02.059M13.412 96.132l-1.602-1.04s.02-.03.03-.049l1.592 1.03s-.01.04-.02.049zM8.392 82.243c-.158-.048-.336-.078-.484-.146-.198-.097-.386-.214-.584-.33v.02c.158.038.317.057.465.125.208.098.406.224.603.34v-.019zM8.392 82.262c.296.156.593.312.89.477l-.04.068c-.287-.185-.564-.37-.85-.554zM16.92 87.647c.169.078.347.155.515.243l-.05.087c-.158-.116-.316-.223-.464-.34z"/><path fill="#fff" d="M7.324 81.776c-.168-.068-.346-.145-.514-.214.01-.029.03-.058.04-.077.157.107.316.204.474.31zM49.755 115.25a32 32 0 0 0-1.048-.516l.04-.078c.178.088.346.185.524.263q.267.119.534.224c-.02.038-.03.068-.05.107M49.232 112.45c.247.194.504.379.771.583-.495-.214-.544-.243-.761-.593h-.02z"/><path fill="#fff" d="m49.25 112.45-.682-.447s.04-.049.06-.068c.197.175.405.34.613.515h.02zM45.288 109.427c.238.136.475.273.712.399-.02.029-.03.049-.05.078-.217-.166-.444-.321-.662-.487zM45.268 108.883c.178.068.346.136.524.194-.02.03-.03.059-.05.098-.158-.107-.316-.204-.474-.311zM44.793 113.918c.129 0 .257-.01.386-.02v.078c-.129.01-.267.029-.396.039v-.097zM47.926 110.341c.05.136.1.282.158.418-.03.01-.059.029-.089.039-.059-.146-.128-.282-.187-.428.04-.01.079-.029.128-.039zM107.67 50.615c-.805.664-1.532 1.43-2.286 2.158-.389.383-.727.766-1.338.843-.493.064-.831.358-.87.958-.026.281-.234.6-.441.83-1.143 1.163-2.338 2.261-3.469 3.436-1.714 1.788-3.377 3.615-5.078 5.403-6.391 6.693-12.717 13.45-18.77 20.436-1.09 1.252-2.104 2.568-3.273 3.743-1.442 1.456-2.351 3.193-3.17 5.007a363 363 0 0 0-2.675 6.105c-.52 1.201-1.04 2.414-1.455 3.653-.325.983.143 1.379 1.17 1.073.259-.077.493-.217.74-.345.454-.243.896-.498 1.337-.741 2.767-1.533 5.65-2.848 8.586-4.036a7.15 7.15 0 0 0 2.767-1.993c1.598-1.839 3.195-3.69 4.858-5.479 4.455-4.79 8.937-9.554 13.405-14.331 4.533-4.854 9.079-9.694 13.625-14.548.182-.192.403-.383.637-.46.597-.191.935-.524.961-1.15 0-.153.104-.319.195-.46.753-1.034 1.494-2.094 2.299-3.09.727-.907.831-1.341.221-2.35-.351-.575-.793-1.099-1.234-1.61-1.026-1.188-2.156-2.26-3.507-3.065-.507-.307-1.104-.473-1.689-.715-.571.255-1.13.37-1.52.69zm.52 9.426c-2.598 3.768-6.027 6.871-9.183 10.23-2.027 2.147-4.118 4.228-6.131 6.374a418 418 0 0 0-6.495 7.013 904 904 0 0 0-8.716 9.924 18 18 0 0 0-1.402 1.865c-.351.536-.819.74-1.43.817-.947.102-1.818-.038-2.766-.421.052-.933.065-1.827.156-2.72.026-.27.26-.525.455-.742 3.273-3.576 6.546-7.14 9.832-10.703 3.663-3.998 7.326-7.996 11.002-11.981 1.013-1.099 2.091-2.133 3.105-3.232 1.13-1.213 2.208-2.478 3.325-3.704a120 120 0 0 1 2.143-2.312c1.026-1.072 2.065-2.145 3.092-3.218 1.039.97 2.052 1.916 3.013 2.822zm2.702 2.146c-.234.306-.416.574-.637.817-3.13 3.334-6.26 6.667-9.417 9.988-5.416 5.697-10.963 11.279-16.093 17.243-1.988 2.312-3.975 4.611-5.95 6.936-.974 1.15-.948 1.162-2.545.613-.052-.907-.078-1.788.675-2.567.961-.996 1.844-2.082 2.74-3.13 1.26-1.456 2.469-2.963 3.78-4.38 4.001-4.292 8.028-8.545 12.055-12.799 3.572-3.755 7.17-7.485 10.755-11.24.493-.51.883-1.111 1.325-1.673.402-.498.805-.983 1.259-1.545.702.6 1.338 1.149 2.04 1.75zM70.522 92.33c-.17.038-.312.077-.52.128.013-.166-.026-.345.052-.447.584-.907 1.117-1.865 1.818-2.67 1.897-2.171 3.871-4.266 5.82-6.386 3.377-3.666 6.754-7.331 10.144-10.972 4.027-4.317 8.053-8.609 12.119-12.9 1.143-1.2 2.364-2.325 3.559-3.487q.363.396-.234 1.328l.702-.613c.259.115.519.23.935.409-.663.728-1.247 1.392-1.858 2.056a699 699 0 0 1-4.221 4.535c-1.585 1.673-3.209 3.32-4.767 5.006-3.91 4.228-7.794 8.482-11.69 12.722-.572.626-1.118 1.277-1.728 1.865-3.04 2.976-5.637 6.322-8.495 9.452-.533.587-1.091 1.022-2.091.894.169-.332.312-.6.467-.92zm36.018-37.334.468-.78c-.325.14-.572.256-.948.422.117-.715.779-.869.948-1.418-.649.026-.805 1.01-1.689.767.195-.256.338-.473.507-.652.766-.805 1.559-1.596 2.312-2.414.299-.332.624-.383 1.013-.255.091.025.195.064.286.115 2.143 1.098 4.04 2.49 5.468 4.444.195.269.351.588.416.907.052.269.039.639-.117.843-.753 1.035-1.572 2.031-2.364 3.027-.039.051-.117.051-.221.103-2-1.686-4.013-3.385-6.079-5.11M69.729 93.62c.052.115.104.243.195.486a81 81 0 0 0 1.714-.41c-.026.422-.065.818-.09 1.214-.078.984.181 1.456 1.168 1.712.611.166 1.274.179 1.91.204.338.026.675-.05 1.104-.09.013.742-.35 1.661 1.026 1.891-2.533 1.099-4.845 2.108-7.235 3.142-.441-.242-.961-.485-1.455-.792-.753-.46-.83-.702-.623-1.52-.104.051-.22.103-.429.205-.078-.882.468-1.482.715-2.159.26-.728.61-1.418.883-2.146.273-.715.52-1.456.831-2.363.117.332.182.486.234.626zm35.577-39.16c1.897 2.145 4.209 3.818 6.352 5.683.234.204.442.524.494.83.039.243-.104.677-.286.767-.247.114-.611-.026-.922-.077-.078-.013-.156-.128-.221-.204-2.078-1.942-4.157-3.883-6.222-5.825-.195-.179-.39-.383-.506-.613-.273-.524-.065-.856.688-.894.13.064.481.115.649.307zm-38.577 46.236c.688.447 1.39.907 2.09 1.354-.856.728-2.818 1.661-3.506 1.661.039-.869.65-2.517 1.493-3.551-.025.179-.052.357-.078.524z"/><path fill="#fff" d="M104.865 59.862c-.429.524-.857 1.06-1.286 1.584-.065-.064-.143-.115-.208-.18l1.403-1.493c.026.025.052.05.091.076z"/><path fill="#fff" d="M104.774 59.785c.351-.46.715-.907 1.066-1.366l.194.153c-.389.434-.779.855-1.169 1.29a.6.6 0 0 0-.091-.077M103.23 61.803l-.767.97-.155-.114c.246-.32.506-.651.753-.97.052.038.104.076.169.114M101.775 63.515c-.104.115-.208.244-.313.359a.4.4 0 0 0-.091-.064l.287-.41zM103.97 62.915c-.105.115-.196.23-.3.346-.026-.026-.052-.039-.078-.064.091-.128.182-.256.286-.385.026.039.066.065.092.103M81.096 92.164c.182-.217.363-.434.545-.664l.117.09-.545.65s-.078-.063-.117-.089zM102.941 69.684c.195-.191.39-.37.598-.562.052.039.091.077.143.115-.169.205-.351.409-.52.613-.065-.05-.143-.115-.208-.166zM103.268 68.381l-.572.677q-.059-.037-.117-.077l.52-.702s.117.077.169.115zM108.229 63.566c.182-.23.364-.447.559-.677.039.025.078.051.117.09-.169.242-.351.485-.52.727-.052-.05-.104-.089-.156-.14M114.256 56.49v-.882h.117v.882zM109.152 51.636c-.22-.025-.428-.038-.649-.064v-.076h.649zM39.85 91.526c-.025.467.116.795.514 1.098.577.454 1.116.959 1.642 1.476a917 917 0 0 1 6.158 6.043c.398.404.847.555 1.373.378.667-.227 1.36-.429 1.963-.77 2.168-1.223 4.298-2.497 6.428-3.759.256-.151.5-.353.68-.58.949-1.274 2.309-1.893 3.797-2.309 1.77-.492 3.349-1.4 4.914-2.296.474-.277.744-.669.834-1.261.359-2.397.782-4.782 1.218-7.154.065-.365.039-.63-.243-.883-1.45-1.35-2.861-2.725-4.324-4.05-1.54-1.387-3.13-2.724-4.683-4.1-.782-.693-.808-.794-1.719-.176-1.937 1.312-3.836 2.712-5.722 4.087-.256.19-.449.492-.641.757-1.591 2.22-3.785 3.432-6.505 3.76a3.54 3.54 0 0 0-1.758.681c-.757.555-1.488 1.211-2.347 1.54-.975.378-1.232 1.021-1.296 1.892-.103 1.324-.18 2.649-.27 3.847 0 .682.026 1.25 0 1.817zm26.75-1.804c.077-1.325.257-2.65.18-3.961-.077-1.3.616-1.905 1.77-2.473-.18.934-.333 1.728-.474 2.536-.205 1.211-.398 2.422-.603 3.62-.103.581-.41.758-.988.594-.218.252-.424.504-.642.757-.064-.026-.128-.064-.18-.089-.025-.252-.063-.504-.063-.744.013-1.4.025-2.788.064-4.189.013-.68.038-.668.795-.946v5.236c.051-.126.129-.24.141-.366zm-15.562 9.651V97.33h-.128c-.026.442-.013.896-.077 1.35-.077.631-.308 1.161-1.18 1.212.282-1.956.564-3.899.859-5.955.257-.114.603-.278 1.052-.48.167 1.477.32 2.826.462 4.189.064 0 .128 0 .18-.013l-.27-3.065c-.026-.328-.09-.669-.051-.984.025-.202.244-.366.372-.555.09.025.167.05.256.075.039.518.103 1.035.129 1.54.038.756 0 1.526.064 2.283.038.403.23.795.346 1.198-.09-1.59-.154-3.179-.256-4.756-.039-.542.218-.782.82-.92.078 1.26.155 2.485.245 3.696.077 0 .14 0 .218-.013-.065-.959-.116-1.918-.193-2.876-.09-1.073-.013-1.186 1.219-1.464v2.145h.141v-2.347c.539-.277 1.052-.542 1.694-.87v5.16c-1.232.706-2.553 1.476-3.888 2.233-.641.403-1.27.794-2.027 1.274zm7.326-11.884c-.629.858-1.232 1.729-1.873 2.574a1.9 1.9 0 0 1-.603.504c-1.77.947-3.567 1.88-5.491 2.902-2.9-2.965-6.415-5.387-9.225-8.642.231-.189.41-.353.603-.466.783-.505 1.565-1.035 2.386-1.502.424-.24.911-.441 1.386-.492 2.9-.328 5.286-1.489 6.98-3.898.23-.328.474-.669.782-.896 1.642-1.21 3.297-2.422 4.99-3.57.886-.606 1.053-.543 1.835.151 2.374 2.07 4.734 4.15 7.108 6.22.256.214.539.416.77.643.256.253.462.543.718.846-.808.971-1.796 1.602-2.746 2.283-.602.429-1.231.807-1.86 1.198-.86.53-1.745.96-2.784 1.098-.718.088-1.411.416-2.104.644-.282.138-.577.29-.86.428zM42.12 93.482c-.385-.379-.744-.782-1.167-1.098-.513-.378-.706-.807-.642-1.438.167-1.741.257-3.495.385-5.412.321.252.488.378.655.517 2.13 1.88 4.246 3.772 6.363 5.652.603.53 1.206 1.06 1.783 1.615.154.139.283.39.283.58-.077 2.082-.282 4.15-.77 6.295-2.386-2.321-4.644-4.516-6.89-6.711m16.717-5.21c.154 1.4.321 2.75.475 4.112.077-1.501-.282-2.99-.09-4.478a2 2 0 0 0 .244-.026l.385 2.637h.064c-.064-.959-.115-1.905-.192-2.914.308-.126.564-.227.936-.379v2.927h.039c.025-.366.064-.744.115-1.337l.257.807h.128c.051-.668.103-1.35.167-2.018.038-.43.038-.43.577-.492v4.756c0 .353.026.681-.539.656-.038-.303-.077-.606-.115-.934-.116.278-.218.543-.41 1.022l-.142-1.072h-.14c-.027.48-.065.959-.09 1.45-.475.278-.937.53-1.489.846-.128-.53-.244-.984-.36-1.45-.474.365-.435.832-.346 1.374.052.316.142.72-.282 1.11-.474-1.64-.513-3.242-.603-4.87.064.177.129.354.282.745v-1.54c.514.405.411.897.514 1.35.385-.756-.642-1.79.615-2.32zm4.837 3.62c-.423.151-.86.316-1.424.53.064-1.93.128-3.671.193-5.463.397-.164.782-.34 1.231-.53zm1.784-1.4c0 .492-.283.706-.834.744v-4.769c0-.504.064-.933.834-.971v4.9959999999999996m-1.04-3.735c.013 1.35.026 2.7.026 4.05 0 .34.077.757-.577.808-.052-1.842-.142-3.659.256-5.45.064 0 .141 0 .206-.013.038.202.102.404.102.605zm-3.258 1.413h-.129l-.038-.593h.128c0 .202.026.404.039.593"/><path fill="#fff" d="M58.351 87.49c-.731.453-1.5.857-2.194 1.35-1.526 1.097-3.22 1.866-4.926 2.61-.116.051-.257.038-.398.051v.025c.244-.164.462-.365.706-.48 1.809-.882 3.58-1.816 5.196-3.04.898-.68 1.924-1.21 2.925-1.766 2.027-1.122 4.067-2.207 6.107-3.305.282-.151.59-.265.885-.404l.103.19c-.603.353-1.206.719-1.822 1.06-1.476.781-2.977 1.538-4.452 2.346-.462.252-.86.618-1.283.92-.282.14-.577.29-.86.43z"/><path fill="#fff" d="M50.846 91.5c-.18.039-.385.178-.514.115-.423-.202-.86-.404-1.206-.707-.667-.568-1.283-1.186-1.886-1.804-.218-.227-.359-.53-.577-.883 1.014-.58 1.937-1.11 2.861-1.653 1.155-.694 2.284-1.413 3.438-2.094.924-.543 1.874-1.06 2.797-1.602l2.348-1.363 4.542-2.611c.513-.29.936-.227 1.475.139 1.258.857 2.027 2.106 3.092 3.28-.68-.089-1-.505-1.347-.896a294 294 0 0 0-2.155-2.397c-5.581 3.129-11.047 6.207-16.64 9.348 1.321 1.073 2.348 2.334 3.784 3.154z"/><path fill="#fff" d="M55.863 84.6c-.398.656-.27 1.3.359 1.754.898.656 2.18.416 2.86-.518.386-.53.488-1.135.206-1.69-.27-.505-.847-.618-1.398-.63-.898-.026-1.565.34-2.027 1.084m1.668 1.426c-.54.012-1.13-.454-1.142-.921-.013-.53.731-1.073 1.488-1.085.564 0 .924.315.924.82 0 .593-.629 1.186-1.27 1.198zM60.52 75.327l2.373 2.22c-1.027-.491-1.732-1.324-2.54-2.043l.18-.177zM52.026 80.134c-.462.454-.924.921-1.386 1.375l-.026-.025c.488-.441.975-.883 1.45-1.325l-.038-.037zM44.122 86.783c.231.264.45.517.68.782-.038.025-.064.063-.102.088-.231-.252-.462-.505-.693-.77.038-.037.077-.063.115-.1M47.318 82.645c.206-.038.41-.089.616-.126l.052.1c-.103.05-.206.127-.321.165-.103.025-.218 0-.334 0v-.127zM57.043 81.471c-.244.152-.475.303-.719.454l-.077-.113c.218-.151.45-.315.667-.467.039.05.09.088.128.139zM60.123 75.302c-.32-.328-.526-.542-.744-.77q.54.203.744.77M44.25 83.465l-.565.441c-.025-.038-.064-.075-.09-.113.168-.152.347-.303.514-.454l.128.126zM54.091 77.397c.218-.152.449-.29.667-.442.026.038.064.076.09.126-.205.164-.41.316-.616.48l-.154-.152zM43.277 85.773l.436.556s-.077.063-.116.088l-.449-.517c.039-.05.09-.089.129-.14zM43.559 89.924c-1.219.063-1.81.795-1.45 1.917.231.72.59 1.413.975 2.057.59.984 1.565 1.539 2.63 1.905 1.13.39 1.77.025 2.233-1.06.359-.845.295-1.615-.296-2.321-.23-.278-.436-.593-.68-.858-.846-.896-1.834-1.54-3.117-1.64h-.308zm3.336 5.172c-.527.278-1.065.417-1.604 0-.45-.34-.962-.63-1.373-1.022-.937-.895-.95-2.182-.077-3.128.436-.48.719-.543 1.334-.278 1.386.58 2.181 1.628 2.438 3.104-.103.492-.167 1.021-.718 1.312zM40.864 90.151c.09-.959.18-1.918.283-2.889.05 0 .115 0 .166.013-.102.958-.192 1.917-.295 2.876zM41.877 87.439l-.257 2.422h-.128c.064-.82.116-1.653.18-2.473.064.013.14.038.205.05M48.665 98.477V97.09h.09v1.438s-.064-.025-.09-.05M98.898 94.043c.656-.43 1.375-.377 2.04-.207 2.861.708 5.284 2.141 7.06 4.497.884 1.174 1.257 2.553 1.294 4.004.1 4.515-1.394 8.483-4.4 11.878a20.4 20.4 0 0 1-2.797 2.58c-1.931 1.496-4.1 1.765-6.404.914-3.57-1.326-5.757-3.915-6.368-7.552-.874-5.186.811-9.629 4.71-13.221 1.03-.95 2.25-1.595 3.68-1.8.839-.117 1.65-.063 2.396.268-.355 0-.71.009-1.056 0-1.303-.045-2.47.34-3.553 1.03-1.175.762-2.186 1.702-2.98 2.84-2.058 2.947-3.124 6.181-2.777 9.782.346 3.493 2.505 6.87 6.458 8.142 1.895.609 3.653.385 5.284-.752 1.257-.878 2.332-1.935 3.297-3.109 2.442-2.982 3.717-6.404 3.872-10.22.1-2.482-.774-4.56-2.76-6.163a15.9 15.9 0 0 0-4.209-2.446c-.893-.35-1.813-.582-2.797-.465z"/><path fill="#fff" d="M99.718 106.673c.118.277.236.537.346.806.71 1.774 1.403 3.547 2.122 5.312.155.367.347.725.556 1.075.109.179.264.358.638.143-.073-.313-.128-.681-.255-1.012a269 269 0 0 0-5.721-13.947c-.137-.314-.237-.735-.674-.708-.474.027-.529.484-.62.842-.118.439-.237.887-.291 1.335-.21 1.594-.401 3.189-.583 4.792-.292 2.643-.592 5.276-1.175 7.874-.028.134.063.305.136.618.2-.304.355-.448.392-.609.419-1.738.829-3.485 1.266-5.339 1.24-.322 2.432-1.03 3.863-1.182m-3.016-6.826c.374.358 2.241 4.613 2.67 6.037-1.166.413-2.323.816-3.571 1.264.282-2.464.373-4.891.901-7.292zM102.641 101.11c-.391.134-.747.26-1.093.376q-.127-.447.756-1.093c-.182-.501-.364-1.003-.583-1.63.82.188.811.914 1.258 1.245.737-.152 1.184-1.075 2.204-.895-.364.922-1.248 1.128-1.849 1.693.282.627.574 1.254.847 1.881.118.268.228.546.264.833.018.134-.155.295-.237.448-.145-.09-.364-.144-.428-.269-.282-.582-.51-1.183-.765-1.774-.118-.268-.237-.528-.374-.833zM52.51 7.219c.377-.247.79-.216 1.17-.119 1.641.406 3.031 1.228 4.05 2.58.507.673.72 1.464.742 2.296.057 2.59-.8 4.865-2.524 6.813-.48.54-1.029 1.037-1.604 1.48-1.107.857-2.35 1.011-3.673.523-2.048-.76-3.302-2.245-3.652-4.33-.501-2.975.465-5.524 2.701-7.584.59-.544 1.29-.914 2.111-1.033.48-.066.946-.036 1.374.155-.203 0-.407.005-.606 0-.747-.026-1.416.195-2.037.59a6.1 6.1 0 0 0-1.709 1.629c-1.18 1.69-1.792 3.545-1.593 5.61.198 2.004 1.436 3.941 3.704 4.67 1.087.35 2.095.221 3.03-.431.721-.504 1.338-1.11 1.892-1.783 1.4-1.71 2.131-3.673 2.22-5.862.058-1.423-.444-2.615-1.583-3.535a9.1 9.1 0 0 0-2.414-1.402c-.512-.2-1.04-.334-1.604-.267z"/><path fill="#fff" d="M52.98 14.463c.068.159.136.308.198.462.408 1.017.805 2.034 1.218 3.047.089.21.198.416.319.616.062.103.151.206.365.082-.042-.18-.073-.39-.146-.58a154 154 0 0 0-3.281-8c-.079-.18-.136-.42-.387-.405-.272.015-.303.277-.355.482a6 6 0 0 0-.167.766q-.179 1.37-.335 2.749c-.167 1.515-.34 3.026-.674 4.516-.015.077.037.174.079.354.115-.174.203-.257.224-.35.24-.996.476-1.998.727-3.061.71-.185 1.395-.591 2.215-.678m-1.73-3.915c.215.205 1.286 2.646 1.531 3.463-.669.236-1.332.467-2.048.724.162-1.413.214-2.805.517-4.182zM54.658 11.272c-.225.077-.429.15-.627.216q-.074-.256.433-.627c-.104-.287-.209-.575-.334-.935.47.108.465.524.721.714.423-.087.68-.616 1.264-.513-.209.529-.715.647-1.06.97.162.36.329.72.486 1.08.068.154.13.313.151.477.01.077-.089.17-.136.257-.083-.051-.209-.082-.245-.154-.162-.334-.293-.678-.44-1.017-.067-.154-.135-.303-.213-.478zM80.484 11.844c-.526.41-.833.82-.647 1.628.395 1.66.614 3.363.855 5.056.987 6.683 2.478 13.248 4.736 19.64 1.381 3.913 3.08 7.653 5.306 11.167.054.087.131.162.153.248.186.906.866 1.499 1.403 2.178.35.442.746.571 1.294.399.745-.237 1.513-.42 2.258-.658 1.809-.571 3.694-.98 5.382-1.8 3.552-1.725 7.016-3.643 10.469-5.551 2.061-1.132 4.089-2.329 5.887-3.86.263-.215.603-.344.998-.56-.11-1.035-1.184-1.552-1.568-2.22.932-.96 1.787-1.833 2.631-2.706-.636-.841-1.184-1.52-1.688-2.242-3.782-5.487-6.841-11.384-10.042-17.205-.57-1.035-.986-2.188-1.304-3.33-.811-2.922-1.513-5.875-2.28-8.807-.11-.42-.329-.809-.527-1.25-.317.182-.515.29-.767.43-.493-.539-1.129-.84-1.896-.808-.724.032-1.403.248-1.842.787-.417.517-.68 1.164-1.041 1.81-.1-.107-.187-.182-.264-.28-1.14-1.487-2.488-1.562-3.803-.237-.67.669-.965 1.51-1.13 2.372q-.591.076-1.063-.453c-1.26-1.39-2.96-1.078-3.606.69-.154.42-.22.873-.33 1.347a44 44 0 0 1-1.27.345c-.308-.366-.549-.711-.845-1.013-1.25-1.24-2.817-.84-3.343.83-.044.151-.121.313-.11.474.055.809-.329 1.272-1.052 1.359-.209.495-.373.884-.538 1.293.132.119.263.237.46.42-.372.205-.657.324-.876.497zm5.459-.603c-.077.226-.373.41-.614.56-.58.377-.811.863-.625 1.38.187.485.746.82 1.382.658.449-.12.91-.367 1.271-.647.373-.291.537-.744.362-1.23-.186-.517-.636-.592-1.13-.506.067-.7.121-1.369.22-2.037.033-.194.164-.485.307-.54 1.546-.473 3.113-.905 4.725-1.357.022.603-.296 1.024-.548 1.455-.242.42-.505.83-.472 1.002.143.291.22.636.428.863.362.377.964.42 1.359.183.384-.226.57-.668.373-1.078-.165-.334-.428-.625-.669-.97.165-.55.34-1.154.537-1.833 1.48-.517 3.015-1.056 4.637-1.617-.077 1.175-1.129 1.758-1.458 2.695.143.119.34.205.395.356.077.205 0 .453.066.668.197.647.899.895 1.392.432.318-.291.57-.723.69-1.132.176-.572-.142-.884-.997-1.186.208-.367.46-.711.625-1.089.142-.355.197-.744.296-1.164 1.337-.474 2.685-.949 4.176-1.477-.076.927-.131 1.66-.69 2.286a2.1 2.1 0 0 0-.45.84c-.044.205.044.56.198.647.164.086.57.022.69-.118.252-.313.559-.733.515-1.068-.054-.43.11-.733.22-1.1.164-.517.252-1.045.482-1.605.066.312.132.614.197.927.461 1.918 1.009 3.816 1.36 5.745.493 2.706 1.491 5.207 2.85 7.589 1.721 3.008 3.376 6.058 5.119 9.044 1.579 2.717 3.223 5.39 5.777 7.707-.285.173-.526.291-.723.453-1.743 1.423-3.431 2.921-5.229 4.269-1.765 1.326-3.64 2.544-5.481 3.762a53 53 0 0 1-3.442 2.08 175 175 0 0 1-6.161 3.234c-.57.28-1.26.313-1.886.496-.69.205-1.118-.075-1.436-.647-1.008-1.778-2.072-3.525-3.025-5.325-.746-1.401-1.382-2.856-2.028-4.3-1.075-2.426-2.105-4.873-3.168-7.299-1.075-2.468-1.919-5.001-2.401-7.653-.428-2.35-.954-4.678-1.37-7.028-.154-.852-.132-1.736-.165-2.598-.044-.873-.033-1.746-.11-2.609-.043-.453.088-.7.494-.938.997-.57 2.006-.948 3.332-1.142.165.69.011 1.347-.208 1.983zm25.531 32.241c-3.475 1.94-6.961 3.892-10.535 5.649-1.644.808-3.519 1.196-5.294 1.757-.812.258-1.634.463-2.577.733-.789-1.24-1.644-2.458-2.378-3.74-.8-1.402-1.59-2.836-2.226-4.313-.899-2.08-1.677-4.204-2.455-6.327-2.17-5.907-3.431-12.04-4.528-18.207-.263-1.466-.58-2.91-.866-4.365-.076-.378-.098-.766-.153-1.143-.099-.615.186-.97.855-1.132.044.15.11.302.11.442.054 3.471.822 6.845 1.49 10.23.691 3.482 1.787 6.802 3.256 10.025 1.25 2.738 2.357 5.54 3.629 8.257 1.26 2.695 2.696 5.314 4.648 7.61.504.593 1.096 1.046 1.863 1.337-.164-.216-.34-.431-.57-.722.263-.033.472-.044.669-.097.811-.227 1.666-.389 2.433-.712 3.739-1.617 7.17-3.773 10.634-5.864 2.138-1.283 4.056-2.856 5.93-4.473.264-.227.549-.442.888-.723.439.582.823 1.09 1.217 1.606-1.863 1.736-3.946 2.976-6.051 4.15zM95.009 3.932c.899-.69 1.6-.55 2.324.571-1.162.507-2.313.949-3.662 1.316.296-.852.735-1.423 1.338-1.887M84.21 7.058c.592-.162 1.118.28 1.579 1.229-.867.302-1.71.668-2.807.787.22-.949.296-1.768 1.228-2.016m5.898-1.509c.68-.194 1.041.356 1.469.938-.921.345-1.787.657-2.84 1.045.187-1.013.505-1.735 1.382-1.983zm12.168-2.792c-1.151.42-2.215.798-3.453 1.25.898-1.703 2.115-2.134 3.453-1.25m-15.326 9.357c-.087.851-.537 1.11-1.589.84q.767-.894 1.59-.84m10.064-3.277c-.066-.259.373-.873.559-.82.153.044.362.173.406.313.087.291-.33.852-.68.884-.077-.097-.241-.226-.274-.377zm-4.835.97c.033.194.044.388.055.593-.153 0-.383.043-.438-.033-.12-.15-.165-.366-.186-.56-.011-.108.087-.237.142-.356h.274c.055.119.132.237.153.356"/><path fill="#fff" d="M112.012 27.68c-2.51 1.023-4.856 2.382-7.235 3.654-.855.463-1.809.733-2.697 1.131a4.2 4.2 0 0 0-1.041.669c-.461.41-.833.905-1.283 1.337-.307.29-.647.55-.997.776-1.162.722-1.721.646-2.73-.367-.208.28-.384.571-.603.83-.559.625-1.118 1.261-1.743 1.822a1.63 1.63 0 0 1-1.469.388c-.833-.173-1.063-.84-.515-1.628.011.173.022.291.033.399.11.668.46.895 1.085.636a3.1 3.1 0 0 0 1.042-.7c.449-.464.822-1.003 1.205-1.52.198-.26.34-.561.527-.82.361-.474.657-.474 1.008-.021.702.884.976.959 1.897.28a11.3 11.3 0 0 0 1.71-1.596c.581-.657 1.227-1.077 2.104-1.304.812-.205 1.557-.668 2.303-1.056 1.71-.884 3.409-1.79 5.119-2.674a5.2 5.2 0 0 1 1.206-.42c.329-.075.679-.054 1.019-.075.022.086.033.172.055.248zM104.546 22.634c-1.031.55-2.083 1.078-3.103 1.65-.537.302-1.085.614-1.534 1.024-.56.496-1.009 1.1-1.524 1.649-.285.302-.592.571-1.107 1.056-.263-.377-.428-.7-.669-.959-.46-.474-.822-.42-1.173.14-.274.442-.439.938-.724 1.37-.482.721-.953 1.476-1.556 2.09-.636.647-1.064.529-1.677-.29.153-.27.329-.54.46-.83.165-.356.318-.712.406-1.079.098-.388.065-.808-.395-.98-.45-.162-.756.129-.976.463-.372.56-.526 1.207-.34 1.854.154.528-.032.873-.394 1.186-.373.323-.756.636-1.25 1.035 1.03.086 1.392-.733 2.028-1.046 1.184.949 1.973.938 2.95-.205.602-.711 1.04-1.552 1.545-2.35.175-.29.318-.603.603-1.164.175.323.219.485.329.604.767.776 1.326.776 2.082.01.274-.28.527-.582.768-.883.833-1.068 1.841-1.876 3.157-2.361 1.414-.518 2.609-1.445 3.628-2.576-.614-.033-1.041.334-1.523.582zm-12.739 5.304c.1.7-.164 1.153-.591 1.714-.132-.755-.066-1.272.592-1.714M92.477 19.52c-.11.29-.22.57-.318.862-.154.463-.253.938-.439 1.38-.34.819-.822 1.552-1.6 2.037-.242.15-.636.205-.9.118-.405-.118-.273-.517-.24-.83.076-.603.175-1.207.208-1.821.022-.356-.044-.712-.636-.852-.132.302-.34.593-.362.906-.055.603-.11 1.25.033 1.821.154.647.055 1.197-.22 1.768-.054.108-.065.237-.098.356.055.032.12.054.176.086.208-.334.405-.668.624-1.013.823.442 1.513.215 2.072-.367a7.7 7.7 0 0 0 1.13-1.455c.317-.539.504-1.153.756-1.746 1.041.733 1.48.668 2.291-.345.329-.41.603-.852.92-1.261.21-.27.461-.507.746-.82.943 1.132 1.973.97 2.993.389a6.3 6.3 0 0 0 1.535-1.186c.635-.68 1.348-1.089 2.28-1.186.46-.043.899-.237 1.348-.367l-.066-.194c-1.512-.15-2.927-.097-4.034 1.24-.394.485-.997.82-1.556 1.143-.636.366-1.25.43-1.886-.14-.515-.453-.877-.378-1.36.14-.35.377-.635.819-.953 1.229-.263.334-.504.679-.811.97-.362.345-.581.302-.866-.119-.175-.259-.329-.528-.483-.798-.098 0-.197 0-.295.011zm-3.717 2.716h-.11v-.927h.11zM100.698 38.815c.165-.334.209-.496.307-.582.219-.194.45-.377.702-.518a953 953 0 0 1 7.29-4.182c.526-.302 1.118-.496 1.874-.83-.855.905-7.465 4.85-10.173 6.123zM74.572 56.193c.191.062.383.125.729.25-.365-.376-.683-.59-.838-.877-.456-.86-.875-1.38-1.722-1.9.219.278.373.484.537.681.246.296.492.583.738.87.137.16.137.295-.118.349-.501-.681-.993-1.371-1.512-2.034-2.187-2.804-4.391-5.598-6.577-8.411a64 64 0 0 1-2.087-2.795c-1.375-1.98-2.723-3.986-4.08-5.975-.083-.125-.238-.313-.338-.304-.291.018-.364-.197-.483-.359a57 57 0 0 1-1.065-1.505c-.064-.098-.091-.215-.137-.322.037-.018.073-.045.11-.063.346.43.683.86 1.029 1.29.027-.018.045-.045.073-.062-.2-.332-.41-.672-.61-1.004l.09-.08c.137.125.283.242.428.367l-.054-.403c.118.071.191.09.228.143.537.726 1.065 1.451 1.594 2.186.683.94 1.33 1.899 2.04 2.822 1.112 1.45 2.269 2.866 3.37 4.317.885 1.174 1.695 2.4 2.579 3.574.528.699 1.184 1.3 1.713 1.998 1.566 2.087 3.106 4.192 4.654 6.288.155.215.338.412.51.618.046-.027.083-.062.128-.09-.064-.143-.118-.295-.21-.42-1.74-2.688-3.725-5.205-5.748-7.686a97 97 0 0 1-2.095-2.687c-.965-1.29-1.894-2.607-2.87-3.888-.692-.905-1.457-1.756-2.15-2.66a94 94 0 0 1-2.768-3.79c-.447-.654-.966-1.084-1.777-1.128-.054 0-.118-.054-.173-.09.601-.063 1.203 0 1.795-.027.4-.018.555.152.701.448.119.242.273.475.42.708.218.277.437.555.655.824 1.039 1.28 2.15 2.526 3.107 3.87 1.32 1.845 2.587 3.726 4.108 5.437.847.958 1.558 2.033 2.387 3 2.487 2.93 4.8 5.985 7.023 9.12.692.985 1.458 1.917 2.195 2.875l-.027-.018c.164-.009.3-.062.237-.25a2.2 2.2 0 0 0-.273-.493c-1.558-2.15-3.08-4.327-4.7-6.432-1.886-2.436-3.872-4.81-5.813-7.202-.865-1.066-1.758-2.114-2.596-3.207-1.275-1.675-2.332-3.52-3.862-5.016-.137-.134-.228-.305-.337-.457-.811-1.048-1.631-2.096-2.442-3.144-.246-.323-.537-.502-.975-.475-.574.045-1.147.036-1.721.045-.237 0-.51.045-.702-.054a.72.72 0 0 0-.674-.009c-1.403.618-2.906.788-4.418.905-1.139.09-2.277.242-3.443.108-2.66-.305-5.302-.816-7.999-.753-.583.018-1.138.045-1.694.215q-.59.175-1.166.35c-1.876.555-3.161 1.72-3.771 3.565-.1.304-.228.609-.365.976-.237-.287-.391-.529-.592-.708-.528-.474-1.011-1.057-1.63-1.361-.957-.466-1.995-.797-3.034-1.075-2.095-.565-4.2-.215-6.276.17-2.925.529-5.84 1.102-8.755 1.693-1.885.385-3.78.627-5.711.412a4.25 4.25 0 0 0-1.85.224 9.7 9.7 0 0 1-1.002 2.607.67.67 0 0 1-.437.286c-1.212.153-2.223.824-3.352 1.174.063.304.164.555.173.815.027 1.102.4 2.123.701 3.171.328 1.11.62 2.23.875 3.35.574 2.508 1.056 5.034 1.676 7.534.601 2.427 1.175 4.864 1.53 7.345.228 1.585.61 3.153.911 4.72.2 1.022.383 2.043.574 3.064.037.206.064.421.1.681.328-.206.246-.448.219-.672-.073-.636-.137-1.272-.255-1.89-.364-2.015-.847-4.022-1.111-6.055-.392-3.01-1.221-5.912-1.859-8.86C3.9 53.29 3.5 51.634 3.2 49.968c-.274-1.514-.593-3.019-1.121-4.461-.419-1.138-.565-2.32-.792-3.52.91-.359 1.821-.708 2.833-1.102-.265.78-.711 1.361-.73 2.194.192-.322.329-.555.538-.895.073.367.119.6.155.824.237 1.2.4 2.427.729 3.61.592 2.168 1.111 4.344 1.44 6.566.118.797.227 1.594.427 2.365.483 1.97 1.002 3.932 1.53 5.894.484 1.8 1.012 3.592 1.504 5.384.1.358.118.743.173 1.11l.064.466c.41-.152.756-.296 1.111-.403a89 89 0 0 1 2.05-.618c.255-.072.519-.09.774-.161 2.031-.547 4.063-1.13 6.094-1.658 1.786-.465 3.58-.904 5.384-1.299 1.312-.286 2.624-.644 3.954-.716 3.115-.18 6.222-.17 9.319.376 1.184.206 2.277.547 3.197 1.326-.018.878.164 1.299.702 1.568.31.16.646.277.983-.036-.619-.197-1.147-.44-1.248-1.174 1.522-.564 3.152-.367 4.628-.86.191-.277.374-.537.583-.833.091.144.155.197.164.26.027.296.046.6.055.896.027.564-.164.896-.72 1.066-.547.17-1.111.286-1.667.42-.264.063-.528.126-.82.198.082.107.11.179.137.179 1.02.009 2.013-.126 2.842-.762.228-.179.465-.456.52-.725.09-.448.391-.6.746-.77.41-.206.793-.448 1.194-.672-.019-.045-.046-.08-.064-.126-.538.162-1.075.332-1.75.538.147-.233.21-.34.274-.448-.127-.018-.246-.027-.446-.045.127-.188.191-.287.236-.358-.081.027-.209.063-.337.098-.027-.08-.072-.143-.054-.16.455-.601.847-1.273 1.385-1.784 1.147-1.101 2.632-1.567 4.18-1.684 2.315-.17 4.647-.205 6.97-.33 1.366-.073 2.732-.153 4.08-.323 2.123-.26 4.227-.654 6.35-.87 1.649-.17 3.106-.76 4.518-1.522.082-.045.137-.135.2-.206-.628.063-1.192.26-1.757.42-.83.234-1.65.53-2.487.664-2.369.385-4.746.716-7.124 1.03-.993.134-2.004.197-3.006.242-2.487.125-4.983.224-7.479.34-1.02.045-1.986.305-2.924.68-1.175.458-2.123 1.174-2.788 2.25-.319.528-.665 1.038-.956 1.576-.164.304-.374.403-.765.304.09-.403.173-.806.282-1.209.11-.385.255-.761.392-1.138-.492.77-.957 1.541-.902 2.49-.173.054-.319.09-.62.18.301-1.218.565-2.33.838-3.44-.655 1.075-.865 2.284-1.166 3.43-.41.126-.665 0-.947-.232-.52-.448-1.102-.833-1.667-1.227-.11-.08-.264-.099-.392-.143.693.555 1.43 1.02 2.059 1.702-.501.09-.492.08-.72-.108-.428-.34-.856-.68-1.311-.985-.255-.17-.538-.332-.984-.368.82.538 1.557.959 2.131 1.676-.318.098-.583.188-.829.26-.965-1.067-1.676-1.425-3.106-1.712-2.669-.537-5.375-.627-8.09-.6-1.612.018-3.206.17-4.782.538a417 417 0 0 0-4.536 1.11l-5.93 1.478c-1.258.314-2.442.842-3.745 1.004-.419.053-.81.286-1.211.43-.146.053-.292.107-.456.16.064-.823.428-1.262 1.24-1.46 1.11-.268 2.186-.68 3.27-1.03-.01-.044-.028-.08-.037-.125a637 637 0 0 1-3.89 1.093c-.027-.045-.045-.08-.073-.125.155-.117.301-.26.474-.332.574-.242 1.157-.457 1.74-.672.674-.25 1.348-.501 2.022-.743l-.054-.152c-1.248.42-2.496.833-3.817 1.28.146-.376.255-.653.382-.976-.155 0-.282-.018-.373-.018-2.14-8.725-3.662-17.539-5.43-26.344.42 0 .775 0 1.14.017.983.027 1.976.18 2.942.063 1.922-.233 3.835-.618 5.748-.95 2.76-.483 5.52-.994 8.28-1.477 2.068-.368 4.045-.01 5.985.725 1.048.394 1.895 1.021 2.533 1.9.355.492.638 1.047.893 1.603.865 1.89 1.667 3.807 2.541 5.697.902 1.953 1.858 3.878 2.797 5.813.392.807.774 1.622 1.23 2.401 1.475 2.526 2.641 5.178 3.653 7.91.054.134.063.286.1.42a3.6 3.6 0 0 1-.738-.797c-.51-.716-1.175-1.218-1.995-1.567-1.111-.466-2.26-.806-3.462-.905a55 55 0 0 0-3.662-.161c-1.567-.027-3.115.152-4.655.43-1.248.224-2.487.52-3.744.663-2.787.322-5.466 1.003-8.025 2.123-.31.134-.638.215-.948.322-.492.18-.984.358-1.476.547-.291.107-.564.242-.856.367-.61.269-1.23.528-1.84.806-.118.054-.219.161-.455.35.273-.054.373-.054.455-.081 1.102-.448 2.205-.905 3.316-1.353.219-.09.455-.134.683-.206.574-.179 1.148-.322 1.713-.528 1.913-.708 3.853-1.3 5.884-1.586 1.449-.206 2.925-.313 4.337-.654 1.858-.457 3.725-.654 5.63-.68 1.748-.027 3.507-.036 5.21.456 1.467.421 2.824.968 3.708 2.347.519.806 1.311 1.451 2.022 2.213 0-.573-.1-1.066 0-1.532.373-1.791 1.385-3.126 3.088-3.932 1.795-.851 3.699-1.308 5.685-1.416 2.56-.134 5.12-.25 7.688-.08 2.833.188 5.657-.099 8.472-.421 1.448-.17 2.915-.287 4.3-.807.291-.107.437.072.564.287l-.027-.027zm-30.025 4.756c-.119.269-.246.538-.328.726-.893-2.034-1.776-4.139-2.742-6.208-.765-1.621-1.658-3.189-2.45-4.801-.52-1.057-.948-2.168-1.467-3.225-.765-1.568-1.604-3.108-2.378-4.676a89 89 0 0 1-1.53-3.279c-.091-.206-.164-.483-.091-.671.437-1.219.765-2.509 1.813-3.404.391-.332.82-.654 1.293-.87a15 15 0 0 1 2.159-.779c.474-.134.993-.143 1.494-.17 2.65-.107 5.247.394 7.852.753 1.167.16 2.305.027 3.444-.063 1.257-.098 2.541-.152 3.753-.6.4-.153.792-.323 1.203-.493 5.556 7.489 10.967 15.12 17.025 22.386-.21.08-.3.134-.4.152-2.897.573-5.83.905-8.782 1.003-1.63.054-3.261-.063-4.892-.098-2.742-.054-5.475.018-8.18.447a13 13 0 0 0-4.127 1.416c-.81.439-1.43 1.102-2.04 1.764l-.183.224q-.218.245-.437.475zM5.312 42.443c-.137-.574-.282-1.138-.42-1.711-.081-.35.037-.636.402-.923l.182 1.28c.045 0 .091 0 .146-.008-.019-.323-.046-.645-.064-.968q.027-.002.055-.017l.154.412s.073-.01.1-.018c-.072-.412-.154-.824-.227-1.236.027-.01.055-.027.082-.036.055.215.136.43.173.654.31 1.72.592 3.44.92 5.16.373 1.943.783 3.887 1.175 5.83.21 1.067.401 2.133.62 3.199.428 2.123.847 4.255 1.311 6.378.292 1.334.675 2.651 1.011 3.977.055.197.192.403-.154.564-.164-.555-.337-1.102-.529-1.738-.054.851.501 1.541.192 2.33-.174-.547-.337-1.085-.556-1.783-.027 1.039.692 1.863.237 2.866-1.64-4.362-2.132-8.922-3.198-13.338l-.145.027c.173.824.346 1.648.519 2.481l-.146.036-.492-2.463c-.373-1.872-.72-3.754-1.13-5.617s-.892-3.717-1.32-5.571c-.073-.305-.219-.645.21-.959.364 1.012.61 2.016.91 3.171.055-.752-.11-1.308-.3-1.872-.183-.555-.31-1.129-.492-1.827.391.456.364.465.5.985.064.242-.072.591.301.726v.017zM7.498 56.89h-.045l-.11-.483a.3.3 0 0 0 .082-.018l.073.492z"/><path fill="#fff" d="M18.73 44.449c-.272.134-.491.215-.691.34-.684.404-1.394.69-2.214.762-.756.063-1.385.502-1.95.985-.391.34-.756.466-1.302.332-.328-.081-.738.071-1.093.188-.365.116-.684.34-1.048.457-.273.09-.583.206-.956-.153.81.027 1.375-.322 1.94-.636.41-.224.847-.358 1.303-.188.355.135.574-.018.847-.215.437-.322.91-.6 1.384-.878.164-.098.347-.188.538-.197 1.03-.071 1.931-.483 2.797-1.003.31-.18.61-.188.92.09.564.52 1.239.618 1.94.349.62-.242 1.202-.564 1.822-.824.319-.134.665-.215 1.002-.305.829-.215 1.676-.376 2.496-.636s1.558-.277 2.35.144c.41.215.966.179 1.467.241.62.072 1.239.099 1.85.18.209.026.491.062.518.34-.81-.027-1.603-.08-2.405-.072-.728 0-1.412-.071-2.086-.412-.282-.143-.701-.143-1.038-.09-.565.1-1.102.314-1.667.44-.538.125-1.084.188-1.613.295a3.3 3.3 0 0 0-.728.251c-.41.197-.793.439-1.212.618-1.102.484-2.177.591-3.17-.403M17.19 54.025c.101-.161.12-.242.174-.26.72-.313 1.44-.636 2.177-.922.41-.153.856-.162 1.257.044.447.224.847.117 1.194-.188.464-.403.956-.582 1.585-.394.655.188 1.166-.072 1.566-.591.11-.143.237-.278.41-.475.428.547.902.905 1.595.6a1.99 1.99 0 0 0 1.13-1.254c.117.027.19.018.2.045.31.636.355.663.992.385.438-.197.848-.439 1.258-.68a2.97 2.97 0 0 1 1.858-.413c.592.045 1.193-.026 1.794-.009.584.01 1.121.162 1.567.825-1.01-.484-1.93-.457-2.86-.368a2 2 0 0 1-.501-.018c-.629-.098-1.184.063-1.713.368-.41.242-.829.474-1.257.68-.4.197-.82.26-1.175.054-.52.296-.956.627-1.457.815-.538.197-1.03-.026-1.449-.439-.127.126-.246.233-.364.35-.447.42-.957.636-1.576.439-.547-.18-1.011-.09-1.458.295-.428.377-.92.475-1.466.197-.41-.215-.848-.179-1.258-.009-.619.251-1.23.529-1.84.798-.09.035-.19.062-.391.125zM27.722 40.409c-.328-.708-.966-.887-1.65-.968-.71-.089-1.42-.214-2.14-.25-.364-.018-.738.116-1.093.233-.246.08-.456.25-.692.367-.474.242-.957.313-1.422-.045-.318-.242-.665-.242-1.02-.09-.264.117-.52.233-.765.386-.41.25-.81.483-1.312.537-.246.027-.474.206-.692.34-.392.234-.765.484-1.148.717-.082.054-.164.108-.255.126-.729.125-1.44.295-1.959.886-.063.072-.291.081-.41.036-.391-.152-.692.01-1.002.215-.2.126-.41.251-.619.35-.273.125-.565.152-.802-.072-.246-.233-.282-.52-.063-.824.009.09.009.188.036.277.137.395.31.493.701.35.155-.054.301-.143.438-.233.419-.296.838-.547 1.393-.376.1.035.292-.045.374-.126.419-.439.938-.564 1.521-.69.51-.107.984-.465 1.43-.779.401-.277.775-.52 1.276-.591.273-.036.519-.233.774-.358.364-.18.702-.403 1.084-.547.42-.16.856-.16 1.239.117a.86.86 0 0 0 1.075-.018c.966-.744 2.031-.735 3.143-.52.537.108 1.093.161 1.621.314.702.197.866.439.957 1.245zM14.822 49.95c.091-.055.183-.135.283-.171 1.138-.358 2.277-.735 3.425-1.057.92-.25 1.85-.466 2.796-.636.529-.09 1.02-.206 1.449-.547a.85.85 0 0 1 .583-.16c.902.134.902.143 1.694-.243.037.081.082.162.091.242.019.394.255.484.583.394a5 5 0 0 0 .738-.26c1.758-.743 3.617-1.074 5.493-1.343.356-.054.757-.072 1.048.224-.793.107-1.576.18-2.341.322-.92.17-1.831.386-2.724.636-.638.18-1.257.457-1.876.69-.502.188-.939.152-1.267-.394a1.45 1.45 0 0 1-1.302.063.62.62 0 0 0-.665.09c-.811.635-1.777.725-2.76.86-.839.116-1.65.447-2.478.68-.893.26-1.786.52-2.679.77-.027-.062-.054-.125-.082-.179zM58.876 62.203c3.307-.501 6.614-1.003 9.911-1.505l.019.144c-3.289.627-6.605 1.048-9.939 1.361zM16.089 68.975c3.07-.483 6.03-1.558 9.182-1.469-3.124.126-6.085 1.21-9.182 1.47M20.945 62.83l6.03-.967.027.188c-2.013.305-4.026.618-6.04.923 0-.054-.017-.099-.026-.152zM32.45 61.782c1.566-.439 4.927-.25 6.066.367-1.03-.125-2.031-.304-3.042-.358-1.02-.063-2.05 0-3.025 0zM36.284 66.082c1.53-.224 3.061-.332 4.61-.215-1.53.116-3.07.233-4.6.358 0-.045 0-.09-.01-.134zM10.422 57.635q.546 2.391 1.103 4.783l-.137.027-1.148-4.81h.191zM2.342 44.503l1.312 4.837s-.082.018-.127.036l-1.34-4.828c.055-.018.11-.027.155-.045M12.9 69.8c-1.093.59-3.097 1.29-3.79 1.29a25.3 25.3 0 0 1 3.79-1.29M25.744 61.361c-1.339.278-2.687.565-4.026.842l-.028-.134 4.009-.887c.018.063.036.117.045.18M75.265 59.74l3.58-.618c-1.139.51-2.36.564-3.58.618M51.188 63.52c1.211-.224 2.423-.448 3.625-.672l.028.152-3.608.7q-.027-.097-.054-.18zM74.572 56.193c-.045.116-.063.295-.145.331-.356.161-.684.376-1.14.331-.272-.026-.573.144-.865.224-.018-.053-.036-.107-.045-.152.738-.242 1.485-.475 2.223-.716l-.028-.027zM5.403 56.954c.255 1.066.5 2.141.756 3.207l-.128.027c-.264-1.066-.519-2.132-.783-3.198.055-.009.11-.027.155-.036M50.076 59.489c.81-.52 1.649-.95 2.66-.94q-1.323.47-2.66.94M6.614 38.85c.191.986.392 1.971.583 2.956-.027 0-.055.018-.082.027-.119-.465-.264-.931-.355-1.406-.1-.502-.146-1.021-.219-1.532.027-.009.055-.027.082-.036zM36.986 61.03l-2.879-.135c.966-.179 1.922-.09 2.879 0v.144zM72.459 59.767l-2.797.376c.92-.25 1.831-.502 2.797-.376M64.734 58.235l-2.132.134c0-.035 0-.08-.01-.116.711-.054 1.413-.099 2.123-.152 0 .044.019.09.028.134zM6.806 64.273l.328 2.338s-.055 0-.082.008l-.328-2.364s.054.009.082.018M1.768 43.204c-.055-.278-.11-.565-.182-.896.446-.17.847-.322 1.257-.475l.046.108c-.347.161-.702.322-1.075.501l.027.753c-.027 0-.055 0-.073.009M50.587 61.307c.62-.241 1.23-.474 1.85-.716.017.045.036.08.045.125-.602.242-1.212.484-1.813.717-.027-.045-.055-.08-.082-.126M52.682 61.209c-.602.25-1.212.493-1.813.743a.6.6 0 0 1-.046-.107c.602-.26 1.194-.52 1.795-.78.018.054.045.1.064.153zM39.846 61.155q.588.35 1.148.699c-.018.036-.045.08-.064.116-.373-.224-.756-.447-1.13-.68 0 0 .019-.063.046-.144zM60.589 34.542c.218.277.437.555.655.824-.054.027-.154.098-.164.09-.246-.26-.583-.484-.491-.914M8.373 70.471l.136.995-.082.017c-.082-.322-.155-.645-.237-.967.064-.018.119-.027.183-.045M60.07 36.27l.738.96-.128.098-.71-.94.109-.108zM38.398 53.344l.501 1.048s-.073.036-.1.045l-.501-1.012s.073-.063.11-.09zM37.532 54.294l.437.815s-.073.035-.11.062c-.154-.268-.3-.537-.455-.815.037-.018.082-.045.119-.062zM56.808 57.698c-.337-.01-.674-.027-1.011-.036.337.026.692-.368 1.011.035M14.284 61.764l.683-.295c.019.036.037.063.055.098-.1.054-.2.117-.3.161a5 5 0 0 1-.374.144l-.055-.108zM56.717 58.092l.665-.09s0 .072.009.099l-.665.027v-.045z"/><path fill="#fff" d="M56.799 57.698c.273-.063.546-.144.82-.17.109-.01.227.098.337.16-.383 0-.775 0-1.157.01M36.694 52.905l-.292-.627s.064-.027.1-.045c.1.206.192.421.292.627-.036.018-.064.027-.1.045M74.044 52.251c.109.153.227.305.337.466l-.082.054-.356-.457c.028-.018.064-.045.091-.063zM37.386 51.526c-.09-.189-.173-.368-.264-.556.027-.018.064-.027.091-.045.091.188.173.368.264.556l-.1.044zM57.965 57.68c.255-.063.51-.117.765-.18 0 .027.01.045.018.072l-.774.108zM56.052 58.1c-.164.036-.328.063-.492.1 0-.028-.009-.055-.018-.081l.492-.063s0 .027.009.045zM13.71 62.185q-.217.122-.437.242c-.018-.035-.036-.062-.054-.098l.437-.242a.4.4 0 0 1 .046.09zM41.121 61.146c.137.08.264.161.4.242-.008.027-.026.054-.036.08-.145-.07-.291-.143-.446-.214zM44.912 60.295c.072-.152.145-.304.209-.457.036.01.082.018.118.036-.027.126-.054.26-.082.385-.063.072-.118.153-.182.224-.027-.062-.045-.116-.073-.179z"/><path fill="#fff" d="M44.911 60.295c.028.063.046.126.073.18-.146.16-.291.322-.437.474.118-.224.246-.439.364-.663zM55.169 38.08c-.52-.027-1.039-.018-1.549-.09-.665-.098-1.293-.053-1.876.278-.684.386-1.367.34-2.06 0-.637-.304-.755-.26-1.22.27-.574.653-.965.752-1.74.366-.364-.179-.701-.412-1.047-.618-.474-.286-.93-.313-1.421-.027-.42.251-.857.359-1.376.27-.246-.046-.565.089-.783.232-.51.331-1.002.636-1.667.394-.119-.045-.31.054-.447.134-.136.081-.255.215-.364.34-.392.476-.838.69-1.44.377-.054-.027-.136 0-.236 0-.474.61-.456 1.496-1.048 2.034-.055-.027-.1-.045-.155-.072.246-.645.474-1.299.747-1.935.164-.385.392-.51.82-.331.51.215.81.017 1.12-.323.374-.403.757-.663 1.385-.475.255.072.647-.107.911-.277.456-.287.866-.538 1.458-.421.264.053.61-.108.865-.26.656-.394 1.275-.323 1.895.063.3.188.601.385.93.546.582.296.846.224 1.302-.269.127-.143.264-.269.41-.394.3-.25.637-.313.993-.116.1.062.218.107.318.152.556.278 1.103.278 1.64-.045.738-.43 1.53-.502 2.36-.278.428.117.865.198 1.293.296l-.027.18zM45.95 41.968c-.784.994-1.667 1.146-2.678.537-.392.672-.939.968-1.677 1.012-.528.027-.92.359-1.23.78-.19.269-.373.546-.582.806-.092.116-.237.188-.428.322.391-1.307 1.275-2.114 2.477-2.31q.62-.099 1.257-1.004c.246.08.529.152.775.269.583.277 1.093.161 1.494-.287.346-.394.683-.457 1.13-.215.327.18.655.108.965-.063.21-.116.41-.25.601-.385.355-.242.674-.322 1.011.045.283.305.656.206 1.012.143 2.168-.376 4.336-.743 6.504-1.12.227-.035.464-.062.728.019-.118.053-.227.125-.346.152-1.658.367-3.316.752-4.983 1.084-.747.152-1.52.188-2.277.286-.446.054-.784-.143-1.12-.483-.82.412-1.567 1.28-2.642.412zM61.983 52.26c-.747.01-1.503 0-2.25.036-2.086.08-4.173-.107-6.25.18-.364.053-.765-.028-1.13-.144-.728-.224-1.42-.161-2.113.099-.583.215-1.157.447-1.74.662-.318.126-.655.206-.956-.036-.383-.304-.783-.206-1.157-.044-.856.367-1.576.895-1.95 1.782-.036.08-.1.144-.145.215l-.137-.053c.064-.206.091-.43.192-.618.519-.905 1.32-1.487 2.322-1.783.256-.072.62-.063.82.063.41.26.775.17 1.157.026l1.886-.698a2.66 2.66 0 0 1 1.767-.018c.665.215 1.312.179 1.986.107 2.487-.26 4.974-.268 7.46.036.083.01.156.027.238.036v.153M49.029 45.631c-.392.054-.748.108-1.094.144-1.111.107-2.168.376-3.124.958a2.37 2.37 0 0 1-1.503.332c-.328-.036-.684.125-1.011.25-.237.09-.447.278-.665.413-.192.107-.383.17-.602 0 .438-.251.838-.529 1.267-.717.318-.143.692-.287 1.01-.242.52.072.939-.072 1.358-.322 1.294-.789 2.733-.968 4.218-.896.036 0 .082.045.164.098zM55.752 56.121c-1.968.215-3.972-.045-5.903.529 1.913-.789 3.926-.457 5.903-.529M67.129 50.334l-.574-.833c.027-.018.063-.036.09-.062.183.277.374.564.556.842-.027.017-.045.035-.072.044zM66.81 48.973c-.136-.197-.273-.403-.41-.6l.082-.054c.137.206.265.403.401.609-.027.018-.054.036-.073.054zM71.502 55.539l.656-.09v.072c-.21.026-.42.053-.638.09zM45.422 59.435l.246-.403s.054.036.082.045l-.246.403c-.027-.018-.055-.027-.082-.045M8.591 57.886c-.154-.421-.346-.842-.473-1.272-.292-1.012-.565-2.034-.847-3.082.31.35 1.047 2.83 1.311 4.372v-.018zM6.66 50.272l-.255-1.855h.064l.255 1.846s-.036.018-.064.027zM5.312 42.451c.072.332.154.672.227 1.004-.045 0-.09.017-.136.017l-.082-1.039v.018zM8.582 57.904c.082.26.155.51.237.77-.037 0-.073.018-.119.027l-.109-.806-.009.017zM79.418 59.812c-1.311.152-2.614.331-3.935.439-3.134.26-6.23.77-9.32 1.37-1.812.35-3.625.672-5.447.985-1.275.224-2.56.395-3.826.628-2.077.367-4.154.743-6.221 1.164-.875.18-1.613.529-1.94 1.55-.265.824-.884 1.532-1.877 1.684-.756.116-1.503.25-2.269.295a21 21 0 0 1-2.578 0c-.583-.027-1.01-.394-1.311-.886-.092-.153-.119-.395-.237-.448-.173-.08-.42-.045-.629-.027-3.671.385-7.351.752-11.013 1.173-1.931.224-3.844.547-5.767.816-.564.08-1.138.152-1.703.25-.966.18-1.922.394-2.888.582-1.412.287-2.824.529-4.218.87-2.232.546-4.445 1.155-6.54 2.113-.119.054-.219.162-.32.242l.083.162c.291-.072.592-.117.874-.215.793-.27 1.567-.583 2.369-.825.874-.26 1.767-.42 2.642-.68 2.833-.842 5.775-1.183 8.654-1.8 1.311-.279 2.65-.413 3.98-.574 1.713-.206 3.435-.367 5.147-.547 2.834-.304 5.676-.6 8.509-.922.41-.045.683.045.883.403.256.466.702.707 1.221.797.42.072.856.08 1.285.108h.21a.58.58 0 0 1 .354-.036c.228.036.465.045.693.036v-.027c.61-.054 1.23-.099 1.84-.162 1.421-.16 2.742-.743 3.015-2.346.064-.377.273-.663.656-.77.61-.189 1.23-.404 1.858-.53 1.813-.349 3.635-.662 5.448-.985.947-.17 1.886-.358 2.833-.51 1.895-.314 3.79-.591 5.675-.905 2.25-.376 4.482-.815 6.732-1.129 2.16-.304 4.336-.474 6.513-.698.192-.018.383-.063.565-.099.32-.063.42-.26.337-.555h-.337zM73 9.882c-.382-.582-.755-1.174-1.156-1.756-.21-.313-.428-.627-.702-.887-.382-.358-.801-.25-.92.251-.09.385-.073.797-.082 1.191-.009.878 0 1.756 0 2.661-.956.385-1.922.752-2.86 1.165a5.4 5.4 0 0 0-1.24.752c-.382.322-.29.672.183.86.246.098.528.143.793.17.992.107 1.995.206 3.079.314 0 .403-.028.779 0 1.146.054.556.1 1.129.255 1.657.164.565.665.654 1.047.206.264-.304.456-.662.647-1.02.319-.583.62-1.183.957-1.846.965.17 1.894.34 2.824.51.163.027.31.108.473.117.365.027.583-.269.401-.573-.146-.251-.373-.457-.574-.672-.583-.663-1.166-1.326-1.749-1.998.246-.385.41-.699.62-.967.592-.77 1.202-1.523 1.803-2.284.182-.242.483-.44.383-.851-.629-.081-.81.573-1.303.716-.464.135-.892.394-1.339.6-.465.215-.93.43-1.385.645-.127-.08-.154-.09-.173-.116zm-2.204 4.103c0-.708-.027-1.353.018-1.99.01-.16.192-.375.356-.465.5-.26 1.029-.475 1.621-.743.282.43.565.85.856 1.29-.355.671-.71 1.334-1.084 2.05-.592-.053-1.175-.098-1.767-.152zm-4.172-.287c-.01-.063-.027-.135-.036-.197 1.084-.672 2.34-.986 3.616-1.577-.036.762-.073 1.362-.1 2.052-1.212-.099-2.341-.189-3.471-.278zm5.885-3.395c-.565.242-1.066.466-1.658.725-.055-1.137-.11-2.158-.155-3.17.064-.019.127-.036.191-.063.61.752 1.075 1.594 1.622 2.508m-1.813 4.317c.556.054 1.002.09 1.567.144-.42.797-.802 1.514-1.175 2.23-.082-.018-.173-.044-.255-.062-.046-.735-.092-1.47-.137-2.311m4.764-.16c-.765-.1-1.384-.171-2.14-.27.245-.501.455-.931.72-1.469l1.411 1.738zm-1.44-2.993c-.227-.34-.4-.59-.637-.94.592-.287 1.12-.547 1.649-.797q.058.067.1.134c-.355.51-.701 1.012-1.111 1.603M30.783 23.158c-.383-.583-.756-1.174-1.157-1.756-.21-.314-.428-.627-.702-.887-.382-.358-.801-.25-.92.25-.09.386-.073.798-.082 1.192-.009.878 0 1.756 0 2.66-.956.386-1.922.753-2.86 1.165a5.4 5.4 0 0 0-1.239.753c-.383.322-.291.671.182.86.246.098.529.143.793.17.993.107 1.995.206 3.079.313 0 .403-.027.78 0 1.147.055.555.1 1.129.255 1.657.164.564.665.654 1.047.206.265-.305.456-.663.647-1.021.32-.582.62-1.183.957-1.846.965.17 1.895.34 2.824.511.164.027.31.108.474.117.364.026.582-.27.4-.574-.145-.25-.373-.457-.574-.672a396 396 0 0 1-1.749-1.997c.246-.385.41-.699.62-.968.592-.77 1.202-1.522 1.803-2.284.183-.242.483-.439.383-.85-.628-.081-.81.573-1.303.716-.464.134-.892.394-1.339.6-.464.215-.929.43-1.384.645-.128-.08-.155-.09-.173-.117zm-2.205 4.102c0-.708-.027-1.353.018-1.989.01-.16.192-.376.356-.465.5-.26 1.03-.475 1.621-.744.283.43.565.851.857 1.29-.356.672-.71 1.335-1.084 2.051-.593-.053-1.176-.098-1.768-.152zm-4.172-.287c-.009-.062-.027-.134-.036-.197 1.084-.671 2.34-.985 3.616-1.576-.036.761-.073 1.361-.1 2.051-1.212-.098-2.341-.188-3.47-.277zm5.885-3.395c-.565.242-1.066.466-1.658.726-.055-1.138-.11-2.159-.155-3.171.064-.018.128-.036.191-.063.61.753 1.075 1.595 1.622 2.508m-1.813 4.318c.556.054 1.002.09 1.567.143-.42.798-.802 1.514-1.175 2.23-.082-.017-.173-.044-.255-.062-.046-.734-.091-1.469-.137-2.31m4.764-.161c-.765-.099-1.384-.17-2.14-.269.246-.502.455-.931.72-1.469l1.411 1.738zm-1.439-2.992c-.228-.34-.4-.591-.638-.94.593-.287 1.12-.547 1.65-.798.036.045.072.09.1.135-.356.51-.702 1.012-1.112 1.603"/><path fill="#fff" d="M33.537 74.228c-.575-.874-1.136-1.762-1.738-2.637-.315-.47-.643-.941-1.054-1.332-.574-.538-1.204-.376-1.382.377-.136.579-.109 1.197-.123 1.79-.013 1.318 0 2.636 0 3.995-1.436.579-2.887 1.13-4.296 1.75-.657.295-1.313.672-1.86 1.13-.575.484-.439 1.009.273 1.291.37.148.794.216 1.19.256 1.492.161 2.997.31 4.625.47 0 .606-.041 1.171 0 1.723.082.834.15 1.695.383 2.489.246.847.999.982 1.573.31.397-.458.685-.996.972-1.534.479-.875.93-1.776 1.437-2.772 1.45.256 2.846.511 4.241.767.246.04.465.161.712.175.547.04.875-.404.602-.861-.22-.377-.561-.686-.862-1.01-.876-.995-1.752-1.99-2.627-3 .369-.578.615-1.05.93-1.453.89-1.157 1.806-2.287 2.71-3.43.273-.364.724-.66.574-1.279-.944-.12-1.218.861-1.957 1.077-.698.201-1.34.592-2.011.901-.698.323-1.396.646-2.08.969-.191-.121-.232-.135-.26-.175zm-3.311 6.162c0-1.062-.042-2.031.027-2.987.014-.242.287-.565.533-.7.753-.39 1.547-.712 2.436-1.116.424.646.848 1.278 1.286 1.938-.534 1.009-1.067 2.004-1.628 3.08-.89-.08-1.765-.147-2.655-.228zm-6.267-.43c-.014-.094-.041-.202-.055-.296 1.628-1.01 3.517-1.48 5.432-2.368-.055 1.143-.11 2.045-.15 3.08-1.82-.147-3.517-.282-5.213-.416zm8.839-5.1c-.849.364-1.601.7-2.49 1.09-.082-1.708-.165-3.242-.233-4.762.096-.027.192-.054.287-.095.917 1.13 1.615 2.395 2.436 3.768m-2.723 6.486c.835.08 1.505.134 2.353.215-.63 1.197-1.204 2.274-1.765 3.35-.123-.027-.26-.067-.383-.094a422 422 0 0 1-.205-3.471m7.156-.243c-1.15-.148-2.08-.255-3.215-.403l1.08-2.207c.767.942 1.369 1.682 2.121 2.61zm-2.162-4.493c-.342-.512-.602-.888-.958-1.413.89-.43 1.683-.82 2.477-1.197.054.067.11.134.15.201-.533.767-1.053 1.52-1.669 2.409M114.584 76.02c-.383-.582-.756-1.173-1.157-1.755-.21-.314-.428-.627-.702-.887-.382-.359-.801-.251-.92.25-.091.386-.073.798-.082 1.192-.009.878 0 1.756 0 2.66-.956.386-1.922.753-2.86 1.165a5.4 5.4 0 0 0-1.239.752c-.383.323-.292.672.182.86.246.099.528.144.793.17.993.108 1.995.206 3.079.314 0 .403-.028.78 0 1.147.054.555.1 1.128.255 1.657.164.564.665.654 1.047.206.264-.305.456-.663.647-1.021.319-.583.62-1.183.957-1.846.965.17 1.894.34 2.824.51.164.028.309.108.473.117.365.027.583-.268.401-.573-.146-.25-.373-.457-.574-.672a396 396 0 0 1-1.749-1.997c.246-.386.41-.699.62-.968.592-.77 1.202-1.523 1.803-2.284.182-.242.483-.439.383-.851-.629-.08-.811.573-1.303.717-.464.134-.893.394-1.339.6-.464.215-.929.43-1.385.645-.127-.08-.154-.09-.173-.117zm-2.205 4.103c0-.708-.027-1.353.018-1.989.009-.16.192-.376.356-.466.501-.26 1.029-.474 1.621-.743.282.43.565.851.856 1.29-.355.672-.71 1.335-1.084 2.051-.592-.053-1.175-.098-1.767-.152zm-4.172-.287c-.009-.062-.027-.134-.037-.197 1.085-.672 2.342-.985 3.617-1.576-.036.761-.073 1.361-.1 2.051l-3.471-.278zm5.885-3.395c-.565.242-1.066.466-1.658.726-.055-1.138-.11-2.159-.155-3.171.064-.018.127-.036.191-.063.611.753 1.075 1.595 1.622 2.508m-1.813 4.318c.556.054 1.002.09 1.567.143-.419.797-.802 1.514-1.175 2.23-.082-.017-.173-.044-.255-.062-.046-.734-.092-1.47-.137-2.311m4.764-.161c-.765-.099-1.384-.17-2.141-.27l.72-1.468 1.412 1.738zm-1.439-2.992c-.228-.34-.401-.591-.638-.94.592-.287 1.121-.547 1.649-.798.036.045.073.09.1.134-.355.51-.701 1.013-1.111 1.604M78.216 43.317c.319-.332.665-.636.966-.977.082-.098.145-.34.082-.412a.62.62 0 0 0-.456-.188c-.182 0-.355.125-.537.17-.437.108-.884.206-1.267.287-.464-.43-.473-1.075-1.047-1.335-.474.448-.346 1.084-.62 1.594-.965.368-2.067.332-3.124.896.765.86 1.886.923 2.724 1.452-.064.322-.137.609-.173.895-.046.296-.055.6-.091.986.974-.117 1.238-.995 1.885-1.3q1.94.735 2.323.458l-1.157-1.926c.182-.224.328-.421.492-.6m-2.432-.466c.291-.045.574-.09.829-.135q.656 1.084-.31 2.034c-.237-.09-.5-.188-.802-.296.091-.546.183-1.039.283-1.594zm-.71 1.45c-.684-.25-1.303-.474-2.05-.752.783-.394 1.494-.403 2.304-.627-.09.51-.164.896-.255 1.38m2.058-1.683c.446-.117.829-.215 1.203-.314.027.036.045.072.072.108-.282.295-.564.6-.901.958a30 30 0 0 0-.374-.752m.264 1.702c.182.331.328.591.574 1.039-.446-.152-.72-.251-1.111-.394.218-.26.346-.412.546-.645zm-1.403.815c-.246.269-.437.475-.637.68-.037-.026-.082-.044-.119-.071.046-.242.082-.493.137-.806.246.08.373.116.62.197m.474-2.867c-.2.036-.355.063-.574.099.028-.269.055-.484.073-.708.046-.009.1-.018.146-.035.11.197.218.394.346.636zM115.55 4.618c.319-.331.665-.636.966-.976.082-.099.145-.34.082-.412a.62.62 0 0 0-.456-.188c-.182 0-.355.125-.537.17-.438.107-.884.206-1.266.287-.465-.43-.474-1.075-1.048-1.335-.474.448-.346 1.084-.62 1.594-.965.368-2.067.332-3.124.896.765.86 1.886.923 2.724 1.451-.064.323-.137.61-.173.896-.046.296-.055.6-.092.985.975-.116 1.239-.994 1.886-1.299q1.94.735 2.323.457l-1.157-1.926c.182-.224.328-.42.492-.6m-2.432-.466c.291-.044.574-.09.829-.134q.656 1.084-.31 2.033c-.237-.09-.501-.188-.802-.295.092-.547.183-1.04.283-1.595zm-.711 1.452c-.683-.251-1.302-.475-2.049-.753.783-.394 1.494-.403 2.304-.627-.091.51-.164.896-.255 1.38m2.059-1.684c.446-.117.829-.215 1.203-.314.027.036.045.072.072.108-.282.295-.564.6-.901.958a30 30 0 0 0-.374-.752m.264 1.702c.182.33.328.59.574 1.039-.446-.153-.72-.251-1.111-.395.218-.26.346-.412.546-.644zm-1.403.815c-.246.268-.437.474-.637.68-.037-.026-.082-.044-.119-.071.046-.242.082-.493.137-.806.246.08.373.116.619.197m.474-2.867c-.2.036-.355.063-.574.099.027-.269.055-.484.073-.708.046-.009.1-.018.146-.036.109.197.218.394.346.636zM71.385 72.317c.319-.332.665-.636.966-.977.082-.098.145-.34.082-.412a.62.62 0 0 0-.456-.188c-.182 0-.355.126-.537.17a40 40 0 0 1-1.266.287c-.465-.43-.474-1.075-1.048-1.335-.474.448-.346 1.084-.62 1.595-.965.367-2.067.331-3.124.896.765.86 1.885.922 2.724 1.45-.064.323-.137.61-.173.897-.046.295-.055.6-.092.985.975-.117 1.24-.995 1.886-1.299q1.94.735 2.323.457l-1.157-1.926c.182-.224.328-.421.492-.6m-2.432-.466c.291-.045.574-.09.829-.134q.656 1.083-.31 2.033a45 45 0 0 0-.802-.296c.091-.546.183-1.039.283-1.594zm-.71 1.451c-.684-.25-1.303-.475-2.05-.752.783-.394 1.494-.403 2.304-.627-.09.51-.164.895-.255 1.38m2.058-1.684 1.203-.313c.027.035.045.071.072.107-.282.296-.564.6-.901.959-.137-.287-.237-.484-.374-.753m.264 1.702c.182.331.328.591.574 1.04-.446-.153-.72-.252-1.111-.395.218-.26.346-.412.546-.645zm-1.403.815c-.246.269-.437.475-.637.68-.037-.026-.082-.044-.119-.07.046-.243.082-.493.137-.807.246.08.373.117.62.197m.474-2.866c-.2.035-.355.062-.574.098.027-.269.055-.484.073-.708.045-.008.1-.017.146-.035.109.197.218.394.346.636zM83.147 112.119c.319-.331.665-.636.965-.976.082-.099.146-.341.082-.412a.62.62 0 0 0-.455-.189c-.182 0-.355.126-.538.171-.437.107-.883.206-1.266.286-.464-.43-.474-1.075-1.047-1.334-.474.447-.347 1.083-.62 1.594-.966.367-2.068.331-3.124.896.765.86 1.885.922 2.723 1.451-.064.322-.136.609-.173.896-.045.295-.054.6-.09.985.974-.116 1.238-.994 1.885-1.299q1.94.735 2.323.457l-1.157-1.926c.182-.224.328-.421.492-.6m-2.433-.466c.292-.045.574-.089.83-.134q.656 1.083-.31 2.033a47 47 0 0 0-.802-.295c.091-.547.182-1.039.282-1.595zm-.71 1.451c-.683-.25-1.303-.474-2.05-.752.784-.394 1.494-.403 2.305-.627-.091.51-.164.896-.255 1.379m2.059-1.684 1.202-.313c.028.036.046.071.073.107-.282.296-.565.6-.902.959-.136-.287-.237-.484-.373-.753m.264 1.702c.182.332.328.591.574 1.039-.447-.152-.72-.25-1.112-.394.22-.26.347-.412.547-.645zm-1.403.815c-.246.269-.437.475-.638.681-.036-.027-.082-.045-.118-.071.045-.242.082-.493.137-.807.245.081.373.117.619.197m.474-2.866c-.2.036-.356.063-.574.098.027-.268.055-.483.073-.707.045-.009.1-.018.145-.036.11.197.22.394.347.636zM9.763 111.932c.319-.331.665-.636.966-.976.082-.099.145-.341.082-.412a.62.62 0 0 0-.456-.189c-.182 0-.355.126-.537.171-.438.107-.884.206-1.267.286-.464-.43-.473-1.075-1.047-1.334-.474.447-.346 1.083-.62 1.594-.965.367-2.068.331-3.124.896.765.86 1.885.922 2.724 1.451-.064.322-.137.609-.174.896-.045.295-.054.6-.09.985.974-.116 1.238-.994 1.885-1.299q1.94.735 2.323.457l-1.157-1.926c.182-.224.328-.421.492-.6m-2.432-.466c.291-.045.574-.089.829-.134q.656 1.083-.31 2.033a47 47 0 0 0-.802-.295c.091-.547.183-1.04.283-1.595zm-.71 1.451c-.684-.251-1.304-.474-2.05-.752.783-.394 1.493-.403 2.304-.627-.09.51-.164.896-.255 1.379m2.058-1.684 1.202-.313c.028.036.046.071.073.107-.282.296-.565.6-.902.959-.136-.287-.236-.484-.373-.753m.264 1.702c.182.332.328.591.574 1.039-.446-.152-.72-.25-1.111-.394.218-.26.346-.412.546-.645zm-1.403.815c-.246.269-.437.475-.637.681-.037-.027-.082-.045-.119-.071.046-.242.082-.493.137-.807.246.081.373.117.62.197m.474-2.866c-.2.036-.355.063-.574.098.027-.268.055-.483.073-.707.045-.009.1-.018.146-.036.109.197.218.394.346.636zM61.084 24.607c.32-.331.665-.636.966-.976.082-.099.146-.34.082-.412a.62.62 0 0 0-.456-.189c-.182 0-.355.126-.537.17-.437.108-.884.207-1.266.287-.465-.43-.474-1.075-1.048-1.334-.474.448-.346 1.084-.62 1.594-.965.367-2.067.331-3.124.896.765.86 1.886.922 2.724 1.451-.064.322-.137.61-.173.896-.046.295-.055.6-.091.985.974-.116 1.239-.994 1.885-1.299q1.94.735 2.323.457l-1.157-1.926c.183-.224.328-.42.492-.6m-2.432-.466c.291-.045.574-.09.829-.134q.656 1.083-.31 2.033c-.237-.09-.5-.188-.801-.295.09-.547.182-1.04.282-1.595zm-.71 1.451c-.684-.25-1.303-.474-2.05-.752.783-.394 1.494-.403 2.304-.627-.09.51-.163.896-.255 1.38M60 23.908l1.203-.313c.027.036.045.071.073.107-.283.296-.565.6-.902.959a29 29 0 0 0-.374-.753m.264 1.702c.183.332.328.591.574 1.04a47 47 0 0 1-1.111-.395c.219-.26.346-.412.547-.645zm-1.403.815c-.245.27-.437.475-.637.681-.037-.027-.082-.045-.119-.071.046-.242.082-.493.137-.807.246.081.374.117.62.197m.474-2.866c-.2.036-.355.063-.574.098.028-.268.055-.483.073-.707.046-.01.1-.018.146-.036.11.197.219.394.346.636zM36.04 7.954c-1.42.662-2.84 1.323-4.261 1.969-2.776 1.259-5.552 2.47-8.312 3.76-2.986 1.389-5.94 2.857-8.91 4.294-.29.145-.564.323-.871.403-.162.049-.355-.08-.565-.242 1.97-1.5 4.213-2.42 6.262-3.664-2.26.856-4.325 2.066-6.504 3.277-.759-.872-1.469-1.776-2.26-2.599-.774-.807-1.355-1.759-2.162-2.517 1.371-1.34 19.045-10.169 21.918-10.927 1.097 1.307 2.21 2.63 3.373 4.019-.21.21-.387.403-.726.742l1-.436c-.355.807-1.194 1-1.71 1.598.726-.387 1.436-.759 2.05-1.081.71.435 1.339.807 1.952 1.178-.274-.42-.5-.904-.839-1.275-1.517-1.63-3.099-3.228-4.616-4.858-.387-.42-.743-.517-1.259-.29-1.582.693-3.196 1.323-4.745 2.065-2.534 1.227-5.068 2.47-7.554 3.793-3.793 2.001-7.537 4.067-11.298 6.15-.904.5-1.759 1.13-2.55 1.646.113 1.033.194 1.92.29 2.808.13 1.13.42 2.179 1.292 3.002.339.323.58.759.904 1.114.952 1.065 1.904 2.163 2.905 3.18.678.71 1.517.887 2.437.403a61 61 0 0 0 1.775-.936c1.372-.743 2.728-1.55 4.132-2.244 2.244-1.097 4.536-2.098 6.78-3.196 2.872-1.404 5.745-2.824 8.586-4.309 1.194-.613 2.308-1.372 3.438-2.082.42-.258.742-.613.758-1.146.016-.613-.032-1.21.032-1.824.065-.63-.161-1.21-.145-1.824 0-.096-.13-.193-.194-.29-.032.032-.08.064-.113.097-.096.08-.177.177-.29.226zM5.535 17.719c.63.387.178 1.162.614 1.662.032-.258.064-.484.112-.904.695 1.05.291 2.18.872 3.196a168 168 0 0 0-.226-2.082c.743.21.42.888.726 1.323.049-.129.081-.226.146-.435.532.58 1.146 1.016 1.259 1.84.113.871.258 1.759.258 2.711-.258-.323-.5-.678-.775-.985-1.227-1.404-2.437-2.792-3.68-4.164-.29-.322-.468-.63-.5-1.081-.049-.888-.178-1.775-.194-2.68.71.76.323 1.825.775 2.68-.016-.581-.049-1.162-.065-1.743a1 1 0 0 0 .21-.032c.097.58.194 1.178.29 1.759h-.032c.065-.34.13-.678.194-1.05zm3.131-4.003c.178.226.097.436-.145.549-.403.21-.807.37-1.21.58a1.24 1.24 0 0 0-.517.485l2.244-1.146c1.113 1.323 2.178 2.582 3.276 3.89-.339.29-.597.5-.855.71.468.177.887-.775 1.404.08-1.033.824-2.357 1.195-3.325 2.131 1.42-.097 2.437-1.162 3.777-1.63.032.194.145.387.097.533-.097.29-.017.516.08.79.08.242-.032.565-.08.953.064.145.258.403.338.694.097.339.097.694.146 1.113-.646.388-1.292.759-2.018 1.195a58 58 0 0 0-.274-1.437c-.34.549.274 1.21-.194 1.63-.08 0-.177 0-.258-.016-.113-.774-.21-1.533-.323-2.308h-.194c.065.662.113 1.308.178 1.937.08.775.097.775-.823.84-.162-1.001-.323-2.002-.468-3.019-.08-.549-.258-1.033-.646-1.453-1.404-1.614-2.792-3.244-4.196-4.874a35 35 0 0 1-.743-.887c1.356-.791 2.663-1.55 4.148-2.421.033.5.065.774.081 1.065.145-.194.307-.21.452 0zm26.825-1.356c-1.34.969-2.792 1.679-4.26 2.405-2.616 1.291-5.198 2.647-7.797 3.938-1.888.936-3.809 1.824-5.713 2.744-1.033.5-2.066 1.017-3.196 1.582-.113-.598-.194-1.13-.29-1.663.258-.242.516-.468.758-.71-.016-.032-.032-.064-.048-.08l-.71.306c-.081-.29-.13-.516-.194-.775.549-.339 1.05-.645 1.55-.968l-.049-.097-1.533.662c-.049-.258-.081-.5-.13-.775 1.017-.532 2.002-1.065 3.003-1.565 4.1-2.05 8.328-3.793 12.54-5.601 2.26-.969 4.423-2.163 6.602-3.244.193 1.033.193 1.065-.727 1.533-1.194.613-2.404 1.178-3.421 2.082a400 400 0 0 1 3.728-1.872c.032.064.065.129.113.194-.871.532-1.76 1.081-2.63 1.614.031.048.064.113.096.161.936-.468 1.872-.92 2.857-1.404.274.758.048 1.13-.517 1.55z"/><path fill="#fff" d="m22.74 5.485 5.714-2.47.048.097-5.713 2.47zM8.213 13.732l-1.985.855s-.032-.08-.048-.113c.678-.242 1.355-.5 2.033-.742M5.324 18.752c.097.306.21.613.307.92-.065 0-.13.032-.178.048l-.096-.968z"/></svg>