<svg xmlns="http://www.w3.org/2000/svg" width="120" height="120" fill="none"><g fill="#fff" clip-path="url(#clip0_78_2456)"><path d="M28.015 27.085c-.516.452-.588.741-.274 1.313.127.23.288.452.47.644.575.597 1.14 1.186 1.746 1.758 1.386 1.303 2.39 2.853 3.07 4.63.427 1.114.45 2.285.514 3.44.087 1.52.167 3.05.454 4.556.56 2.854 1.985 5.148 4.409 6.764a33 33 0 0 0 3.026 1.748c1.47.772 2.995.923 4.565.268.268-.117.535-.235.82-.312 1.24-.33 2.153-1.121 2.875-2.112.863-1.205 1.402-2.564 1.179-4.1a18 18 0 0 0-.407-1.994c-.507-1.795-1.417-3.4-2.445-4.937-.182-.28-.347-.564-.523-.855.47.512.882 1.045 1.226 1.637.854 1.466 1.684 2.947 2.525 4.434 1.061 1.866 2.525 3.16 4.698 3.574.792.153 1.54.174 2.28-.13 1.009-.423 2.035-.805 2.998-1.315.74-.393 1.402-.956 2.073-1.467.182-.144.34-.363.447-.57.637-1.354 1.108-2.743.93-4.28-.235-2.011-.634-3.97-1.298-5.883-.46-1.31-1.023-2.573-1.88-3.676a83 83 0 0 0-2.46-3.06c-.494-.586-1.012-1.203-1.64-1.63a38 38 0 0 0-3.831-2.216c-.73-.36-1.567-.602-2.372-.646a69 69 0 0 0-6.333-.05c-1.589.057-3.154.012-4.715-.264-.265-.042-.53-.084-.792-.109-1.461-.137-2.87-.445-4.222-1.038-.487-.217-1.005-.365-1.519-.497-.748-.198-.978-.026-1.114.807-.78-.686-1.545-1.349-2.294-2.015-.999-.888-1.96-1.81-2.973-2.678-.602-.512-1.314-.832-1.91-1.397-1.077-1.013-2.27-1.897-3.468-2.77-2.852-2.058-5.738-4.065-8.613-6.109-1.923-1.376-4.09-2.224-6.263-3.062a5.5 5.5 0 0 0-1.642-.33c-.904-.05-1.232.54-.798 1.307.031.064.073.135.11.19.89 1.211 1.742 2.457 2.685 3.63.824 1.023 1.765 1.932 2.632 2.91.99 1.102 1.913 2.262 2.923 3.334 1.175 1.267 2.327 2.548 3.623 3.675 2.581 2.246 5.355 4.268 8.35 5.951 1.3.72 2.323 1.727 3.317 2.802-.047.071-.088.133-.142.17zm6.924-5.3c1.326.59 2.713.885 4.144 1.047.578.056 1.152.14 1.73.24 1.173.198 2.358.198 3.56.151 2.186-.076 4.376-.134 6.546-.03.965.047 1.939.436 2.855.802.8.32 1.548.809 2.302 1.244 1.136.656 2.047 1.545 2.83 2.585.61.81 1.269 1.592 1.897 2.398.94 1.201 1.593 2.55 2.076 3.98a26 26 0 0 1 1.183 5.545c.154 1.418-.28 2.685-.871 3.922a1.46 1.46 0 0 1-.417.503c-.797.546-1.484 1.237-2.428 1.585-.789.288-1.557.678-2.348.993-.654.26-1.306.228-1.996.098-2-.388-3.337-1.585-4.302-3.285-.754-1.329-1.485-2.67-2.257-3.995-1.232-2.095-2.863-3.851-4.601-5.531-.928-.886-1.852-1.798-2.857-2.588-.847-.672-1.802-1.224-2.76-1.75-2.232-1.241-4.105-2.849-5.316-5.134-.362-.676-.633-1.425-.856-2.156-.108-.349-.006-.75-.007-1.263.694.235 1.31.39 1.876.643zM6.521 5.34c.993.562 2.005 1.094 2.985 1.677 1.436.867 2.856 1.738 4.259 2.657 1.966 1.288 3.892 2.637 5.878 3.894 1.376.872 2.802 1.645 4.23 2.434.352.201.75.374 1.145.442 1.102.195 1.98.8 2.753 1.54a61 61 0 0 0 4.4 3.804c.158.117.316.323.344.503.339 1.963 1.29 3.596 2.646 5.01.054.05.085.115.144.183-.175.222-.343.434-.531.676-.106-.04-.228-.076-.327-.126-1.655-1.026-3.514-1.204-5.395-1.192-.353.003-.581-.073-.8-.363-1.041-1.384-2.404-2.364-3.891-3.221-2.552-1.467-4.923-3.21-7.145-5.134-1.392-1.204-2.663-2.548-3.917-3.896-1.914-2.059-3.816-4.138-5.633-6.28-1.09-1.284-2.025-2.716-3.059-4.11.49-.323.946-.17 1.359.07.774.449 1.546.925 2.313 1.384 1.519.92 3.034 1.825 4.552 2.747 2.362 1.444 4.716 2.898 7.074 4.325.74.456 1.505.898 2.286 1.292 1.05.542 1.888 1.34 2.77 2.093-.89-.203-1.719-.57-2.524-.995a52 52 0 0 1-5.156-3.142c-2.233-1.55-4.52-3.02-6.82-4.467-1.362-.848-2.794-1.567-4.192-2.336-.14-.077-.314-.103-.467-.16l-.074.113c.277.181.516.397.806.557zm22.557 22.222c1.613-.027 3.187.184 4.7.824 1.522.646 3.022 1.306 4.485 2.089 2.346 1.243 4.37 2.89 6.181 4.794 1.685 1.762 3.14 3.696 4.282 5.863.745 1.41 1.28 2.872 1.497 4.463.202 1.523-.307 2.814-1.23 3.98-.196.252-.435.461-.633.697-.65.79-1.647.883-2.496 1.263-1.495.675-2.933.48-4.325-.3-.992-.563-2.005-1.095-2.937-1.749-2.11-1.47-3.367-3.507-3.866-6.03-.301-1.528-.395-3.082-.48-4.63-.068-1.303-.096-2.624-.635-3.855-.758-1.726-1.725-3.31-3.118-4.603a34 34 0 0 1-1.618-1.572c-.26-.273-.454-.604-.787-1.056.468-.09.726-.17.98-.178M13.818 7.514c1.517 1.125 3.105 2.165 4.655 3.239.755.523 1.516 1.037 2.28 1.567.093.06.165.151.18.307-.236-.154-.485-.288-.727-.432-1.816-1.16-3.625-2.33-5.464-3.476-.693-.44-1.433-.807-2.15-1.232a1089 1089 0 0 1-5.418-3.256c-.113-.074-.236-.154-.342-.238 2.52.8 4.855 1.95 6.98 3.532z"/><path d="M52.72 26.32c-.838-.418-1.724-.808-2.632-1.008-1.055-.222-2.172-.237-3.262-.292-1.27-.072-2.622.785-2.964 2.112-.05.187-.126.371-.186.551-.362 1.022-.188 1.94.448 2.825a12.6 12.6 0 0 0 2.824 2.816c2.169 1.581 3.815 3.581 4.854 6.062.419.991.922 1.92 1.595 2.77a5.35 5.35 0 0 0 2.312 1.72c.586.223 1.192.415 1.846.287 1.282-.258 2.175-1.107 2.808-2.141.871-1.42 1.055-2.997.756-4.641-.316-1.773-.975-3.405-2-5.012-1.498-2.562-3.613-4.65-6.385-6.026zm-.392 12.62c-1.127-2.48-2.808-4.517-5.024-6.115-.977-.698-1.799-1.544-2.543-2.485-.635-.796-.774-1.634-.426-2.59.23-.64.452-1.27.98-1.744.419-.37.865-.604 1.436-.538 1.088.127 2.192.162 3.253.374.775.157 1.518.497 2.237.851 3.628 1.79 6.086 4.674 7.624 8.359.671 1.61 1.021 3.288.601 5.047-.325 1.368-1.108 2.406-2.27 3.153-.445.278-.954.34-1.471.236-1.276-.265-2.27-.96-3.018-2.006-.172-.23-.306-.493-.448-.747a.3.3 0 0 1-.064.031c-.287-.612-.59-1.22-.87-1.843zM40.713 29.372c-1.568-.779-2.938-1.837-4.134-3.118 1.384 1.038 2.75 2.08 4.134 3.117M35.862 23.035c1.466.33 2.926.672 4.392 1.003-.017.047-.016.092-.033.14-1.476-.25-2.942-.581-4.359-1.143M58.953 31.192s.176-.046.2-.015c.56.688 1.159 1.358 1.485 2.201l-1.678-2.197zM38.03 24.103c.694.148 1.398.301 2.086.459l-.036.166c-.694-.147-1.398-.3-2.092-.448zM39.012 27.41c.58.365 1.167.72 1.748 1.085l-.088.133c-.57-.358-1.156-.713-1.726-1.072.026-.041.04-.106.066-.147M60.764 32.494c-.353-.465-.724-.928-1.077-1.393.02-.031.06-.048.084-.062.172.23.333.452.511.671.193.243.391.476.573.712zM57.883 45.563c-.456-.108-.901-.21-1.35-.328l.03-.113 1.356.274zM48.487 36.85l.65 1.084-.07.041-.661-1.091s.047-.028.081-.035"/><path d="m48.876 36.079.605.996s-.047.028-.064.031l-.606-.996s.047-.028.065-.031M51.418 23.885c.281-.006.556-.001.838-.007-.013.065-.016.136-.029.2-.272-.075-.54-.134-.813-.21zM57.513 44.72l.647-.16c.018.04.025.074.042.114-.217.063-.44.136-.657.2zM58.96 31.181l-.423-.628c.04-.017.071-.041.112-.058.1.226.21.46.304.697zM53.243 24.159c.174.07.341.15.494.206-.003.072-.016.092-.013.11l-.538-.207s.047-.072.064-.12zM51.407 23.879c-.21.008-.414.006-.614.022l.019-.163c.204.045.401.102.605.147zM28.3 21.198c-.454-.736-1.22-1.018-1.77-.647-.568.375-.742 1.11-.388 1.663.365.561 1.259.649 1.961.202.422-.265.497-.714.19-1.207zm-1.245.897c-.377.017-.576-.26-.518-.617.068-.395.436-.666.77-.55.364.136.675.354.812.927-.396.092-.725.213-1.064.24M15.912 15.735c.856.838 1.701 1.67 2.615 2.576-.545-.196-2.075-1.68-2.615-2.576M31.238 21.762l-1.7-1.246a1 1 0 0 1 .11-.147c.523.475 1.144.823 1.584 1.403zM18.63 17.529c-.476-.458-.934-.92-1.41-1.377.577.348 1.096.761 1.41 1.377M29.906 21.358l1.324 1.175c-.027.04-.057.064-.094.099-.435-.387-.876-.764-1.31-1.15zM27.29 24.327c.376.32.752.639 1.125.941-.02.031-.04.062-.071.086-.383-.31-.749-.622-1.132-.931l.074-.113zM32.058 26.587c-.337-.089-.667-.188-1.004-.277a.7.7 0 0 0 .04-.15c.34.062.68.124.967.356a.2.2 0 0 0-.02.074z"/><path d="M32.072 26.522c.29.117.596.23.886.346-.034.051-.05.099-.074.157-.286-.144-.556-.291-.842-.435a.2.2 0 0 0 .02-.075zM27.99 24.42l.368.241-.047.072a5 5 0 0 1-.362-.252l.047-.071zM31.226 21.782c.174.114.361.208.542.312-.034.05-.07.085-.114.13-.148-.155-.278-.314-.425-.469l-.007.01zM40.237 36.978c-.251-.063-.557-.088-.774.02-1.478.67-2.522 1.728-2.729 3.407-.127 1.087-.043 2.167.386 3.209.884 2.115 2.104 3.938 4.265 4.93.48.226.998.375 1.485.591 1.363.6 2.615.498 3.844-.394.999-.722 1.545-1.623 1.606-2.855.063-1.393-.371-2.629-1.196-3.783-1.553-2.657-3.892-4.335-6.893-5.115zm-2.662 5.763c-.545-2.274-.16-3.866 1.915-5.024.324-.183.633-.185.983-.117 1.817.4 3.322 1.341 4.579 2.662.962 1.011 1.81 2.108 2.313 3.417.468 1.185.59 2.406-.066 3.587-.666 1.173-2.314 1.835-3.598 1.404a18 18 0 0 1-2.419-.999c-1.155-.581-2.039-1.467-2.724-2.588-.339-.779-.786-1.525-.983-2.342M42.402 36.332c.847.203 1.547.676 2.244 1.133l-.094.143c-.72-.442-1.437-.868-2.157-1.31l-.013.02zM35.458 39.496c-.087-.716-.164-1.425-.252-2.14.061-.005.122-.009.173-.02.054.724.22 1.432.106 2.163l-.02-.014zM42.813 37.245c.738.191 1.322.618 1.813 1.188l-1.823-1.15.027-.041zM43.322 50.792c-.273-.076-.535-.145-.807-.22.017-.049.016-.093.033-.14.269.058.54.134.81.193-.007.055-.03.113-.036.167"/><path d="M35.485 39.499c.05.37.108.729.159 1.098-.044 0-.095.011-.14.012a1.86 1.86 0 0 1-.04-1.124zM37.185 31.027c-.26-.14-.522-.298-.782-.439l.068-.102.808.441-.074.113zM42.91 49.835c.285.055.588.107.873.162-.338.115-.637.08-.877-.18l-.007.01zM42.13 37.017l-.793-.198s.03-.112.053-.17c.252.107.504.213.75.33zM48.844 44.707c-.053-.21-.088-.424-.141-.634l.102-.022c.052.21.115.427.175.627z"/><path d="M42.914 49.807c-.204-.046-.402-.102-.606-.148.027-.04.034-.095.057-.153.174.114.361.208.542.312zM42.807 37.3c-.231-.094-.446-.19-.678-.283l.01-.038c.232.093.447.19.678.283l-.017.048zM36.06 38.485c.035.17.064.35.1.52l-.102.02c-.046-.176-.085-.362-.13-.538zM42.416 36.311l-.582-.117c.027-.041.033-.095.05-.143.177.087.347.184.525.27l.013-.02zM23.42 48.813c.024-.36.036-.708.06-1.068.048 0 .108 0 .156.012-.036.348-.084.708-.12 1.056zM23.96 47.877v.48h-.047v-.48zM26.432 49.461c.324-.108.648-.204.972-.312.012.036.024.084.036.12-.324.12-.636.228-.96.348-.012-.048-.036-.096-.048-.144zM25.857 47.433c-.06.324-.133.66-.192.984-.049 0-.096-.024-.145-.024.073-.324.133-.66.204-.984.049 0 .096.012.145.024zM26.828 49.965h-.648v-.06h.648zM26.06 48.07c.037-.169.06-.337.097-.505h.096c0 .168-.024.336-.036.516-.048 0-.108 0-.156-.012M13.111 82.605c-3.02 2.238-3.893 5.44-3.911 8.97 0 2.638 1.146 4.895 2.638 6.969 1.383 1.928 3.257 3.384 5.076 4.84 2.584 2.092 5.513 3.566 8.788 4.257 1.838.382 3.657.473 5.204-.928.6-.545 1.383-.691 2.22-.655.855.019 1.728-.072 2.584-.236 1-.2 1.946-.619 2.565-1.492.837-1.183 1.528-2.438 1.983-3.821.746-2.256.946-4.585 1.201-6.914.328-3.02.419-6.04-.127-9.061-.528-2.912-1.747-5.404-4.312-7.096-1.838-1.22-3.858-1.965-5.987-2.384-3.493-.691-6.532.528-9.352 2.475-.51.345-.982.728-1.455 1.128s-.928.855-1.292 1.182c-1.11-1.273-2.238-2.583-3.384-3.893.29-1.328.29-1.292 1.582-1.529.874-.163 1.784-.382 2.566-.782a10.48 10.48 0 0 0 4.276-4.167c.964-1.692 1.801-3.457 2.292-5.349.546-2.092 1.547-3.876 3.366-5.15.128-.09.219-.254.4-.454-.581-.346-1.11-.164-1.637-.11-1.474.164-2.947.31-4.403.51-1.637.219-3.312.382-4.913.783-3.693.928-6.131 4.476-5.713 8.224.146 1.273.491 2.547.783 3.803.218.946.527 1.874.746 2.82.072.309 0 .636 0 1.164-1.092-.873-1.984-1.601-2.912-2.274a11 11 0 0 0-1.856-1.074c-.727-.327-1.346.037-1.692.892-.4.982-.273 1.565.546 1.892 2.238.874 4.203 2.22 6.168 3.548.91.619 1.583 1.456 2.093 2.566-2.475.345-2.984.546-4.13 1.4zm6.441-.782c-.109-.328-.218-.673-.327-1.02 1.565-1.255 3.002-2.62 4.785-3.53 2.584-1.31 5.222-1.819 8.042-.89 1.201.382 2.384.8 3.512 1.4 2.657 1.42 4.057 3.694 4.676 6.55.546 2.603.6 5.222.346 7.86-.164 1.693-.328 3.385-.582 5.059-.328 2.074-.965 4.057-2.111 5.859-.691 1.091-1.638 1.601-2.82 1.783a7.7 7.7 0 0 1-1.947.109c-1.037-.091-1.983.109-2.73.782-1.419 1.274-3.038 1.165-4.694.783-3.275-.746-6.131-2.311-8.697-4.422-1.037-.855-2.056-1.71-3.002-2.656-2.02-2.056-3.584-4.421-3.766-7.35-.219-3.549.655-6.733 3.73-8.97.91-.674 1.965-.856 3.02-1.129.2-.055.455.146.71.2.6.146 1.182.346 1.783.364 1.11.036 1.674-.455 2.147-1.838-.71.583-1.165 1.22-2.038 1.074zM16.878 64.9c-.11 1.22-.128 2.457-.128 3.676 0 .728-.363 1.273-.527 1.928h-.237c-.218-.8-.436-1.619-.728-2.638-.072.4-.181.637-.145.837.073.6.09 1.256.346 1.783.473.965.4 1.856-.11 2.911-.473-1.71-.873-3.33-1.164-4.967-.51-2.838.564-5.003 2.675-6.768 1.037-.874 2.02-1.256 3.748-1.51-.073.254-.128.473-.182.69-.255.892-.655 1.784-.746 2.712-.146 1.692-1.274 2.747-2.275 4.167-.181-1.893-.036-3.548.11-5.24-.51.745-.564 1.619-.637 2.456zm3.275.655c1.565-1.82 3.22-3.402 5.404-4.44-.491.128-1 .237-1.638.401l.655-1.546c-.054-.037-.127-.073-.182-.11-.309.492-.6 1.001-.91 1.492-.127.219-.2.492-.381.637-.965.746-1.966 1.456-3.094 2.275.31-1.401.583-2.639.892-3.894.054-.2.291-.437.491-.473 1.983-.346 3.967-.655 6.205-.4-1.51 1.783-2.038 3.82-2.602 5.877-1.91.618-3.22.654-4.876.163zm-.473.419c1.728.546 3.384.564 5.022-.182-.237 1.11-1.129 2.856-1.984 3.912a446 446 0 0 1-4.949-.91c.728-1.073 1.31-1.947 1.91-2.838zm2.71 4.076c-.418 1.528-4.148 4.093-6.204 3.766.328-1.11.637-2.202.983-3.293.11-.383.273-.728.437-1.147 1.673.237 3.238.455 4.785.674m-12.208 2.838c.382.218.764.4 1.074.637 1.2.91 2.383 1.856 3.584 2.784 1.692 1.328 3.075 2.929 4.021 4.876.091.182.146.4.218.6-.345.2-.582.11-.764-.182a.7.7 0 0 1-.09-.2c-1.274-3.275-4.15-4.73-7.024-6.186-.51-.255-1.055-.455-1.674-.71.218-.564.4-1.037.637-1.619zm-.928.182s.146.073.218.09c-.127.328-.254.656-.4.983l-.273-.163c.146-.291.31-.6.455-.892z"/><path d="M17.404 99.927c-1.82-1.638-3.62-3.275-4.512-5.659.436.637.855 1.31 1.328 1.91.527.674 1.11 1.31 1.674 1.966.51.582 1.11 1.11 1.51 1.764zM36.438 102.292c.618-1.983.764-4.039.837-6.095.145 2.092.163 4.167-.837 6.095M30.27 97.87c.71 1.693 1.182 3.439 1.346 5.259-.073 0-.146.036-.218.055-.364-1.765-.746-3.53-1.11-5.313zM13.567 85.225c-.29 1.51-.564 2.948-.819 4.33-.382-.873.073-3.42.82-4.33M28.16 78.493c-1.693-.109-3.312.637-5.04.31 1.673-.2 3.365-.4 5.04-.583zM18.152 98.69c-.965-.928-1.929-1.875-2.893-2.803.054-.072.127-.127.182-.2l2.893 2.82zM34.344 103.129c.2-1.383.382-2.748.582-4.13h.145c-.145 1.382-.309 2.765-.454 4.148-.091 0-.182-.018-.273-.036zM19.026 83.66v4.294h-.219c-.054-1.455-.163-2.929.219-4.275zM16.952 86.845c-.11-1.292.109-2.511.728-3.64-.237 1.22-.492 2.42-.728 3.64M39.202 91.63v-3.257h.091v3.257zM14.13 89.046c-.218-.964-.145-1.892.328-2.784zM35.273 82.387c.673.691 1.255 1.437 1.474 2.42h.018c-.528-.8-1.037-1.583-1.565-2.366l.055-.054zM32.252 102.583v-2.093h.09c.055.71.11 1.401.164 2.111h-.273zM25.284 103.475c.492.273.983.528 1.492.8 0 .037-.036.073-.054.11-.255-.11-.51-.182-.746-.31-.291-.145-.546-.309-.837-.473l.127-.127zM16.86 83.442c-.182.51-.364 1.037-.546 1.547-.054 0-.109-.037-.164-.055.164-.528.31-1.073.474-1.601z"/><path d="M36.747 84.789c.455.382.473.946.691 1.419-.072.018-.145.055-.2.073-.145-.51-.309-1.001-.455-1.51l-.018.018zM20.008 84.843c.018.455.054.892.073 1.347h-.164l-.11-1.347a.8.8 0 0 0 .2-.018zM24.756 81.968c-.364-.164-.727-.328-1.11-.491.019-.055.055-.11.073-.164l1.128.491s-.072.11-.09.182zM35.2 82.442l-.71-.764q.628.108.764.71zM18.298 100.655c.254.2.527.418.782.618a1 1 0 0 1-.11.146c-.254-.2-.527-.401-.781-.601zM24.611 104.748l-1-.491s.054-.128.072-.182c.328.163.673.327 1 .473l-.09.182zM23.537 82.823c-.273-.145-.546-.31-.837-.455.055-.072.11-.127.164-.2.218.219.437.455.655.673h.018zM38.529 90.356v-.71h.09c0 .237.037.474.037.692h-.145zM19.407 99.69l-.546-.437c.018-.036.055-.09.073-.127.182.127.364.273.546.4.018 0 .036.055.036.073 0 .036-.054.036-.109.091M25.502 104.93c.218.109.436.219.673.31 0 .036-.036.091-.055.127a21 21 0 0 1-.727-.291l.109-.164zM23.52 82.86c.09.018.218 0 .29.073.183.109.328.254.456.436-.328-.036-.6-.182-.728-.527zM16.204 63.555l-.273 2.693h-.182c.055-.892.127-1.783.182-2.657h.273zM15.495 63.828c-.091.8-.164 1.62-.255 2.42h-.164l.164-2.42h.255M23.137 67.995c-.946.29-1.638.436-2.366 0zM21.226 67.485h.564v.091c-.182 0-.383.018-.564.037v-.128M19.498 71.524c-.51.073-1.037.146-1.547.237 0-.073-.018-.128-.036-.2.528-.091 1.055-.164 1.583-.255v.236zM17.315 72.252h1.674c-.527.218-1.073.2-1.674 0M14.95 32.326c-.68-1.193-1.382-2.374-2.055-3.576-.705-1.253-1.38-2.528-2.079-3.791-.406-.745-.998-1.261-1.826-1.5-.304-.087-.593-.232-.901-.294-.808-.153-1.485-.576-2.006-1.166-.715-.807-1.35-1.682-1.991-2.548-.22-.293-.397-.624-.785-.675-.266-.043-.357-.225-.488-.409-.78-1.097-.483-1.115-1.988-1.096-.073.002-.139-.005-.195-.005-.688.009-.793.129-.512.738.462 1.029.93 2.033 1.246 3.123.244.865.56 1.712.903 2.539.53 1.279.42 2.502-.228 3.705-.07.132-.159.307-.139.45.059.526.11 1.062.265 1.576.147.465.396.908.643 1.335 1.081 1.85 2.176 3.68 3.258 5.53 1.135 1.947 2.248 3.905 3.368 5.854 1.487 2.594 2.967 5.197 4.47 7.79a303 303 0 0 0 2.45 4.127c.438.74 1.044 1.182 1.932 1.04a2.8 2.8 0 0 0 .892-.281 101 101 0 0 0 3.397-1.95c.5-.306.97-.648 1.438-1.006.418-.311.607-.978.403-1.444-.39-.86-.78-1.722-1.215-2.56-.627-1.224-1.291-2.42-1.935-3.641-.356-.68-.69-1.37-1.052-2.04-.668-1.227-1.36-2.442-2.02-3.662-1.108-2.04-2.2-4.082-3.302-6.131.014-.018.03-.02.053-.032M4.314 27.868c.381.003.634-.163.863-.317 1.177-.791 2.354-1.582 3.512-2.387.296-.204.57-.438.866-.642.332-.234.42-.238.633.12.36.598.699 1.207 1.036 1.816.44.813.841 1.64 1.288 2.444 1.584 2.88 3.191 5.75 4.76 8.632.755 1.377 1.466 2.792 2.191 4.19.878 1.667 1.77 3.332 2.634 5.017.657 1.26 1.283 2.526 1.917 3.798.236.461.183.72-.241.983-1.55.966-3.101 1.916-4.671 2.852-.427.247-.897.42-1.42.282-.276-.066-.487-.182-.637-.436-.662-1.122-1.353-2.224-2.018-3.362a355 355 0 0 1-2.593-4.505c-.963-1.704-1.904-3.419-2.883-5.12-1.245-2.143-2.512-4.273-3.77-6.397-1.034-1.743-2.051-3.488-3.078-5.24-.055-.097-.093-.197-.154-.342l.681-.397s-.016-.054-.03-.093c-.265.07-.522.147-.794.226-.025-.06-.041-.115-.073-.168.439-.224.861-.446 1.3-.67q-.02-.062-.048-.107-.556.178-1.147.373c-.15-.31-.117-.6.035-.897.655-1.268.756-2.555.192-3.902-.464-1.102-.874-2.22-1.311-3.357.393-.372.663-.922 1.329-.975.109.138.22.293.42.556a19 19 0 0 1-.139-.629c.202.28.343.47.567.795l-.296-.776c.367.02.408.306.517.502.587.995 1.253 1.922 2.075 2.738.603.595 1.282 1.034 2.16 1.169.506.082.994.264 1.668.444-1.842 1.3-3.567 2.517-5.366 3.778zm-2.386-9.617c.138.345.233.558.353.833-.243.23-.489.442-.804.73C1.124 19.11.8 18.484.474 17.84c1.476-.339 1.68-.1 2.031 1.058-.163-.18-.32-.368-.572-.657z"/><path d="M9.668 25.147c-1.282.968-2.572 1.93-3.854 2.898l-.1-.132c1.273-.975 2.554-1.944 3.827-2.919.047.05.086.093.127.152M3.666 30.052c.69.745 1.045 1.708 1.519 2.59q-.825-1.26-1.637-2.509zM20.273 53.437c.995-.643 1.975-1.285 3.058-1.99-.63.705-1.772 1.451-3.058 1.99M22.992 49.914c-.521-.931-1.102-1.822-1.344-2.898.483.945.982 1.888 1.465 2.833-.04.013-.075.043-.114.056zM3.415 24.51c.362 1.01.23 1.905-.398 2.74.15-.484.342-.908.41-1.34.06-.437.003-.892-.003-1.393zM12.838 46.004l-1.571-2.501c.03-.02.075-.043.104-.064.515.827 1.039 1.661 1.56 2.479-.027.036-.066.05-.093.086M10.819 26.864l1.614 2.803s-.046.023-.052.032l-1.614-2.803s.045-.023.052-.032M18.193 54.089c-.688-.219-1.212-.655-1.59-1.323.505.423 1.03.86 1.59 1.323M12.938 45.34l-1.13-1.955s.037-.03.06-.041l1.117 1.933-.04.055zM5.567 22.817c-.413-.509-.82-1.027-1.232-1.536.02-.027.06-.04.08-.068.42.5.839 1 1.252 1.51-.028.035-.073.058-.1.094M10.443 27.533l1.086 1.881-.068.034-1.065-1.851zM2.57 22.44q-.268-.628-.552-1.267c.038-.014.068-.034.106-.048l.612 1.227a1 1 0 0 1-.165.088M5.169 31.55l-.873-1.522.068-.034.873 1.522zM19.127 42.152l.58 1.004s-.03.02-.052.032l-.583-1.02s.039-.013.055-.016M71.283 17.198c1.162-.035 2.325-.09 3.49-.116 1.218-.029 2.44-.028 3.662-.048.718-.007 1.339-.244 1.847-.769.186-.193.41-.35.578-.557a3 3 0 0 1 1.67-1.036c.887-.214 1.793-.34 2.695-.477.307-.048.625-.048.817-.318.138-.182.31-.177.5-.202 1.13-.148 1.026.082 1.61-1.051.027-.055.058-.102.08-.144.268-.518.22-.644-.347-.676-.953-.063-1.89-.113-2.83-.31a19 19 0 0 0-2.258-.333c-1.167-.112-2.038-.68-2.68-1.643-.07-.105-.166-.241-.281-.283-.417-.165-.838-.34-1.283-.429-.407-.075-.837-.064-1.255-.05-1.812.074-3.617.165-5.429.239-1.907.075-3.814.13-5.716.192-2.53.08-5.066.153-7.601.246-1.356.051-2.704.12-4.06.192-.728.033-1.299.31-1.545 1.03a2.3 2.3 0 0 0-.145.78c.019 1.106.046 2.207.108 3.314.03.495.1.983.181 1.475.066.437.49.843.92.876.798.05 1.596.101 2.396.109 1.165.017 2.323-.005 3.492 0 .65.004 1.298.03 1.943.024 1.183-.012 2.367-.046 3.541-.054 1.966-.018 3.927-.023 5.897-.033.008.018.003.03.003.052m7.56-6.182c-.153.284-.13.538-.105.771.124 1.194.248 2.389.39 3.575.034.302.1.6.135.903.043.34.01.408-.342.425-.59.032-1.18.043-1.77.053-.782.006-1.56-.023-2.338-.009-2.784.04-5.568.102-8.347.129-1.329.017-2.67-.013-4.003-.026-1.595-.007-3.195-.001-4.799-.026-1.203-.01-2.398-.044-3.601-.075-.439-.008-.611-.15-.64-.572-.106-1.542-.2-3.08-.275-4.626-.015-.417.043-.837.352-1.173.16-.18.33-.293.58-.303 1.102-.05 2.201-.128 3.316-.173 1.468-.06 2.932-.109 4.4-.148 1.656-.043 3.312-.065 4.974-.121 2.096-.08 4.193-.18 6.281-.276 1.714-.08 3.423-.148 5.14-.22.095-.002.185.009.319.021l.025.667s.047.01.082.015c.053-.226.097-.449.146-.684.056.006.103.015.155.013-.007.416-.009.82-.015 1.238a.4.4 0 0 0 .099.006c.06-.325.116-.659.176-1.006.292.012.495.15.657.383.688.994 1.61 1.581 2.842 1.695 1.008.09 2.006.228 3.031.353.122.442.425.863.2 1.382-.146.026-.306.048-.582.092.218.057.316.086.525.147-.29.04-.488.07-.82.108l.699.087c-.162.266-.392.183-.581.187-.978.043-1.936.173-2.872.463-.685.215-1.283.547-1.733 1.15-.262.347-.593.64-.995 1.072-.24-1.894-.464-3.668-.692-5.514zm8.14 2.038c-.312-.034-.51-.048-.763-.067-.075-.273-.137-.541-.227-.892.667.017 1.264.024 1.875.036-.333 1.238-.593 1.296-1.598 1.098.199-.05.402-.093.718-.166z"/><path d="M78.75 16.1c-.214-1.342-.42-2.69-.635-4.032l.138-.023c.224 1.34.438 2.682.662 4.021a1 1 0 0 1-.165.035M77.468 9.664c-.831.22-1.693.102-2.54.106.845-.077 1.69-.154 2.526-.227zM53.383 12.787c.085 1 .176 1.987.273 3.077-.278-.75-.381-1.902-.273-3.077M54.936 16.22c.903-.019 1.8-.099 2.7.148-.898-.015-1.8-.016-2.7-.031.006-.034-.002-.073.004-.108zM81.712 11.679c-.9-.131-1.516-.586-1.89-1.387.3.305.542.617.837.84.304.218.666.356 1.044.55zM61.895 10.182l2.495-.18c.003.03.002.072.006.102-.823.057-1.655.117-2.473.182-.017-.035-.012-.07-.028-.104M77.01 16.28l-2.738.092s.001-.043-.003-.052l2.738-.092s-.001.043.003.051M53.722 10.972c.436-.427.97-.646 1.62-.663-.516.21-1.051.429-1.62.663M62.352 10.52l1.91-.067s.008.04.008.06l-1.89.068-.024-.052zM82.122 13.96c.545-.106 1.094-.204 1.638-.31.012.026.007.06.02.086q-.81.175-1.626.337c-.016-.035-.015-.078-.032-.113M76.657 15.732l-1.838.065.002-.065 1.808-.06zM83.595 11.87c.386.031.772.063 1.167.09-.005.034-.002.065-.007.099l-1.16-.03c-.003-.052-.006-.103 0-.16M75.75 10.192l1.485-.048-.001.065-1.485.047zM62.276 16.415l-.982.034s-.003-.03-.003-.051l.995-.03s-.006.034-.01.047M115.697 106.515c-.704.328-1.408.656-2.112.976-1.376.624-2.752 1.224-4.12 1.864-1.48.688-2.944 1.416-4.416 2.128-.144.072-.28.16-.432.2-.08.024-.176-.04-.28-.12.976-.744 2.088-1.2 3.104-1.816-1.12.424-2.144 1.024-3.224 1.624-.376-.432-.728-.88-1.12-1.288-.384-.4-.672-.872-1.072-1.248.68-.664 9.44-5.04 10.864-5.416.544.648 1.096 1.304 1.672 1.992-.104.104-.192.2-.36.368l.496-.216c-.176.4-.592.496-.848.792.36-.192.712-.376 1.016-.536.352.216.664.4.968.584-.136-.208-.248-.448-.416-.632-.752-.808-1.536-1.6-2.288-2.408-.192-.208-.368-.256-.624-.144-.784.344-1.584.656-2.352 1.024a109 109 0 0 0-3.744 1.88c-1.88.992-3.736 2.016-5.6 3.048-.448.248-.872.56-1.264.816.056.512.096.952.144 1.392.064.56.208 1.08.64 1.488.168.16.288.376.448.552.472.528.944 1.072 1.44 1.576.336.352.752.44 1.208.2.296-.152.592-.304.88-.464.68-.368 1.352-.768 2.048-1.112 1.112-.544 2.248-1.04 3.36-1.584a176 176 0 0 0 4.256-2.136c.592-.304 1.144-.68 1.704-1.032.208-.128.368-.304.376-.568.008-.304-.016-.6.016-.904.032-.312-.08-.6-.072-.904 0-.048-.064-.096-.096-.144-.016.016-.04.032-.056.048-.048.04-.088.088-.144.112zm-15.12 4.84c.312.192.088.576.304.824.016-.128.032-.24.056-.448.344.52.144 1.08.432 1.584a83 83 0 0 0-.112-1.032c.368.104.208.44.36.656.024-.064.04-.112.072-.216.264.288.568.504.624.912.056.432.128.872.128 1.344-.128-.16-.248-.336-.384-.488-.608-.696-1.208-1.384-1.824-2.064-.144-.16-.232-.312-.248-.536-.024-.44-.088-.88-.096-1.328.352.376.16.904.384 1.328-.008-.288-.024-.576-.032-.864a.5.5 0 0 0 .104-.016l.144.872h-.016c.032-.168.064-.336.096-.52zm1.552-1.984c.088.112.048.216-.072.272-.2.104-.4.184-.6.288a.6.6 0 0 0-.256.24l1.112-.568c.552.656 1.08 1.28 1.624 1.928-.168.144-.296.248-.424.352.232.088.44-.384.696.04-.512.408-1.168.592-1.648 1.056.704-.048 1.208-.576 1.872-.808.016.096.072.192.048.264-.048.144-.008.256.04.392.04.12-.016.28-.04.472.032.072.128.2.168.344.048.168.048.344.072.552-.32.192-.64.376-1 .592-.048-.272-.088-.472-.136-.712-.168.272.136.6-.096.808-.04 0-.088 0-.128-.008-.056-.384-.104-.76-.16-1.144h-.096c.032.328.056.648.088.96.04.384.048.384-.408.416-.08-.496-.16-.992-.232-1.496-.04-.272-.128-.512-.32-.72-.696-.8-1.384-1.608-2.08-2.416a17 17 0 0 1-.368-.44c.672-.392 1.32-.768 2.056-1.2.016.248.032.384.04.528.072-.096.152-.104.224 0zm13.296-.672c-.664.48-1.384.832-2.112 1.192-1.296.64-2.576 1.312-3.864 1.952-.936.464-1.888.904-2.832 1.36-.512.248-1.024.504-1.584.784-.056-.296-.096-.56-.144-.824.128-.12.256-.232.376-.352a.2.2 0 0 0-.024-.04l-.352.152c-.04-.144-.064-.256-.096-.384.272-.168.52-.32.768-.48l-.024-.048-.76.328c-.024-.128-.04-.248-.064-.384.504-.264.992-.528 1.488-.776 2.032-1.016 4.128-1.88 6.216-2.776 1.12-.48 2.192-1.072 3.272-1.608.096.512.096.528-.36.76-.592.304-1.192.584-1.696 1.032.616-.312 1.232-.624 1.848-.928a.6.6 0 0 0 .056.096l-1.304.8c.016.024.032.056.048.08.464-.232.928-.456 1.416-.696.136.376.024.56-.256.768z"/><path d="m109.104 105.291 2.832-1.224.024.048-2.832 1.224zM101.904 109.379l-.984.424s-.016-.04-.024-.056c.336-.12.672-.248 1.008-.368M100.473 111.867c.048.152.104.304.152.456-.032 0-.064.016-.088.024l-.048-.48zM104.768 46.552c.86-1.075 1.72-2.138 2.557-3.225 1.123-1.458 1.995-3.058 2.448-4.85.156-.633.311-1.278.311-1.923 0-1.195-.107-2.39-.179-3.572-.12-1.935-.896-3.655-1.84-5.316-.203-.358-.394-.705-.621-1.051-.526-.836-1.015-1.708-1.613-2.497-.585-.764-1.242-1.481-2.102-1.97-.705-.395-1.362-.897-2.078-1.267a24 24 0 0 0-2.401-1.075c-1.016-.394-2.115-.418-3.178-.585-2.162-.323-4.264-.096-6.343.501-.573.168-1.099.49-1.66.74-1.446.646-2.796 1.446-3.978 2.497-.657.586-1.255 1.219-1.888 1.828-.19.18-.442.323-.573.538-.43.716-.836 1.445-1.195 2.198-.25.525-.501 1.075-.597 1.636-.334 2.019-.669 4.038-.68 6.08 0 1.076.166 2.103.453 3.13.514 1.828 1.47 3.44 2.52 4.981 1.255 1.852 2.82 3.381 4.827 4.444 2.914 1.541 5.996 2.306 9.305 2.067 1.147-.084 2.294-.12 3.44-.167.156.274.287.501.407.74 1.182 2.46 2.341 4.922 3.535 7.37.813 1.66 1.577 3.345 2.521 4.922 1.409 2.341 2.568 4.802 3.703 7.287.788 1.72 1.529 3.452 2.282 5.184.191.442.525.669.991.705.227.012.454.024.669 0 2.007-.287 3.655-1.219 4.91-2.82.358-.453.394-1.003.155-1.54-.514-1.183-1.171-2.27-1.852-3.357-1.194-1.911-2.413-3.799-3.607-5.71-1.051-1.684-2.103-3.369-3.094-5.077-1.123-1.923-2.186-3.882-3.297-5.817-.872-1.517-1.768-3.022-2.664-4.551.132-.18.251-.347.382-.502zm4.91-9.628c0 .131-.024.275-.072.394-.251.657-.549 1.29-.752 1.947-.502 1.613-1.422 3.01-2.306 4.42-.621.991-1.397 1.875-2.114 2.795a.9.9 0 0 1-.323.24c-1.254.692-2.508 1.397-3.774 2.078-.263.143-.586.179-.884.238-.215.048-.454.024-.67.084-1.385.406-2.807.335-4.228.323-3.512-.06-6.594-1.302-9.39-3.345-.99-.729-1.755-1.684-2.448-2.688-1.17-1.66-2.21-3.392-2.736-5.387a10.3 10.3 0 0 1-.334-3.07c.096-2.545.74-4.993 1.577-7.359a9.55 9.55 0 0 1 3.034-4.3c1.218-.98 2.508-1.816 3.93-2.449.61-.275 1.206-.609 1.852-.788 1.72-.49 3.488-.717 5.28-.502 1.242.143 2.52.143 3.715.61.668.262 1.373.477 1.994.823.968.538 1.947 1.076 2.784 1.78 1.29 1.087 2.448 2.318 3.225 3.859.131.263.263.525.418.764.824 1.195 1.326 2.557 1.84 3.895.119.31.155.656.227.991.203 1.553.179 3.106.131 4.659zM102.26 52.81s.059-.024.095-.036c-.095-.227-.179-.465-.286-.692l-1.147-2.366c-.108-.239-.251-.49.167-.728.43.872.836 1.732 1.254 2.592.036-.012.072-.036.108-.048-.394-.884-.789-1.768-1.207-2.712.156-.107.311-.286.478-.31.681-.108 1.386-.167 2.067-.227.298-.024.513.131.681.358.262.37.525.729.788 1.1a35 35 0 0 1 2.413 3.894c1.362 2.544 2.795 5.04 4.348 7.465 1.171 1.816 2.27 3.68 3.405 5.52.203.322.382.668.621.967.824 1.087 1.433 2.293 1.959 3.536.084.203.179.418.299.609.238.406.179.776-.096 1.123-1.159 1.469-2.712 2.257-4.539 2.532-.801.12-.92.06-1.255-.68-.752-1.709-1.433-3.453-2.198-5.15-1.099-2.424-2.198-4.825-3.595-7.107-.741-1.206-1.326-2.508-1.959-3.775-1.195-2.377-2.389-4.742-3.572-7.131-.263-.538-.525-1.087-.334-1.732.501 1.003 1.003 1.995 1.505 2.998"/><path d="M93.516 36.482c.06-.323.095-.657.19-.98 1.291-4.336 2.486-8.708 3.43-13.14.059-.263.107-.525.166-.86-1.039-.322-2.006-.68-3.105-.55-1.816.216-3.512.825-5.137 1.59-.932.43-1.768 1.063-2.616 1.648-.597.406-1.195.836-1.696 1.338-1.302 1.302-2.103 2.89-2.724 4.61-.74 2.02-.693 4.062-.322 6.129.49 2.771 1.648 5.232 3.607 7.274.657.693 1.41 1.267 2.222 1.745.108-.06.191-.12.287-.18-.132.24 0 .383.19.49.3.143.61.287.92.43 2.139.98 4.397 1.242 6.726 1.075a22.7 22.7 0 0 0 4.002-.633c1.003-.25 1.863-.764 2.699-1.35a1.7 1.7 0 0 1 .55-.275c-.048.084-.084.18-.143.263-.753.884-1.685 1.47-2.796 1.792-1.851.526-3.75.8-5.674.765-4.79-.072-8.577-2.02-11.133-6.128-1.493-2.401-2.282-5.03-2.222-7.884 0-.132-.012-.275-.024-.407-.024-.98.024-1.935.418-2.854.263-.598.406-1.243.681-1.84.777-1.672 1.756-3.19 3.297-4.288a202 202 0 0 0 1.971-1.422c1.04-.753 2.246-1.135 3.405-1.625 1.517-.633 3.13-.896 4.742-.967 1.72-.072 3.333.382 4.742 1.47.753.573 1.589 1.026 2.342 1.588 1.827 1.374 3.273 3.07 4.216 5.184.466 1.051.932 2.103 1.147 3.237.191 1.064.335 2.139.418 3.214.084.991-.334 1.899-.645 2.807-.251.74-.597 1.445-.884 2.186-.466 1.218-1.242 2.246-2.03 3.261a2.3 2.3 0 0 1-1.267.848c.084-.107.144-.239.239-.334.992-.884 1.649-1.995 2.246-3.178.645-1.266 1.206-2.568 1.601-3.918.167-.55.334-1.147.298-1.708-.095-1.53-.274-3.058-.788-4.515-.812-2.306-2.019-4.373-3.906-5.973-.478-.406-.98-.825-1.541-1.087-1.302-.621-2.64-1.135-3.978-1.697-.036-.011-.084 0-.167 0-.036.132-.084.275-.12.43-.92 4.779-2.317 9.45-3.69 14.108-.025.096-.108.18-.168.275z"/><path d="M92.632 23.461c-.024.215-.012.442-.072.657-.657 2.52-1.278 5.053-1.982 7.562-1.076 3.87-2.127 7.752-2.664 11.742-.024.155.024.382-.24.418.252-1.457.455-2.927.741-4.372.681-3.44 1.673-6.809 2.628-10.19.49-1.731.896-3.487 1.35-5.22.048-.203.156-.394.227-.597h-.012zM100.564 23.831c-.693-.346-1.338-.68-1.983-1.003.011-.024.023-.048.035-.084.705.263 1.506.395 2.103.825 1.541 1.11 2.903 2.437 3.966 4.037-1.302-1.206-2.342-2.7-3.954-3.631-.836 2.998-1.66 5.949-2.473 8.911a1 1 0 0 1-.167-.048c.824-2.986 1.636-5.96 2.473-9.007M103.025 35.765l-3.011 10.38c-.095-.632 2.545-9.675 3.011-10.38M85.226 30.64c0 .203 0 .395-.036.598-.418 2.556-.824 5.1-1.254 7.657-.107.68-.239 1.338.346 1.887-.071-.083-.143-.155-.215-.239-.071-.083-.143-.167-.238-.263a13 13 0 0 0-.251.454c-.084-.908.179-1.696.275-2.496.095-.848.238-1.697.37-2.533.131-.824.275-1.636.418-2.46.12-.681.25-1.374.382-2.055.036-.191.132-.359.203-.538h-.012z"/><path d="M99.632 35.287c0-.107-.036-.227 0-.322.669-2.676 1.35-5.364 2.031-8.04.083-.346.227-.68.418-1.003-.036.155-.06.31-.108.466-.68 2.675-1.361 5.363-2.042 8.039-.072.299-.203.573-.299.86M93.504 36.482c-.012.18-.012.358-.06.526-.49 2.054-.98 4.109-1.481 6.151-.012.072-.048.144-.155.203.023-.19.023-.394.071-.573.49-2.007.968-4.014 1.47-6.02.023-.096.107-.18.167-.275zM106.776 34.415c.287-1.636-.215-3.153-.645-4.67.657.86.991 3.153.645 4.67M86.54 24.883c1.038-1.147 2.46-1.649 3.834-2.234-1.243.8-2.724 1.182-3.835 2.234M98.079 33.364l-.968 3.38-.143-.035c.322-1.135.645-2.258.967-3.393.048.012.096.036.156.048zM99.059 37.58c.19-.764.382-1.528.573-2.28-.072.788-.203 1.564-.573 2.28M82.885 38.429c-.347-.597-.454-1.266-.466-1.959.155.657.299 1.326.454 1.983l.012-.012zM103.992 45.99c.382-.394.753-.8 1.171-1.23-.203.538-.585.956-1.171 1.23M87.698 43.84c.072.251.156.49.227.741l-.024.036a8 8 0 0 0-.095.513c-.108-.418-.227-.824-.67-1.05.168.07.335.143.55.226 0-.167.024-.31.024-.466zM106.776 37.676c-.143.49-.298.968-.442 1.458-.036 0-.083-.024-.119-.036.143-.49.287-.98.442-1.47.048.013.083.036.131.048zM98.175 46.074c-.298.072-.597.143-.907.203.06-.287.06-.275.262-.25.204.023.418 0 .633 0v.047zM103.599 33.95c-.108.358-.227.704-.335 1.062l-.131-.035c.119-.347.239-.693.37-1.04 0 0 .06 0 .096.012M96.873 37.569c-.084.334-.18.669-.263.991l-.12-.024c.084-.334.168-.68.251-1.015.048.012.096.036.132.048M94.4 48.511c.37 0 .752.024 1.122.024-.37.072-.752.215-1.11-.048zM95.188 48.977c-.322 0-.645 0-.967-.012v-.108c.322 0 .645.012.967.024v.108zM100.934 48.021c.263-.19.525-.382.8-.585l.072.096c-.251.19-.502.394-.765.585-.036-.036-.071-.072-.119-.108zM95.606 41.93c.131-.3.25-.598.382-.897h-.024c-.048.251-.084.502-.143.74-.024.072-.144.108-.227.168zM107.517 41.08c.095-.238.191-.477.346-.847.06.442-.131.645-.346.848M96.215 40.018l-.251 1.003s.024 0 .024.012c-.084-.37-.048-.717.239-1.003h-.012zM82.167 32.086l-.072.67h-.083c.024-.24.036-.467.06-.706.035.012.06.024.095.036M98.413 40.28c.06-.334-.048-.716.322-.943l-.024-.012c-.107.31-.215.633-.322.943h.012zM98.809 38.572c.083-.334.167-.669.25-.991h-.011c.06.37.024.716-.251.991z"/><path d="M96.227 40.03c.012-.299.036-.598.048-.896.06 0 .12.012.167.024-.084.286-.155.573-.239.86h.024zM100.145 48.475l-.621.108s-.012-.036-.024-.048l.609-.108s.024.024.036.048M104.457 44.903l.323-.537.107.095c-.143.144-.298.287-.442.43zM91.605 45.728c.071.095.155.19.262.334-.095.024-.239.072-.25.048-.06-.108-.084-.227-.12-.347.036 0 .072-.023.096-.035zM91.82 44.115c-.024.215-.06.418-.084.633h-.084l.072-.68c.036.023.072.035.108.059zM89.047 45.083c.203.06.395.13.598.19-.012.048-.024.084-.036.132-.191-.072-.394-.143-.586-.215 0-.036.024-.072.036-.107zM104.505 41.607l.203-.323s.048.024.072.048l-.18.322c-.035-.012-.059-.036-.095-.048M94.819 21.968c-.143 0-.287.024-.442.024v-.048l.442-.071zM96.695 46.217c-.18.024-.359.036-.538.06v-.095c.18-.024.359-.036.538-.06v.095"/><path d="M104.446 44.892c-.131.155-.263.322-.394.477 0-.298.155-.43.406-.465zM94.41 48.487l-.752.072v-.156c.251.036.49.06.74.096l.013-.024zM98.15 41.75c-.023.19-.059.382-.083.573l-.143-.036c.083-.167.155-.346.239-.513h-.012zM95.594 41.929c.191.287.24.538-.131.717h.012c.048-.24.095-.478.131-.729h-.012zM98.174 41.762c-.095-.275-.107-.526.18-.705h-.013c-.06.215-.119.454-.179.693l.024.012zM95.368 44.031l-.108.407a.2.2 0 0 1-.083-.024c.024-.144.06-.287.083-.43.036.012.072.023.108.047"/><path d="M98.342 41.057c-.192-.275-.024-.526.071-.776h-.024c-.024.25-.047.513-.071.776l.023.012zM107.193 41.94c-.059.108-.119.204-.179.311l-.072-.035c.06-.108.108-.215.168-.323.035.012.059.036.095.048zM92.775 22.733c.012-.191.036-.37.048-.562.047 0 .083.024.131.036-.072.18-.131.347-.203.526h.024M98.796 38.56l-.072.765.024.012c-.227-.275-.024-.514.072-.765h-.012z"/><path d="M92.656 23.461c.047-.239.083-.49.13-.729h-.011c-.048.24-.084.49-.131.73zM87.925 44.569c.18.072.37.143.55.227-.024.048-.048.083-.072.131l-.502-.322zM82.872 38.453l.358.442-.119.06c-.072-.18-.155-.347-.227-.526l-.012.012zM85.834 27.714c.036-.108.084-.227.12-.347h.06c-.024.132-.048.251-.084.359 0 .024-.024.036-.036.048a.5.5 0 0 0-.072-.06zM85.512 29.195c.024-.191.048-.382.084-.573.083.215.143.43-.096.561h.012zM95.463 42.658c.203.215.12.418-.048.62l.072-.62h-.024"/><path d="M85.502 29.183c.119.275.035.514-.132.729h.012c.048-.239.096-.478.131-.729zM85.238 30.653c.047-.24.095-.478.143-.73h-.012c-.048.24-.096.479-.143.73zM97.743 43.398l.108-.394s.06.012.083.024c-.035.143-.06.287-.095.43-.036-.012-.072-.036-.096-.048zM115.257 68.52c.705 1.147 1.41 2.281 2.115 3.428-.036.024-.084.048-.12.072-.788-1.087-1.421-2.282-2.114-3.429.036-.023.071-.047.119-.071M111.589 69.284s-.143-.012-.167-.047l-1.29-2.33c.048-.024.083-.048.131-.072.442.825.884 1.649 1.314 2.461h.012zM112.975 70.312c-.549-.502-.776-1.207-1.122-1.84.43.585.872 1.159 1.11 1.852zM107.659 55.272c-.072-.036-.167-.048-.203-.107-.275-.466-.549-.944-.824-1.422l.131-.072c.299.538.586 1.075.884 1.613h.012zM105.723 51.724c.168.31.335.61.502.92-.036.024-.072.036-.108.06l-.477-.896z"/><path d="M107.646 55.284c.18.287.347.585.526.872-.287-.239-.561-.49-.514-.896v.012zM105.39 52.047c.131.227.275.466.406.693-.024.012-.06.035-.083.047-.132-.238-.263-.465-.395-.704.024-.012.048-.036.084-.048zM112.761 71.279c-.394-.18-.478-.573-.621-.932v.012c.203.31.418.621.621.932h.012zM111.577 69.308c.179.358.359.705.55 1.063v-.012c-.275-.31-.562-.61-.538-1.063v.012zM106.369 53.767c.131.239.263.478.406.717l-.072.035c-.143-.238-.274-.465-.418-.704.036-.024.06-.036.096-.06zM112.963 70.324c.143.19.275.382.418.573h.012c-.335-.06-.394-.31-.418-.586v.012z"/><path d="M113.38 70.897c.096.167.191.334.359.609-.299-.191-.418-.358-.347-.621v.012zM112.748 71.291c.108.155.215.323.323.478-.251-.084-.359-.24-.311-.49v.012zM64.876 93.661c-.744 0-1.496.08-2.24.12-.12 0-.24.032-.36.032q-1.45.026-2.912.04c-.952 0-1.896.008-2.848-.016-1.088-.032-1.528-.504-1.496-1.6.016-.4.088-.8.136-1.192.376-.048.744-.104 1.12-.128.544-.04 1.088-.064 1.632-.168h-2.744c.064-.24.112-.408.176-.64 1.136-.048 2.264-.088 3.392-.136v-.096c-.544-.008-1.096-.032-1.64-.032h-1.624c0-.464 0-.472.416-.496l4.304-.192a.7.7 0 0 0 .288-.048c-1.592-.224-3.192 0-4.792 0 .16-.848.656-1.408 1.392-1.512.696-.096 1.4-.104 2.104-.144s1.416-.072 2.12-.08c.664-.016 1.328 0 2 0 .584.008 1.168.04 1.752.04.544 0 1.088 0 1.632-.016 2.16-.056 4.328-.136 6.488-.16 3.4-.032 6.8-.024 10.192-.04.584 0 1.168-.048 1.76-.064.16 0 .32-.016.488-.016h2.528c-.184.304-.304.616-.528.824-.152.144-.432.184-.664.192-1.088.04-2.184.032-3.28.072-.808.024-1.616.08-2.424.128-.152.008-.304.072-.576.144 2.304-.048 4.48-.096 6.72-.144-.064.192-.12.352-.192.56h-5.512v.128h5.368c-.168.784-.168.792-.848.816-.896.04-1.792.064-2.816.096 1.176.272 2.248-.008 3.32.104-.04.416-.072.808-.112 1.248-.792.16-1.584.312-2.368.464v.08c.432-.056.864-.096 1.296-.16.296-.048.592-.128.896-.168.096-.016.2.056.304.152-.712.424-1.544.448-2.272.816.776-.168 1.56-.336 2.328-.504.208.336.032.488-.232.56-.528.152-1.048.336-1.584.392-1.288.12-2.576.192-3.864.256-1.832.088-3.672.144-5.504.216-1.128.048-2.256.096-3.392.16-.192.008-.376.088-.568.128 1.376-.064 2.744-.136 4.12-.184 2.32-.088 4.648-.168 6.968-.248.184 0 .4-.096.536-.024.424.224.824.056 1.232 0 .776-.12 1.544-.24 2.336-.36.056.336-.032.512-.288.568-.432.096-.872.224-1.312.24-2.488.12-4.968.216-7.456.328q-3.06.13-6.12.272c-.664.032-1.328.112-2 .12-1.776.024-3.56.024-5.336.016-.808 0-1.616-.064-2.424-.064-1.432 0-2.872.04-4.304.056-.624.008-1.256 0-1.88.016-.56.016-.888-.288-1.128-.76-.256-.488-.28-1.008-.32-1.528-.064-.76-.224-1.552.04-2.288.384-1.104.8-2.208 1.312-3.256.488-1 .952-2 1.288-3.072.136-.432.336-.848.496-1.264.336.088.368.256.296.52-.184.68-.36 1.368-.52 2.056-.088.376-.136.76-.2 1.144.056.008.104.024.16.032.28-1.12.552-2.248.832-3.4 1.848 1.24 3.68 2.472 5.624 3.768-.336.024-.528.032-.72.048.24.096.48.08.712.104.216.016.456.024.64.128.608.336 1.232.24 1.88.152-.288-.128-.592-.192-.896-.272-.176-.04-.36-.072-.512-.16-1.12-.648-2.24-1.296-3.336-1.976-1.56-.968-3.104-1.96-4.664-2.936-.056-.04-.144-.032-.328-.072.264.216.44.368.656.544-.68 1.784-1.352 3.56-2.04 5.328-.264.68-.584 1.336-.872 2-.216.512-.328 1.04-.28 1.6.096 1.12.096 2.256.512 3.328.024.056.04.128.016.176-.24.416.072.68.256.984.128.2.32.408.328.624.08 1.264-.088 2.504-.648 3.664-.088.192-.264.352-.416.496-.328.312-.392.64-.136 1.024.176.272.384.52.584.768.672.832 1.368 1.648 2.016 2.504 1.224 1.608 2.4 3.256 3.632 4.856.976 1.264 2.008 2.48 3.04 3.704.176.208.432.448.672.472.72.072 1.448.072 2.176.056.544-.016 1.088-.088 1.632-.144 1.048-.104 2.096-.176 3.128-.344 2.112-.344 4.216-.776 6.328-1.12 1.712-.28 3.44-.472 5.16-.712 1.56-.224 3.12-.464 4.672-.704 1.28-.192 2.552-.416 3.776-.848 1.44-.512 2.392-1.432 2.752-2.944a20 20 0 0 0 .552-3.776c.096-2.056-.568-2.488-1.848-3-.384-.152-.768-.336-1.168-.512.36-1.344.376-2.648.296-3.968-.08-1.28-.448-2.384-1.6-3.088-.528-.328-1.072-.64-1.616-.952-.272-.16-.56-.296-.88-.456.064-.336.072-.648.176-.928.296-.816.632-1.616.952-2.424.048-.112.088-.264.176-.312.528-.272.328-.656.184-1.04-.04-.104-.064-.216-.096-.352.208-.04.36-.088.52-.096 1.264-.104 2.08-.736 2.464-1.968.192-.6.176-1.152-.008-1.712-.096-.296-.28-.512-.624-.6-1.208-.336-2.392-.72-3.608-1.032-.76-.2-1.56-.256-2.32-.448-1.72-.44-3.432-.92-5.144-1.4-.36-.096-.696-.256-1-.368.192-.616.408-1.144.528-1.696.184-.848.312-1.704.144-2.584-.28-1.44-.896-2.672-2.048-3.608-.736-.592-1.536-.984-2.504-.88-.76.088-1.52.216-2.28.32-.032 0-.072-.024-.152-.056.008-.152.024-.32.04-.512h.464c.808-.056 1.624-.088 2.32-.576 1.208-.84 1.784-2.056 2.016-3.456.072-.464.144-.912.4-1.32.04-.072.056-.16.088-.248-.264.072-.464.152-.68.192-.816.16-1.632.272-2.44.464-1.2.288-1.976 1.04-2.312 2.248-.16.576-.152 1.152-.096 1.752-.48-1-.96-2.008-1.448-3.008l-.152.048c.064.32.096.648.2.96.2.616.448 1.216.664 1.824.168.472.312.952.296 1.48-.536.272-1.096.328-1.664.328-.16 0-.328-.032-.48.008-1.352.352-2.376 1.104-2.896 2.432-.328.856-.488 1.76-.36 2.68.104.76.256 1.512.392 2.272.024.128.04.264.056.424h-.4c-1.456 0-2.912-.024-4.368 0-.768.016-1.528.136-2.296.16-.992.032-1.984 0-2.968 0-.28 0-.56-.016-.8.232.024.104.032.208.072.288.416.888.68 1.792.224 2.76-.008.016.032.056.056.104.096-.064.192-.128.28-.192.088.048.152.088.224.128.936.552 1.88 1.104 2.816 1.656l-.016.016c-.08-.096-.144-.224-.24-.288-.744-.488-1.496-.952-2.248-1.432-.152-.096-.384-.136-.392-.448.216.072.392.136.6.208-.104-.256-.512-.192-.488-.552.16.024.28.048.48.08-.208-.272-.728-.232-.52-.728.84.392 1.656.776 2.472 1.16a1.6 1.6 0 0 0-.512-.376c-.592-.296-1.192-.6-1.792-.88-.224-.104-.344-.24-.312-.544.128.04.224.056.312.096 1 .432 2 .864 2.992 1.312 2.016.904 3.936 2.056 6.088 2.64.016.256.024.48.04.8-.728-.344-1.344-.648-1.968-.928-.232-.104-.488-.176-.728-.256l.008-.016c.16.112.304.24.472.328.648.328 1.312.632 1.96.952.144.072.376.184.232.328-.168.168-.128.224-.032.392.048.096-.024.256-.04.416-.264-.08-.488-.144-.704-.208l-.024.064c.208.12.416.232.616.344 0 .392-.416.664-.28 1.128.464-.224.592-.68.832-1.032.24-.032.48-.056.72-.088v-.064c-.216-.016-.424-.024-.632-.04.032-.512.032-.52.432-.56.232-.024.464-.032.704-.048 0-.048-.008-.088-.016-.136H66.66c.32-.168.648-.208.976-.264.304-.056.616-.12.92-.176 0-.032-.016-.064-.024-.096-.64.048-1.272.096-1.928.152-.08-.312-.144-.576-.224-.896.96-.056 1.888-.128 2.816-.16 2.16-.08 4.328-.128 6.488-.224 1.936-.088 3.872-.232 5.808-.352.648-.04 1.296-.032 1.936-.072 1.488-.104 2.984-.248 4.472-.328.744-.04 1.496 0 2.24.056.52.04.624.208.632.704v.848c-.76.912-1.72 1.408-2.944 1.376-.504-.016-1.008.04-1.512.072-1.736.12-3.472.248-5.2.368-1.392.096-2.784.16-4.176.272-1.144.096-2.288.272-3.44.352-1.672.112-3.352.168-5.024.256-.712.04-1.416.088-2.128.136a.48.48 0 0 0 .384.16c.528-.016 1.048-.04 1.576-.064 1.576-.064 3.152-.096 4.728-.2 1.392-.096 2.776-.296 4.16-.408 1.712-.128 3.432-.208 5.144-.312 1.672-.104 3.352-.224 5.024-.328.712-.04 1.424-.064 2.136-.096-.048.088-.096.112-.152.128-1.728.344-3.488.424-5.24.6-.888.088-1.776.088-2.664.16-1.128.096-2.248.264-3.376.32-2.4.112-4.808.168-7.208.264-1.656.064-3.304.096-4.952.384-.88.152-1.808.032-2.72.024-.528 0-1.048-.048-1.576-.032-.6.016-1.208.104-1.808.112-1.008.016-2.016-.056-3.016.208-.728.192-1.304.488-1.464 1.296-.208 1.032-.44 2.056-.608 3.088-.08.496-.056 1.016.176 1.488.192.392.464.72.928.776.296.032.592.016.896.016 1.72 0 3.432.016 5.152-.008.744-.016 1.488-.16 2.232-.176 2.064-.04 4.128-.024 6.184-.056.456 0 .912-.128 1.376-.192-2.264 0-4.528-.008-6.792 0zm25.976 1.48c.192 1.352.208 2.696-.232 4.016-.16.48-.272.968-.4 1.456-.096.352-.304.528-.68.576-.984.128-1.952.336-2.936.432a50 50 0 0 0-5.752.872c-1.368.288-2.752.44-4.144.552-1.632.12-3.256.336-4.88.52-1.944.224-3.896.432-5.84.688-.544.072-.88-.112-1.2-.504-.496-.616-1-1.224-1.528-1.808-.512-.568-1.104-1.072-1.592-1.656-1.12-1.328-2.2-2.688-3.296-4.04-.304-.376-.608-.76-.904-1.136a.43.43 0 0 1-.096-.352l.608.488c-.072-.16-.144-.32-.224-.52.304-.168.512-.032.72.184.584.592 1.16 1.184 1.752 1.76.352.344.736.648 1.16.904-.896-.92-1.792-1.832-2.776-2.848.952-.096 1.256.72 1.928.92-.28-.28-.568-.552-.896-.88.472-.104.824-.104 1.144.184.128.12.304.192.456.288l.024-.032c-.144-.152-.288-.312-.504-.536.4-.016.712-.048 1.024-.04.56.008 1.128.024 1.688.072a1 1 0 0 1 .48.208c.272.208.512.456.776.68.312.272.48.584.6 1 .44 1.616.624 3.248.544 4.92-.032.664-.112 1.32-.304 1.96-.136 0-.232.008-.328.016.2.264.424.288.768.256 1.704-.192 3.424-.304 5.128-.504 1.928-.224 3.848-.52 5.768-.784s3.848-.512 5.768-.792c1.976-.288 3.952-.608 5.928-.912.408-.064.808-.12 1.312-.192.048-.096.16-.288.232-.488.544-1.72.728-3.472.504-5.264-.048-.376-.2-.736-.288-1.112-.024-.104 0-.224 0-.336-.04 0-.08.016-.12.008-1.04-.208-2.04.024-3.04.256-.056.008-.112-.016-.216-.032.472-.728-.072-1.48.12-2.288.752.416 1.496.736 2.136 1.264.352.288.744.528 1.112.792.36.544.424 1.176.512 1.784zm-35.44 3.984c-.016-.072-.008-.168-.056-.216-.304-.32-.296-.664-.104-1.08.136.12.264.224.392.336l.04-.04c-.368-.504-.536-1.048-.344-1.744.144.184.248.328.368.456.488.568.984 1.12 1.464 1.688.776.904 1.552 1.808 2.304 2.728.664.808 1.32 1.64 1.96 2.472a177 177 0 0 1 2.064 2.76c.096.136.184.312.184.472.016.664-.064 1.336.016 2 .032.248-.384.208-.168.464.104.128.112.336.168.504-.048.032-.104.064-.152.096l-.424-.664c-.048.04-.088.08-.136.112.016.24.24.376.392.504.368.304.376.664.28 1.184l-1.568-1.744c-.024.024-.056.04-.08.064.072.104.128.208.208.304.368.432.72.88 1.12 1.272.384.368.456.776.312 1.328-.128-.056-.272-.08-.344-.168a12 12 0 0 1-.688-.848c-1.576-2.152-3.112-4.328-4.736-6.448-.904-1.184-1.944-2.272-2.912-3.408-.288-.336-.552-.688-.84-1.048.208-.32.384-.608.584-.912.176.168.32.296.464.432l.04-.04c-.056-.104-.104-.216-.176-.312-.256-.368-.256-.36 0-.848l.4.328h-.008zm34.88 2.088c.192-.536.36-1.016.552-1.536.736.368 1.48.72 2.2 1.12.168.088.28.344.328.552.088.352.144.72.136 1.08-.04 1.56-.216 3.104-.696 4.6-.304.96-.872 1.648-1.824 2.048-1.128.48-2.304.752-3.504.96-1.768.312-3.552.576-5.328.84-2.056.304-4.128.56-6.184.896-1.792.288-3.576.688-5.368.976-1.176.192-2.368.272-3.552.392-.72.072-1.448.144-2.168.192-.264.016-.528-.048-.784-.024-.376.032-.608-.128-.792-.512.592-.184 1.168-.36 1.752-.544-.16 0-.344-.008-.52 0-.176.016-.36.048-.584.08v-.52c1.008-.064 1.992-.12 2.968-.176v-.12h-.592c-.2 0-.4.016-.608.024-.488.016-.968.04-1.456.04-.344 0-.4-.192-.304-.488 1.24-.312 2.464-.624 3.696-.928l-.024-.12c-1.216.28-2.44.56-3.704.856v-1.712c.968-.136 1.92-.272 2.872-.408-.952-.136-1.88.12-2.864.2v-.672c1.224-.152 2.416-.304 3.608-.456 0-.048-.008-.088-.016-.136-1.176.112-2.352.232-3.528.344-.128-.28 0-.376.208-.408.856-.128 1.72-.256 2.576-.392.568-.088 1.136-.168 1.696-.304-1.504-.024-2.968.264-4.496.488v-.896c.528-.12 1.08-.232 1.624-.368.896-.224 1.792-.488 2.696-.696.888-.2 1.784-.368 2.68-.512 2.416-.4 4.824-.8 7.24-1.16 1.456-.216 2.928-.352 4.392-.552 1.04-.144 2.072-.368 3.104-.528 1.28-.2 2.56-.352 3.84-.568.952-.16 1.896-.384 2.896-.592.264.64.264 1.344.216 2.136l-4.232.624q.002.06.016.12c1.368-.176 2.744-.352 4.16-.536.016.16.032.304.048.472-.576.112-1.128.216-1.672.328q.002.048.016.096c.496-.056.992-.12 1.544-.184-.016.208 0 .36-.04.504a57 57 0 0 1-.584 2.232c-.16.544-.464.888-1.088 1.056-1.76.472-3.552.784-5.344 1.104-1.672.296-3.36.488-5.032.76-2.152.352-4.312.704-6.448 1.128-2.208.432-4.416.8-6.656.952-.928.064-1.84.256-2.76.392-.24.032-.48.064-.76.104.2.208.416.168.632.144.744-.088 1.48-.2 2.224-.272.824-.088 1.656-.104 2.472-.224 2.096-.312 4.192-.664 6.288-1.008 2.216-.36 4.432-.704 6.648-1.08 1.632-.272 3.264-.568 4.896-.864a97 97 0 0 0 3.032-.6c.448-.096.904-.224 1.336-.368.512-.176.848-.56.96-1.088.272-1.24.584-2.48.744-3.736.096-.736-.056-1.512-.328-2.232-.104-.28-.32-.352-.584-.296-.336.064-.672.152-1.008.232-1.672.4-3.368.672-5.08.84-1.04.104-2.072.352-3.112.496-1.48.208-2.968.368-4.448.576-1.08.152-2.16.336-3.232.528-2.504.448-5.016.888-7.52 1.36-.912.176-1.8.44-2.704.648-.336.08-.672.128-1.08.208-.536-.608-1.104-1.208-1.624-1.848-1.44-1.776-2.808-3.616-4.32-5.328a58 58 0 0 1-3.024-3.712c-.12-.16-.24-.32-.408-.536.176-.032.304-.064.432-.064.264 0 .536.056.784 0 .8-.16 1.264.264 1.696.856.816 1.104 1.632 2.216 2.52 3.272 1.168 1.392 2.4 2.736 3.6 4.104.448.52.848 1.072 1.408 1.488.336.248.64.36 1.056.304 1.704-.216 3.408-.408 5.12-.6 1.608-.184 3.224-.32 4.824-.552 1.856-.264 3.712-.6 5.56-.928a61 61 0 0 1 4.8-.68c1.144-.112 2.28-.336 3.408-.536.552-.096 1.088-.264 1.632-.408.128-.032.24-.12.352-.184-.008-.032-.024-.056-.032-.088-.464.168-.92.336-1.456.536zm-.536-.848c-1.328.208-2.616.432-3.912.616q-2.938.43-5.888.824c-2.464.328-4.944.584-7.392.992-1.336.224-2.688.312-4.032.488-.856.112-1.72.168-2.632.256.08-.568.176-1.12.24-1.664.184-1.624 0-3.224-.408-4.8-.032-.136-.088-.272-.112-.408-.064-.424.128-.648.552-.696 2.992-.312 5.992-.64 8.984-.928 1.648-.152 3.312-.224 4.96-.344q2.904-.202 5.808-.44c.456-.04.912-.192 1.368-.28.616-.112 1.224-.248 1.848-.312.304-.032.624.072 1 .12.296 2.28.296 4.44-.384 6.576M73.244 70.373h-.896c-.024-.28.152-.304.312-.32.824-.104 1.648-.296 2.464-.264 1.192.04 2.176.656 2.888 1.584.784 1.016 1.176 2.208 1.184 3.504 0 1.432-.384 2.768-1.168 3.952-.656.984-1.488 1.808-2.6 2.296-.496.224-.992.328-1.528.144-.304-.104-.608-.232-.92-.296-.328-.064-.68-.136-1.008-.096-1.104.152-2.024-.088-2.896-.848-2.208-1.912-2.664-4.344-2.184-7.032.264-1.488 1.312-2.384 2.776-2.728.664-.152 1.352-.184 2.072-.272.072.208.088.4-.256.392-.192 0-.392-.024-.68-.048.712.472 1.656.472 2.456.032zm-16.312 7.792c1.4.072 2.784 0 4.176-.136 1.104-.112 2.224-.064 3.336-.08.648-.008 1.296 0 1.944 0 .256 0 .512 0 .76.176-.296.36-.696.136-.984.296.024.016.056.056.072.048.76-.192 1.152.176 1.584.784.632.888 1.472 1.584 2.608 1.856.52.128 1.024.16 1.552.144.368-.016.76.072 1.12.184.664.192 1.312.44 2.008.216.248-.08.504-.168.72-.312a8.95 8.95 0 0 0 2.728-2.824c.272.08.576.152.872.248 1.816.616 3.632 1.232 5.528 1.584.776.144 1.552.272 2.32.44.568.128 1.128.304 1.696.456.504.136 1.016.272 1.52.4.344.088.352.088.648.56-.656-.496-1.32-.512-1.976-.488-1.312.048-2.624.12-3.936.184a398 398 0 0 0-4.36.232c-1.816.112-3.624.272-5.44.368-1.936.104-3.88.144-5.816.232-.824.04-1.648.12-2.472.2-.424.04-.8 0-1.232-.128-2.048-.664-3.928-1.696-5.888-2.544-1.016-.44-2.04-.872-3.064-1.312-.32-.136-.584-.336-.768-.784.32 0 .536-.008.76 0zm8.6 17.68-.48-.504c-.144-.16-.296-.32-.52-.576.64-.04 1.168-.12 1.696-.104 3.336.08 6.664-.144 9.992-.336 1.328-.072 2.664-.016 3.992-.016-4.904.28-9.768.888-14.68 1.536m22.824-9.024c-.144.056-.272.136-.392.136-.968-.024-1.928-.08-2.896-.08-1.152 0-2.304.048-3.456.056-2.968.032-5.944.048-8.912.08-.952.008-1.896.056-2.848.08-.4.008-.808 0-1.208-.056l9.112-.288c1.288-.04 2.576-.04 3.864-.12 1.008-.064 2.008-.24 3.008-.32.968-.08 1.936-.112 2.904-.16.2-.008.4.04.64.072.072.224.12.4.184.608zm-28.088 22.376c-1.24-1.64-2.456-3.304-3.72-4.936-.832-1.072-1.72-2.088-2.576-3.136-.12-.152-.352-.296-.152-.536 3.224 3.488 5.896 7.36 8.648 11.176-.048.04-.096.072-.144.112-.688-.896-1.384-1.784-2.064-2.68zm14.424-41.16c.272.032.432.048.608.064-.688.6-1.512.768-2.456.848.088-.168.136-.28.2-.384.072-.12.16-.232.264-.368.2.072.392.136.592.208q.01-.036.032-.072c-.16-.104-.32-.208-.584-.384.304.032.488.048.808.08-.264-.136-.408-.216-.632-.336.2-.024.328-.04.448-.048-.08-.096-.168-.192-.248-.28l.064-.112c.312.096.616.224.936.272.336.056.68.048 1.08.064-.216.56-.704.2-1.12.456zm.568-.736c-.392-.024-.776-.144-1.168-.224.04-.592.392-.16.616-.28-.096-.064-.168-.112-.272-.176.128-.16.256-.328.36-.456.592.08 1.144.16 1.72.24-.328.872-.416.952-1.256.896m-1.888-2.024c.16.448.168 1.656-.016 2.048-.056-.12-.088-.208-.128-.296-.024.016-.048.024-.064.04-.008.192-.016.392-.032.672-.12-.232-.2-.392-.304-.592-.096.48.432 1.008-.216 1.424-.184-1.24-.136-2.352.76-3.288zm.832-.056c.056-.408.16-.68.528-.656 0 1.032-.272 1.632-.968 2.12-.032-.296-.08-.568-.096-.84-.016-.256 0-.512 0-.896.152.144.216.208.288.28l.104-.488c.064.2.088.272.152.48zm1.888.912c-.32-.024-.632-.096-1-.16.304-.368.584-.56 1.032-.496.24.032.504-.064.76-.096-.08.728-.16.816-.792.76zm-.264-.936c.104-.224.256-.424.296-.648.072-.376.44-.168.6-.352.056.208.376.28.304.56-.024.08-.024.16-.04.264q-.64.28-1.16.176m-.68-.08c-.104.24-.184.44-.264.632-.04-.016-.088-.024-.128-.04.08-.392.152-.784.24-1.224.312-.04.6-.072 1.048-.12-.312.44-.536.76-.792 1.112a9 9 0 0 0-.112-.36zm16.064 18.296h-.056v-.848h.056z"/><path d="M76.725 84.525c1.712-.16 3.424-.312 5.144-.472-.352.224-4.36.616-5.144.472M84.173 84.733c1.392-.096 2.768-.192 4.176-.288-.664.28-3.04.44-4.176.288M85.229 82.637c1.264-.096 2.535-.2 3.8-.296q-.002.072.008.144c-1.273.088-2.537.168-3.809.256zM57.876 86.277c.984-.048 1.968-.096 3.032-.144-.736.224-2.52.336-3.032.144M73.428 85.125l-2.896.288c0-.04 0-.072-.008-.112l2.896-.312c0 .048.008.088.016.136zM87.876 84.285c-.768.04-1.528.072-2.296.112v-.064c.768-.056 1.528-.12 2.296-.176zM60.892 82.733c-.496-.256-.984-.52-1.48-.776.016-.032.032-.056.04-.088.512.248 1.016.504 1.528.752zM71.076 84.71c.608-.049 1.208-.105 1.816-.153 0 .04 0 .072.008.112-.608.048-1.208.104-1.816.152 0-.032 0-.072-.008-.104zM63.445 82.717c-.256-.08-.504-.168-.76-.248.024-.048.04-.088.064-.136.232.128.456.264.688.392l.008-.016zM64.637 83.7l.456.265q-.024.05-.048.088a14 14 0 0 0-.488-.256c.024-.032.056-.064.08-.096M59.652 82.861c.152.064.304.136.456.2q-.034.06-.08.12c-.12-.112-.24-.224-.36-.328l-.016.016zM74.9 109.213c2.856-.472 5.712-.952 8.568-1.424-2.816.744-5.696 1.072-8.544 1.552 0-.04-.016-.088-.016-.128zM77.708 104.357l5.048-.648c0 .048.016.104.016.152-1.688.208-3.384.424-5.072.632v-.136zM78.412 104.957c1.344-.216 2.696-.44 4.04-.656 0 .048.016.096.024.144-1.32.312-2.68.416-4.016.64l-.048-.12zM86.509 107.485c1.448-.184 2.888-.376 4.336-.56 0 .04.008.08.016.12-1.432.304-2.896.32-4.328.592 0-.048-.016-.104-.024-.152M81.629 107.381l-3.928.504q-.002-.06-.016-.12l3.912-.56q.01.084.032.168zM72.685 110.885c-1.192.28-2.4.464-3.632.408zM90.3 106.437c-.8.104-1.6.216-2.4.32a.5.5 0 0 0-.015-.104l2.392-.384.024.16zM70.5 110.629c.504-.048 1.016-.088 1.52-.136 0 .04.008.08.016.112l-.744.072q-.384.034-.768.056c-.008-.032-.016-.072-.032-.104zM61.74 102.965l.312.336c-.016.016-.032.04-.048.056l-.312-.288c-.016-.016-.024-.04-.016-.056 0-.016.032-.024.064-.048M63.396 105.029l-.32-.296.088-.088c.104.104.2.216.304.32l-.064.064zM62.428 103.789c.08.096.16.2.232.296-.024.016-.04.032-.064.048-.08-.096-.16-.2-.232-.296.024-.016.04-.032.064-.048M64.789 105.541c-.129 0-.24-.016-.353-.016v-.064h.344v.08zM71.66 92.165c-2.816.496-5.696.352-8.552.536v-.128l8.56-.408zM63.7 91.613c2.064-.104 4.136-.216 6.2-.32-2.056.36-4.128.32-6.2.32M75.628 91.381c1.768-.048 3.536-.104 5.296-.152-1.752.312-3.512.232-5.296.152M78.06 89.757c-1.464.056-2.928.104-4.392.16v-.112l4.4-.192v.136zM85.197 98.973c-3.16.76-6.4.728-9.6 1.016q4.8-.502 9.6-1.016M66.389 97.653l4.776-.384c-.728.296-4.312.648-4.76.528q.002-.072-.008-.144zM78.668 99.189c1.544-.232 3.096-.456 4.64-.688-1.528.368-3.064.656-4.64.688M75.893 96.38c.048-.055.08-.151.136-.16 1.208-.215 2.424-.415 3.64-.615a.4.4 0 0 1 .24.032c-1.32.36-2.68.52-4.024.736h.008zM69.965 100.773c-1.176.072-2.36.144-3.536.224 1.168-.32 2.352-.312 3.536-.224M69.34 98.605l-2.88.36c.416-.296 2.08-.496 2.88-.36M75.525 97.229c.024-.048.032-.136.064-.144a215 215 0 0 1 3.152-.512c.064-.008.144.016.216.104l-3.44.552zM89.597 94.685c-.904.4-1.864.512-2.816.688l-.024-.12c.944-.192 1.896-.384 2.84-.568M87.044 99.877c.832-.096 1.664-.2 2.64-.32-.416.232-1.792.4-2.64.32M68.54 99.565l-1.991.24c.384-.256 1.464-.376 1.992-.24M89.644 95.453c-.76.376-1.568.528-2.408.56.8-.184 1.6-.376 2.408-.56M88.364 99.253l1.288-.168q.002.06.016.12l-1.296.176v-.12zM78.092 99.293h-.472c.192-.024.32-.04.448-.048z"/><path d="M74.708 97.365c.216-.376.528-.168.816-.136-.272.048-.536.096-.808.136zM75.884 96.381l-.64.056v-.104c.216.016.432.032.648.056zM74.7 97.365c-.12 0-.24.008-.36.016-.096 0-.184.016-.28-.088.216.024.433.04.648.064zM78.605 75.03c-.032.383-.065.767-.089 1.151h-.08v-1.144h.168zM70.14 72.829c-.095-.616.04-1.168.36-1.68-.12.56-.24 1.112-.36 1.68M76.909 79.445c-.288.536-.512.784-1.016.984.344-.328.688-.648 1.032-.976h-.016zM76.004 79.709c.224-.32.456-.64.68-.96-.016.448-.352.704-.544 1.048-.048-.024-.088-.056-.136-.08zM73.54 71.869c-.2-.296-.391-.6-.607-.928.376.24.432.32.608.928M71.813 72.277v-.792h.08v.792zM67.933 77.381c.144.28.288.552.432.832-.216-.248-.48-.472-.416-.848zM70.908 80.07c-.256-.137-.504-.265-.752-.4.016-.04.04-.073.056-.113q.372.202.744.416zM78.004 75.997c.04-.264.08-.536.128-.8.04 0 .08.016.12.016l-.144.792s-.064-.008-.104-.016zM74.133 70.085c.28.056.568.104.848.16a.5.5 0 0 1-.016.104c-.288-.048-.576-.088-.864-.136.008-.04.024-.088.032-.128M70.5 72.333c.048-.248.088-.496.136-.744.024 0 .056.008.08.016-.048.248-.088.496-.136.744a.3.3 0 0 1-.08-.016M69.437 79.35c.144.12.28.24.448.383q-.272-.064-.449-.384M74.084 70.94c.16.089.312.177.472.265-.016.032-.032.064-.056.104l-.464-.272a1 1 0 0 1 .048-.088zM69.444 70.613c.144-.048.28-.104.424-.152l.032.08c-.136.056-.264.112-.4.168-.016-.032-.04-.064-.056-.096"/><path d="m67.956 77.365-.304-.424c.04-.024.088-.04.128-.064.056.168.104.336.16.504zM68.213 77.269c-.04-.072-.088-.136-.112-.208a.23.23 0 0 1 .024-.184c.056.12.112.248.16.368l-.08.024zM77.564 72.021a10 10 0 0 0-.272-.352c.024-.024.056-.04.08-.064l.272.344c-.032.024-.056.048-.088.064zM76.924 79.453c.08-.152.152-.304.232-.456.04.032.08.056.12.088l-.36.36.016.008zM74.188 82.18l-2.992.113c.488-.208.992-.168 1.496-.176h1.496zM68.628 82.245l-2.48.144v-.12q1.236-.07 2.472-.152v.12zM63.493 81.629c-.48-.24-.96-.488-1.44-.728l.048-.096c.488.248.984.488 1.472.736-.024.032-.048.056-.072.088zM61.46 79.277c-.552.048-1.112.104-1.664.152 0-.04 0-.088-.008-.128l1.648-.144c.008.04.024.08.032.128zM59.773 78.621h1.544v.048h-1.552s0-.032.008-.048M65.996 78.845c.384-.048.776-.104 1.16-.152 0 .048.008.088.016.136-.392.032-.776.064-1.168.104 0-.024 0-.056-.008-.08zM58.708 79.317l.888.408c-.016.032-.032.072-.048.104l-.888-.408c.016-.032.024-.072.04-.104zM57.092 78.573l.936.408-.048.12-.936-.408zM78.356 79.557c.264.136.536.272.8.408-.016.04-.032.08-.056.112-.272-.128-.536-.256-.808-.384zM80.853 81.541h.8v.056h-.8zM80.293 81.693h-.328v-.032c.104 0 .216-.016.32-.024 0 .016 0 .04.008.056M61.34 80.533c-.12-.048-.24-.104-.36-.152 0-.024.009-.04.017-.064.127.04.255.08.376.12-.017.032-.024.064-.04.088zM55.196 99.94c.272.377.544.745.824 1.121h.008c-.288-.368-.584-.728-.872-1.08zM61.148 108.429l.672.736s-.056.048-.08.08c-.104-.112-.216-.216-.312-.336-.12-.128-.232-.264-.352-.4a1 1 0 0 0 .072-.08M59.653 102.917l.616.688c-.032.024-.056.056-.088.08-.209-.224-.408-.448-.616-.68.024-.032.056-.056.08-.088zM55.685 98.125l.6.768c-.04.032-.088.056-.128.088l-.512-.824.04-.04zM60.5 103.869c.169.2.337.4.496.6l-.096.072c-.167-.2-.335-.392-.503-.592.032-.024.064-.056.096-.08z"/><path d="M56.02 101.061c.16.136.313.272.472.408-.031.032-.072.056-.103.088-.12-.168-.24-.344-.36-.512l-.009.008zM59.412 103.749l.376.488s-.056.04-.08.064l-.384-.464s.056-.056.088-.08zM60.005 104.485l.384.456c-.024.024-.056.048-.08.072-.128-.144-.256-.296-.384-.44a1 1 0 0 1 .08-.088M61.532 105.269c-.128-.144-.256-.288-.408-.464q.256.104.408.464M60.852 105.477l.192.216c-.016.016-.032.032-.04.048-.072-.064-.144-.128-.224-.192zM61.956 105.589c.08.112.16.232.24.344l-.072.048c-.08-.112-.16-.232-.248-.344l.072-.048zM62.564 106.333c.064.08.136.16.2.24l-.088.088c-.072-.08-.144-.152-.216-.232.032-.032.072-.064.104-.088zM55.788 99.597q-.178-.238-.368-.488h-.008c.12.16.24.32.368.488l.008-.008zM55.78 99.605c.128.12.248.248.376.368l-.112.088c-.08-.152-.168-.304-.248-.464l-.008.008zM61.86 99.493c-.368-.328-.768-.632-1.104-.992-.872-.944-1.712-1.912-2.56-2.88-.104-.112-.16-.264-.24-.392.096.064.208.104.288.184 1.144 1.24 2.28 2.488 3.408 3.736.088.096.136.232.208.344M65.26 103.501c-.496-.544-1-1.08-1.488-1.64-.36-.408-.696-.824-1.032-1.248-.08-.104-.112-.24-.168-.36.576.664 1.152 1.328 1.736 1.984.24.272.504.512.728.792.104.128.152.304.224.464zM64.012 100.597c-.304-.256-.608-.52-.904-.776.408.136.712.392.96.72-.016.016-.032.04-.056.056"/><path d="m64.069 100.541.96.792c-.464-.088-.736-.416-1.016-.736.016-.016.032-.04.056-.056M62.533 100.213c-.36-.128-.56-.408-.688-.744.232.248.456.496.688.744M64.404 100.205l-.704-.488q.036-.05.072-.088c.232.16.512.272.624.584zM61.268 95.213c.192.136.384.272.584.4l-.088.112c-.176-.16-.344-.32-.52-.48zM61.333 96.517c-.136-.12-.272-.232-.4-.352.016-.024.04-.04.056-.064l.416.344s-.04.048-.064.064zM62.076 95.845c.104.088.216.168.32.256-.016.024-.032.048-.048.064-.104-.088-.216-.168-.32-.256.016-.024.032-.04.048-.064M64.476 99.053c.088.072.168.144.256.224-.016.024-.032.04-.048.064l-.272-.224c.024-.016.04-.04.064-.056zM65.284 99.829c-.12-.088-.248-.176-.368-.264.016-.024.024-.048.04-.072l.408.24s-.056.056-.08.088zM61.572 94.733c.08.096.16.192.248.288-.016.024-.04.04-.056.064-.088-.088-.184-.168-.272-.256l.088-.088zM64.397 100.213c.167.08.335.168.503.248-.264.072-.407-.048-.496-.256v.008zM69.477 95.053l-1.609.24q-.001-.06-.015-.12c.535-.072 1.072-.152 1.608-.224q.002.048.016.096zM66.58 95.429h-.615v-.056h.616zM104.388 7.471c-.489-.753-.966-1.518-1.466-2.26-.267-.4-.544-.81-.889-1.142-.489-.465-1.022-.321-1.166.333-.111.498-.1 1.03-.1 1.54-.011 1.13 0 2.26 0 3.435-1.211.499-2.444.975-3.644 1.507a6.9 6.9 0 0 0-1.588.975c-.489.41-.367.875.233 1.108.322.122.667.177 1.01.222 1.267.144 2.545.266 3.922.399 0 .52-.033 1.008 0 1.484.067.72.122 1.452.322 2.15.211.731.845.842 1.333.266.334-.388.578-.864.822-1.319.411-.753.789-1.529 1.222-2.382 1.222.222 2.411.443 3.599.665.2.033.4.133.6.155.456.033.744-.343.511-.742-.178-.322-.478-.588-.733-.876a535 535 0 0 1-2.233-2.582c.311-.498.522-.897.789-1.252.755-.997 1.533-1.961 2.299-2.958.234-.31.622-.565.478-1.097-.8-.111-1.033.742-1.655.92-.589.166-1.133.51-1.7.775-.588.277-1.188.554-1.766.831-.155-.11-.2-.122-.211-.144zm-2.799 5.297c0-.92-.033-1.74.022-2.56.011-.21.244-.488.455-.598.645-.344 1.311-.62 2.067-.964.366.554.711 1.097 1.088 1.673-.455.864-.9 1.717-1.388 2.648-.756-.066-1.5-.133-2.244-.2m-5.31-.366c-.011-.089-.033-.166-.044-.255 1.388-.864 2.977-1.274 4.598-2.039-.044.986-.088 1.762-.133 2.649-1.544-.122-2.988-.244-4.42-.355m7.487-4.388c-.722.321-1.355.598-2.111.93-.066-1.473-.133-2.78-.199-4.1.077-.021.166-.055.244-.077.766.975 1.377 2.061 2.066 3.236zm-2.31 5.574c.71.066 1.266.122 1.988.188-.533 1.03-1.011 1.95-1.489 2.881-.111-.022-.211-.055-.322-.078-.055-.953-.111-1.894-.177-2.98zm6.065-.21-2.722-.344c.311-.643.578-1.208.922-1.895.644.809 1.155 1.44 1.8 2.25zm-1.833-3.868c-.289-.443-.511-.765-.811-1.208.755-.377 1.422-.698 2.099-1.03l.134.166c-.445.654-.9 1.307-1.422 2.072M46.92 63.483c-.6-.923-1.184-1.86-1.797-2.77-.326-.488-.666-.99-1.088-1.397-.599-.57-1.252-.394-1.429.407-.136.61-.122 1.262-.122 1.887-.014 1.384 0 2.769 0 4.208-1.484.61-2.994 1.194-4.464 1.846a8.4 8.4 0 0 0-1.946 1.194c-.598.502-.448 1.072.286 1.358.395.149.817.217 1.239.27 1.55.177 3.116.327 4.803.49 0 .638-.04 1.235 0 1.819.082.882.15 1.778.395 2.633.258.896 1.034 1.031 1.633.326.408-.476.707-1.06 1.006-1.616.504-.923.967-1.873 1.497-2.918 1.497.271 2.953.543 4.409.814.245.041.49.163.735.19.558.041.912-.42.626-.91-.218-.393-.585-.718-.898-1.071a660 660 0 0 1-2.735-3.163c.38-.61.64-1.1.966-1.534.925-1.222 1.877-2.402 2.816-3.624.286-.38.762-.692.586-1.344-.98-.136-1.266.91-2.028 1.127-.721.203-1.388.624-2.082.95-.721.34-1.456.679-2.163 1.018-.19-.136-.245-.15-.259-.177zm-3.43 6.488c0-1.127-.04-2.13.028-3.135.013-.258.3-.598.558-.733.789-.421 1.605-.76 2.53-1.181.45.678.871 1.344 1.334 2.05-.558 1.058-1.102 2.103-1.7 3.244zm-6.504-.448c-.013-.108-.04-.203-.054-.312 1.7-1.059 3.647-1.561 5.633-2.498-.054 1.209-.109 2.159-.163 3.245-1.892-.15-3.66-.3-5.416-.435m9.172-5.375c-.885.394-1.66.733-2.586 1.14-.081-1.805-.163-3.407-.245-5.022.096-.027.204-.068.3-.095.938 1.194 1.687 2.525 2.53 3.964zm-2.83 6.828c.87.081 1.55.149 2.435.23-.653 1.263-1.238 2.39-1.823 3.53-.136-.028-.259-.068-.395-.096-.068-1.167-.136-2.32-.218-3.65zm7.429-.258c-1.198-.15-2.164-.272-3.334-.421.381-.787.708-1.48 1.13-2.321.789.99 1.415 1.764 2.204 2.755zm-2.245-4.737c-.354-.543-.626-.937-.994-1.48.926-.462 1.742-.855 2.572-1.262l.163.203c-.544.801-1.102 1.602-1.741 2.539M44.181 106.966c-.4-.617-.79-1.242-1.2-1.849-.217-.326-.444-.661-.726-.933-.4-.381-.836-.263-.954.272-.09.407-.082.842-.082 1.259-.009.924 0 1.849 0 2.809-.99.408-1.998.798-2.98 1.233a5.6 5.6 0 0 0-1.298.797c-.4.336-.3.716.19.906.264.1.545.145.827.182 1.036.117 2.08.217 3.207.326 0 .426-.027.825 0 1.214.054.589.1 1.187.263 1.758.173.598.69.689 1.09.218.273-.317.473-.707.673-1.079.336-.616.645-1.25 1-1.948.998.181 1.97.362 2.942.544.164.027.328.108.491.127.372.027.609-.281.418-.608-.145-.262-.39-.48-.6-.715-.608-.698-1.217-1.405-1.826-2.112.255-.408.427-.734.645-1.024.618-.815 1.254-1.604 1.88-2.419.192-.254.51-.463.391-.898-.654-.09-.844.608-1.353.753-.482.136-.927.416-1.39.634-.482.226-.972.453-1.445.68-.127-.091-.163-.1-.172-.118zm-2.29 4.331c0-.752-.026-1.422.019-2.093.009-.172.2-.399.372-.489.527-.281 1.072-.508 1.69-.789.3.453.581.897.89 1.369-.372.706-.736 1.404-1.135 2.165zm-4.342-.299c-.009-.072-.027-.136-.036-.208 1.136-.707 2.435-1.042 3.761-1.668-.036.807-.073 1.441-.11 2.166-1.262-.099-2.443-.199-3.615-.29m6.123-3.588c-.59.263-1.108.489-1.726.761-.054-1.205-.109-2.275-.163-3.353.063-.018.136-.045.2-.063.626.797 1.126 1.685 1.69 2.646zm-1.89 4.558c.582.054 1.036.1 1.627.154-.436.843-.827 1.595-1.218 2.356-.09-.018-.172-.045-.263-.063-.045-.78-.09-1.55-.145-2.438zm4.96-.172-2.225-.281c.255-.526.472-.988.754-1.55.527.662.945 1.178 1.472 1.84zm-1.498-3.163c-.236-.362-.418-.625-.663-.988.617-.308 1.162-.571 1.717-.842l.109.136c-.364.534-.736 1.069-1.163 1.694M75.341 45.166c-.4-.616-.79-1.242-1.199-1.849-.218-.326-.445-.661-.727-.933-.4-.38-.836-.263-.954.272-.09.407-.081.843-.081 1.26-.01.924 0 1.848 0 2.809-.99.407-1.999.797-2.98 1.232a5.6 5.6 0 0 0-1.3.797c-.399.336-.299.716.192.907.263.1.545.145.826.18 1.036.119 2.08.218 3.207.327 0 .426-.027.825 0 1.214.055.59.1 1.188.264 1.758.172.599.69.69 1.09.218.272-.317.472-.707.672-1.078.336-.617.645-1.251 1-1.949.999.181 1.97.363 2.943.544.163.027.327.109.49.127.373.027.609-.281.418-.607-.145-.263-.39-.48-.6-.716-.608-.698-1.217-1.405-1.826-2.112.255-.407.428-.734.645-1.024.618-.815 1.254-1.604 1.881-2.42.19-.253.509-.461.39-.896-.653-.091-.844.607-1.353.752-.481.136-.927.417-1.39.634-.481.227-.972.453-1.444.68-.127-.09-.164-.1-.173-.118zm-2.29 4.332c0-.753-.026-1.423.019-2.094.01-.172.2-.399.373-.49.526-.28 1.072-.507 1.69-.788.299.454.58.898.89 1.369-.373.707-.736 1.404-1.136 2.166q-.925-.083-1.835-.163m-4.341-.3c-.01-.072-.028-.136-.037-.208 1.136-.707 2.435-1.042 3.761-1.667-.036.806-.073 1.44-.109 2.165-1.263-.1-2.444-.199-3.615-.29m6.122-3.588c-.59.263-1.108.49-1.726.761-.054-1.205-.109-2.274-.163-3.353.063-.018.136-.045.2-.063.626.797 1.126 1.685 1.69 2.646zm-1.89 4.558c.582.054 1.037.1 1.627.154-.436.843-.827 1.595-1.217 2.356-.091-.018-.173-.045-.264-.063-.045-.78-.09-1.55-.145-2.438zm4.961-.172c-.8-.1-1.445-.181-2.226-.281.255-.526.473-.988.754-1.55.527.662.945 1.178 1.472 1.84zm-1.499-3.163c-.236-.362-.418-.625-.663-.987.618-.309 1.163-.571 1.717-.843l.109.136c-.363.534-.736 1.069-1.163 1.694M12.035 109.857c-.275-.424-.544-.855-.825-1.272-.15-.225-.306-.456-.5-.643-.275-.262-.575-.181-.657.187-.062.281-.056.58-.056.867-.006.636 0 1.273 0 1.934-.681.28-1.376.549-2.05.848a3.8 3.8 0 0 0-.895.549c-.275.231-.206.493.131.624.182.068.376.099.57.124.712.081 1.431.15 2.207.225 0 .293-.02.567 0 .836.037.405.068.817.18 1.21.12.411.476.474.751.149.188-.218.325-.486.463-.742.231-.424.444-.861.688-1.341.687.125 1.357.25 2.026.374.112.019.225.075.337.088.257.018.42-.194.288-.418-.1-.181-.27-.331-.413-.493q-.628-.722-1.257-1.453c.175-.281.294-.505.444-.705.425-.561.863-1.104 1.294-1.665.132-.175.35-.318.27-.618-.45-.062-.582.418-.932.518-.332.093-.638.287-.957.436-.331.156-.669.312-.994.468-.088-.062-.113-.068-.119-.081zm-1.575 2.981c0-.517-.019-.979.012-1.44.007-.119.138-.275.257-.337.362-.194.737-.35 1.163-.543.206.312.4.618.612.942-.256.486-.506.967-.781 1.491zm-2.989-.206c-.006-.049-.019-.093-.025-.143.782-.486 1.676-.717 2.589-1.148-.026.555-.05.992-.075 1.491-.87-.069-1.682-.137-2.489-.2m4.214-2.469c-.406.18-.763.336-1.188.523-.037-.829-.075-1.565-.112-2.307l.137-.044c.432.549.776 1.16 1.163 1.821zm-1.3 3.137 1.119.106c-.3.58-.57 1.098-.838 1.622-.062-.013-.119-.032-.181-.044-.031-.537-.063-1.067-.1-1.678zm3.414-.119c-.55-.068-.994-.124-1.532-.193.175-.362.325-.68.519-1.067.362.456.65.811 1.013 1.267zm-1.032-2.176c-.163-.25-.288-.431-.457-.68.426-.212.8-.393 1.182-.58l.075.093c-.25.368-.506.736-.8 1.167M90.92 57.8c-.275-.424-.544-.855-.825-1.273-.15-.224-.307-.455-.5-.642-.275-.262-.576-.18-.657.187-.062.28-.056.58-.056.867-.006.636 0 1.273 0 1.934-.682.28-1.376.549-2.051.848a3.9 3.9 0 0 0-.894.549c-.275.23-.206.492.131.623.181.069.375.1.57.125.712.081 1.431.15 2.206.225 0 .293-.018.567 0 .835.038.406.07.817.182 1.21.118.412.475.475.75.15.188-.218.325-.486.463-.742.231-.424.444-.86.687-1.341.688.125 1.357.25 2.026.374.113.019.225.075.338.087.256.02.419-.193.287-.417-.1-.181-.268-.33-.412-.493q-.63-.722-1.257-1.453c.175-.281.294-.506.444-.705.425-.561.863-1.104 1.294-1.665.132-.175.35-.319.27-.618-.451-.062-.582.418-.932.518-.332.093-.638.287-.957.436-.332.156-.67.312-.994.468-.088-.062-.113-.069-.12-.081zm-1.576 2.981c0-.517-.018-.98.013-1.44.006-.12.138-.275.256-.337.363-.194.738-.35 1.163-.543.207.312.4.617.613.942-.256.486-.506.967-.781 1.49zm-2.988-.206c-.006-.05-.019-.093-.025-.143.781-.487 1.675-.717 2.588-1.148-.025.555-.05.992-.075 1.49-.869-.068-1.682-.136-2.488-.199m4.214-2.47c-.406.181-.763.337-1.188.524-.038-.83-.075-1.565-.113-2.307.044-.013.094-.032.138-.044.431.549.775 1.16 1.163 1.821zm-1.3 3.138 1.119.106c-.3.58-.57 1.098-.838 1.621-.063-.012-.119-.03-.181-.043l-.1-1.678zm3.413-.119c-.55-.068-.994-.125-1.532-.193.176-.362.326-.68.52-1.067.362.456.65.811 1.012 1.266zm-1.031-2.177c-.163-.25-.288-.43-.457-.68.426-.212.8-.392 1.182-.58l.075.094c-.25.368-.506.736-.8 1.166M8.996 58.472c-.275-.424-.544-.855-.825-1.273-.15-.224-.306-.455-.5-.642-.275-.262-.575-.181-.657.187-.062.28-.056.58-.056.867-.006.636 0 1.272 0 1.934-.682.28-1.376.548-2.05.848a3.9 3.9 0 0 0-.895.549c-.275.23-.206.492.131.623.182.069.375.1.57.125.712.081 1.431.15 2.206.225 0 .293-.018.567 0 .835.038.406.07.817.182 1.21.119.412.475.474.75.15.188-.218.325-.486.463-.742.231-.424.444-.86.688-1.341.687.125 1.356.25 2.025.374.113.019.226.075.338.087.256.02.419-.193.288-.417-.1-.181-.27-.331-.413-.493q-.629-.722-1.257-1.454c.175-.28.294-.505.444-.704.425-.562.863-1.104 1.294-1.666.132-.174.35-.318.27-.617-.45-.062-.582.418-.932.518-.332.093-.638.286-.957.436-.331.156-.669.312-.994.468-.088-.062-.113-.069-.119-.081zm-1.575 2.981c0-.518-.02-.98.012-1.44.006-.12.138-.275.257-.338.362-.193.737-.349 1.163-.542.206.312.4.617.612.942-.256.486-.506.966-.781 1.49zm-2.99-.206c-.005-.05-.018-.093-.024-.143.781-.487 1.676-.718 2.588-1.148-.025.555-.05.992-.075 1.49-.869-.068-1.681-.136-2.488-.199m4.215-2.47c-.406.181-.763.337-1.188.524-.037-.83-.075-1.565-.112-2.308.043-.012.093-.03.137-.043.432.549.776 1.16 1.163 1.821zm-1.3 3.138 1.119.106c-.3.58-.57 1.097-.838 1.621-.063-.012-.119-.03-.181-.043l-.1-1.678zm3.414-.119-1.532-.193c.175-.362.325-.68.519-1.067.362.456.65.811 1.013 1.266zM9.728 59.62c-.163-.25-.288-.43-.457-.68.426-.212.8-.392 1.182-.58l.075.094c-.25.368-.506.736-.8 1.166M40.684 7.303c-.275-.424-.544-.855-.825-1.273-.15-.224-.307-.455-.5-.642-.276-.262-.576-.181-.657.187-.063.28-.056.58-.056.867-.007.636 0 1.272 0 1.934-.682.28-1.376.548-2.051.848a3.9 3.9 0 0 0-.895.549c-.275.23-.206.492.132.623.181.069.375.1.569.125.713.081 1.432.15 2.207.225 0 .293-.019.567 0 .835.038.406.069.818.181 1.21.12.412.475.474.75.15.188-.218.326-.486.463-.742.232-.424.444-.86.688-1.341.688.125 1.357.25 2.026.374.112.019.225.075.338.087.256.02.418-.193.287-.417-.1-.181-.269-.331-.413-.493-.418-.48-.837-.967-1.256-1.453.175-.281.294-.506.444-.705.425-.562.862-1.104 1.294-1.666.131-.174.35-.318.269-.617-.45-.062-.582.418-.932.518-.331.093-.638.287-.956.436-.332.156-.67.312-.995.468-.087-.062-.112-.069-.118-.081zm-1.576 2.981c0-.518-.019-.98.013-1.44.006-.12.137-.275.256-.337.363-.194.738-.35 1.163-.543.206.312.4.617.613.942-.257.486-.507.966-.782 1.49zm-2.989-.206c-.006-.05-.018-.093-.025-.143.782-.487 1.676-.717 2.589-1.148-.025.555-.05.992-.075 1.49-.87-.068-1.682-.136-2.489-.199m4.215-2.47c-.407.181-.763.337-1.188.524-.038-.83-.075-1.565-.113-2.307.044-.013.094-.032.138-.044.431.549.775 1.16 1.163 1.821zm-1.3 3.138 1.118.106c-.3.58-.569 1.097-.837 1.621-.063-.012-.12-.03-.182-.043-.031-.537-.062-1.067-.1-1.678zm3.413-.119-1.532-.193c.175-.362.325-.68.52-1.067.362.456.65.811 1.012 1.266zM41.415 8.45c-.162-.25-.287-.43-.456-.68.425-.212.8-.392 1.182-.58l.075.094c-.25.368-.507.736-.8 1.166M108.948 85.957c-.275-.424-.543-.854-.825-1.272-.15-.225-.306-.456-.5-.643-.275-.262-.575-.18-.657.187-.062.281-.056.58-.056.867-.006.636 0 1.273 0 1.934-.681.28-1.375.549-2.051.848a3.9 3.9 0 0 0-.894.549c-.275.23-.206.493.131.624.182.068.376.1.569.124.713.082 1.432.15 2.208.225 0 .293-.019.567 0 .836.037.405.068.817.181 1.21.119.411.475.474.75.15.188-.219.325-.487.463-.743.231-.424.444-.86.688-1.34.688.124 1.357.249 2.026.373.112.02.225.075.337.088.257.019.419-.194.288-.418-.1-.181-.269-.33-.413-.493q-.628-.722-1.257-1.453c.175-.28.294-.505.444-.705.426-.561.863-1.104 1.295-1.665.131-.175.35-.318.268-.618-.45-.062-.581.418-.931.518-.332.094-.638.287-.957.437-.331.156-.669.311-.994.467-.088-.062-.113-.068-.119-.08zm-1.575 2.981c0-.517-.019-.979.012-1.44.007-.119.138-.275.257-.337.362-.194.737-.35 1.163-.543.206.312.4.618.612.942-.256.486-.506.967-.781 1.49zm-2.989-.206c-.006-.05-.019-.093-.025-.143.782-.486 1.676-.717 2.589-1.147-.025.555-.05.991-.075 1.49-.87-.069-1.682-.137-2.489-.2m4.214-2.47c-.406.181-.762.338-1.188.525-.037-.83-.075-1.566-.112-2.308.044-.013.094-.031.137-.044.432.549.776 1.16 1.163 1.821zm-1.3 3.138c.4.037.713.069 1.119.106-.3.58-.569 1.098-.838 1.622-.062-.013-.119-.032-.181-.044l-.1-1.678zm3.414-.119c-.551-.068-.994-.124-1.532-.193.175-.362.325-.68.519-1.066.362.455.65.81 1.013 1.266zm-1.032-2.176c-.163-.25-.288-.43-.456-.68.425-.212.8-.393 1.181-.58l.075.093c-.25.368-.506.736-.8 1.167"/></g><defs><clipPath id="clip0_78_2456"><path fill="#fff" d="M0 0h120v120H0z"/></clipPath></defs></svg>