<svg xmlns="http://www.w3.org/2000/svg" width="120" height="120" fill="none"><g fill="#fff" clip-path="url(#clip0_78_980)"><path d="M18.304 21.296c-1.34-2.964-2.314-6.068-3.161-9.222 1.05 3.079 2.112 6.157 3.161 9.222M18.911 5.779c.961-.681 1.922-1.363 2.871-2.031-.784.933-1.77 1.564-2.87 2.031M14.345 4.959c-1.302.416-2.567.971-3.971 1.06 1.303-.417 2.605-.833 3.908-1.262.013.063.038.126.05.19zM10.842 6.763c.822-.265 1.631-.53 2.453-.782l.038.113c-.392.126-.784.253-1.163.379-.418.139-.848.265-1.265.403-.025-.037-.038-.063-.063-.1zM19.265 4.58c.543-.252 1.087-.504 1.619-.757l.075.152c-.543.252-1.087.492-1.631.744-.025-.05-.038-.088-.063-.139M18.645 31.604c.278-1.968.493-3.81.227-5.728.607 1.085.493 4.617-.227 5.728"/><path d="M22.83 4.87c.62-.668.633-1.463.19-2.333-.43-.846-1.113-1.25-2.036-1.174-.493.05-.999.14-1.467.303-1.315.442-2.63.934-3.933 1.413-.67.24-1.328.517-1.998.745-1.569.542-3.162.996-4.655 1.728-.354.177-.594.391-.746.757-.329.782-.038 1.791.81 2.309.948.58 1.859 1.324 3.149 1.11.215.605.48 1.16.62 1.74.379 1.73.973 3.382 1.618 5.022 1.088 2.775 1.821 5.652 2.34 8.566.127.732.164 1.526.05 2.27-.328 2.158-.847 4.265-1.757 6.27-1.088 2.423-2.138 4.858-3.238 7.268-1.252 2.775-2.504 5.563-3.44 8.465-.658 2.069-1.012 4.176-.974 6.358.025 1.338.316 2.6 1.037 3.747.797 1.262 1.973 1.855 3.415 1.653 1.176-.164 2.34-.543 3.503-.833.304-.075.595-.202.898-.29 2.29-.618 4.566-1.224 6.855-1.83a79 79 0 0 1 2.985-.718c.72-.164 1.454-.24 2.15-.467 3.794-1.25 7.588-2.51 11.382-3.797 1.543-.518 3.086-1.048 4.604-1.653 1.517-.606 2.972-1.338 4.199-2.448.872-.794 1.353-1.791 1.631-2.914.215-.845-.14-1.54-.443-2.321-.682-1.703-1.732-3.129-3.022-4.378-2.353-2.296-4.933-4.327-7.626-6.232a104 104 0 0 1-5.35-4.025c-1.202-.971-2.252-2.144-3.453-3.116-1.442-1.16-2.314-2.636-2.82-4.352-.81-2.7-1.948-5.261-2.985-7.885-.936-2.372-1.809-4.756-2.707-7.14-.075-.215-.139-.442-.202-.644.544-.442 1.025-.757 1.417-1.173m-6.298 5.4h.038c-.151-.48-.316-.959-.48-1.488l1.353-.442c.126.303.265.618.443 1.047-.102-.441-.165-.744-.253-1.135.733-.278 1.467-.543 2.238-.833.101.202.215.353.266.505.733 2.22 1.442 4.453 2.213 6.648.759 2.183 1.568 4.34 2.694 6.371.038.063.088.114.114.152-.848-2.259-1.746-4.53-2.555-6.825-.81-2.297-1.543-4.618-2.327-7.002q.36-.152.872-.34c.076.239.14.428.203.63 1.012 3.267 2.2 6.46 3.503 9.613a58 58 0 0 1 1.657 4.592c.607 1.88 1.467 3.57 3.06 4.845 1.227.984 2.29 2.182 3.516 3.166A106 106 0 0 0 38.5 33.85c2.644 1.88 5.173 3.886 7.5 6.144 1.353 1.312 2.428 2.813 3.187 4.554.228.518.152 1.035.026 1.54-.33 1.375-1.126 2.397-2.302 3.166-1.695 1.098-3.567 1.792-5.451 2.448-3.25 1.135-6.5 2.283-9.764 3.393a82 82 0 0 1-4.92 1.464c-1.39.378-2.82.618-4.224.984-1.859.492-3.693 1.047-5.54 1.602-.86.252-1.694.568-2.541.845-.367.126-.822.404-1.1.29-.43-.176-.709.114-1.05.089-.392-.038-.784-.038-1.176-.076-1.126-.114-1.86-.782-2.353-1.754-.455-.908-.657-1.88-.683-2.889-.038-2.182.342-4.289 1.025-6.345.936-2.826 2.162-5.526 3.377-8.239 1.075-2.396 2.112-4.806 3.2-7.203.91-2.031 1.416-4.176 1.795-6.346.253-1.489-.088-2.927-.417-4.365a53.3 53.3 0 0 0-2.694-8.553c-.607-1.502-1.012-3.079-1.543-4.694.696-.227 1.378-.441 2.163-.693.24.618.48 1.236.708 1.867.038 0 .063-.026.101-.038-.202-.644-.417-1.274-.632-1.956.19-.088.329-.151.582-.265.265.518.493.984.733 1.439zm2.606-7.822c.543-.189 1.113-.302 1.682-.403.758-.139 1.201.1 1.543.77.392.756.366 1.236-.253 1.766-.709.605-1.404 1.223-2.34 1.526-.923.303-1.758.807-2.643 1.211-.784.353-1.556.656-2.466.681-.848.013-1.708.316-2.543.505-.822.19-1.53.076-2.213-.454-.594-.467-.708-1.072-.695-1.741 0-.316.24-.43.505-.517 1.215-.43 2.416-.87 3.63-1.3 0 .013.013.038.025.05 1.923-.693 3.845-1.412 5.78-2.08z"/><path d="M34.541 36.297c-.81-.24-1.34.177-1.328 1.022 0 .151.038.315.038.466 0 .455-.063.53-.53.593-.671.076-1.228-.164-1.746-.555-.392-.29-.822-.593-1.277-.719-.962-.265-1.746.29-1.86 1.274-.038.392-.012.783.026 1.174.05.517.177 1.034.227 1.551.076.858-.29 1.413-1.1 1.691-.734.252-1.48.227-2.112-.252a10 10 0 0 1-1.391-1.275c-.494-.542-.91-1.16-1.417-1.69-.329-.353-.405-.694-.29-1.136.113-.479.164-.983.24-1.476a.7.7 0 0 1-.165-.025c-.126.631-.24 1.25-.38 1.968-.277-.202-.454-.34-.632-.467.253-1.362.62-2.661.582-4.011-.265 1.3-.518 2.599-.784 3.898-1.48-.24-1.555-.227-3.01.404.19-.631.392-1.224.531-1.83.14-.618.443-1.223.33-1.892-.09.013-.127 0-.127.025-.076.164-.152.328-.203.492-.506 1.767-1.176 3.482-1.935 5.16-1.037 2.271-2.074 4.542-3.035 6.85-.633 1.527-1.138 3.104-1.67 4.668a4 4 0 0 0-.1 2.183c.227 1.022.973 1.703 1.998 1.855a6.7 6.7 0 0 0 2.504-.076c2.542-.58 5.084-1.098 7.563-1.943.923-.316 1.859-.593 2.795-.858 1.67-.467 3.364-.858 5.008-1.375 2.416-.757 4.78-1.615 7.184-2.397 1.29-.416 2.466-1.035 3.655-1.665.784-.417 1.1-1.098 1.087-1.943 0-1.123-.493-2.07-1.113-2.977-1.163-1.666-2.605-3.091-4.009-4.542-.91-.946-1.985-1.69-3.2-2.523.114.277.165.403.253.656-.278-.114-.442-.202-.607-.253zM20.68 39.274c.986.278.455 1.072.607 1.653.076-.265.152-.517.266-.896.328.416.607.757.885 1.098.582.744 1.176 1.488 1.973 2.018 1.062.707 2.175.72 3.288.152.885-.455 1.278-1.224 1.176-2.208-.038-.366-.139-.72-.177-1.085-.05-.492-.126-.997-.114-1.489.026-.618.468-.883 1.05-.656.304.126.595.34.848.555.708.593 1.492.846 2.415.732.848-.114 1.164-.467 1.126-1.3 0-.252-.013-.504-.026-.857.772.126 1.29.946 2.113.567.43.417.86.783 1.252 1.212 1.404 1.526 2.908 2.964 4.072 4.693.38.555.708 1.173.91 1.816.355 1.11.064 1.615-.96 2.183-1.62.896-3.377 1.463-5.123 2.044-2.504.82-4.995 1.665-7.5 2.472-.62.202-1.277.303-1.91.48-2.124.618-4.223 1.287-6.36 1.867a85 85 0 0 1-5.3 1.211c-.531.114-1.1.063-1.644 0-.898-.088-1.518-.681-1.568-1.59-.038-.567-.013-1.173.152-1.703.518-1.627 1.075-3.242 1.72-4.819a208 208 0 0 1 3.262-7.519c.355-.782 1.164-1.098 1.999-1.16.417-.038.86.126 1.29.189-.076.593-.127 1.085-.19 1.564H20.2c.152-.404.304-.807.468-1.236zM31.532 32.424c-.24-.19-.506-.353-.734-.568-2.162-2.019-3.87-4.39-5.286-6.964-.026-.038 0-.1-.026-.227.114.101.228.151.279.24 1.555 2.687 3.389 5.147 5.678 7.267.05.05.076.138.114.201zM30.254 32.474c-.126-.075-.29-.113-.38-.214a536 536 0 0 1-3.73-3.835 1.74 1.74 0 0 1-.417-.783c.543.593 1.075 1.199 1.631 1.78.822.857 1.657 1.69 2.479 2.535.164.164.278.366.417.542zM43.394 49.82c-1.96.77-3.92 1.553-5.88 2.322-.013-.038-.039-.076-.051-.126 1.96-.807 3.908-1.602 5.868-2.41.025.063.038.14.063.202zM38.526 50.755c1.088-.467 2.112-.921 3.15-1.376-.43.467-1.847 1.085-3.15 1.376M11.322 47.828c.291-.96.57-1.918.86-2.877.05.013.114.038.165.05-.215.985-.57 1.93-.873 2.902zM44.142 46.995c.392-.732.784-1.463.632-2.498.405.82.177 1.64-.632 2.498M10.892 46.503c-.202.833-.405 1.665-.62 2.498a4.87 4.87 0 0 1 .57-2.523zM45.886 45.57c-.101.744-.316 1.097-.91 1.5.303-.491.581-.958.91-1.5M9.88 57.92c-.417-.176-.569-.555-.683-.971.24.303.468.618.709.92zM31.558 32.373c.278.202.543.404.822.606-.038.05-.089.1-.127.139-.24-.227-.48-.467-.72-.694z"/><path d="M10.84 46.478c.09-.303.178-.606.254-.909.063.026.126.05.177.063-.127.29-.266.58-.392.87l-.05-.024zM11.65 57.668l.898.063c-.316.113-.632.214-.898-.076zM11.486 58.69h.746c-.252.19-.505.214-.771.038l.025-.05zM41.46 37.256c-.164-.14-.329-.278-.493-.43l.076-.075c.164.139.328.29.493.429zM30.242 32.487c.215.151.443.29.658.441-.038.05-.076.089-.127.14l-.518-.594v.013zM43.534 39.072l-.518-.441a.3.3 0 0 1 .088-.089c.165.152.342.29.506.442-.025.025-.05.063-.076.088M11.65 57.656c-.24-.038-.48-.064-.72-.102.29-.163.518-.113.72.114zM9.905 57.87c.203.113.418.24.62.353-.038.05-.063.101-.101.151-.177-.15-.367-.302-.544-.454z"/><path d="M11.474 58.74c-.24-.05-.468-.1-.708-.164.012-.063.038-.113.05-.176.228.1.443.189.67.29l-.025.05zM17.671 47.638c.266-.012.418-.063.544-.025.759.24 1.48 1.236 1.492 2.044.013.833-.505 1.552-1.188 1.615-.76.075-1.556-.555-1.708-1.337-.151-.858.291-1.502 1.354-1.742-.253.19-.38.29-.506.392-.721.58-.557 1.69.29 2.069.456.201.898.025 1.1-.455.216-.517.09-.996-.227-1.4-.303-.378-.683-.694-1.15-1.16M27.712 46.995c.443.391.987.353 1.316-.05.354-.43.329-1.073-.114-1.388-.304-.215-.696-.354-1.075-.417-.468-.075-.595.063-.645.556-.025.201 0 .403 0 .643.177.227.329.48.531.669zm.848-.971c.088.126.076.39 0 .542-.038.088-.354.126-.468.05a1.05 1.05 0 0 1-.418-.517c-.037-.1.152-.277.266-.467.24.14.48.227.607.392zM31.57 43.702c.14.391.519.568.886.416.43-.176.784-.794.644-1.148-.126-.315-.632-.504-1.024-.378-.417.139-.658.669-.506 1.098zm.949-.429c0 .139-.203.278-.316.417-.064-.013-.114-.038-.178-.05-.025-.203-.063-.392-.088-.594.076-.038.14-.088.215-.126.126.114.367.24.367.353M34.25 41.167c.367.075.67.252.86.592.165.278.165.556-.088.783-.215.201-.48.227-.72.063-.267-.177-.368-.43-.254-.745.076-.214.127-.441.215-.694zM20.668 45.796c.43.354.506.745.367 1.161-.05.151-.278.29-.442.328-.064.013-.266-.227-.291-.366-.064-.39 0-.77.38-1.11zM20.01 41.406c.063-.303.139-.593.202-.895h-.013c-.076.302-.139.592-.215.895z"/><path d="m19.998 41.393-.064.808a.68.68 0 0 1 .076-.795h-.025zM20.92 42.087a9 9 0 0 1 .165-.618c.038 0 .063 0 .101.013-.05.202-.088.416-.139.618h-.114zM49.294 94.004c.439-.97.757-1.984 1.034-3.016q-.516 1.512-1.034 3.016M49.096 88.93l-.94-.665c.257.306.58.512.94.665M50.589 88.662c.426.136.84.317 1.299.346a154 154 0 0 1-1.278-.412c-.004.02-.013.04-.017.061zM51.734 89.251c-.269-.086-.533-.173-.802-.255l-.012.037.38.123c.137.046.277.087.414.132l.02-.032zM48.98 88.538q-.268-.124-.53-.248l-.025.05c.178.082.356.16.534.243zM49.183 97.375c-.091-.644-.162-1.246-.075-1.873-.198.355-.161 1.51.075 1.873"/><path d="M47.814 88.633c-.203-.22-.207-.479-.062-.764.14-.276.364-.408.666-.383.161.016.327.045.48.099.43.144.86.305 1.286.462.219.078.434.169.653.243.513.177 1.034.326 1.522.565a.46.46 0 0 1 .244.248.62.62 0 0 1-.264.755c-.31.19-.608.433-1.03.363-.07.198-.157.38-.203.57-.124.564-.318 1.105-.53 1.641a14.7 14.7 0 0 0-.764 2.802c-.042.239-.054.499-.017.742.108.706.277 1.395.575 2.05.356.793.699 1.589 1.059 2.377.41.908.819 1.819 1.125 2.768.215.677.33 1.366.318 2.079-.008.438-.103.85-.339 1.226-.26.412-.645.606-1.117.54-.384-.053-.765-.177-1.145-.272-.1-.025-.195-.066-.294-.095-.749-.202-1.493-.4-2.242-.598-.322-.087-.649-.161-.976-.235-.235-.054-.475-.079-.703-.153q-1.86-.611-3.722-1.242a28 28 0 0 1-1.506-.54c-.496-.198-.971-.438-1.373-.801-.285-.259-.442-.585-.533-.953-.07-.276.045-.503.145-.759a4.1 4.1 0 0 1 .988-1.431c.77-.751 1.613-1.415 2.494-2.038a34 34 0 0 0 1.75-1.316c.392-.318.736-.702 1.129-1.02.471-.379.757-.862.922-1.423.265-.883.637-1.72.976-2.578.306-.776.591-1.556.885-2.335.025-.07.046-.145.066-.21-.178-.145-.335-.248-.463-.385m2.06 1.765h-.013c.05-.156.104-.313.157-.486l-.442-.145c-.041.1-.087.202-.145.343l.083-.372c-.24-.09-.48-.177-.732-.272-.033.066-.07.115-.087.165-.24.726-.472 1.456-.724 2.174-.248.714-.513 1.42-.88 2.084-.013.02-.03.037-.038.05.277-.74.57-1.482.835-2.233.265-.75.505-1.51.761-2.29a7 7 0 0 0-.285-.111l-.066.206a37 37 0 0 1-1.146 3.144c-.202.49-.38.994-.542 1.502-.198.614-.48 1.167-1 1.584-.402.322-.749.714-1.15 1.035q-.863.695-1.77 1.333a21 21 0 0 0-2.453 2.009c-.443.429-.794.92-1.042 1.49-.075.169-.05.338-.008.503.107.45.368.784.752 1.035.554.359 1.167.586 1.783.801 1.063.371 2.126.747 3.193 1.11q.795.264 1.609.478c.454.124.922.202 1.381.322.608.161 1.208.342 1.812.524.28.082.554.186.83.276.12.042.27.132.36.095.141-.058.232.037.344.029.128-.012.256-.012.385-.025.368-.037.607-.255.769-.573.149-.297.215-.615.223-.945a6.2 6.2 0 0 0-.335-2.075c-.306-.924-.707-1.807-1.104-2.694-.352-.784-.69-1.572-1.047-2.356-.297-.664-.463-1.365-.587-2.075-.083-.487.03-.957.137-1.427q.322-1.437.88-2.798c.2-.49.331-1.006.505-1.534-.227-.075-.45-.145-.707-.227q-.119.302-.232.61c-.012 0-.02-.008-.033-.012.066-.21.137-.417.207-.64l-.19-.086c-.087.169-.161.322-.24.47zm-.852-2.558a3.6 3.6 0 0 0-.55-.132c-.249-.045-.393.033-.505.252-.128.248-.12.404.083.578.231.198.459.4.765.499.302.099.575.264.864.396.257.115.509.214.807.223.277.004.558.103.831.165.269.062.5.025.724-.149.194-.153.231-.35.227-.57 0-.102-.078-.14-.165-.168-.397-.14-.79-.285-1.187-.425a.03.03 0 0 1-.008.016c-.629-.227-1.258-.462-1.89-.68z"/><path d="M43.984 98.91c.265-.079.439.057.435.334 0 .05-.013.103-.013.152 0 .149.021.174.174.194.22.025.401-.053.57-.181.129-.095.27-.194.419-.236.314-.086.57.095.607.417.013.128.005.256-.008.384-.016.169-.058.338-.074.507-.025.281.095.462.36.553.24.083.483.074.69-.082a3.3 3.3 0 0 0 .455-.417c.162-.177.298-.38.463-.553a.36.36 0 0 0 .096-.371c-.038-.157-.054-.322-.08-.483a.2.2 0 0 0 .055-.008c.041.206.078.408.124.643.09-.066.149-.111.207-.152-.083-.446-.203-.87-.19-1.312q.127.637.256 1.275c.484-.079.508-.075.984.132-.062-.207-.128-.4-.174-.599-.045-.202-.144-.4-.107-.618.029.004.041 0 .041.008.025.053.05.107.066.16.166.578.385 1.14.633 1.688.34.743.678 1.485.993 2.24.207.5.372 1.015.546 1.527q.116.347.033.714a.76.76 0 0 1-.654.606c-.277.041-.55.037-.819-.025-.83-.19-1.662-.359-2.473-.635a19 19 0 0 0-.914-.281c-.546-.152-1.1-.28-1.638-.449-.79-.248-1.563-.528-2.349-.784-.422-.136-.806-.338-1.195-.545-.257-.136-.36-.359-.356-.635 0-.367.162-.677.364-.974.38-.544.852-1.011 1.311-1.485.298-.31.65-.553 1.047-.825-.038.09-.054.132-.083.214.09-.037.145-.066.198-.082zm4.533.973c-.322.09-.149.351-.198.541l-.087-.293c-.108.136-.199.247-.29.359-.19.243-.384.486-.645.66-.347.231-.711.235-1.075.049-.29-.148-.418-.4-.385-.722.013-.119.046-.235.058-.355.017-.16.042-.326.037-.487-.008-.202-.153-.288-.343-.214-.1.041-.194.111-.277.181a.99.99 0 0 1-.79.24c-.277-.037-.38-.153-.368-.425 0-.083.004-.165.008-.28-.252.04-.422.309-.69.185-.141.136-.282.256-.41.396-.459.499-.951.97-1.332 1.535a2.3 2.3 0 0 0-.297.594c-.116.363-.021.528.314.714.53.293 1.104.478 1.675.668.819.268 1.634.545 2.453.809.202.066.417.099.624.156.695.202 1.381.421 2.08.611.571.153 1.154.28 1.733.396.174.037.36.021.538 0 .294-.029.496-.223.513-.52a1.6 1.6 0 0 0-.05-.557 21 21 0 0 0-.562-1.576 68 68 0 0 0-1.067-2.459c-.116-.255-.38-.359-.654-.38-.136-.012-.281.042-.422.063.025.194.042.354.062.511h.005l-.153-.404zM44.968 97.643c.079-.062.166-.116.24-.186.708-.66 1.266-1.436 1.729-2.277.008-.013 0-.033.008-.075-.037.033-.074.05-.09.079-.51.879-1.11 1.683-1.858 2.376-.016.017-.025.046-.037.066zM45.387 97.66c.04-.025.095-.038.124-.07.41-.417.814-.834 1.22-1.255a.57.57 0 0 0 .136-.256c-.178.194-.351.392-.533.582-.27.28-.542.553-.811.83-.054.053-.091.119-.137.177zM41.089 103.332c.64.252 1.282.508 1.923.759.004-.012.012-.025.016-.041q-.959-.394-1.919-.788c-.008.021-.012.045-.02.066zM42.682 103.637c-.356-.152-.691-.301-1.03-.449.14.152.604.355 1.03.449M51.577 102.68c-.095-.313-.186-.627-.281-.94l-.054.016c.07.322.186.631.286.949zM40.845 102.408c-.128-.239-.257-.479-.207-.817-.132.268-.058.536.207.817M51.718 102.247q.098.408.202.817a1.6 1.6 0 0 0-.186-.825zM40.275 101.942c.033.243.103.359.297.491-.099-.161-.19-.314-.297-.491M52.05 105.981c.136-.058.185-.182.223-.318-.08.099-.154.202-.232.301z"/><path d="m44.96 97.627-.268.198.041.045c.079-.074.157-.153.236-.227zM51.735 102.239q-.044-.148-.083-.297l-.058.02.129.285.016-.008zM51.47 105.898l-.294.021c.103.037.207.07.294-.025zM51.524 106.232h-.244c.083.062.165.071.252.013l-.008-.017zM41.722 99.223q.08-.067.16-.14l-.024-.025c-.054.045-.107.095-.161.14zM45.39 97.664c-.07.05-.145.094-.215.144q.017.022.04.045.09-.1.17-.194v.004zM41.043 99.817l.17-.144a.1.1 0 0 0-.03-.03q-.081.073-.164.145.012.013.024.03M51.47 105.894l.236-.033c-.095-.054-.17-.037-.236.037zM52.04 105.964l-.202.116c.012.016.02.033.033.049l.178-.148z"/><path d="M51.528 106.249c.079-.017.153-.033.232-.054-.004-.02-.013-.037-.017-.058l-.219.095.008.017zM49.501 102.618c-.087-.004-.136-.02-.178-.008-.248.079-.483.405-.488.669-.004.272.166.507.39.528.247.024.508-.182.557-.438.05-.28-.095-.491-.442-.569.083.062.124.095.165.128a.398.398 0 0 1-.095.677c-.149.066-.293.008-.36-.149a.44.44 0 0 1 .075-.458c.1-.124.223-.227.376-.38M46.217 102.408c-.144.128-.322.115-.43-.017-.116-.14-.107-.35.038-.453a.9.9 0 0 1 .351-.137c.153-.024.194.021.21.182.01.066 0 .132 0 .21-.057.075-.107.157-.173.219zm-.277-.318c-.029.042-.024.128 0 .178.013.029.116.041.153.016a.34.34 0 0 0 .137-.169c.012-.033-.05-.091-.087-.153-.079.046-.157.075-.199.128zM44.956 101.331c-.046.128-.17.186-.29.136-.14-.058-.256-.26-.21-.375.04-.103.206-.165.334-.124.137.045.215.219.166.359zm-.31-.14c0 .045.066.091.103.136q.028-.008.058-.017c.008-.066.02-.127.029-.193q-.036-.021-.07-.042c-.042.037-.12.079-.12.116M44.08 100.502a.4.4 0 0 0-.281.194c-.054.091-.054.181.029.256.07.066.157.074.235.02.087-.057.12-.14.083-.243-.025-.07-.041-.145-.07-.227zM48.522 102.016c-.141.115-.166.243-.12.379.016.05.09.095.144.108.021.004.087-.075.096-.12a.37.37 0 0 0-.125-.363zM48.736 100.58c-.02-.099-.046-.194-.066-.293h.004c.025.099.045.194.07.293z"/><path d="m48.742 100.576.02.264a.23.23 0 0 0-.025-.26h.009zM48.439 100.803a3 3 0 0 0-.054-.202c-.013 0-.021 0-.033.004q.023.101.045.202h.037zM75.743 11.18c-.056.81-.145 1.618-.178 2.438-.022.532-.189.798-.655.909-.8.2-1.589.476-2.377.754-.256.088-.478.288-.867.52 1 1.186 2.277 1.13 3.31 1.729-.055.654-.133 1.296-.155 1.95-.011.432-.078.975.355 1.186.456.21.667-.288.9-.632.422-.61.822-1.23 1.244-1.861.456.188.833.365 1.222.51.389.143.733.63 1.255.21-.133-1.075-1.022-1.662-1.244-2.637.6-1.264 1.655-2.072 2.266-3.27l-.1-.199c-1.077.355-2.144.71-3.199 1.053-.555-.975-.81-2.039-1.51-2.737-.1.022-.19.055-.29.078zm1.355 6.228c-.456-.133-.9-.266-1.422-.41.089-.742.167-1.418.256-2.15.422-.11.81-.2 1.277-.321.222.565.422 1.097.644 1.684-.277.432-.5.787-.766 1.197zm-4.388-1.352c0-.077 0-.155-.01-.233.832-.376 1.699-.576 2.71-.82-.09.654-.167 1.175-.256 1.873-.9-.3-1.666-.565-2.444-.82m2.722 3.978c-.156-.953-.067-1.629.166-2.36.334.078.656.166 1.156.288l-1.322 2.083zm2.788-4.41c-.178-.454-.311-.798-.478-1.23.6-.21 1.111-.377 1.622-.554l.067.133c-.367.51-.745 1.008-1.2 1.64zm-2.166-1.507v-.953c0-.277.022-.543.044-.953.467.532.689 1.064.8 1.75-.3.056-.555.09-.844.145zm1.644 3.49c.166-.265.289-.454.444-.709.2.355.367.632.522.909-.033.055-.055.1-.089.155-.255-.1-.522-.21-.877-.355M7.394 67.249c-.244.11-.522.144-.744.277a361 361 0 0 0-5.588 3.468c-.433.277-.8.654-1.155 1.03-.122.123-.166.355-.189.544-.033.255-.022.52 0 .787.023.31 0 .642.111.93.29.754.611 1.496.978 2.228.355.709.8 1.362 1.155 2.072.567 1.108 1.1 2.227 1.655 3.346 1.067 2.172 2.166 4.322 3.188 6.516 1.433 3.069 2.777 6.182 4.21 9.252 1.422 3.025 2.91 6.028 4.377 9.031.556 1.13 1.1 2.271 1.733 3.368.555.964 1.322 1.673 2.521 1.851 1.356.199 2.444.853 3.2 2.05.933 1.496 1.944 2.936 2.91 4.41.378.576.4.598 1.089.676.078.144.155.31.233.465.311.576.6 1.164.933 1.729.256.432.489.443.778.077.277-.354.533-.731.777-1.108.3-.465.367-.975.156-1.485-.123-.31-.3-.598-.456-.908.356-.399.322-.809.178-1.241-.4-1.153-.744-2.327-1.189-3.457-.877-2.217-.777-4.311.534-6.339.088-.144.166-.343.155-.498-.066-.643-.089-1.297-.41-1.895-.456-.831-.867-1.684-1.29-2.538-1.2-2.426-2.377-4.875-3.61-7.29-1.832-3.602-3.71-7.192-5.554-10.793-.944-1.85-1.81-3.746-2.743-5.607a556 556 0 0 0-2.9-5.751c-.622-1.23-1.244-2.46-1.9-3.679-.421-.787-.955-1.418-2.043-1.053-.267-.51-.6-.675-1.089-.454zM26.4 118.686c-.188-.266-.355-.466-.488-.687-.678-1.097-1.344-2.194-2.033-3.28a23 23 0 0 0-1.144-1.596c-.767-.997-1.844-1.429-3.055-1.573-.989-.122-1.7-.643-2.133-1.474-.755-1.418-1.433-2.87-2.144-4.31-.4-.831-.789-1.674-1.177-2.516-1.689-3.6-3.366-7.202-5.055-10.803-1.477-3.147-2.932-6.316-4.42-9.452a202 202 0 0 0-2.456-4.909C1.74 77 1.13 75.936.551 74.873a1.7 1.7 0 0 1-.21-.5c-.156-.742-.156-1.428.655-1.86.5-.267.944-.621 1.433-.898 1.6-.898 3.199-1.784 4.798-2.67.256-.145.511-.289.778-.41.833-.41 1.366-.278 1.922.476a7 7 0 0 1 .555.93c1.089 2.183 2.166 4.377 3.255 6.56 1.91 3.823 3.821 7.635 5.754 11.447 1.577 3.102 3.21 6.172 4.799 9.274 1.1 2.15 2.177 4.322 3.266 6.483.144.277.3.565.477.82.556.809.567 1.462.09 2.304-1.078 1.884-1.312 3.868-.556 5.929.5 1.374 1.01 2.759 1.522 4.133.033.099.055.21.122.432-.944.476-1.844.931-2.8 1.418zM.618 71.992c.144-.366.411-.676.755-.887 1.333-.798 2.678-1.584 4.01-2.382.5-.3 1-.61 1.511-.898.29-.155.6-.332 1.056 0-2.489 1.407-4.91 2.781-7.343 4.156zm26.593 46.926q.245-.121.7.588c-.111-.31-.2-.576-.289-.831.045-.022.1-.056.145-.078.155.222.31.432.533.765a24 24 0 0 0-.333-.854c.277-.144.533-.265.788-.398.789 1.174.656 1.617-.477 2.903-.367-.709-.711-1.408-1.067-2.095"/><path d="M26.312 107.051c-2.255 1.429-4.765 2.316-7.243 3.313.1-.1.19-.21.311-.277.456-.244.922-.499 1.389-.709 1.766-.809 3.543-1.607 5.31-2.405.055-.022.122-.033.188-.055zM11.882 94.674A33.6 33.6 0 0 1 8.05 87.15c1.3 2.56 2.566 5.042 3.832 7.524M21.669 94.153c1.288 2.526 2.566 5.053 3.854 7.579-.333-.565-.689-1.108-.989-1.684-.933-1.784-1.832-3.568-2.754-5.363-.078-.155-.167-.322-.245-.477l.134-.066zM19.28 102.464c.522.886 1.033 1.784 1.555 2.67.511.864 1.045 1.707 1.656 2.704-.212-.144-.311-.178-.356-.255-.989-1.684-1.966-3.38-2.944-5.064.023-.022.056-.033.078-.055zM26.645 112.891c-.023-.211-.023-.433-.067-.643-.178-.898-.389-1.795-.556-2.693-.055-.277-.01-.576.023-.864.3 1.518.61 3.047.9 4.521-.067-.067-.178-.2-.3-.321M25.078 115.672a446 446 0 0 0-2.61-3.712c1.11 1.075 1.888 2.371 2.61 3.712M18.258 108.691c-.744-1.452-1.478-2.914-2.222-4.366.022 0 .045-.022.067-.033.744 1.452 1.477 2.914 2.221 4.366-.022 0-.044.022-.066.033M1.362 73.576c.645 1.352 1.278 2.704 1.922 4.056-.789-1.275-1.51-2.582-1.922-4.056M20.813 103.184c.8 1.374 1.532 2.615 2.255 3.845-.39-.255-1.5-2.128-2.256-3.845M4.24 77.554c-.678-1.34-1.367-2.681-2.045-4.022l.067-.033c.678 1.34 1.366 2.681 2.044 4.022q-.034.013-.067.044zM24.446 101.677c-.633-1.252-1.278-2.504-1.91-3.757.021 0 .044-.022.055-.033.633 1.252 1.277 2.504 1.91 3.757-.022 0-.044.022-.055.033M5.506 72.7c.633 1.242 1.255 2.472 1.889 3.713-.023 0-.034.022-.056.033l-1.9-3.723a.2.2 0 0 0 .067-.022M10.96 73.366c-.578-1.13-1.156-2.26-1.733-3.402.01 0 .022-.011.044-.022.578 1.13 1.155 2.26 1.733 3.401-.011 0-.022.011-.044.023M5.783 72.29a16.3 16.3 0 0 1 1.578 3.103c-.523-1.03-1.056-2.06-1.578-3.102M26.523 104.148c.377.809.733 1.629.41 2.549.112-.898-.2-1.718-.41-2.549M24.69 114.42c-.49-.687-.967-1.385-1.456-2.072l.111-.078 1.433 2.094-.1.067z"/><path d="M26.655 112.891c-.555-.831-.788-1.784-1.01-2.748.333.919.666 1.828 1.01 2.748M17.391 108.226c-.3-.599-.61-1.197-.91-1.795.01 0 .022-.011.044-.023.3.588.6 1.186.9 1.773 0 .011-.023.023-.034.045M9.282 71.294c-.178-.355-.355-.698-.533-1.053a.1.1 0 0 0 .044-.022l.545 1.075zM26.111 105.766l-.2-.887.089-.022.244.875zM9.871 72.712c-.1-.2-.2-.388-.3-.588a.1.1 0 0 0 .045-.022c.1.2.2.388.3.588a.1.1 0 0 0-.045.022M109.233 29.541c.267-.565.611-.809 1.233-.908 2.322-.4 4.355-1.43 5.976-3.147.611-.654 1.078-1.44 1.6-2.172 1.111-1.551 1.744-3.302 2.122-5.153.1-.498.166-1.041.089-1.55-.278-1.807-.5-3.602-1.389-5.286-.633-1.208-1.433-2.272-2.433-3.059-1.544-1.196-3.177-2.327-5.176-2.77-4.044-.897-7.809-.587-11.075 2.238-2.41 2.084-3.833 4.621-3.666 7.901.089 1.94.589 3.756 1.467 5.485.644 1.263 1.355 2.504 1.988 3.767.189.388.333.854.3 1.264-.056.786-.234 1.573-.422 2.349-.067.266-.3.498-.467.731-.1.133-.244.244-.322.388-.578 1.186-1.055 2.427-1.189 3.745-.044.455 0 1.02.245 1.385.344.521.466 1.042.577 1.618.49 2.66 3.433 3.8 5.366 2.737.7-.388 1.477-.62 1.877-1.396.056-.111.2-.177.322-.244.933-.499 1.511-1.307 1.966-2.227.678-1.363.589-1.962-.411-3.092.511-.908 1.033-1.728 1.433-2.604zm-3.01-11.269c.278-1.174-.178-2.183-.711-3.169-.3-.554-.822-.83-1.4-1.02-.511-.165-1.022-.22-1.422.278-.388.487-.666 1.041-.322 1.629.433.742.944 1.44 1.489 2.105.366.443.866.787 1.344 1.208-.7 3.712-2.233 7.125-3.766 10.67-.333-.144-.655-.288-1.011-.443.178-.631.311-1.197.489-1.75.389-1.153.267-2.25-.3-3.314-.666-1.252-1.355-2.504-1.977-3.778-1.089-2.183-1.622-4.477-1.266-6.937.322-2.227 1.544-3.911 3.154-5.352 2.777-2.493 6.054-2.97 9.631-2.382 2.222.366 4.021 1.518 5.71 2.837.888.709 1.599 1.673 2.155 2.748.8 1.529 1.033 3.147 1.277 4.775a5.2 5.2 0 0 1-.055 1.751c-.5 2.46-1.667 4.632-3.288 6.527-1.5 1.75-3.499 2.714-5.754 3.091-.856.144-1.356.499-1.722 1.274-.445.965-1.022 1.873-1.611 2.915-.833-.21-1.622-.4-2.477-.61 1.189-3.845 2.644-7.413 4.488-10.803.5-.045.955-.056 1.399-.133 1-.155 1.844-.61 2.5-1.374.633-.743.6-1.751-.034-2.471-.533-.599-1.288-.776-1.966-.344-.455.3-.844.71-1.199 1.13-.256.31-.423.71-.6 1.086-.645 1.352-1.111 1.518-2.466.81-.123-.067-.223-.156-.356-.256.022-.243.011-.487.067-.72zm1.555 2.228c-1.411 3.49-2.822 6.958-4.243 10.482-.478-.21-1.011-.454-1.644-.732 1.677-3.313 3.21-6.615 3.987-10.294.767.222 1.356.388 1.911.544zm-5.476 11.058a9.6 9.6 0 0 0 4.032 1.13c.366.022.755.078 1.088.233.356.166.611.476.478.93-.122.41-.489.377-.777.322-.989-.177-2.011-.277-2.922-.643-1.533-.62-2.988-1.429-4.476-2.138-.511-.244-.678-.565-.245-1.153.966.444 1.911.843 2.822 1.33zm5.265 3.147c0 .078-.011.144-.022.222-.167.066-.322.177-.489.177-1.555.077-3.055-.244-4.477-.798-1.122-.432-2.166-1.064-3.232-1.64-.456-.244-.611-.643-.245-1.23 2.644 1.607 5.31 3.025 8.454 3.258zm-4.288 3.269c.1.11.178.2.256.288-1.778.343-2.1.343-2.744-.089-.8-.543-1.344-1.263-1.566-2.371 1.855.71 3.454 1.828 5.52 1.762-.455.742-.988.321-1.455.41zm3.777-2.405c-.045.532-.4.687-.844.632-.922-.122-1.889-.144-2.744-.465-1.477-.555-2.888-1.308-4.31-1.995-.322-.155-.744-.344-.344-.898 2.388 1.563 3.721 1.995 8.242 2.737zm-4.01-19.613c-.267-.443-.278-.853.1-1.218.355-.333.711-.1 1.044.066.944.499 1.477 2.061 1.133 3.457a6.3 6.3 0 0 1-2.277-2.305m7.62 1.253c.544-.532 1.044-.588 1.444-.2.467.443.445 1.12-.1 1.64-.7.676-1.533 1.008-2.644.986.323-.975.645-1.784 1.3-2.427m-4.776 19.48c-1.089.376-2.167.077-3.166-.233-2.411-.765-3.666-1.596-4.1-2.615 2.389 1.396 4.644 2.593 7.266 2.847M94.548 6.449c1.01.875 2.277 1.474 3.032 2.792-.977 0-2.443-1.396-3.032-2.792M97.991 1.873c1.422 1.296 2.222 2.548 2.344 3.579-.744-.388-1.866-2.05-2.344-3.58M119.364 1.928c-.656 1.163-1.344 2.294-2.655 3.058.089-.908 1.533-2.548 2.655-3.058M118.908 7.435c.689-.853 2.133-1.728 3.133-1.928-.811 1.252-2.355 2.194-3.133 1.928M102.612 4.155c-.522-1.33-1.011-2.66-1.211-4.155.811.975 1.533 3.291 1.211 4.155M105.912.089c.644 1.163.755 2.548.355 3.38-.489-.5-.344-1.098-.378-1.64-.022-.577 0-1.164.011-1.74z"/><path d="M114.676 24.078c-1.255 1.308-2.366 1.917-3.243 1.895a530 530 0 0 1 3.243-1.895M98.558 12.111c-.122.521-.233 1.042-.355 1.563-.045 0-.09-.023-.134-.034.111-.52.222-1.052.334-1.573l.155.033zM98.78 13.563l.2-1.396s.077 0 .11.01l-.2 1.375h-.121zM112.81 24.256c.266-.189.522-.377.788-.577.034.034.056.078.089.111-.255.2-.511.41-.755.61-.045-.045-.078-.1-.122-.144M115.487 12.278c-.133-.156-.255-.31-.388-.466l.077-.077c.145.144.289.299.434.443l-.134.1zM115.343 10.682c.156.177.311.354.478.52l-.1.1c-.178-.166-.356-.343-.533-.51.055-.033.099-.077.155-.11M67.666 107.605c-.488-.753-.966-1.518-1.466-2.26-.267-.399-.544-.809-.889-1.142-.488-.465-1.022-.321-1.166.333-.111.498-.1 1.03-.1 1.54-.011 1.13 0 2.26 0 3.435-1.21.499-2.444.975-3.643 1.507a6.9 6.9 0 0 0-1.589.975c-.489.41-.366.875.233 1.108.323.122.667.177 1.011.222 1.267.144 2.544.266 3.921.399 0 .52-.033 1.008 0 1.484.067.721.123 1.452.323 2.15.21.731.844.842 1.333.266.333-.388.577-.864.822-1.319.41-.753.788-1.529 1.221-2.382 1.222.222 2.411.443 3.6.665.2.033.4.133.6.155.455.033.744-.343.51-.742-.177-.322-.477-.588-.733-.876a500 500 0 0 1-2.233-2.582c.312-.498.523-.897.79-1.252.755-.997 1.532-1.961 2.299-2.958.233-.31.622-.565.477-1.097-.8-.111-1.033.742-1.655.919-.589.167-1.133.51-1.7.776-.588.277-1.188.554-1.766.831-.155-.111-.2-.122-.21-.144zm-2.799 5.297c0-.92-.033-1.74.022-2.56.011-.211.245-.488.456-.598.644-.344 1.31-.621 2.066-.964.367.554.71 1.097 1.089 1.673-.456.864-.9 1.717-1.389 2.648zm-5.31-.366c-.01-.089-.033-.166-.044-.255 1.389-.864 2.977-1.274 4.599-2.039-.045.986-.09 1.762-.133 2.649-1.545-.122-2.989-.244-4.422-.355m7.487-4.388c-.722.321-1.355.598-2.11.931-.067-1.474-.133-2.781-.2-4.1.078-.022.166-.055.244-.078.767.975 1.378 2.061 2.066 3.236zm-2.31 5.574c.71.066 1.266.122 1.988.188-.533 1.031-1.01 1.95-1.488 2.881-.111-.022-.211-.055-.322-.078-.056-.953-.112-1.894-.178-2.98zm6.065-.211c-.978-.122-1.766-.222-2.722-.343.311-.643.578-1.208.922-1.895.645.809 1.156 1.44 1.8 2.249zm-1.833-3.867c-.289-.443-.51-.765-.81-1.208.755-.377 1.421-.698 2.099-1.03l.133.166c-.444.654-.9 1.307-1.422 2.072M85.398 30.574c-.489-.754-.966-1.518-1.466-2.26-.267-.4-.545-.81-.89-1.142-.488-.465-1.021-.321-1.165.332-.111.5-.1 1.031-.1 1.54-.011 1.13 0 2.261 0 3.436-1.211.498-2.444.975-3.644 1.507a6.9 6.9 0 0 0-1.588.975c-.49.41-.367.875.233 1.108.322.122.666.177 1.01.221 1.267.145 2.544.266 3.922.4 0 .52-.033 1.008 0 1.484.067.72.122 1.452.322 2.15.211.731.844.842 1.333.266.333-.388.578-.864.822-1.319.411-.753.789-1.529 1.222-2.382 1.222.221 2.41.443 3.6.665.199.033.399.133.599.155.455.033.744-.344.51-.743-.177-.32-.477-.587-.732-.875a529 529 0 0 1-2.233-2.582c.311-.498.522-.897.789-1.252.755-.997 1.533-1.961 2.3-2.959.232-.31.621-.565.477-1.096-.8-.111-1.033.742-1.655.92-.59.165-1.133.509-1.7.775-.589.277-1.189.554-1.766.83-.156-.11-.2-.12-.211-.143zm-2.8 5.296c0-.92-.033-1.74.023-2.56.01-.21.244-.487.455-.598.645-.343 1.311-.62 2.066-.964.367.554.711 1.097 1.089 1.674-.455.864-.9 1.717-1.388 2.648zm-5.31-.365c-.01-.089-.032-.166-.044-.255 1.389-.864 2.977-1.274 4.6-2.039-.045.986-.09 1.762-.134 2.648-1.544-.122-2.988-.244-4.421-.354m7.488-4.388c-.722.321-1.355.598-2.11.93-.067-1.473-.134-2.78-.2-4.1.077-.021.166-.055.244-.077.766.975 1.377 2.061 2.066 3.236zm-2.31 5.573c.71.067 1.266.122 1.988.189-.533 1.03-1.011 1.95-1.489 2.88-.11-.021-.21-.055-.322-.077-.055-.953-.111-1.895-.178-2.98zm6.064-.21c-.977-.122-1.766-.222-2.721-.344.31-.642.578-1.208.922-1.895.644.81 1.155 1.441 1.8 2.25zm-1.832-3.867c-.29-.444-.511-.765-.811-1.208.755-.377 1.421-.698 2.1-1.03l.132.166c-.444.653-.9 1.307-1.421 2.072M49.422 68.711c-1.28 1.33-2.336 2.84-3.294 4.402a10 10 0 0 0-1.039 2.313c-.384 1.295.26 2.304 1.558 2.66.886.242 1.79.25 2.668.055 1.199-.268 2.372-.652 3.553-.992.17-.044.331-.107.546-.17.054.233.099.43.135.617.098.5.17 1.018.304 1.509.268 1.009.698 1.929 1.45 2.688.85.848 1.692 1.062 2.81.616.78-.313 1.505-.706 1.997-1.367 1.182.25 2.005-.026 2.417-.857.152-.303.215-.687.188-1.027-.045-.687-.501-1.17-1.03-1.616.43-1.134.851-2.259 1.29-3.393.214.045.367.08.519.116 1.36.366 2.73.706 4.144.822 1.146.098 2.283.098 3.402-.224.77-.214 1.36-.67 1.781-1.348.197-.321.287-.678.08-1.018-.599-.991-1.199-2-2.112-2.759-.349-.286-.68-.58-1.011-.884-.475-.429-.94-.857-1.486-1.357.242-.206.438-.349.617-.518a15.4 15.4 0 0 0 2.426-2.956c.296-.464.493-1 .645-1.536.224-.803 0-1.5-.672-2.036-.456-.366-.868-.776-1.333-1.125-.278-.205-.618-.339-.931-.5-.17-.089-.394-.125-.528-.25-.994-.946-2.211-.812-3 .349-.07.107-.17.223-.277.259-.528.17-1.056.312-1.61.473-.126-.366-.216-.688-.341-1-.573-1.411-1.119-2.84-2.426-3.786-.725-.518-1.468-.733-2.336-.447-.967.322-1.62 1.063-2.158 1.84a12 12 0 0 0-1.727 3.616c-.054.188-.126.366-.197.571-.824-.16-1.62-.303-2.4-.464-1.235-.259-2.47-.384-3.723-.134-1.28.25-2.551.482-3.59 1.384-.698.607-.904 1.277-.573 2.125.323.813.708 1.599 1.406 2.161-.25.768-.143 1.42.465 1.93.627.517 1.298.338 1.952.053.537.321 1.056.625 1.62.964-.08.134-.107.196-.152.241zm13.929-.777c-.018.804-.09 1.608-.135 2.411-.018.357-.17.616-.501.804-.662.366-1.307.786-1.97 1.152-.17.098-.438.143-.617.08-1.889-.696-3.769-1.41-5.657-2.125-.161-.063-.314-.16-.528-.277.053-.777.116-1.554.16-2.33.045-.688.09-1.385.108-2.072.009-.295.099-.51.35-.67 1.047-.687 2.085-1.384 3.132-2.071.224-.143.457-.242.752-.117 1.45.652 2.91 1.277 4.36 1.92.205.09.384.215.528.295 0 1.045.018 2.027 0 3.01zm-10.33 2.322c.214.098.304.241.295.464-.018.447-.054.893-.045 1.34.027 1.294.072 2.59.108 3.893 0 .09-.01.17-.027.285-.376.152-.734.34-1.12.456-1.261.384-2.506.857-3.848.902-.493.018-.994 0-1.468-.09-1.146-.25-1.594-1.062-1.209-2.16.18-.527.394-1.054.671-1.536a28.7 28.7 0 0 1 3.232-4.447c.161-.179.286-.402.394-.554 1.11.536 2.05 1 2.999 1.456zm-4.691-3.277c.277-1.474-.913-2.554-2.211-2.072a3.04 3.04 0 0 1-1.19-1.866c-.17-.795.07-1.34.796-1.714.68-.358 1.414-.536 2.166-.688a9.4 9.4 0 0 1 4.055.018c.761.17 1.531.303 2.364.473-.054.295-.09.536-.135.768-.152.84-.286 1.67-.447 2.51-.045.222-.126.508-.296.633-1.154.857-2.184 1.857-3.178 2.884-.026.027-.08.036-.17.08-.573-.33-1.163-.678-1.736-1.017zm8.835 14.983c-.447.08-.877-.125-1.217-.455a4.9 4.9 0 0 1-1.128-1.572c-.43-1-.591-2.053-.725-3.179.25-.116.492-.223.734-.321 1.826-.768 3.518-1.777 5.147-2.884.403-.268.743-.313 1.172-.107.358.178.743.294 1.2.473-.43 1.16-.85 2.304-1.28 3.447-.734.17-1.522.232-1.826 1.071-.278.75-.197 1.447.358 2.152-.654.804-1.495 1.197-2.435 1.366zM68.73 68.765c.61.526 1.209 1.071 1.809 1.607.707.634 1.19 1.447 1.683 2.25.152.241.125.456-.036.679a2.56 2.56 0 0 1-1.406.973c-1.038.295-2.085.25-3.142.179-1.44-.108-2.828-.465-4.207-.858-.062-.017-.116-.062-.215-.125.17-.678.34-1.366.52-2.053a.57.57 0 0 1 .196-.268l3.93-3.108c.296.242.6.474.886.724zm-3.885-8.572c.457-.117.806-.054 1.209.276.886.724 2.068.384 2.551-.652.027-.062.063-.116.108-.205.286-.027.555.054.787.25.475.402.95.822 1.424 1.223.358.304.5.688.384 1.134-.107.411-.205.84-.42 1.188a16 16 0 0 1-3.151 3.697c-1.218-.83-2.426-1.661-3.554-2.429-.107-1.464-.197-2.84-.304-4.295.295-.054.626-.098.949-.187zm-7.716-3.367c.69-.928 1.71-1.259 2.811-1.348.59-.045 1.038.312 1.343.759.752 1.09 1.262 2.295 1.62 3.572-.09.062-.134.125-.188.142-1.316.375-2.56.956-3.76 1.608-.492.268-.913.312-1.432.035-.609-.33-1.28-.526-1.925-.785-.16-.063-.322-.134-.537-.215.547-1.384 1.218-2.625 2.06-3.759zm-3.088 19.19c-.18-1.778-.215-3.474-.045-5.207 1.88.706 3.724 1.402 5.666 2.135-1.79 1.205-3.562 2.294-5.621 3.071m9.014-15.404c.457 1.134.35 2.295.385 3.536-1.486-.643-2.91-1.25-4.458-1.92 1.343-.785 2.632-1.321 4.073-1.616m1.048 4.849c1.118.607 2.05 1.384 3.15 2.09-1.02 1.008-2.157 1.767-3.339 2.723.072-1.697.126-3.206.197-4.813zM53.307 69.64c-.958-.313-1.764-.768-2.596-1.295.841-.947 1.692-1.822 2.703-2.51l.161.054c-.09 1.233-.179 2.465-.268 3.75m4.136-7.403c-1.066.697-2.015 1.313-3.08 2.01.197-1.063.367-1.992.555-3 .877.339 1.656.651 2.534.99zm3.813 10.582c.573-.34 1.065-.626 1.692-.992-.161.58-.278.992-.412 1.492-.465-.179-.824-.322-1.28-.5"/><path d="M61.14 67.363c-.072 1.009-.331 1.875-1.253 2.518-1.218.857-3.187-.232-3.34-1.625-.151-1.367 1.003-2.733 2.382-2.795 1.137-.045 2.193.857 2.21 1.893zM98.69 54.2c-.979 1.017-1.786 2.171-2.519 3.366a7.6 7.6 0 0 0-.793 1.768c-.295.99.198 1.76 1.19 2.034a4.2 4.2 0 0 0 2.04.04c.917-.204 1.813-.498 2.717-.757.13-.034.253-.082.417-.13.041.178.075.328.103.471.075.383.13.779.232 1.154.206.771.534 1.475 1.109 2.055.65.648 1.293.812 2.149.47.595-.238 1.149-.539 1.526-1.044.903.191 1.533-.02 1.847-.655.117-.232.165-.526.144-.785-.034-.526-.383-.894-.787-1.235.329-.867.65-1.728.986-2.594.164.034.28.06.396.088 1.041.28 2.088.54 3.169.628.876.075 1.745.075 2.6-.17a2.27 2.27 0 0 0 1.362-1.031c.151-.246.219-.519.062-.778-.459-.758-.917-1.53-1.615-2.11-.267-.218-.52-.443-.774-.675-.362-.328-.718-.656-1.136-1.038.185-.157.336-.266.473-.396a11.8 11.8 0 0 0 1.854-2.26c.226-.355.377-.764.493-1.174.171-.614 0-1.147-.513-1.556-.349-.28-.664-.594-1.02-.86-.212-.157-.472-.26-.712-.383-.13-.068-.301-.095-.403-.19-.76-.724-1.691-.622-2.293.266-.055.081-.13.17-.212.197-.404.13-.808.24-1.232.362-.096-.28-.164-.525-.26-.764-.438-1.079-.855-2.171-1.854-2.895-.555-.395-1.123-.56-1.787-.34-.739.245-1.238.811-1.649 1.405a9.2 9.2 0 0 0-1.321 2.765c-.041.143-.095.28-.15.437-.63-.123-1.239-.232-1.834-.355-.944-.198-1.889-.294-2.847-.102-.978.19-1.95.368-2.744 1.058-.534.464-.691.976-.438 1.624.246.622.54 1.222 1.074 1.652-.191.587-.11 1.086.356 1.475.48.396.992.26 1.492.04.41.246.808.479 1.239.738-.062.102-.082.15-.117.184zm10.648-.594c-.014.615-.068 1.23-.103 1.843a.69.69 0 0 1-.383.615c-.506.28-.999.6-1.505.88-.13.075-.336.11-.473.062-1.444-.533-2.881-1.079-4.325-1.625-.123-.048-.239-.123-.403-.211.041-.594.089-1.188.123-1.782.034-.526.068-1.058.082-1.584.007-.225.075-.389.267-.512.801-.525 1.594-1.058 2.395-1.584.171-.109.349-.184.575-.088 1.108.498 2.224.976 3.333 1.467.157.069.294.164.403.226 0 .798.014 1.55 0 2.3zm-7.897 1.775c.164.075.233.184.226.355-.014.342-.041.683-.035 1.024.021.99.055 1.98.083 2.976 0 .069-.007.13-.021.219-.287.116-.561.26-.855.348-.965.294-1.916.655-2.943.69-.376.013-.76 0-1.122-.069-.876-.191-1.218-.812-.924-1.652.137-.402.301-.805.513-1.174a22 22 0 0 1 2.47-3.4c.124-.136.22-.307.302-.423.848.41 1.567.765 2.292 1.113zm-3.586-2.505c.212-1.126-.698-1.952-1.69-1.584a2.33 2.33 0 0 1-.91-1.427c-.13-.607.054-1.023.609-1.31.52-.273 1.08-.41 1.656-.526a7.2 7.2 0 0 1 3.1.014c.581.13 1.17.232 1.806.362-.041.225-.068.41-.102.587-.117.641-.219 1.276-.343 1.918-.034.17-.095.39-.225.485-.883.655-1.67 1.42-2.43 2.204-.02.021-.061.028-.13.062-.438-.253-.89-.519-1.327-.778zm6.754 11.455c-.342.06-.67-.096-.93-.349a3.8 3.8 0 0 1-.863-1.201c-.328-.765-.451-1.57-.554-2.43.192-.089.376-.17.561-.246 1.396-.587 2.69-1.358 3.935-2.205.308-.205.568-.239.897-.082.273.137.568.226.917.362-.329.887-.651 1.761-.979 2.635-.561.13-1.163.177-1.396.82-.212.573-.151 1.105.274 1.644-.5.615-1.143.915-1.862 1.045zm8.842-10.09c.465.403.924.82 1.382 1.229.541.485.91 1.106 1.287 1.72.116.184.096.348-.028.519a1.95 1.95 0 0 1-1.074.744c-.794.225-1.595.191-2.402.137-1.102-.082-2.163-.355-3.216-.656-.048-.013-.089-.047-.165-.095q.193-.781.397-1.57a.43.43 0 0 1 .151-.205l3.004-2.376c.226.185.459.362.677.553zm-2.97-6.553c.349-.089.616-.041.924.212.677.553 1.58.293 1.95-.499.021-.048.048-.089.082-.157a.8.8 0 0 1 .602.191c.363.307.726.628 1.088.936.274.232.384.525.295.866-.082.314-.158.642-.322.908a12.3 12.3 0 0 1-2.409 2.826c-.93-.634-1.854-1.27-2.717-1.856-.082-1.12-.15-2.171-.232-3.284.226-.04.479-.075.725-.143zm-5.899-2.574c.527-.71 1.307-.962 2.149-1.03.451-.035.794.238 1.026.58.575.833.965 1.754 1.239 2.73-.069.048-.103.096-.144.11-1.006.286-1.957.73-2.874 1.228-.376.205-.698.24-1.095.028-.465-.253-.979-.403-1.471-.601-.123-.048-.247-.102-.411-.164a12.4 12.4 0 0 1 1.574-2.874zm-2.361 14.67c-.137-1.358-.164-2.655-.034-3.98 1.437.54 2.847 1.072 4.332 1.632-1.369.922-2.724 1.754-4.298 2.348m6.891-11.775c.349.867.267 1.754.294 2.703-1.136-.492-2.224-.956-3.408-1.468 1.027-.6 2.012-1.01 3.114-1.235m.801 3.706c.855.465 1.567 1.058 2.409 1.598-.78.771-1.65 1.351-2.553 2.082.055-1.297.096-2.45.151-3.68zm-8.253 3.195c-.732-.239-1.348-.587-1.985-.99.644-.723 1.294-1.392 2.067-1.918l.123.041c-.068.942-.137 1.884-.205 2.867m3.161-5.659c-.814.533-1.539 1.004-2.354 1.536l.425-2.294c.67.26 1.266.499 1.936.758zm2.916 8.09c.438-.26.814-.479 1.293-.758-.123.443-.212.757-.315 1.14-.356-.137-.629-.246-.978-.383"/><path d="M107.648 53.17c-.055.77-.253 1.433-.958 1.924-.931.656-2.436-.177-2.553-1.242-.116-1.044.767-2.089 1.821-2.137.869-.034 1.676.656 1.69 1.447zM81.112 79.008c-.776 1.019-1.61 1.992-2.361 3.034-1.128 1.559-1.939 3.281-2.267 5.191-.2 1.16-.447 2.308-.552 3.468-.353 3.96.058 7.769 2.42 11.143 1.808 2.59 3.993 4.676 7.164 5.519 1.058.281 2.127.551 3.172.867 2.478.739 4.992 1.184 7.588 1.219 2.796.035 5.392-.609 7.764-2.051 1.41-.855 2.702-1.874 3.818-3.105 2.443-2.706 4.346-5.694 5.274-9.268.681-2.636.658-5.261.341-7.956-.4-3.328-1.903-6.023-4.123-8.425-2.056-2.214-4.558-3.644-7.447-4.499-1.516-.457-3.03-.879-4.628-.855-1.457.023-2.913 0-4.582 0-2.678-5.824-5.426-11.776-8.105-17.611.212-.68.447-1.23.54-1.793.06-.328-.023-.762-.222-1.02-.729-.937-1.645-1.312-2.89-1.09-2.937.528-5.462 1.84-7.74 3.715-.882.727-.823 1.652.199 2.203.576.316.846.75 1.069 1.312a418 418 0 0 0 2.549 6.316c.293.715.705 1.37.975 2.086.94 2.507 1.832 5.014 2.76 7.522.212.574.505 1.137.858 1.933-.494.668-1.01 1.406-1.563 2.133zm1.362-24.478q.447-1.066-.423-1.851c.999-.363 1.833-.152 2.42.621.247.328.27 1.055-.164 1.394-.447.352-.365.668-.212 1.031 1.14 2.777 2.244 5.566 3.465 8.308 1.234 2.777 2.596 5.495 3.912 8.237.012.035.035.059.047.094.599 1.511 1.762 2.027 3.324 1.91 3.266-.246 6.39.398 9.28 1.84 4.393 2.19 7.447 5.577 8.363 10.521.94 5.12.035 9.925-3.054 14.202-1.045 1.453-2.15 2.906-3.477 4.089-1.797 1.605-3.864 2.859-6.32 3.375-2.748.574-5.462.492-8.187-.047-1.362-.27-2.736-.528-4.1-.797-.14-.023-.293-.035-.434-.094-3.829-1.734-7.2-4.019-8.997-7.99a14.6 14.6 0 0 1-1.151-4.102c-.353-2.93-.142-5.87.657-8.718.34-1.218.905-2.401 1.539-3.503.705-1.195 1.633-2.25 2.432-3.386.493-.68.986-1.371 1.386-2.11.281-.527.27-1.066.094-1.745-.705-2.742-1.915-5.296-2.89-7.944-.446-1.23-1.057-2.414-1.562-3.633-.858-2.062-1.68-4.136-2.514-6.21-.059-.129-.059-.281-.082-.422-.388-.199-.787-.363-1.151-.586-.505-.316-.576-.75-.106-1.148.599-.504 1.269-.926 1.903-1.383.059.06.106.118.164.165-.164.246-.387.468-.493.738-.118.28-.282.68-.165.89.106.188.54.27.846.27.353 0 .728-.094 1.07-.2 1.385-.445 2.76-.913 4.134-1.37l.434-.47zm-4.428.117c.94-.468 1.938-.831 2.901-1.265.458-.21.74-.023 1.046.258-.729 1.008-3.395 2.097-5.462 2.167.622-.48 1.021-.902 1.527-1.16zm2.326-1.687s.023.059.023.094l-.564.176c-.011-.035-.023-.082-.035-.117.188-.047.376-.106.564-.153z"/><path d="M75.814 57.659c.434-.152.857-.375 1.303-.457 1.821-.316 3.571-.797 4.899-2.203l.434-.468c.259.808-.246 1.277-.822 1.663-1.21.809-2.573 1.254-3.994 1.453-.599.082-1.221 0-1.832 0zM79.644 95.763c.352.703.622 1.242.904 1.816.106-.117.212-.175.223-.257.294-2.063 2.643-3.094 4.734-2.649.54.118 1.045.328 1.574.492.728.235 1.468.481 2.208.692 1.433.41 3.77-.586 4.346-1.898.282-.657.729-1.278 1.199-1.84.986-1.183 2.114-1.453 3.547-.867.705.293 1.362.715 2.032 1.09.576.316 1.139.68 1.739.949.681.304 1.421.457 2.079-.082.669-.55.61-1.3.434-2.027-.199-.82-.458-1.617-.693-2.426-.317-1.148-.481-2.308-.106-3.468.165-.504.423-1.02.776-1.43.517-.597 1.186-.773 1.985-.48 1.315.469 2.126 1.406 2.666 2.625a5.6 5.6 0 0 1 .364 3.35 41 41 0 0 1-.305-1.1c-.294-1.067-.634-2.121-1.398-2.953-.34-.375-.74-.727-1.174-.973-1.022-.574-1.633-.34-2.068.75-.423 1.066-.329 2.168-.082 3.246.188.82.47 1.617.693 2.425.305 1.113.388 2.215-.623 3.023-.986.785-2.09.563-3.112.047-.811-.41-1.574-.937-2.361-1.394-2.244-1.313-3.242-1.055-4.617 1.16-.54.867-.986 1.757-1.985 2.285-1.386.738-2.772.89-4.24.398-.799-.27-1.586-.574-2.385-.832-1.198-.375-2.384-.375-3.512.281-.54.317-.893.762-1.08 1.336-.165.516-.423 1.055.117 1.523-.082 1.113.834 1.664 1.41 2.379.998 1.23 2.184 2.273 3.582 3.046.306.176.588.41.952.668-3.125-.703-7.94-6.093-7.788-8.881zM84.377 81.937c1.351-.375 2.08.082 2.22 1.3.282 2.356-.423 4.336-2.36 5.8-.47.352-.893.786-1.398 1.067-.6.328-1.246.62-1.915.773-.858.2-1.269-.117-1.34-.984-.152-1.851-.011-3.68.776-5.378.458-.984 1.08-1.898 1.621-2.847l.223.117c-.14.257-.258.527-.423.773-1.268 1.84-1.82 3.89-1.926 6.093v.328c.047 1.582.564 1.969 1.95 1.242 1.292-.68 2.49-1.57 3.383-2.754.857-1.124 1.15-2.437 1.022-3.843-.106-1.113-.306-1.359-1.433-1.605-.13-.023-.259-.059-.4-.082"/><path d="M88.547 100.181c.435.492 1.022.609 1.469.328.434-.27.67-.996.516-1.57-.164-.575-.599-.914-1.233-.832-.446.058-.88.27-1.327.41-.082.703.188 1.207.575 1.652zm.846-.082c-.411.082-.81-.41-.799-.856 0-.504.353-.597.74-.61.447 0 .682.317.623 1.032-.117.094-.317.375-.564.422zM105.016 104.516c-1.245 1.172-6.72 3.105-7.906 2.789 2.62-.926 5.286-1.863 7.906-2.789M111.017 89.202c.306 3.198-.751 6.08-2.02 8.917.905-2.918 1.891-5.824 2.02-8.917M88.124 66.072c-.164-.106-.411-.164-.482-.317-1.174-2.472-2.314-4.944-3.465-7.428-.035-.094-.047-.2.047-.34.165.304.33.597.482.902 1.034 2.215 2.055 4.417 3.09 6.632.093.2.21.375.316.562h.012zM81.722 67.49c-1.315-2.543-2.63-5.086-4.064-7.851.963.984 3.313 5.53 4.064 7.85M98.743 100.239c.258-.105.54-.41.587-.668.047-.199-.2-.527-.4-.69-.516-.434-1.08-.235-1.69 0 0 1.124.657 1.71 1.503 1.358m.106-.855q-.635.55-1.093-.14c.317.034.646.081 1.093.14M105.497 79.324c-2.009-1.043-3.994-2.097-6.543-2.285 1.586-.433 4.675.692 6.543 2.285M88.982 68.837c.693 1.5 1.398 2.988 2.09 4.488-.07.035-.128.058-.199.094-.857-1.43-1.503-2.953-2.161-4.476.094-.035.176-.07.27-.106M108.446 91.967c-.341-1.535-.682-3.046-1.01-4.57.798 1.441 1.174 2.965 1.01 4.57M89.945 105.242l4.429.926c-1.61.047-3.09-.258-4.429-.926M97.145 75.95c-1.374.081-2.702-.036-3.947-.68 1.316.222 2.631.457 3.947.68M96.1 77.004l-3.371-.563c.011-.093.035-.187.046-.28 1.116.21 2.244.421 3.36.632zM86.468 87.714c.235.34.364.527.481.714.623-.27.2-.562.094-.843.353-.153.658-.153.717.316.059.504-.364.996-.799.973-.376-.024-.47-.211-.493-1.16M84.413 78.293c1.022-.293 2.044-.574 3.3-.937-1.08.703-2.172 1.03-3.3.937M85.129 75.914c.87-.586 1.856-.867 2.948-.726-.986.246-1.961.48-2.948.726M109.104 93.853c.14-.878.293-1.745.434-2.624.094.011.176.035.27.047-.152.878-.317 1.769-.47 2.648-.082-.024-.152-.047-.234-.07M101.327 99.208c.516.152.599.469.516.797-.035.152-.27.246-.422.375-.153-.223-.388-.422-.435-.656-.024-.153.223-.364.329-.516zM106.742 88.686c.541.726.681 1.594.564 2.672-.211-1.008-.388-1.84-.564-2.672M89.992 103.661l1.48.457c-.011.058-.035.105-.047.164a69 69 0 0 0-1.48-.446c.012-.058.036-.117.047-.175M103.395 79.43c.493.222.986.433 1.468.656a5 5 0 0 0-.141.257c-.446-.304-.881-.609-1.327-.914M84.776 62.592c.611.175.47.785.588 1.242-.188-.422-.388-.844-.576-1.266l-.023.024zM84.248 60.916c-.247-.41-.494-.808-.74-1.218.082-.035.164-.082.246-.117l.47 1.347.024-.023z"/><path d="M84.225 60.94c.376.492.704.984.563 1.652l.012-.012a90 90 0 0 1-.552-1.652l-.023.023zM103.394 79.418c-.352-.153-.716-.293-1.069-.446l.141-.246.916.703zM89.123 71.509c-.094-.223-.177-.434-.27-.656.047-.024.094-.036.129-.06.106.224.2.434.305.657-.059.023-.117.035-.164.059M85.881 64.677c.094.176.176.364.27.54-.035.023-.058.035-.094.058-.094-.164-.188-.316-.282-.48l.106-.106zM94.773 104.926c-.223-.012-.458-.035-.681-.047v-.105h.681zM88.1 66.084c.071.316.153.62.236.96-.353-.27-.47-.574-.224-.96zM60.216 28.007c-.09-.665-.178-1.319-.278-1.984a5.5 5.5 0 0 0-.244-1.041c-.178-.466-.59-.532-.889-.144-.233.299-.389.665-.555 1.008-.367.754-.711 1.518-1.078 2.305-.977-.044-1.944-.11-2.921-.122-.456 0-.933.044-1.367.166-.455.122-.522.477-.189.82.178.177.39.333.611.466.811.487 1.622.964 2.51 1.484-.166.355-.344.665-.455.998-.177.51-.366 1.02-.444 1.54-.089.554.3.83.811.598.344-.155.655-.399.966-.631.511-.377 1.011-.787 1.567-1.22.755.533 1.488 1.042 2.21 1.563.122.089.222.21.356.288.3.166.6 0 .577-.343-.022-.277-.144-.543-.222-.81l-.7-2.426c.367-.244.633-.443.922-.598.811-.432 1.644-.842 2.466-1.274.256-.133.59-.189.667-.588-.511-.321-.933.177-1.4.1-.455-.066-.922 0-1.388 0-.49 0-.967 0-1.444.011-.078-.122-.1-.144-.1-.166zm-3.533 2.692c.29-.62.522-1.185.811-1.717.078-.144.322-.255.489-.266.533-.033 1.078 0 1.688 0 .067.488.134.964.212 1.463-.578.443-1.145.875-1.756 1.352-.488-.277-.966-.554-1.444-.831m-3.454-1.894c.01-.067.033-.122.044-.189 1.2-.155 2.4.067 3.732.056-.344.642-.61 1.152-.91 1.74-1-.566-1.933-1.087-2.855-1.607zm6.41-.632c-.579 0-1.1-.022-1.712-.033.411-1.009.778-1.917 1.145-2.815.066 0 .122.011.188.023.212.897.278 1.817.378 2.814zm-3.3 3.036c.455.266.81.477 1.277.743-.677.531-1.288.997-1.9 1.473-.066-.055-.132-.1-.188-.155.255-.654.511-1.307.81-2.06m4.143 1.74c-.622-.388-1.122-.698-1.721-1.075.41-.332.766-.632 1.21-.997.19.742.334 1.33.511 2.072m-.033-3.17c-.056-.387-.1-.675-.167-1.063.622-.011 1.178-.033 1.733-.044.011.055.023.1.034.155-.5.299-1.011.598-1.6.953M31.554 77.144c-.056.81-.144 1.618-.178 2.438-.022.532-.189.798-.644.909-.8.199-1.589.476-2.377.753-.256.089-.478.288-.867.52 1 1.187 2.278 1.131 3.31 1.73-.055.653-.133 1.296-.155 1.95-.011.432-.078.986.355 1.185.456.21.667-.288.9-.631.422-.61.822-1.23 1.244-1.862.456.189.833.366 1.222.51.39.144.733.632 1.256.21-.134-1.074-1.022-1.662-1.245-2.637.6-1.263 1.656-2.072 2.267-3.269l-.1-.2c-1.078.356-2.144.71-3.2 1.054-.555-.975-.81-2.04-1.51-2.737-.1.022-.19.055-.29.077zm1.355 6.228c-.455-.133-.9-.266-1.422-.41.09-.743.167-1.419.256-2.15.422-.11.81-.2 1.277-.321.222.565.422 1.097.644 1.684-.277.432-.5.787-.766 1.197zm-4.388-1.352c0-.078 0-.155-.01-.233.832-.377 1.699-.576 2.71-.82-.09.665-.167 1.175-.256 1.873-.9-.3-1.666-.565-2.444-.82m2.722 3.978c-.156-.953-.067-1.63.167-2.36.333.088.655.166 1.155.288l-1.322 2.083zm2.788-4.41c-.178-.455-.311-.798-.478-1.23.6-.21 1.111-.377 1.622-.554l.067.133c-.367.51-.744 1.008-1.2 1.64zm-2.166-1.507v-.953c0-.277.022-.543.044-.953.467.532.69 1.064.8 1.75-.3.056-.555.09-.844.145zm1.644 3.49c.167-.266.289-.454.444-.71.2.355.367.632.522.91-.033.055-.055.1-.089.155-.266-.1-.522-.21-.877-.355M41.285 1.34c-.056.81-.145 1.619-.178 2.439-.022.531-.189.797-.655.908-.8.2-1.589.477-2.377.754-.256.088-.478.288-.867.52 1 1.186 2.277 1.13 3.31 1.729-.055.654-.133 1.296-.155 1.95-.011.432-.078.975.355 1.186.456.21.667-.288.9-.632.422-.61.822-1.23 1.244-1.861.456.188.833.365 1.222.51.389.143.733.631 1.255.21-.133-1.075-1.022-1.662-1.244-2.637.6-1.263 1.655-2.072 2.266-3.27l-.1-.199c-1.077.355-2.144.71-3.199 1.053-.555-.975-.81-2.039-1.51-2.737-.1.022-.19.056-.29.078zm1.355 6.228c-.456-.133-.9-.266-1.422-.41.089-.742.167-1.418.256-2.15.422-.11.81-.199 1.277-.32.222.564.422 1.096.644 1.683-.277.433-.5.787-.766 1.197zm-4.388-1.352c0-.077 0-.155-.01-.232.832-.377 1.699-.577 2.71-.82-.09.664-.167 1.174-.256 1.872-.9-.299-1.666-.565-2.444-.82m2.722 3.978c-.156-.953-.067-1.629.166-2.36.334.078.656.166 1.156.288l-1.322 2.083zm2.788-4.41c-.178-.454-.311-.798-.478-1.23.6-.21 1.111-.377 1.622-.554l.067.133c-.367.51-.745 1.008-1.2 1.64zm-2.166-1.507v-.953c0-.277.022-.543.044-.953.467.532.689 1.064.8 1.751-.3.055-.555.089-.844.144zm1.644 3.49c.166-.265.289-.454.444-.709.2.355.367.632.522.909-.033.055-.055.1-.089.155-.255-.1-.522-.21-.877-.354M116.354 111.04c-.044.576-.1 1.164-.122 1.74-.011.388-.133.565-.466.654-.567.144-1.133.343-1.7.543-.178.066-.344.199-.611.376.711.842 1.622.809 2.366 1.241-.033.466-.1.931-.111 1.397 0 .31-.055.698.256.842.322.155.477-.211.644-.444.3-.432.589-.886.888-1.329.323.133.589.266.867.365.278.1.522.444.9.156-.1-.765-.733-1.186-.889-1.884.422-.909 1.178-1.474 1.622-2.338-.022-.044-.045-.1-.078-.144-.766.255-1.533.498-2.288.753-.4-.698-.578-1.451-1.078-1.95-.066.022-.133.033-.211.055zm.967 4.455c-.322-.1-.645-.189-1.011-.299.067-.532.122-1.009.189-1.53.3-.077.577-.144.911-.232.155.41.3.786.466 1.196-.2.311-.355.566-.544.854zm-3.133-.964v-.167c.589-.265 1.211-.41 1.933-.587-.067.477-.111.842-.189 1.33-.644-.211-1.188-.399-1.744-.587zm1.944 2.847a3.35 3.35 0 0 1 .122-1.684c.245.056.467.111.822.2-.344.531-.611.953-.944 1.484m1.989-3.158c-.134-.332-.223-.576-.345-.875.433-.144.789-.266 1.155-.399.012.033.034.067.045.1-.267.365-.533.72-.855 1.174m-1.544-1.074v-.676c0-.2.022-.388.033-.676.333.376.5.753.566 1.252-.211.033-.388.066-.599.1m1.177 2.493c.122-.189.2-.333.311-.51.144.255.256.454.378.654a.5.5 0 0 0-.056.111c-.189-.078-.378-.144-.622-.255z"/></g><defs><clipPath id="clip0_78_980"><path fill="#fff" d="M0 0h120v120H0z"/></clipPath></defs></svg>