<svg xmlns="http://www.w3.org/2000/svg" width="1217" height="632" fill="none"><path stroke="#fff" stroke-width="1.5" d="m19 140-8.5-9-9.5 9M413 489l-8.5-9-9.5 9M824 137l-8.5-9-9.5 9M1215 494l-8.5-9-9.5 9M206 19l9-8.5-9-9.5M207 631l9-8.5-9-9.5M608 373l9-8.5-9-9.5M1009 631l9-8.5-9-9.5M608 289l9-8.5-9-9.5M1010 20l9-8.5-9-9.5M1012 330l-9-8.5 9-9.5M1135 366l-9-8.5 9-9.5M209 330l-9-8.5 9-9.5M396 132l8.5 9 9.5-9M807 489l8.5 9 9.5-9M1 463l8.5 9 9.5-9M1198 139l8.5 9 9.5-9"/><path stroke="#fff" stroke-dasharray="3.5 3.5" stroke-opacity=".9" stroke-width="1.5" d="M10 280.5V26c0-8.284 6.716-15 15-15h364.215c8.285 0 15 6.716 15 15v239.5c0 8.284 6.716 15 15 15h381.309c8.284 0 15-6.716 15-15V26c0-8.284 6.716-15 15-15H1191c8.28 0 15 6.716 15 15v280.5c0 8.284-6.72 15-15 15H25c-8.284 0-15 6.716-15 15V607c0 8.284 6.716 15 15 15h364.215c8.285 0 15-6.716 15-15V379c0-8.284 6.716-15 15-15h381.309c8.284 0 15 6.716 15 15v228c0 8.284 6.716 15 15 15H1191c8.28 0 15-6.716 15-15V372c0-8.284-6.72-15-15-15h-65.5"/></svg>