<svg xmlns="http://www.w3.org/2000/svg" width="128" height="24" version="1.0" viewBox="0 0 80 15"><defs><clipPath id="prefix__a" clipPathUnits="userSpaceOnUse"><path stroke-width=".922" d="M171.998 239.12h20.614v12.484h-20.614z"/></clipPath></defs><path fill="#fff" stroke="#ed592f" stroke-width="1.042" d="M170.5 237.862h80v15h-80z" transform="matrix(.9875 0 0 .93335 -167.875 -221.476)"/><path fill="#ed592f" d="M1.975 1.933h76.038v11.2H1.975z"/><path fill="#f5a48e" d="M1.975 1.945v11.2h20.08c1.293-1.633 2.165-3.532 2.165-5.6 0-2.054-.857-3.973-2.134-5.6z"/><g clip-path="url(#prefix__a)" transform="matrix(.94924 0 0 .89719 -161.127 -212.602)"><path fill="#fff" d="M190.064 245.362a7.047 7.047 0 0 1-14.094.009v-.009a7.047 7.047 0 1 1 14.094-.008z"/><path fill="#ed592f" d="M188.746 239.622q2.344 2.345 2.344 5.74t-2.304 5.68q-2.445 2.405-5.779 2.405-3.294 0-5.678-2.385t-2.385-5.7c0-3.315.795-4.123 2.385-5.74q2.324-2.344 5.678-2.344 3.395 0 5.739 2.344m-10.365 1.052q-1.982 2-1.982 4.69t1.962 4.65q1.96 1.962 4.67 1.961c2.71-.001 3.376-.66 4.71-1.98q1.901-1.841 1.901-4.63 0-2.77-1.931-4.701-1.93-1.932-4.68-1.931t-4.65 1.94zm3.477 3.902q-.303-.66-.907-.66-1.07 0-1.07 1.438 0 1.44 1.07 1.439.705 0 1.008-.702l.987.526q-.706 1.255-2.118 1.255-1.09 0-1.745-.668-.656-.668-.656-1.842 0-1.154.676-1.831.675-.68 1.684-.679 1.494 0 2.14 1.176l-1.07.548zm4.646 0q-.303-.66-.889-.66-1.09 0-1.09 1.438 0 1.44 1.09 1.439.706 0 .99-.702l1.01.526q-.706 1.255-2.116 1.255-1.088 0-1.742-.668t-.654-1.842q0-1.154.664-1.831.665-.68 1.692-.679 1.491 0 2.135 1.176z"/></g><path fill="#fff" d="M29.052 6.901q.363 0 .551-.15t.188-.442q0-.29-.188-.44-.188-.153-.551-.153h-.851v1.185zm.052 2.45q.463 0 .695-.184.236-.184.236-.555 0-.364-.232-.544-.23-.184-.7-.184h-.902v1.467zm1.43-2.015q.495.135.768.5.27.364.271.892 0 .81-.583 1.208t-1.774.397h-2.553v-5.6h2.31q1.242 0 1.797.353.56.352.56 1.129 0 .409-.204.698-.204.284-.592.423m.906-2.603h1.682L34.48 6.73l1.359-1.996h1.686l-2.274 3.241v2.36h-1.538v-2.36l-2.273-3.24m5.254 2.843h2.51v1.091h-2.51V7.577m3.712-2.844h1.718l2.17 3.841v-3.84h1.458v5.6h-1.718l-2.17-3.842v3.841h-1.458zm11.588 5.293a4 4 0 0 1-.883.311 4.3 4.3 0 0 1-.96.105q-1.49 0-2.36-.78-.873-.784-.872-2.123 0-1.343.871-2.123.87-.784 2.362-.784.499 0 .959.105t.883.311v1.16a3.5 3.5 0 0 0-.843-.402 3 3 0 0 0-.876-.127q-.822 0-1.294.495t-.472 1.365q0 .867.472 1.362.471.495 1.294.495.46 0 .876-.128c.416-.128.558-.219.843-.401zm1.162-2.45h2.51v1.092h-2.51V7.577m3.712-2.844h1.719l2.17 3.841v-3.84h1.458v5.6h-1.718l-2.17-3.842v3.841h-1.459zm8.396 1.092v3.417h.551q.943 0 1.438-.439.5-.44.5-1.275 0-.833-.496-1.268-.495-.435-1.442-.435zm-1.539-1.092h1.622q1.359 0 2.022.184.667.18 1.143.615a2.4 2.4 0 0 1 .623.874q.204.495.204 1.122 0 .633-.204 1.133a2.4 2.4 0 0 1-.623.873q-.48.435-1.15.62-.672.18-2.015.18h-1.622v-5.6" font-family="Bitstream Vera Sans" font-size="8.259" font-weight="700"/></svg>