<svg xmlns="http://www.w3.org/2000/svg" fill="none" viewBox="0 0 173 153"><path fill="var(--decorator-color, #000)" fill-rule="evenodd" d="M161.173 55.197c-4.514-5.223-12.406-5.798-17.629-1.285l-11.241 9.715c5.123-4.529 5.66-12.35 1.177-17.536-4.513-5.223-12.406-5.798-17.629-1.285l-83.705 72.337c-5.223 4.513-5.798 12.406-1.284 17.629 4.513 5.223 12.406 5.798 17.629 1.284l20.553-17.761c-5.124 4.528-5.66 12.349-1.178 17.536 4.514 5.223 12.406 5.798 17.63 1.284l74.392-64.29c5.223-4.513 5.798-12.406 1.285-17.628m-33.95-36.737c-4.513-5.223-12.406-5.798-17.629-1.285L94.5 30.22c5.19-4.518 5.751-12.387 1.248-17.598C91.235 7.4 83.342 6.824 78.12 11.337L20.118 61.461c-5.223 4.513-5.798 12.406-1.285 17.629 4.504 5.21 12.37 5.795 17.593 1.316L23.853 91.27c-5.223 4.514-5.798 12.407-1.285 17.629 4.514 5.223 12.407 5.798 17.63 1.285l85.741-74.096c5.223-4.514 5.798-12.406 1.284-17.63z" clip-rule="evenodd"/></svg>