<svg width="120" height="120" viewBox="0 0 120 120" fill="none" xmlns="http://www.w3.org/2000/svg">
	<g clip-path="url(#clip0_78_980)">
		<path d="M18.3044 21.2964C16.9638 18.3317 15.9899 15.2282 15.1426 12.0742C16.1923 15.1525 17.2547 18.2307 18.3044 21.2964Z" fill="white" />
		<path d="M18.9111 5.77895C19.8723 5.0977 20.8335 4.41644 21.782 3.7478C20.9979 4.68137 20.0114 5.31217 18.9111 5.77895Z" fill="white" />
		<path d="M14.3452 4.95893C13.0426 5.37526 11.7779 5.93035 10.374 6.01866C11.6767 5.60234 12.9793 5.18602 14.282 4.75708C14.2946 4.82016 14.3199 4.88324 14.3326 4.94632L14.3452 4.95893Z" fill="white" />
		<path d="M10.8418 6.76289C11.6639 6.49796 12.4733 6.23303 13.2954 5.98071C13.308 6.01856 13.3206 6.05641 13.3333 6.09426C12.9412 6.22041 12.5492 6.34657 12.1698 6.47273C11.7524 6.6115 11.3224 6.73766 10.905 6.87644C10.8797 6.83859 10.8671 6.81336 10.8418 6.77551V6.76289Z" fill="white" />
		<path d="M19.2646 4.58044C19.8085 4.32812 20.3523 4.0758 20.8835 3.82349C20.9088 3.87395 20.9341 3.92441 20.9594 3.97488C20.4155 4.22719 19.8717 4.46689 19.3279 4.71921C19.3026 4.66875 19.2899 4.6309 19.2646 4.58044Z" fill="white" />
		<path d="M18.6445 31.6036C18.9228 29.6355 19.1378 27.7936 18.8722 25.876C19.4792 26.9609 19.3654 30.4934 18.6445 31.6036Z" fill="white" />
		<path d="M22.8306 4.87068C23.4503 4.20204 23.463 3.40724 23.0203 2.53675C22.5903 1.69149 21.9074 1.28778 20.9841 1.36347C20.4909 1.41394 19.985 1.50225 19.5171 1.66625C18.2018 2.10781 16.8864 2.59983 15.5838 3.07923C14.9135 3.31893 14.2558 3.59648 13.5855 3.82356C12.0173 4.36604 10.4237 4.82021 8.93137 5.55193C8.57724 5.72855 8.33695 5.94302 8.18518 6.30888C7.85636 7.09106 8.14724 8.10033 8.9946 8.61758C9.94314 9.19791 10.8537 9.94224 12.1438 9.72777C12.3588 10.3333 12.6243 10.8884 12.7635 11.4688C13.1429 13.1971 13.7373 14.8498 14.3823 16.4899C15.47 19.2653 16.2035 22.1418 16.722 25.056C16.8485 25.7877 16.8864 26.5825 16.7726 27.3269C16.4438 29.4842 15.9253 31.591 15.0147 33.5969C13.927 36.0192 12.8773 38.454 11.777 40.8636C10.5249 43.6391 9.27284 46.4272 8.33695 49.3289C7.67929 51.3979 7.32517 53.5047 7.36312 55.6873C7.38841 57.0245 7.67929 58.2861 8.40018 59.4342C9.19696 60.6957 10.3731 61.2887 11.8149 61.0868C12.9911 60.9228 14.1547 60.5444 15.3182 60.2542C15.6217 60.1785 15.9126 60.0523 16.2161 59.964C18.5053 59.3458 20.7818 58.7403 23.0709 58.1347C24.0574 57.8698 25.0565 57.6427 26.0557 57.4156C26.7765 57.2516 27.5101 57.1759 28.2057 56.9488C31.9998 55.6999 35.794 54.4383 39.5881 53.1515C41.1311 52.6342 42.674 52.1044 44.1917 51.4988C45.7094 50.8932 47.1638 50.1615 48.3906 49.0513C49.2632 48.2565 49.7438 47.2599 50.0221 46.1371C50.2371 45.2918 49.8829 44.5979 49.5794 43.8158C48.8965 42.1126 47.8468 40.687 46.5567 39.4381C44.2044 37.142 41.6243 35.1108 38.9305 33.2058C37.1093 31.919 35.3134 30.5817 33.5807 29.1814C32.3792 28.21 31.3295 27.0367 30.128 26.0653C28.6863 24.9046 27.8136 23.4286 27.3077 21.7128C26.4983 19.013 25.3601 16.452 24.323 13.8279C23.3871 11.4561 22.5144 9.07175 21.6165 6.68736C21.5406 6.47289 21.4774 6.2458 21.4141 6.04395C21.958 5.60239 22.4386 5.287 22.8306 4.87068ZM16.5323 10.2703C16.5323 10.2703 16.5576 10.2703 16.5703 10.2703C16.4185 9.79085 16.2541 9.31145 16.0897 8.78158C16.5576 8.63019 16.975 8.49142 17.4429 8.34003C17.5694 8.64281 17.7085 8.95821 17.8856 9.38714C17.7844 8.94559 17.7212 8.64281 17.6326 8.25172C18.3662 7.97417 19.0997 7.70924 19.8712 7.41908C19.9724 7.62093 20.0862 7.77232 20.1368 7.92371C20.8703 10.1441 21.5786 12.3771 22.35 14.5723C23.1089 16.7548 23.9183 18.9121 25.0439 20.9432C25.0818 21.0063 25.1324 21.0568 25.1577 21.0946C24.3103 18.8364 23.4124 16.5656 22.603 14.2695C21.7936 11.9734 21.06 9.65208 20.2759 7.26769C20.5162 7.16676 20.8071 7.05322 21.1485 6.92706C21.2244 7.16676 21.2877 7.356 21.3509 7.55785C22.3627 10.8253 23.5515 14.0172 24.8542 17.1711C25.4739 18.6724 26.0177 20.2115 26.511 21.7633C27.118 23.643 27.978 25.3336 29.5716 26.6078C30.7983 27.5918 31.8607 28.7903 33.0875 29.7743C34.8454 31.1873 36.654 32.5498 38.5005 33.8492C41.1437 35.729 43.6732 37.7349 46.0003 39.9932C47.3535 41.3052 48.4285 42.8065 49.1873 44.5475C49.415 45.0647 49.3391 45.582 49.2126 46.0866C48.8838 47.4617 48.087 48.4836 46.9109 49.2532C45.2161 50.3508 43.3444 51.0446 41.4599 51.7006C38.2096 52.8361 34.9593 53.9841 31.6963 55.0943C30.0775 55.6368 28.4333 56.1162 26.7765 56.5577C25.3854 56.9362 23.9562 57.1759 22.5524 57.5418C20.6932 58.0338 18.8594 58.5889 17.0129 59.144C16.1529 59.3963 15.3182 59.7117 14.4708 59.9893C14.1041 60.1154 13.6488 60.393 13.3705 60.2794C12.9405 60.1028 12.6623 60.393 12.3208 60.3677C11.9287 60.3299 11.5367 60.3299 11.1446 60.292C10.019 60.1785 9.28549 59.5099 8.79225 58.5384C8.33695 57.6301 8.13459 56.6587 8.1093 55.6494C8.07136 53.4669 8.45077 51.36 9.13372 49.3036C10.0696 46.4777 11.2964 43.7779 12.5105 41.0655C13.5855 38.6685 14.6226 36.2589 15.7103 33.8619C16.6209 31.8307 17.1267 29.686 17.5062 27.5161C17.7591 26.0274 17.4176 24.5892 17.0888 23.151C16.4311 20.2241 15.5332 17.373 14.3949 14.5975C13.7879 13.0962 13.3832 11.5192 12.852 9.90439C13.5476 9.67731 14.2305 9.46284 15.0147 9.21052C15.255 9.8287 15.4953 10.4469 15.7229 11.0777C15.7608 11.0777 15.7861 11.0524 15.8241 11.0398C15.6217 10.3964 15.4067 9.76562 15.1917 9.08436C15.3814 8.99605 15.5205 8.93297 15.7735 8.81943C16.0391 9.33668 16.2667 9.80347 16.507 10.2576L16.5323 10.2703ZM19.1376 2.44844C19.6815 2.2592 20.2506 2.14566 20.8197 2.04473C21.5785 1.90596 22.0212 2.14566 22.3627 2.8143C22.7547 3.57125 22.7294 4.05065 22.1097 4.58051C21.4015 5.18607 20.7059 5.80425 19.77 6.10703C18.8468 6.40981 18.012 6.91444 17.1267 7.31815C16.3426 7.67139 15.5711 7.97417 14.6605 7.9994C13.8132 8.01202 12.9532 8.3148 12.1185 8.50404C11.2964 8.69327 10.5881 8.57973 9.9052 8.04987C9.31078 7.58308 9.19696 6.97752 9.2096 6.30888C9.2096 5.99349 9.4499 5.87994 9.71549 5.79163C10.9296 5.36269 12.1311 4.92114 13.3452 4.4922C13.3452 4.50482 13.3579 4.53005 13.3705 4.54266C15.2929 3.84879 17.2153 3.12969 19.1503 2.46105L19.1376 2.44844Z" fill="white" />
		<path d="M34.5413 36.2968C33.7319 36.0571 33.2007 36.4735 33.2134 37.3187C33.2134 37.4701 33.2513 37.6341 33.2513 37.7855C33.2513 38.2397 33.1881 38.3154 32.7201 38.3784C32.0498 38.4541 31.4934 38.2144 30.9748 37.8233C30.5828 37.5332 30.1528 37.2304 29.6975 37.1042C28.7363 36.8393 27.9521 37.3944 27.8383 38.3784C27.8004 38.7695 27.8257 39.1606 27.8636 39.5517C27.9142 40.069 28.0407 40.5862 28.0913 41.1035C28.1671 41.9613 27.8004 42.5164 26.991 42.794C26.2574 43.0463 25.5112 43.0211 24.8789 42.5417C24.373 42.1632 23.9177 41.7343 23.4877 41.2675C22.9944 40.725 22.5771 40.1068 22.0712 39.5769C21.7424 39.2237 21.6665 38.8831 21.7803 38.4415C21.8941 37.9621 21.9447 37.4575 22.0206 36.9655C21.97 36.9655 21.9068 36.9529 21.8562 36.9402C21.7297 37.571 21.6159 38.1892 21.4768 38.9083C21.1985 38.7065 21.0215 38.5677 20.8444 38.4415C21.0974 37.079 21.4641 35.7796 21.4262 34.4297C21.1606 35.7291 20.9077 37.0285 20.6421 38.328C19.1624 38.0883 19.0865 38.1009 17.632 38.7317C17.8218 38.1009 18.0241 37.5079 18.1632 36.9024C18.3023 36.2842 18.6059 35.6787 18.4921 35.01C18.4035 35.0226 18.3656 35.01 18.3656 35.0352C18.2897 35.1993 18.2138 35.3633 18.1632 35.5273C17.6573 37.2935 16.987 39.0092 16.2282 40.6871C15.1911 42.958 14.1541 45.2288 13.1929 47.5375C12.5605 49.0641 12.0546 50.641 11.5235 52.2054C11.2832 52.9119 11.2579 53.6436 11.4223 54.3879C11.6499 55.4098 12.3961 56.0911 13.4205 56.2425C14.2679 56.3686 15.1026 56.356 15.9247 56.1668C18.4668 55.5864 21.0088 55.0692 23.4877 54.2239C24.4109 53.9085 25.3468 53.631 26.2827 53.366C27.9521 52.8993 29.6469 52.5082 31.291 51.9909C33.7066 51.234 36.0716 50.3761 38.4746 49.5939C39.7646 49.1776 40.9408 48.5594 42.1296 47.9286C42.9138 47.5123 43.2299 46.8311 43.2173 45.9858C43.2173 44.863 42.7241 43.9168 42.1043 43.0085C40.9408 41.3432 39.499 39.9176 38.0952 38.4668C37.1846 37.5206 36.1096 36.7762 34.8954 35.9436C35.0093 36.2211 35.0599 36.3473 35.1484 36.5996C34.8702 36.4861 34.7057 36.3978 34.5413 36.3473V36.2968ZM20.68 39.2742C21.6665 39.5517 21.1353 40.3465 21.2871 40.9268C21.363 40.6619 21.4388 40.4096 21.5527 40.0311C21.8815 40.4474 22.1597 40.7881 22.438 41.1287C23.0197 41.873 23.6142 42.6174 24.4109 43.1472C25.4733 43.8537 26.5862 43.8663 27.6992 43.2986C28.5845 42.8444 28.9766 42.0749 28.8754 41.0908C28.8374 40.725 28.7363 40.3717 28.6983 40.0059C28.6477 39.5139 28.5719 39.0092 28.5845 38.5172C28.6098 37.899 29.0524 37.6341 29.6342 37.8612C29.9378 37.9874 30.2286 38.2018 30.4816 38.4163C31.1898 39.0092 31.9739 39.2616 32.8972 39.148C33.7446 39.0345 34.0607 38.6812 34.0228 37.8486C34.0228 37.5963 34.0101 37.3439 33.9975 36.9907C34.769 37.1169 35.2875 37.9369 36.1096 37.5584C36.5396 37.9747 36.9696 38.3406 37.3616 38.7695C38.7655 40.296 40.2705 41.7343 41.434 43.4626C41.8135 44.0177 42.1423 44.6359 42.3446 45.2793C42.6988 46.3895 42.4079 46.8941 41.3835 47.4618C39.7646 48.3576 38.0067 48.9253 36.2613 49.5056C33.7572 50.3256 31.2657 51.1709 28.7616 51.9783C28.1419 52.1802 27.4842 52.2811 26.8518 52.4577C24.7271 53.0759 22.6277 53.7445 20.4903 54.3249C18.745 54.7916 16.9617 55.1827 15.1911 55.536C14.66 55.6495 14.0908 55.5991 13.547 55.536C12.6491 55.4477 12.0293 54.8547 11.9788 53.9464C11.9408 53.3787 11.9661 52.7731 12.1305 52.2432C12.6491 50.6158 13.2055 49.001 13.8505 47.424C14.8876 44.9008 15.9753 42.3903 17.1135 39.905C17.4676 39.1228 18.277 38.8074 19.1118 38.7443C19.5291 38.7065 19.9718 38.8705 20.4018 38.9335C20.3259 39.5265 20.2753 40.0185 20.2121 40.4979H20.1994C20.3512 40.0942 20.503 39.6905 20.6674 39.2615L20.68 39.2742Z" fill="white" />
		<path d="M31.5317 32.4238C31.2914 32.2345 31.0258 32.0705 30.7981 31.8561C28.6355 29.8375 26.9281 27.4658 25.5116 24.8921C25.4863 24.8543 25.5116 24.7912 25.4863 24.665C25.6002 24.766 25.714 24.8164 25.7646 24.9047C27.3202 27.5919 29.154 30.052 31.4431 32.1715C31.4937 32.2219 31.519 32.3102 31.557 32.3733L31.5317 32.4238Z" fill="white" />
		<path d="M30.2543 32.4742C30.1278 32.3985 29.9634 32.3607 29.8748 32.2597C28.6228 30.9855 27.3833 29.7113 26.1439 28.4245C25.9416 28.21 25.8024 27.9451 25.7266 27.6423C26.2704 28.2353 26.8016 28.8408 27.358 29.4212C28.1801 30.279 29.0148 31.1117 29.8369 31.9569C30.0013 32.121 30.1151 32.3228 30.2543 32.4994V32.4742Z" fill="white" />
		<path d="M43.3944 49.8209C41.4341 50.5905 39.4738 51.3727 37.5135 52.1422C37.5008 52.1044 37.4755 52.0665 37.4629 52.0161C39.4232 51.2087 41.3709 50.4139 43.3312 49.6064C43.3565 49.6695 43.3691 49.7452 43.3944 49.8083V49.8209Z" fill="white" />
		<path d="M38.5264 50.7545C39.614 50.2877 40.6384 49.8336 41.6755 49.3794C41.2455 49.8462 39.829 50.4644 38.5264 50.7545Z" fill="white" />
		<path d="M11.3223 47.8276C11.6132 46.8688 11.8914 45.91 12.1823 44.9512C12.2329 44.9638 12.2961 44.989 12.3467 45.0016C12.1317 45.9857 11.7776 46.9319 11.474 47.9033C11.4234 47.878 11.3729 47.8528 11.3223 47.8276Z" fill="white" />
		<path d="M44.1416 46.995C44.5337 46.2633 44.9257 45.5316 44.774 44.4971C45.1787 45.3171 44.951 46.1371 44.1416 46.995Z" fill="white" />
		<path d="M10.892 46.503C10.6897 47.3357 10.4873 48.1683 10.2723 49.0009C10.2344 48.1052 10.4241 47.2726 10.8414 46.4778L10.892 46.503Z" fill="white" />
		<path d="M45.8862 45.5693C45.785 46.3137 45.57 46.6669 44.9756 47.0706C45.2791 46.5786 45.5574 46.1118 45.8862 45.5693Z" fill="white" />
		<path d="M9.88021 57.9204C9.46286 57.7438 9.31109 57.3653 9.19727 56.949C9.43756 57.2518 9.66521 57.5671 9.90551 57.8699L9.88021 57.9204Z" fill="white" />
		<path d="M31.5575 32.3733C31.8358 32.5751 32.1013 32.777 32.3796 32.9789C32.3416 33.0293 32.2911 33.0798 32.2531 33.1176C32.0128 32.8905 31.7725 32.6508 31.5322 32.4238L31.5575 32.3733Z" fill="white" />
		<path d="M10.8408 46.4777C10.9293 46.1749 11.0178 45.8721 11.0937 45.5693C11.157 45.5946 11.2202 45.6198 11.2708 45.6324C11.1443 45.9226 11.0052 46.2127 10.8787 46.5029L10.8281 46.4777H10.8408Z" fill="white" />
		<path d="M11.6504 57.6679L12.5483 57.731C12.2322 57.8445 11.916 57.9454 11.6504 57.6553V57.6679Z" fill="white" />
		<path d="M11.4862 58.6899C11.7392 58.6899 11.9795 58.6899 12.2324 58.6899C11.9795 58.8791 11.7265 58.9043 11.4609 58.7277L11.4862 58.6772V58.6899Z" fill="white" />
		<path d="M41.46 37.2556C41.2956 37.1168 41.1312 36.9781 40.9668 36.8267C40.9921 36.8014 41.0174 36.7762 41.0427 36.751C41.2071 36.8898 41.3715 37.0411 41.5359 37.1799C41.5106 37.2051 41.4853 37.2304 41.46 37.2556Z" fill="white" />
		<path d="M30.2422 32.4867C30.4572 32.6381 30.6848 32.7769 30.8998 32.9283C30.8619 32.9788 30.824 33.0166 30.7734 33.0671C30.5963 32.8652 30.4192 32.6634 30.2548 32.4741V32.4867H30.2422Z" fill="white" />
		<path d="M43.5342 39.0723C43.3571 38.921 43.1927 38.7822 43.0156 38.6308C43.0409 38.5929 43.0662 38.5677 43.1042 38.5425C43.2686 38.6939 43.4456 38.8326 43.61 38.984C43.5847 39.0093 43.5595 39.0471 43.5342 39.0723Z" fill="white" />
		<path d="M11.6506 57.6555C11.4103 57.6176 11.17 57.5924 10.9297 57.5545C11.2206 57.3905 11.4482 57.441 11.6506 57.6681V57.6555Z" fill="white" />
		<path d="M9.90518 57.8699C10.1075 57.9834 10.3225 58.1096 10.5249 58.2231C10.4869 58.2736 10.4617 58.324 10.4237 58.3745C10.2467 58.2231 10.0569 58.0717 9.87988 57.9203L9.90518 57.8699Z" fill="white" />
		<path d="M11.4739 58.7403C11.2336 58.6898 11.0059 58.6394 10.7656 58.5763C10.7783 58.5132 10.8036 58.4627 10.8162 58.3997C11.0439 58.5006 11.2589 58.5889 11.4865 58.6898L11.4612 58.7403H11.4739Z" fill="white" />
		<path d="M17.6712 47.6384C17.9368 47.6258 18.0886 47.5753 18.2151 47.6132C18.9739 47.8529 19.6948 48.8495 19.7074 49.657C19.7201 50.4896 19.2016 51.2087 18.5186 51.2718C17.7598 51.3475 16.963 50.7167 16.8112 49.9345C16.6595 49.0766 17.1021 48.4332 18.1645 48.1935C17.9115 48.3828 17.7851 48.4837 17.6586 48.5846C16.9377 49.1649 17.1021 50.2751 17.9495 50.6536C18.4048 50.8555 18.8474 50.6788 19.0498 50.1994C19.2648 49.6822 19.1383 49.2028 18.8221 48.7991C18.5186 48.4206 18.1392 48.1052 17.6712 47.6384Z" fill="white" />
		<path d="M27.7124 46.995C28.155 47.386 28.6989 47.3482 29.0277 46.9445C29.3818 46.5155 29.3565 45.8721 28.9139 45.5567C28.6103 45.3423 28.2183 45.2035 27.8389 45.1404C27.3709 45.0647 27.2444 45.2035 27.1939 45.6955C27.1686 45.8974 27.1939 46.0992 27.1939 46.3389C27.3709 46.566 27.5227 46.8183 27.725 47.0076L27.7124 46.995ZM28.5598 46.0235C28.6483 46.1497 28.6356 46.4146 28.5598 46.566C28.5218 46.6543 28.2056 46.6922 28.0918 46.6165C27.9147 46.5029 27.7377 46.3011 27.6745 46.0992C27.6365 45.9983 27.8262 45.8217 27.94 45.6324C28.1803 45.7712 28.4206 45.8595 28.5471 46.0235H28.5598Z" fill="white" />
		<path d="M31.5702 43.7022C31.7093 44.0933 32.0887 44.2699 32.4555 44.1185C32.8855 43.9419 33.2396 43.3237 33.1005 42.9705C32.974 42.6551 32.4681 42.4658 32.0761 42.592C31.6587 42.7308 31.4184 43.2606 31.5702 43.6896V43.7022ZM32.5187 43.2733C32.5187 43.412 32.3164 43.5508 32.2025 43.6896C32.1393 43.677 32.0887 43.6517 32.0255 43.6391C32.0002 43.4373 31.9622 43.248 31.9369 43.0462C32.0128 43.0083 32.0761 42.9579 32.1519 42.92C32.2784 43.0336 32.5187 43.1597 32.5187 43.2733Z" fill="white" />
		<path d="M34.2505 41.1665C34.6173 41.2422 34.9208 41.4188 35.1105 41.7594C35.2749 42.037 35.2749 42.3145 35.022 42.5416C34.807 42.7435 34.5414 42.7687 34.3011 42.6047C34.0355 42.4281 33.9343 42.1758 34.0481 41.8604C34.124 41.6459 34.1746 41.4188 34.2631 41.1665H34.2505Z" fill="white" />
		<path d="M20.6684 45.7964C21.0984 46.1496 21.1743 46.5407 21.0352 46.957C20.9846 47.1084 20.7569 47.2472 20.5925 47.2851C20.5293 47.2977 20.3269 47.058 20.3016 46.9192C20.2384 46.5281 20.3016 46.1496 20.6811 45.809L20.6684 45.7964Z" fill="white" />
		<path d="M20.0097 41.4062C20.0729 41.1034 20.1488 40.8133 20.212 40.5105H20.1994C20.1235 40.8133 20.0603 41.1034 19.9844 41.4062H20.0097Z" fill="white" />
		<path d="M19.9977 41.3933L19.9345 42.2007C19.7827 41.9106 19.8206 41.6456 20.0103 41.4059H19.9851L19.9977 41.3933Z" fill="white" />
		<path d="M20.9209 42.0874C20.9715 41.8729 21.0221 41.6711 21.0853 41.4692C21.1233 41.4692 21.1485 41.4692 21.1865 41.4819C21.1359 41.6837 21.098 41.8982 21.0474 42.1C21.0474 42.1 20.9841 42.1 20.9335 42.1L20.9209 42.0874Z" fill="white" />
		<path d="M49.2942 94.0041C49.7326 93.0346 50.051 92.0197 50.3281 90.9883C49.9848 91.9949 49.6374 93.0016 49.2942 94.0041Z" fill="white" />
		<path d="M49.0957 88.9296C48.7814 88.7068 48.4671 88.484 48.1569 88.2654C48.4133 88.5707 48.7359 88.777 49.0957 88.9296Z" fill="white" />
		<path d="M50.589 88.6615C51.015 88.7976 51.4286 88.9791 51.8877 89.008C51.4617 88.8719 51.0357 88.7357 50.6097 88.5955C50.6056 88.6161 50.5973 88.6367 50.5932 88.6573L50.589 88.6615Z" fill="white" />
		<path d="M51.7344 89.2514C51.4655 89.1648 51.2008 89.0781 50.932 88.9956C50.9279 89.008 50.9237 89.0204 50.9196 89.0327C51.0478 89.074 51.176 89.1152 51.3001 89.1565C51.4366 89.2019 51.5772 89.2431 51.7137 89.2885C51.722 89.2761 51.7261 89.2679 51.7344 89.2555V89.2514Z" fill="white" />
		<path d="M48.9795 88.5376C48.8017 88.4551 48.6238 88.3726 48.4501 88.29C48.4418 88.3065 48.4336 88.323 48.4253 88.3395C48.6031 88.4221 48.781 88.5004 48.9588 88.583C48.9671 88.5665 48.9712 88.5541 48.9795 88.5376Z" fill="white" />
		<path d="M49.1826 97.3747C49.0916 96.7311 49.0213 96.1288 49.1082 95.5017C48.9097 95.8565 48.9469 97.0117 49.1826 97.3747Z" fill="white" />
		<path d="M47.814 88.6325C47.6113 88.4139 47.6072 88.154 47.7519 87.8693C47.8926 87.5929 48.1159 87.4608 48.4178 87.4856C48.5791 87.5021 48.7446 87.531 48.8976 87.5846C49.3277 87.729 49.7578 87.8899 50.1838 88.0467C50.403 88.1251 50.6181 88.2158 50.8373 88.2901C51.3501 88.4675 51.8713 88.616 52.3593 88.8553C52.4751 88.9131 52.5537 88.9832 52.6033 89.1028C52.7108 89.3586 52.6157 89.6887 52.3386 89.8578C52.0284 90.0476 51.7306 90.291 51.3088 90.2209C51.2385 90.4189 51.1516 90.6004 51.1061 90.7902C50.9821 91.3554 50.7877 91.8959 50.5767 92.4322C50.2211 93.3398 49.9812 94.2805 49.8116 95.2335C49.7702 95.4728 49.7578 95.7327 49.7951 95.9761C49.9026 96.6816 50.0722 97.3706 50.3699 98.0265C50.7256 98.8187 51.0689 99.6149 51.4287 100.403C51.8382 101.311 52.2476 102.222 52.5537 103.171C52.7687 103.848 52.8846 104.537 52.8721 105.25C52.8639 105.688 52.7687 106.1 52.533 106.476C52.2724 106.888 51.8878 107.082 51.4163 107.016C51.0317 106.963 50.6512 106.839 50.2707 106.744C50.1714 106.719 50.0763 106.678 49.977 106.649C49.2284 106.447 48.484 106.249 47.7354 106.051C47.4128 105.964 47.0861 105.89 46.7593 105.816C46.5236 105.762 46.2837 105.737 46.0562 105.663C44.8155 105.255 43.5747 104.842 42.334 104.421C41.8294 104.252 41.3248 104.079 40.8285 103.881C40.3322 103.683 39.8566 103.443 39.4554 103.08C39.17 102.821 39.0129 102.495 38.9219 102.127C38.8516 101.851 38.9674 101.624 39.0666 101.368C39.29 100.811 39.6332 100.345 40.0551 99.9367C40.8244 99.1858 41.6681 98.5216 42.549 97.8986C43.1446 97.4778 43.7319 97.0405 44.2985 96.5826C44.6914 96.2649 45.0347 95.8812 45.4276 95.5635C45.8991 95.184 46.1845 94.7013 46.3499 94.1402C46.6146 93.2573 46.9868 92.4198 47.326 91.5617C47.632 90.7861 47.9174 90.0064 48.211 89.2266C48.2358 89.1565 48.2565 89.0822 48.2772 89.0162C48.0994 88.8718 47.9422 88.7687 47.814 88.6325ZM49.8736 90.3983C49.8736 90.3983 49.8654 90.3983 49.8612 90.3983C49.9109 90.2415 49.9646 90.0847 50.0184 89.9115C49.8654 89.862 49.7289 89.8166 49.5759 89.7671C49.5345 89.8661 49.489 89.9692 49.4311 90.1095C49.4642 89.9651 49.4849 89.8661 49.5138 89.7382C49.2739 89.6474 49.0341 89.5608 48.7818 89.4659C48.7487 89.5319 48.7115 89.5814 48.6949 89.6309C48.455 90.357 48.2234 91.0873 47.9711 91.8051C47.723 92.5188 47.4583 93.2243 47.0902 93.8886C47.0778 93.9092 47.0613 93.9257 47.053 93.9381C47.3301 93.1996 47.6237 92.457 47.8884 91.7061C48.1531 90.9552 48.393 90.1961 48.6494 89.4164C48.5708 89.3834 48.4757 89.3463 48.3641 89.305C48.3392 89.3834 48.3186 89.4453 48.2979 89.5113C47.967 90.5798 47.5782 91.6236 47.1522 92.655C46.9496 93.1459 46.7717 93.6493 46.6104 94.1567C46.4119 94.7714 46.1307 95.3243 45.6096 95.741C45.2084 96.0627 44.861 96.4547 44.4598 96.7765C43.8849 97.2385 43.2935 97.6841 42.6896 98.1091C41.8253 98.7238 40.9981 99.3797 40.2371 100.118C39.7945 100.547 39.443 101.038 39.1948 101.608C39.1204 101.777 39.1452 101.946 39.1866 102.111C39.2941 102.561 39.5547 102.895 39.9393 103.146C40.4935 103.505 41.1056 103.732 41.7219 103.947C42.7848 104.318 43.8477 104.694 44.9147 105.057C45.4441 105.234 45.9818 105.391 46.5236 105.535C46.9785 105.659 47.4459 105.737 47.905 105.857C48.5129 106.018 49.1126 106.199 49.7165 106.381C49.9977 106.463 50.2707 106.567 50.5478 106.657C50.6677 106.699 50.8166 106.789 50.9076 106.752C51.0482 106.694 51.1392 106.789 51.2509 106.781C51.3791 106.769 51.5073 106.769 51.6355 106.756C52.0036 106.719 52.2435 106.501 52.4048 106.183C52.5537 105.886 52.6199 105.568 52.6281 105.238C52.6405 104.524 52.5165 103.835 52.2931 103.163C51.9871 102.239 51.5859 101.356 51.1888 100.469C50.8373 99.685 50.4982 98.897 50.1425 98.1132C49.8447 97.449 49.6793 96.7476 49.5552 96.038C49.4725 95.5512 49.5841 95.0809 49.6917 94.6105C49.9067 93.6534 50.2004 92.721 50.5726 91.8134C50.7711 91.3224 50.9035 90.8067 51.0772 90.2786C50.8497 90.2044 50.6264 90.1342 50.3699 90.0517C50.2914 90.2539 50.2128 90.456 50.1383 90.6623C50.1259 90.6623 50.1177 90.6541 50.1053 90.6499C50.1714 90.4395 50.2417 90.2333 50.312 90.0105C50.25 89.9816 50.2045 89.961 50.1218 89.9238C50.0349 90.093 49.9605 90.2456 49.8819 90.3942L49.8736 90.3983ZM49.0217 87.8404C48.8438 87.7785 48.6577 87.7414 48.4716 87.7084C48.2234 87.663 48.0787 87.7414 47.967 87.96C47.8388 88.2076 47.8471 88.3644 48.0497 88.5376C48.2813 88.7357 48.5088 88.9378 48.8149 89.0368C49.1168 89.1358 49.3897 89.3009 49.6793 89.4329C49.9357 89.5484 50.188 89.6474 50.4857 89.6557C50.7629 89.6598 51.0441 89.7588 51.3171 89.8207C51.5859 89.8826 51.8175 89.8455 52.0408 89.6722C52.2352 89.5195 52.2724 89.3215 52.2683 89.1028C52.2683 88.9997 52.1897 88.9626 52.1029 88.9337C51.7058 88.7934 51.3129 88.649 50.9159 88.5088C50.9159 88.5129 50.9117 88.5211 50.9076 88.5253C50.279 88.2983 49.6503 88.0632 49.0175 87.8445L49.0217 87.8404Z" fill="white" />
		<path d="M43.9844 98.9094C44.2491 98.831 44.4228 98.9672 44.4187 99.2436C44.4187 99.2931 44.4063 99.3467 44.4063 99.3962C44.4063 99.5448 44.427 99.5695 44.58 99.5901C44.7992 99.6149 44.9812 99.5365 45.1508 99.4086C45.279 99.3137 45.4196 99.2147 45.5685 99.1735C45.8828 99.0868 46.1392 99.2683 46.1764 99.5901C46.1889 99.718 46.1806 99.8459 46.1682 99.9738C46.1516 100.143 46.1103 100.312 46.0937 100.481C46.0689 100.762 46.1889 100.943 46.4536 101.034C46.6934 101.117 46.9374 101.108 47.1442 100.952C47.3097 100.828 47.4586 100.688 47.5992 100.535C47.7605 100.358 47.897 100.155 48.0624 99.9821C48.1699 99.8666 48.1948 99.7552 48.1575 99.6108C48.1203 99.454 48.1038 99.289 48.0789 99.1281C48.0955 99.1281 48.1162 99.124 48.1327 99.1198C48.1741 99.3261 48.2113 99.5283 48.2568 99.7634C48.3478 99.6974 48.4057 99.652 48.4636 99.6108C48.3809 99.1652 48.2609 98.7403 48.2733 98.2988C48.3602 98.7238 48.4429 99.1487 48.5298 99.5736C49.0137 99.4953 49.0385 99.4994 49.5141 99.7057C49.4521 99.4994 49.3859 99.3055 49.3404 99.1074C49.2949 98.9053 49.1956 98.7073 49.2329 98.4886C49.2618 98.4927 49.2742 98.4886 49.2742 98.4969C49.299 98.5505 49.3238 98.6041 49.3404 98.6578C49.5058 99.2353 49.725 99.7964 49.9732 100.345C50.3123 101.088 50.6515 101.83 50.9658 102.585C51.1726 103.085 51.338 103.6 51.5117 104.112C51.5903 104.343 51.5986 104.582 51.5448 104.826C51.4704 105.16 51.2263 105.383 50.8913 105.432C50.6142 105.473 50.3413 105.469 50.0724 105.407C49.2411 105.217 48.4098 105.048 47.5992 104.772C47.2973 104.669 46.9912 104.578 46.6852 104.491C46.1392 104.339 45.585 104.211 45.0474 104.042C44.2574 103.794 43.484 103.514 42.6982 103.258C42.2763 103.122 41.8917 102.92 41.5029 102.713C41.2465 102.577 41.1431 102.354 41.1472 102.078C41.1472 101.711 41.3085 101.401 41.5112 101.104C41.8917 100.56 42.3632 100.093 42.8223 99.619C43.12 99.3096 43.4716 99.0662 43.8686 98.7939C43.8314 98.8847 43.8149 98.9259 43.7859 99.0084C43.8769 98.9713 43.9307 98.9424 43.9844 98.9259V98.9094ZM48.5173 99.8831C48.1947 99.9738 48.3685 100.234 48.3188 100.424C48.294 100.337 48.2692 100.254 48.232 100.131C48.1244 100.267 48.0335 100.378 47.9425 100.49C47.7522 100.733 47.5578 100.976 47.2973 101.15C46.9499 101.381 46.5859 101.385 46.2219 101.199C45.9324 101.051 45.8042 100.799 45.8373 100.477C45.8497 100.358 45.8828 100.242 45.8952 100.122C45.9118 99.9614 45.9366 99.7964 45.9324 99.6355C45.9242 99.4334 45.7794 99.3467 45.5892 99.421C45.4899 99.4623 45.3948 99.5324 45.3121 99.6025C45.0804 99.7964 44.824 99.8789 44.5221 99.8418C44.245 99.8047 44.1416 99.6892 44.154 99.4169C44.154 99.3344 44.1581 99.2518 44.1623 99.1363C43.91 99.1776 43.7404 99.4457 43.4716 99.322C43.331 99.4581 43.1904 99.5778 43.0621 99.718C42.6031 100.217 42.1109 100.688 41.7304 101.253C41.6063 101.434 41.4988 101.636 41.4326 101.847C41.3168 102.21 41.4119 102.375 41.7469 102.561C42.2763 102.854 42.8512 103.039 43.422 103.229C44.2409 103.497 45.0556 103.774 45.8745 104.038C46.0772 104.104 46.2923 104.137 46.499 104.194C47.1939 104.396 47.8804 104.615 48.5794 104.805C49.1501 104.958 49.7333 105.085 50.3123 105.201C50.486 105.238 50.6721 105.222 50.85 105.201C51.1436 105.172 51.3463 104.978 51.3628 104.681C51.3752 104.495 51.367 104.297 51.3132 104.124C51.1436 103.592 50.9616 103.064 50.7507 102.548C50.4116 101.723 50.0559 100.902 49.6837 100.089C49.5679 99.8336 49.3032 99.7304 49.0302 99.7098C48.8937 99.6974 48.749 99.751 48.6083 99.7717C48.6332 99.9656 48.6497 100.126 48.6704 100.283H48.6745C48.6249 100.151 48.5752 100.019 48.5215 99.8789L48.5173 99.8831Z" fill="white" />
		<path d="M44.9684 97.6427C45.047 97.5808 45.1338 97.5272 45.2082 97.4571C45.9155 96.797 46.4738 96.0214 46.937 95.1797C46.9453 95.1674 46.937 95.1467 46.9453 95.1055C46.9081 95.1385 46.8709 95.155 46.8543 95.1839C46.3456 96.0626 45.7459 96.8671 44.9973 97.5602C44.9808 97.5767 44.9725 97.6056 44.9601 97.6262L44.9684 97.6427Z" fill="white" />
		<path d="M45.3865 97.6595C45.4279 97.6347 45.4817 97.6223 45.5106 97.5893C45.9201 97.1726 46.3254 96.7559 46.7307 96.3351C46.7969 96.265 46.8424 96.1784 46.8672 96.0793C46.6893 96.2732 46.5156 96.4713 46.3337 96.6611C46.0648 96.9416 45.7919 97.2139 45.523 97.4903C45.4693 97.5439 45.432 97.6099 45.3865 97.6677V97.6595Z" fill="white" />
		<path d="M41.0886 103.332C41.7297 103.584 42.3707 103.84 43.0118 104.091C43.0159 104.079 43.0242 104.066 43.0283 104.05C42.3873 103.786 41.7503 103.526 41.1093 103.262C41.101 103.283 41.0969 103.307 41.0886 103.328V103.332Z" fill="white" />
		<path d="M42.6816 103.637C42.326 103.485 41.991 103.336 41.6518 103.188C41.7924 103.34 42.2556 103.543 42.6816 103.637Z" fill="white" />
		<path d="M51.5771 102.68C51.482 102.367 51.391 102.053 51.2959 101.74C51.2794 101.744 51.2587 101.752 51.2421 101.756C51.3125 102.078 51.4283 102.387 51.5275 102.705C51.5441 102.697 51.5606 102.688 51.5771 102.68Z" fill="white" />
		<path d="M40.8447 102.408C40.7165 102.169 40.5883 101.929 40.6379 101.591C40.5056 101.859 40.58 102.127 40.8447 102.408Z" fill="white" />
		<path d="M51.7177 102.247C51.7838 102.519 51.85 102.792 51.9203 103.064C51.9327 102.771 51.8707 102.499 51.7342 102.239L51.7177 102.247Z" fill="white" />
		<path d="M40.2745 101.942C40.3076 102.185 40.3779 102.301 40.5723 102.433C40.473 102.272 40.382 102.119 40.2745 101.942Z" fill="white" />
		<path d="M52.0491 105.981C52.1856 105.923 52.2352 105.799 52.2725 105.663C52.1939 105.762 52.1194 105.865 52.0409 105.964L52.0491 105.981Z" fill="white" />
		<path d="M44.9605 97.6265C44.8695 97.6925 44.7826 97.7585 44.6916 97.8245C44.7041 97.841 44.7206 97.8575 44.733 97.8699C44.8116 97.7956 44.8902 97.7172 44.9688 97.643L44.9605 97.6265Z" fill="white" />
		<path d="M51.7351 102.239C51.7062 102.14 51.6772 102.041 51.6524 101.942C51.6317 101.95 51.611 101.958 51.5945 101.962C51.6359 102.057 51.6814 102.152 51.7227 102.247L51.7393 102.239H51.7351Z" fill="white" />
		<path d="M51.4697 105.898L51.1761 105.919C51.2795 105.956 51.3829 105.989 51.4697 105.894V105.898Z" fill="white" />
		<path d="M51.524 106.232C51.4412 106.232 51.3627 106.232 51.2799 106.232C51.3627 106.294 51.4454 106.303 51.5322 106.245L51.524 106.228V106.232Z" fill="white" />
		<path d="M41.7215 99.2229C41.7753 99.1775 41.829 99.1321 41.8828 99.0826C41.8745 99.0744 41.8663 99.0661 41.858 99.0579C41.8042 99.1032 41.7505 99.1528 41.6967 99.1981C41.705 99.2064 41.7132 99.2146 41.7215 99.2229Z" fill="white" />
		<path d="M45.3896 97.6635C45.3193 97.7131 45.2449 97.7584 45.1746 97.8079C45.187 97.8244 45.1994 97.8368 45.2159 97.8533C45.2738 97.7873 45.3317 97.7213 45.3855 97.6594V97.6635H45.3896Z" fill="white" />
		<path d="M41.0433 99.8171C41.1012 99.7676 41.155 99.7222 41.2129 99.6727C41.2046 99.6603 41.1963 99.6521 41.1839 99.6438C41.1302 99.6933 41.0723 99.7387 41.0185 99.7882C41.0268 99.7964 41.035 99.8088 41.0433 99.8171Z" fill="white" />
		<path d="M51.4703 105.894C51.5489 105.882 51.6275 105.873 51.7061 105.861C51.6109 105.807 51.5365 105.824 51.4703 105.898V105.894Z" fill="white" />
		<path d="M52.0406 105.964C51.9744 106.001 51.9041 106.042 51.8379 106.08C51.8503 106.096 51.8586 106.113 51.871 106.129C51.9289 106.08 51.9909 106.03 52.0488 105.981L52.0406 105.964Z" fill="white" />
		<path d="M51.5282 106.249C51.6067 106.232 51.6812 106.216 51.7598 106.195C51.7556 106.175 51.7474 106.158 51.7432 106.137C51.6688 106.17 51.5985 106.199 51.524 106.232L51.5323 106.249H51.5282Z" fill="white" />
		<path d="M49.5013 102.618C49.4144 102.614 49.3648 102.598 49.3234 102.61C49.0753 102.689 48.8395 103.015 48.8354 103.279C48.8313 103.551 49.0008 103.786 49.2242 103.807C49.4723 103.831 49.7329 103.625 49.7825 103.369C49.8321 103.089 49.6874 102.878 49.34 102.8C49.4227 102.862 49.464 102.895 49.5054 102.928C49.7411 103.118 49.6874 103.481 49.4103 103.605C49.2614 103.671 49.1166 103.613 49.0505 103.456C48.9801 103.287 49.0215 103.13 49.1249 102.998C49.2242 102.874 49.3482 102.771 49.5013 102.618Z" fill="white" />
		<path d="M46.2174 102.408C46.0726 102.536 45.8948 102.523 45.7872 102.391C45.6714 102.251 45.6797 102.041 45.8245 101.938C45.9237 101.867 46.0519 101.822 46.176 101.801C46.329 101.777 46.3704 101.822 46.3869 101.983C46.3952 102.049 46.3869 102.115 46.3869 102.193C46.329 102.268 46.2794 102.35 46.2132 102.412L46.2174 102.408ZM45.9403 102.09C45.9113 102.132 45.9155 102.218 45.9403 102.268C45.9527 102.297 46.0561 102.309 46.0933 102.284C46.1512 102.247 46.2091 102.181 46.2298 102.115C46.2422 102.082 46.1802 102.024 46.1429 101.962C46.0644 102.008 45.9858 102.037 45.9444 102.09H45.9403Z" fill="white" />
		<path d="M44.9557 101.331C44.9102 101.459 44.7862 101.517 44.6662 101.467C44.5256 101.409 44.4098 101.207 44.4553 101.092C44.4967 100.989 44.6621 100.927 44.7903 100.968C44.9268 101.013 45.0054 101.187 44.9557 101.327V101.331ZM44.6455 101.191C44.6455 101.236 44.7117 101.282 44.7489 101.327C44.7696 101.323 44.7862 101.315 44.8068 101.31C44.8151 101.244 44.8275 101.183 44.8358 101.117C44.811 101.104 44.7903 101.088 44.7655 101.075C44.7241 101.112 44.6455 101.154 44.6455 101.191Z" fill="white" />
		<path d="M44.0799 100.502C43.9599 100.527 43.8607 100.584 43.7986 100.696C43.7449 100.787 43.7449 100.877 43.8276 100.952C43.8979 101.018 43.9847 101.026 44.0633 100.972C44.1502 100.915 44.1833 100.832 44.146 100.729C44.1212 100.659 44.1047 100.584 44.0757 100.502H44.0799Z" fill="white" />
		<path d="M48.5215 102.016C48.3809 102.131 48.3561 102.259 48.4016 102.395C48.4181 102.445 48.4926 102.49 48.5463 102.503C48.567 102.507 48.6332 102.428 48.6415 102.383C48.6621 102.255 48.6415 102.131 48.5174 102.02L48.5215 102.016Z" fill="white" />
		<path d="M48.7359 100.58C48.7152 100.481 48.6904 100.386 48.6697 100.287H48.6738C48.6986 100.386 48.7193 100.481 48.7441 100.58H48.7359Z" fill="white" />
		<path d="M48.7415 100.576L48.7619 100.84C48.8107 100.745 48.7985 100.659 48.7375 100.58H48.7456L48.7415 100.576Z" fill="white" />
		<path d="M48.4385 100.803C48.4219 100.733 48.4054 100.667 48.3847 100.601C48.3723 100.601 48.364 100.601 48.3516 100.605C48.3682 100.671 48.3806 100.741 48.3971 100.807C48.3971 100.807 48.4178 100.807 48.4343 100.807L48.4385 100.803Z" fill="white" />
		<path d="M75.7427 11.1806C75.6872 11.9895 75.5983 12.7984 75.565 13.6184C75.5428 14.1502 75.3762 14.4162 74.9096 14.527C74.1098 14.7264 73.3211 15.0034 72.5325 15.2805C72.277 15.3691 72.0548 15.5686 71.666 15.8013C72.6658 16.9869 73.9432 16.9315 74.9763 17.5299C74.9207 18.1836 74.843 18.8263 74.8208 19.4801C74.8097 19.9122 74.743 20.4552 75.1762 20.6657C75.6317 20.8762 75.8427 20.3776 76.076 20.0341C76.4981 19.4247 76.898 18.8041 77.3201 18.1725C77.7756 18.3609 78.1532 18.5382 78.542 18.6823C78.9308 18.8263 79.2752 19.3139 79.7973 18.8928C79.664 17.818 78.7753 17.2307 78.5531 16.2556C79.153 14.9924 80.2083 14.1835 80.8192 12.9868C80.7859 12.9203 80.7526 12.8538 80.7193 12.7873C79.6417 13.1419 78.5754 13.4965 77.5201 13.84C76.9647 12.8649 76.7092 11.8011 76.0093 11.103C75.9094 11.1252 75.8205 11.1584 75.7205 11.1806H75.7427ZM77.098 17.408C76.6425 17.275 76.1982 17.142 75.6761 16.998C75.765 16.2556 75.8427 15.5796 75.9316 14.8483C76.3537 14.7375 76.7425 14.6489 77.209 14.527C77.4312 15.0921 77.6312 15.624 77.8533 16.2112C77.5756 16.6434 77.3534 16.998 77.0868 17.408H77.098ZM72.7102 16.0561C72.7102 15.9786 72.7102 15.901 72.6991 15.8234C73.5322 15.4467 74.3986 15.2472 75.4095 15.0034C75.3206 15.6572 75.2429 16.178 75.154 16.8761C74.2542 16.5769 73.4878 16.311 72.7102 16.0561ZM75.4317 20.0341C75.2762 19.0812 75.3651 18.4052 75.5983 17.6739C75.9316 17.7515 76.2537 17.8401 76.7536 17.962C76.2759 18.7155 75.9094 19.2917 75.4317 20.0452V20.0341ZM78.2199 15.624C78.0422 15.1697 77.9089 14.8262 77.7422 14.394C78.3421 14.1835 78.8531 14.0173 79.364 13.84C79.3863 13.8843 79.4085 13.9286 79.4307 13.9729C79.0641 14.4827 78.6864 14.9813 78.231 15.6129L78.2199 15.624ZM76.0538 14.117C76.0538 13.7624 76.0538 13.4632 76.0538 13.164C76.0538 12.887 76.076 12.6211 76.0982 12.2111C76.5648 12.743 76.7869 13.2749 76.898 13.9619C76.5981 14.0173 76.3426 14.0505 76.0538 14.1059V14.117ZM77.6978 17.6074C77.8644 17.3415 77.9866 17.1531 78.1421 16.8983C78.3421 17.2528 78.5087 17.5299 78.6642 17.8069C78.6309 17.8623 78.6087 17.9066 78.5754 17.962C78.3199 17.8623 78.0533 17.7515 77.6978 17.6074Z" fill="white" />
		<path d="M7.39411 67.249C7.14973 67.3598 6.87202 67.3931 6.64986 67.526C4.78367 68.6674 2.90637 69.8197 1.0624 70.9943C0.629176 71.2713 0.262603 71.6481 -0.0928615 72.0248C-0.215052 72.1467 -0.259486 72.3794 -0.281702 72.5678C-0.315027 72.8226 -0.303919 73.0886 -0.281702 73.3545C-0.259486 73.6648 -0.281702 73.9972 -0.170619 74.2853C0.118196 75.0388 0.440336 75.7812 0.806908 76.5125C1.16237 77.2217 1.6067 77.8754 1.96217 78.5846C2.52869 79.6927 3.06189 80.8118 3.6173 81.931C4.68369 84.1028 5.78341 86.2525 6.80537 88.4465C8.23834 91.5158 9.58244 94.6295 11.0154 97.6989C12.4373 100.724 13.9258 103.727 15.3921 106.73C15.9475 107.86 16.4918 109.001 17.125 110.098C17.6804 111.062 18.4468 111.771 19.6465 111.949C21.0017 112.148 22.0904 112.802 22.8457 113.999C23.7788 115.495 24.7897 116.935 25.7561 118.409C26.1338 118.985 26.156 119.007 26.8447 119.085C26.9225 119.229 27.0002 119.395 27.078 119.55C27.389 120.126 27.6778 120.714 28.0111 121.279C28.2666 121.711 28.4998 121.722 28.7886 121.356C29.0664 121.002 29.3218 120.625 29.5662 120.248C29.8661 119.783 29.9328 119.273 29.7217 118.763C29.5995 118.453 29.4218 118.165 29.2663 117.855C29.6218 117.456 29.5884 117.046 29.444 116.614C29.0441 115.461 28.6998 114.287 28.2554 113.157C27.3779 110.94 27.4779 108.846 28.7886 106.818C28.8775 106.674 28.9553 106.475 28.9442 106.32C28.8775 105.677 28.8553 105.023 28.5332 104.425C28.0777 103.594 27.6667 102.741 27.2446 101.887C26.0449 99.4607 24.8674 97.0119 23.6344 94.5963C21.8015 90.995 19.9242 87.4049 18.0803 83.8036C17.1361 81.9532 16.2696 80.0583 15.3365 78.1968C14.3812 76.2687 13.4148 74.3628 12.4373 72.4459C11.8152 71.2159 11.1931 69.986 10.5378 68.7671C10.1156 67.9803 9.58244 67.3487 8.49383 67.7144C8.22723 67.2047 7.89399 67.0385 7.40522 67.2601L7.39411 67.249ZM26.4004 118.686C26.2115 118.42 26.0449 118.22 25.9116 117.999C25.234 116.902 24.5675 115.805 23.8788 114.719C23.5233 114.165 23.1345 113.644 22.7346 113.123C21.9682 112.126 20.8907 111.694 19.6799 111.55C18.6912 111.428 17.9803 110.907 17.5471 110.076C16.7917 108.658 16.1141 107.206 15.4032 105.766C15.0033 104.935 14.6145 104.092 14.2257 103.25C12.5372 99.6491 10.8599 96.0479 9.17144 92.4466C7.69404 89.2997 6.23885 86.1306 4.75034 82.9947C3.96166 81.3437 3.12854 79.7148 2.29542 78.086C1.74 77.0001 1.12905 75.9363 0.551418 74.8726C0.462552 74.7174 0.373686 74.5512 0.340361 74.3739C0.184845 73.6315 0.184845 72.9445 0.995749 72.5124C1.49562 72.2464 1.93995 71.8918 2.42872 71.6148C4.02831 70.7173 5.6279 69.8308 7.22749 68.9444C7.48298 68.8003 7.73847 68.6563 8.00507 68.5344C8.83819 68.1244 9.37139 68.2574 9.9268 69.0109C10.1379 69.299 10.3156 69.6203 10.4822 69.9416C11.5708 72.1245 12.6483 74.3185 13.7369 76.5014C15.6476 80.3243 17.5582 84.1361 19.491 87.9478C21.0684 91.0504 22.7013 94.1198 24.2898 97.2224C25.3895 99.3721 26.467 101.544 27.5556 103.705C27.7 103.982 27.8555 104.27 28.0333 104.525C28.5887 105.334 28.5998 105.987 28.1221 106.829C27.0446 108.713 26.8114 110.697 27.5667 112.758C28.0666 114.132 28.5776 115.517 29.0886 116.891C29.1219 116.99 29.1441 117.101 29.2108 117.323C28.2666 117.799 27.3668 118.254 26.4115 118.741L26.4004 118.686ZM0.618068 71.9916C0.762475 71.6259 1.02907 71.3156 1.37343 71.1051C2.70642 70.3073 4.05052 69.5206 5.38352 68.7228C5.88339 68.4236 6.38326 68.1133 6.89424 67.8252C7.18306 67.6701 7.49409 67.4928 7.94953 67.8252C5.46127 69.2325 3.03967 70.6065 0.60696 71.9805L0.618068 71.9916ZM27.2113 118.918C27.3742 118.837 27.6075 119.033 27.9111 119.506C27.8 119.196 27.7111 118.93 27.6223 118.675C27.6667 118.653 27.7222 118.619 27.7667 118.597C27.9222 118.819 28.0777 119.029 28.2999 119.362C28.1666 119.007 28.0777 118.774 27.9666 118.508C28.2443 118.364 28.4998 118.243 28.7553 118.11C29.544 119.284 29.4107 119.727 28.2777 121.013C27.9111 120.304 27.5667 119.605 27.2113 118.918Z" fill="white" />
		<path d="M26.3119 107.051C24.0569 108.48 21.5465 109.367 19.0693 110.364C19.1693 110.264 19.2582 110.154 19.3804 110.087C19.8358 109.843 20.3024 109.588 20.7689 109.378C22.5351 108.569 24.3124 107.771 26.0787 106.973C26.1342 106.951 26.2008 106.94 26.2675 106.918L26.3119 107.051Z" fill="white" />
		<path d="M11.8822 94.6737C10.3159 92.3578 9.02733 89.8758 8.0498 87.1499C9.34947 89.7096 10.6158 92.1916 11.8822 94.6737Z" fill="white" />
		<path d="M21.6685 94.1529C22.957 96.6793 24.2345 99.2057 25.523 101.732C25.1898 101.167 24.8343 100.624 24.5344 100.048C23.6013 98.2639 22.7015 96.4799 21.7795 94.6848C21.7018 94.5297 21.6129 94.3635 21.5352 94.2083C21.5796 94.1862 21.624 94.164 21.6685 94.1418V94.1529Z" fill="white" />
		<path d="M19.2803 102.464C19.8024 103.35 20.3133 104.248 20.8354 105.134C21.3464 105.998 21.8796 106.841 22.4906 107.838C22.2795 107.694 22.1795 107.66 22.1351 107.583C21.1465 105.899 20.1689 104.203 19.1914 102.519C19.2136 102.497 19.2469 102.486 19.2692 102.464H19.2803Z" fill="white" />
		<path d="M26.6445 112.891C26.6223 112.68 26.6223 112.458 26.5779 112.248C26.4001 111.35 26.1891 110.453 26.0224 109.555C25.9669 109.278 26.0113 108.979 26.0447 108.691C26.3446 110.209 26.6556 111.738 26.9444 113.212C26.8778 113.145 26.7667 113.012 26.6445 112.891Z" fill="white" />
		<path d="M25.0782 115.672C24.2118 114.431 23.3453 113.19 22.4678 111.96C23.5786 113.035 24.3562 114.331 25.0782 115.672Z" fill="white" />
		<path d="M18.2578 108.691C17.5135 107.239 16.7804 105.777 16.0361 104.325C16.0583 104.325 16.0806 104.303 16.1028 104.292C16.847 105.744 17.5802 107.206 18.3244 108.658C18.3022 108.658 18.28 108.68 18.2578 108.691Z" fill="white" />
		<path d="M1.3623 73.5762C2.00658 74.928 2.63976 76.2799 3.28404 77.6317C2.49535 76.3574 1.77331 75.0499 1.3623 73.5762Z" fill="white" />
		<path d="M20.8125 103.184C21.6123 104.558 22.3454 105.799 23.0675 107.029C22.6787 106.774 21.5679 104.901 20.8125 103.184Z" fill="white" />
		<path d="M4.23923 77.5541C3.56163 76.2133 2.87292 74.8725 2.19531 73.5318C2.21753 73.5207 2.23975 73.5096 2.26196 73.4985C2.93957 74.8393 3.62828 76.1801 4.30588 77.5208C4.28367 77.5319 4.26145 77.543 4.23923 77.5652V77.5541Z" fill="white" />
		<path d="M24.4458 101.677C23.8126 100.425 23.1683 99.1726 22.5352 97.9205C22.5574 97.9205 22.5796 97.8983 22.5907 97.8872C23.2239 99.1393 23.8681 100.391 24.5013 101.644C24.4791 101.644 24.4569 101.666 24.4458 101.677Z" fill="white" />
		<path d="M5.5061 72.7007C6.13927 73.9417 6.76134 75.1717 7.39451 76.4127C7.37229 76.4127 7.36118 76.4349 7.33897 76.446C6.7058 75.2049 6.07262 73.9639 5.43945 72.7228C5.46167 72.7228 5.48389 72.7118 5.5061 72.7007Z" fill="white" />
		<path d="M10.9595 73.3656C10.3818 72.2354 9.80419 71.1051 9.22656 69.9638C9.23767 69.9638 9.24878 69.9527 9.271 69.9417C9.84863 71.0719 10.4263 72.2021 11.0039 73.3434C10.9928 73.3434 10.9817 73.3545 10.9595 73.3656Z" fill="white" />
		<path d="M5.7832 72.2908C6.42748 73.2659 6.93846 74.3075 7.36058 75.3934C6.83849 74.3629 6.30529 73.3324 5.7832 72.2908Z" fill="white" />
		<path d="M26.5225 104.148C26.9001 104.957 27.2556 105.777 26.9335 106.697C27.0446 105.799 26.7335 104.979 26.5225 104.148Z" fill="white" />
		<path d="M24.6896 114.42C24.2008 113.733 23.7231 113.035 23.2344 112.348C23.2677 112.325 23.3121 112.292 23.3455 112.27L24.7784 114.364C24.7784 114.364 24.7118 114.409 24.6784 114.431L24.6896 114.42Z" fill="white" />
		<path d="M26.6554 112.891C26.1 112.06 25.8667 111.107 25.6445 110.143C25.9778 111.062 26.311 111.971 26.6554 112.891Z" fill="white" />
		<path d="M17.3913 108.226C17.0914 107.627 16.7804 107.029 16.4805 106.431C16.4916 106.431 16.5027 106.42 16.5249 106.408C16.8248 106.996 17.1247 107.594 17.4247 108.181C17.4247 108.192 17.4025 108.204 17.3913 108.226Z" fill="white" />
		<path d="M9.28222 71.2936C9.10449 70.939 8.92676 70.5955 8.74902 70.2409C8.76013 70.2409 8.78235 70.2298 8.79346 70.2188L9.33776 71.2936C9.33776 71.2936 9.30444 71.2936 9.28222 71.2936Z" fill="white" />
		<path d="M26.1111 105.766L25.9111 104.879L26 104.857L26.2444 105.732L26.1111 105.766Z" fill="white" />
		<path d="M9.87121 72.7117C9.77124 72.5123 9.67126 72.3239 9.57129 72.1245C9.5824 72.1245 9.60461 72.1134 9.61572 72.1023C9.7157 72.3017 9.81567 72.4901 9.91565 72.6896C9.90454 72.6896 9.88232 72.7007 9.87121 72.7117Z" fill="white" />
		<path d="M109.233 29.5413C109.5 28.9762 109.844 28.7324 110.466 28.6327C112.788 28.2338 114.821 27.2033 116.442 25.4858C117.053 24.832 117.52 24.0453 118.042 23.314C119.153 21.7627 119.786 20.0119 120.164 18.1614C120.264 17.6628 120.33 17.1198 120.253 16.6101C119.975 14.804 119.753 13.0089 118.864 11.3246C118.231 10.1168 117.431 9.05305 116.431 8.26632C114.887 7.0696 113.254 5.93937 111.255 5.49614C107.211 4.5986 103.446 4.90886 100.18 7.73445C97.7694 9.81762 96.3475 12.3551 96.5142 15.635C96.603 17.5741 97.1029 19.3914 97.9805 21.12C98.6247 22.3832 99.3357 23.6242 99.9688 24.8874C100.158 25.2753 100.302 25.7406 100.269 26.1506C100.213 26.9374 100.035 27.7241 99.8467 28.4997C99.78 28.7657 99.5467 28.9984 99.3801 29.2311C99.2801 29.364 99.1357 29.4749 99.058 29.6189C98.4803 30.8045 98.0027 32.0456 97.8694 33.3642C97.825 33.8185 97.8694 34.3836 98.1138 34.7493C98.4581 35.2701 98.5803 35.7909 98.6914 36.3671C99.1802 39.0264 102.124 40.1678 104.057 39.104C104.757 38.7162 105.534 38.4835 105.934 37.7078C105.99 37.597 106.134 37.5305 106.256 37.4641C107.189 36.9654 107.767 36.1565 108.222 35.2368C108.9 33.8739 108.811 33.2755 107.811 32.1453C108.322 31.2367 108.844 30.4167 109.244 29.5413H109.233ZM106.223 18.2722C106.501 17.0977 106.045 16.0893 105.512 15.1031C105.212 14.5491 104.69 14.2721 104.112 14.0837C103.601 13.9175 103.09 13.8621 102.69 14.3607C102.302 14.8483 102.024 15.4023 102.368 15.9896C102.801 16.732 103.312 17.4301 103.857 18.0949C104.223 18.5382 104.723 18.8817 105.201 19.3027C104.501 23.0148 102.968 26.4276 101.435 29.9735C101.102 29.8294 100.78 29.6854 100.424 29.5303C100.602 28.8987 100.735 28.3335 100.913 27.7795C101.302 26.6271 101.18 25.5301 100.613 24.4664C99.9466 23.2142 99.2579 21.9621 98.6358 20.6878C97.5472 18.5049 97.014 16.2112 97.3695 13.7513C97.6916 11.5241 98.9136 9.83979 100.524 8.39929C103.301 5.90612 106.578 5.42965 110.155 6.01693C112.377 6.3826 114.176 7.53499 115.865 8.8536C116.753 9.56277 117.464 10.5268 118.02 11.6016C118.82 13.1308 119.053 14.7486 119.297 16.3774C119.386 16.9425 119.353 17.5631 119.242 18.1282C118.742 20.5881 117.575 22.7599 115.954 24.6547C114.454 26.4055 112.455 27.3695 110.2 27.7463C109.344 27.8903 108.844 28.2449 108.478 29.0205C108.033 29.9846 107.456 30.8932 106.867 31.9348C106.034 31.7242 105.245 31.5359 104.39 31.3253C105.579 27.4803 107.034 23.9123 108.878 20.5216C109.378 20.4773 109.833 20.4662 110.277 20.3886C111.277 20.2335 112.121 19.7792 112.777 19.0146C113.41 18.2722 113.377 17.2639 112.743 16.5436C112.21 15.9453 111.455 15.768 110.777 16.2001C110.322 16.4993 109.933 16.9093 109.578 17.3304C109.322 17.6406 109.155 18.0395 108.978 18.4163C108.333 19.7681 107.867 19.9343 106.512 19.2252C106.389 19.1587 106.289 19.07 106.156 18.9703C106.178 18.7265 106.167 18.4828 106.223 18.2501V18.2722ZM107.778 20.4995C106.367 23.9899 104.956 27.4582 103.535 30.9818C103.057 30.7713 102.524 30.5275 101.891 30.2505C103.568 26.9374 105.101 23.6353 105.878 19.9565C106.645 20.1781 107.234 20.3443 107.789 20.4995H107.778ZM102.302 31.558C103.568 32.234 104.912 32.6107 106.334 32.6883C106.7 32.7104 107.089 32.7658 107.422 32.921C107.778 33.0872 108.033 33.3974 107.9 33.8517C107.778 34.2617 107.411 34.2285 107.123 34.1731C106.134 33.9958 105.112 33.8961 104.201 33.5304C102.668 32.9099 101.213 32.101 99.7245 31.3918C99.2135 31.148 99.0469 30.8267 99.4801 30.2394C100.446 30.6827 101.391 31.0816 102.302 31.5691V31.558ZM107.567 34.705C107.567 34.7825 107.556 34.849 107.545 34.9266C107.378 34.9931 107.223 35.1039 107.056 35.1039C105.501 35.1814 104.001 34.8601 102.579 34.3061C101.457 33.8739 100.413 33.2423 99.3468 32.6661C98.8913 32.4223 98.7358 32.0234 99.1024 31.4361C101.746 33.0429 104.412 34.4612 107.556 34.6939L107.567 34.705ZM103.279 37.9738C103.379 38.0846 103.457 38.1732 103.535 38.2619C101.757 38.6054 101.435 38.6054 100.791 38.1732C99.9911 37.6303 99.4468 36.91 99.2246 35.802C101.08 36.5111 102.679 37.6303 104.745 37.5638C104.29 38.3062 103.757 37.8851 103.29 37.9738H103.279ZM107.056 35.5693C107.011 36.1011 106.656 36.2563 106.212 36.2009C105.29 36.079 104.323 36.0568 103.468 35.7355C101.991 35.1814 100.58 34.4279 99.1579 33.7409C98.8358 33.5858 98.4137 33.3974 98.8136 32.8434C101.202 34.4058 102.535 34.8379 107.056 35.5803V35.5693ZM103.046 15.9564C102.779 15.5131 102.768 15.1031 103.146 14.7375C103.501 14.405 103.857 14.6377 104.19 14.804C105.134 15.3026 105.667 16.865 105.323 18.2611C104.301 17.6517 103.59 16.8871 103.046 15.9564ZM110.666 17.2085C111.21 16.6766 111.71 16.6212 112.11 17.009C112.577 17.4523 112.555 18.1282 112.01 18.649C111.31 19.3249 110.477 19.6573 109.366 19.6352C109.689 18.6601 110.011 17.8512 110.666 17.2085ZM105.89 36.6884C104.801 37.0652 103.723 36.766 102.724 36.4557C100.313 35.6911 99.058 34.8601 98.6247 33.8407C101.013 35.2368 103.268 36.4336 105.89 36.6884Z" fill="white" />
		<path d="M94.5479 6.44897C95.5587 7.32435 96.8251 7.92271 97.5804 9.24132C96.6029 9.24132 95.1366 7.84515 94.5479 6.44897Z" fill="white" />
		<path d="M97.9912 1.87256C99.4131 3.169 100.213 4.42113 100.335 5.45164C99.5908 5.06381 98.4689 3.4017 97.9912 1.87256Z" fill="white" />
		<path d="M119.364 1.92798C118.708 3.09146 118.02 4.22169 116.709 4.98626C116.798 4.07764 118.242 2.43769 119.364 1.92798Z" fill="white" />
		<path d="M118.908 7.43513C119.597 6.58191 121.041 5.70653 122.041 5.50708C121.23 6.7592 119.686 7.70107 118.908 7.43513Z" fill="white" />
		<path d="M102.612 4.15528C102.09 2.82559 101.601 1.4959 101.401 0C102.212 0.975105 102.934 3.29098 102.612 4.15528Z" fill="white" />
		<path d="M105.912 0.088623C106.556 1.2521 106.667 2.63719 106.267 3.46825C105.778 2.96961 105.923 2.37125 105.889 1.8283C105.867 1.2521 105.889 0.664821 105.9 0.088623H105.912Z" fill="white" />
		<path d="M114.676 24.0784C113.421 25.3859 112.31 25.9953 111.433 25.9732C112.41 25.397 113.454 24.7875 114.676 24.0784Z" fill="white" />
		<path d="M98.5581 12.1112C98.4359 12.632 98.3248 13.1528 98.2026 13.6736C98.1582 13.6736 98.1138 13.6514 98.0693 13.6404C98.1804 13.1196 98.2915 12.5877 98.4026 12.0669C98.4581 12.078 98.5026 12.0891 98.5581 12.1001V12.1112Z" fill="white" />
		<path d="M98.7797 13.5629L98.9796 12.1667C98.9796 12.1667 99.0574 12.1667 99.0907 12.1778L98.8907 13.5518C98.8907 13.5518 98.813 13.5518 98.7686 13.5518L98.7797 13.5629Z" fill="white" />
		<path d="M112.81 24.2556C113.076 24.0673 113.332 23.8789 113.598 23.6794C113.632 23.7127 113.654 23.757 113.687 23.7902C113.432 23.9897 113.176 24.2002 112.932 24.3997C112.887 24.3554 112.854 24.3 112.81 24.2556Z" fill="white" />
		<path d="M115.487 12.2776C115.354 12.1224 115.232 11.9673 115.099 11.8122C115.121 11.79 115.154 11.7568 115.176 11.7346C115.321 11.8787 115.465 12.0338 115.61 12.1778C115.565 12.2111 115.521 12.2443 115.476 12.2776H115.487Z" fill="white" />
		<path d="M115.343 10.6819C115.499 10.8592 115.654 11.0365 115.821 11.2027C115.787 11.2359 115.754 11.2692 115.721 11.3024C115.543 11.1362 115.365 10.9589 115.188 10.7927C115.243 10.7594 115.287 10.7151 115.343 10.6819Z" fill="white" />
		<path d="M67.6664 107.605C67.1777 106.852 66.7 106.087 66.2001 105.345C65.9335 104.946 65.6558 104.536 65.3115 104.203C64.8227 103.738 64.2895 103.882 64.1451 104.536C64.034 105.034 64.0451 105.566 64.0451 106.076C64.034 107.206 64.0451 108.336 64.0451 109.511C62.8343 110.01 61.6013 110.486 60.4016 111.018C59.8351 111.273 59.2908 111.594 58.8131 111.993C58.3244 112.403 58.4466 112.868 59.0464 113.101C59.3686 113.223 59.7129 113.278 60.0573 113.323C61.3236 113.467 62.6011 113.589 63.9785 113.722C63.9785 114.242 63.9452 114.73 63.9785 115.206C64.0451 115.927 64.1007 116.658 64.3006 117.356C64.5117 118.087 65.1449 118.198 65.6336 117.622C65.9669 117.234 66.2113 116.758 66.4556 116.303C66.8666 115.55 67.2443 114.774 67.6775 113.921C68.8995 114.143 70.088 114.364 71.2766 114.586C71.4766 114.619 71.6765 114.719 71.8765 114.741C72.3319 114.774 72.6207 114.398 72.3874 113.999C72.2097 113.677 71.9098 113.411 71.6543 113.123C70.9101 112.27 70.1658 111.406 69.4215 110.541C69.7326 110.043 69.9436 109.644 70.2102 109.289C70.9656 108.292 71.7432 107.328 72.5096 106.331C72.7429 106.021 73.1317 105.766 72.9873 105.234C72.1875 105.123 71.9542 105.976 71.3322 106.153C70.7434 106.32 70.1991 106.663 69.6326 106.929C69.0439 107.206 68.444 107.483 67.8664 107.76C67.7109 107.649 67.6664 107.638 67.6553 107.616L67.6664 107.605ZM64.8672 112.902C64.8672 111.982 64.8338 111.162 64.8894 110.342C64.9005 110.131 65.1338 109.854 65.3448 109.744C65.9891 109.4 66.6556 109.123 67.4109 108.78C67.7775 109.334 68.1219 109.877 68.4996 110.453C68.0441 111.317 67.5998 112.17 67.111 113.101C66.3557 113.035 65.6114 112.968 64.8672 112.902ZM59.5574 112.536C59.5463 112.447 59.5241 112.37 59.513 112.281C60.9015 111.417 62.49 111.007 64.1118 110.242C64.0674 111.228 64.0229 112.004 63.9785 112.891C62.4344 112.769 60.9904 112.647 59.5574 112.536ZM67.0444 108.148C66.3223 108.469 65.6892 108.746 64.9338 109.079C64.8672 107.605 64.8005 106.298 64.7339 104.979C64.8116 104.957 64.9005 104.924 64.9782 104.901C65.7447 105.876 66.3557 106.962 67.0444 108.137V108.148ZM64.7339 113.722C65.4448 113.788 66.0002 113.844 66.7222 113.91C66.189 114.941 65.7114 115.86 65.2337 116.791C65.1226 116.769 65.0227 116.736 64.9116 116.713C64.856 115.76 64.8005 114.819 64.7339 113.733V113.722ZM70.799 113.511C69.8214 113.389 69.0328 113.289 68.0774 113.168C68.3885 112.525 68.6551 111.96 68.9994 111.273C69.6437 112.082 70.1547 112.713 70.799 113.522V113.511ZM68.9661 109.644C68.6773 109.201 68.4551 108.879 68.1552 108.436C68.9106 108.059 69.5771 107.738 70.2547 107.406C70.2991 107.461 70.3435 107.516 70.388 107.572C69.9436 108.226 69.4882 108.879 68.9661 109.644Z" fill="white" />
		<path d="M85.3979 30.5738C84.9091 29.8203 84.4315 29.0558 83.9316 28.3133C83.665 27.9144 83.3873 27.5045 83.0429 27.172C82.5542 26.7066 82.021 26.8507 81.8766 27.5044C81.7655 28.0031 81.7766 28.535 81.7766 29.0447C81.7655 30.1749 81.7766 31.3051 81.7766 32.4797C80.5658 32.9783 79.3328 33.4548 78.1331 33.9867C77.5666 34.2415 77.0222 34.5629 76.5446 34.9618C76.0558 35.3718 76.178 35.8372 76.7779 36.0699C77.1 36.1917 77.4444 36.2471 77.7887 36.2915C79.0551 36.4355 80.3325 36.5574 81.7099 36.6904C81.7099 37.2112 81.6766 37.6987 81.7099 38.1752C81.7766 38.8955 81.8321 39.6268 82.0321 40.3249C82.2431 41.0562 82.8763 41.167 83.3651 40.5908C83.6983 40.203 83.9427 39.7265 84.1871 39.2722C84.5981 38.5187 84.9758 37.743 85.409 36.8898C86.6309 37.1114 87.8195 37.3331 89.0081 37.5547C89.208 37.5879 89.408 37.6877 89.6079 37.7098C90.0634 37.7431 90.3522 37.3663 90.1189 36.9674C89.9412 36.6461 89.6412 36.3801 89.3858 36.092C88.6415 35.2388 87.8972 34.3745 87.153 33.5102C87.464 33.0116 87.6751 32.6127 87.9417 32.2581C88.697 31.2608 89.4746 30.2968 90.2411 29.2995C90.4744 28.9893 90.8631 28.7344 90.7187 28.2025C89.9189 28.0917 89.6857 28.945 89.0636 29.1222C88.4749 29.2885 87.9306 29.632 87.364 29.8979C86.7753 30.1749 86.1755 30.4519 85.5978 30.7289C85.4423 30.6181 85.3979 30.6071 85.3868 30.5849L85.3979 30.5738ZM82.5986 35.8704C82.5986 34.9507 82.5653 34.1307 82.6208 33.3108C82.6319 33.1002 82.8652 32.8232 83.0763 32.7124C83.7205 32.3689 84.387 32.0919 85.1424 31.7484C85.509 32.3024 85.8533 32.8454 86.231 33.4216C85.7756 34.2859 85.3312 35.1391 84.8425 36.0699C84.0871 36.0034 83.3429 35.9369 82.5986 35.8704ZM77.2888 35.5047C77.2777 35.4161 77.2555 35.3385 77.2444 35.2499C78.6329 34.3856 80.2214 33.9756 81.8432 33.211C81.7988 34.1972 81.7544 34.9729 81.7099 35.8593C80.1659 35.7374 78.7218 35.6155 77.2888 35.5047ZM84.7758 31.1168C84.0538 31.4381 83.4206 31.7151 82.6652 32.0476C82.5986 30.5738 82.5319 29.2663 82.4653 27.9477C82.5431 27.9255 82.6319 27.8923 82.7097 27.8701C83.4761 28.8452 84.0871 29.9311 84.7758 31.1057V31.1168ZM82.4653 36.6904C83.1762 36.7569 83.7316 36.8123 84.4537 36.8788C83.9205 37.9093 83.4428 38.829 82.9652 39.7597C82.8541 39.7376 82.7541 39.7043 82.643 39.6822C82.5875 38.7292 82.5319 37.7874 82.4653 36.7015V36.6904ZM88.5304 36.4799C87.5529 36.358 86.7642 36.2582 85.8089 36.1363C86.1199 35.4937 86.3865 34.9285 86.7309 34.2415C87.3752 35.0504 87.8861 35.682 88.5304 36.4909V36.4799ZM86.6975 32.6127C86.4087 32.1694 86.1866 31.8481 85.8866 31.4049C86.642 31.0281 87.3085 30.7068 87.9861 30.3744C88.0305 30.4298 88.075 30.4852 88.1194 30.5406C87.6751 31.1943 87.2196 31.8481 86.6975 32.6127Z" fill="white" />
		<path d="M49.4219 68.7111C48.1419 70.0416 47.0856 71.5506 46.1278 73.1133C45.6891 73.8276 45.3311 74.6223 45.0894 75.426C44.7045 76.7207 45.349 77.7297 46.647 78.0869C47.5332 78.328 48.4373 78.3369 49.3145 78.1405C50.514 77.8726 51.6867 77.4887 52.8683 77.1493C53.0384 77.1047 53.1995 77.0422 53.4143 76.9797C53.468 77.2118 53.5128 77.4083 53.5486 77.5958C53.6471 78.0958 53.7187 78.6138 53.853 79.1049C54.1215 80.1139 54.5512 81.0336 55.3031 81.7926C56.1535 82.6409 56.995 82.8552 58.1139 82.4087C58.8927 82.0962 59.6178 81.7033 60.1101 81.0425C61.2917 81.2926 62.1152 81.0158 62.527 80.1853C62.6792 79.8817 62.7419 79.4978 62.715 79.1584C62.6702 78.4709 62.2137 77.9887 61.6856 77.5422C62.1152 76.4082 62.536 75.2831 62.9746 74.1491C63.1894 74.1937 63.3416 74.2294 63.4938 74.2652C64.8544 74.6313 66.224 74.9706 67.6384 75.0867C68.7842 75.1849 69.921 75.1849 71.0399 74.8634C71.8098 74.6491 72.4006 74.1937 72.8213 73.5151C73.0182 73.1936 73.1077 72.8365 72.9019 72.4971C72.3021 71.506 71.7024 70.497 70.7893 69.738C70.4402 69.4522 70.109 69.1576 69.7778 68.854C69.3033 68.4253 68.8379 67.9967 68.2918 67.4967C68.5335 67.2913 68.7304 67.1485 68.9095 66.9788C69.8404 66.0948 70.655 65.1036 71.3353 64.0232C71.6307 63.5588 71.8277 63.0231 71.9799 62.4873C72.2036 61.6837 71.9799 60.9872 71.3085 60.4514C70.852 60.0853 70.4402 59.6746 69.9747 59.3263C69.6972 59.121 69.357 58.987 69.0437 58.8263C68.8737 58.737 68.6499 58.7013 68.5156 58.5763C67.522 57.6297 66.3046 57.7637 65.5168 58.9245C65.4452 59.0317 65.3468 59.1477 65.2393 59.1835C64.7112 59.3531 64.183 59.496 63.6281 59.6567C63.5027 59.2906 63.4132 58.9692 63.2879 58.6566C62.715 57.2458 62.169 55.8171 60.862 54.8706C60.137 54.3527 59.394 54.1384 58.5257 54.4241C57.5589 54.7456 56.9054 55.4867 56.3683 56.2636C55.5985 57.3619 55.0077 58.5763 54.6407 59.8799C54.587 60.0675 54.5154 60.2461 54.4438 60.4514C53.6202 60.2907 52.8235 60.1478 52.0447 59.9871C50.8094 59.7281 49.5741 59.6031 48.3209 59.8532C47.0408 60.1032 45.7697 60.3353 44.7313 61.2372C44.0331 61.8444 43.8272 62.5141 44.1584 63.3624C44.4807 64.175 44.8656 64.9608 45.5638 65.5233C45.3132 66.2912 45.4206 66.9431 46.0293 67.4521C46.6559 67.97 47.3273 67.7914 47.9807 67.5056C48.5178 67.8271 49.037 68.1307 49.601 68.47C49.5204 68.6039 49.4936 68.6664 49.4488 68.7111H49.4219ZM63.3506 67.9342C63.3327 68.7379 63.261 69.5415 63.2163 70.3452C63.1984 70.7023 63.0462 70.9613 62.715 71.1488C62.0526 71.5149 61.4081 71.9346 60.7457 72.3007C60.5756 72.3989 60.307 72.4436 60.128 72.3811C58.2392 71.6846 56.3594 70.9702 54.4706 70.2559C54.3095 70.1934 54.1573 70.0951 53.9425 69.9791C53.9962 69.2022 54.0588 68.4253 54.1036 67.6485C54.1484 66.9609 54.1931 66.2644 54.211 65.5769C54.22 65.2822 54.3095 65.0679 54.5601 64.9072C55.6075 64.2196 56.6458 63.5231 57.6932 62.8356C57.917 62.6927 58.1497 62.5945 58.4451 62.7195C59.8953 63.3713 61.3544 63.9964 62.8045 64.6393C63.0104 64.7286 63.1894 64.8536 63.3327 64.934C63.3327 65.9787 63.3506 66.9609 63.3327 67.9432L63.3506 67.9342ZM53.0205 70.2559C53.2353 70.3541 53.3248 70.497 53.3159 70.7202C53.298 71.1667 53.2622 71.6131 53.2711 72.0596C53.298 73.3544 53.3427 74.6491 53.3785 75.9528C53.3785 76.0421 53.3696 76.1225 53.3517 76.2385C52.9757 76.3903 52.6176 76.5779 52.2327 76.6939C50.9706 77.0779 49.7263 77.5512 48.3836 77.5958C47.8912 77.6137 47.3899 77.5958 46.9155 77.5065C45.7697 77.2565 45.3221 76.4439 45.707 75.3456C45.8861 74.8188 46.1009 74.2919 46.3784 73.8098C47.3183 72.2293 48.3836 70.7381 49.6099 69.3629C49.7711 69.1843 49.8964 68.9611 50.0038 68.8093C51.1138 69.3451 52.0537 69.8094 53.0026 70.2648L53.0205 70.2559ZM48.3299 66.9788C48.6073 65.5054 47.4168 64.425 46.1188 64.9072C45.4922 64.4339 45.0894 63.8178 44.9283 63.0409C44.7582 62.2462 44.9999 61.7015 45.7249 61.3265C46.4053 60.9693 47.1393 60.7907 47.8912 60.6389C49.2519 60.3532 50.5946 60.3532 51.9463 60.6568C52.7072 60.8265 53.477 60.9604 54.3095 61.1301C54.2558 61.4247 54.22 61.6658 54.1752 61.898C54.023 62.7373 53.8888 63.5678 53.7276 64.4071C53.6829 64.6304 53.6023 64.9161 53.4322 65.0411C52.2775 65.8983 51.2481 66.8984 50.2544 67.9253C50.2276 67.9521 50.1739 67.961 50.0844 68.0057C49.5115 67.6753 48.9207 67.327 48.3478 66.9877L48.3299 66.9788ZM57.165 81.9623C56.7175 82.0426 56.2878 81.8373 55.9476 81.5069C55.4732 81.0515 55.0883 80.5425 54.8197 79.9353C54.3901 78.9352 54.2289 77.8815 54.0947 76.7564C54.3453 76.6404 54.587 76.5332 54.8287 76.435C56.6548 75.6671 58.3466 74.658 59.9758 73.5508C60.3786 73.2829 60.7188 73.2383 61.1485 73.4437C61.5065 73.6222 61.8915 73.7383 62.348 73.9169C61.9183 75.0777 61.4976 76.2207 61.0679 77.3636C60.3339 77.5333 59.5461 77.5958 59.2418 78.4352C58.9643 79.1852 59.0449 79.8817 59.5999 80.5871C58.9464 81.3908 58.1049 81.7837 57.165 81.9533V81.9623ZM68.7304 68.7647C69.3391 69.2915 69.9389 69.8362 70.5387 70.372C71.2458 71.0059 71.7292 71.8185 72.2215 72.6221C72.3737 72.8632 72.3469 73.0775 72.1857 73.3008C71.8277 73.7919 71.3622 74.1044 70.7803 74.2741C69.742 74.5687 68.6946 74.5241 67.6384 74.4527C66.1972 74.3455 64.8097 73.9883 63.4311 73.5955C63.3685 73.5776 63.3147 73.5329 63.2163 73.4704C63.3864 72.7918 63.5564 72.1042 63.7355 71.4167C63.7623 71.3185 63.8429 71.2202 63.9324 71.1488C65.2304 70.1219 66.5284 69.0951 67.8621 68.0414C68.1575 68.2825 68.4619 68.5146 68.7483 68.7647H68.7304ZM64.8455 60.1925C65.302 60.0764 65.6511 60.1389 66.0539 60.4693C66.9401 61.1926 68.1217 60.8533 68.6051 59.8174C68.632 59.7549 68.6678 59.7014 68.7125 59.6121C68.999 59.5853 69.2675 59.6656 69.5003 59.8621C69.9747 60.2639 70.4491 60.6836 70.9236 61.0854C71.2816 61.389 71.4249 61.773 71.3085 62.2194C71.2011 62.6302 71.1026 63.0588 70.8878 63.407C70.0374 64.7822 68.999 66.0055 67.7368 67.1038C66.5194 66.2734 65.3109 65.4429 64.1831 64.675C64.0756 63.2106 63.9861 61.8355 63.8787 60.38C64.1741 60.3264 64.5053 60.2818 64.8276 60.1925H64.8455ZM57.1292 56.8261C57.8185 55.8975 58.839 55.5671 59.94 55.4778C60.5308 55.4331 60.9784 55.7903 61.2828 56.2368C62.0347 57.3262 62.5449 58.5316 62.903 59.8085C62.8135 59.871 62.7687 59.9335 62.715 59.9514C61.3991 60.3264 60.1549 60.9068 58.9553 61.5587C58.463 61.8265 58.0423 61.8712 57.5231 61.5944C56.9144 61.264 56.243 61.0676 55.5985 60.8086C55.4374 60.7461 55.2763 60.6747 55.0614 60.5943C55.6075 59.2102 56.2788 57.9691 57.1203 56.835L57.1292 56.8261ZM54.0409 76.0153C53.8619 74.2384 53.8261 72.5418 53.9962 70.8095C55.876 71.5149 57.72 72.2114 59.6625 72.9436C57.8722 74.1491 56.0998 75.2385 54.0409 76.0153ZM63.0552 60.6122C63.5117 61.7462 63.4043 62.907 63.4401 64.1482C61.9541 63.5053 60.5308 62.8981 58.9822 62.2284C60.3249 61.4426 61.614 60.9068 63.0552 60.6122ZM64.1025 65.4608C65.2214 66.068 66.1524 66.8449 67.2534 67.5503C66.233 68.5593 65.0961 69.3183 63.9145 70.2737C63.9861 68.5771 64.0398 67.0681 64.1114 65.4608H64.1025ZM53.3069 69.6397C52.3491 69.3272 51.5435 68.8718 50.711 68.345C51.5524 67.3985 52.4028 66.5234 53.4143 65.8358C53.468 65.8537 53.5217 65.8716 53.5755 65.8894C53.4859 67.1217 53.3964 68.3539 53.3069 69.6397ZM57.4425 62.2373C56.3773 62.9338 55.4284 63.5499 54.3632 64.2464C54.5601 63.1838 54.7302 62.2552 54.9182 61.2461C55.7954 61.5855 56.5742 61.898 57.4515 62.2373H57.4425ZM61.2559 72.8186C61.8288 72.4793 62.3211 72.1935 62.9477 71.8274C62.7866 72.4078 62.6702 72.8186 62.536 73.3186C62.0705 73.1401 61.7124 72.9972 61.2559 72.8186Z" fill="white" />
		<path d="M61.1398 67.3628C61.0682 68.3718 60.8086 69.2379 59.8866 69.8809C58.6692 70.7381 56.6999 69.6487 56.5477 68.2557C56.3955 66.8895 57.5503 65.5233 58.9288 65.4608C60.0657 65.4162 61.1219 66.318 61.1398 67.3538V67.3628Z" fill="white" />
		<path d="M98.6898 54.2002C97.7112 55.2174 96.9037 56.371 96.1715 57.5656C95.8362 58.1117 95.5624 58.7193 95.3777 59.3336C95.0834 60.3235 95.5761 61.0948 96.5684 61.3679C97.2459 61.5522 97.9371 61.559 98.6077 61.4088C99.5247 61.2041 100.421 60.9105 101.325 60.6511C101.455 60.617 101.578 60.5692 101.742 60.5214C101.783 60.6989 101.817 60.8491 101.845 60.9924C101.92 61.3747 101.975 61.7706 102.077 62.1461C102.283 62.9175 102.611 63.6206 103.186 64.2008C103.836 64.8493 104.479 65.0131 105.335 64.6718C105.93 64.4329 106.484 64.1325 106.861 63.6274C107.764 63.8185 108.394 63.6069 108.708 62.9721C108.825 62.74 108.873 62.4464 108.852 62.187C108.818 61.6614 108.469 61.2928 108.065 60.9515C108.394 60.0845 108.715 59.2244 109.051 58.3575C109.215 58.3916 109.331 58.4189 109.447 58.4462C110.488 58.7261 111.535 58.9855 112.616 59.0742C113.492 59.1493 114.361 59.1493 115.216 58.9036C115.805 58.7398 116.257 58.3916 116.578 57.8728C116.729 57.6271 116.797 57.354 116.64 57.0946C116.181 56.3369 115.723 55.5655 115.025 54.9853C114.758 54.7668 114.505 54.5416 114.251 54.3095C113.889 53.9818 113.533 53.6541 113.115 53.2719C113.3 53.1149 113.451 53.0056 113.588 52.8759C114.299 52.2001 114.922 51.4424 115.442 50.6164C115.668 50.2615 115.819 49.8519 115.935 49.4423C116.106 48.8279 115.935 48.2955 115.422 47.8859C115.073 47.606 114.758 47.292 114.402 47.0258C114.19 46.8688 113.93 46.7664 113.69 46.6435C113.56 46.5752 113.389 46.5479 113.287 46.4524C112.527 45.7288 111.596 45.8312 110.994 46.7186C110.939 46.8005 110.864 46.8892 110.782 46.9165C110.378 47.0462 109.974 47.1555 109.55 47.2783C109.454 46.9985 109.386 46.7527 109.29 46.5138C108.852 45.4352 108.435 44.343 107.436 43.6194C106.881 43.2235 106.313 43.0597 105.649 43.2781C104.91 43.5239 104.411 44.0904 104 44.6843C103.412 45.524 102.96 46.4524 102.679 47.449C102.638 47.5924 102.584 47.7289 102.529 47.8859C101.899 47.763 101.29 47.6538 100.695 47.5309C99.7505 47.333 98.8062 47.2374 97.8481 47.4285C96.8695 47.6197 95.8978 47.7971 95.104 48.4866C94.5702 48.9508 94.4128 49.4628 94.666 50.1113C94.9123 50.7325 95.2066 51.3332 95.7404 51.7632C95.5488 52.3503 95.6309 52.8486 96.0962 53.2377C96.5753 53.6337 97.0885 53.4971 97.5881 53.2787C97.9987 53.5244 98.3956 53.7565 98.8267 54.0159C98.7651 54.1183 98.7446 54.1661 98.7104 54.2002H98.6898ZM109.338 53.6064C109.324 54.2207 109.27 54.8351 109.235 55.4495C109.222 55.7225 109.105 55.9205 108.852 56.0638C108.346 56.3437 107.853 56.6645 107.347 56.9444C107.217 57.0195 107.011 57.0536 106.874 57.0059C105.43 56.4734 103.993 55.9273 102.549 55.3812C102.426 55.3334 102.31 55.2583 102.146 55.1696C102.187 54.5757 102.235 53.9818 102.269 53.3879C102.303 52.8623 102.337 52.3298 102.351 51.8042C102.358 51.5789 102.426 51.4151 102.618 51.2922C103.419 50.7666 104.212 50.2341 105.013 49.7085C105.184 49.5993 105.362 49.5242 105.588 49.6198C106.696 50.1181 107.812 50.5959 108.921 51.0874C109.078 51.1557 109.215 51.2513 109.324 51.3127C109.324 52.1114 109.338 52.8623 109.324 53.6132L109.338 53.6064ZM101.441 55.3812C101.605 55.4563 101.674 55.5655 101.667 55.7362C101.653 56.0775 101.626 56.4188 101.632 56.7601C101.653 57.7499 101.687 58.7398 101.715 59.7364C101.715 59.8047 101.708 59.8661 101.694 59.9548C101.407 60.0709 101.133 60.2142 100.839 60.303C99.8737 60.5965 98.9225 60.9583 97.896 60.9924C97.5196 61.0061 97.1364 60.9924 96.7737 60.9242C95.8978 60.733 95.5556 60.1118 95.8499 59.2722C95.9867 58.8695 96.151 58.4667 96.3631 58.0981C97.0817 56.8898 97.896 55.7498 98.8335 54.6986C98.9567 54.562 99.0525 54.3914 99.1346 54.2753C99.9832 54.6849 100.702 55.0399 101.427 55.388L101.441 55.3812ZM97.855 52.8759C98.0671 51.7496 97.1569 50.9236 96.1647 51.2922C95.6856 50.9304 95.3777 50.4594 95.2545 49.8655C95.1245 49.258 95.3092 48.8416 95.8636 48.5549C96.3836 48.2818 96.9448 48.1453 97.5196 48.0292C98.5598 47.8108 99.5863 47.8108 100.62 48.0429C101.201 48.1726 101.79 48.275 102.426 48.4047C102.385 48.63 102.358 48.8143 102.324 48.9918C102.207 49.6334 102.105 50.2683 101.981 50.91C101.947 51.0806 101.886 51.2991 101.756 51.3946C100.873 52.05 100.086 52.8145 99.3263 53.5995C99.3057 53.62 99.2647 53.6268 99.1962 53.661C98.7583 53.4084 98.3066 53.1422 97.8686 52.8828L97.855 52.8759ZM104.609 64.3305C104.267 64.3919 103.939 64.2349 103.679 63.9824C103.316 63.6342 103.022 63.2451 102.816 62.7809C102.488 62.0164 102.365 61.2109 102.262 60.3508C102.454 60.262 102.638 60.1801 102.823 60.105C104.219 59.518 105.513 58.7466 106.758 57.9001C107.066 57.6953 107.326 57.6612 107.655 57.8182C107.928 57.9547 108.223 58.0435 108.572 58.18C108.243 59.0674 107.921 59.9412 107.593 60.815C107.032 60.9447 106.43 60.9924 106.197 61.6341C105.985 62.2075 106.046 62.74 106.471 63.2793C105.971 63.8936 105.328 64.194 104.609 64.3237V64.3305ZM113.451 54.2412C113.916 54.644 114.375 55.0604 114.833 55.4699C115.374 55.9546 115.743 56.5758 116.12 57.1902C116.236 57.3745 116.216 57.5383 116.092 57.709C115.819 58.0844 115.463 58.3233 115.018 58.453C114.224 58.6783 113.423 58.6442 112.616 58.5896C111.514 58.5077 110.453 58.2346 109.4 57.9342C109.352 57.9206 109.311 57.8865 109.235 57.8387C109.365 57.3199 109.495 56.7942 109.632 56.2686C109.653 56.1935 109.714 56.1184 109.783 56.0638C110.775 55.2788 111.767 54.4938 112.787 53.6883C113.013 53.8726 113.246 54.0501 113.464 54.2412H113.451ZM110.481 47.6879C110.83 47.5992 111.097 47.647 111.405 47.8995C112.082 48.4525 112.985 48.1931 113.355 47.4012C113.376 47.3534 113.403 47.3125 113.437 47.2442C113.656 47.2237 113.861 47.2852 114.039 47.4354C114.402 47.7425 114.765 48.0634 115.127 48.3706C115.401 48.6027 115.511 48.8962 115.422 49.2375C115.34 49.5515 115.264 49.8792 115.1 50.1454C114.45 51.1967 113.656 52.1319 112.691 52.9715C111.761 52.3367 110.837 51.7018 109.974 51.1147C109.892 49.9952 109.824 48.944 109.742 47.8313C109.968 47.7903 110.221 47.7562 110.467 47.6879H110.481ZM104.582 45.1144C105.109 44.4045 105.889 44.1519 106.731 44.0836C107.182 44.0495 107.525 44.3225 107.757 44.6639C108.332 45.4967 108.722 46.4182 108.996 47.3944C108.927 47.4422 108.893 47.49 108.852 47.5036C107.846 47.7903 106.895 48.234 105.978 48.7324C105.602 48.9371 105.28 48.9713 104.883 48.7597C104.418 48.5071 103.904 48.3569 103.412 48.1589C103.289 48.1112 103.165 48.0565 103.001 47.9951C103.419 46.937 103.932 45.9882 104.575 45.1212L104.582 45.1144ZM102.221 59.7842C102.084 58.4257 102.057 57.1287 102.187 55.8044C103.624 56.3437 105.034 56.8762 106.519 57.4359C105.15 58.3575 103.795 59.1903 102.221 59.7842ZM109.112 48.0088C109.461 48.8757 109.379 49.7631 109.406 50.712C108.27 50.2205 107.182 49.7563 105.998 49.2443C107.025 48.6436 108.01 48.234 109.112 48.0088ZM109.913 51.7155C110.768 52.1797 111.48 52.7735 112.322 53.3128C111.542 54.0842 110.672 54.6644 109.769 55.3949C109.824 54.0978 109.865 52.9442 109.92 51.7155H109.913ZM101.66 54.9102C100.928 54.6713 100.312 54.3231 99.6753 53.9204C100.319 53.1968 100.969 52.5278 101.742 52.0022C101.783 52.0158 101.824 52.0295 101.865 52.0431C101.797 52.9852 101.728 53.9272 101.66 54.9102ZM104.821 49.2512C104.007 49.7836 103.282 50.2546 102.467 50.7871C102.618 49.9747 102.748 49.2648 102.892 48.4934C103.562 48.7528 104.158 48.9918 104.828 49.2512H104.821ZM107.737 57.3404C108.175 57.081 108.551 56.8625 109.03 56.5826C108.907 57.0263 108.818 57.3404 108.715 57.7226C108.359 57.5861 108.086 57.4769 107.737 57.3404Z" fill="white" />
		<path d="M107.648 53.1693C107.593 53.9407 107.395 54.6029 106.69 55.0944C105.759 55.7497 104.254 54.9169 104.137 53.852C104.021 52.8075 104.904 51.7631 105.958 51.7153C106.827 51.6812 107.634 52.3707 107.648 53.1625V53.1693Z" fill="white" />
		<path d="M81.1116 79.0076C80.3364 80.027 79.5024 80.9995 78.7506 82.0424C77.6229 83.6007 76.8125 85.3232 76.4836 87.2331C76.2839 88.3931 76.0372 89.5414 75.9315 90.7014C75.5791 94.6618 75.9902 98.4699 78.3512 101.844C80.1602 104.434 82.345 106.52 85.5165 107.363C86.5737 107.644 87.6426 107.914 88.688 108.23C91.1665 108.969 93.6802 109.414 96.2761 109.449C99.0717 109.484 101.668 108.84 104.04 107.398C105.45 106.543 106.742 105.524 107.858 104.293C110.301 101.587 112.204 98.5988 113.132 95.025C113.813 92.3887 113.79 89.764 113.473 87.069C113.073 83.7414 111.57 81.0464 109.35 78.6444C107.294 76.4298 104.792 75.0003 101.903 74.145C100.387 73.688 98.8721 73.2662 97.2746 73.2896C95.818 73.313 94.3615 73.2896 92.6935 73.2896C90.0153 67.4661 87.2667 61.5138 84.5885 55.6786C84.8 54.999 85.0349 54.4483 85.1289 53.8859C85.1876 53.5578 85.1054 53.1243 84.9057 52.8665C84.1774 51.9291 83.2612 51.5542 82.0161 51.7768C79.0795 52.3041 76.554 53.6164 74.2752 55.4911C73.3943 56.2176 73.453 57.1433 74.4749 57.694C75.0505 58.0104 75.3207 58.4439 75.5438 59.0063C76.3778 61.1154 77.2236 63.2245 78.0928 65.3219C78.3865 66.0366 78.7976 66.6928 79.0677 67.4076C80.0074 69.915 80.9002 72.4225 81.8281 74.93C82.0396 75.5042 82.3332 76.0666 82.6856 76.8633C82.1923 77.5312 81.6754 78.2694 81.1234 78.9959L81.1116 79.0076ZM82.4742 54.5303C82.7718 53.8195 82.6308 53.2024 82.0513 52.679C83.0497 52.3158 83.8837 52.5267 84.4711 53.3C84.7177 53.6281 84.7412 54.3546 84.3066 54.6944C83.8602 55.0459 83.9425 55.3623 84.0952 55.7255C85.2346 58.5025 86.3387 61.2912 87.5603 64.033C88.7937 66.81 90.1563 69.5284 91.4719 72.2702C91.4836 72.3054 91.5071 72.3288 91.5189 72.3639C92.1179 73.8755 93.2808 74.391 94.8431 74.2738C98.1085 74.0278 101.233 74.6722 104.123 76.1134C108.516 78.3046 111.57 81.6908 112.486 86.6355C113.426 91.7559 112.521 96.56 109.432 100.837C108.387 102.29 107.282 103.743 105.955 104.926C104.158 106.531 102.091 107.785 99.6356 108.301C96.8869 108.875 94.1735 108.793 91.4484 108.254C90.0858 107.984 88.7115 107.726 87.3489 107.457C87.208 107.434 87.0552 107.422 86.9143 107.363C83.085 105.629 79.7138 103.344 77.9166 99.3721C77.341 98.0949 76.9417 96.6654 76.7655 95.2711C76.4131 92.3418 76.6245 89.4008 77.4233 86.5535C77.7639 85.3349 78.3277 84.1515 78.962 83.05C79.6668 81.8549 80.5948 80.8003 81.3935 79.6638C81.8869 78.9842 82.3802 78.2928 82.7796 77.5547C83.0615 77.0274 83.0498 76.4884 82.8736 75.8088C82.1688 73.067 80.9589 70.5126 79.984 67.8645C79.5376 66.6342 78.9268 65.4508 78.4217 64.2322C77.5642 62.17 76.742 60.096 75.908 58.0221C75.8493 57.8932 75.8493 57.7409 75.8258 57.6002C75.4381 57.4011 75.0388 57.237 74.6746 57.0144C74.1695 56.698 74.099 56.2645 74.5689 55.8661C75.168 55.3623 75.8375 54.9404 76.4718 54.4835C76.5305 54.5421 76.5775 54.6006 76.6363 54.6475C76.4718 54.8936 76.2486 55.1162 76.1429 55.3857C76.0254 55.6669 75.861 56.0653 75.9785 56.2762C76.0842 56.4637 76.5188 56.5457 76.8242 56.5457C77.1766 56.5457 77.5525 56.452 77.8931 56.3465C79.2792 55.9013 80.6535 55.4326 82.0278 54.9756C82.1688 54.8233 82.3215 54.6592 82.4624 54.5069L82.4742 54.5303ZM78.0458 54.6475C78.9855 54.1788 79.984 53.8156 80.9472 53.3821C81.4053 53.1711 81.6872 53.3586 81.9926 53.6398C81.2643 54.6475 78.5979 55.7372 76.5305 55.8075C77.1531 55.3271 77.5525 54.9053 78.0576 54.6475H78.0458ZM80.3716 52.9602C80.3716 52.9602 80.3951 53.0188 80.3951 53.054C80.2071 53.1126 80.0192 53.1711 79.8313 53.2297C79.8195 53.1946 79.8078 53.1477 79.796 53.1126C79.984 53.0657 80.1719 53.0071 80.3598 52.9602H80.3716Z" fill="white" />
		<path d="M75.8135 57.659C76.2481 57.5067 76.671 57.2841 77.1174 57.202C78.938 56.8857 80.6882 56.4053 82.0156 54.9992C82.1565 54.8469 82.3092 54.6828 82.4502 54.5305C82.7086 55.339 82.2035 55.8077 81.6279 56.1944C80.4181 57.0028 79.0555 57.4481 77.6342 57.6473C77.0351 57.7293 76.4126 57.6473 75.8018 57.6473L75.8135 57.659Z" fill="white" />
		<path d="M79.6436 95.7631C79.9959 96.4662 80.2661 97.0052 80.548 97.5793C80.6537 97.4621 80.7595 97.4035 80.7712 97.3215C81.0649 95.2593 83.4141 94.2282 85.505 94.6734C86.0453 94.7906 86.5504 95.0015 87.079 95.1655C87.8072 95.3999 88.5473 95.646 89.2873 95.8569C90.7203 96.267 93.0579 95.271 93.6334 93.9587C93.9153 93.3025 94.3617 92.6815 94.8316 92.1191C95.8182 90.9356 96.9459 90.6661 98.379 91.252C99.0837 91.5449 99.7415 91.9668 100.411 92.3417C100.987 92.6581 101.55 93.0213 102.15 93.2908C102.831 93.5954 103.571 93.7478 104.229 93.2088C104.898 92.6581 104.839 91.9082 104.663 91.1817C104.464 90.3615 104.205 89.5647 103.97 88.7562C103.653 87.6079 103.489 86.4479 103.864 85.2879C104.029 84.7841 104.287 84.2685 104.64 83.8584C105.157 83.2609 105.826 83.0851 106.625 83.378C107.94 83.8467 108.751 84.7841 109.291 86.0027C109.749 87.0572 109.879 88.1704 109.655 89.3538C109.55 88.9906 109.444 88.6156 109.35 88.2524C109.056 87.1861 108.716 86.1316 107.952 85.2997C107.612 84.9247 107.212 84.5732 106.778 84.3271C105.756 83.753 105.145 83.9873 104.71 85.077C104.287 86.1433 104.381 87.2447 104.628 88.3227C104.816 89.1429 105.098 89.9397 105.321 90.7482C105.626 91.8613 105.709 92.9627 104.698 93.7712C103.712 94.5563 102.608 94.3336 101.586 93.8181C100.775 93.408 100.012 92.8807 99.2247 92.4237C96.9811 91.1114 95.9827 91.3692 94.6084 93.5837C94.0681 94.4508 93.6217 95.3413 92.6232 95.8686C91.2372 96.6068 89.8511 96.7591 88.3828 96.267C87.5841 95.9975 86.7971 95.6928 85.9983 95.435C84.8002 95.0601 83.6138 95.0601 82.4862 95.7163C81.9458 96.0326 81.5934 96.4779 81.4055 97.052C81.2411 97.5676 80.9826 98.1066 81.523 98.5753C81.4407 99.6884 82.357 100.239 82.9325 100.954C83.931 102.184 85.1173 103.227 86.5152 104C86.8206 104.176 87.1025 104.41 87.4666 104.668C84.3421 103.965 79.5261 98.5753 79.6788 95.7866L79.6436 95.7631Z" fill="white" />
		<path d="M84.3773 81.937C85.7281 81.562 86.4564 82.019 86.5973 83.2376C86.8792 85.5927 86.1744 87.573 84.2363 89.0376C83.7664 89.3891 83.3436 89.8227 82.8385 90.1039C82.2394 90.432 81.5934 90.7249 80.9238 90.8772C80.0663 91.0764 79.6552 90.76 79.5847 89.893C79.432 88.0416 79.573 86.2138 80.36 84.5148C80.8181 83.5305 81.4407 82.6166 81.981 81.6675L82.2042 81.7847C82.0632 82.0424 81.9458 82.3119 81.7813 82.558C80.5127 84.3976 79.9606 86.4481 79.8549 88.6509C79.8549 88.7564 79.8549 88.8736 79.8549 88.979C79.9019 90.5608 80.4187 90.9475 81.8048 90.221C83.0969 89.5414 84.295 88.6509 85.1877 87.4675C86.0452 86.3426 86.3389 85.0303 86.2097 83.6243C86.104 82.5111 85.9043 82.2651 84.7766 82.019C84.6474 81.9956 84.5182 81.9604 84.3773 81.937Z" fill="white" />
		<path d="M88.5474 100.181C88.982 100.673 89.5693 100.79 90.0157 100.509C90.4503 100.239 90.6852 99.5127 90.5325 98.9385C90.3681 98.3644 89.9335 98.0246 89.2991 98.1066C88.8528 98.1652 88.4182 98.3761 87.9718 98.5167C87.8896 99.2198 88.1598 99.7236 88.5474 100.169V100.181ZM89.3931 100.099C88.982 100.181 88.5826 99.6884 88.5944 99.2432C88.5944 98.7394 88.9468 98.6456 89.3344 98.6339C89.7808 98.6339 90.0157 98.9503 89.957 99.665C89.8395 99.7588 89.6398 100.04 89.3931 100.087V100.099Z" fill="white" />
		<path d="M105.016 104.516C103.771 105.688 98.2967 107.621 97.1104 107.305C99.7298 106.379 102.396 105.442 105.016 104.516Z" fill="white" />
		<path d="M111.017 89.2017C111.323 92.4005 110.266 95.2829 108.997 98.1185C109.902 95.2009 110.888 92.295 111.017 89.2017Z" fill="white" />
		<path d="M88.124 66.0717C87.9596 65.9662 87.7129 65.9077 87.6424 65.7553C86.4678 63.283 85.3284 60.8107 84.1773 58.3266C84.142 58.2329 84.1303 58.1274 84.2242 57.9868C84.3887 58.2915 84.5531 58.5844 84.7058 58.889C85.7395 61.1036 86.7615 63.3064 87.7951 65.521C87.8891 65.7202 88.0066 65.8959 88.1123 66.0834H88.124V66.0717Z" fill="white" />
		<path d="M81.7224 67.4894C80.4068 64.9468 79.0913 62.4042 77.6582 59.6389C78.6214 60.6232 80.9707 65.1694 81.7224 67.4894Z" fill="white" />
		<path d="M98.7428 100.239C99.0012 100.134 99.2831 99.8292 99.3301 99.5714C99.3771 99.3722 99.1304 99.0441 98.9307 98.8801C98.4139 98.4465 97.8501 98.6457 97.2393 98.8801C97.2393 100.005 97.8971 100.591 98.7428 100.239ZM98.8485 99.3839C98.4256 99.751 98.0615 99.7042 97.7561 99.2433C98.0733 99.2784 98.4021 99.3253 98.8485 99.3839Z" fill="white" />
		<path d="M105.497 79.324C103.488 78.2812 101.503 77.2267 98.9541 77.0392C100.54 76.6056 103.629 77.7305 105.497 79.324Z" fill="white" />
		<path d="M88.9821 68.8372C89.6751 70.337 90.3799 71.825 91.0729 73.3248C91.0025 73.36 90.9437 73.3834 90.8732 73.4186C90.0158 71.9891 89.3697 70.4659 88.7119 68.9426C88.8059 68.9075 88.8881 68.8723 88.9821 68.8372Z" fill="white" />
		<path d="M108.446 91.9669C108.105 90.432 107.764 88.9205 107.436 87.3972C108.234 88.8384 108.61 90.3617 108.446 91.9669Z" fill="white" />
		<path d="M89.9453 105.242C91.4019 105.547 92.8584 105.852 94.3737 106.168C92.7644 106.215 91.2844 105.91 89.9453 105.242Z" fill="white" />
		<path d="M97.145 75.9494C95.7707 76.0314 94.4434 75.9142 93.1982 75.2698C94.5138 75.4924 95.8294 75.7267 97.145 75.9494Z" fill="white" />
		<path d="M96.0997 77.0038C94.9721 76.8163 93.8562 76.6288 92.7285 76.4414C92.7403 76.3476 92.7637 76.2539 92.7755 76.1602C93.8914 76.3711 95.019 76.582 96.1349 76.7929C96.1232 76.8632 96.1115 76.9335 96.0997 77.0038Z" fill="white" />
		<path d="M86.4678 87.7136C86.7027 88.0534 86.8319 88.2408 86.9494 88.4283C87.5719 88.1588 87.1491 87.8659 87.0433 87.5847C87.3957 87.4323 87.7011 87.4324 87.7599 87.901C87.8186 88.4049 87.3957 88.897 86.9611 88.8736C86.5852 88.8501 86.4913 88.6627 86.4678 87.7136Z" fill="white" />
		<path d="M84.4131 78.2928C85.435 77.9999 86.4569 77.7187 87.7138 77.3555C86.6331 78.0585 85.5407 78.3866 84.4131 78.2928Z" fill="white" />
		<path d="M85.1289 75.9143C85.9981 75.3284 86.9848 75.0472 88.0772 75.1878C87.0905 75.4339 86.1156 75.6682 85.1289 75.9143Z" fill="white" />
		<path d="M109.104 93.8534C109.244 92.9746 109.397 92.1076 109.538 91.2288C109.632 91.2405 109.714 91.2639 109.808 91.2756C109.656 92.1544 109.491 93.0449 109.338 93.9237C109.256 93.9003 109.186 93.8769 109.104 93.8534Z" fill="white" />
		<path d="M101.327 99.208C101.843 99.3603 101.926 99.6767 101.843 100.005C101.808 100.157 101.573 100.251 101.421 100.38C101.268 100.157 101.033 99.9579 100.986 99.7236C100.962 99.5712 101.209 99.3603 101.315 99.208H101.327Z" fill="white" />
		<path d="M106.742 88.686C107.283 89.4125 107.423 90.2796 107.306 91.3576C107.095 90.3499 106.918 89.518 106.742 88.686Z" fill="white" />
		<path d="M89.9923 103.661C90.4856 103.813 90.979 103.965 91.4723 104.118C91.4606 104.176 91.4371 104.223 91.4254 104.282C90.932 104.129 90.4387 103.977 89.9453 103.836C89.9571 103.778 89.9806 103.719 89.9923 103.661Z" fill="white" />
		<path d="M103.395 79.4294C103.888 79.6521 104.381 79.863 104.863 80.0856C104.816 80.1676 104.769 80.2497 104.722 80.3434C104.276 80.0387 103.841 79.7341 103.395 79.4294Z" fill="white" />
		<path d="M84.7764 62.5918C85.3872 62.7675 85.2463 63.3768 85.3637 63.8338C85.1758 63.412 84.9761 62.9902 84.7881 62.5684L84.7646 62.5918H84.7764Z" fill="white" />
		<path d="M84.2478 60.9163C84.0012 60.5062 83.7545 60.1078 83.5078 59.6977C83.59 59.6626 83.6723 59.6157 83.7545 59.5806L84.2243 60.928L84.2478 60.9046V60.9163Z" fill="white" />
		<path d="M84.2246 60.9397C84.6005 61.4318 84.9294 61.9239 84.7884 62.5918C84.7884 62.5918 84.8119 62.5684 84.8002 62.5801C84.6122 62.0294 84.4243 61.4787 84.2481 60.928L84.2246 60.9514V60.9397Z" fill="white" />
		<path d="M103.394 79.4176C103.042 79.2653 102.678 79.1247 102.325 78.9724C102.372 78.8904 102.419 78.8083 102.466 78.7263C102.772 78.9607 103.077 79.195 103.382 79.4293L103.394 79.4176Z" fill="white" />
		<path d="M89.1227 71.5087C89.0287 71.2861 88.9465 71.0752 88.8525 70.8525C88.8995 70.8291 88.9465 70.8174 88.9817 70.7939C89.0875 71.0166 89.1814 71.2275 89.2872 71.4501C89.2284 71.4735 89.1697 71.4853 89.1227 71.5087Z" fill="white" />
		<path d="M85.8811 64.6775C85.9751 64.8532 86.0573 65.0407 86.1513 65.2165C86.116 65.2399 86.0925 65.2516 86.0573 65.2751C85.9633 65.111 85.8694 64.9587 85.7754 64.7947C85.8106 64.7595 85.8459 64.7244 85.8811 64.6892V64.6775Z" fill="white" />
		<path d="M94.7731 104.926C94.5499 104.914 94.315 104.891 94.0918 104.879C94.0918 104.844 94.0918 104.809 94.0918 104.774H94.7731C94.7731 104.774 94.7731 104.879 94.7731 104.926Z" fill="white" />
		<path d="M88.1006 66.0835C88.171 66.3999 88.2533 66.7045 88.3355 67.0443C87.9831 66.7748 87.8656 66.4702 88.1123 66.0835H88.1006Z" fill="white" />
		<path d="M60.2157 28.0068C60.1268 27.342 60.038 26.6882 59.938 26.0234C59.8825 25.6688 59.8158 25.3142 59.6936 24.9818C59.5159 24.5164 59.1049 24.4499 58.805 24.8377C58.5717 25.1369 58.4162 25.5026 58.2496 25.8461C57.883 26.5996 57.5386 27.3642 57.1721 28.1509C56.1945 28.1066 55.2281 28.0401 54.2506 28.029C53.7951 28.029 53.3175 28.0733 52.8843 28.1952C52.4288 28.3171 52.3622 28.6717 52.6954 29.0152C52.8732 29.1925 53.0842 29.3476 53.3064 29.4806C54.1173 29.9681 54.9282 30.4446 55.8168 30.9654C55.6502 31.32 55.4725 31.6302 55.3614 31.9627C55.1837 32.4724 54.9948 32.9821 54.9171 33.5029C54.8282 34.0569 55.217 34.3339 55.728 34.1012C56.0723 33.9461 56.3834 33.7023 56.6944 33.4696C57.2054 33.0929 57.7053 32.6829 58.2607 32.2508C59.016 32.7826 59.7492 33.2924 60.4712 33.8131C60.5934 33.9018 60.6934 34.0237 60.8267 34.1012C61.1266 34.2675 61.4265 34.1012 61.4043 33.7577C61.3821 33.4807 61.2599 33.2148 61.1821 32.9488C60.9489 32.14 60.7156 31.3311 60.4823 30.5222C60.8489 30.2784 61.1155 30.0789 61.4043 29.9238C62.2152 29.4917 63.0483 29.0817 63.8703 28.6495C64.1258 28.5166 64.4591 28.4612 64.5368 28.0622C64.0259 27.7409 63.6037 28.2395 63.1372 28.162C62.6818 28.0955 62.2152 28.162 61.7487 28.162C61.2599 28.162 60.7822 28.162 60.3046 28.1731C60.2268 28.0512 60.2046 28.029 60.2046 28.0068H60.2157ZM56.6833 30.6995C56.9721 30.0789 57.2054 29.5138 57.4942 28.9819C57.572 28.8379 57.8163 28.7271 57.983 28.716C58.5162 28.6828 59.0605 28.716 59.6714 28.716C59.7381 29.2036 59.8047 29.68 59.8825 30.1787C59.3048 30.6219 58.7383 31.054 58.1274 31.5305C57.6386 31.2535 57.1609 30.9765 56.6833 30.6995ZM53.2286 28.8047C53.2397 28.7382 53.2619 28.6828 53.273 28.6163C54.4727 28.4612 55.6724 28.6828 57.0054 28.6717C56.6611 29.3144 56.3945 29.8241 56.0945 30.4114C55.0948 29.8462 54.1617 29.3254 53.2397 28.8047H53.2286ZM59.6381 28.1731C59.0605 28.1731 58.5384 28.1509 57.9274 28.1398C58.3384 27.1315 58.705 26.2228 59.0716 25.3253C59.1382 25.3253 59.1938 25.3364 59.2604 25.3475C59.4715 26.245 59.5381 27.1647 59.6381 28.162V28.1731ZM56.3389 31.2092C56.7944 31.4751 57.1498 31.6856 57.6164 31.9516C56.9388 32.4835 56.3278 32.9488 55.7169 33.4253C55.6502 33.3699 55.5836 33.3256 55.528 33.2702C55.7835 32.6164 56.039 31.9627 56.3389 31.2092ZM60.4823 32.9488C59.8603 32.561 59.3604 32.2508 58.7605 31.874C59.1715 31.5416 59.527 31.2424 59.9713 30.8768C60.1602 31.6192 60.3046 32.2064 60.4823 32.9488ZM60.449 29.7798C60.3934 29.3919 60.349 29.1038 60.2824 28.716C60.9044 28.7049 61.4598 28.6828 62.0153 28.6717C62.0264 28.7271 62.0375 28.7714 62.0486 28.8268C61.5487 29.126 61.0377 29.4252 60.449 29.7798Z" fill="white" />
		<path d="M31.5539 77.1442C31.4984 77.9531 31.4095 78.762 31.3762 79.582C31.354 80.1138 31.1873 80.3798 30.7319 80.4906C29.9321 80.69 29.1434 80.9671 28.3547 81.2441C28.0992 81.3327 27.8771 81.5322 27.4883 81.7649C28.488 82.9505 29.7655 82.8951 30.7985 83.4935C30.743 84.1472 30.6652 84.7899 30.643 85.4437C30.6319 85.8758 30.5653 86.4299 30.9985 86.6293C31.4539 86.8399 31.665 86.3412 31.8983 85.9977C32.3204 85.3883 32.7203 84.7678 33.1424 84.1362C33.5978 84.3245 33.9755 84.5018 34.3643 84.6459C34.7531 84.7899 35.0974 85.2775 35.6195 84.8564C35.4862 83.7816 34.5976 83.1943 34.3754 82.2192C34.9753 80.956 36.0305 80.1471 36.6415 78.9504C36.6082 78.8839 36.5748 78.8174 36.5415 78.7509C35.464 79.1055 34.3976 79.4601 33.3423 79.8036C32.7869 78.8285 32.5314 77.7647 31.8316 77.0667C31.7316 77.0888 31.6428 77.1221 31.5428 77.1442H31.5539ZM32.9091 83.3716C32.4537 83.2386 32.0093 83.1057 31.4873 82.9616C31.5761 82.2192 31.6539 81.5433 31.7427 80.8119C32.1649 80.7011 32.5537 80.6125 33.0202 80.4906C33.2424 81.0557 33.4423 81.5876 33.6645 82.1749C33.3868 82.607 33.1646 82.9616 32.898 83.3716H32.9091ZM28.5213 82.0197C28.5213 81.9422 28.5214 81.8646 28.5102 81.787C29.3434 81.4103 30.2098 81.2108 31.2207 80.9671C31.1318 81.6319 31.054 82.1416 30.9652 82.8397C30.0654 82.5405 29.2989 82.2746 28.5213 82.0197ZM31.2429 85.9977C31.0874 85.0448 31.1762 84.3689 31.4095 83.6375C31.7427 83.7262 32.0649 83.8037 32.5648 83.9256C32.0871 84.6791 31.7205 85.2553 31.2429 86.0088V85.9977ZM34.0311 81.5876C33.8533 81.1333 33.72 80.7898 33.5534 80.3576C34.1532 80.1471 34.6642 79.9809 35.1752 79.8036C35.1974 79.8479 35.2196 79.8922 35.2419 79.9366C34.8753 80.4463 34.4976 80.9449 34.0422 81.5765L34.0311 81.5876ZM31.8649 80.0806C31.8649 79.726 31.8649 79.4268 31.8649 79.1277C31.8649 78.8506 31.8872 78.5847 31.9094 78.1747C32.3759 78.7066 32.5981 79.2385 32.7092 79.9255C32.4092 79.9809 32.1538 80.0141 31.8649 80.0695V80.0806ZM33.509 83.571C33.6756 83.3051 33.7978 83.1167 33.9533 82.8619C34.1532 83.2165 34.3199 83.4935 34.4754 83.7705C34.4421 83.8259 34.4198 83.8702 34.3865 83.9256C34.1199 83.8259 33.8644 83.7151 33.509 83.571Z" fill="white" />
		<path d="M41.2847 1.34075C41.2292 2.14964 41.1403 2.95854 41.107 3.77851C41.0848 4.31039 40.9182 4.57632 40.4516 4.68713C39.6518 4.88658 38.8631 5.1636 38.0745 5.44062C37.819 5.52927 37.5968 5.72872 37.208 5.96142C38.2078 7.14706 39.4852 7.09165 40.5183 7.69001C40.4627 8.34377 40.385 8.98646 40.3628 9.64022C40.3516 10.0724 40.285 10.6153 40.7182 10.8259C41.1737 11.0364 41.3847 10.5378 41.618 10.1943C42.0401 9.58482 42.44 8.9643 42.8621 8.33269C43.3176 8.52107 43.6952 8.69836 44.084 8.84241C44.4728 8.98646 44.8172 9.47401 45.3393 9.05294C45.206 7.97811 44.3173 7.39083 44.0951 6.41573C44.695 5.15252 45.7503 4.34363 46.3612 3.14691C46.3279 3.08042 46.2946 3.01394 46.2613 2.94746C45.1837 3.30204 44.1174 3.65662 43.0621 4.00013C42.5067 3.02502 42.2512 1.96127 41.5513 1.26318C41.4514 1.28535 41.3625 1.31859 41.2625 1.34075H41.2847ZM42.64 7.56812C42.1845 7.43515 41.7402 7.30219 41.2181 7.15814C41.307 6.41573 41.3847 5.7398 41.4736 5.00847C41.8957 4.89767 42.2845 4.80902 42.751 4.68713C42.9732 5.25225 43.1731 5.78412 43.3953 6.3714C43.1176 6.80355 42.8954 7.15814 42.6288 7.56812H42.64ZM38.2522 6.21627C38.2522 6.13871 38.2522 6.06114 38.2411 5.98358C39.0742 5.60683 39.9406 5.40738 40.9515 5.1636C40.8626 5.82845 40.7849 6.33816 40.696 7.03625C39.7962 6.73707 39.0298 6.47113 38.2522 6.21627ZM40.9737 10.1943C40.8182 9.24131 40.9071 8.56539 41.1403 7.83406C41.4736 7.91163 41.7957 8.00027 42.2956 8.12216C41.8179 8.87565 41.4514 9.45185 40.9737 10.2053V10.1943ZM43.7619 5.78412C43.5842 5.32981 43.4509 4.98631 43.2842 4.55416C43.8841 4.34363 44.3951 4.17742 44.906 4.00013C44.9283 4.04445 44.9505 4.08877 44.9727 4.13309C44.6061 4.64281 44.2284 5.14144 43.773 5.77304L43.7619 5.78412ZM41.5958 4.27714C41.5958 3.92256 41.5958 3.62338 41.5958 3.3242C41.5958 3.04718 41.618 2.78124 41.6402 2.37126C42.1068 2.90313 42.3289 3.43501 42.44 4.12201C42.1401 4.17742 41.8846 4.21066 41.5958 4.26606V4.27714ZM43.2398 7.76758C43.4064 7.50164 43.5286 7.31327 43.6841 7.05841C43.8841 7.41299 44.0507 7.69001 44.2062 7.96703C44.1729 8.02243 44.1507 8.06676 44.1174 8.12216C43.8619 8.02243 43.5953 7.91163 43.2398 7.76758Z" fill="white" />
		<path d="M116.354 111.04C116.31 111.616 116.254 112.204 116.232 112.78C116.221 113.168 116.099 113.345 115.766 113.434C115.199 113.578 114.633 113.777 114.066 113.977C113.888 114.043 113.722 114.176 113.455 114.353C114.166 115.195 115.077 115.162 115.821 115.594C115.788 116.06 115.721 116.525 115.71 116.991C115.71 117.301 115.655 117.689 115.966 117.833C116.288 117.988 116.443 117.622 116.61 117.389C116.91 116.957 117.199 116.503 117.498 116.06C117.821 116.193 118.087 116.326 118.365 116.425C118.643 116.525 118.887 116.869 119.265 116.581C119.165 115.816 118.532 115.395 118.376 114.697C118.798 113.788 119.554 113.223 119.998 112.359C119.976 112.315 119.953 112.259 119.92 112.215C119.154 112.47 118.387 112.713 117.632 112.968C117.232 112.27 117.054 111.517 116.554 111.018C116.488 111.04 116.421 111.051 116.343 111.073L116.354 111.04ZM117.321 115.495C116.999 115.395 116.676 115.306 116.31 115.196C116.377 114.664 116.432 114.187 116.499 113.666C116.799 113.589 117.076 113.522 117.41 113.434C117.565 113.844 117.71 114.22 117.876 114.63C117.676 114.941 117.521 115.196 117.332 115.484L117.321 115.495ZM114.188 114.531C114.188 114.531 114.188 114.42 114.188 114.364C114.777 114.099 115.399 113.954 116.121 113.777C116.054 114.254 116.01 114.619 115.932 115.107C115.288 114.896 114.744 114.708 114.188 114.52V114.531ZM116.132 117.378C116.021 116.702 116.088 116.215 116.254 115.694C116.499 115.75 116.721 115.805 117.076 115.894C116.732 116.425 116.465 116.847 116.132 117.378ZM118.121 114.22C117.987 113.888 117.898 113.644 117.776 113.345C118.209 113.201 118.565 113.079 118.931 112.946C118.943 112.979 118.965 113.013 118.976 113.046C118.709 113.411 118.443 113.766 118.121 114.22ZM116.577 113.146C116.577 112.891 116.577 112.68 116.577 112.47C116.577 112.27 116.599 112.082 116.61 111.794C116.943 112.17 117.11 112.547 117.176 113.046C116.965 113.079 116.788 113.112 116.577 113.146ZM117.754 115.639C117.876 115.45 117.954 115.306 118.065 115.129C118.209 115.384 118.321 115.583 118.443 115.783C118.42 115.816 118.398 115.86 118.387 115.894C118.198 115.816 118.009 115.75 117.765 115.639H117.754Z" fill="white" />
	</g>
	<defs>
		<clipPath id="clip0_78_980">
			<rect width="120" height="120" fill="white" />
		</clipPath>
	</defs>
</svg>