<svg xmlns="http://www.w3.org/2000/svg" width="24" height="24" fill="#e8eaed" viewBox="0 -960 960 960"><path d="M480.07-100q-78.84 0-148.21-29.92t-120.68-81.21-81.25-120.63Q100-401.1 100-479.93q0-78.84 29.92-148.21t81.21-120.68 120.63-81.25Q401.1-860 479.93-860q78.84 0 148.21 29.92t120.68 81.21 81.25 120.63Q860-558.9 860-480.07q0 78.84-29.92 148.21t-81.21 120.68-120.63 81.25Q558.9-100 480.07-100m-.07-60q56.29 0 108.42-19.04 52.12-19.04 95.27-55.11L234.15-683.69q-35.69 43.15-54.92 95.27Q160-536.29 160-480q0 134 93 227t227 93m245.85-116.31q36.07-43.15 55.11-95.27Q800-423.71 800-480q0-134-93-227t-227-93q-56.43 0-108.68 18.85-52.24 18.84-95.01 55.3z"/></svg>