<svg xmlns="http://www.w3.org/2000/svg" width="24" height="24" fill="none"><mask id="path-1-inside-1_98_59" fill="#fff"><path d="M1.5 5.046a.51.51 0 0 1-.5-.523c0-.29.224-.523.5-.523h3.093c.232 0 .428.165.484.39l.551 1.64H21.5c.276 0 .5.235.5.524a.6.6 0 0 1-.033.188l-1.192 3.962-.018.062-.77 2.554a.5.5 0 0 1-.417.363l-6.098.76-.05.006-5.347.666-1.05.334v1.686h12.063c.276 0 .5.234.5.523s-.224.523-.5.523h-1.482c.131.265.206.567.206.886 0 .534-.207 1.018-.542 1.367-.334.35-.796.566-1.306.566a1.8 1.8 0 0 1-1.306-.566 1.97 1.97 0 0 1-.54-1.367c0-.32.073-.62.205-.886H11a2 2 0 0 1-.336 2.253c-.334.35-.796.566-1.306.566a1.8 1.8 0 0 1-1.306-.566 1.97 1.97 0 0 1-.541-1.367c0-.32.074-.62.205-.886h-1.19a.51.51 0 0 1-.5-.523v-2.595h.002a.52.52 0 0 1 .354-.499l.957-.303-1.167-3.47a1 1 0 0 1-.027-.08L4.806 6.726v-.003L4.24 5.046zM16.564 18.44a.825.825 0 0 0-1.199 0 .9.9 0 0 0-.248.627c0 .245.095.467.249.627.153.16.365.26.599.26s.446-.1.6-.26a.9.9 0 0 0 .248-.627.9.9 0 0 0-.249-.627m-6.607 0a.825.825 0 0 0-1.199 0 .9.9 0 0 0-.247.627c0 .245.094.467.248.627.153.16.365.26.6.26.233 0 .446-.1.598-.26a.9.9 0 0 0 .249-.627.9.9 0 0 0-.249-.627m-2.976-8.387h2.317l-.29-2.977H5.98zm3.319 0h2.588V7.077h-2.879zm3.587 0h2.589l.29-2.977h-2.878zm3.59 0h2.447l.895-2.977h-3.05zM19.61 11.1h-2.233l-.178 1.827 1.934-.241zm-3.236 0h-2.486v2.239l2.296-.286zm-3.485 0h-2.486l.258 2.64 2.228-.277zm-3.488 0H7.333l.985 2.932 1.352-.168z"/></mask><path fill="#5F6368" stroke="#5F6368" stroke-width="2" d="M1.5 5.046a.51.51 0 0 1-.5-.523c0-.29.224-.523.5-.523h3.093c.232 0 .428.165.484.39l.551 1.64H21.5c.276 0 .5.235.5.524a.6.6 0 0 1-.033.188l-1.192 3.962-.018.062-.77 2.554a.5.5 0 0 1-.417.363l-6.098.76-.05.006-5.347.666-1.05.334v1.686h12.063c.276 0 .5.234.5.523s-.224.523-.5.523h-1.482c.131.265.206.567.206.886 0 .534-.207 1.018-.542 1.367-.334.35-.796.566-1.306.566a1.8 1.8 0 0 1-1.306-.566 1.97 1.97 0 0 1-.54-1.367c0-.32.073-.62.205-.886H11a2 2 0 0 1-.336 2.253c-.334.35-.796.566-1.306.566a1.8 1.8 0 0 1-1.306-.566 1.97 1.97 0 0 1-.541-1.367c0-.32.074-.62.205-.886h-1.19a.51.51 0 0 1-.5-.523v-2.595h.002a.52.52 0 0 1 .354-.499l.957-.303-1.167-3.47a1 1 0 0 1-.027-.08L4.806 6.726v-.003L4.24 5.046H1.5ZM16.564 18.44a.825.825 0 0 0-1.199 0 .9.9 0 0 0-.248.627c0 .245.095.467.249.627.153.16.365.26.599.26s.446-.1.6-.26a.9.9 0 0 0 .248-.627.9.9 0 0 0-.249-.627Zm-6.607 0a.825.825 0 0 0-1.199 0 .9.9 0 0 0-.247.627c0 .245.094.467.248.627.153.16.365.26.6.26.233 0 .446-.1.598-.26a.9.9 0 0 0 .249-.627.9.9 0 0 0-.249-.627Zm-2.976-8.387h2.317l-.29-2.977H5.98zm3.319 0h2.588V7.077h-2.879zm3.587 0h2.589l.29-2.977h-2.878zm3.59 0h2.447l.895-2.977h-3.05zM19.61 11.1h-2.233l-.178 1.827 1.934-.241.477-1.586Zm-3.236 0h-2.486v2.239l2.296-.286.19-1.953Zm-3.485 0h-2.486l.258 2.64 2.228-.277zm-3.488 0H7.333l.985 2.932 1.352-.168z" mask="url(#path-1-inside-1_98_59)"/></svg>