<svg xmlns="http://www.w3.org/2000/svg" width="24" height="24" fill="#e8eaed" viewBox="0 -960 960 960"><path d="M480-290.77q13.73 0 23.02-9.29t9.29-23.02-9.29-23.02q-9.29-9.28-23.02-9.28t-23.02 9.28q-9.29 9.29-9.29 23.02t9.29 23.02 23.02 9.29m-30-146.15h60v-240h-60zM480.07-100q-78.84 0-148.21-29.92t-120.68-81.21-81.25-120.63Q100-401.1 100-479.93q0-78.84 29.92-148.21t81.21-120.68 120.63-81.25Q401.1-860 479.93-860q78.84 0 148.21 29.92t120.68 81.21 81.25 120.63Q860-558.9 860-480.07q0 78.84-29.92 148.21t-81.21 120.68-120.63 81.25Q558.9-100 480.07-100m-.07-60q134 0 227-93t93-227-93-227-227-93-227 93-93 227 93 227 227 93m0-320"/></svg>