<svg xmlns="http://www.w3.org/2000/svg" width="24" height="24" fill="none"><path stroke="#e8eaed" d="M12 6.035c-5.115 0-9.107 3.921-10.463 5.882 1.453 2.058 5.522 5.882 10.754 5.882 4.883 0 8.913-3.922 10.172-5.882C21.107 9.957 17.116 6.035 12 6.035Z"/><path fill="#e8eaed" fill-rule="evenodd" d="m9.168 9.736-.685-.427a4.43 4.43 0 0 0-.842 2.608c0 2.436 1.952 4.411 4.36 4.411 2.407 0 4.36-1.975 4.36-4.411 0-2.437-1.953-4.412-4.36-4.412a4.3 4.3 0 0 0-1.93.455l.36.718a3.5 3.5 0 0 1 1.57-.37c1.951 0 3.554 1.604 3.554 3.609s-1.603 3.61-3.555 3.61c-1.951 0-3.555-1.605-3.555-3.61 0-.822.27-1.577.723-2.181" clip-rule="evenodd"/><path stroke="#e8eaed" d="M13.05 11.917a1.06 1.06 0 0 1-1.05 1.07 1.06 1.06 0 0 1-1.051-1.07c0-.597.476-1.07 1.05-1.07s1.051.473 1.051 1.07Z"/></svg>