<svg xmlns="http://www.w3.org/2000/svg" width="24" height="24" fill="#e8eaed" viewBox="0 -960 960 960"><path d="M574.61-287.69h87.7q22.31 0 38.07-15.77 15.77-15.77 15.77-38.08v-170.77h36.16V-560h-96.16v-32.31h-75.38V-560h-96.15v47.69h36.15v170.77q0 22.31 15.77 38.08t38.07 15.77m-6.15-224.62h100v170.77q0 2.69-1.73 4.42-1.73 1.74-4.42 1.74h-87.7q-2.69 0-4.42-1.74-1.73-1.73-1.73-4.42zM172.31-180Q142-180 121-201t-21-51.31v-455.38Q100-738 121-759t51.31-21h219.61l80 80h315.77Q818-700 839-679t21 51.31v375.38Q860-222 839-201t-51.31 21zm0-60h615.38q5.39 0 8.85-3.46t3.46-8.85v-375.38q0-5.39-3.46-8.85t-8.85-3.46H447.38l-80-80H172.31q-5.39 0-8.85 3.46t-3.46 8.85v455.38q0 5.39 3.46 8.85t8.85 3.46M160-240v-480z"/></svg>