<svg xmlns="http://www.w3.org/2000/svg" width="24" height="24" fill="#e8eaed" viewBox="0 -960 960 960"><path d="M164.62-100v-435.39H100v-208.45h206.85q-8.46-9.77-11.5-22.01-3.04-12.23-3.04-25.69 0-44.87 31.41-76.28T400-899.23q23 0 42.62 9.65 19.61 9.66 35.07 25.81 15.46-16.77 35.08-26.11 19.61-9.35 42.61-9.35 44.88 0 76.29 31.41t31.41 76.28q0 13.31-3.35 25.31t-11.19 22.39H860v208.45h-64.62V-100zm390.76-739.23q-20.27 0-33.98 13.71t-13.71 33.98 13.71 33.98q13.71 13.72 33.98 13.72t33.99-13.72q13.71-13.71 13.71-33.98t-13.71-33.98q-13.72-13.71-33.99-13.71m-203.07 47.69q0 20.27 13.71 33.98 13.71 13.72 33.98 13.72t33.98-13.72q13.71-13.71 13.71-33.98t-13.71-33.98T400-839.23t-33.98 13.71-13.71 33.98M160-683.85v88.47h290v-88.47zM450-160v-375.39H224.61V-160zm60 0h225.39v-375.39H510zm290-435.38v-88.47H510v88.47z"/></svg>