<svg xmlns="http://www.w3.org/2000/svg" width="24" height="24" fill="#e8eaed" viewBox="0 -960 960 960"><path d="M293.08-597.69v-60H820v60zm0 147.69v-60H820v60zm0 147.69v-60H820v60zM172.31-595.38q-13.73 0-23.02-9.4t-9.29-23.3q0-13.56 9.29-22.74t23.02-9.18 23.02 9.18 9.29 22.74q0 13.9-9.29 23.3t-23.02 9.4m0 147.3q-13.73 0-23.02-9.18Q140-466.43 140-480q0-14.31 9.29-23.5t23.02-9.19 23.02 9.19 9.29 23.5q0 13.57-9.29 22.74-9.29 9.18-23.02 9.18m0 148.08q-13.73 0-23.02-9.4T140-332.69q0-13.57 9.29-22.75t23.02-9.18 23.02 9.18 9.29 22.75q0 13.89-9.29 23.29t-23.02 9.4"/></svg>