<svg xmlns="http://www.w3.org/2000/svg" width="24" height="24" fill="#e8eaed" viewBox="0 -960 960 960"><path d="M249.23-420q-24.75 0-42.37-17.63-17.63-17.62-17.63-42.37t17.63-42.37Q224.48-540 249.23-540t42.38 17.63q17.62 17.62 17.62 42.37t-17.62 42.37Q273.98-420 249.23-420M480-420q-24.75 0-42.37-17.63Q420-455.25 420-480t17.63-42.37Q455.25-540 480-540t42.37 17.63Q540-504.75 540-480t-17.63 42.37Q504.75-420 480-420m230.77 0q-24.75 0-42.38-17.63-17.62-17.62-17.62-42.37t17.62-42.37Q686.02-540 710.77-540t42.37 17.63q17.63 17.62 17.63 42.37t-17.63 42.37Q735.52-420 710.77-420"/></svg>