<svg xmlns="http://www.w3.org/2000/svg" width="24" height="24" fill="#e8eaed" viewBox="0 -960 960 960"><path d="M322.31-260Q292-260 271-281t-21-51.31v-70h60v70q0 4.62 3.85 8.46 3.84 3.85 8.46 3.85h455.38q4.62 0 8.46-3.85 3.85-3.84 3.85-8.46V-720H310v82.31h-60v-150Q250-818 271-839t51.31-21h455.38Q808-860 829-839t21 51.31v455.38Q850-302 829-281t-51.31 21zm-140 140Q152-120 131-141t-21-51.31v-515.38h60v515.38q0 4.62 3.85 8.46 3.84 3.85 8.46 3.85h515.38v60zm326.15-246.54-41.77-41.77L547-490H250v-60h297l-80.31-81.69 41.77-41.77L661.92-520z"/></svg>