<svg xmlns="http://www.w3.org/2000/svg" width="24" height="24" fill="none"><path fill="#fff" d="M12 4.917a3.19 3.19 0 0 0-3.187 3.187A3.19 3.19 0 0 0 12 11.292a3.174 3.174 0 0 0 3.188-3.188A3.19 3.19 0 0 0 12 4.917m0 4.25c-.59 0-1.062-.473-1.062-1.063S11.41 7.042 12 7.042s1.063.472 1.063 1.062S12.59 9.167 12 9.167M15.92 13.44a7.8 7.8 0 0 1-2.55.897l2.479 3.046c.283.354.354.85.094 1.228a1.03 1.03 0 0 1-1.676.094l-2.29-2.81-2.267 2.81a1.03 1.03 0 0 1-1.63-.047c-.26-.354-.236-.945.048-1.299l2.455-3.07c-.873-.165-1.747-.448-2.526-.896-.496-.284-.661-.898-.378-1.417.284-.496.921-.661 1.417-.378 1.794 1.015 4.037 1.015 5.855.024a1.013 1.013 0 0 1 1.393.401c.26.52.071 1.133-.425 1.417"/></svg>