<svg xmlns="http://www.w3.org/2000/svg" width="24" height="24" fill="#e8eaed" viewBox="0 -960 960 960"><path d="M353.08-462.31h35.38v-80h44.62q15.07 0 25.23-10.15 10.15-10.16 10.15-25.23v-44.62q0-15.07-10.15-25.23-10.16-10.15-25.23-10.15h-80zm35.38-115.38v-44.62h44.62v44.62zm120.77 115.38h78.46q15.08 0 25.23-10.15 10.16-10.16 10.16-25.23v-124.62q0-15.07-10.16-25.23-10.15-10.15-25.23-10.15h-78.46zm35.38-35.38v-124.62h43.08v124.62zm123.08 35.38h35.39v-80h47.69v-35.38h-47.69v-44.62h47.69v-35.38h-83.08zM322.31-260Q292-260 271-281t-21-51.31v-455.38Q250-818 271-839t51.31-21h455.38Q808-860 829-839t21 51.31v455.38Q850-302 829-281t-51.31 21zm0-60h455.38q4.62 0 8.46-3.85 3.85-3.84 3.85-8.46v-455.38q0-4.62-3.85-8.46-3.84-3.85-8.46-3.85H322.31q-4.62 0-8.46 3.85-3.85 3.84-3.85 8.46v455.38q0 4.62 3.85 8.46 3.84 3.85 8.46 3.85m-140 200Q152-120 131-141t-21-51.31v-515.38h60v515.38q0 4.62 3.85 8.46 3.84 3.85 8.46 3.85h515.38v60zM310-800v480z"/></svg>