<svg xmlns="http://www.w3.org/2000/svg" width="24" height="24" fill="#e8eaed" viewBox="0 -960 960 960"><path d="M480-492.31q-57.75 0-98.87-41.12Q340-574.56 340-632.31t41.13-98.87q41.12-41.13 98.87-41.13t98.87 41.13Q620-690.06 620-632.31t-41.13 98.88q-41.12 41.12-98.87 41.12M180-187.69v-88.93q0-29.38 15.96-54.42t42.66-38.5q59.3-29.07 119.65-43.61T480-427.69t121.73 14.54 119.65 43.61q26.7 13.46 42.66 38.5T780-276.62v88.93zm60-60h480v-28.93q0-12.15-7.04-22.5-7.04-10.34-19.11-16.88-51.7-25.46-105.42-38.58Q534.7-367.69 480-367.69t-108.43 13.11Q317.85-341.46 266.15-316q-12.07 6.54-19.11 16.88-7.04 10.35-7.04 22.5zm240-304.62q33 0 56.5-23.5t23.5-56.5-23.5-56.5-56.5-23.5-56.5 23.5-23.5 56.5 23.5 56.5 56.5 23.5m0 304.62"/></svg>