<svg xmlns="http://www.w3.org/2000/svg" width="24" height="24" fill="#e8eaed" viewBox="0 -960 960 960"><path d="M640-627.69v-120H320v120h-60v-180h440v180zm-468.46 60h616.92zm540.77 100q17 0 28.5-11.5t11.5-28.5-11.5-28.5-28.5-11.5-28.5 11.5-11.5 28.5 11.5 28.5 28.5 11.5M640-200v-170.77H320V-200zm60 60H260v-160H111.54v-227.69q0-42.5 29.04-71.25t70.96-28.75h536.92q42.5 0 71.25 28.75t28.75 71.25V-300H700zm88.46-220v-167.69q0-17-11.5-28.5t-28.5-11.5H211.54q-17 0-28.5 11.5t-11.5 28.5V-360H260v-70.77h440V-360z"/></svg>