<svg xmlns="http://www.w3.org/2000/svg" width="800" height="800" fill="none"><path fill="#4B4B4B" d="M359.075 212.25 338.75 181C198.125 275.525 120 390.375 120 484.9c0 91.4 67.2 134.375 124.225 134.375 71.875 0 122.65-60.95 122.65-125 0-53.9-34.375-100-80.475-117.2-13.275-4.7-25.775-8.6-25.775-31.25 0-28.9 21.1-71.85 98.45-133.575m310.15 0L648.9 181c-139.075 94.525-218.75 209.375-218.75 303.9 0 91.4 68.75 134.375 125.775 134.375 72.65 0 124.225-60.95 124.225-125 0-53.9-35.15-100-82.825-117.2-13.275-4.7-25-8.6-25-31.25 0-28.9 21.875-71.875 96.875-133.6z"/></svg>