<svg xmlns="http://www.w3.org/2000/svg" width="24" height="24" fill="#e8eaed" viewBox="0 -960 960 960"><path d="M260-319.23q49.69 0 96.69 11.27T450-272.61v-393.24q-42.15-27.46-91.23-41.19T260-720.77q-36 0-67.27 5.65-31.27 5.66-64.27 18.5-4.61 1.54-6.54 4.43-1.92 2.88-1.92 6.34v378.31q0 5.39 3.85 7.89 3.84 2.5 8.46.57 28.46-9.69 60.07-14.92 31.62-5.23 67.62-5.23m250 46.62q46.31-24.08 93.31-35.35T700-319.23q36 0 67.62 5.23 31.61 5.23 60.07 14.92 4.62 1.93 8.46-.57 3.85-2.5 3.85-7.89v-378.31q0-3.46-1.92-6.15-1.93-2.69-6.54-4.62-33-12.84-64.27-18.5-31.27-5.65-67.27-5.65-49.69 0-98.77 13.73T510-665.85zm-30 87.99q-48.38-35.69-104.38-55.15T260-259.23q-36.61 0-71.92 8.11Q152.77-243 120-227.23q-21.38 9.84-40.69-3.12T60-267.08v-434.3q0-12.93 6.66-24.27Q73.31-737 85.85-742q40.61-19.77 84.65-29.27t89.5-9.5q58.38 0 114.08 15.96 55.69 15.97 105.92 47.12 50.23-31.15 105.92-47.12 55.7-15.96 114.08-15.96 45.46 0 89.5 9.5T874.15-742q12.54 5 19.19 16.35 6.66 11.34 6.66 24.27v434.3q0 23.77-20.08 36.35-20.08 12.57-42.23 2.73-32.38-15.39-67.11-23.31T700-259.23q-59.62 0-115.62 19.46T480-184.62M285-496.69"/></svg>