<svg xmlns="http://www.w3.org/2000/svg" width="24" height="24" fill="#e8eaed" viewBox="0 -960 960 960"><path d="M672.31-160q20.27 0 33.98-13.71T720-207.69t-13.71-33.98q-13.71-13.72-33.98-13.72t-33.98 13.72q-13.72 13.71-13.72 33.98t13.72 33.98Q652.04-160 672.31-160m0-544.61q20.27 0 33.98-13.72Q720-732.04 720-752.31t-13.71-33.98T672.31-800t-33.98 13.71q-13.72 13.71-13.72 33.98t13.72 33.98q13.71 13.72 33.98 13.72M100-471.15V-480q0-44.61 31.3-76.15t76.01-31.54q22.74 0 42.64 8.5t34.36 23.5l284.46-167.08q-2.38-7.38-3.27-14.46-.88-7.08-.88-15.08 0-44.87 31.43-76.28Q627.49-860 672.4-860t76.25 31.44Q780-797.13 780-752.22t-31.41 76.26q-31.41 31.34-76.28 31.34-22.85 0-42.5-8.69Q610.15-662 595.69-677L308-507.85q-14.69-3.42-29.77-5.48-15.07-2.05-30.54-2.05-41.15 0-78.57 11.46-37.43 11.46-69.12 32.77M672.22-100q-44.91 0-76.26-31.41-31.34-31.41-31.34-76.28 0-6 4.15-29.16l-54.16-32.54q-2-18.61-5.68-35.94-3.68-17.34-10.31-34.28L595.69-283q14.46-15 34.12-23.69 19.65-8.69 42.5-8.69 44.87 0 76.28 31.43Q780-252.51 780-207.6t-31.44 76.25Q717.13-100 672.22-100M247.69-67.69q-74.92 0-127.46-52.54T67.69-247.69q0-74.93 52.54-127.46 52.54-52.54 127.46-52.54 74.93 0 127.46 52.54 52.54 52.53 52.54 127.46 0 74.92-52.54 127.46-52.53 52.54-127.46 52.54m0-155.08 70 70.62 25.54-24.93-70.61-70.61 70.61-70.62-24.92-24.92-70.62 70.61-70.61-70.61-24.93 24.92 70.62 70.62-70.62 70.61 24.93 24.93zm424.62-529.54"/></svg>