<svg xmlns="http://www.w3.org/2000/svg"><style>:root svg:not(:target){display:none}</style><svg viewBox="0 -960 960 960" fill="#e8eaed" id="123"><path d="M227.69-366.15v-180h-60v-47.7h107.69v227.7h-47.69Zm137.7 0v-96.16q0-15.04 10.17-25.21 10.17-10.17 25.21-10.17h85.38v-48.46H365.39v-47.7h133.07q15.04 0 25.21 10.18 10.18 10.17 10.18 25.21v60.77q0 15.04-10.18 25.21-10.17 10.17-25.21 10.17h-85.38v48.46h120.77v47.7H365.39Zm238.46 0v-47.7h120.77v-48.46h-80.77v-35.38h80.77v-48.46H603.85v-47.7h133.07q15.04 0 25.21 10.18 10.18 10.17 10.18 25.21v156.92q0 15.04-10.18 25.21-10.17 10.18-25.21 10.18H603.85Z" ></path></svg><svg viewBox="0 -960 960 960" fill="#e8eaed" id="abc"><path d="M680.77-366.15q-15.04 0-25.21-10.18-10.17-10.17-10.17-25.21v-156.92q0-15.04 10.17-25.21 10.17-10.18 25.21-10.18h116.92q15.04 0 25.21 10.18 10.18 10.17 10.18 25.21V-520h-47.69v-26.15h-92.31v132.3h92.31V-440h47.69v38.46q0 15.04-10.18 25.21-10.17 10.18-25.21 10.18H680.77Zm-294.62 0v-227.7h152.31q15.04 0 25.21 10.18 10.18 10.17 10.18 25.21v44.61q0 14.31-8.43 23.5-8.42 9.2-23.11 10.35 14.69 1.15 23.11 10.35 8.43 9.19 8.43 23.5v44.61q0 15.04-10.18 25.21-10.17 10.18-25.21 10.18H386.15Zm47.7-137.7h92.3v-42.3h-92.3v42.3Zm0 90h92.3v-42.3h-92.3v42.3Zm-306.93 47.7v-192.31q0-15.04 10.18-25.21 10.17-10.18 25.21-10.18h116.92q15.04 0 25.21 10.18 10.17 10.17 10.17 25.21v192.31h-47.69V-430h-92.31v63.85h-47.69Zm47.69-111.54h92.31v-68.46h-92.31v68.46Z" ></path></svg><svg viewBox="0 -960 960 960" fill="#e8eaed" id="add"><path d="M450-450H220v-60h230v-230h60v230h230v60H510v230h-60v-230Z" ></path></svg><svg viewBox="0 -960 960 960" fill="#e8eaed" id="add_box"><path d="M450-290h60v-160h160v-60H510v-160h-60v160H290v60h160v160ZM212.31-140Q182-140 161-161q-21-21-21-51.31v-535.38Q140-778 161-799q21-21 51.31-21h535.38Q778-820 799-799q21 21 21 51.31v535.38Q820-182 799-161q-21 21-51.31 21H212.31Zm0-60h535.38q4.62 0 8.46-3.85 3.85-3.84 3.85-8.46v-535.38q0-4.62-3.85-8.46-3.84-3.85-8.46-3.85H212.31q-4.62 0-8.46 3.85-3.85 3.84-3.85 8.46v535.38q0 4.62 3.85 8.46 3.84 3.85 8.46 3.85ZM200-760v560-560Z" ></path></svg><svg viewBox="0 -960 960 960" fill="#e8eaed" id="add_circle"><path d="M450-290h60v-160h160v-60H510v-160h-60v160H290v60h160v160Zm30.07 190q-78.84 0-148.21-29.92t-120.68-81.21q-51.31-51.29-81.25-120.63Q100-401.1 100-479.93q0-78.84 29.92-148.21t81.21-120.68q51.29-51.31 120.63-81.25Q401.1-860 479.93-860q78.84 0 148.21 29.92t120.68 81.21q51.31 51.29 81.25 120.63Q860-558.9 860-480.07q0 78.84-29.92 148.21t-81.21 120.68q-51.29 51.31-120.63 81.25Q558.9-100 480.07-100Zm-.07-60q134 0 227-93t93-227q0-134-93-227t-227-93q-134 0-227 93t-93 227q0 134 93 227t227 93Zm0-320Z" ></path></svg><svg viewBox="0 -960 960 960" fill="#e8eaed" id="arrow_backward"><path d="M398.08-253.85 171.92-480l226.16-226.15 42.15 43.38L287.46-510h500.62v60H287.46l152.77 152.77-42.15 43.38Z" ></path></svg><svg viewBox="0 -960 960 960" fill="#e8eaed" id="arrow_forward"><path d="m553.85-253.85-42.16-43.38L664.46-450H180v-60h484.46L511.69-662.77l42.16-43.38L780-480 553.85-253.85Z" ></path></svg><svg viewBox="0 -960 960 960" fill="#e8eaed" id="block"><path d="M480.07-100q-78.84 0-148.21-29.92t-120.68-81.21q-51.31-51.29-81.25-120.63Q100-401.1 100-479.93q0-78.84 29.92-148.21t81.21-120.68q51.29-51.31 120.63-81.25Q401.1-860 479.93-860q78.84 0 148.21 29.92t120.68 81.21q51.31 51.29 81.25 120.63Q860-558.9 860-480.07q0 78.84-29.92 148.21t-81.21 120.68q-51.29 51.31-120.63 81.25Q558.9-100 480.07-100Zm-.07-60q56.29 0 108.42-19.04 52.12-19.04 95.27-55.11L234.15-683.69q-35.69 43.15-54.92 95.27Q160-536.29 160-480q0 134 93 227t227 93Zm245.85-116.31q36.07-43.15 55.11-95.27Q800-423.71 800-480q0-134-93-227t-227-93q-56.43 0-108.68 18.85-52.24 18.84-95.01 55.3l449.54 449.54Z" ></path></svg><svg viewBox="0 -960 960 960" fill="#e8eaed" id="bookmark-thin"><path d="M220-150v-616.15q0-23.23 17.08-40.46t40.61-17.23h404.62q23.53 0 40.61 17.23T740-766.15V-150L480-261.54 220-150Zm45.39-69.46L480-310.54l214.61 91.08v-546.69q0-4.62-3.84-8.46-3.85-3.85-8.46-3.85H277.69q-4.61 0-8.46 3.85-3.84 3.84-3.84 8.46v546.69Zm0-559H694.61 265.39Z" ></path></svg><svg viewBox="0 -960 960 960" fill="#e8eaed" id="bookmark"><path d="M220-150v-597.69Q220-778 241-799q21-21 51.31-21h375.38Q698-820 719-799q21 21 21 51.31V-150L480-261.54 220-150Zm60-92 200-86 200 86v-505.69q0-4.62-3.85-8.46-3.84-3.85-8.46-3.85H292.31q-4.62 0-8.46 3.85-3.85 3.84-3.85 8.46V-242Zm0-518h400-400Z" ></path></svg><svg viewBox="0 -960 960 960" fill="#e8eaed" id="cached"><path d="M482-170q-129.77 0-220.88-90.31Q170-350.62 170-480v-31.23l-74 74-42.15-42.15L200-625.54l146.15 146.16L304-437.23l-74-74V-480q0 104.23 73.38 177.12Q376.77-230 482-230q24.85 0 49.65-5.42 24.81-5.43 48.43-16.27l45 45q-33.77 18.15-69.73 27.42Q519.38-170 482-170Zm278-164.46L613.85-480.62 656-522.77l74 74V-480q0-104.23-73.38-177.12Q583.23-730 478-730q-24.85 0-49.65 5.42-24.81 5.43-48.43 16.27l-45-45q33.77-18.15 69.73-27.42Q440.62-790 478-790q129.77 0 220.88 90.31Q790-609.38 790-480v31.23l74-74 42.15 42.15L760-334.46Z" ></path></svg><svg viewBox="0 -960 960 960" fill="#e8eaed" id="calendar"><path d="M212.31-100Q182-100 161-121q-21-21-21-51.31v-535.38Q140-738 161-759q21-21 51.31-21h55.38v-84.61h61.54V-780h303.08v-84.61h60V-780h55.38Q778-780 799-759q21 21 21 51.31v535.38Q820-142 799-121q-21 21-51.31 21H212.31Zm0-60h535.38q4.62 0 8.46-3.85 3.85-3.84 3.85-8.46v-375.38H200v375.38q0 4.62 3.85 8.46 3.84 3.85 8.46 3.85ZM200-607.69h560v-100q0-4.62-3.85-8.46-3.84-3.85-8.46-3.85H212.31q-4.62 0-8.46 3.85-3.85 3.84-3.85 8.46v100Zm0 0V-720v112.31Zm280 210.77q-14.69 0-25.04-10.35-10.34-10.34-10.34-25.04 0-14.69 10.34-25.04 10.35-10.34 25.04-10.34t25.04 10.34q10.34 10.35 10.34 25.04 0 14.7-10.34 25.04-10.35 10.35-25.04 10.35Zm-160 0q-14.69 0-25.04-10.35-10.34-10.34-10.34-25.04 0-14.69 10.34-25.04 10.35-10.34 25.04-10.34t25.04 10.34q10.34 10.35 10.34 25.04 0 14.7-10.34 25.04-10.35 10.35-25.04 10.35Zm320 0q-14.69 0-25.04-10.35-10.34-10.34-10.34-25.04 0-14.69 10.34-25.04 10.35-10.34 25.04-10.34t25.04 10.34q10.34 10.35 10.34 25.04 0 14.7-10.34 25.04-10.35 10.35-25.04 10.35ZM480-240q-14.69 0-25.04-10.35-10.34-10.34-10.34-25.03 0-14.7 10.34-25.04 10.35-10.35 25.04-10.35t25.04 10.35q10.34 10.34 10.34 25.04 0 14.69-10.34 25.03Q494.69-240 480-240Zm-160 0q-14.69 0-25.04-10.35-10.34-10.34-10.34-25.03 0-14.7 10.34-25.04 10.35-10.35 25.04-10.35t25.04 10.35q10.34 10.34 10.34 25.04 0 14.69-10.34 25.03Q334.69-240 320-240Zm320 0q-14.69 0-25.04-10.35-10.34-10.34-10.34-25.03 0-14.7 10.34-25.04 10.35-10.35 25.04-10.35t25.04 10.35q10.34 10.34 10.34 25.04 0 14.69-10.34 25.03Q654.69-240 640-240Z" ></path></svg><svg viewBox="0 -960 960 960" fill="#e8eaed" id="cancel"><path d="m336-293.85 144-144 144 144L666.15-336l-144-144 144-144L624-666.15l-144 144-144-144L293.85-624l144 144-144 144L336-293.85ZM480.07-100q-78.84 0-148.21-29.92t-120.68-81.21q-51.31-51.29-81.25-120.63Q100-401.1 100-479.93q0-78.84 29.92-148.21t81.21-120.68q51.29-51.31 120.63-81.25Q401.1-860 479.93-860q78.84 0 148.21 29.92t120.68 81.21q51.31 51.29 81.25 120.63Q860-558.9 860-480.07q0 78.84-29.92 148.21t-81.21 120.68q-51.29 51.31-120.63 81.25Q558.9-100 480.07-100Zm-.07-60q134 0 227-93t93-227q0-134-93-227t-227-93q-134 0-227 93t-93 227q0 134 93 227t227 93Zm0-320Z" ></path></svg><svg viewBox="0 0 24 24" fill="none" id="cart"><mask id="cart_0" fill="white"><path d="M1.49986 5.04583C1.22357 5.04583 1 4.81195 1 4.52292C1 4.23388 1.22357 4 1.49986 4H4.5931C4.82534 4 5.02088 4.16546 5.07694 4.39027L5.62818 6.03092H13.3876H21.5001C21.7764 6.03092 22 6.2648 22 6.55384C22 6.62016 21.988 6.6837 21.9666 6.74234L20.7754 10.7037C20.7707 10.7246 20.764 10.7455 20.7567 10.7658L19.9879 13.3203C19.9272 13.5235 19.7597 13.6603 19.5701 13.6834L13.4724 14.443C13.4564 14.4457 13.439 14.4478 13.4223 14.4492L8.07474 15.1153L7.02498 15.449V17.135H9.35742H15.9643H19.0876C19.3639 17.135 19.5875 17.3689 19.5875 17.6579C19.5875 17.947 19.3639 18.1809 19.0876 18.1809H17.6061C17.7375 18.4462 17.8116 18.7478 17.8116 19.0675C17.8116 19.6009 17.6047 20.0847 17.2704 20.4338C16.936 20.7836 16.4742 21 15.9643 21C15.4538 21 14.992 20.7836 14.6583 20.4338C14.324 20.084 14.1171 19.6009 14.1171 19.0675C14.1171 18.7478 14.1912 18.4462 14.3226 18.1809H10.9998C11.1306 18.4462 11.2054 18.7478 11.2054 19.0675C11.2054 19.6009 10.9985 20.0847 10.6641 20.4338C10.3298 20.7836 9.86796 21 9.35809 21C8.84756 21 8.38574 20.7836 8.05205 20.4338C7.7177 20.084 7.51082 19.6009 7.51082 19.0675C7.51082 18.7478 7.5849 18.4462 7.71637 18.1809H6.52579C6.2495 18.1809 6.02593 17.947 6.02593 17.6579V15.0629H6.02793C6.02793 14.8395 6.16675 14.6322 6.38164 14.5644L7.33864 14.2607L6.17209 10.7902C6.16141 10.7644 6.15206 10.7379 6.14539 10.7106L4.80599 6.72558L4.80532 6.72279L4.2414 5.04583H1.50052H1.49986ZM16.5643 18.4413C16.4108 18.2807 16.1993 18.1816 15.965 18.1816C15.7308 18.1816 15.5185 18.2807 15.3657 18.4413C15.2122 18.6018 15.1175 18.8232 15.1175 19.0682C15.1175 19.3133 15.2122 19.5353 15.3657 19.6952C15.5192 19.8557 15.7308 19.9549 15.965 19.9549C16.1993 19.9549 16.4108 19.855 16.5643 19.6952C16.7178 19.5346 16.8126 19.3133 16.8126 19.0682C16.8126 18.8232 16.7178 18.6011 16.5643 18.4413ZM9.95738 18.4413C9.80389 18.2807 9.59234 18.1816 9.35809 18.1816C9.12384 18.1816 8.91162 18.2807 8.75879 18.4413C8.6053 18.6018 8.51053 18.8232 8.51053 19.0682C8.51053 19.3133 8.6053 19.5353 8.75879 19.6952C8.91229 19.8557 9.12384 19.9549 9.35809 19.9549C9.59234 19.9549 9.80456 19.855 9.95738 19.6952C10.1109 19.5346 10.2056 19.3133 10.2056 19.0682C10.2056 18.8232 10.1109 18.6011 9.95738 18.4413ZM6.98093 10.0544H9.29803L9.00772 7.07676H5.97988L6.98093 10.0544ZM10.2997 10.0544H12.8878V7.07676H10.0094L10.2997 10.0544ZM13.8875 10.0544H16.4755L16.7658 7.07676H13.8875V10.0544ZM17.4779 10.0544H19.9238L20.8194 7.07676H17.7682L17.4779 10.0544ZM19.6088 11.1002H17.3758L17.1976 12.9266L19.1323 12.6857L19.6095 11.1002H19.6088ZM16.3734 11.1002H13.8875V13.3385L16.1826 13.0529L16.3728 11.1002H16.3734ZM12.8878 11.1002H10.4018L10.6595 13.7406L12.8878 13.4634V11.1002ZM9.40013 11.1002H7.33263L8.31833 14.0324L9.66975 13.8642L9.40013 11.1002Z" ></path></mask><path d="M1.49986 5.04583C1.22357 5.04583 1 4.81195 1 4.52292C1 4.23388 1.22357 4 1.49986 4H4.5931C4.82534 4 5.02088 4.16546 5.07694 4.39027L5.62818 6.03092H13.3876H21.5001C21.7764 6.03092 22 6.2648 22 6.55384C22 6.62016 21.988 6.6837 21.9666 6.74234L20.7754 10.7037C20.7707 10.7246 20.764 10.7455 20.7567 10.7658L19.9879 13.3203C19.9272 13.5235 19.7597 13.6603 19.5701 13.6834L13.4724 14.443C13.4564 14.4457 13.439 14.4478 13.4223 14.4492L8.07474 15.1153L7.02498 15.449V17.135H9.35742H15.9643H19.0876C19.3639 17.135 19.5875 17.3689 19.5875 17.6579C19.5875 17.947 19.3639 18.1809 19.0876 18.1809H17.6061C17.7375 18.4462 17.8116 18.7478 17.8116 19.0675C17.8116 19.6009 17.6047 20.0847 17.2704 20.4338C16.936 20.7836 16.4742 21 15.9643 21C15.4538 21 14.992 20.7836 14.6583 20.4338C14.324 20.084 14.1171 19.6009 14.1171 19.0675C14.1171 18.7478 14.1912 18.4462 14.3226 18.1809H10.9998C11.1306 18.4462 11.2054 18.7478 11.2054 19.0675C11.2054 19.6009 10.9985 20.0847 10.6641 20.4338C10.3298 20.7836 9.86796 21 9.35809 21C8.84756 21 8.38574 20.7836 8.05205 20.4338C7.7177 20.084 7.51082 19.6009 7.51082 19.0675C7.51082 18.7478 7.5849 18.4462 7.71637 18.1809H6.52579C6.2495 18.1809 6.02593 17.947 6.02593 17.6579V15.0629H6.02793C6.02793 14.8395 6.16675 14.6322 6.38164 14.5644L7.33864 14.2607L6.17209 10.7902C6.16141 10.7644 6.15206 10.7379 6.14539 10.7106L4.80599 6.72558L4.80532 6.72279L4.2414 5.04583H1.50052H1.49986ZM16.5643 18.4413C16.4108 18.2807 16.1993 18.1816 15.965 18.1816C15.7308 18.1816 15.5185 18.2807 15.3657 18.4413C15.2122 18.6018 15.1175 18.8232 15.1175 19.0682C15.1175 19.3133 15.2122 19.5353 15.3657 19.6952C15.5192 19.8557 15.7308 19.9549 15.965 19.9549C16.1993 19.9549 16.4108 19.855 16.5643 19.6952C16.7178 19.5346 16.8126 19.3133 16.8126 19.0682C16.8126 18.8232 16.7178 18.6011 16.5643 18.4413ZM9.95738 18.4413C9.80389 18.2807 9.59234 18.1816 9.35809 18.1816C9.12384 18.1816 8.91162 18.2807 8.75879 18.4413C8.6053 18.6018 8.51053 18.8232 8.51053 19.0682C8.51053 19.3133 8.6053 19.5353 8.75879 19.6952C8.91229 19.8557 9.12384 19.9549 9.35809 19.9549C9.59234 19.9549 9.80456 19.855 9.95738 19.6952C10.1109 19.5346 10.2056 19.3133 10.2056 19.0682C10.2056 18.8232 10.1109 18.6011 9.95738 18.4413ZM6.98093 10.0544H9.29803L9.00772 7.07676H5.97988L6.98093 10.0544ZM10.2997 10.0544H12.8878V7.07676H10.0094L10.2997 10.0544ZM13.8875 10.0544H16.4755L16.7658 7.07676H13.8875V10.0544ZM17.4779 10.0544H19.9238L20.8194 7.07676H17.7682L17.4779 10.0544ZM19.6088 11.1002H17.3758L17.1976 12.9266L19.1323 12.6857L19.6095 11.1002H19.6088ZM16.3734 11.1002H13.8875V13.3385L16.1826 13.0529L16.3728 11.1002H16.3734ZM12.8878 11.1002H10.4018L10.6595 13.7406L12.8878 13.4634V11.1002ZM9.40013 11.1002H7.33263L8.31833 14.0324L9.66975 13.8642L9.40013 11.1002Z" fill="#5F6368" stroke="#5F6368" stroke-width="2" mask="url(#cart_0)"></path></svg><svg viewBox="0 -960 960 960" fill="#e8eaed" id="check"><path d="M382-253.85 168.62-467.23 211.38-510 382-339.38 748.62-706l42.76 42.77L382-253.85Z" ></path></svg><svg viewBox="0 -960 960 960" fill="#e8eaed" id="check_circle"><path d="m423.23-309.85 268.92-268.92L650-620.92 423.23-394.15l-114-114L267.08-466l156.15 156.15ZM480.07-100q-78.84 0-148.21-29.92t-120.68-81.21q-51.31-51.29-81.25-120.63Q100-401.1 100-479.93q0-78.84 29.92-148.21t81.21-120.68q51.29-51.31 120.63-81.25Q401.1-860 479.93-860q78.84 0 148.21 29.92t120.68 81.21q51.31 51.29 81.25 120.63Q860-558.9 860-480.07q0 78.84-29.92 148.21t-81.21 120.68q-51.29 51.31-120.63 81.25Q558.9-100 480.07-100Zm-.07-60q134 0 227-93t93-227q0-134-93-227t-227-93q-134 0-227 93t-93 227q0 134 93 227t227 93Zm0-320Z"></path></svg><svg viewBox="0 -960 960 960" fill="#e8eaed" id="chevron_down"><path d="M480-357.85 253.85-584 296-626.15l184 184 184-184L706.15-584 480-357.85Z" ></path></svg><svg viewBox="0 -960 960 960" fill="#e8eaed" id="chevron_left"><path d="M560-253.85 333.85-480 560-706.15 602.15-664l-184 184 184 184L560-253.85Z" ></path></svg><svg viewBox="0 -960 960 960" fill="#e8eaed" id="chevron_left_big"><path d="M640-93.85 253.85-480 640-866.15l56.77 56.77L367.38-480l329.39 329.38L640-93.85Z" ></path></svg><svg viewBox="0 -960 960 960" fill="#e8eaed" id="chevron_right"><path d="m517.85-480-184-184L376-706.15 602.15-480 376-253.85 333.85-296l184-184Z" ></path></svg><svg viewBox="0 -960 960 960" fill="#e8eaed" id="clock"><path d="m618.92-298.92 42.16-42.16L510-492.16V-680h-60v212.15l168.92 168.93ZM480.07-100q-78.84 0-148.21-29.92t-120.68-81.21q-51.31-51.29-81.25-120.63Q100-401.1 100-479.93q0-78.84 29.92-148.21t81.21-120.68q51.29-51.31 120.63-81.25Q401.1-860 479.93-860q78.84 0 148.21 29.92t120.68 81.21q51.31 51.29 81.25 120.63Q860-558.9 860-480.07q0 78.84-29.92 148.21t-81.21 120.68q-51.29 51.31-120.63 81.25Q558.9-100 480.07-100ZM480-480Zm0 320q133 0 226.5-93.5T800-480q0-133-93.5-226.5T480-800q-133 0-226.5 93.5T160-480q0 133 93.5 226.5T480-160Z" ></path></svg><svg viewBox="0 -960 960 960" fill="#e8eaed" id="close"><path d="M256-213.85 213.85-256l224-224-224-224L256-746.15l224 224 224-224L746.15-704l-224 224 224 224L704-213.85l-224-224-224 224Z" ></path></svg><svg viewBox="0 -960 960 960" fill="#e8eaed" id="collapse"><path d="M440-440v220h-60v-160H220v-60h220Zm140-300v160h160v60H520v-220h60Z" ></path></svg><svg viewBox="0 -960 960 960" fill="#e8eaed" id="collapse_all"><path d="M296-93.85 253.85-136 480-362.15 706.15-136 664-93.85l-184-184-184 184Zm184-504L253.85-824 296-866.15l184 184 184-184L706.15-824 480-597.85Z" ></path></svg><svg viewBox="0 -960 960 960" fill="#e3e3e3" id="comment"><path d="M250-410h460v-60H250v60Zm0-120h460v-60H250v60Zm0-120h460v-60H250v60Zm610 531.54L718.46-260H172.31Q142-260 121-281q-21-21-21-51.31v-455.38Q100-818 121-839q21-21 51.31-21h615.38Q818-860 839-839q21 21 21 51.31v669.23ZM172.31-320H744l56 55.39v-523.08q0-4.62-3.85-8.46-3.84-3.85-8.46-3.85H172.31q-4.62 0-8.46 3.85-3.85 3.84-3.85 8.46v455.38q0 4.62 3.85 8.46 3.84 3.85 8.46 3.85ZM160-320v-480 480Z"></path></svg><svg viewBox="0 -960 960 960" fill="#e8eaed" id="copy"><path d="M362.31-260Q332-260 311-281q-21-21-21-51.31v-455.38Q290-818 311-839q21-21 51.31-21h335.38Q728-860 749-839q21 21 21 51.31v455.38Q770-302 749-281q-21 21-51.31 21H362.31Zm0-60h335.38q4.62 0 8.46-3.85 3.85-3.84 3.85-8.46v-455.38q0-4.62-3.85-8.46-3.84-3.85-8.46-3.85H362.31q-4.62 0-8.46 3.85-3.85 3.84-3.85 8.46v455.38q0 4.62 3.85 8.46 3.84 3.85 8.46 3.85Zm-140 200Q192-120 171-141q-21-21-21-51.31v-515.38h60v515.38q0 4.62 3.85 8.46 3.84 3.85 8.46 3.85h395.38v60H222.31ZM350-320v-480 480Z" ></path></svg><svg viewBox="0 -960 960 960" fill="#e8eaed" id="delete"><path d="M292.31-140q-29.92 0-51.12-21.19Q220-182.39 220-212.31V-720h-40v-60h180v-35.38h240V-780h180v60h-40v507.69Q740-182 719-161q-21 21-51.31 21H292.31ZM680-720H280v507.69q0 5.39 3.46 8.85t8.85 3.46h375.38q4.62 0 8.46-3.85 3.85-3.84 3.85-8.46V-720ZM376.16-280h59.99v-360h-59.99v360Zm147.69 0h59.99v-360h-59.99v360ZM280-720v520-520Z" ></path></svg><svg viewBox="0 -960 960 960" fill="#e8eaed" id="description"><path d="M330-250h300v-60H330v60Zm0-160h300v-60H330v60Zm-77.69 310Q222-100 201-121q-21-21-21-51.31v-615.38Q180-818 201-839q21-21 51.31-21H570l210 210v477.69Q780-142 759-121q-21 21-51.31 21H252.31ZM540-620v-180H252.31q-4.62 0-8.46 3.85-3.85 3.84-3.85 8.46v615.38q0 4.62 3.85 8.46 3.84 3.85 8.46 3.85h455.38q4.62 0 8.46-3.85 3.85-3.84 3.85-8.46V-620H540ZM240-800v180-180V-160v-640Z"></path></svg><svg viewBox="0 0 24 24" fill="none" id="double_arrow"><path d="M12.875 6.34619L18.5287 11.9999L12.875 17.6537L11.8212 16.5999L16.4057 11.9999L11.8212 7.39994L12.875 6.34619ZM6.525 6.34619L12.1787 11.9999L6.525 17.6537L5.47125 16.5999L10.0557 11.9999L5.47125 7.39994L6.525 6.34619Z" fill="#E8EAED" ></path></svg><svg viewBox="0 -960 960 960" fill="#e8eaed" id="double_arrow_backward"><path d="M445-253.85 218.85-480 445-706.15 487.15-664 303.77-480l183.38 184L445-253.85Zm254 0L472.85-480 699-706.15 741.15-664 557.77-480l183.38 184L699-253.85Z" ></path></svg><svg viewBox="0 -960 960 960" fill="#e8eaed" id="download"><path d="M480-328.46 309.23-499.23l42.16-43.38L450-444v-336h60v336l98.61-98.61 42.16 43.38L480-328.46ZM252.31-180Q222-180 201-201q-21-21-21-51.31v-108.46h60v108.46q0 4.62 3.85 8.46 3.84 3.85 8.46 3.85h455.38q4.62 0 8.46-3.85 3.85-3.84 3.85-8.46v-108.46h60v108.46Q780-222 759-201q-21 21-51.31 21H252.31Z" ></path></svg><svg viewBox="0 -960 960 960" fill="#e8eaed" id="drag_handle"><path d="M180-370v-60h600v60H180Zm0-160v-60h600v60H180Z" ></path></svg><svg viewBox="0 -960 960 960" fill="#e8eaed" id="edit"><path d="M200-200h50.46l409.46-409.46-50.46-50.46L200-250.46V-200Zm-60 60v-135.38l527.62-527.39q9.07-8.24 20.03-12.73 10.97-4.5 23-4.5t23.3 4.27q11.28 4.27 19.97 13.58l48.85 49.46q9.31 8.69 13.27 20 3.96 11.31 3.96 22.62 0 12.07-4.12 23.03-4.12 10.97-13.11 20.04L275.38-140H140Zm620.38-570.15-50.23-50.23 50.23 50.23Zm-126.13 75.9-24.79-25.67 50.46 50.46-25.67-24.79Z" ></path></svg><svg viewBox="0 -960 960 960" fill="#e8eaed" id="error"><path d="M480-290.77q13.73 0 23.02-9.29t9.29-23.02q0-13.73-9.29-23.02-9.29-9.28-23.02-9.28t-23.02 9.28q-9.29 9.29-9.29 23.02t9.29 23.02q9.29 9.29 23.02 9.29Zm-30-146.15h60v-240h-60v240ZM480.07-100q-78.84 0-148.21-29.92t-120.68-81.21q-51.31-51.29-81.25-120.63Q100-401.1 100-479.93q0-78.84 29.92-148.21t81.21-120.68q51.29-51.31 120.63-81.25Q401.1-860 479.93-860q78.84 0 148.21 29.92t120.68 81.21q51.31 51.29 81.25 120.63Q860-558.9 860-480.07q0 78.84-29.92 148.21t-81.21 120.68q-51.29 51.31-120.63 81.25Q558.9-100 480.07-100Zm-.07-60q134 0 227-93t93-227q0-134-93-227t-227-93q-134 0-227 93t-93 227q0 134 93 227t227 93Zm0-320Z"></path></svg><svg viewBox="0 -960 960 960" fill="#e8eaed" id="expand"><path d="M220-220v-220h60v160h160v60H220Zm460-300v-160H520v-60h220v220h-60Z" ></path></svg><svg viewBox="0 -960 960 960" fill="#e8eaed" id="expand_all"><path d="M480-93.85 253.85-320l42.77-42.77L480-180.15l183.38-182.62L706.15-320 480-93.85Zm-182.77-504L253.85-640 480-866.15 706.15-640l-43.38 42.15-182.77-182-182.77 182Z" ></path></svg><svg viewBox="0 0 24 24" fill="none" id="eye"><path d="M12 6.03479C6.88461 6.03479 2.89299 9.95608 1.53662 11.9167C2.98987 13.9754 7.059 17.7987 12.2907 17.7987C17.1736 17.7987 21.204 13.8774 22.4634 11.9167C21.1071 9.95608 17.1155 6.03479 12 6.03479Z" stroke="#e8eaed" ></path><path fill-rule="evenodd" clip-rule="evenodd" d="M9.16753 9.73554L8.48323 9.30936C7.95351 10.0398 7.64062 10.9413 7.64062 11.9167C7.64062 14.3531 9.59256 16.3282 12.0004 16.3282C14.4082 16.3282 16.3601 14.3531 16.3601 11.9167C16.3601 9.48033 14.4082 7.50525 12.0004 7.50525C11.3074 7.50525 10.6522 7.66885 10.0703 7.95997L10.4305 8.6779C10.9049 8.44045 11.4382 8.30733 12.0004 8.30733C13.9522 8.30733 15.5553 9.91172 15.5553 11.9167C15.5553 13.9217 13.9522 15.5261 12.0004 15.5261C10.0486 15.5261 8.4455 13.9217 8.4455 11.9167C8.4455 11.0947 8.71498 10.3399 9.16753 9.73554Z" fill="#e8eaed" ></path><path d="M13.0504 11.9167C13.0504 12.5132 12.5742 12.9862 11.9995 12.9862C11.4249 12.9862 10.9487 12.5132 10.9487 11.9167C10.9487 11.3203 11.4249 10.8473 11.9995 10.8473C12.5742 10.8473 13.0504 11.3203 13.0504 11.9167Z" stroke="#e8eaed" ></path></svg><svg viewBox="0 0 24 24" fill="none" id="eye_off"><path d="M7.28571 11.5H1V12.475H7.28571V11.5Z" fill="#e8eaed" ></path><path d="M7.28571 11.5H1V12.5H7.28571V11.5Z" fill="#e8eaed" ></path><path d="M23.0001 11.5H16.7144V12.5H23.0001V11.5Z" fill="#e8eaed" ></path><path fill-rule="evenodd" clip-rule="evenodd" d="M10.4046 10.8097L9.58811 10.2157C9.21858 10.7144 9 11.3317 9 12C9 13.6569 10.3432 15 12 15C13.6568 15 15 13.6569 15 12C15 10.3431 13.6568 9 12 9C11.7253 9 11.4593 9.03691 11.2065 9.10606L11.6075 10.0394C11.7346 10.0135 11.866 10 12 10C13.0815 10 13.9846 10.881 13.9846 12C13.9846 13.119 13.0815 14 12 14C10.9185 14 10.0154 13.119 10.0154 12C10.0154 11.5511 10.1607 11.1405 10.4046 10.8097Z" fill="#e8eaed" ></path></svg><svg viewBox="0 -960 960 960" fill="#e8eaed" id="filter"><path d="M411.15-260v-60h137.31v60H411.15ZM256.16-450v-60h447.3v60h-447.3ZM140-640v-60h680v60H140Z" ></path></svg><svg viewBox="0 -960 960 960" fill="#e8eaed" id="filter_alt_off"><path d="M577.77-495.23 535-538l143-182H353l-60-60h446.61q18.85 0 27.35 16.62 8.5 16.61-3.04 32L577.77-495.23Zm214.38 412.3L540-335.08v119.69q0 15.08-10.16 25.23Q519.69-180 504.61-180h-49.22q-15.08 0-25.23-10.16Q420-200.31 420-215.39v-239.69L82.93-792.15l42.15-42.77 709.84 709.84-42.77 42.15ZM535-538Z" ></path></svg><svg viewBox="0 -960 960 960" fill="#e8eaed" id="folder-create"><path d="M570-330h60v-80h80v-60h-80v-80h-60v80h-80v60h80v80ZM172.31-180Q142-180 121-201q-21-21-21-51.31v-455.38Q100-738 121-759q21-21 51.31-21h219.61l80 80h315.77Q818-700 839-679q21 21 21 51.31v375.38Q860-222 839-201q-21 21-51.31 21H172.31Zm0-60h615.38q5.39 0 8.85-3.46t3.46-8.85v-375.38q0-5.39-3.46-8.85t-8.85-3.46H447.38l-80-80H172.31q-5.39 0-8.85 3.46t-3.46 8.85v455.38q0 5.39 3.46 8.85t8.85 3.46ZM160-240v-480 480Z" ></path></svg><svg viewBox="0 -960 960 960" fill="#e8eaed" id="folder-delete"><path d="M574.61-287.69h87.7q22.31 0 38.07-15.77 15.77-15.77 15.77-38.08v-170.77h36.16V-560h-96.16v-32.31h-75.38V-560h-96.15v47.69h36.15v170.77q0 22.31 15.77 38.08t38.07 15.77Zm-6.15-224.62h100v170.77q0 2.69-1.73 4.42-1.73 1.74-4.42 1.74h-87.7q-2.69 0-4.42-1.74-1.73-1.73-1.73-4.42v-170.77ZM172.31-180Q142-180 121-201q-21-21-21-51.31v-455.38Q100-738 121-759q21-21 51.31-21h219.61l80 80h315.77Q818-700 839-679q21 21 21 51.31v375.38Q860-222 839-201q-21 21-51.31 21H172.31Zm0-60h615.38q5.39 0 8.85-3.46t3.46-8.85v-375.38q0-5.39-3.46-8.85t-8.85-3.46H447.38l-80-80H172.31q-5.39 0-8.85 3.46t-3.46 8.85v455.38q0 5.39 3.46 8.85t8.85 3.46ZM160-240v-480 480Z" ></path></svg><svg viewBox="0 -960 960 960" fill="#e8eaed" id="folder-move"><path d="m511.85-410-70.77 70.77 42.15 42.15L626.15-440 483.23-582.92l-42.15 42.15L511.85-470h-178v60h178ZM172.31-180Q142-180 121-201q-21-21-21-51.31v-455.38Q100-738 121-759q21-21 51.31-21h219.61l80 80h315.77Q818-700 839-679q21 21 21 51.31v375.38Q860-222 839-201q-21 21-51.31 21H172.31Zm0-60h615.38q5.39 0 8.85-3.46t3.46-8.85v-375.38q0-5.39-3.46-8.85t-8.85-3.46H447.38l-80-80H172.31q-5.39 0-8.85 3.46t-3.46 8.85v455.38q0 5.39 3.46 8.85t8.85 3.46ZM160-240v-480 480Z" ></path></svg><svg viewBox="0 -960 960 960" fill="#e8eaed" id="folder"><path d="M172.31-180Q142-180 121-201q-21-21-21-51.31v-455.38Q100-738 121-759q21-21 51.31-21h219.61l80 80h315.77Q818-700 839-679q21 21 21 51.31v375.38Q860-222 839-201q-21 21-51.31 21H172.31Zm0-60h615.38q5.39 0 8.85-3.46t3.46-8.85v-375.38q0-5.39-3.46-8.85t-8.85-3.46H447.38l-80-80H172.31q-5.39 0-8.85 3.46t-3.46 8.85v455.38q0 5.39 3.46 8.85t8.85 3.46ZM160-240v-480 480Z" ></path></svg><svg viewBox="0 -960 960 960" fill="#e8eaed" id="gear"><path d="m387.69-100-15.23-121.85q-16.07-5.38-32.96-15.07-16.88-9.7-30.19-20.77L196.46-210l-92.3-160 97.61-73.77q-1.38-8.92-1.96-17.92-.58-9-.58-17.93 0-8.53.58-17.34t1.96-19.27L104.16-590l92.3-159.23 112.46 47.31q14.47-11.46 30.89-20.96t32.27-15.27L387.69-860h184.62l15.23 122.23q18 6.54 32.57 15.27 14.58 8.73 29.43 20.58l114-47.31L855.84-590l-99.15 74.92q2.15 9.69 2.35 18.12.19 8.42.19 16.96 0 8.15-.39 16.58-.38 8.42-2.76 19.27L854.46-370l-92.31 160-112.61-48.08q-14.85 11.85-30.31 20.96-15.46 9.12-31.69 14.89L572.31-100H387.69ZM440-160h78.62L533-267.15q30.62-8 55.96-22.73 25.35-14.74 48.89-37.89L737.23-286l39.39-68-86.77-65.38q5-15.54 6.8-30.47 1.81-14.92 1.81-30.15 0-15.62-1.81-30.15-1.8-14.54-6.8-29.7L777.38-606 738-674l-100.54 42.38q-20.08-21.46-48.11-37.92-28.04-16.46-56.73-23.31L520-800h-79.38l-13.24 106.77q-30.61 7.23-56.53 22.15-25.93 14.93-49.47 38.46L222-674l-39.38 68L269-541.62q-5 14.24-7 29.62t-2 32.38q0 15.62 2 30.62 2 15 6.62 29.62l-86 65.38L222-286l99-42q22.77 23.38 48.69 38.31 25.93 14.92 57.31 22.92L440-160Zm40.46-200q49.92 0 84.96-35.04 35.04-35.04 35.04-84.96 0-49.92-35.04-84.96Q530.38-600 480.46-600q-50.54 0-85.27 35.04T360.46-480q0 49.92 34.73 84.96Q429.92-360 480.46-360ZM480-480Z" ></path></svg><svg viewBox="0 -960 960 960" fill="#e8eaed" id="gift"><path d="M164.62-100v-435.39H100v-208.45h206.85q-8.46-9.77-11.5-22.01-3.04-12.23-3.04-25.69 0-44.87 31.41-76.28 31.41-31.41 76.28-31.41 23 0 42.62 9.65 19.61 9.66 35.07 25.81 15.46-16.77 35.08-26.11 19.61-9.35 42.61-9.35 44.88 0 76.29 31.41 31.41 31.41 31.41 76.28 0 13.31-3.35 25.31-3.35 12-11.19 22.39H860v208.45h-64.62V-100H164.62Zm390.76-739.23q-20.27 0-33.98 13.71-13.71 13.71-13.71 33.98 0 20.27 13.71 33.98 13.71 13.72 33.98 13.72 20.27 0 33.99-13.72 13.71-13.71 13.71-33.98 0-20.27-13.71-33.98-13.72-13.71-33.99-13.71Zm-203.07 47.69q0 20.27 13.71 33.98 13.71 13.72 33.98 13.72 20.27 0 33.98-13.72 13.71-13.71 13.71-33.98 0-20.27-13.71-33.98-13.71-13.71-33.98-13.71-20.27 0-33.98 13.71-13.71 13.71-13.71 33.98ZM160-683.85v88.47h290v-88.47H160ZM450-160v-375.39H224.61V-160H450Zm60 0h225.39v-375.39H510V-160Zm290-435.38v-88.47H510v88.47h290Z" ></path></svg><svg viewBox="0 -960 960 960" fill="#e8eaed" id="hourglass_empty"><path d="M316.15-160h327.7v-120q0-68.31-47.77-116.85-47.77-48.54-116.08-48.54t-116.08 48.54Q316.15-348.31 316.15-280v120ZM480-514.61q68.31 0 116.08-48.54 47.77-48.54 47.77-116.85v-120h-327.7v120q0 68.31 47.77 116.85 47.77 48.54 116.08 48.54ZM180-100v-60h76.16v-120q0-67.54 36.96-122.96 36.96-55.43 97.96-77.04-61-22-97.96-77.23-36.96-55.23-36.96-122.77v-120H180v-60h600v60h-76.16v120q0 67.54-36.96 122.77Q629.92-502 568.92-480q61 21.61 97.96 77.04 36.96 55.42 36.96 122.96v120H780v60H180Z" ></path></svg><svg viewBox="0 -960 960 960" fill="#e8eaed" id="hourglass_top"><path d="M316.15-160h327.7v-120q0-68.31-47.77-116.85-47.77-48.54-116.08-48.54t-116.08 48.54Q316.15-348.31 316.15-280v120ZM180-100v-60h76.16v-120q0-67.54 36.96-122.96 36.96-55.43 97.96-77.04-61-22-97.96-77.23-36.96-55.23-36.96-122.77v-120H180v-60h600v60h-76.16v120q0 67.54-36.96 122.77Q629.92-502 568.92-480q61 21.61 97.96 77.04 36.96 55.42 36.96 122.96v120H780v60H180Z" ></path></svg><svg viewBox="0 -960 960 960" fill="#e8eaed" id="info"><path d="M478-240q21 0 35.5-14.5T528-290q0-21-14.5-35.5T478-340q-21 0-35.5 14.5T428-290q0 21 14.5 35.5T478-240Zm-36-154h74q0-33 7.5-52t42.5-52q26-26 41-49.5t15-56.5q0-56-41-86t-97-30q-57 0-92.5 30T342-618l66 26q5-18 22.5-39t53.5-21q32 0 48 17.5t16 38.5q0 20-12 37.5T506-526q-44 39-54 59t-10 73Zm38 314q-83 0-156-31.5T197-197q-54-54-85.5-127T80-480q0-83 31.5-156T197-763q54-54 127-85.5T480-880q83 0 156 31.5T763-763q54 54 85.5 127T880-480q0 83-31.5 156T763-197q-54 54-127 85.5T480-80Z" ></path></svg><svg viewBox="0 -960 960 960" fill="#e8eaed" id="list"><path d="M293.08-597.69v-60H820v60H293.08Zm0 147.69v-60H820v60H293.08Zm0 147.69v-60H820v60H293.08ZM172.31-595.38q-13.73 0-23.02-9.4t-9.29-23.3q0-13.56 9.29-22.74 9.29-9.18 23.02-9.18t23.02 9.18q9.29 9.18 9.29 22.74 0 13.9-9.29 23.3t-23.02 9.4Zm0 147.3q-13.73 0-23.02-9.18Q140-466.43 140-480q0-14.31 9.29-23.5t23.02-9.19q13.73 0 23.02 9.19t9.29 23.5q0 13.57-9.29 22.74-9.29 9.18-23.02 9.18Zm0 148.08q-13.73 0-23.02-9.4T140-332.69q0-13.57 9.29-22.75t23.02-9.18q13.73 0 23.02 9.18t9.29 22.75q0 13.89-9.29 23.29-9.29 9.4-23.02 9.4Z" ></path></svg><svg viewBox="0 -960 960 960" fill="#e8eaed" id="list_alt"><path d="M322.33-289.23q15.05 0 25.21-10.18 10.15-10.18 10.15-25.23t-10.18-25.21Q337.33-360 322.28-360t-25.2 10.18q-10.16 10.18-10.16 25.23t10.18 25.2q10.19 10.16 25.23 10.16Zm0-155.39q15.05 0 25.21-10.18 10.15-10.18 10.15-25.23t-10.18-25.2q-10.18-10.15-25.23-10.15t-25.2 10.18q-10.16 10.18-10.16 25.23t10.18 25.2q10.19 10.15 25.23 10.15Zm0-155.38q15.05 0 25.21-10.18 10.15-10.18 10.15-25.23t-10.18-25.2q-10.18-10.16-25.23-10.16t-25.2 10.18q-10.16 10.18-10.16 25.23t10.18 25.21Q307.29-600 322.33-600Zm121.52 305.38h227.69v-59.99H443.85v59.99Zm0-155.38h227.69v-60H443.85v60Zm0-155.39h227.69v-59.99H443.85v59.99ZM212.31-140Q182-140 161-161q-21-21-21-51.31v-535.38Q140-778 161-799q21-21 51.31-21h535.38Q778-820 799-799q21 21 21 51.31v535.38Q820-182 799-161q-21 21-51.31 21H212.31Zm0-60h535.38q4.62 0 8.46-3.85 3.85-3.84 3.85-8.46v-535.38q0-4.62-3.85-8.46-3.84-3.85-8.46-3.85H212.31q-4.62 0-8.46 3.85-3.85 3.84-3.85 8.46v535.38q0 4.62 3.85 8.46 3.84 3.85 8.46 3.85ZM200-760v560-560Z" ></path></svg><svg viewBox="0 -960 960 960" fill="#e8eaed" id="logout"><path d="M212.31-140Q182-140 161-161q-21-21-21-51.31v-535.38Q140-778 161-799q21-21 51.31-21h268.07v60H212.31q-4.62 0-8.46 3.85-3.85 3.84-3.85 8.46v535.38q0 4.62 3.85 8.46 3.84 3.85 8.46 3.85h268.07v60H212.31Zm436.92-169.23-41.54-43.39L705.08-450H363.85v-60h341.23l-97.39-97.38 41.54-43.39L820-480 649.23-309.23Z" ></path></svg><svg viewBox="0 -960 960 960" fill="#e8eaed" id="match_case"><path d="m146.77-262.77 157.69-424.61h61.31l158.84 424.61h-60.23l-40.15-115.08H246.62l-40.39 115.08h-59.46ZM265-428h140.62l-69-195.46h-3.24L265-428Zm390.38 174.85q-48.69 0-77.73-26.54-29.04-26.54-29.04-68.46 0-43.24 33.93-70.39 33.92-27.15 87.15-27.15 22.23 0 44.23 4.19 22 4.19 38.39 11.58v-17.77q0-34-20.12-53.16Q712.08-520 676.15-520q-21.84 0-40.27 8.34-18.42 8.35-34.34 24.81l-36.23-28.84q23.23-24.77 50.46-36.46 27.23-11.7 61-11.7 63.23 0 94.15 30.96 30.92 30.97 30.92 92.89v177.23h-49.53v-38.92h-4q-14.77 24.15-38.58 36.34-23.81 12.2-54.35 12.2Zm7.39-43.23q40.38 0 65.27-26.7 24.88-26.69 24.88-64.84-14-8-34.46-12.5t-40.23-4.5q-35.85 0-56.54 15.15Q601-374.62 601-348.15q0 22.3 17.34 37.03 17.35 14.74 44.43 14.74Z" ></path></svg><svg viewBox="0 -960 960 960" fill="#e8eaed" id="menu"><path d="M140-254.62v-59.99h680v59.99H140ZM140-450v-60h680v60H140Zm0-195.39v-59.99h680v59.99H140Z" ></path></svg><svg viewBox="0 -960 960 960" fill="#e8eaed" id="monitoring"><path d="M130-130v-65.77l60-60V-130h-60Zm160 0v-225.77l60-60V-130h-60Zm160 0v-285.77l60 61V-130h-60Zm160 0v-224.77l60-60V-130h-60Zm160 0v-385.77l60-60V-130h-60ZM130-351.23v-84.54l270-270 160 160 270-270v84.54l-270 270-160-160-270 270Z" ></path></svg><svg viewBox="0 -960 960 960" fill="#e8eaed" id="more_h"><path d="M249.23-420q-24.75 0-42.37-17.63-17.63-17.62-17.63-42.37 0-24.75 17.63-42.37Q224.48-540 249.23-540q24.75 0 42.38 17.63 17.62 17.62 17.62 42.37 0 24.75-17.62 42.37Q273.98-420 249.23-420ZM480-420q-24.75 0-42.37-17.63Q420-455.25 420-480q0-24.75 17.63-42.37Q455.25-540 480-540q24.75 0 42.37 17.63Q540-504.75 540-480q0 24.75-17.63 42.37Q504.75-420 480-420Zm230.77 0q-24.75 0-42.38-17.63-17.62-17.62-17.62-42.37 0-24.75 17.62-42.37Q686.02-540 710.77-540q24.75 0 42.37 17.63 17.63 17.62 17.63 42.37 0 24.75-17.63 42.37Q735.52-420 710.77-420Z" ></path></svg><svg viewBox="0 -960 960 960" fill="#e8eaed" id="move-group"><path d="M322.31-260Q292-260 271-281q-21-21-21-51.31v-70h60v70q0 4.62 3.85 8.46 3.84 3.85 8.46 3.85h455.38q4.62 0 8.46-3.85 3.85-3.84 3.85-8.46V-720H310v82.31h-60v-150Q250-818 271-839q21-21 51.31-21h455.38Q808-860 829-839q21 21 21 51.31v455.38Q850-302 829-281q-21 21-51.31 21H322.31Zm-140 140Q152-120 131-141q-21-21-21-51.31v-515.38h60v515.38q0 4.62 3.85 8.46 3.84 3.85 8.46 3.85h515.38v60H182.31Zm326.15-246.54-41.77-41.77L547-490H250v-60h297l-80.31-81.69 41.77-41.77L661.92-520 508.46-366.54Z" ></path></svg><svg viewBox="0 -960 960 960" fill="#e8eaed" id="move-item"><path d="M814.85-450H343.08v-60h471.77l-72.77-72.77 42.15-43.38L930.38-480 784.23-333.85l-42.15-43.38L814.85-450ZM608.08-605.39v-142.3q0-5.39-3.46-8.85-3.47-3.46-8.85-3.46H212.31q-5.39 0-8.85 3.46t-3.46 8.85v535.38q0 5.39 3.46 8.85t8.85 3.46h383.46q5.38 0 8.85-3.46 3.46-3.46 3.46-8.85v-142.3h60v142.3q0 29.92-21.2 51.12Q625.69-140 595.77-140H212.31q-29.92 0-51.12-21.19Q140-182.39 140-212.31v-535.38q0-29.92 21.19-51.12Q182.39-820 212.31-820h383.46q29.92 0 51.11 21.19 21.2 21.2 21.2 51.12v142.3h-60Z" ></path></svg><svg viewBox="0 -960 960 960" fill="#e8eaed" id="newsstand"><path d="M90-172.31v-60h780v60H90Zm86.92-155.38v-300h60v300h-60Zm155.39 0v-460h60v460h-60Zm155.38 0v-460h60v460h-60Zm266.16 0L603.85-590l52.3-30 150 262.31-52.3 30Z" ></path></svg><svg viewBox="0 0 24 24" fill="none" id="ok"><path d="M12 4.9165C10.2528 4.9165 8.8125 6.33317 8.8125 8.10401C8.8125 9.85122 10.2292 11.2915 12 11.2915C13.7708 11.2915 15.1875 9.87486 15.1875 8.10401C15.1875 6.33317 13.7472 4.9165 12 4.9165ZM12 9.1665C11.4097 9.1665 10.9375 8.69428 10.9375 8.10401C10.9375 7.51372 11.4097 7.04151 12 7.04151C12.5903 7.04151 13.0625 7.51372 13.0625 8.10401C13.0625 8.69428 12.5903 9.1665 12 9.1665Z" fill="white" ></path><path d="M15.9195 13.4398C15.1167 13.8884 14.2431 14.1954 13.3695 14.3371L15.8487 17.3828C16.132 17.7371 16.2028 18.2329 15.9431 18.6107C15.5417 19.2245 14.6917 19.2482 14.2667 18.7051L11.9764 15.8954L9.70973 18.7051C9.49729 18.9648 9.21391 19.0828 8.90697 19.0828C8.60003 19.0828 8.29309 18.9412 8.08058 18.6579C7.82087 18.3037 7.84448 17.7134 8.12781 17.3593L10.5833 14.2899C9.70973 14.1245 8.83615 13.8412 8.05697 13.3926C7.56114 13.1092 7.39586 12.4954 7.6792 11.9759C7.96253 11.4801 8.60003 11.3148 9.09586 11.5981C10.8904 12.6134 13.1334 12.6134 14.9514 11.6218C15.4472 11.3384 16.0848 11.5273 16.3445 12.0232C16.6042 12.5426 16.4153 13.1565 15.9195 13.4398Z" fill="white" ></path></svg><svg viewBox="0 -960 960 960" fill="#e8eaed" id="pdf"><path d="M353.08-462.31h35.38v-80h44.62q15.07 0 25.23-10.15 10.15-10.16 10.15-25.23v-44.62q0-15.07-10.15-25.23-10.16-10.15-25.23-10.15h-80v195.38Zm35.38-115.38v-44.62h44.62v44.62h-44.62Zm120.77 115.38h78.46q15.08 0 25.23-10.15 10.16-10.16 10.16-25.23v-124.62q0-15.07-10.16-25.23-10.15-10.15-25.23-10.15h-78.46v195.38Zm35.38-35.38v-124.62h43.08v124.62h-43.08Zm123.08 35.38h35.39v-80h47.69v-35.38h-47.69v-44.62h47.69v-35.38h-83.08v195.38ZM322.31-260Q292-260 271-281q-21-21-21-51.31v-455.38Q250-818 271-839q21-21 51.31-21h455.38Q808-860 829-839q21 21 21 51.31v455.38Q850-302 829-281q-21 21-51.31 21H322.31Zm0-60h455.38q4.62 0 8.46-3.85 3.85-3.84 3.85-8.46v-455.38q0-4.62-3.85-8.46-3.84-3.85-8.46-3.85H322.31q-4.62 0-8.46 3.85-3.85 3.84-3.85 8.46v455.38q0 4.62 3.85 8.46 3.84 3.85 8.46 3.85Zm-140 200Q152-120 131-141q-21-21-21-51.31v-515.38h60v515.38q0 4.62 3.85 8.46 3.84 3.85 8.46 3.85h515.38v60H182.31ZM310-800v480-480Z" ></path></svg><svg viewBox="0 -960 960 960" fill="#e8eaed" id="person"><path d="M480-492.31q-57.75 0-98.87-41.12Q340-574.56 340-632.31q0-57.75 41.13-98.87 41.12-41.13 98.87-41.13 57.75 0 98.87 41.13Q620-690.06 620-632.31q0 57.75-41.13 98.88-41.12 41.12-98.87 41.12ZM180-187.69v-88.93q0-29.38 15.96-54.42 15.96-25.04 42.66-38.5 59.3-29.07 119.65-43.61 60.35-14.54 121.73-14.54t121.73 14.54q60.35 14.54 119.65 43.61 26.7 13.46 42.66 38.5Q780-306 780-276.62v88.93H180Zm60-60h480v-28.93q0-12.15-7.04-22.5-7.04-10.34-19.11-16.88-51.7-25.46-105.42-38.58Q534.7-367.69 480-367.69q-54.7 0-108.43 13.11-53.72 13.12-105.42 38.58-12.07 6.54-19.11 16.88-7.04 10.35-7.04 22.5v28.93Zm240-304.62q33 0 56.5-23.5t23.5-56.5q0-33-23.5-56.5t-56.5-23.5q-33 0-56.5 23.5t-23.5 56.5q0 33 23.5 56.5t56.5 23.5Zm0-80Zm0 384.62Z" ></path></svg><svg viewBox="0 -960 960 960" fill="#e8eaed" id="play"><path d="M340-236.16v-487.68L723.07-480 340-236.16ZM400-480Zm0 134 210.77-134L400-614v268Z" ></path></svg><svg viewBox="0 -960 960 960" fill="#e8eaed" id="play_filled"><path d="M340-236.16v-487.68L723.07-480 340-236.16Z" ></path></svg><svg viewBox="0 -960 960 960" fill="#e8eaed" id="print"><path d="M640-627.69v-120H320v120h-60v-180h440v180h-60Zm-468.46 60h616.92H171.54Zm540.77 100q17 0 28.5-11.5t11.5-28.5q0-17-11.5-28.5t-28.5-11.5q-17 0-28.5 11.5t-11.5 28.5q0 17 11.5 28.5t28.5 11.5ZM640-200v-170.77H320V-200h320Zm60 60H260v-160H111.54v-227.69q0-42.5 29.04-71.25t70.96-28.75h536.92q42.5 0 71.25 28.75t28.75 71.25V-300H700v160Zm88.46-220v-167.69q0-17-11.5-28.5t-28.5-11.5H211.54q-17 0-28.5 11.5t-11.5 28.5V-360H260v-70.77h440V-360h88.46Z" ></path></svg><svg viewBox="0 -960 960 960" fill="#e8eaed" id="progress_activity"><path d="M479.88-100q-78.03 0-147.33-29.9-69.29-29.9-121.02-81.63-51.73-51.73-81.63-121.02-29.9-69.3-29.9-147.33 0-78.98 29.96-147.97 29.96-69 81.58-120.61 51.61-51.62 121.04-81.58T480-860q12.75 0 21.37 8.63 8.63 8.63 8.63 21.38 0 12.76-8.63 21.37Q492.75-800 480-800q-133 0-226.5 93.5T160-480q0 133 93.5 226.5T480-160q133 0 226.5-93.5T800-480q0-12.77 8.63-21.38 8.63-8.62 21.38-8.62 12.76 0 21.37 8.63Q860-492.75 860-480q0 77.99-29.96 147.42-29.96 69.43-81.58 121.04-51.61 51.62-120.61 81.58Q558.86-100 479.88-100Z" ></path></svg><svg fill="none" id="quote" viewBox="0 0 800 800"><defs></defs><path fill="#4B4B4B" d="M359.075 212.25L338.75 181C198.125 275.525 120 390.375 120 484.9c0 91.4 67.2 134.375 124.225 134.375 71.875 0 122.65-60.95 122.65-125 0-53.9-34.375-100-80.475-117.2-13.275-4.7-25.775-8.6-25.775-31.25 0-28.9 21.1-71.85 98.45-133.575zm310.15 0L648.9 181c-139.075 94.525-218.75 209.375-218.75 303.9 0 91.4 68.75 134.375 125.775 134.375 72.65 0 124.225-60.95 124.225-125 0-53.9-35.15-100-82.825-117.2-13.275-4.7-25-8.6-25-31.25 0-28.9 21.875-71.875 96.875-133.6l.025.025z"></path></svg><svg viewBox="0 -960 960 960" fill="#e8eaed" id="read"><path d="M260-319.23q49.69 0 96.69 11.27T450-272.61v-393.24q-42.15-27.46-91.23-41.19-49.08-13.73-98.77-13.73-36 0-67.27 5.65-31.27 5.66-64.27 18.5-4.61 1.54-6.54 4.43-1.92 2.88-1.92 6.34v378.31q0 5.39 3.85 7.89 3.84 2.5 8.46.57 28.46-9.69 60.07-14.92 31.62-5.23 67.62-5.23Zm250 46.62q46.31-24.08 93.31-35.35 47-11.27 96.69-11.27 36 0 67.62 5.23 31.61 5.23 60.07 14.92 4.62 1.93 8.46-.57 3.85-2.5 3.85-7.89v-378.31q0-3.46-1.92-6.15-1.93-2.69-6.54-4.62-33-12.84-64.27-18.5-31.27-5.65-67.27-5.65-49.69 0-98.77 13.73T510-665.85v393.24Zm-30 87.99q-48.38-35.69-104.38-55.15-56-19.46-115.62-19.46-36.61 0-71.92 8.11Q152.77-243 120-227.23q-21.38 9.84-40.69-3.12T60-267.08v-434.3q0-12.93 6.66-24.27Q73.31-737 85.85-742q40.61-19.77 84.65-29.27 44.04-9.5 89.5-9.5 58.38 0 114.08 15.96 55.69 15.97 105.92 47.12 50.23-31.15 105.92-47.12 55.7-15.96 114.08-15.96 45.46 0 89.5 9.5T874.15-742q12.54 5 19.19 16.35 6.66 11.34 6.66 24.27v434.3q0 23.77-20.08 36.35-20.08 12.57-42.23 2.73-32.38-15.39-67.11-23.31-34.73-7.92-70.58-7.92-59.62 0-115.62 19.46-56 19.46-104.38 55.15ZM285-496.69Z" ></path></svg><svg viewBox="0 -960 960 960" fill="#e8eaed" id="remove"><path d="M220-450v-60h520v60H220Z" ></path></svg><svg viewBox="0 -960 960 960" fill="#e8eaed" id="rss"><path d="M200-120q-33 0-56.5-23.5T120-200q0-33 23.5-56.5T200-280q33 0 56.5 23.5T280-200q0 33-23.5 56.5T200-120Zm480 0q0-117-44-218.5T516-516q-76-76-177.5-120T120-680v-120q142 0 265 53t216 146q93 93 146 216t53 265H680Zm-240 0q0-67-25-124.5T346-346q-44-44-101.5-69T120-440v-120q92 0 171.5 34.5T431-431q60 60 94.5 139.5T560-120H440Z" ></path></svg><svg viewBox="0 -960 960 960" fill="#e8eaed" id="send"><path d="M140-190v-580l688.46 290L140-190Zm60-90 474-200-474-200v147.69L416.92-480 200-427.69V-280Zm0 0v-400 400Z" ></path></svg><svg viewBox="0 -960 960 960" fill="#e8eaed" id="share"><path d="M672.22-100q-44.91 0-76.26-31.41-31.34-31.41-31.34-76.28 0-6 4.15-29.16L284.31-404.31q-14.46 15-34.36 23.5t-42.64 8.5q-44.71 0-76.01-31.54Q100-435.39 100-480q0-44.61 31.3-76.15 31.3-31.54 76.01-31.54 22.74 0 42.64 8.5 19.9 8.5 34.36 23.5l284.46-167.08q-2.38-7.38-3.27-14.46-.88-7.08-.88-15.08 0-44.87 31.43-76.28Q627.49-860 672.4-860t76.25 31.44Q780-797.13 780-752.22q0 44.91-31.41 76.26-31.41 31.34-76.28 31.34-22.85 0-42.5-8.69Q610.15-662 595.69-677L311.23-509.54q2.38 7.39 3.27 14.46.88 7.08.88 15.08t-.88 15.08q-.89 7.07-3.27 14.46L595.69-283q14.46-15 34.12-23.69 19.65-8.69 42.5-8.69 44.87 0 76.28 31.43Q780-252.51 780-207.6t-31.44 76.25Q717.13-100 672.22-100Zm.09-60q20.27 0 33.98-13.71Q720-187.42 720-207.69q0-20.27-13.71-33.98-13.71-13.72-33.98-13.72-20.27 0-33.98 13.72-13.72 13.71-13.72 33.98 0 20.27 13.72 33.98Q652.04-160 672.31-160Zm-465-272.31q20.43 0 34.25-13.71 13.83-13.71 13.83-33.98 0-20.27-13.83-33.98-13.82-13.71-34.25-13.71-20.11 0-33.71 13.71Q160-500.27 160-480q0 20.27 13.6 33.98 13.6 13.71 33.71 13.71Zm465-272.3q20.27 0 33.98-13.72Q720-732.04 720-752.31q0-20.27-13.71-33.98Q692.58-800 672.31-800q-20.27 0-33.98 13.71-13.72 13.71-13.72 33.98 0 20.27 13.72 33.98 13.71 13.72 33.98 13.72Zm0 496.92ZM207.69-480Zm464.62-272.31Z" ></path></svg><svg viewBox="0 -960 960 960" fill="#e8eaed" id="share_off"><path d="M672.31-160q20.27 0 33.98-13.71Q720-187.42 720-207.69q0-20.27-13.71-33.98-13.71-13.72-33.98-13.72-20.27 0-33.98 13.72-13.72 13.71-13.72 33.98 0 20.27 13.72 33.98Q652.04-160 672.31-160Zm0-544.61q20.27 0 33.98-13.72Q720-732.04 720-752.31q0-20.27-13.71-33.98Q692.58-800 672.31-800q-20.27 0-33.98 13.71-13.72 13.71-13.72 33.98 0 20.27 13.72 33.98 13.71 13.72 33.98 13.72ZM100-471.15V-480q0-44.61 31.3-76.15 31.3-31.54 76.01-31.54 22.74 0 42.64 8.5 19.9 8.5 34.36 23.5l284.46-167.08q-2.38-7.38-3.27-14.46-.88-7.08-.88-15.08 0-44.87 31.43-76.28Q627.49-860 672.4-860t76.25 31.44Q780-797.13 780-752.22q0 44.91-31.41 76.26-31.41 31.34-76.28 31.34-22.85 0-42.5-8.69Q610.15-662 595.69-677L308-507.85q-14.69-3.42-29.77-5.48-15.07-2.05-30.54-2.05-41.15 0-78.57 11.46-37.43 11.46-69.12 32.77ZM672.22-100q-44.91 0-76.26-31.41-31.34-31.41-31.34-76.28 0-6 4.15-29.16l-54.16-32.54q-2-18.61-5.68-35.94-3.68-17.34-10.31-34.28L595.69-283q14.46-15 34.12-23.69 19.65-8.69 42.5-8.69 44.87 0 76.28 31.43Q780-252.51 780-207.6t-31.44 76.25Q717.13-100 672.22-100ZM247.69-67.69q-74.92 0-127.46-52.54-52.54-52.54-52.54-127.46 0-74.93 52.54-127.46 52.54-52.54 127.46-52.54 74.93 0 127.46 52.54 52.54 52.53 52.54 127.46 0 74.92-52.54 127.46-52.53 52.54-127.46 52.54Zm0-155.08 70 70.62 25.54-24.93-70.61-70.61 70.61-70.62-24.92-24.92-70.62 70.61-70.61-70.61-24.93 24.92 70.62 70.62-70.62 70.61 24.93 24.93 70.61-70.62Zm424.62 15.08Zm0-544.62Z" ></path></svg><svg viewBox="0 -960 960 960" fill="#e8eaed" id="shopping_basket"><path d="M220.62-140q-19.62 0-35.35-11.42-15.73-11.43-20.73-30.66L63.77-543.54q-4-13.61 4.44-25.04Q76.65-580 91.62-580h197.85l166.07-245q5-6.38 10.81-9.5 5.8-3.11 13.42-3.11 7.61 0 13.42 3.31Q499-831 504-824.61L668.77-580H869q14.96 0 23.6 11.42 8.63 11.43 4.63 25.04L794.69-182.08q-5 19.23-20.73 30.66Q758.23-140 739-140H220.62Zm-1.54-45.39h521.84q4.23 0 7.31-2.5 3.08-2.5 4.23-6.73l95.23-339.99H112.92l94.62 339.99q1.15 4.23 4.23 6.73 3.08 2.5 7.31 2.5Zm261.16-129.23q18.61 0 31.87-13.5 13.27-13.51 13.27-32.12t-13.5-31.87q-13.51-13.27-32.12-13.27t-31.87 13.5q-13.27 13.51-13.27 32.12t13.5 31.87q13.51 13.27 32.12 13.27ZM344.69-580h268.77L479.38-780 344.69-580Zm135.93 220Z" ></path></svg><svg viewBox="0 -960 960 960" fill="#e8eaed" id="sort"><path d="M140-260v-60h215v60H140Zm0-190v-60h447.31v60H140Zm0-190v-60h680v60H140Z" ></path></svg><svg viewBox="0 -960 960 960" fill="#e8eaed" id="sort_by_alpha"><path d="m92.31-288.46 149.23-383.08h63.69l148.46 383.08h-63.54l-34.76-95.23H190.61l-35.07 95.23H92.31Zm116.92-147.08h125.54l-59.54-166.92H270l-60.77 166.92Zm347.23 147.08v-56.77l205.08-272H564.46v-54.31h265.08v56.77l-203.85 272h205.85v54.31H556.46ZM369.23-763.85 480-874.61l110.77 110.76H369.23ZM480-85.39 369.23-196.15h221.54L480-85.39Z" ></path></svg><svg viewBox="0 0 24 24" fill="none" id="tg"><path d="M17.1971 6.70442L5.71235 11.0925C5.24463 11.2788 5.18759 11.8407 5.66387 12.0016L8.57284 13.0182L15.3947 8.75159C15.4217 8.73638 15.4534 8.7314 15.4839 8.73756C15.5143 8.74373 15.5414 8.76064 15.5602 8.78513C15.579 8.80963 15.5883 8.84005 15.5862 8.87076C15.584 8.90144 15.5707 8.93033 15.5486 8.95211L10.1814 13.727L9.81914 16.5506C9.81309 16.5941 9.82109 16.6383 9.84189 16.6771C9.86269 16.7158 9.89532 16.747 9.93505 16.7664C9.97478 16.7858 10.0198 16.7923 10.0634 16.785C10.1071 16.7777 10.1473 16.7569 10.1785 16.7257L11.8896 15.0485L14.7644 17.2594C14.852 17.3041 14.9486 17.3292 15.0471 17.3327C15.1456 17.3363 15.2438 17.3183 15.3344 17.28C15.4252 17.2417 15.5062 17.184 15.5718 17.1112C15.6374 17.0383 15.6861 16.952 15.7141 16.8584L17.7675 7.15903C17.7842 7.08538 17.7798 7.00855 17.7547 6.93727C17.7295 6.86598 17.6847 6.8031 17.6254 6.75576C17.566 6.70842 17.4943 6.67851 17.4186 6.66943C17.343 6.66036 17.2662 6.67248 17.1971 6.70442Z" fill="white" ></path></svg><svg viewBox="0 -960 960 960" fill="#e8eaed" id="thumb_up"><path d="M709.23-140H288.46v-480l265.39-263.84L587.69-850q6.23 6.23 10.35 16.5 4.11 10.27 4.11 19.35V-804l-42.46 184h268q28.54 0 50.42 21.89Q900-576.23 900-547.69v64.61q0 6.23-1.62 13.46-1.61 7.23-3.61 13.47L780.15-185.69q-8.61 19.23-28.84 32.46T709.23-140Zm-360.77-60h360.77q4.23 0 8.65-2.31 4.43-2.31 6.74-7.69L840-480v-67.69q0-5.39-3.46-8.85t-8.85-3.46H483.85L534-779.23 348.46-594.46V-200Zm0-394.46V-200v-394.46Zm-60-25.54v60H160v360h128.46v60H100v-480h188.46Z" ></path></svg><svg viewBox="0 -960 960 960" fill="#e8eaed" id="tune"><path d="M450-130v-220h60v80h320v60H510v80h-60Zm-320-80v-60h220v60H130Zm160-160v-80H130v-60h160v-80h60v220h-60Zm160-80v-60h380v60H450Zm160-160v-220h60v80h160v60H670v80h-60Zm-480-80v-60h380v60H130Z" ></path></svg><svg viewBox="0 -960 960 960" fill="#e3e3e3" id="upload"><path d="M450-328.46v-336l-98.61 98.61-42.16-43.38L480-780l170.77 170.77-42.16 43.38L510-664.46v336h-60ZM252.31-180Q222-180 201-201q-21-21-21-51.31v-108.46h60v108.46q0 4.62 3.85 8.46 3.84 3.85 8.46 3.85h455.38q4.62 0 8.46-3.85 3.85-3.84 3.85-8.46v-108.46h60v108.46Q780-222 759-201q-21 21-51.31 21H252.31Z"></path></svg><svg viewBox="0 -960 960 960" fill="#e8eaed" id="view_grid"><path d="M140-520v-300h300v300H140Zm0 380v-300h300v300H140Zm380-380v-300h300v300H520Zm0 380v-300h300v300H520ZM200-580h180v-180H200v180Zm380 0h180v-180H580v180Zm0 380h180v-180H580v180Zm-380 0h180v-180H200v180Zm380-380Zm0 200Zm-200 0Zm0-200Z" ></path></svg><svg viewBox="0 -960 960 960" fill="#e8eaed" id="view_list"><path d="M350-240h437.69q4.62 0 8.46-3.85 3.85-3.84 3.85-8.46V-357H350v117ZM160-603h130v-117H172.31q-4.62 0-8.46 3.85-3.85 3.84-3.85 8.46V-603Zm0 187h130v-127H160v127Zm12.31 176H290v-117H160v104.69q0 4.62 3.85 8.46 3.84 3.85 8.46 3.85ZM350-416h450v-127H350v127Zm0-187h450v-104.69q0-4.62-3.85-8.46-3.84-3.85-8.46-3.85H350v117ZM172.31-180Q142-180 121-201q-21-21-21-51.31v-455.38Q100-738 121-759q21-21 51.31-21h615.38Q818-780 839-759q21 21 21 51.31v455.38Q860-222 839-201q-21 21-51.31 21H172.31Z" ></path></svg><svg viewBox="0 0 24 24" fill="none" id="vk"><path d="M5.56283 8.43527H7.77032C7.81647 8.4352 7.86154 8.44939 7.89954 8.47596C7.93754 8.50253 7.96666 8.54022 7.98302 8.58399C8.22734 9.22258 9.24199 11.7217 10.1703 11.9258C10.8602 11.9258 10.6159 8.6015 9.73923 8.6015C9.50928 8.6015 10.1474 8.18741 10.1905 8.16991C11.0052 7.94336 11.865 7.94336 12.6797 8.16991C13.1194 8.35654 13.1942 8.87852 13.2056 9.32178C13.2172 9.76498 12.717 11.6546 13.3752 11.8588C14.2375 12.127 15.3471 9.38303 15.6057 8.70939C15.6225 8.66615 15.6519 8.62909 15.6898 8.60307C15.7278 8.57704 15.7727 8.56328 15.8184 8.56359H18.276C18.314 8.56346 18.3514 8.57289 18.3849 8.59102C18.4184 8.60914 18.447 8.63541 18.468 8.66747C18.4891 8.69952 18.502 8.73638 18.5056 8.77473C18.5092 8.81309 18.5034 8.85174 18.4887 8.88726C17.9824 10.0588 17.3756 11.1829 16.675 12.2466C16.6154 12.3343 16.5875 12.4403 16.5959 12.5465C16.6042 12.6527 16.6484 12.7527 16.721 12.8298C17.4568 13.6288 19.4688 15.8916 18.3191 15.8916H15.8385C15.7744 15.8918 15.7111 15.8781 15.6526 15.8515C15.5941 15.8248 15.5419 15.7859 15.4994 15.7372C15.1143 15.3055 13.9933 14.1041 13.4873 14.2004C13.0677 14.2791 13.0275 15.0022 13.0476 15.4747C13.0539 15.5965 13.0129 15.7161 12.9335 15.8076C12.8539 15.8993 12.7422 15.9556 12.6222 15.9645C12.1824 15.9908 11.5817 16.0025 11.5271 15.9996C9.77372 15.8859 8.7361 14.699 7.74445 13.3751C6.7057 11.9716 5.89541 10.4081 5.34438 8.74438C5.33312 8.70918 5.33017 8.67178 5.33577 8.6352C5.34137 8.59863 5.35536 8.5639 5.37662 8.53382C5.39787 8.50374 5.4258 8.47916 5.45815 8.46204C5.4905 8.44492 5.52635 8.43575 5.56283 8.43527Z" fill="white" ></path></svg><svg viewBox="0 -960 960 960" fill="#e8eaed" id="warning"><path d="M74.62-140 480-840l405.38 700H74.62ZM178-200h604L480-720 178-200Zm302-47.69q13.73 0 23.02-9.29t9.29-23.02q0-13.73-9.29-23.02T480-312.31q-13.73 0-23.02 9.29T447.69-280q0 13.73 9.29 23.02t23.02 9.29Zm-30-104.62h60v-200h-60v200ZM480-460Z"></path></svg></svg>