<svg xmlns="http://www.w3.org/2000/svg" width="24" height="24" fill="#e8eaed" viewBox="0 -960 960 960"><path d="M350-240h437.69q4.62 0 8.46-3.85 3.85-3.84 3.85-8.46V-357H350zM160-603h130v-117H172.31q-4.62 0-8.46 3.85-3.85 3.84-3.85 8.46zm0 187h130v-127H160zm12.31 176H290v-117H160v104.69q0 4.62 3.85 8.46 3.84 3.85 8.46 3.85M350-416h450v-127H350zm0-187h450v-104.69q0-4.62-3.85-8.46-3.84-3.85-8.46-3.85H350zM172.31-180Q142-180 121-201t-21-51.31v-455.38Q100-738 121-759t51.31-21h615.38Q818-780 839-759t21 51.31v455.38Q860-222 839-201t-51.31 21z"/></svg>