<svg xmlns="http://www.w3.org/2000/svg" width="24" height="24" fill="none"><path fill="#fff" d="M5.563 8.435H7.77a.225.225 0 0 1 .213.149c.244.639 1.259 3.138 2.187 3.342.69 0 .446-3.325-.43-3.325-.23 0 .407-.414.45-.431a4.64 4.64 0 0 1 2.49 0c.44.187.514.709.526 1.152.011.443-.489 2.333.17 2.537.862.268 1.971-2.476 2.23-3.15a.23.23 0 0 1 .212-.145h2.458a.23.23 0 0 1 .192.103.24.24 0 0 1 .02.22 22 22 0 0 1-1.813 3.36.47.47 0 0 0 .046.583c.736.799 2.748 3.062 1.598 3.062h-2.48a.45.45 0 0 1-.34-.155c-.385-.431-1.506-1.633-2.012-1.537-.42.08-.46.802-.44 1.275a.47.47 0 0 1-.114.333.46.46 0 0 1-.31.156c-.44.027-1.041.039-1.096.036-1.753-.114-2.79-1.301-3.783-2.625a16.5 16.5 0 0 1-2.4-4.63.24.24 0 0 1 .114-.283.23.23 0 0 1 .105-.027"/></svg>