<svg id="self" preserveAspectRatio="xMidYMid meet" viewBox="0 0 173 153" fill="none" xmlns="http://www.w3.org/2000/svg">
	<path fill-rule="evenodd" clip-rule="evenodd" d="M124.968 39.0309H48.9094V37.631C48.9094 35.0751 46.8285 33 44.2637 33C41.6988 33 39.618 35.0751 39.618 37.631V39.0309H35.0804C34.484 39.0309 34 39.5132 34 40.1079V93.5243C34 94.1191 34.484 94.6013 35.0804 94.6013H65.2383V102.14C65.2383 102.735 65.7223 103.217 66.3187 103.217H70.208V111.402H45.8843C45.2878 111.402 44.8039 111.884 44.8039 112.479V118.295C44.8039 118.889 45.2878 119.372 45.8843 119.372H127.993C128.59 119.372 129.074 118.889 129.074 118.295V112.479C129.074 111.884 128.59 111.402 127.993 111.402H86.4139V99.6287L93.2959 94.6013H138.798C139.395 94.6013 139.878 94.1191 139.878 93.5243V40.1079C139.878 39.5132 139.395 39.0309 138.798 39.0309H134.26V37.631C134.26 35.0751 132.179 33 129.613 33C127.049 33 124.968 35.0751 124.968 37.631V39.0309ZM46.9647 113.556H126.912V117.218H46.9647V113.556ZM97.7471 86.8105L96.9735 85.7572L90.5755 90.3103C90.4374 90.4089 90.278 90.4736 90.1101 90.4989C89.9422 90.5242 89.7708 90.5096 89.6096 90.4562C89.4479 90.4031 89.3011 90.3127 89.1812 90.1922C89.0614 90.0716 88.972 89.9245 88.9203 89.7628C88.095 87.1982 85.6813 85.3396 82.8378 85.3396H73.7863C70.2599 85.3396 67.3991 88.192 67.3991 91.7054V101.063H70.208V93.2013C70.208 92.6068 70.692 92.1244 71.2884 92.1244C71.8849 92.1244 72.3688 92.6068 72.3688 93.2013V111.402H84.2531V93.2013C84.2531 92.6068 84.737 92.1244 85.3335 92.1244C85.9299 92.1244 86.4139 92.6068 86.4139 93.2013V96.9583L98.6416 88.0264L97.7471 86.8105ZM40.6984 41.1848H36.1607V92.4475H65.2383V91.7054C65.2383 87.0033 69.0671 83.1857 73.7863 83.1857H82.8378C86.1329 83.1857 88.9938 85.0488 90.4199 87.775L96.5868 83.3862C96.8181 83.2216 97.1052 83.1544 97.386 83.1993C97.6667 83.2442 97.9183 83.3976 98.0863 83.6262L98.8512 84.6682L106.92 78.7743C107.034 78.6889 107.164 78.627 107.302 78.592C107.44 78.5572 107.586 78.55 107.727 78.571C107.869 78.5918 108.003 78.6405 108.125 78.7141C108.247 78.7878 108.354 78.8848 108.439 78.9997C108.523 79.1145 108.584 79.245 108.618 79.3834C108.652 79.5218 108.656 79.6654 108.634 79.8061C108.611 79.9467 108.561 80.0814 108.486 80.2025C108.411 80.3237 108.313 80.4287 108.197 80.5117L100.128 86.4056L101.022 87.6221C101.192 87.8525 101.262 88.1405 101.218 88.4228C101.175 88.7051 101.021 88.9585 100.789 89.1272L96.2453 92.4475H137.716V41.1848H40.6984ZM78.419 64.4469C73.2915 64.4469 69.1276 68.597 69.1276 73.7086C69.1276 78.8202 73.2915 82.9703 78.419 82.9703C83.5465 82.9703 87.7103 78.8202 87.7103 73.7086C87.7103 68.597 83.5465 64.4469 78.419 64.4469ZM78.419 66.6007C82.3538 66.6007 85.5495 69.7857 85.5495 73.7086C85.5495 77.6315 82.3538 80.8164 78.419 80.8164C74.4842 80.8164 71.2884 77.6315 71.2884 73.7086C71.2884 69.7857 74.4842 66.6007 78.419 66.6007ZM46.7486 39.0309V37.631C46.7486 36.2638 45.6358 35.1539 44.2637 35.1539C42.8916 35.1539 41.7788 36.2638 41.7788 37.631V39.0309H46.7486ZM132.1 39.0309V37.631C132.1 36.2638 130.986 35.1539 129.613 35.1539C128.242 35.1539 127.13 36.2638 127.13 37.631V39.0309H132.1Z" fill="var(--main-color, #377CB5)" />
	<path d="M133.471 59.5364C132.824 59.2149 132.141 58.4912 132.605 55.7265C132.818 54.4544 132.756 53.5855 132.41 52.9918C132.067 52.4023 131.527 52.1938 131.051 52.0098C130.986 51.9846 130.92 51.9593 130.854 51.9328L130.848 51.9304C130.816 51.8506 130.829 51.596 130.838 51.4414C130.87 50.8563 130.937 49.6399 129.331 49.4249C128.553 49.3207 128.026 49.4424 127.719 49.7969C127.304 50.2772 127.495 50.9321 127.621 51.3653C127.651 51.4594 127.675 51.555 127.694 51.652C127.708 51.7626 127.677 51.8354 127.586 52.031C127.402 52.3863 127.306 52.7804 127.306 53.1803C127.306 53.7159 127.257 53.8905 126.065 54.7266C125.742 54.9392 125.401 55.1223 125.045 55.2735C124.185 55.6694 123.21 56.1179 123.056 57.5234C122.953 58.4653 122.416 59.2044 122.159 59.3479C122.155 59.3392 122.15 59.3288 122.145 59.317C121.978 58.9203 121.716 58.6533 121.367 58.524C120.657 58.2612 119.854 58.6579 119.079 59.042C118.979 59.0911 118.88 59.1401 118.784 59.1867C118.324 59.4053 117.832 59.5468 117.326 59.6052C117.38 59.5323 117.435 59.4603 117.491 59.3892C117.805 58.9864 118.278 58.3777 117.835 57.7599C117.375 57.1218 116.834 57.3625 116.475 57.5218C116.182 57.66 115.875 57.7632 115.558 57.8291C114.739 57.9966 114.391 58.4293 114.137 58.7452C113.941 58.9902 113.878 59.0496 113.716 59.0695C112.79 59.1848 112.828 60.1174 112.847 60.5656C112.854 60.7356 112.868 61.0894 112.809 61.1571C112.407 61.449 112.013 62.0037 112.037 62.5851C112.039 62.6231 112.031 62.6611 112.014 62.6954C111.998 62.7298 111.973 62.7597 111.942 62.7825C111.918 62.8022 111.889 62.8154 111.858 62.8208C111.827 62.8262 111.795 62.8236 111.765 62.8134C111.66 62.7784 111.657 62.7569 111.657 62.6729C111.653 62.5387 111.658 62.4044 111.671 62.2707L111.694 62.2502C111.917 62.0539 112.111 61.8263 112.268 61.5745C113.062 60.3678 112.274 59.3731 112.24 59.3314C112.172 59.247 112.079 59.186 111.973 59.1568C111.287 58.9653 110.889 59.555 110.599 59.9854C110.244 60.5122 109.877 61.0567 109.051 61.1455C107.89 61.2701 107.791 61.1666 107.642 61.0098C107.382 60.7231 107.053 60.5071 106.686 60.3825C105.877 60.0811 104.525 60.3157 103.217 60.5426C102.587 60.652 101.648 60.8151 101.371 60.7604C101.358 60.6785 101.368 60.464 101.51 60.0765C102.059 60.3726 102.64 60.3903 103.146 60.1251C103.63 59.8714 103.883 59.3578 103.822 58.7516C103.745 57.974 103.113 57.0251 102.056 56.7165C101.136 56.4477 100.571 57.1648 100.073 57.7974C99.4934 58.532 98.8367 59.3646 97.4744 59.5843C97.0039 59.6525 96.5534 59.8195 96.1525 60.0744C95.7516 60.3292 95.4096 60.666 95.149 61.0625C94.6793 61.7537 94.3807 62.6804 94.2857 63.7426C94.2087 64.618 94.264 65.4999 94.4499 66.359C94.6577 67.2879 94.5006 67.6224 94.4475 67.7028C94.4302 67.7328 94.4046 67.757 94.3736 67.7726C94.0782 67.7572 93.0607 67.7595 92.5586 68.449C92.2215 68.9118 92.2124 69.5243 92.5315 70.2701C94.1485 74.0493 94.9368 74.7381 95.4945 74.9134C95.62 74.9549 95.753 74.9683 95.8844 74.9529C96.0156 74.9374 96.1419 74.8934 96.2542 74.8239C96.6241 74.5942 96.8023 74.0522 97.0974 73.1542C97.4689 72.0244 98.0301 70.3169 98.9657 70.0415C99.4252 69.9061 100.013 70.1155 100.712 70.6638C101.28 71.5458 102.092 72.5282 102.834 72.3877C103.415 72.2778 103.611 71.7422 103.742 71.3878C103.822 71.1686 103.906 70.9424 104.023 70.8865C104.233 70.7821 104.43 70.6523 104.61 70.5002C104.663 70.4555 104.718 70.4138 104.776 70.3752C104.814 70.3892 104.85 70.4073 104.884 70.429C104.954 70.4711 105.017 70.5104 105.077 70.5471C105.617 70.8808 105.917 71.0459 106.837 71.1503C106.981 71.1666 107.029 71.2235 107.178 71.5564C107.327 71.8854 107.634 72.5699 108.512 72.416C108.977 72.3343 109.095 72.4684 109.541 73.2586L109.623 73.4022C110.292 74.5749 111.391 75.166 112.899 75.166C113.219 75.1647 113.539 75.1409 113.855 75.0946C115.221 74.9005 115.732 74.5601 116.037 74.3567C116.084 74.3229 116.133 74.2927 116.184 74.2664C116.243 74.2663 116.301 74.2766 116.357 74.2967C116.922 74.4545 117.366 74.2218 117.724 74.0347C118.138 73.8182 118.366 73.6991 118.808 73.9686C119.671 74.4948 120.268 74.2637 120.747 74.078C121.096 73.9428 121.398 73.8261 121.892 73.9492C122.836 74.1836 123.258 73.935 123.709 73.5854C124.011 73.3236 124.386 73.1616 124.785 73.1221C126.006 72.9547 126.033 71.8579 126.049 71.2026C126.071 70.361 126.157 70.3153 126.45 70.2866C127.09 70.224 127.192 70.3646 127.375 70.6196C127.567 70.8862 127.858 71.2891 128.575 71.2891C128.871 71.2891 129.772 71.2891 130.085 71.6462C130.128 71.6954 130.259 71.8451 130.203 72.2625C130.12 72.8738 130.193 73.3921 130.419 73.8038C130.532 74.0092 130.706 74.1762 130.915 74.2839C131.123 74.3916 131.361 74.4351 131.595 74.409C131.828 74.3828 132.049 74.2882 132.23 74.137C132.409 73.9857 132.541 73.7847 132.607 73.5593C133.525 70.393 133.019 69.1618 132.53 67.9708C132.367 67.6024 132.235 67.2214 132.132 66.8319C131.95 66.0744 131.818 65.5271 130.947 65.7063C130.692 65.7641 130.429 65.7811 130.169 65.7564C130.134 65.7566 130.099 65.7481 130.068 65.7315C130.037 65.7149 130.01 65.6909 129.991 65.6615C129.739 65.3114 129.837 64.2858 129.982 63.7029C130.008 63.6228 130.009 63.5364 129.984 63.4559C129.976 63.3849 129.942 62.8962 130.427 62.0587C130.804 61.4099 130.843 60.6522 130.872 60.0991L130.873 60.0707C131.038 60.2998 131.184 60.5409 131.313 60.7921C131.548 61.2437 131.818 61.6768 132.119 62.0874C132.75 62.9232 133.737 63.7741 134.517 63.7902C134.649 63.7969 134.779 63.7734 134.9 63.7213C135.021 63.6693 135.127 63.5902 135.212 63.4901C135.408 63.252 135.449 62.9037 135.339 62.3939C135.147 61.4973 134.44 60.0177 133.471 59.5364ZM132.959 61.4574C132.688 61.087 132.446 60.6968 132.235 60.2901C131.9 59.6782 131.611 59.1499 131.029 58.847C130.681 58.6661 130.422 58.734 130.266 58.8227C129.877 59.0446 129.852 59.508 129.824 60.0444C129.799 60.5165 129.768 61.1039 129.518 61.5348C128.928 62.5541 128.906 63.2495 128.938 63.5544C128.829 64.0347 128.566 65.4762 129.137 66.2713C129.245 66.4245 129.385 66.5515 129.55 66.6432C129.713 66.7348 129.896 66.7888 130.083 66.801C130.4 66.8302 130.719 66.8158 131.032 66.7582C131.061 66.8662 131.091 66.9914 131.112 67.0769C131.225 67.5185 131.375 67.9504 131.558 68.3683C131.999 69.4402 132.414 70.4527 131.598 73.2685C131.591 73.2959 131.575 73.3202 131.553 73.3381C131.531 73.356 131.504 73.3665 131.476 73.3681C131.449 73.3728 131.422 73.3689 131.398 73.3568C131.374 73.3446 131.354 73.325 131.342 73.3008C131.228 73.0924 131.194 72.7818 131.246 72.4028C131.326 71.8129 131.202 71.3264 130.877 70.9566C130.322 70.3226 129.355 70.2413 128.576 70.2413C128.399 70.2413 128.38 70.2151 128.23 70.0079C127.907 69.5599 127.496 69.1316 126.349 69.2438C125.047 69.3711 125.018 70.5012 125 71.1761C124.979 71.9986 124.897 72.0493 124.642 72.0843C124.062 72.1482 123.513 72.3826 123.066 72.7577C122.779 72.9798 122.673 73.0633 122.148 72.9323C121.329 72.7289 120.773 72.944 120.367 73.1012C119.962 73.2584 119.776 73.33 119.358 73.0751C118.407 72.4952 117.702 72.8635 117.237 73.107C116.929 73.2677 116.79 73.3293 116.642 73.2878C116.061 73.1255 115.772 73.2743 115.454 73.4858C115.209 73.6495 114.837 73.8969 113.709 74.0574C111.393 74.3866 110.749 73.2561 110.537 72.8847L110.457 72.7445C110.086 72.0862 109.669 71.3497 108.709 71.3497C108.582 71.3503 108.455 71.3619 108.33 71.3845C108.311 71.388 108.293 71.39 108.274 71.3903C108.221 71.3072 108.175 71.2196 108.138 71.1283C107.982 70.7798 107.719 70.1964 106.957 70.11C106.23 70.0273 106.08 69.9341 105.63 69.6571C105.569 69.6187 105.502 69.5777 105.429 69.5339C104.692 69.088 104.227 69.4619 103.949 69.6853C103.833 69.7858 103.707 69.8717 103.57 69.9414C103.066 70.1808 102.886 70.6704 102.755 71.0277C102.72 71.1265 102.681 71.2234 102.636 71.3181C102.389 71.1583 101.911 70.594 101.553 70.0298C101.522 69.981 101.484 69.9377 101.439 69.9016C100.426 69.0847 99.4931 68.7935 98.6678 69.0365C97.2029 69.4677 96.5645 71.4099 96.0983 72.8279C95.9912 73.18 95.8649 73.5259 95.7198 73.8642C95.4812 73.6915 94.8244 72.9588 93.4984 69.8584C93.3417 69.4916 93.3089 69.2026 93.4085 69.0648C93.5574 68.8583 94.0595 68.797 94.3505 68.8203C94.3668 68.822 94.3834 68.8227 94.3999 68.8224C94.5665 68.8149 94.7293 68.7711 94.8769 68.694C95.0246 68.617 95.1535 68.5085 95.2546 68.3764C95.6297 67.9071 95.7042 67.1514 95.4759 66.1307C95.1775 64.7965 95.2203 62.8254 96.019 61.6501C96.1994 61.372 96.4377 61.1359 96.7178 60.9579C96.998 60.7798 97.3132 60.664 97.6422 60.6183C99.4097 60.3335 100.271 59.2418 100.899 58.4447C101.376 57.8404 101.557 57.6618 101.761 57.7216C102.364 57.898 102.735 58.4377 102.777 58.8552C102.794 59.0314 102.754 59.1465 102.656 59.1973C102.533 59.2621 102.331 59.3283 102.01 59.1553C101.878 59.0833 101.73 59.0409 101.58 59.0306C101.428 59.0203 101.277 59.0426 101.135 59.0958C100.996 59.1481 100.869 59.2298 100.765 59.3353C100.659 59.4407 100.578 59.5675 100.526 59.707C100.008 61.11 100.57 61.5738 100.951 61.7254C101.408 61.9072 102.141 61.7926 103.398 61.5745C104.402 61.4004 105.776 61.1619 106.318 61.3637C106.535 61.4325 106.73 61.5596 106.879 61.7309C107.327 62.2005 107.739 62.34 109.165 62.1869C110.476 62.046 111.075 61.1574 111.472 60.5693C111.501 60.5257 111.534 60.477 111.568 60.4289C111.569 60.633 111.507 60.8326 111.389 60.9997C111.283 61.175 111.149 61.333 110.995 61.4684C110.655 61.771 110.606 61.9971 110.606 62.6729C110.598 62.9253 110.674 63.1734 110.822 63.3783C110.971 63.5831 111.183 63.7331 111.425 63.805C111.617 63.8698 111.822 63.8868 112.022 63.8549C112.221 63.823 112.411 63.7429 112.572 63.6217C112.74 63.4969 112.874 63.3333 112.964 63.1449C113.054 62.9566 113.097 62.7493 113.088 62.5409C113.082 62.4081 113.226 62.15 113.427 62.0036C113.943 61.6288 113.917 60.9893 113.898 60.5223C113.888 60.3823 113.889 60.242 113.899 60.1021C114.465 60.0134 114.749 59.6603 114.957 59.4003C115.162 59.147 115.322 58.947 115.77 58.8554C116.139 58.7795 116.499 58.6624 116.842 58.5062C116.782 58.5901 116.712 58.6796 116.661 58.7468C116.468 58.9939 116.25 59.2741 116.142 59.5966C116.089 59.7377 116.079 59.8918 116.115 60.0384C116.151 60.1849 116.231 60.3171 116.345 60.4173C117.008 60.9994 118.699 60.3905 119.239 60.1313C119.34 60.0828 119.442 60.032 119.546 59.9809C120.04 59.7364 120.717 59.4014 121 59.5065C121.025 59.5152 121.1 59.5436 121.177 59.7238C121.386 60.22 121.789 60.4758 122.253 60.4085C123.012 60.2982 123.934 59.1584 124.101 57.6373C124.187 56.8558 124.611 56.6278 125.485 56.2253C125.899 56.0482 126.297 55.8335 126.67 55.5839C127.869 54.7428 128.358 54.29 128.358 53.1807C128.359 52.9332 128.422 52.6899 128.54 52.4727C128.652 52.234 128.79 51.9368 128.737 51.5219C128.714 51.3701 128.678 51.2202 128.631 51.0739C128.585 50.9157 128.49 50.5928 128.52 50.4811C128.557 50.462 128.721 50.4007 129.192 50.4636C129.835 50.5496 129.823 50.7598 129.789 51.3841C129.764 51.8409 129.722 52.6053 130.459 52.9034C130.529 52.9321 130.6 52.9596 130.671 52.9868C131.448 53.2869 131.918 53.4681 131.568 55.5535C131.123 58.2034 131.579 59.767 133.002 60.4741C133.644 60.7928 134.219 62.0675 134.331 62.6775C134.026 62.535 133.484 62.1512 132.959 61.4574Z" fill="var(--accent-color, #F58220)" />
	<path d="M67.386 63.0963H43.3982C42.9509 63.0963 42.5879 62.7345 42.5879 62.2886C42.5879 61.8428 42.9509 61.481 43.3982 61.481H67.386C67.8333 61.481 68.1963 61.8428 68.1963 62.2886C68.1963 62.7345 67.8333 63.0963 67.386 63.0963Z" fill="var(--accent-color, #F58220)" />
	<path d="M67.386 59.5531H43.3982C42.9509 59.5531 42.5879 59.1912 42.5879 58.7454C42.5879 58.2997 42.9509 57.9376 43.3982 57.9376H67.386C67.8333 57.9376 68.1963 58.2997 68.1963 58.7454C68.1963 59.1912 67.8333 59.5531 67.386 59.5531Z" fill="var(--accent-color, #F58220)" />
	<path d="M67.386 56.0098H43.3982C42.9509 56.0098 42.5879 55.648 42.5879 55.2021C42.5879 54.7564 42.9509 54.3944 43.3982 54.3944H67.386C67.8333 54.3944 68.1963 54.7564 68.1963 55.2021C68.1963 55.648 67.8333 56.0098 67.386 56.0098Z" fill="var(--accent-color, #F58220)" />
	<path d="M67.3848 52.4666H46.865C46.4177 52.4666 46.0547 52.1048 46.0547 51.6589C46.0547 51.2132 46.4177 50.8512 46.865 50.8512H67.3848C67.8321 50.8512 68.1951 51.2132 68.1951 51.6589C68.1951 52.1048 67.8321 52.4666 67.3848 52.4666Z" fill="var(--accent-color, #F58220)" />
	<path d="M67.386 59.5531H43.3982C42.9509 59.5531 42.5879 59.1912 42.5879 58.7454C42.5879 58.2997 42.9509 57.9376 43.3982 57.9376H67.386C67.8333 57.9376 68.1963 58.2997 68.1963 58.7454C68.1963 59.1912 67.8333 59.5531 67.386 59.5531Z" fill="var(--accent-color, #F58220)" />
	<path d="M67.386 56.0098H43.3982C42.9509 56.0098 42.5879 55.648 42.5879 55.2021C42.5879 54.7564 42.9509 54.3944 43.3982 54.3944H67.386C67.8333 54.3944 68.1963 54.7564 68.1963 55.2021C68.1963 55.648 67.8333 56.0098 67.386 56.0098Z" fill="var(--accent-color, #F58220)" />
	<path d="M67.3848 52.4666H46.865C46.4177 52.4666 46.0547 52.1048 46.0547 51.6589C46.0547 51.2132 46.4177 50.8512 46.865 50.8512H67.3848C67.8321 50.8512 68.1951 51.2132 68.1951 51.6589C68.1951 52.1048 67.8321 52.4666 67.3848 52.4666Z" fill="var(--accent-color, #F58220)" />
</svg>