<svg id="self" preserveAspectRatio="xMidYMid meet" viewBox="0 0 173 153" fill="none" xmlns="http://www.w3.org/2000/svg">
	<path d="M82.6787 45.75H145.565V132.251H88.9214H83.6729C80.7901 132.251 78.4531 129.901 78.4531 127.001V50C78.4531 47.6528 80.345 45.75 82.6787 45.75Z" stroke="var(--main-color, #377CB5)" stroke-width="1.5" />
	<path d="M78.8496 125.213C78.8496 122.888 79.1935 119.4 87.9647 119.4C92.7023 119.4 127.885 119.597 146.31 119.597" stroke="var(--main-color, #377CB5)" stroke-width="1.5" />
	<path d="M90.2207 45.6741V119.13" stroke="var(--main-color, #377CB5)" stroke-width="1.5" />
	<path d="M89.6379 45.4744V21H31.9712C29.2257 21 27 23.2386 27 26V98C27 101.314 29.6708 104 32.9655 104H36.5174H77.7258" stroke="var(--main-color, #377CB5)" stroke-width="1.5" />
	<path d="M27 99C27 95.8 27 91 36.177 91C40.6819 91 60.1881 91.2708 77.7069 91.2708" stroke="var(--main-color, #377CB5)" stroke-width="1.5" />
	<path d="M38.9297 22V92" stroke="var(--main-color, #377CB5)" stroke-width="1.5" />
	<path d="M77.9768 51.8392H69.9778C69.868 51.8392 69.7789 51.7496 69.7789 51.6392V40.9727C69.7789 40.8622 69.6899 40.7727 69.5801 40.7727H58.8198C58.7099 40.7727 58.6209 40.8622 58.6209 40.9727V51.6392C58.6209 51.7496 58.5319 51.8392 58.4221 51.8392H47.6618C47.5519 51.8392 47.4629 51.9287 47.4629 52.0392V61.6147C47.4629 61.7252 47.5519 61.8147 47.6618 61.8147H58.4221C58.5319 61.8147 58.6209 61.9043 58.6209 62.0147V73.9282C58.6209 74.0386 58.7099 74.1282 58.8198 74.1282H69.5801C69.6899 74.1282 69.7789 74.0386 69.7789 73.9282V62.0147C69.7789 61.9043 69.868 61.8147 69.9778 61.8147H77.9768" stroke="var(--main-color, #377CB5)" stroke-width="1.5" />
	<path d="M55.1992 45.1364V38C55.1992 37.7239 55.4219 37.5 55.6964 37.5H61.1648" stroke="var(--main-color, #377CB5)" stroke-width="1.5" stroke-linejoin="round" />
	<path d="M125.007 90.7734H110.939" stroke="var(--accent-color, #F58220)" stroke-width="1.5" stroke-miterlimit="10" stroke-linecap="round" stroke-linejoin="round" />
	<path d="M110.941 90.7735C110.941 93.4394 108.793 95.6007 106.142 95.6007C103.491 95.6007 101.342 93.4394 101.342 90.7735C101.342 89.7522 101.658 88.8052 102.195 88.0244C103.063 86.7686 104.506 85.9463 106.142 85.9463C107.77 85.9463 109.211 86.7627 110.079 88.0096C110.622 88.7904 110.941 89.7433 110.941 90.7735Z" stroke="var(--accent-color, #F58220)" stroke-width="1.5" stroke-miterlimit="10" stroke-linecap="round" stroke-linejoin="round" />
	<path d="M134.61 90.7735C134.61 93.4394 132.462 95.6007 129.811 95.6007C127.16 95.6007 125.012 93.4394 125.012 90.7735C125.012 89.7404 125.334 88.7814 125.883 87.9977C126.751 86.7568 128.187 85.9463 129.811 85.9463C131.434 85.9463 132.872 86.7568 133.74 87.9977C134.286 88.7814 134.61 89.7374 134.61 90.7735Z" stroke="var(--accent-color, #F58220)" stroke-width="1.5" stroke-miterlimit="10" stroke-linecap="round" stroke-linejoin="round" />
	<path d="M101.339 90.7739H96.041V80.3981H100.141L105.752 73.1722C106.345 72.4062 107.258 71.9609 108.22 71.9609H122.618C123.645 71.9609 124.613 72.4419 125.239 73.2612L130.369 79.9706H138.038C139.068 79.9706 139.903 80.8108 139.903 81.8498V90.7739H134.604" stroke="var(--accent-color, #F58220)" stroke-width="1.5" stroke-miterlimit="10" stroke-linecap="round" stroke-linejoin="round" />
	<path d="M104.723 80.2947H125.845L121.5 74.6719H108.809L104.723 80.2947Z" stroke="var(--accent-color, #F58220)" stroke-width="1.5" stroke-miterlimit="10" stroke-linecap="round" stroke-linejoin="round" />
	<path d="M114.955 74.7637V80.2945" stroke="var(--accent-color, #F58220)" stroke-width="1.5" stroke-miterlimit="10" stroke-linecap="round" stroke-linejoin="round" />
	<path d="M139.908 82.5H135.682V84.9373H139.908" stroke="var(--accent-color, #F58220)" stroke-width="1.5" stroke-miterlimit="10" stroke-linecap="round" stroke-linejoin="round" />
	<path d="M104.311 82.5H105.646" stroke="var(--accent-color, #F58220)" stroke-width="1.5" stroke-miterlimit="10" stroke-linecap="round" stroke-linejoin="round" />
	<path d="M102.562 72.5L104.652 70.0476C105.219 69.3827 106.047 69 106.918 69H111.013" stroke="var(--main-color, #377CB5)" stroke-width="1.5" />
</svg>