<svg id="self" preserveAspectRatio="xMidYMid meet" viewBox="0 0 173 153" fill="none" xmlns="http://www.w3.org/2000/svg">
	<path d="M139.2 87.4601L140.202 88.4671C140.321 88.5876 140.41 88.7348 140.461 88.8964C140.512 89.058 140.525 89.2296 140.497 89.397C140.47 89.5644 140.404 89.723 140.304 89.8596C140.204 89.9962 140.073 90.1071 139.922 90.1831C139.72 90.2842 139.49 90.3179 139.268 90.2791L137.291 89.9341C136.957 89.8765 136.653 89.7017 136.435 89.4407C136.216 89.1797 136.097 88.8493 136.097 88.5081C136.097 88.1241 135.946 87.7561 135.676 87.4841L134.264 86.0641C134.069 85.8682 133.815 85.7432 133.541 85.7086C133.268 85.6741 132.991 85.732 132.754 85.8733C132.517 86.0146 132.333 86.2313 132.232 86.489C132.131 86.7468 132.118 87.0311 132.196 87.2971L132.384 87.9411C132.447 88.1558 132.451 88.3838 132.396 88.6008C132.341 88.8179 132.229 89.0159 132.071 89.1741L131.53 89.7181C131.149 90.1021 130.934 90.6231 130.934 91.1651C130.934 92.1051 131.692 92.8661 132.625 92.8661H133.128C133.496 92.866 133.86 92.9455 134.195 93.099C134.53 93.2525 134.829 93.4766 135.07 93.7561L136.069 94.9101C136.471 95.3751 136.693 95.9701 136.693 96.5851V98.3121C136.683 98.6933 136.525 99.0556 136.254 99.3218C135.982 99.5879 135.618 99.7368 135.239 99.7368C134.859 99.7368 134.495 99.5879 134.224 99.3218C133.952 99.0556 133.794 98.6933 133.784 98.3121V97.1941C133.785 96.9891 133.724 96.7886 133.611 96.6181C133.498 96.4475 133.337 96.3146 133.149 96.2361C132.96 96.1576 132.753 96.1371 132.553 96.1772C132.353 96.2172 132.17 96.316 132.026 96.4611L130.985 97.5071C130.889 97.6032 130.776 97.6794 130.652 97.7314C130.527 97.7834 130.394 97.8101 130.259 97.8101H130.012C129.74 97.8101 129.478 97.7011 129.285 97.5071L127.783 95.9971C127.639 95.8528 127.457 95.7546 127.257 95.7148C127.058 95.675 126.852 95.6954 126.664 95.7736C126.477 95.8517 126.316 95.9839 126.204 96.1536C126.091 96.3234 126.03 96.5229 126.03 96.7271V98.2251C126.03 98.9251 125.467 99.4911 124.771 99.4911H124.03C123.668 99.4911 123.32 99.3461 123.064 99.0891L122.945 98.9691C122.705 98.7278 122.38 98.5922 122.04 98.5922C121.701 98.5922 121.376 98.7278 121.136 98.9691L120.009 100.101C119.889 100.223 119.746 100.319 119.588 100.385C119.43 100.451 119.261 100.484 119.091 100.484C118.92 100.484 118.751 100.451 118.594 100.385C118.436 100.319 118.293 100.223 118.173 100.101C117.929 99.8564 117.599 99.719 117.254 99.719C116.91 99.719 116.58 99.8564 116.336 100.101L115.496 100.946C115.376 101.068 115.232 101.164 115.075 101.23C114.917 101.295 114.748 101.329 114.577 101.329C114.197 101.329 113.833 101.177 113.564 100.906C113.295 100.636 113.144 100.269 113.144 99.8871V99.5471C113.144 98.5611 112.349 97.7611 111.369 97.7611H111.288C111.054 97.7611 110.829 97.6673 110.663 97.5004C110.497 97.3335 110.404 97.1071 110.404 96.8711C110.404 96.6351 110.31 96.4087 110.144 96.2418C109.978 96.0749 109.753 95.9811 109.519 95.9811H108.76C108.593 95.9811 108.427 96.0142 108.273 96.0785C108.119 96.1429 107.978 96.2371 107.86 96.356C107.742 96.4749 107.648 96.616 107.584 96.7713C107.52 96.9266 107.487 97.093 107.487 97.2611C107.488 97.378 107.465 97.4937 107.421 97.6018C107.376 97.7098 107.311 97.808 107.229 97.8906C107.147 97.9733 107.05 98.0389 106.942 98.0836C106.835 98.1283 106.72 98.1512 106.604 98.1511H105.844C105.291 98.1511 104.761 97.9311 104.37 97.5381L103.193 96.3541C102.919 96.0782 102.547 95.9232 102.159 95.9231H101.693C101.467 95.9234 101.25 96.0137 101.091 96.1744C100.931 96.3351 100.841 96.5529 100.841 96.7801C100.841 96.9658 100.805 97.1497 100.734 97.3213C100.663 97.4928 100.56 97.6488 100.429 97.7801L99.4111 98.8041C99.3064 98.9094 99.1821 98.993 99.0453 99.05C98.9085 99.107 98.7618 99.1364 98.6137 99.1364C98.4656 99.1364 98.319 99.107 98.1822 99.05C98.0454 98.993 97.921 98.9094 97.8163 98.8041L96.6312 97.6121C96.3028 97.2816 96.1182 96.8334 96.1182 96.3661V95.5131C96.1182 95.2797 96.2103 95.0559 96.3744 94.8908C96.5385 94.7258 96.7611 94.6331 96.9931 94.6331C97.2252 94.6331 97.4477 94.5404 97.6118 94.3753C97.7759 94.2103 97.868 93.9865 97.868 93.7531V92.1151C97.8681 91.9092 97.8278 91.7053 97.7493 91.5152C97.6708 91.3251 97.5557 91.1524 97.4107 91.0071L96.8161 90.4091C96.5241 90.1154 96.3461 89.7265 96.3142 89.3124C96.2823 88.8984 96.3986 88.4865 96.6421 88.1511L98.6754 85.3491C98.8765 85.0715 99.1401 84.8456 99.4445 84.6899C99.749 84.5342 100.086 84.4531 100.427 84.4531H100.731C101.399 84.4531 102.039 84.1861 102.511 83.7121L102.898 83.3221M117.132 81.7261H118.195C118.754 81.7261 119.208 82.1821 119.208 82.7451V82.9881C119.208 83.5381 119.651 83.9841 120.198 83.9841H122.646C122.776 83.9841 122.905 83.9584 123.025 83.9082C123.145 83.8581 123.254 83.7847 123.346 83.6921L125.59 81.4351C125.766 81.2574 125.975 81.1164 126.206 81.0203C126.436 80.9242 126.684 80.8748 126.933 80.8751C127.437 80.8749 127.921 80.6735 128.277 80.3151L130.345 78.2361C130.558 78.0224 130.81 77.8529 131.087 77.7372C131.365 77.6216 131.663 77.562 131.963 77.5621C132.263 77.5623 132.561 77.5028 132.838 77.3872C133.116 77.2715 133.368 77.1019 133.58 76.8881L134.839 75.6211C135.032 75.428 135.293 75.3194 135.565 75.3191C136.132 75.3191 136.591 75.7811 136.591 76.3511V76.9941C136.591 77.5642 136.817 78.1109 137.218 78.5141C137.618 78.9181 137.844 79.4641 137.844 80.0341V80.4751C137.844 81.0452 137.619 81.592 137.218 81.9951L136.871 82.3451C136.47 82.7483 136.245 83.2951 136.245 83.8651C136.245 84.2631 136.402 84.6451 136.683 84.9281L136.988 85.2351" stroke="var(--main-color, #377CB5)" stroke-width="1.353" stroke-miterlimit="10" stroke-linecap="round" stroke-linejoin="round" />
	<path d="M104.801 86.0529C102.693 83.3559 100.687 79.8069 100.687 76.0999C100.687 70.8919 104.399 66.6699 109.576 66.6699C114.754 66.6699 118.467 70.8919 118.467 76.0999C118.467 83.3559 110.778 90.0029 109.694 90.8469C109.661 90.8734 109.619 90.8877 109.576 90.8877C109.533 90.8877 109.492 90.8734 109.458 90.8469C109.111 90.5769 108.088 89.7119 106.856 88.4229" stroke="var(--accent-color, #F58220)" stroke-width="1.353" stroke-miterlimit="10" stroke-linecap="round" stroke-linejoin="round" />
	<path d="M104.096 73.5879H108.443M104.136 77.5649H114.813M111.57 73.5879H115.059" stroke="var(--main-color, #377CB5)" stroke-width="1.353" stroke-miterlimit="10" stroke-linecap="round" stroke-linejoin="round" />
	<path d="M115.503 75.5721C115.503 76.3549 115.35 77.13 115.052 77.8533C114.754 78.5765 114.317 79.2336 113.767 79.7871C113.217 80.3407 112.563 80.7798 111.844 81.0793C111.125 81.3789 110.354 81.5331 109.576 81.5331C108.798 81.5331 108.027 81.3789 107.308 81.0793C106.589 80.7798 105.936 80.3407 105.385 79.7871C104.835 79.2336 104.398 78.5765 104.101 77.8533C103.803 77.13 103.649 76.3549 103.649 75.5721C103.649 73.9911 104.274 72.4749 105.385 71.357C106.497 70.2391 108.004 69.6111 109.576 69.6111C111.148 69.6111 112.656 70.2391 113.767 71.357C114.878 72.4749 115.503 73.9911 115.503 75.5721Z" stroke="var(--accent-color, #F58220)" stroke-width="1.353" stroke-miterlimit="10" stroke-linecap="round" stroke-linejoin="round" />
	<path d="M83.5176 49.75H146.404V136.251H84.5118C83.1274 136.251 81.7998 135.698 80.8208 134.713C79.8419 133.729 79.292 132.393 79.292 131.001V54C79.292 52.8728 79.7372 51.7918 80.5296 50.9948C81.3221 50.1978 82.3969 49.75 83.5176 49.75Z" stroke="var(--main-color, #377CB5)" stroke-width="1.5" />
	<path d="M79.6892 129.213C79.6892 126.888 80.0332 123.4 88.8045 123.4C93.5421 123.4 128.725 123.597 147.149 123.597M91.0604 49.674V123.13M90.4768 49.474V25H32.8101C31.4917 25 30.2272 25.5268 29.2949 26.4645C28.3626 27.4021 27.8389 28.6739 27.8389 30V102C27.8389 103.591 28.4674 105.117 29.5861 106.243C30.7049 107.368 32.2222 108 33.8044 108H78.5647" stroke="var(--main-color, #377CB5)" stroke-width="1.5" />
	<path d="M27.8389 103C27.8389 99.8 27.8389 95 37.0158 95C41.5208 95 61.027 95.27 78.5458 95.27M39.7699 26V96" stroke="var(--main-color, #377CB5)" stroke-width="1.5" />
	<mask id="mask1_185_986" style="mask-type:luminance" maskUnits="userSpaceOnUse" x="42" y="41" width="40" height="10">
		<path d="M42.7529 41H81.5288V51H42.7529V41Z" fill="white" />
	</mask>
	<g mask="url(#mask1_185_986)">
		<path d="M61.6175 46.3671H65.4463L65.8997 45.5331C66.0144 45.321 66.0632 45.0793 66.0398 44.8391C66.0165 44.5988 65.9221 44.3712 65.7688 44.1855C65.6155 43.9998 65.4104 43.8645 65.18 43.7972C64.9495 43.73 64.7043 43.7337 64.4759 43.8081C63.8626 44.0101 63.2012 44.0101 62.5879 43.8081C62.3594 43.7329 62.1138 43.7285 61.8829 43.7955C61.6519 43.8625 61.4463 43.9977 61.2927 44.1837C61.1391 44.3696 61.0447 44.5977 61.0215 44.8383C60.9984 45.0789 61.0477 45.321 61.1631 45.5331L61.6175 46.3671ZM61.6175 46.3671C62.0838 47.4441 61.6503 48.7331 60.5775 49.1941L59.798 49.5281L60.1052 48.2061C60.2335 47.6531 59.8159 47.1231 59.2511 47.1231H57.8751C57.7428 47.1229 57.6123 47.1528 57.4931 47.2105C57.374 47.2683 57.2694 47.3524 57.1872 47.4566C57.1049 47.5607 57.0472 47.6823 57.0182 47.8121C56.9893 47.9418 56.9899 48.0765 57.02 48.2061L57.3283 49.5281M47.0666 53.0751C46.6256 51.6021 46.6076 50.0338 47.0149 48.5511C47.0559 48.4011 47.1354 48.2647 47.2455 48.1555C47.3555 48.0462 47.4921 47.968 47.6416 47.9286C47.7912 47.8892 47.9484 47.89 48.0975 47.931C48.2467 47.972 48.3825 48.0516 48.4913 48.1621L50.6131 50.3141M47.3271 58.4841C46.3048 57.9278 45.44 57.1193 44.8138 56.1344C44.1877 55.1496 43.8208 54.0207 43.7478 52.8541C43.7385 52.7057 43.7681 52.5575 43.8337 52.4244C43.8993 52.2912 43.9986 52.1777 44.1215 52.0952C44.2445 52.0128 44.3868 51.9643 44.5343 51.9546C44.6818 51.9449 44.8292 51.9744 44.9617 52.0401L57.7011 58.3571M80.0052 53.0481C80.4384 51.5828 80.4536 50.0246 80.0489 48.5511C80.0079 48.4011 79.9284 48.2647 79.8183 48.1555C79.7083 48.0462 79.5717 47.968 79.4222 47.9286C79.2726 47.8892 79.1154 47.89 78.9662 47.931C78.8171 47.972 78.6813 48.0516 78.5725 48.1621L69.3697 57.4971M83.0645 54.3171C83.1997 53.8401 83.2832 53.3491 83.315 52.8541C83.3242 52.7059 83.2946 52.5578 83.229 52.4248C83.1635 52.2917 83.0643 52.1783 82.9415 52.0959C82.8187 52.0135 82.6765 51.965 82.5292 51.9552C82.3819 51.9454 82.2346 51.9746 82.1021 52.0401L69.3607 58.3581M58.5631 47.0431V46.1431" stroke="var(--main-color, #377CB5)" stroke-width="1.5" stroke-miterlimit="10" stroke-linecap="round" stroke-linejoin="round" />
		<path d="M63.5327 56.2581V54.0181C63.5327 53.4284 63.4172 52.8446 63.1928 52.2998C62.9685 51.7551 62.6397 51.2601 62.2251 50.8432C61.8106 50.4262 61.3185 50.0955 60.7768 49.8698C60.2352 49.6442 59.6547 49.5281 59.0685 49.5281H57.941C57.5943 49.528 57.2522 49.6077 56.9408 49.761C56.6295 49.9143 56.357 50.1371 56.1444 50.4125C55.9317 50.6878 55.7844 51.0084 55.7138 51.3498C55.6431 51.6911 55.651 52.0442 55.7367 52.3821H57.592C57.9329 52.382 58.2685 52.4666 58.5692 52.6282C58.8698 52.7899 59.1261 53.0237 59.3154 53.3088C59.5048 53.594 59.6212 53.9217 59.6544 54.2629C59.6876 54.6042 59.6366 54.9484 59.5059 55.2651L59.1003 56.2481M65.4466 46.3671C64.9803 47.4441 65.4128 48.7331 66.4866 49.1941L67.2651 49.5281L66.9579 48.2061C66.9277 48.0766 66.9271 47.9419 66.956 47.8121C66.985 47.6823 67.0427 47.5607 67.125 47.4566C67.2072 47.3524 67.3118 47.2683 67.4309 47.2105C67.5501 47.1528 67.6807 47.1229 67.8129 47.1231H69.19C69.322 47.1232 69.4524 47.1533 69.5713 47.2112C69.6902 47.2691 69.7945 47.3532 69.8765 47.4574C69.9585 47.5615 70.0161 47.6829 70.045 47.8125C70.0738 47.9422 70.0731 48.0767 70.043 48.2061L69.7368 49.5281M68.5009 47.0431V46.1431" stroke="var(--main-color, #377CB5)" stroke-width="1.5" stroke-miterlimit="10" stroke-linecap="round" stroke-linejoin="round" />
		<path d="M63.5332 54.018C63.5332 52.8274 64.0034 51.6855 64.8404 50.8434C65.6774 50.0014 66.8126 49.5283 67.9964 49.528H69.1229C69.4697 49.5278 69.8119 49.6074 70.1234 49.7606C70.4349 49.9138 70.7074 50.1366 70.9202 50.412C71.133 50.6874 71.2804 51.008 71.3511 51.3495C71.4218 51.6909 71.4139 52.0441 71.3281 52.382H69.4729C69.132 52.382 68.7963 52.4665 68.4957 52.6282C68.1951 52.7898 67.9387 53.0236 67.7494 53.3088C67.5601 53.5939 67.4437 53.9216 67.4105 54.2629C67.3772 54.6041 67.4282 54.9483 67.5589 55.265L67.9686 56.258M63.5332 43.958V43" stroke="var(--main-color, #377CB5)" stroke-width="1.5" stroke-miterlimit="10" stroke-linecap="round" stroke-linejoin="round" />
	</g>
	<mask id="mask2_185_986" style="mask-type:luminance" maskUnits="userSpaceOnUse" x="42" y="41" width="37" height="41">
		<path d="M42.7529 41H78.546V82H42.7529V41Z" fill="white" />
	</mask>
	<g mask="url(#mask2_185_986)">
		<path d="M64.8474 68.8889C66.5257 70.4429 69.2122 73.2339 69.2122 75.1629C69.2122 77.0529 66.4819 76.9829 66.4819 76.9829M60.583 76.9829C60.583 76.9829 57.8528 77.0529 57.8528 75.1629C57.8528 73.3129 60.5542 70.4799 62.2305 68.8999M46.9618 68.2659L46.2559 67.2129M50.3233 73.2799L48.7445 70.9239M53.7993 78.4619L52.5634 76.6189" stroke="var(--main-color, #377CB5)" stroke-width="1.2" stroke-miterlimit="10" stroke-linecap="round" stroke-linejoin="round" />
		<path d="M49.4324 69.334C49.4046 69.1225 49.3349 68.9188 49.2276 68.7349C49.1202 68.551 48.9772 68.3905 48.8072 68.2631C48.6372 68.1356 48.4435 68.0437 48.2375 67.9927C48.0316 67.9418 47.8176 67.9329 47.6082 67.9665C47.3988 68.0001 47.1982 68.0755 47.0182 68.1884C46.8383 68.3012 46.6826 68.4492 46.5604 68.6236C46.4383 68.7979 46.3521 68.9951 46.3069 69.2035C46.2618 69.4119 46.2586 69.6273 46.2975 69.837C46.3674 70.252 46.5973 70.6226 46.9373 70.868C47.2773 71.1134 47.6999 71.2139 48.1132 71.1477C48.5265 71.0814 48.897 70.8536 49.1443 70.514C49.3915 70.1744 49.4954 69.7503 49.4334 69.334H49.4324Z" stroke="var(--accent-color, #F58220)" stroke-width="1.2" stroke-miterlimit="10" stroke-linecap="round" stroke-linejoin="round" />
		<path d="M66.0736 75.27C66.3225 75.9906 66.4534 76.7471 66.4613 77.51C66.4613 78.196 65.9413 78.583 65.4154 78.799C64.6188 79.1295 63.9561 79.7203 63.5342 80.476L63.5322 80.479C63.1099 79.7218 62.4462 79.1299 61.6481 78.799C61.1222 78.584 60.6042 78.197 60.6042 77.509C60.6042 75.282 61.9146 72.559 63.5322 72.559C63.8961 72.559 64.2441 72.697 64.5653 72.936M59.0333 67.73C57.4564 67.73 56.1778 68.766 56.1778 70.044C56.1778 71.322 57.4564 72.358 59.0333 72.358M59.2788 67.743C59.0906 67.9981 58.9695 68.297 58.9267 68.6118C58.8839 68.9266 58.9209 69.2471 59.0341 69.5437C59.1474 69.8404 59.3332 70.1034 59.5745 70.3085C59.8158 70.5136 60.1046 70.6541 60.4143 70.717M52.1759 73.19L56.3915 71.094M58.4188 73.325L53.2905 75.125M50.6587 75.327C50.4288 75.3638 50.1934 75.3185 49.9933 75.1989C49.7932 75.0794 49.6411 74.8931 49.5632 74.6725C49.4854 74.4519 49.4868 74.2109 49.5672 73.9912C49.6476 73.7716 49.802 73.5871 50.0035 73.47L50.8943 72.952C51.0076 72.8861 51.1328 72.8434 51.2625 72.8261C51.3923 72.8089 51.5241 72.8176 51.6506 72.8516C51.777 72.8856 51.8956 72.9444 51.9994 73.0245C52.1033 73.1046 52.1905 73.2045 52.2559 73.3185C52.3214 73.4325 52.3639 73.5583 52.3811 73.6888C52.3982 73.8193 52.3896 73.952 52.3557 74.0791C52.3219 74.2063 52.2635 74.3255 52.1838 74.43C52.1042 74.5345 52.0049 74.6221 51.8915 74.688L51.0007 75.205C50.8951 75.2664 50.7792 75.3078 50.6587 75.327Z" stroke="var(--main-color, #377CB5)" stroke-width="1.2" stroke-miterlimit="10" stroke-linecap="round" stroke-linejoin="round" />
		<path d="M51.8871 74.6899C52.116 74.5569 52.3881 74.5208 52.6434 74.5895C52.8988 74.6582 53.1165 74.8262 53.2488 75.0564C53.381 75.2866 53.4169 75.5602 53.3486 75.817C53.2802 76.0739 53.1132 76.2929 52.8844 76.4259L51.9925 76.9439C51.879 77.016 51.7521 77.0643 51.6195 77.0859C51.487 77.1075 51.3514 77.1019 51.2211 77.0695C51.0907 77.0372 50.9682 76.9786 50.8608 76.8975C50.7535 76.8163 50.6636 76.7142 50.5964 76.5972C50.5293 76.4802 50.4864 76.3508 50.4702 76.2167C50.454 76.0826 50.4649 75.9466 50.5022 75.8169C50.5396 75.6872 50.6026 75.5663 50.6875 75.4617C50.7724 75.357 50.8774 75.2707 50.9963 75.2079" stroke="var(--main-color, #377CB5)" stroke-width="1.2" stroke-miterlimit="10" stroke-linecap="round" stroke-linejoin="round" />
		<path d="M78.1686 75.126C78.8031 74.9087 79.3404 74.4721 79.6849 73.8938C80.0294 73.3155 80.1588 72.633 80.05 71.9677C79.9412 71.3025 79.6013 70.6977 79.0907 70.2608C78.5802 69.824 77.9321 69.5834 77.2618 69.582C76.7947 69.5818 76.3347 69.6979 75.923 69.92C75.5112 70.142 75.1606 70.4632 74.9023 70.8548C74.6441 71.2463 74.4862 71.6961 74.4429 72.164C74.3995 72.6318 74.472 73.1032 74.6539 73.536" stroke="var(--accent-color, #F58220)" stroke-width="1.2" stroke-miterlimit="10" stroke-linecap="round" stroke-linejoin="round" />
		<path d="M68.0301 67.73C69.607 67.73 70.8846 68.766 70.8846 70.044C70.8846 71.322 69.607 72.358 68.0301 72.358M67.7835 67.743C67.9708 67.9968 68.0916 68.2938 68.135 68.6068C68.1784 68.9197 68.143 69.2387 68.0319 69.5343C67.9209 69.8299 67.7378 70.0928 67.4995 70.2987C67.2612 70.5047 66.9753 70.6471 66.668 70.713M74.5424 73.255L70.6499 71.085M68.6435 73.325L73.9429 75.391M75.7405 75.967C75.7255 76.2 75.7917 76.431 75.9278 76.6201C76.064 76.8092 76.2614 76.9447 76.4862 77.0031C76.711 77.0615 76.9489 77.0392 77.1591 76.9401C77.3693 76.8409 77.5385 76.6711 77.6376 76.46L78.0721 75.522C78.1273 75.4027 78.1586 75.2736 78.1642 75.1421C78.1699 75.0106 78.1497 74.8793 78.1049 74.7557C78.06 74.632 77.9914 74.5185 77.903 74.4215C77.8145 74.3245 77.708 74.246 77.5893 74.1905C77.4707 74.1349 77.3424 74.1034 77.2117 74.0978C77.0809 74.0921 76.9504 74.1124 76.8274 74.1575C76.7045 74.2025 76.5916 74.2715 76.4952 74.3605C76.3988 74.4495 76.3207 74.5567 76.2655 74.676L75.831 75.615C75.7797 75.7258 75.749 75.8451 75.7405 75.967Z" stroke="var(--main-color, #377CB5)" stroke-width="1.2" stroke-miterlimit="10" stroke-linecap="round" stroke-linejoin="round" />
		<path d="M76.2618 74.6801C76.3187 74.5605 76.3515 74.4308 76.3582 74.2985C76.3649 74.1661 76.3454 74.0337 76.3009 73.909C76.2564 73.7843 76.1878 73.6696 76.0989 73.5718C76.0101 73.4739 75.9028 73.3947 75.7833 73.3388C75.6639 73.283 75.5345 73.2515 75.4029 73.2462C75.2712 73.2409 75.1398 73.262 75.0163 73.3081C74.8928 73.3543 74.7796 73.4246 74.6833 73.5151C74.587 73.6055 74.5095 73.7143 74.4553 73.8351L74.0218 74.7731C73.9665 74.8924 73.9352 75.0214 73.9296 75.1529C73.9239 75.2844 73.9441 75.4157 73.9889 75.5394C74.0338 75.663 74.1024 75.7766 74.1908 75.8735C74.2793 75.9705 74.3859 76.049 74.5045 76.1046C74.6231 76.1601 74.7514 76.1916 74.8822 76.1973C75.0129 76.2029 75.1434 76.1827 75.2664 76.1376C75.3893 76.0925 75.5022 76.0235 75.5986 75.9345C75.695 75.8456 75.7731 75.7384 75.8283 75.6191M61.6175 46.3671H65.4463L65.8997 45.5331C66.0144 45.321 66.0632 45.0793 66.0398 44.8391C66.0165 44.5988 65.9221 44.3712 65.7688 44.1855C65.6155 43.9998 65.4104 43.8645 65.18 43.7972C64.9495 43.73 64.7043 43.7337 64.4759 43.8081C63.8626 44.0101 63.2012 44.0101 62.5879 43.8081C62.3594 43.7329 62.1138 43.7285 61.8829 43.7955C61.6519 43.8625 61.4463 43.9977 61.2927 44.1837C61.1391 44.3696 61.0447 44.5977 61.0215 44.8383C60.9984 45.0789 61.0477 45.321 61.1631 45.5331L61.6175 46.3671ZM61.6175 46.3671C62.0838 47.4441 61.6503 48.7331 60.5775 49.1941L59.798 49.5281L60.1052 48.2061C60.2335 47.6531 59.8159 47.1231 59.2511 47.1231H57.8751C57.7428 47.1229 57.6123 47.1528 57.4931 47.2105C57.374 47.2683 57.2694 47.3524 57.1872 47.4566C57.1049 47.5607 57.0472 47.6823 57.0182 47.8121C56.9893 47.9418 56.9899 48.0765 57.02 48.2061L57.3283 49.5281M52.5817 52.3111L57.7091 57.5111M47.0666 53.0751C46.6256 51.6021 46.6076 50.0338 47.0149 48.5511C47.0559 48.4011 47.1354 48.2647 47.2455 48.1555C47.3555 48.0462 47.4921 47.968 47.6416 47.9286C47.7912 47.8892 47.9484 47.89 48.0975 47.931C48.2467 47.972 48.3825 48.0516 48.4913 48.1621L50.6131 50.3141M47.3271 58.4841C46.3048 57.9278 45.44 57.1193 44.8138 56.1344C44.1877 55.1496 43.8208 54.0207 43.7478 52.8541C43.7385 52.7057 43.7681 52.5575 43.8337 52.4244C43.8993 52.2912 43.9986 52.1777 44.1215 52.0952C44.2445 52.0128 44.3868 51.9643 44.5343 51.9546C44.6818 51.9449 44.8292 51.9744 44.9617 52.0401L57.7011 58.3571M49.9042 63.0191C48.7149 63.0988 47.5282 62.829 46.4886 62.2426C45.4491 61.6561 44.6015 60.7783 44.049 59.7161C43.9766 59.5766 43.9419 59.4204 43.9484 59.2631C43.9549 59.1059 44.0023 58.9531 44.086 58.8201C44.1697 58.6872 44.2866 58.5786 44.4252 58.5054C44.5637 58.4322 44.7189 58.3969 44.8752 58.4031L57.7081 58.9081M54.4748 65.8401C53.433 66.2805 52.2954 66.4412 51.1734 66.3066C50.0513 66.172 48.9833 65.7466 48.0738 65.0721C47.9678 64.9934 47.8843 64.8881 47.8315 64.7668C47.7787 64.6454 47.7586 64.5122 47.7731 64.3806C47.7876 64.2489 47.8362 64.1234 47.9141 64.0166C47.992 63.9098 48.0964 63.8255 48.2169 63.7721L57.6951 59.5761M57.2805 68.2161C56.334 68.8461 55.1996 69.1161 53.3691 68.7941C53.2377 68.765 53.1162 68.7018 53.0167 68.6106C52.9172 68.5194 52.8434 68.4035 52.8025 68.2746C52.7616 68.1456 52.7551 68.0081 52.7837 67.8759C52.8123 67.7436 52.875 67.6213 52.9655 67.5211L57.6961 62.2811M80.0052 53.0481C80.4384 51.5828 80.4536 50.0246 80.0489 48.5511C80.0079 48.4011 79.9284 48.2647 79.8183 48.1555C79.7083 48.0462 79.5717 47.968 79.4222 47.9286C79.2726 47.8892 79.1154 47.89 78.9662 47.931C78.8171 47.972 78.6813 48.0516 78.5725 48.1621L69.3697 57.4971M83.0645 54.3171C83.1997 53.8401 83.2832 53.3491 83.315 52.8541C83.3242 52.7059 83.2946 52.5578 83.229 52.4248C83.1635 52.2917 83.0643 52.1783 82.9415 52.0959C82.8187 52.0135 82.6765 51.965 82.5292 51.9552C82.3819 51.9454 82.2346 51.9746 82.1021 52.0401L69.3607 58.3581M77.1586 63.0191C78.3481 63.099 79.535 62.8293 80.5747 62.2428C81.6145 61.6564 82.4623 60.7785 83.0148 59.7161C83.0872 59.5766 83.1219 59.4204 83.1154 59.2631C83.1089 59.1059 83.0615 58.9531 82.9778 58.8201C82.8941 58.6872 82.7772 58.5786 82.6386 58.5054C82.5001 58.4322 82.3449 58.3969 82.1886 58.4031L69.3607 58.9081M72.591 65.8401C73.6325 66.2801 74.7697 66.4406 75.8914 66.306C77.0131 66.1714 78.0808 65.7462 78.99 65.0721C79.096 64.9934 79.1795 64.8881 79.2323 64.7668C79.2851 64.6454 79.3052 64.5122 79.2907 64.3806C79.2762 64.2489 79.2276 64.1234 79.1497 64.0166C79.0718 63.9098 78.9674 63.8255 78.8469 63.7721L69.3617 59.5721M69.8737 68.2781C70.867 68.9041 72.0193 69.1151 73.6947 68.7941C73.8261 68.765 73.9476 68.7018 74.0471 68.6106C74.1466 68.5194 74.2204 68.4035 74.2613 68.2746C74.3022 68.1456 74.3087 68.0081 74.2801 67.8759C74.2515 67.7436 74.1888 67.6213 74.0983 67.5211L69.3607 62.2741" stroke="var(--main-color, #377CB5)" stroke-width="1.2" stroke-miterlimit="10" stroke-linecap="round" stroke-linejoin="round" />
		<path d="M58.5635 47.0431V46.1431" stroke="var(--accent-color, #F58220)" stroke-width="1.2" stroke-miterlimit="10" stroke-linecap="round" stroke-linejoin="round" />
		<path d="M63.5327 56.2579V54.0179C63.5327 53.4283 63.4172 52.8444 63.1928 52.2997C62.9685 51.7549 62.6397 51.26 62.2251 50.843C61.8106 50.4261 61.3185 50.0954 60.7768 49.8697C60.2352 49.6441 59.6547 49.5279 59.0685 49.5279H57.941C57.5943 49.5279 57.2522 49.6076 56.9408 49.7609C56.6295 49.9142 56.357 50.137 56.1444 50.4123C55.9317 50.6877 55.7844 51.0083 55.7138 51.3497C55.6431 51.691 55.651 52.0441 55.7367 52.3819H57.592C57.9329 52.3819 58.2685 52.4665 58.5692 52.6281C58.8698 52.7898 59.1261 53.0235 59.3154 53.3087C59.5048 53.5939 59.6212 53.9216 59.6544 54.2628C59.6876 54.6041 59.6366 54.9483 59.5059 55.2649L59.1003 56.2479M65.4466 46.3669C64.9803 47.4439 65.4128 48.7329 66.4866 49.1939L67.2651 49.5279L66.9579 48.2059C66.9277 48.0764 66.9271 47.9417 66.956 47.8119C66.985 47.6821 67.0427 47.5606 67.125 47.4565C67.2072 47.3523 67.3118 47.2682 67.4309 47.2104C67.5501 47.1527 67.6807 47.1228 67.8129 47.1229H69.19C69.322 47.1231 69.4524 47.1532 69.5713 47.2111C69.6902 47.269 69.7945 47.3531 69.8765 47.4572C69.9585 47.5614 70.0161 47.6828 70.045 47.8124C70.0738 47.9421 70.0731 48.0766 70.043 48.2059L69.7368 49.5279" stroke="var(--main-color, #377CB5)" stroke-width="1.2" stroke-miterlimit="10" stroke-linecap="round" stroke-linejoin="round" />
		<path d="M68.501 47.0431V46.1431" stroke="var(--accent-color, #F58220)" stroke-width="1.2" stroke-miterlimit="10" stroke-linecap="round" stroke-linejoin="round" />
		<path d="M63.5332 54.0181C63.5332 52.8274 64.0034 51.6855 64.8404 50.8435C65.6774 50.0015 66.8126 49.5283 67.9964 49.5281H69.1229C69.4697 49.5279 69.8119 49.6075 70.1234 49.7607C70.4349 49.9139 70.7074 50.1367 70.9202 50.4121C71.133 50.6875 71.2804 51.0081 71.3511 51.3496C71.4218 51.691 71.4139 52.0442 71.3281 52.3821H69.4729C69.132 52.382 68.7963 52.4666 68.4957 52.6283C68.1951 52.7899 67.9387 53.0237 67.7494 53.3088C67.5601 53.594 67.4437 53.9217 67.4105 54.2629C67.3772 54.6042 67.4282 54.9484 67.5589 55.2651L67.9686 56.2581" stroke="var(--main-color, #377CB5)" stroke-width="1.2" stroke-miterlimit="10" stroke-linecap="round" stroke-linejoin="round" />
		<path d="M77.2617 68.6541V69.5611" stroke="var(--accent-color, #F58220)" stroke-width="1.2" stroke-miterlimit="10" stroke-linecap="round" stroke-linejoin="round" />
		<path d="M68.1525 67.7301C66.7498 67.7269 65.4026 68.2811 64.4042 69.2721L63.5322 70.1371L62.6613 69.2721C61.663 68.2807 60.3158 67.7261 58.9129 67.7291C58.7557 67.7295 58.5999 67.6987 58.4545 67.6384C58.3091 67.5782 58.177 67.4898 58.0656 67.3781C57.9542 67.2665 57.8658 67.1339 57.8055 66.9878C57.7451 66.8418 57.714 66.6852 57.7139 66.5271V57.4701C57.7139 56.8061 58.2498 56.2681 58.91 56.2681H68.1565C68.8157 56.2681 69.3516 56.8061 69.3516 57.4701V66.5271C69.3516 67.1921 68.8147 67.7311 68.1525 67.7291V67.7301Z" stroke="var(--main-color, #377CB5)" stroke-width="1.2" stroke-miterlimit="10" stroke-linecap="round" stroke-linejoin="round" />
		<path d="M60.1045 60.717V58.673H66.9599V65.327C66.3217 65.3246 65.6905 65.4604 65.1093 65.7253C64.528 65.9902 64.0103 66.3779 63.5913 66.862L63.5317 66.93L63.472 66.862C63.0532 66.3779 62.5357 65.9903 61.9546 65.7254C61.3735 65.4605 60.7425 65.3246 60.1045 65.327V63.52M63.5327 43.958V43" stroke="var(--accent-color, #F58220)" stroke-width="1.2" stroke-miterlimit="10" stroke-linecap="round" stroke-linejoin="round" />
	</g>
</svg>