<svg id="self" preserveAspectRatio="xMidYMid meet" viewBox="0 0 173 153" fill="none" xmlns="http://www.w3.org/2000/svg">
	<path d="M52.2255 28H123.947V124.471H59.9124H53.2198C50.337 124.471 48 122.121 48 119.221V32.25C48 29.9028 49.8918 28 52.2255 28Z" stroke="var(--main-color, #377CB5)" stroke-width="1.5" />
	<path d="M48.1348 119.25C48.1348 115.65 48.5261 110.25 58.5061 110.25C63.8965 110.25 103.929 110.555 124.891 110.555" stroke="var(--main-color, #377CB5)" stroke-width="1.5" />
	<path d="M61.2871 28.0035V110.149" stroke="var(--main-color, #377CB5)" stroke-width="1.5" />
	<path d="M113.01 69.3567C113.01 80.3359 103.929 89.2686 92.6855 89.2686C81.4428 89.2686 72.3613 80.3359 72.3613 69.3567C72.3613 58.3774 81.4428 49.4448 92.6855 49.4448C103.929 49.4448 113.01 58.3774 113.01 69.3567Z" stroke="var(--main-color, #377CB5)" stroke-width="1.5" />
	<path d="M69.3047 64.0847C69.53 61.8457 70.4885 58.4868 72.9919 55.0782C75.5457 51.601 78.7861 49.7799 79.8395 49.2504" stroke="var(--main-color, #377CB5)" stroke-width="1.5" />
	<path d="M86.9102 63.3111C86.9102 60.7656 87.9916 57.2505 92.3172 57.2505C96.6427 57.2505 97.8468 60.402 97.8468 63.3111V69.2505" stroke="var(--accent-color, #F58220)" stroke-width="1.5" />
	<path d="M92.3792 79.5005C96.0857 79.5005 99.0907 76.4784 99.0907 72.7505C99.0907 69.0226 96.0857 66.0005 92.3792 66.0005C88.6727 66.0005 85.668 69.0226 85.668 72.7505C85.668 76.4784 88.6727 79.5005 92.3792 79.5005Z" stroke="var(--accent-color, #F58220)" stroke-width="1.5" />
	<path d="M92.3781 74.2505C93.2017 74.2505 93.8694 73.5789 93.8694 72.7505C93.8694 71.9221 93.2017 71.2505 92.3781 71.2505C91.5544 71.2505 90.8867 71.9221 90.8867 72.7505C90.8867 73.5789 91.5544 74.2505 92.3781 74.2505Z" fill="var(--accent-color, #F58220)" />
</svg>