<svg id="self" preserveAspectRatio="xMidYMid meet" viewBox="0 0 173 153" fill="none" xmlns="http://www.w3.org/2000/svg">
	<path d="M61.624 70H32.6418C28.1907 70 28.1907 76.1615 32.6418 76.1615L61.624 76.1618M77.936 70H117.134C122.472 70 133.397 73.187 133.397 85.1384C133.397 97.09 122.877 101 117.134 101H115.998M77.936 76.1615L117.134 76.1618C122.877 76.1618 126.922 80.435 126.922 85.1384C126.922 89.8418 122.877 94.566 117.134 94.567H115.454M99.6853 94.566H32.6418C31.4279 94.566 29 95.098 29 97.887C29 100.675 31.4279 101 32.6418 101H99.6853" stroke="var(--main-color, #377CB5)" stroke-width="1.5" />
	<path d="M61.142 63.7741L56.1995 63.7742C50.4571 63.7739 46.4106 59.2018 46.4106 54.6501C46.4106 50.0983 50.4571 45.963 56.1995 45.963L140.692 45.9627C145.143 45.9627 145.143 40 140.692 40H56.1995C50.8617 40 39.9365 43.0842 39.9365 54.6501C39.9365 66.2159 50.4571 70 56.1995 70H61.6858M77.9977 63.774L140.692 63.7739C141.906 63.7739 144.334 64.2883 144.334 66.987C144.334 69.6857 141.906 70 140.692 70H77.9977" stroke="var(--main-color, #377CB5)" stroke-width="1.5" />
	<path d="M141.351 45V64" stroke="var(--main-color, #377CB5)" stroke-width="1.5" />
	<path d="M32.9766 76V95" stroke="var(--main-color, #377CB5)" stroke-width="1.5" />
	<path d="M77.7188 55H104.564" stroke="var(--main-color, #377CB5)" stroke-width="1.5" />
	<path d="M77.7185 55H61.8105V85L69.7645 82.1698L77.7185 85V55Z" stroke="var(--accent-color, #F58220)" stroke-width="1.5" />
	<path d="M99.5915 85H84.6777" stroke="var(--main-color, #377CB5)" stroke-width="1.5" />
	<path d="M99.5918 85H116.495V114L108.043 111.264L99.5918 114V85Z" stroke="var(--accent-color, #F58220)" stroke-width="1.5" />
</svg>