<svg id="self" preserveAspectRatio="xMidYMid meet" viewBox="0 0 173 153" fill="none" xmlns="http://www.w3.org/2000/svg">
	<path d="M36.5259 63.7306L83.937 44.5028C84.759 44.1694 85.649 43.998 86.5487 44C87.4484 44.0021 88.3375 44.1774 89.1577 44.5145L135 63.3569C136.028 63.7788 136.898 64.4658 137.501 65.3331C138.106 66.2004 138.418 67.21 138.4 68.2372C138.382 69.2643 138.033 70.2642 137.399 71.1131C136.765 71.9621 135.87 72.6232 134.828 73.0145L89.0859 90.2113C88.2824 90.5133 87.4198 90.6631 86.5507 90.6517C85.6816 90.6403 84.8242 90.4678 84.0304 90.1447L36.5195 70.8106C35.769 70.5055 35.1315 70.0085 34.6843 69.3799C34.2372 68.7514 33.9995 68.0182 34 67.2691C34.0005 66.52 34.2394 65.7871 34.6874 65.1591C35.1355 64.5311 35.775 64.0348 36.5259 63.7306Z" stroke="var(--main-color, #377CB5)" stroke-width="1.5" />
	<path d="M49.0117 76.7029V89.3727C49.0116 90.4748 49.3537 91.5543 49.9985 92.4866C50.643 93.4188 51.564 94.166 52.655 94.6413L83.8911 108.251C84.7224 108.613 85.6297 108.808 86.5511 108.821C87.4723 108.835 88.386 108.667 89.2297 108.33L118.873 96.4738C120.012 96.0178 120.982 95.2693 121.662 94.3195C122.343 93.3699 122.705 92.2601 122.705 91.1258V76.7029M86.5412 109.405V98.0856M134.989 73.5588V89.91" stroke="var(--main-color, #377CB5)" stroke-width="1.5" />
	<path d="M138.121 93.0121C138.121 91.435 136.718 90.1565 134.988 90.1565C133.258 90.1565 131.854 91.435 131.854 93.0121V104.416C131.854 105.993 133.258 107.271 134.988 107.271C136.718 107.271 138.121 105.993 138.121 104.416V93.0121Z" stroke="var(--accent-color, #F58220)" stroke-width="1.5" />
</svg>