<svg id="self" preserveAspectRatio="xMidYMid meet" viewBox="0 0 173 153" fill="none" xmlns="http://www.w3.org/2000/svg">
	<path d="M52.2997 28H125.279V124.471H60.1214H53.3114C50.3779 124.471 48 122.121 48 119.221V32.25C48 29.9028 49.925 28 52.2997 28Z" stroke="var(--main-color, #377CB5)" stroke-width="1.5" />
	<path d="M48.3594 119.014C48.3594 115.344 48.7547 109.838 58.8396 109.838C64.2868 109.838 104.739 110.148 125.922 110.148" stroke="var(--main-color, #377CB5)" stroke-width="1.5" />
	<path d="M61.5215 28.0035V110.149" stroke="var(--main-color, #377CB5)" stroke-width="1.5" />
	<path d="M82.9028 67.0511L78.4395 71.4629C75.6738 74.1965 75.6738 78.6287 78.4395 81.3624L79.8702 82.7766C82.6359 85.5102 87.1198 85.5103 89.8855 82.7766L94.8932 77.8268C97.6588 75.0932 97.6588 70.661 94.8932 67.9273L93.1678 66.222" stroke="var(--accent-color, #F58220)" stroke-width="1.5" />
	<path d="M101.873 70.9253L106.336 66.5136C109.102 63.7799 109.102 59.3478 106.336 56.6141L104.905 55.1999C102.14 52.4662 97.6562 52.4662 94.8905 55.1999L89.8829 60.1496C87.1172 62.8833 87.1172 67.3155 89.8829 70.0491L91.6082 71.7545" stroke="var(--accent-color, #F58220)" stroke-width="1.5" />
</svg>