<svg id="self" preserveAspectRatio="xMidYMid meet" viewBox="0 0 173 153" fill="none" xmlns="http://www.w3.org/2000/svg">
	<path d="M52.2747 28H124.83V124.471H60.0509H53.2805C50.3641 124.471 48 122.121 48 119.221V32.25C48 29.9028 49.9138 28 52.2747 28Z" stroke="var(--main-color, #377CB5)" stroke-width="1.5" />
	<path d="M48.1367 119.25C48.1367 115.65 48.5325 110.25 58.6285 110.25C64.0817 110.25 104.579 110.555 125.785 110.555" stroke="var(--main-color, #377CB5)" stroke-width="1.5" />
	<path d="M61.4434 28.0037V110.149" stroke="var(--main-color, #377CB5)" stroke-width="1.5" />
	<path d="M92.8941 87.5004C103.309 87.5004 111.753 79.1057 111.753 68.7504C111.753 58.395 103.309 50.0004 92.8941 50.0004C82.4787 50.0004 74.0352 58.395 74.0352 68.7504C74.0352 79.1057 82.4787 87.5004 92.8941 87.5004Z" stroke="var(--main-color, #377CB5)" stroke-width="1.5" />
	<path d="M70.543 63.7912C70.7599 61.6614 71.6823 58.4663 74.0912 55.224C76.5486 51.9164 79.6668 50.1841 80.6805 49.6805" stroke="var(--main-color, #377CB5)" stroke-width="1.5" />
	<path d="M100.342 60.6522C99.8009 60.4709 94.7453 59.0051 92.7615 63.1016C89.8888 58.3803 82.2906 60.1833 81.3901 65.8237C80.7829 69.6273 84.8023 73.2635 86.2463 74.5337L93.0322 80.25C93.3933 79.8871 95.0535 78.6713 99.6018 74.5337C104.15 70.3959 104.674 68.0011 104.403 65.8236C104.133 63.6462 102.779 61.4683 100.342 60.6522Z" stroke="var(--accent-color, #F58220)" stroke-width="1.5" />
</svg>