<svg id="self" preserveAspectRatio="xMidYMid meet" viewBox="0 0 173 153" fill="none" xmlns="http://www.w3.org/2000/svg">
	<mask id="mask0_185_670" style="mask-type:luminance" maskUnits="userSpaceOnUse" x="40" y="23" width="94" height="107">
		<path d="M133.256 40.7854C133.621 41.1422 133.827 41.6262 133.827 42.1308V127.327C133.827 128.378 132.954 129.23 131.878 129.23H41.9485C40.8724 129.23 40 128.378 40 127.327V24.9026C40 23.8519 40.8724 23 41.9485 23H114.234C114.751 23 115.247 23.2005 115.612 23.5573L133.256 40.7854Z" fill="white" />
	</mask>
	<g mask="url(#mask0_185_670)">
		<path d="M133.827 42.1308H132.204V127.327H133.827H135.452V42.1308H133.827ZM131.879 129.23V127.644H41.9493V129.23V130.815H131.879V129.23ZM40.0008 127.327H41.6245V24.9026H40.0008H38.377V127.327H40.0008ZM41.9493 23.0001V24.5855H114.235V23.0001V21.4146H41.9493V23.0001ZM115.613 23.5573L114.465 24.6784L132.109 41.9065L133.257 40.7855L134.405 39.6644L116.761 22.4362L115.613 23.5573ZM114.235 23.0001V24.5855C114.321 24.5855 114.404 24.619 114.465 24.6784L115.613 23.5573L116.761 22.4362C116.091 21.7821 115.182 21.4146 114.235 21.4146V23.0001ZM40.0008 24.9026H41.6245C41.6245 24.7275 41.7699 24.5855 41.9493 24.5855V23.0001V21.4146C39.9764 21.4146 38.377 22.9762 38.377 24.9026H40.0008ZM41.9493 129.23V127.644C41.7699 127.644 41.6245 127.502 41.6245 127.327H40.0008H38.377C38.377 129.253 39.9764 130.815 41.9493 130.815V129.23ZM133.827 127.327H132.204C132.204 127.502 132.058 127.644 131.879 127.644V129.23V130.815C133.852 130.815 135.452 129.253 135.452 127.327H133.827ZM133.827 42.1308H135.452C135.452 41.2057 135.075 40.3184 134.405 39.6644L133.257 40.7855L132.109 41.9065C132.17 41.9659 132.204 42.0467 132.204 42.1308H133.827Z" fill="var(--main-color, #377CB5)" />
	</g>
	<path d="M117.554 42.1673C115.761 42.1673 114.307 40.7476 114.307 38.9964V24.6966C114.307 24.4147 114.655 24.273 114.859 24.4713L132.585 41.625C132.79 41.8244 132.646 42.1673 132.356 42.1673H117.554Z" stroke="var(--main-color, #377CB5)" stroke-width="1.85941" />
	<path d="M53.0996 69.0448H119.467" stroke="var(--main-color, #377CB5)" stroke-width="2.2313" stroke-linecap="round" />
	<path d="M53.2383 80.8929H86.2823" stroke="var(--main-color, #377CB5)" stroke-width="2.2313" stroke-linecap="round" />
	<path d="M53.2383 92.693H76.8389" stroke="var(--main-color, #377CB5)" stroke-width="2.2313" stroke-linecap="round" />
	<path d="M53.2383 104.497H79.7172" stroke="var(--main-color, #377CB5)" stroke-width="2.2313" stroke-linecap="round" />
	<path d="M53.5312 52.3674V36.9764H57.4345C59.5888 36.9764 60.6553 37.1847 61.5938 37.7678C62.8736 38.5801 63.5989 39.9963 63.5989 41.725C63.5989 43.5577 62.7669 45.1405 61.4018 45.8903C60.5487 46.3484 59.5461 46.5151 57.3919 46.5151H56.4534V52.3674H53.5312ZM56.4534 43.7868H57.3066C58.1598 43.7868 58.8423 43.7243 59.3116 43.5785C60.1434 43.3494 60.6553 42.6621 60.6553 41.7874C60.6553 40.8086 60.1434 40.0796 59.2902 39.8505C58.8423 39.7464 58.3944 39.7047 57.4345 39.7047H56.4534V43.7868ZM65.7584 52.3674V36.9764H76.9346V52.3674H74.0126V39.7047H68.6805V52.3674H65.7584ZM96.0677 55.3873H94.0199L93.4226 52.3674H81.3926L80.7961 55.3873H78.7483V49.6391H80.838L86.2348 36.9764H88.5812L93.9771 49.6391H96.0677V55.3873ZM83.8674 49.6391H90.9487L87.4076 41.2042L83.8674 49.6391Z" fill="var(--main-color, #377CB5)" />
	<path d="M105.501 112.654C114.73 112.654 122.212 105.348 122.212 96.3361C122.212 87.3246 114.73 80.0188 105.501 80.0188C96.2712 80.0188 88.7891 87.3246 88.7891 96.3361C88.7891 105.348 96.2712 112.654 105.501 112.654Z" stroke="var(--accent-color, #F58220)" stroke-width="1.73972" />
	<path d="M97.1425 102.268C96.3828 101.279 94.8633 98.5591 94.8633 95.593C94.8633 92.6257 96.3828 90.401 97.1425 89.6592" stroke="var(--accent-color, #F58220)" stroke-width="1.73972" stroke-linecap="round" />
	<path d="M119.228 107.027L127.598 115.198C128.783 116.357 128.783 118.235 127.598 119.394C126.411 120.553 124.487 120.553 123.3 119.394L114.932 111.223L119.228 107.027Z" stroke="var(--accent-color, #F58220)" stroke-width="1.73972" />
</svg>