<svg id="self" preserveAspectRatio="xMidYMid meet" viewBox="0 0 173 153" fill="none" xmlns="http://www.w3.org/2000/svg">
	<path d="M53.8689 89H131.118C135.188 89 135.188 94.5652 131.118 94.5652L53.8689 94.5655C48.6188 94.5655 44.9193 98.4251 44.9193 102.673C44.9193 106.922 48.6188 111.189 53.8689 111.189H131.118C132.228 111.189 134.448 111.669 134.448 114.188C134.448 116.707 132.228 117 131.118 117H53.8689C48.6188 117 39 113.468 39 102.673C39 91.8786 48.9887 89 53.8689 89Z" stroke="var(--main-color, #377CB5)" stroke-width="1.5" />
	<path d="M62.862 60H53.8689C48.9887 60 39 62.9814 39 74.1617C39 85.342 48.6188 89 53.8689 89H131.118C132.228 89 134.448 88.6961 134.448 86.0874C134.448 83.4787 132.228 82.9814 131.118 82.9814L53.8689 82.9818C48.6188 82.9814 44.9193 78.5617 44.9193 74.1617C44.9193 69.7617 48.6188 65.7643 53.8689 65.7643L62.862 65.7642M79.7643 60H131.118C135.188 60 135.188 65.7639 131.118 65.7639L79.7643 65.7641" stroke="var(--main-color, #377CB5)" stroke-width="1.5" />
	<path d="M59.4998 60C55.07 60 46.9541 56.9727 46.9541 47.7201C46.9541 38.4674 55.3821 36 59.4998 36H124.679C128.113 36 128.113 40.7702 124.679 40.7702L59.4998 40.7704C55.07 40.7704 51.9485 44.0787 51.9485 47.7201C51.9485 51.3614 55.07 55.0191 59.4998 55.0194L62.8621 55.0192M79.7644 55.0192L124.679 55.0191C125.615 55.0191 127.489 55.4306 127.489 57.5896C127.489 59.7485 125.615 60 124.679 60H79.7644" stroke="var(--main-color, #377CB5)" stroke-width="1.5" />
	<path d="M79.7646 47H62.8623V73.5L71.3134 71L79.7646 73.5V47Z" stroke="var(--accent-color, #F58220)" stroke-width="1.5" />
	<path d="M131.466 94V111" stroke="var(--main-color, #377CB5)" stroke-width="1.5" />
	<path d="M131.466 66V82" stroke="var(--main-color, #377CB5)" stroke-width="1.5" />
	<path d="M123.512 41V54" stroke="var(--main-color, #377CB5)" stroke-width="1.5" />
</svg>