<svg id="self" preserveAspectRatio="xMidYMid meet" viewBox="0 0 173 153" fill="none" xmlns="http://www.w3.org/2000/svg">
	<path d="M25 96.1549L71.2817 28C75.7643 29.8058 88.1527 33.6271 101.845 34.466C115.537 35.3048 130.138 34.466 135.377 32.0194L123.165 52.9901M25 96.1549C31.8113 96.1549 48.4727 96.5044 60.6282 97.9024C72.7837 99.3005 87.2329 103.145 92.938 104.893L123.165 52.9901M25 96.1549C31.9277 102.388 50.8828 115.902 71.2817 120.096C91.6806 124.291 106.576 125.617 111 125.5L148 65C144.5 67.777 139 72 130.138 69.3388M25 96.1549C31.6366 99.0675 48.9268 105.871 64.9944 109.786C81.062 113.7 97.4113 114.641 103 114L140 52.9901C138.195 53.6891 135.692 55 131.5 55C127.308 55 123.743 53.6891 123.165 52.9901" stroke="var(--main-color, #377CB5)" stroke-width="1.5" />
	<path d="M76.3012 39L71.5 46C72.5 47.4868 83.1948 49.8026 91.5 51C98.1442 51.9579 106.283 51.943 109.522 52L115.5 43.5C111 44 101.252 43.4474 95.0321 42.7632C88.812 42.0789 79.9531 39.9693 76.3012 39Z" stroke="var(--accent-color, #F58220)" stroke-width="1.5" />
	<path d="M65 56C69 58 75.1182 59.88 81.5 61C87.8818 62.12 95 63 104 63" stroke="var(--main-color, #377CB5)" stroke-width="1.5" />
	<path d="M59 66C61.9865 67.0588 69.5623 69.6785 76.5 71C87 73 94 73 98 73" stroke="var(--main-color, #377CB5)" stroke-width="1.5" />
</svg>