<svg id="self" preserveAspectRatio="xMidYMid meet" viewBox="0 0 173 153" fill="none" xmlns="http://www.w3.org/2000/svg">
	<path d="M120.88 40.2547C124.134 40.2547 124.134 40.2793 127.076 40.7826C130.018 41.2859 132.425 42.875 132.425 42.875V116C129.169 114.929 120.347 112.786 111.111 112.786C101.875 112.786 91.2771 114.929 87.1328 116M87.1328 116C84.1726 114.929 75.7655 112.786 65.8191 112.786C55.8727 112.786 45.0975 114.929 40.9531 116V42.875C45.0975 41.5357 52.7912 38.8571 64.0429 38.8571C75.2947 38.8571 82.9884 41.5357 87.1328 42.875M87.1328 116V42.875M87.1328 116L120.88 103.609V26L87.1328 42.875" stroke="var(--main-color, #377CB5)" stroke-width="1.5" />
	<path d="M50.5645 55.9412C52.9139 54.8823 58.846 52.7646 63.7797 52.7646C68.7134 52.7646 74.0582 54.1764 76.1138 54.8822" stroke="var(--accent-color, #F58220)" stroke-width="1.5" />
	<path d="M50.5645 78.1765C52.9139 77.1177 58.846 75 63.7797 75C68.7134 75 74.0582 76.4118 76.1138 77.1177" stroke="var(--main-color, #377CB5)" stroke-width="1.5" />
	<path d="M50.5645 67.0589C52.9139 66 58.846 63.8824 63.7797 63.8824C68.7134 63.8824 74.0582 65.2942 76.1138 66" stroke="var(--main-color, #377CB5)" stroke-width="1.5" />
	<path d="M50.5645 89.2941C52.9139 88.2353 58.846 86.1176 63.7797 86.1176C68.7134 86.1176 74.0582 87.5294 76.1138 88.2353" stroke="var(--main-color, #377CB5)" stroke-width="1.5" />
	<path d="M50.5645 100.412C52.9139 99.3531 58.846 97.2354 63.7797 97.2354C68.7134 97.2354 74.0582 98.6472 76.1138 99.3531" stroke="var(--main-color, #377CB5)" stroke-width="1.5" />
	<path d="M95.2773 49.5882L112.843 41.647" stroke="var(--main-color, #377CB5)" stroke-width="1.5" />
	<path d="M95.2773 60.7058L112.843 52.7646" stroke="var(--main-color, #377CB5)" stroke-width="1.5" />
	<path d="M95.2773 71.8236L112.843 63.8824" stroke="var(--main-color, #377CB5)" stroke-width="1.5" />
	<path d="M95.2773 82.9412L112.843 75" stroke="var(--main-color, #377CB5)" stroke-width="1.5" />
	<path d="M95.2773 94.0588L112.843 86.1176" stroke="var(--main-color, #377CB5)" stroke-width="1.5" />
	<path d="M39.0073 49H35.9828C34.3354 49 33 50.3431 33 52V119.19C33 120.847 34.3354 122.19 35.9828 122.19H82.2462C82.4966 123.775 83.8252 127 87.4405 127C91.1951 127 92.5086 123.487 92.7589 122.19H137.397C139.044 122.19 140.38 120.847 140.38 119.19V52C140.38 50.3431 139.044 49 137.397 49H134.748" stroke="var(--main-color, #377CB5)" stroke-width="1.5" />
</svg>