<svg id="self" preserveAspectRatio="xMidYMid meet" viewBox="0 0 173 153" fill="none" xmlns="http://www.w3.org/2000/svg">
	<path d="M35.0192 58.2088L91.9231 70.1648L142.356 41.5824L86.2137 30L35.0192 58.2088ZM35.0192 58.2088C33.5602 58.8315 30.7181 61.2725 31.0226 66.0549C31.3271 70.8374 34.7021 73.9011 36.3514 74.8352L65.0888 81" stroke="var(--main-color, #377CB5)" stroke-width="1.5" />
	<path d="M35.9216 76C34.2817 76.9978 31.002 80.1535 31.002 84.7935C31.002 89.4335 34.2817 91.9656 35.9216 92.6516L91.5517 105L139.375 78.4235M139.375 78.4235L140.369 77.871C139.044 77.0806 136.392 74.5 136.392 69.5C136.392 64.5 139.375 61.6667 140.369 60M139.375 78.4235C137.884 79.6157 135.199 83.3 136.392 88.5C137.585 93.7 139.541 95 140.369 95" stroke="var(--main-color, #377CB5)" stroke-width="1.5" />
	<path d="M91.6498 70C90.8213 71 89.1641 74 89.1641 78C89.1641 82 90.8213 85.3333 91.6498 86.5" stroke="var(--main-color, #377CB5)" stroke-width="1.5" />
	<path d="M91.6507 87C90.6565 88.0909 88.668 91.3636 88.668 95.7273C88.668 100.091 90.6565 103.727 91.6507 105" stroke="var(--main-color, #377CB5)" stroke-width="1.5" />
	<path d="M91.6507 105C90.6565 106.091 88.668 109.364 88.668 113.727C88.668 118.091 90.6565 121.727 91.6507 123" stroke="var(--main-color, #377CB5)" stroke-width="1.5" />
	<path d="M35.367 93C33.9772 93.7792 31.1595 96.3117 31.0078 100.208C30.8562 104.104 32.9663 107.935 34.0403 109.364L92.0372 123L140.367 94.7532" stroke="var(--main-color, #377CB5)" stroke-width="1.5" />
	<path d="M78.7266 84L91.3225 87L140.37 60C139.21 59.8333 136.89 58.1 136.89 52.5C136.89 46.9 139.21 43.8333 140.37 43" stroke="var(--main-color, #377CB5)" stroke-width="1.5" />
	<path d="M90.8788 41L79.7188 47.5185L98.5894 52L109.546 45.2778L90.8788 41Z" stroke="var(--accent-color, #F58220)" stroke-width="1.5" />
	<path d="M68.7812 89.9439V72L77.7295 73.4953V92L73.1603 87.514L68.7812 89.9439Z" stroke="var(--accent-color, #F58220)" stroke-width="1.5" />
</svg>