<svg id="self" preserveAspectRatio="xMidYMid meet" viewBox="0 0 173 153" fill="none" xmlns="http://www.w3.org/2000/svg">
	<path d="M101.46 48.156V29.0972H49.0288C46.2989 29.0972 44.0859 31.3358 44.0859 34.0972V99.4012C44.0859 102.715 46.7415 105.401 50.0174 105.401H52.8035H68.0956" stroke="var(--main-color, #377CB5)" stroke-width="1.5" />
	<path d="M44.4639 100.567C44.4639 97.7086 44.4639 93.4204 52.8047 93.4204C56.899 93.4204 52.1745 93.6623 68.0968 93.6623" stroke="var(--main-color, #377CB5)" stroke-width="1.5" />
	<path d="M54.8203 29.6841V93.6624" stroke="var(--main-color, #377CB5)" stroke-width="1.5" />
	<path d="M72.7551 47.8472H126.298V121.709H77.4936H73.7437C70.8774 121.709 68.5537 119.359 68.5537 116.459V52.0972C68.5537 49.75 70.4348 47.8472 72.7551 47.8472Z" stroke="var(--main-color, #377CB5)" stroke-width="1.5" />
	<path d="M68.6523 117.685C68.6523 114.861 68.9495 110.626 76.5299 110.626C80.6241 110.626 111.031 110.865 126.952 110.865" stroke="var(--main-color, #377CB5)" stroke-width="1.5" />
	<path d="M78.5459 47.6769V110.865" stroke="var(--main-color, #377CB5)" stroke-width="1.5" />
	<path d="M97.1387 98.7125V56.4244C97.1387 56.4244 97.9189 54.7583 100.323 54.734C102.728 54.7096 103.301 56.4244 103.301 56.4244V98.7125M97.1387 98.7125L100.488 105.106L103.301 98.7125M97.1387 98.7125C97.5339 98.1372 98.9551 97.2953 100.323 97.2953C101.926 97.2953 102.729 98.1471 103.301 98.7125" stroke="var(--accent-color, #F58220)" stroke-width="1.5" stroke-linejoin="round" />
	<path d="M99.9004 103.394L101.124 103.376" stroke="var(--accent-color, #F58220)" stroke-width="1.5" />
	<path d="M108.257 30.9418C109.921 29.6239 114.523 27.6565 119.614 30.3297C124.705 33.0028 125.195 37.6433 124.378 39.4067" stroke="var(--main-color, #377CB5)" stroke-width="1.5" />
	<path d="M120.778 36.8808L124.598 40.2787L128.818 36.6177" stroke="var(--main-color, #377CB5)" stroke-width="1.5" />
	<path d="M63.6798 122.5C61.9041 123.7 57.1426 125.349 52.3019 122.339C47.4613 119.328 47.3822 114.668 48.3511 112.965" stroke="var(--main-color, #377CB5)" stroke-width="1.5" />
	<path d="M52.0392 115.479L48.2008 112.097L44 115.775" stroke="var(--main-color, #377CB5)" stroke-width="1.5" />
</svg>