<svg id="self" preserveAspectRatio="xMidYMid meet" viewBox="0 0 173 153" fill="none" xmlns="http://www.w3.org/2000/svg">
	<path d="M95.7289 88.3875L96.9041 91.9929C97.0002 92.2875 97.2758 92.4871 97.5866 92.4871H101.39C101.489 92.4871 101.53 92.6138 101.45 92.672L98.3732 94.9003C98.1217 95.0824 98.0164 95.4053 98.1125 95.7L99.2877 99.3051C99.3184 99.3995 99.2103 99.478 99.1299 99.4193L96.0532 97.1914C95.8017 97.0093 95.4611 97.0092 95.2096 97.1914L92.1329 99.4193C92.0526 99.478 91.9444 99.3995 91.9752 99.3051L93.1504 95.7C93.2464 95.4053 93.1411 95.0824 92.8897 94.9003L89.813 92.672C89.7326 92.6138 89.7739 92.4871 89.8732 92.4871H93.6763C93.9871 92.4871 94.2626 92.2875 94.3587 91.9929L95.534 88.3875C95.5646 88.2933 95.6982 88.2933 95.7289 88.3875Z" stroke="var(--accent-color, #F58220)" stroke-width="0.766234" stroke-linejoin="round" />
	<path d="M43.4658 47.8567L43.5342 47.8723L43.5391 47.8743C44.8765 48.4372 46.4249 48.807 47.7148 48.8694V48.8704C47.7308 48.8712 47.7458 48.8718 47.7588 48.8723C47.7724 48.8729 47.7834 48.8728 47.7939 48.8733C47.8148 48.8743 47.8279 48.8759 47.8379 48.8772L47.8838 48.8899C60.5618 54.5462 68.4495 61.5471 70.8877 69.0999L70.999 69.4602C72.4686 74.3714 71.6584 79.4187 68.542 84.4924L68.2324 84.9827C68.1934 85.0432 68.1227 85.0724 68.0547 85.0608L67.9893 85.0354L67.9404 84.9885C67.9273 84.9696 67.9179 84.9488 67.9131 84.927L67.9121 84.8596C67.916 84.8378 67.9241 84.8166 67.9365 84.7971C71.1191 79.8502 72.0973 74.8763 70.7959 70.0276L70.6631 69.5588C68.3656 61.8799 60.4146 54.8795 47.8369 49.2502L47.7715 49.2209L47.6992 49.217L47.1895 49.179C46.1513 49.0748 45.0115 48.8048 43.9346 48.4045L43.4023 48.1936L43.3965 48.1917L43.3389 48.1536L43.3008 48.0969L43.2871 48.0295C43.2872 48.0073 43.2917 47.9846 43.3008 47.9631L43.3398 47.9075C43.3566 47.8911 43.376 47.8779 43.3975 47.8694C43.4192 47.8608 43.4426 47.8563 43.4658 47.8567Z" fill="var(--accent-color, #F58220)" stroke="var(--accent-color, #F58220)" stroke-width="0.766234" />
	<path d="M152.121 77.4231C151.622 75.7626 150.603 75.3668 149.578 75.7039C146.949 76.5674 142.715 82.4483 136.975 93.2265C135.828 92.9896 134.649 92.9654 133.587 93.1355C101.845 73.2154 108.871 55.7426 111.786 50.8568C111.992 50.5138 112.209 50.1782 112.438 49.8505C113.26 49.8469 114.104 49.7292 114.805 49.5234C120.131 55.0258 127.773 60.3487 134.507 56.6823C136.013 55.8634 136.45 54.6111 135.131 53.2055C133.083 51.0241 127.033 48.4027 117.075 45.3867C117.618 44.3467 117.388 42.9845 115.914 41.8972C114.28 40.6918 111.197 39.9467 108.542 40.8255C103.425 35.9168 94.008 28.744 86.5785 33.636C85.3118 34.4705 84.9064 35.6123 85.9049 36.7764C88.1214 39.3604 96.5975 41.7362 104.381 43.4459C103.479 44.9513 104.341 46.5533 105.743 47.6665C93.9793 59.9099 72.6059 53.4921 63.8852 50.1269C60.2443 48.7218 56.6627 47.0407 53.7677 45.3795C53.4683 44.17 52.491 43.2213 51.6532 42.6025C55.2536 42.5694 68.3935 42.4204 70.8994 39.8648C71.5984 39.1519 71.6794 38.1228 70.5054 37.0239C63.969 30.9032 53.2581 36.7035 48.6672 39.7042C45.4454 38.1353 41.0031 38.7751 39.6769 41.032C28.2238 40.4987 23.9537 41.3176 22.2783 42.1402C20.8494 42.8416 20.5276 44.104 21.7782 45.4466C26.0305 50.0108 32.8319 48.9714 38.6627 46.6624C38.4572 48.9186 38.5245 50.2725 39.2092 51.1023C41.1059 53.4033 44.3849 54.1058 47.3726 54.0231C64.96 63.0765 70.9408 77.3362 59.3471 92.7733C58.2611 89.895 55.26 83.2926 50.5399 79.456C47.9009 77.3112 45.1092 76.3475 42.2249 76.5824C40.7373 76.7035 39.0417 77.0384 38.7359 78.4972C38.1737 81.1795 43.5351 86.5452 54.6677 94.4474C54.1279 94.7739 53.7158 95.175 53.4427 95.632C50.4968 96.625 50.5259 98.3055 50.2341 100.45C49.9389 102.617 49.6968 104.8 50.6247 106.03C53.9799 110.467 63.5088 110.802 64.5499 106.301C64.5571 106.27 64.5555 106.276 64.6495 105.646C69.3753 112.053 76.1122 117.922 83.5073 114.958C85.3915 114.203 85.7126 112.855 84.896 111.458C82.7447 107.774 71.9682 102.467 68.0807 100.598C76.8539 95.4715 78.416 97.2271 80.9505 100.076C82.9257 102.296 85.3836 105.059 91.6012 105.871C110.572 108.345 107.03 98.9379 111.144 97.5931C113.447 96.8397 118.321 98.4184 126.895 102.706C122.01 106.83 117.398 112.714 119.816 119.111C120.536 121.019 122.027 121.428 123.898 119.678C126.694 117.062 130.2 110.097 131.875 106.634C135.326 109.37 143.374 109.988 144.371 105.682L145.254 101.806C145.817 99.7442 144.182 97.8804 142.319 96.7811C142.046 96.2359 141.633 95.7094 141.098 95.2274C146.559 91.8597 154.524 85.4023 152.121 77.4231ZM87.1945 34.5646C94.0929 30.0226 103.199 37.1883 108.013 41.8643C108.094 41.9425 108.196 41.9945 108.307 42.0135C108.419 42.0325 108.532 42.0176 108.635 41.9707C112.445 40.5051 117.845 43.2049 115.78 45.2799C115.437 45.593 115.604 46.1436 116.04 46.2368C127.437 49.647 132.799 52.3048 134.325 53.9288C135.048 54.6985 134.94 55.1778 133.972 55.7047C127.042 59.4782 118.715 52.5244 113.597 46.5405C113.536 46.4688 113.457 46.4138 113.368 46.3809C113.279 46.348 113.184 46.3381 113.091 46.3523C110.107 46.6877 106.89 45.1994 107.017 43.5584C107.048 43.1559 107.001 42.8658 106.603 42.7824C103.463 42.1266 89.1139 38.9549 86.7804 36.1532C86.2242 35.486 86.4512 35.0545 87.1945 34.5646ZM22.5966 44.6888C21.918 43.9607 21.9401 43.542 22.8362 43.1105C24.6108 42.2559 29.7702 41.6659 39.9878 42.1607C40.1316 42.1686 40.2953 42.1093 40.4156 41.984C40.6094 41.7805 40.7245 40.9396 42.358 40.3484C44.2059 39.6795 46.6365 39.8684 48.4064 40.8185C48.6306 40.939 48.8442 40.9231 49.0151 40.8099C53.22 38.0173 63.6566 32.1375 69.7414 37.835C70.5065 38.5521 70.3929 38.9112 69.8765 39.2895C68.3636 40.3988 62.6842 41.4573 50.5044 41.4961C50.107 41.4961 49.8235 41.9194 50.0047 42.2936C51.3346 45.0382 45.3206 46.609 41.8107 44.3242C41.5451 44.1513 41.3198 44.2649 41.1804 44.3298C35.057 47.1776 27.2082 49.639 22.5966 44.6888ZM63.456 106.071C62.6574 109.383 54.4106 109.187 51.5164 105.36C50.9534 104.614 51.038 103.038 51.2326 101.43C52.334 102.947 54.3759 104.014 56.2072 104.553C56.3485 104.591 56.4996 104.575 56.6279 104.503C56.7561 104.433 56.8513 104.314 56.8928 104.174C56.9344 104.034 56.9188 103.883 56.8497 103.754C56.7806 103.625 56.6634 103.528 56.5233 103.485C54.0422 102.754 51.5387 101.108 51.5384 99.0929C51.5719 98.0371 52.3349 97.3872 53.0545 97.0061C53.0185 100.6 58.5705 102.81 62.3379 102.241C62.7812 102.949 63.2401 103.648 63.7146 104.336L63.456 106.071ZM83.0901 113.924C75.0656 117.141 67.6224 108.685 63.0874 101.334C63.0248 101.233 62.9323 101.157 62.8231 101.112C62.7139 101.068 62.5935 101.06 62.4789 101.086C61.4041 101.3 60.1854 101.264 58.9517 100.98C55.9358 100.287 54.2658 98.5326 54.1745 97.1587C54.1062 96.1234 54.9617 95.4389 55.9308 95.0701C56.3921 94.9262 56.4544 94.3235 56.0667 94.0724C45.4502 86.6021 39.3804 80.8653 39.8291 78.7253C40.0062 77.8779 41.7314 77.7178 42.6007 77.6747C52.8341 77.1672 58.5535 93.8152 58.7001 94.2856C58.7238 94.4017 58.784 94.5072 58.872 94.5868C58.96 94.6664 59.0711 94.7159 59.1893 94.7283C60.1596 94.8277 61.1083 95.0781 62.0009 95.4704C63.8131 96.2701 65.8609 97.957 64.9039 99.6806C64.835 99.8078 64.8187 99.9578 64.8584 100.097C64.8981 100.237 64.9907 100.355 65.1167 100.429C65.2807 100.522 81.7001 107.935 83.9642 112.076C84.4802 113.019 84.1096 113.516 83.0901 113.924ZM110.795 96.5345C105.627 98.2242 110.331 107.19 91.7455 104.766C85.9421 104.009 83.6375 101.418 81.7855 99.3368C78.7377 95.9101 76.5244 94.2475 66.8693 100.019C66.621 99.9021 66.3725 99.7859 66.1237 99.6697C66.4306 98.7561 66.244 97.8517 65.7118 97.0203C83.4724 81.5999 99.2887 79.6806 118.521 90.5893C118.585 90.6255 118.655 90.6487 118.727 90.6579C118.8 90.667 118.875 90.6616 118.946 90.6423C119.016 90.623 119.082 90.5899 119.14 90.545C119.198 90.5002 119.247 90.4444 119.282 90.3808C119.319 90.3173 119.342 90.2471 119.351 90.1746C119.36 90.1021 119.355 90.0285 119.336 89.9579C119.316 89.8874 119.283 89.8214 119.239 89.7637C119.194 89.7059 119.137 89.6576 119.073 89.6214C98.652 78.0382 82.1745 81.2669 65.0087 96.1545C63.9106 95.0503 62.1404 94.0899 60.0269 93.7225C72.4325 77.4773 66.0503 62.3317 47.7624 52.9704C47.6161 52.8955 47.4901 52.9061 47.3277 52.9103C44.0545 52.996 41.4801 52.1033 40.0721 50.3952C39.5824 49.8012 39.6091 48.3398 39.8325 46.1767C40.1825 46.0256 40.6323 45.8326 41.4809 45.4223C44.9674 47.4552 50.472 46.6107 51.2198 43.6717C51.8898 44.2045 52.5823 44.9491 52.7185 45.8212C52.7448 45.9871 52.8439 46.1322 52.9897 46.2165C55.9707 47.9465 59.6971 49.7038 63.4822 51.1649C78.0217 56.775 96.5628 59.4506 106.993 47.9598C107.047 47.9006 107.088 47.8305 107.112 47.7542C107.136 47.678 107.144 47.5975 107.134 47.5181C107.124 47.4388 107.097 47.3625 107.055 47.2945C107.013 47.2263 106.957 47.1681 106.89 47.1237C105.555 46.2326 104.494 44.8473 105.578 43.7045L105.9 43.7725C105.934 44.4509 106.262 45.1053 106.862 45.6812C108.022 46.7952 110.362 47.6865 112.937 47.4822C113.262 47.8568 113.591 48.2266 113.926 48.5915C113.348 48.702 112.759 48.7496 112.17 48.7335C112.079 48.7307 111.99 48.75 111.908 48.7896C111.826 48.8293 111.756 48.8882 111.703 48.9611C111.391 49.3891 111.099 49.8312 110.827 50.2858C109.059 53.2493 106.46 59.4573 108.923 67.7378C111.591 76.7047 119.395 85.3767 132.123 93.5268C129.402 94.6005 128.717 97.3889 130.949 99.6577C129.882 100.374 128.845 101.133 127.838 101.932C118.463 97.2126 113.513 95.6455 110.795 96.5345ZM139.93 103.684C139.784 103.693 139.649 103.759 139.551 103.866C139.453 103.974 139.401 104.115 139.406 104.259C139.411 104.404 139.472 104.541 139.577 104.641C139.682 104.742 139.822 104.798 139.968 104.797C141.467 104.746 142.721 104.409 143.644 103.838L143.282 105.433C142.521 108.719 135.179 108.091 132.371 105.594C132.997 104.275 133.607 102.947 134.202 101.614C137.731 102.787 142.676 101.99 142.713 98.4037C145.56 100.727 144.328 103.536 139.93 103.684ZM139.843 94.6831C139.77 94.7266 139.708 94.786 139.662 94.8568C139.616 94.9277 139.586 95.0081 139.575 95.0921C139.565 95.1759 139.574 95.2612 139.601 95.3412C139.629 95.4212 139.674 95.494 139.734 95.5539C139.823 95.6433 140.542 96.0961 141.065 96.8491C142.052 98.2698 141.607 99.6975 140.198 100.431C138.536 101.296 135.739 101.113 134.13 100.401C134.023 100.354 133.906 100.341 133.793 100.365C133.68 100.388 133.576 100.447 133.498 100.531C133.337 100.703 133.004 101.681 131.206 105.445C131.192 105.469 126.238 116.083 123.064 118.965C121.82 120.093 121.266 119.791 120.861 118.718C117.18 108.982 131.935 100.503 132.284 100.08C132.474 99.8485 132.445 99.4898 132.204 99.2961C131.078 98.3787 130.56 97.3011 130.782 96.3399C131.293 94.1342 134.861 93.8247 137.127 94.4045C137.249 94.4344 137.377 94.4231 137.492 94.3725C137.606 94.3219 137.701 94.2348 137.761 94.1248C144.109 82.1543 148.06 77.3783 149.832 76.7722C150.521 76.5365 150.818 76.9687 151.052 77.7435C153.338 85.3377 145.011 91.6164 139.843 94.6831Z" fill="var(--main-color, #377CB5)" />
</svg>