<svg id="self" preserveAspectRatio="xMidYMid meet" viewBox="0 0 173 153" fill="none" xmlns="http://www.w3.org/2000/svg">
	<path d="M102.704 49.0588V30H49.9712C47.2257 30 45 32.2386 45 35V100.304C45 103.618 47.6708 106.304 50.9655 106.304H53.7677H69.1476" stroke="var(--main-color, #377CB5)" stroke-width="1.5" />
	<path d="M45.3789 101.47C45.3789 98.6114 45.3789 94.3232 53.7677 94.3232C57.8855 94.3232 53.1338 94.5651 69.1477 94.5651" stroke="var(--main-color, #377CB5)" stroke-width="1.5" />
	<path d="M55.7949 30.5869V94.5652" stroke="var(--main-color, #377CB5)" stroke-width="1.5" />
	<path d="M73.833 48.75H127.684V122.612H78.5987H74.8272C71.9445 122.612 69.6074 120.262 69.6074 117.362V53C69.6074 50.6528 71.4993 48.75 73.833 48.75Z" stroke="var(--main-color, #377CB5)" stroke-width="1.5" />
	<path d="M69.707 118.588C69.707 115.764 70.0059 111.529 77.6298 111.529C81.7476 111.529 112.329 111.768 128.342 111.768" stroke="var(--main-color, #377CB5)" stroke-width="1.5" />
	<path d="M79.6572 48.5797V111.768" stroke="var(--main-color, #377CB5)" stroke-width="1.5" />
	<path d="M102.343 66.1588C102.417 65.9285 102.742 65.9285 102.816 66.1588L105.665 74.9785C105.898 75.6995 106.566 76.1877 107.32 76.1877H116.54C116.781 76.1877 116.881 76.4976 116.686 76.6399L109.227 82.0908C108.617 82.5364 108.362 83.3263 108.595 84.0474L111.444 92.867C111.519 93.0973 111.256 93.2889 111.061 93.1465L103.603 87.6957C102.992 87.25 102.167 87.2501 101.556 87.6957L94.0977 93.1465C93.9029 93.2889 93.6408 93.0973 93.7152 92.867L96.5644 84.0474C96.7974 83.3263 96.5424 82.5364 95.9323 82.0908L88.4731 76.6399C88.2783 76.4976 88.3783 76.1877 88.6192 76.1877H97.8393C98.5933 76.1877 99.2614 75.6995 99.4944 74.9785L102.343 66.1588Z" stroke="var(--accent-color, #F58220)" stroke-width="1.5" stroke-linejoin="round" />
</svg>