<svg id="self" preserveAspectRatio="xMidYMid meet" viewBox="0 0 173 153" fill="none" xmlns="http://www.w3.org/2000/svg">
	<path d="M52.25 28H124.386V125.105H59.9813H53.25C50.3505 125.105 48 122.74 48 119.821V32.278C48 29.9153 49.9028 28 52.25 28Z" stroke="var(--main-color, #377CB5)" stroke-width="1.5" />
	<path d="M48.1348 119.85C48.1348 116.226 48.5283 110.791 58.566 110.791C63.9876 110.791 104.251 111.098 125.335 111.098" stroke="var(--main-color, #377CB5)" stroke-width="1.5" />
	<path d="M61.3633 28.0037V110.689" stroke="var(--main-color, #377CB5)" stroke-width="1.5" />
	<path d="M74.4911 76.5675H72.6445L77.9854 61.9263H79.8036L85.1445 76.5675H83.2979L78.9513 64.2426H78.8376L74.4911 76.5675ZM75.1729 70.8483H82.6161V72.4211H75.1729V70.8483ZM87.4101 76.5675V61.9263H96.1885V63.4991H89.1715V68.0745H92.8646C93.9063 68.0745 94.7846 68.2461 95.4996 68.5892C96.2193 68.9324 96.7638 69.4161 97.1331 70.0404C97.5072 70.6648 97.6942 71.4011 97.6942 72.2495C97.6942 73.0978 97.5072 73.8461 97.1331 74.4942C96.7638 75.1425 96.2193 75.65 95.4996 76.017C94.7846 76.384 93.9063 76.5675 92.8646 76.5675H87.4101ZM89.1715 75.0233H92.8646C93.5275 75.0233 94.0886 74.8898 94.5479 74.623C95.0119 74.3513 95.3623 74.0034 95.599 73.5791C95.8405 73.1502 95.9612 72.6975 95.9612 72.2209C95.9612 71.5203 95.6937 70.9174 95.1587 70.4122C94.6236 69.9022 93.859 69.6473 92.8646 69.6473H89.1715V75.0233ZM100.594 76.5675V61.9263H105.679C106.692 61.9263 107.528 62.1026 108.186 62.4553C108.844 62.8033 109.334 63.2727 109.656 63.8638C109.978 64.4499 110.139 65.1005 110.139 65.8154C110.139 66.4445 110.028 66.964 109.805 67.3739C109.587 67.7838 109.299 68.1078 108.939 68.3461C108.584 68.5844 108.198 68.7608 107.781 68.8752V69.0181C108.226 69.0467 108.674 69.2041 109.123 69.49C109.573 69.7759 109.95 70.1858 110.253 70.7196C110.556 71.2533 110.707 71.9063 110.707 72.6785C110.707 73.4124 110.541 74.0725 110.21 74.6587C109.879 75.2449 109.355 75.7096 108.64 76.0527C107.925 76.3959 106.995 76.5675 105.849 76.5675H100.594ZM102.355 74.9947H105.849C107 74.9947 107.817 74.7707 108.3 74.3227C108.787 73.8699 109.031 73.3219 109.031 72.6785C109.031 72.1827 108.906 71.7252 108.655 71.3058C108.404 70.8816 108.046 70.5433 107.582 70.2907C107.118 70.0333 106.569 69.9046 105.934 69.9046H102.355V74.9947ZM102.355 68.3604H105.622C106.152 68.3604 106.631 68.2556 107.057 68.0459C107.488 67.8362 107.828 67.5407 108.079 67.1594C108.335 66.7781 108.463 66.3301 108.463 65.8154C108.463 65.172 108.24 64.6262 107.795 64.1783C107.35 63.7255 106.645 63.4991 105.679 63.4991H102.355V68.3604Z" fill="var(--accent-color, #F58220)" />
</svg>