<svg id="self" preserveAspectRatio="xMidYMid meet" viewBox="0 0 173 153" fill="none" xmlns="http://www.w3.org/2000/svg">
	<path d="M104.566 35.9563C101.692 35.9563 99.6075 36.6794 98.1173 37.5426C96.4948 38.4825 94.2454 38.433 92.6017 37.5312C87.0446 34.4825 77.7204 36.097 77.7207 46.9562C77.7211 58.7468 85.4852 64.9562 89.2174 64.9562C90.9264 64.9562 92.2732 64.6952 93.3633 64.2745C94.6203 63.7894 96.0523 63.8327 97.3089 64.3186C98.316 64.7081 99.6543 64.9414 101.747 64.9226C106.554 64.8792 113.477 54.2145 113.477 47.2746C113.477 41.4562 110.611 35.9563 104.566 35.9563Z" stroke="var(--main-color, #377CB5)" stroke-width="1.5" />
	<path d="M98.598 27.9563C96.1124 31.4563 95.781 35.123 95.6152 36.9563C95.9537 33.8925 99.3167 28.4386 103.375 25.9572C104.054 25.5418 104.062 24.3548 103.325 24.0578C103.161 23.9918 102.98 23.9764 102.816 24.0427C102.01 24.3689 100.37 25.4611 98.598 27.9563Z" stroke="var(--main-color, #377CB5)" stroke-width="1.5" stroke-linejoin="round" />
	<path d="M61.6239 98.9563H32.6418C28.1907 98.9563 28.1907 105.118 32.6418 105.118H77.9359L117.134 105.118C122.876 105.118 126.922 109.391 126.922 114.094C126.922 118.798 122.876 123.522 117.134 123.523H115.453M77.9359 98.9563H117.134C122.472 98.9563 133.397 102.143 133.397 114.094C133.397 126.046 122.876 129.956 117.134 129.956H115.997H32.6418C31.4279 129.956 29 129.631 29 126.843C29 124.054 31.4279 123.522 32.6418 123.522H115.997" stroke="var(--main-color, #377CB5)" stroke-width="1.5" />
	<path d="M78.1696 92.7304L56.2005 92.7305C50.4581 92.7302 46.4117 88.1581 46.4117 83.6064C46.4117 79.0546 50.4581 74.9193 56.2005 74.9193L140.692 74.919C145.143 74.919 145.143 68.9563 140.692 68.9563H56.2005C50.8628 68.9563 39.9375 72.0405 39.9375 83.6064C39.9375 95.1722 50.4581 98.9563 56.2005 98.9563H78.7134M77.9987 92.7303L140.692 92.7302C141.906 92.7302 144.334 93.2446 144.334 95.9433C144.334 98.642 141.906 98.9563 140.692 98.9563H77.9987" stroke="var(--accent-color, #F58220)" stroke-width="1.5" />
	<path d="M141.352 73.9563V92.9563" stroke="var(--accent-color, #F58220)" stroke-width="1.5" />
	<path d="M32.9785 104.956V123.956" stroke="var(--main-color, #377CB5)" stroke-width="1.5" />
	<path d="M58.8281 83.9563H104.564" stroke="var(--main-color, #377CB5)" stroke-width="1.5" />
	<path d="M99.5938 113.956H46.8984" stroke="var(--main-color, #377CB5)" stroke-width="1.5" />
</svg>