<svg id="self" preserveAspectRatio="xMidYMid meet" viewBox="0 0 173 153" fill="none" xmlns="http://www.w3.org/2000/svg">
	<path d="M85.6035 54.4429V131.126" stroke="var(--main-color, #377CB5)" stroke-width="1.5" />
	<path d="M86.1866 53.8534L32 37.9268V115.79L86.1866 131.717L140.956 115.79V37.9268L86.1866 53.8534Z" stroke="var(--main-color, #377CB5)" stroke-width="1.5" />
	<path d="M41.3223 40.2858V29.668L85.0211 53.263L132.215 29.668V40.2858" stroke="var(--main-color, #377CB5)" stroke-width="1.5" />
	<path d="M48.8984 33.2077V22L85.0228 52.6735L125.226 23.7697V32.6178" stroke="var(--main-color, #377CB5)" stroke-width="1.5" />
	<path d="M36.6621 58.5728V75.4077C36.6621 75.6258 36.9568 75.6882 37.0431 75.4884L43.2729 61.0724C43.3593 60.8726 43.654 60.935 43.654 61.1531V77.4487" stroke="var(--main-color, #377CB5)" stroke-width="1.5" stroke-linecap="round" />
	<path d="M47.8957 62.1119C47.8957 61.6949 47.5618 61.3569 47.15 61.3569C46.7382 61.3569 46.4043 61.6949 46.4043 62.1119H47.8957ZM46.4043 78.6284C46.4043 79.0453 46.7382 79.3834 47.15 79.3834C47.5618 79.3834 47.8957 79.0453 47.8957 78.6284H46.4043ZM53.7222 63.7298C53.7222 63.3129 53.3883 62.9749 52.9765 62.9749C52.5647 62.9749 52.2308 63.3129 52.2308 63.7298H53.7222ZM52.2308 80.398C52.2308 80.8149 52.5647 81.1529 52.9765 81.1529C53.3883 81.1529 53.7222 80.8149 53.7222 80.398H52.2308ZM46.4043 62.1119V69.6623H47.8957V62.1119H46.4043ZM46.4043 69.6623V78.6284H47.8957V69.6623H46.4043ZM46.9527 70.3904L52.5278 71.9385L52.9223 70.4824L47.3473 68.9343L46.9527 70.3904ZM53.7222 71.0163V63.7298H52.2308V71.0163H53.7222ZM52.2308 63.7298V80.398H53.7222V63.7298H52.2308ZM52.5278 71.9385C53.1289 72.1054 53.7222 71.6474 53.7222 71.0163H52.2308C52.2308 70.6509 52.5743 70.3857 52.9223 70.4824L52.5278 71.9385Z" fill="var(--main-color, #377CB5)" />
	<path d="M59.9688 65.6514V82.7577" stroke="var(--main-color, #377CB5)" stroke-width="1.5" stroke-linecap="round" />
	<path d="M56.0527 68.5334C56.0527 67.0154 57.4986 65.9272 58.9344 66.3647L61.5835 67.1717C62.949 67.5878 63.8837 68.8607 63.8837 70.3043V75.7457C63.8837 77.2636 62.4378 78.3518 61.002 77.9145L58.3529 77.1074C56.9874 76.6914 56.0527 75.4183 56.0527 73.9747V68.5334Z" stroke="var(--main-color, #377CB5)" stroke-width="1.5" />
	<path d="M66.9609 66.8303V84.5266" stroke="var(--main-color, #377CB5)" stroke-width="1.5" stroke-linecap="round" />
	<path d="M66.9609 67.4209L68.4695 67.7445C70.3073 68.1388 71.622 69.7814 71.622 71.6835V75.9407C71.622 77.9052 69.7985 79.3467 67.9159 78.8702L66.9609 78.6286" stroke="var(--main-color, #377CB5)" stroke-width="1.5" stroke-linecap="round" />
	<path d="M72.2031 86.2969L76.9484 69.9802C77.0072 69.7781 77.2943 69.7916 77.3343 69.9983L80.9429 88.6564" stroke="var(--main-color, #377CB5)" stroke-width="1.5" stroke-linecap="round" />
	<path d="M73.9512 80.9873L78.6124 82.167" stroke="var(--main-color, #377CB5)" stroke-width="1.5" stroke-linecap="round" />
	<path d="M128.427 84.5096C123.578 94.4325 113.266 98.9845 105.514 95.1015C97.7618 91.2186 95.08 80.1579 99.9293 70.235C104.779 60.312 115.09 55.7601 122.843 59.643C130.595 63.5259 133.276 74.5866 128.427 84.5096Z" stroke="var(--main-color, #377CB5)" stroke-width="1.5" />
	<path d="M94.9277 70.2127C95.5511 68.0524 96.9814 64.9142 99.6532 61.9822C102.378 58.9911 105.323 57.7388 106.268 57.3931" stroke="var(--main-color, #377CB5)" stroke-width="1.5" />
	<path d="M107.746 86.296L110.004 69.1472C110.029 68.9609 110.269 68.9072 110.369 69.0656L113.966 74.7885C114.049 74.9205 114.242 74.9104 114.312 74.7704L117.951 67.4014C118.038 67.2254 118.297 67.2673 118.326 67.4619L120.564 82.7568" stroke="var(--accent-color, #F58220)" stroke-width="1.5" stroke-linecap="round" />
</svg>