<svg id="self" preserveAspectRatio="xMidYMid meet" viewBox="0 0 173 153" fill="none" xmlns="http://www.w3.org/2000/svg">
	<path d="M63.1744 63H36.3683C32.2515 63 32.2515 68.5652 36.3683 68.5652L63.1744 68.5655M78.2616 63H114.516C119.453 63 129.558 65.8786 129.558 76.6734C129.558 87.4682 119.828 91 114.516 91H36.3683C35.2456 91 33 90.7066 33 88.1878C33 85.669 35.2456 85.189 36.3683 85.189L114.516 85.1893C119.828 85.189 123.571 80.9217 123.571 76.6734C123.571 72.4251 119.828 68.5655 114.516 68.5655L78.2616 68.5652" stroke="var(--main-color, #377CB5)" stroke-width="1.5" />
	<path d="M36.0176 68V85" stroke="var(--main-color, #377CB5)" stroke-width="1.5" />
	<path d="M62.672 57.1891L58.1004 57.1893C52.7892 57.189 49.0467 52.9217 49.0467 48.6734C49.0467 44.4251 52.7892 40.5655 58.1004 40.5655L136.248 40.5652C140.365 40.5652 140.365 35 136.248 35H58.1004C53.1635 35 43.0586 37.8786 43.0586 48.6734C43.0586 59.4682 52.7892 63 58.1004 63H63.1749M78.2621 57.189H136.248C137.371 57.189 139.617 57.669 139.617 60.1878C139.617 62.7066 137.371 63 136.248 63H78.2621" stroke="var(--main-color, #377CB5)" stroke-width="1.5" />
	<path d="M136.6 40V57" stroke="var(--main-color, #377CB5)" stroke-width="1.5" />
	<path d="M78.2617 49H102.401" stroke="var(--main-color, #377CB5)" stroke-width="1.5" />
	<path d="M78.263 49H63.1758V76L70.7194 73.4528L78.263 76V49Z" stroke="var(--accent-color, #F58220)" stroke-width="1.5" />
	<path d="M58.1004 91H136.248C140.365 91 140.365 96.5652 136.248 96.5652L58.1004 96.5655C52.7892 96.5655 49.0467 100.425 49.0467 104.673C49.0467 108.922 52.7892 113.189 58.1004 113.189H136.248C137.371 113.189 139.617 113.669 139.617 116.188C139.617 118.707 137.371 119 136.248 119H58.1004C52.7892 119 43.0586 115.468 43.0586 104.673C43.0586 93.8786 53.1635 91 58.1004 91Z" stroke="var(--main-color, #377CB5)" stroke-width="1.5" />
	<path d="M136.6 96V113" stroke="var(--main-color, #377CB5)" stroke-width="1.5" />
</svg>