<svg preserveAspectRatio="xMidYMid meet" xmlns="http://www.w3.org/2000/svg" viewBox="0 0 100 100" style="background: none;" id="self">
  <g transform="rotate(0 50 50)">
    <rect x="48" y="13.5" rx="0" ry="0" width="4" height="23" fill="currentColor" opacity="calc(mod((var(--spinner-opacity) - 11), 12) / 12)"> </rect>
  </g>
  <g transform="rotate(30 50 50)">
    <rect x="48" y="13.5" rx="0" ry="0" width="4" height="23" fill="currentColor" opacity="calc(mod((var(--spinner-opacity) - 10), 12) / 12)"> </rect>
  </g>
  <g transform="rotate(60 50 50)">
    <rect x="48" y="13.5" rx="0" ry="0" width="4" height="23" fill="currentColor" opacity="calc(mod((var(--spinner-opacity) - 9), 12) / 12)"> </rect>
  </g>
  <g transform="rotate(90 50 50)">
    <rect x="48" y="13.5" rx="0" ry="0" width="4" height="23" fill="currentColor" opacity="calc(mod((var(--spinner-opacity) - 8), 12) / 12)"> </rect>
  </g>
  <g transform="rotate(120 50 50)">
    <rect x="48" y="13.5" rx="0" ry="0" width="4" height="23" fill="currentColor" opacity="calc(mod((var(--spinner-opacity) - 7), 12) / 12)"> </rect>
  </g>
  <g transform="rotate(150 50 50)">
    <rect x="48" y="13.5" rx="0" ry="0" width="4" height="23" fill="currentColor" opacity="calc(mod((var(--spinner-opacity) - 6), 12) / 12)"> </rect>
  </g>
  <g transform="rotate(180 50 50)">
    <rect x="48" y="13.5" rx="0" ry="0" width="4" height="23" fill="currentColor" opacity="calc(mod((var(--spinner-opacity) - 5), 12) / 12)"> </rect>
  </g>
  <g transform="rotate(210 50 50)">
    <rect x="48" y="13.5" rx="0" ry="0" width="4" height="23" fill="currentColor" opacity="calc(mod((var(--spinner-opacity) - 4), 12) / 12)"> </rect>
  </g>
  <g transform="rotate(240 50 50)">
    <rect x="48" y="13.5" rx="0" ry="0" width="4" height="23" fill="currentColor" opacity="calc(mod((var(--spinner-opacity) - 3), 12) / 12)"> </rect>
  </g>
  <g transform="rotate(270 50 50)">
    <rect x="48" y="13.5" rx="0" ry="0" width="4" height="23" fill="currentColor" opacity="calc(mod((var(--spinner-opacity) - 2), 12) / 12)"> </rect>
  </g>
  <g transform="rotate(300 50 50)">
    <rect x="48" y="13.5" rx="0" ry="0" width="4" height="23" fill="currentColor" opacity="calc(mod((var(--spinner-opacity) - 1), 12) / 12)"> </rect>
  </g>
  <g transform="rotate(330 50 50)">
    <rect x="48" y="13.5" rx="0" ry="0" width="4" height="23" fill="currentColor" opacity="calc(mod((var(--spinner-opacity)), 12) / 12)"> </rect>
  </g>
</svg>