<svg xmlns="http://www.w3.org/2000/svg" id="self" fill="none" preserveAspectRatio="xMidYMid meet" viewBox="0 0 173 153"><path fill="var(--main-color, #377cb5)" fill-rule="evenodd" d="M124.968 39.03H48.909v-1.399c0-2.556-2.08-4.631-4.645-4.631s-4.646 2.075-4.646 4.631v1.4H35.08c-.596 0-1.08.482-1.08 1.077v53.416c0 .595.484 1.077 1.08 1.077h30.158v7.539c0 .595.484 1.077 1.08 1.077h3.89v8.185H45.884c-.596 0-1.08.482-1.08 1.077v5.816a1.08 1.08 0 0 0 1.08 1.077h82.109a1.08 1.08 0 0 0 1.081-1.077v-5.816c0-.595-.484-1.077-1.081-1.077h-41.58V99.629l6.883-5.028h45.502c.597 0 1.08-.482 1.08-1.077V40.108c0-.595-.483-1.077-1.08-1.077h-4.538v-1.4c0-2.556-2.081-4.631-4.647-4.631-2.564 0-4.645 2.075-4.645 4.631zm-78.003 74.526h79.947v3.662H46.965zm50.782-26.745-.773-1.054-6.398 4.553a1.08 1.08 0 0 1-1.395-.118c-.12-.12-.209-.267-.26-.43a6.39 6.39 0 0 0-6.083-4.422h-9.052c-3.526 0-6.387 2.852-6.387 6.365v9.358h2.809v-7.862c0-.594.484-1.077 1.08-1.077s1.08.483 1.08 1.077v18.201h11.885v-18.2c0-.595.484-1.078 1.08-1.078s1.08.483 1.08 1.077v3.757l12.229-8.932zM40.698 41.185h-4.537v51.263h29.077v-.743c0-4.702 3.83-8.52 8.548-8.52h9.052a8.55 8.55 0 0 1 7.582 4.59l6.167-4.389a1.083 1.083 0 0 1 1.5.24l.764 1.042 8.069-5.894a1.08 1.08 0 0 1 1.714 1.032 1.09 1.09 0 0 1-.437.706l-8.069 5.894.894 1.216c.17.23.24.519.196.8a1.07 1.07 0 0 1-.429.705l-4.544 3.32h41.471V41.186zM78.42 64.447c-5.127 0-9.291 4.15-9.291 9.262 0 5.111 4.163 9.261 9.291 9.261 5.127 0 9.291-4.15 9.291-9.261 0-5.112-4.163-9.262-9.291-9.262m0 2.154c3.935 0 7.13 3.185 7.13 7.108s-3.195 7.107-7.13 7.107-7.13-3.184-7.13-7.107 3.195-7.108 7.13-7.108m-31.67-27.57v-1.4a2.48 2.48 0 0 0-2.485-2.477 2.48 2.48 0 0 0-2.485 2.477v1.4zm85.351 0v-1.4a2.483 2.483 0 0 0-2.487-2.477 2.48 2.48 0 0 0-2.483 2.477v1.4z" clip-rule="evenodd"/><path fill="var(--accent-color, #f58220)" d="M133.471 59.536c-.647-.321-1.33-1.045-.866-3.81.213-1.272.151-2.14-.195-2.734-.343-.59-.883-.798-1.359-.982q-.098-.037-.197-.077l-.006-.003c-.032-.08-.019-.334-.01-.489.032-.585.099-1.801-1.507-2.016-.778-.104-1.305.017-1.612.372-.415.48-.224 1.135-.098 1.568q.045.141.073.287c.014.11-.017.183-.108.379a2.5 2.5 0 0 0-.28 1.15c0 .535-.049.71-1.241 1.546a6.4 6.4 0 0 1-1.02.547c-.86.395-1.835.844-1.989 2.25-.103.941-.64 1.68-.897 1.824l-.014-.031c-.167-.397-.429-.664-.778-.793-.71-.263-1.513.134-2.288.518l-.295.145c-.46.218-.952.36-1.458.418q.081-.11.165-.216c.314-.403.787-1.011.344-1.63-.46-.637-1.001-.397-1.36-.237q-.44.207-.917.307c-.819.168-1.167.6-1.421.916-.196.245-.259.305-.421.325-.926.115-.888 1.047-.869 1.496.007.17.021.523-.038.591-.402.292-.796.847-.772 1.428a.2.2 0 0 1-.023.11.23.23 0 0 1-.072.087.18.18 0 0 1-.177.031c-.105-.035-.108-.056-.108-.14a3 3 0 0 1 .014-.402l.023-.02c.223-.197.417-.425.574-.676a1.9 1.9 0 0 0-.028-2.244.52.52 0 0 0-.267-.174c-.686-.192-1.084.398-1.374.828-.355.527-.722 1.072-1.548 1.16-1.161.125-1.26.022-1.409-.135a2.3 2.3 0 0 0-.956-.627c-.809-.302-2.161-.067-3.469.16-.63.109-1.569.272-1.846.217-.013-.081-.003-.296.139-.683.549.296 1.13.313 1.636.048.484-.254.737-.767.676-1.373-.077-.778-.709-1.727-1.766-2.035-.92-.27-1.485.448-1.983 1.08-.58.735-1.236 1.568-2.599 1.787a3.36 3.36 0 0 0-2.325 1.478c-.47.692-.768 1.618-.863 2.68a8.8 8.8 0 0 0 .164 2.617c.208.929.05 1.263-.002 1.344a.2.2 0 0 1-.074.07c-.296-.016-1.313-.013-1.815.676-.337.463-.347 1.075-.028 1.821 1.617 3.78 2.406 4.468 2.963 4.643a.9.9 0 0 0 .76-.09c.37-.229.548-.77.843-1.669.372-1.13.933-2.837 1.869-3.112.46-.136 1.047.073 1.746.622.568.882 1.38 1.864 2.122 1.724.581-.11.777-.646.908-1 .08-.22.164-.446.281-.502q.316-.157.587-.386.08-.066.166-.125a.6.6 0 0 1 .108.054l.193.118c.54.334.84.499 1.76.603.144.017.192.073.341.406.149.33.456 1.014 1.334.86.465-.082.583.052 1.029.843l.082.143c.669 1.173 1.768 1.764 3.276 1.764q.481-.002.956-.071c1.366-.195 1.877-.535 2.182-.738a1 1 0 0 1 .147-.09q.089 0 .173.03c.565.157 1.009-.075 1.367-.262.414-.217.642-.336 1.084-.066.863.526 1.46.295 1.939.109.349-.135.651-.252 1.145-.129.944.235 1.366-.014 1.817-.364a1.93 1.93 0 0 1 1.076-.463c1.221-.167 1.248-1.264 1.264-1.92.022-.841.108-.887.401-.915.64-.063.742.078.925.333.192.266.483.67 1.2.67.296 0 1.197 0 1.51.356.043.05.174.2.118.617-.083.61-.01 1.13.216 1.54a1.195 1.195 0 0 0 2.188-.245c.918-3.165.412-4.396-.077-5.587a7.6 7.6 0 0 1-.398-1.14c-.182-.757-.314-1.304-1.185-1.125a2.5 2.5 0 0 1-.778.05.21.21 0 0 1-.178-.094c-.252-.35-.154-1.376-.009-1.96a.4.4 0 0 0 .002-.246c-.008-.071-.042-.56.443-1.397.377-.65.416-1.407.445-1.96l.001-.028q.247.344.44.721a10 10 0 0 0 .806 1.295c.631.836 1.618 1.687 2.398 1.703a.86.86 0 0 0 .695-.3c.196-.238.237-.586.127-1.096-.192-.897-.899-2.376-1.868-2.858m-.512 1.921a9 9 0 0 1-.724-1.167c-.335-.612-.624-1.14-1.206-1.443-.348-.18-.607-.113-.763-.024-.389.222-.414.685-.442 1.221-.025.473-.056 1.06-.306 1.49-.59 1.02-.612 1.715-.58 2.02-.109.48-.372 1.922.199 2.717a1.257 1.257 0 0 0 .946.53q.478.044.949-.043c.029.108.059.233.08.319q.17.663.446 1.291c.441 1.072.856 2.085.04 4.9a.134.134 0 0 1-.122.1.125.125 0 0 1-.134-.067c-.114-.209-.148-.52-.096-.898.08-.59-.044-1.077-.369-1.446-.555-.634-1.522-.716-2.301-.716-.177 0-.196-.026-.346-.233-.323-.448-.734-.876-1.881-.764-1.302.127-1.331 1.257-1.349 1.932-.021.823-.103.873-.358.908a2.96 2.96 0 0 0-1.576.674c-.287.222-.393.305-.918.174-.819-.203-1.375.012-1.781.17-.405.156-.591.228-1.009-.027-.951-.58-1.656-.212-2.121.032-.308.16-.447.222-.595.18-.581-.162-.87-.013-1.188.199-.245.163-.617.41-1.745.571-2.316.33-2.96-.8-3.172-1.172l-.08-.14c-.371-.659-.788-1.395-1.748-1.395a2 2 0 0 0-.379.035.3.3 0 0 1-.056.005 1.6 1.6 0 0 1-.136-.262c-.156-.348-.419-.932-1.181-1.018-.727-.083-.877-.176-1.327-.453q-.091-.058-.201-.123c-.737-.446-1.202-.072-1.48.151q-.174.151-.379.256c-.504.24-.684.73-.815 1.087a3 3 0 0 1-.119.29c-.247-.16-.725-.724-1.083-1.288a.5.5 0 0 0-.114-.128c-1.013-.817-1.946-1.109-2.771-.865-1.465.43-2.104 2.373-2.57 3.79q-.16.53-.378 1.037c-.239-.172-.896-.905-2.222-4.006-.156-.366-.19-.655-.09-.793.15-.207.651-.268.942-.245l.05.002a1.14 1.14 0 0 0 .855-.446c.375-.469.45-1.225.22-2.245-.297-1.335-.255-3.306.544-4.48a2.31 2.31 0 0 1 1.623-1.033c1.768-.285 2.629-1.376 3.257-2.173.477-.605.658-.783.862-.723.603.176.974.716 1.016 1.133q.026.266-.121.342c-.123.065-.325.131-.646-.042a1.052 1.052 0 0 0-1.484.552c-.518 1.403.044 1.867.425 2.018.457.182 1.19.068 2.447-.15 1.004-.175 2.378-.413 2.92-.211.217.069.412.196.561.367.448.47.86.609 2.286.456 1.311-.141 1.91-1.03 2.307-1.618l.096-.14a1 1 0 0 1-.179.57q-.161.265-.394.47c-.34.302-.389.528-.389 1.204a1.14 1.14 0 0 0 .819 1.132 1.25 1.25 0 0 0 1.147-.183 1.28 1.28 0 0 0 .516-1.081c-.006-.133.138-.391.339-.537.516-.375.49-1.015.471-1.482q-.014-.21.001-.42c.566-.089.85-.442 1.058-.702.205-.253.365-.453.813-.545a5 5 0 0 0 1.072-.349c-.06.084-.13.174-.181.24-.193.248-.411.528-.519.85a.739.739 0 0 0 .203.82c.663.583 2.354-.025 2.894-.285q.151-.073.307-.15c.494-.245 1.171-.58 1.454-.474.025.008.1.037.177.217.209.496.612.752 1.076.684.759-.11 1.681-1.25 1.848-2.77.086-.782.51-1.01 1.384-1.413a7.3 7.3 0 0 0 1.185-.641c1.199-.841 1.688-1.294 1.688-2.403.001-.248.064-.491.182-.708.112-.239.25-.536.197-.951a3 3 0 0 0-.106-.448c-.046-.158-.141-.481-.111-.593.037-.019.201-.08.672-.017.643.086.631.296.597.92-.025.457-.067 1.221.67 1.52l.212.083c.777.3 1.247.481.897 2.566-.445 2.65.011 4.214 1.434 4.921.642.319 1.217 1.594 1.329 2.204-.305-.143-.847-.527-1.372-1.22M67.386 63.096H43.398a.81.81 0 0 1-.81-.807.81.81 0 0 1 .81-.808h23.988a.81.81 0 0 1 .81.808.81.81 0 0 1-.81.807M67.386 59.553H43.398a.81.81 0 0 1-.81-.808.81.81 0 0 1 .81-.807h23.988a.81.81 0 0 1 .81.807.81.81 0 0 1-.81.808M67.386 56.01H43.398a.81.81 0 0 1-.81-.808.81.81 0 0 1 .81-.808h23.988a.81.81 0 0 1 .81.808.81.81 0 0 1-.81.808M67.385 52.467h-20.52a.81.81 0 0 1-.81-.808.81.81 0 0 1 .81-.808h20.52a.81.81 0 0 1 .81.808.81.81 0 0 1-.81.808"/><path fill="var(--accent-color, #f58220)" d="M67.386 59.553H43.398a.81.81 0 0 1-.81-.808.81.81 0 0 1 .81-.807h23.988a.81.81 0 0 1 .81.807.81.81 0 0 1-.81.808M67.386 56.01H43.398a.81.81 0 0 1-.81-.808.81.81 0 0 1 .81-.808h23.988a.81.81 0 0 1 .81.808.81.81 0 0 1-.81.808M67.385 52.467h-20.52a.81.81 0 0 1-.81-.808.81.81 0 0 1 .81-.808h20.52a.81.81 0 0 1 .81.808.81.81 0 0 1-.81.808"/></svg>