<svg xmlns="http://www.w3.org/2000/svg" id="self" fill="none" preserveAspectRatio="xMidYMid meet" viewBox="0 0 173 153"><path fill="var(--main-color, #377cb5)" d="M117.475 114.127H43.54a20.44 20.44 0 0 1-9.794-2.504 21 21 0 0 1-7.43-6.918 53 53 0 0 1-4.89-11.97.76.76 0 0 1 .565-.918.766.766 0 0 1 .922.563 52 52 0 0 0 4.71 11.51 19.2 19.2 0 0 0 6.926 6.43 19 19 0 0 0 9.08 2.326h73.846a19.1 19.1 0 0 0 8.982-2.276 19.07 19.07 0 0 0 6.846-6.228 35 35 0 0 0 2.705-5.926c.817-2.118 1.604-4.444 2.124-5.925a.746.746 0 0 1 1.317-.046c.09.157.119.343.081.52-.52 1.481-1.309 3.792-2.126 5.925a37.6 37.6 0 0 1-2.868 6.222 20.5 20.5 0 0 1-7.371 6.741 20.6 20.6 0 0 1-9.69 2.474m0-3.215H43.54a17.4 17.4 0 0 1-8.338-2.136 17.35 17.35 0 0 1-6.285-5.864 53 53 0 0 1-2.482-5.51 74 74 0 0 1-1.74-4.622.77.77 0 0 1 .521-.963.78.78 0 0 1 .966.518c.372 1.17.996 2.815 1.68 4.444q1.036 2.701 2.362 5.274a15.9 15.9 0 0 0 5.75 5.363 15.94 15.94 0 0 0 7.626 1.955h73.875a15.84 15.84 0 0 0 7.431-1.881 16.1 16.1 0 0 0 5.766-5.229 98 98 0 0 0 4.057-10.015.744.744 0 0 1 1.371-.062.74.74 0 0 1 .026.566 103 103 0 0 1-4.221 10.37 17.55 17.55 0 0 1-6.286 5.704 17.33 17.33 0 0 1-8.144 2.088M96.669 77.669H43.837a.744.744 0 0 1-.743-.74V70.84a.74.74 0 0 1 .743-.74H96.67a.744.744 0 0 1 .743.74v6.089a.754.754 0 0 1-.743.74m-52.014-1.481h51.242V71.58H44.655z"/><path fill="var(--main-color, #377cb5)" d="M141.625 90.335H20.595a.72.72 0 0 1-.55-.237.68.68 0 0 1-.179-.577l.862-7.333a7.4 7.4 0 0 1 2.736-4.388 7.45 7.45 0 0 1 4.948-1.538h87.146a28.3 28.3 0 0 1 14.371 3.837l12.068 7.036a.75.75 0 0 1 .372.637v1.763a.74.74 0 0 1-.445.739.75.75 0 0 1-.299.061M21.427 88.854h119.456v-.607l-11.711-6.948a26.8 26.8 0 0 0-13.614-3.63H28.412a5.96 5.96 0 0 0-3.982 1.186 5.92 5.92 0 0 0-2.23 3.496zM77.766 52.53H43.838a.744.744 0 0 1-.744-.74v-.578c0-1.521.606-2.98 1.685-4.054a5.76 5.76 0 0 1 4.067-1.68h23.912a5.76 5.76 0 0 1 4.067 1.68 5.72 5.72 0 0 1 1.684 4.053v.578a.74.74 0 0 1-.743.74m-33.111-1.482h32.368a4.26 4.26 0 0 0-1.31-2.897 4.29 4.29 0 0 0-2.955-1.191H48.846a4.3 4.3 0 0 0-2.908 1.216 4.26 4.26 0 0 0-1.283 2.872m97.104 18.31H99.196a.744.744 0 0 1-.743-.74v-4.755a.74.74 0 0 1 .743-.741h42.563a.74.74 0 0 1 .743.74v4.756a.74.74 0 0 1-.743.74m-41.82-1.48h41.077v-3.275H99.939z"/><path fill="var(--main-color, #377cb5)" d="M97.725 71.58H39.677a2.2 2.2 0 0 1-1.843-1.007l-5.573-8.488a2.2 2.2 0 0 1-.357-1.215v-7.6c0-.586.233-1.149.648-1.565a2.23 2.23 0 0 1 1.567-.656h49.354c.412-.002.815.117 1.16.34l14.266 8.889a2.22 2.22 0 0 1 1.04 1.896v7.185c0 .587-.232 1.15-.647 1.566a2.23 2.23 0 0 1-1.567.656M34.12 52.53a.744.744 0 0 0-.728.74v7.6a.84.84 0 0 0 .119.415l5.558 8.474a.74.74 0 0 0 .609.34h58.048a.744.744 0 0 0 .729-.74v-7.215a.72.72 0 0 0-.298-.637L83.89 52.62a.66.66 0 0 0-.371-.119zm117.91 19.05h-9.155a1.88 1.88 0 0 1-1.314-.551 1.86 1.86 0 0 1-.543-1.315v-7.273c0-.493.195-.965.543-1.315s.82-.548 1.314-.552h9.155a1.868 1.868 0 0 1 1.858 1.867v7.273a1.867 1.867 0 0 1-1.858 1.867m-9.155-9.524a.4.4 0 0 0-.264.117.4.4 0 0 0-.107.268v7.273c0 .1.039.196.107.268a.4.4 0 0 0 .264.118h9.155a.385.385 0 0 0 .371-.386v-7.273a.385.385 0 0 0-.371-.385zM33.703 100.172a7.2 7.2 0 0 1-5.05-2.143 7.14 7.14 0 0 1-2.054-5.071v-.49a.746.746 0 0 1 .832-.651.75.75 0 0 1 .654.83 2 2 0 0 0 0 .31c0 1.49.593 2.918 1.65 3.97a5.64 5.64 0 0 0 7.965 0 5.6 5.6 0 0 0 1.65-3.97 3 3 0 0 0 0-.325.739.739 0 0 1 1.21-.643c.151.124.25.3.276.495v.474a7.16 7.16 0 0 1-2.07 5.077 7.2 7.2 0 0 1-5.063 2.137m93.195 0a7.2 7.2 0 0 1-5.049-2.143 7.15 7.15 0 0 1-2.055-5.071v-.49a.747.747 0 0 1 1.486.178 2 2 0 0 0 0 .311 5.6 5.6 0 0 0 1.65 3.97 5.63 5.63 0 0 0 3.983 1.645 5.65 5.65 0 0 0 3.982-1.645 5.6 5.6 0 0 0 1.651-3.97 3 3 0 0 0 0-.325.755.755 0 0 1 .163-.546.74.74 0 0 1 .506-.27.774.774 0 0 1 .817.668v.474a7.16 7.16 0 0 1-2.07 5.077 7.2 7.2 0 0 1-5.064 2.137"/><path fill="var(--main-color, #377cb5)" d="M111.977 110.038a9.8 9.8 0 0 1-6.89-2.927 9.75 9.75 0 0 1-2.8-6.924 9.9 9.9 0 0 1 1.189-4.685 9.9 9.9 0 0 1 3.269-3.567.75.75 0 0 1 1.041.207.75.75 0 0 1-.209 1.038 8.39 8.39 0 0 0-3.744 7.007 8.154 8.154 0 0 0 2.131 6.226 8.2 8.2 0 0 0 6.043 2.646 8.22 8.22 0 0 0 6.042-2.646 8.2 8.2 0 0 0 1.721-2.89 8.1 8.1 0 0 0 .41-3.336 8.35 8.35 0 0 0-.979-3.972 8.4 8.4 0 0 0-2.751-3.035.757.757 0 0 1-.32-.476.75.75 0 0 1 .112-.561.74.74 0 0 1 .477-.319.76.76 0 0 1 .563.111 9.9 9.9 0 0 1 3.23 3.578 9.9 9.9 0 0 1 1.155 4.674 9.75 9.75 0 0 1-2.801 6.924 9.8 9.8 0 0 1-6.889 2.927m-20.85 0a9.8 9.8 0 0 1-6.89-2.927 9.75 9.75 0 0 1-2.8-6.924A9.84 9.84 0 0 1 82.62 95.5a9.9 9.9 0 0 1 3.275-3.565.75.75 0 0 1 1.152.769.75.75 0 0 1-.32.476 8.2 8.2 0 0 0-3.235 4.026 8.15 8.15 0 0 0-.174 5.155 8.18 8.18 0 0 0 2.957 4.233 8.22 8.22 0 0 0 9.821 0 8.18 8.18 0 0 0 2.957-4.233c.502-1.692.44-3.5-.174-5.155a8.2 8.2 0 0 0-3.235-4.026.748.748 0 1 1 .832-1.245 9.9 9.9 0 0 1 3.23 3.578 9.87 9.87 0 0 1 1.155 4.674 9.74 9.74 0 0 1-2.816 6.94 9.8 9.8 0 0 1-6.919 2.911m-20.851 0a9.8 9.8 0 0 1-6.89-2.927 9.75 9.75 0 0 1-2.8-6.924 9.9 9.9 0 0 1 1.189-4.685 9.9 9.9 0 0 1 3.27-3.567.752.752 0 0 1 1.151.769.75.75 0 0 1-.32.476 8.4 8.4 0 0 0-2.756 3.033 8.36 8.36 0 0 0-.988 3.974 8.15 8.15 0 0 0 2.131 6.226 8.21 8.21 0 0 0 6.042 2.646 8.22 8.22 0 0 0 6.043-2.646 8.151 8.151 0 0 0 2.131-6.226 8.35 8.35 0 0 0-.98-3.972 8.4 8.4 0 0 0-2.75-3.035.75.75 0 0 1-.208-1.038.75.75 0 0 1 1.04-.207 9.9 9.9 0 0 1 3.23 3.578 9.9 9.9 0 0 1 1.154 4.674 9.75 9.75 0 0 1-2.8 6.924 9.8 9.8 0 0 1-6.89 2.927m-20.85 0a9.8 9.8 0 0 1-6.89-2.927 9.75 9.75 0 0 1-2.8-6.924 9.84 9.84 0 0 1 1.183-4.687 9.9 9.9 0 0 1 3.275-3.565.752.752 0 0 1 1.152.769.75.75 0 0 1-.32.476 8.2 8.2 0 0 0-3.235 4.026 8.15 8.15 0 0 0-.173 5.155 8.18 8.18 0 0 0 2.956 4.233 8.22 8.22 0 0 0 9.821 0 8.18 8.18 0 0 0 2.957-4.233c.502-1.692.44-3.5-.174-5.155a8.2 8.2 0 0 0-3.235-4.026.748.748 0 1 1 .832-1.245 9.9 9.9 0 0 1 3.23 3.578 9.9 9.9 0 0 1 1.154 4.674 9.74 9.74 0 0 1-2.815 6.94 9.8 9.8 0 0 1-6.919 2.911"/><path fill="var(--accent-color, #f58220)" d="M141.625 93.298H20.595a2.23 2.23 0 0 1-1.577-.65 2.22 2.22 0 0 1 0-3.143c.418-.417.985-.651 1.576-.651h121.031c.591 0 1.158.234 1.577.65a2.219 2.219 0 0 1-1.577 3.794m-121.03-2.963a.744.744 0 0 0-.744.741.74.74 0 0 0 .743.74h121.031a.743.743 0 0 0 .744-.74.743.743 0 0 0-.744-.74zM55.057 64.59H43.035a.745.745 0 0 1-.743-.741.74.74 0 0 1 .743-.74h12.023a.745.745 0 0 1 .743.74.74.74 0 0 1-.743.74m0-2.963H43.035a.745.745 0 0 1-.743-.74.74.74 0 0 1 .743-.742h12.023a.745.745 0 0 1 .743.741.74.74 0 0 1-.743.74m0-2.963H43.035a.744.744 0 0 1-.743-.74.74.74 0 0 1 .743-.741h12.023a.745.745 0 0 1 .743.74.74.74 0 0 1-.743.741"/></svg>