<svg xmlns="http://www.w3.org/2000/svg" id="self" fill="none" preserveAspectRatio="xMidYMid meet" viewBox="0 0 173 153"><path stroke="var(--main-color, #377cb5)" stroke-width="1.5" d="M82.679 45.75h62.886v86.501H83.673c-2.883 0-5.22-2.35-5.22-5.25V50c0-2.347 1.892-4.25 4.226-4.25Z"/><path stroke="var(--main-color, #377cb5)" stroke-width="1.5" d="M78.85 125.213c0-2.325.344-5.813 9.115-5.813 4.737 0 39.92.197 58.345.197M90.22 45.674v73.456M89.638 45.474V21H31.97C29.226 21 27 23.239 27 26v72c0 3.314 2.67 6 5.965 6h44.761"/><path stroke="var(--main-color, #377cb5)" stroke-width="1.5" d="M27 99c0-3.2 0-8 9.177-8 4.505 0 24.011.27 41.53.27M38.93 22v70M77.977 51.84h-8a.2.2 0 0 1-.198-.2V40.972a.2.2 0 0 0-.199-.2H58.82a.2.2 0 0 0-.2.2v10.666a.2.2 0 0 1-.198.2h-10.76a.2.2 0 0 0-.2.2v9.576c0 .11.09.2.2.2h10.76a.2.2 0 0 1 .199.2v11.913c0 .11.089.2.199.2h10.76a.2.2 0 0 0 .199-.2V62.015c0-.11.089-.2.199-.2h7.999"/><path stroke="var(--main-color, #377cb5)" stroke-linejoin="round" stroke-width="1.5" d="M55.2 45.136V38c0-.276.222-.5.496-.5h5.469"/><path stroke="var(--accent-color, #f58220)" stroke-linecap="round" stroke-linejoin="round" stroke-miterlimit="10" stroke-width="1.5" d="M125.007 90.773h-14.068M110.941 90.774c0 2.665-2.148 4.827-4.799 4.827s-4.8-2.162-4.8-4.828c0-1.02.316-1.968.853-2.749a4.79 4.79 0 0 1 3.947-2.078c1.628 0 3.069.817 3.937 2.064.543.78.862 1.733.862 2.763M134.61 90.774c0 2.665-2.148 4.827-4.799 4.827s-4.799-2.162-4.799-4.828c0-1.033.322-1.992.871-2.775a4.785 4.785 0 0 1 7.857 0c.546.783.87 1.74.87 2.775"/><path stroke="var(--accent-color, #f58220)" stroke-linecap="round" stroke-linejoin="round" stroke-miterlimit="10" stroke-width="1.5" d="M101.339 90.774h-5.298V80.398h4.1l5.611-7.226a3.12 3.12 0 0 1 2.468-1.211h14.398a3.3 3.3 0 0 1 2.621 1.3l5.13 6.71h7.669c1.03 0 1.865.84 1.865 1.879v8.924h-5.299"/><path stroke="var(--accent-color, #f58220)" stroke-linecap="round" stroke-linejoin="round" stroke-miterlimit="10" stroke-width="1.5" d="M104.723 80.295h21.122l-4.345-5.623h-12.691zM114.955 74.764v5.53M139.908 82.5h-4.226v2.437h4.226M104.311 82.5h1.335"/><path stroke="var(--main-color, #377cb5)" stroke-width="1.5" d="m102.562 72.5 2.09-2.452A2.98 2.98 0 0 1 106.918 69h4.095"/></svg>