<svg xmlns="http://www.w3.org/2000/svg" id="self" fill="none" preserveAspectRatio="xMidYMid meet" viewBox="0 0 173 153"><path stroke="var(--main-color, #377cb5)" stroke-width="1.5" d="M137.626 40v74.738m-101.587 0V43c0-1.657 1.351-3 3.017-3h82.477M36.541 114.738h101.587"/><path stroke="var(--main-color, #377cb5)" stroke-width="1.5" d="m87.336 40 .134 40.688.112 33.938"/><path stroke="var(--main-color, #377cb5)" stroke-width="1.5" d="M35.471 47.167h-3.454a3.01 3.01 0 0 0-3.017 3v67.972c0 1.656 1.35 3 3.017 3h50.03c.27 1.601 1.702 4.861 5.596 4.861 4.044 0 5.46-3.551 5.73-4.861h48.278a3.01 3.01 0 0 0 3.017-3V50.167c0-1.657-1.351-3-3.017-3h-3.049M79.29 56H45.092m34.198 7.5H45.092M78.787 72h-32.69M93.879 56.264h15.59M120.031 56.264h9.052M113.996 63.264h15.087M93.879 63.264h9.052"/><path stroke="var(--accent-color, #f58220)" stroke-linejoin="round" stroke-width="1.5" d="m101.549 63.87 38.148-36.801s2.571-.428 3.857.855c1.286 1.284 1.286 2.568.857 4.28-.428 1.711-36.861 36.8-36.861 36.8m-6.001-5.135L99.406 72l8.144-2.995m-6.001-5.135c.857-.143 2.915-.172 4.286.855 1.372 1.027 1.715 3.281 1.715 4.28"/></svg>