<svg xmlns="http://www.w3.org/2000/svg" id="self" fill="none" preserveAspectRatio="xMidYMid meet" viewBox="0 0 173 153"><path stroke="var(--main-color, #377cb5)" stroke-width="1.5" d="M52.25 28h72.136v97.749H53.25c-2.9 0-5.25-2.381-5.25-5.319V32.306C48 29.928 49.903 28 52.25 28Z"/><path stroke="var(--main-color, #377cb5)" stroke-width="1.5" d="M48.135 120.459c0-3.647.393-9.119 10.431-9.119 5.422 0 45.685.309 66.769.309M61.363 28.004v83.234"/><path stroke="var(--main-color, #377cb5)" stroke-linecap="round" stroke-width="1.5" d="M73.258 65.76v-1.163c0-1.119.895-2.026 2-2.026H85.66c.758 0 1.45.434 1.789 1.12l1.021 2.07M77.453 62.04v-1.163c0-1.12.896-2.026 2-2.026h10.403c.758 0 1.45.433 1.789 1.12l1.02 2.069M81.65 57.99v-1.163c0-1.12.896-2.026 2-2.026h10.404c.757 0 1.45.433 1.789 1.12l1.02 2.069"/><path stroke="var(--accent-color, #f58220)" stroke-width="1.5" d="M71.385 66.774c0-.14.112-.254.25-.254h30.623c1.243 0 2.25 1.021 2.25 2.28v15.182c0 1.26-1.007 2.28-2.25 2.28H73.635c-1.243 0-2.25-1.02-2.25-2.28z"/><path stroke="var(--accent-color, #f58220)" stroke-linecap="round" stroke-width="1.5" d="M88.996 62.571h16.935c1.657 0 3 1.361 3 3.04v14.5c0 1.469-1.175 2.658-2.623 2.658"/><path stroke="var(--accent-color, #f58220)" stroke-linecap="round" stroke-width="1.5" d="M93.193 58.318h16.934c1.657 0 3 1.361 3 3.04V75.86c0 1.468-1.174 2.658-2.623 2.658"/><path stroke="var(--main-color, #377cb5)" stroke-linecap="round" stroke-width="1.5" d="M100.635 76.89v4.052c0 .56-.448 1.013-1 1.013h-4.5"/></svg>