<svg xmlns="http://www.w3.org/2000/svg" id="self" fill="none" preserveAspectRatio="xMidYMid meet" viewBox="0 0 173 153"><path stroke="var(--main-color, #377cb5)" stroke-width="1.5" d="m121.866 47.508 2.96 1.095c.236.088.439.238.582.43a1.1 1.1 0 0 1 .218.653v60.838c0 .813-.889 1.385-1.743 1.151-3.505-.967-9.784-2.258-16.308-2.258-7.524 0-16.116 1.717-19.883 2.673-.277.07-.567.056-.836-.036-2.813-.962-9.64-2.637-17.64-2.637-7.327 0-15.184 1.404-19.415 2.379-.194.045-.396.05-.592.014a1.4 1.4 0 0 1-.538-.224 1.2 1.2 0 0 1-.377-.416 1.1 1.1 0 0 1-.139-.524V49.719c0-.492.334-.93.846-1.089 3.937-1.214 12.013-3.21 18.71-3.21s14.774 1.996 18.71 3.21c.512.158.845.596.845 1.089v54.363c0 .198.055.392.16.565.104.173.256.319.44.425a1.388 1.388 0 0 0 1.238.063l26.018-11.399c.217-.095.401-.244.529-.43.129-.186.197-.401.197-.62V36.167c0-.198-.055-.393-.161-.567a1.2 1.2 0 0 0-.442-.424 1.384 1.384 0 0 0-1.243-.057l-22.975 10.3"/><path stroke="var(--accent-color, #f58220)" stroke-width="1.5" d="M40 55.315v61.9c0 .31.135.607.375.826s.567.342.907.342H132.5c.339 0 .666-.123.906-.342.241-.219.375-.516.375-.826v-61.9"/><path stroke="var(--accent-color, #f58220)" stroke-width="1.5" d="M56.312 61.498c1.999-.824 7.048-2.473 11.247-2.473 4.2 0 8.749 1.098 10.5 1.65"/><path stroke="var(--main-color, #377cb5)" stroke-width="1.5" d="M56.312 78.811c1.999-.825 7.048-2.474 11.247-2.474 4.2 0 8.749 1.1 10.5 1.65"/><path stroke="var(--accent-color, #f58220)" stroke-width="1.5" d="M56.312 70.154c1.999-.824 7.048-2.473 11.247-2.473 4.2 0 8.749 1.099 10.5 1.649"/><path stroke="var(--main-color, #377cb5)" stroke-width="1.5" d="M56.312 87.468c1.999-.825 7.048-2.474 11.247-2.474 4.2 0 8.749 1.1 10.5 1.65m-21.747 9.478c1.999-.823 7.048-2.472 11.247-2.472 4.2 0 8.749 1.099 10.5 1.649m16.307-38.748 14.951-6.183m-14.95 14.84 14.95-6.183m-14.95 14.839 14.95-6.183m-14.95 14.84 14.952-6.183m-14.953 14.84 14.951-6.184"/></svg>