<svg xmlns="http://www.w3.org/2000/svg" id="self" fill="none" preserveAspectRatio="xMidYMid meet" viewBox="0 0 173 153"><path stroke="var(--main-color, #377cb5)" stroke-width="1.5" d="M134.869 76.335c0 24.465-20.801 44.335-46.509 44.335-25.707 0-46.508-19.87-46.508-44.335S62.653 32 88.36 32s46.509 19.87 46.509 44.335Z"/><path stroke="var(--main-color, #377cb5)" stroke-width="1.5" d="M38 65.904c.507-4.899 2.663-12.247 8.295-19.705 5.744-7.607 13.034-11.59 15.404-12.75"/><path stroke="var(--accent-color, #f58220)" stroke-width="1.5" d="M77.695 64.862c0-4.917 2.11-11.708 10.545-11.708s10.784 6.087 10.784 11.708v11.473"/><path stroke="var(--accent-color, #f58220)" stroke-width="1.5" d="M88.36 96.33c7.362 0 13.331-5.838 13.331-13.04S95.722 70.25 88.36 70.25s-13.33 5.838-13.33 13.04 5.968 13.04 13.33 13.04Z"/><path fill="var(--accent-color, #f58220)" d="M88.36 85.608c1.309 0 2.37-1.038 2.37-2.318s-1.061-2.318-2.37-2.318-2.37 1.038-2.37 2.318 1.061 2.318 2.37 2.318"/></svg>