<svg xmlns="http://www.w3.org/2000/svg" id="self" fill="none" preserveAspectRatio="xMidYMid meet" viewBox="0 0 173 153"><path stroke="var(--main-color, #377cb5)" stroke-linecap="round" stroke-width="1.5" d="M70.231 42H57.263c-3.341 0-6.55 1.19-8.943 3.315s-3.78 5.019-3.867 8.063L43.32 93.39M102.268 42h12.969c3.341 0 6.551 1.19 8.944 3.315 2.392 2.126 3.78 5.019 3.866 8.063l1.133 40.011"/><path stroke="var(--main-color, #377cb5)" stroke-width="1.5" d="M58.698 110.032c8.67 0 15.698-6.405 15.698-14.307 0-7.901-7.028-14.307-15.698-14.307S43 87.823 43 95.725s7.028 14.307 15.698 14.307ZM113.802 110.032c8.67 0 15.698-6.405 15.698-14.307 0-7.901-7.028-14.307-15.698-14.307s-15.699 6.405-15.699 14.307 7.029 14.307 15.699 14.307ZM74.076 95.725h24.348"/><path stroke="var(--accent-color, #f58220)" stroke-linecap="round" stroke-width="1.5" d="M49.088 99.229c-.427-1.363-.77-4.789 1.281-7.592 2.05-2.803 4.271-3.504 5.126-3.504M104.19 99.23c-.427-1.363-.769-4.789 1.282-7.592 2.05-2.803 4.271-3.504 5.126-3.504"/></svg>