<svg xmlns="http://www.w3.org/2000/svg" id="self" fill="none" preserveAspectRatio="xMidYMid meet" viewBox="0 0 173 153"><path stroke="var(--main-color, #377cb5)" stroke-linecap="round" stroke-linejoin="round" stroke-miterlimit="10" stroke-width="1.353" d="m139.2 87.46 1.002 1.007a1.07 1.07 0 0 1 .295.93 1.07 1.07 0 0 1-.575.786 1.06 1.06 0 0 1-.654.096l-1.977-.345a1.43 1.43 0 0 1-.856-.493 1.45 1.45 0 0 1-.338-.933c0-.384-.151-.752-.421-1.024l-1.412-1.42a1.238 1.238 0 0 0-2.032.425 1.25 1.25 0 0 0-.036.808l.188.644a1.25 1.25 0 0 1-.313 1.233l-.541.544a2.06 2.06 0 0 0-.596 1.447c0 .94.758 1.701 1.691 1.701h.503a2.56 2.56 0 0 1 1.942.89l.999 1.154c.402.465.624 1.06.624 1.675v1.727a1.47 1.47 0 0 1-.439 1.01 1.45 1.45 0 0 1-2.03 0 1.47 1.47 0 0 1-.44-1.01v-1.118a1.035 1.035 0 0 0-1.231-1.017c-.2.04-.383.139-.527.284l-1.041 1.046a1.021 1.021 0 0 1-.726.303h-.247c-.272 0-.534-.109-.727-.303l-1.502-1.51a1.024 1.024 0 0 0-1.579.157c-.113.17-.174.369-.174.573v1.498c0 .7-.563 1.266-1.259 1.266h-.741c-.362 0-.71-.145-.966-.402l-.119-.12a1.275 1.275 0 0 0-1.809 0l-1.127 1.132a1.28 1.28 0 0 1-.918.383 1.28 1.28 0 0 1-.918-.383 1.297 1.297 0 0 0-1.837 0l-.84.845a1.3 1.3 0 0 1-.919.383c-.38 0-.744-.152-1.013-.423a1.44 1.44 0 0 1-.42-1.019v-.34c0-.986-.795-1.786-1.775-1.786h-.081a.88.88 0 0 1-.625-.26.9.9 0 0 1-.259-.63.893.893 0 0 0-.885-.89h-.759a1.27 1.27 0 0 0-.9.375 1.29 1.29 0 0 0-.373.905.884.884 0 0 1-.883.89h-.76c-.553 0-1.083-.22-1.474-.613l-1.177-1.184a1.46 1.46 0 0 0-1.034-.43h-.466a.859.859 0 0 0-.852.857 1.42 1.42 0 0 1-.412 1l-1.018 1.023a1.13 1.13 0 0 1-1.229.246 1.1 1.1 0 0 1-.366-.246l-1.185-1.192a1.77 1.77 0 0 1-.513-1.246v-.853c0-.233.092-.457.256-.622a.87.87 0 0 1 .62-.258.87.87 0 0 0 .618-.258.88.88 0 0 0 .256-.622v-1.638a1.57 1.57 0 0 0-.457-1.108l-.595-.598a1.746 1.746 0 0 1-.174-2.258l2.033-2.802a2.17 2.17 0 0 1 1.752-.896h.304c.668 0 1.308-.267 1.78-.74l.387-.39m14.234-1.597h1.063c.559 0 1.013.456 1.013 1.02v.242c0 .55.443.996.99.996h2.448a.98.98 0 0 0 .7-.292l2.244-2.257a1.89 1.89 0 0 1 1.343-.56c.504 0 .988-.201 1.344-.56l2.068-2.079a2.28 2.28 0 0 1 1.618-.674 2.27 2.27 0 0 0 1.617-.674l1.259-1.267c.193-.193.454-.302.726-.302.567 0 1.026.462 1.026 1.032v.643c0 .57.226 1.117.627 1.52.4.404.626.95.626 1.52v.441c0 .57-.225 1.117-.626 1.52l-.347.35c-.401.403-.626.95-.626 1.52 0 .398.157.78.438 1.063l.305.307"/><path stroke="var(--accent-color, #f58220)" stroke-linecap="round" stroke-linejoin="round" stroke-miterlimit="10" stroke-width="1.353" d="M104.801 86.053c-2.108-2.697-4.114-6.246-4.114-9.953 0-5.208 3.712-9.43 8.889-9.43 5.178 0 8.891 4.222 8.891 9.43 0 7.256-7.689 13.903-8.773 14.747a.19.19 0 0 1-.236 0c-.347-.27-1.37-1.135-2.602-2.424"/><path stroke="var(--main-color, #377cb5)" stroke-linecap="round" stroke-linejoin="round" stroke-miterlimit="10" stroke-width="1.353" d="M104.096 73.588h4.347m-4.307 3.977h10.677m-3.243-3.977h3.489"/><path stroke="var(--accent-color, #f58220)" stroke-linecap="round" stroke-linejoin="round" stroke-miterlimit="10" stroke-width="1.353" d="M115.503 75.572a6 6 0 0 1-1.736 4.215 5.92 5.92 0 0 1-4.191 1.746 5.9 5.9 0 0 1-4.191-1.746 5.99 5.99 0 0 1 0-8.43 5.9 5.9 0 0 1 4.191-1.746c1.572 0 3.08.628 4.191 1.746a5.98 5.98 0 0 1 1.736 4.215"/><path stroke="var(--main-color, #377cb5)" stroke-width="1.5" d="M83.518 49.75h62.886v86.501H84.512a5.2 5.2 0 0 1-3.691-1.538 5.26 5.26 0 0 1-1.529-3.712V54c0-1.127.445-2.208 1.238-3.005a4.21 4.21 0 0 1 2.988-1.245Z"/><path stroke="var(--main-color, #377cb5)" stroke-width="1.5" d="M79.69 129.213c0-2.325.343-5.813 9.115-5.813 4.737 0 39.92.197 58.344.197M91.06 49.674v73.456m-.583-73.656V25H32.81a4.96 4.96 0 0 0-3.515 1.465A5.01 5.01 0 0 0 27.839 30v72a6.02 6.02 0 0 0 1.747 4.243A5.95 5.95 0 0 0 33.804 108h44.76"/><path stroke="var(--main-color, #377cb5)" stroke-width="1.5" d="M27.839 103c0-3.2 0-8 9.177-8 4.505 0 24.011.27 41.53.27M39.77 26v70"/><mask id="mask1_185_986" width="40" height="10" x="42" y="41" maskUnits="userSpaceOnUse" style="mask-type:luminance"><path fill="#fff" d="M42.753 41h38.776v10H42.753z"/></mask><g stroke="var(--main-color, #377cb5)" stroke-linecap="round" stroke-linejoin="round" stroke-miterlimit="10" stroke-width="1.5" mask="url(#mask1_185_986)"><path d="M61.618 46.367h3.828l.454-.834a1.212 1.212 0 0 0-.72-1.736 1.2 1.2 0 0 0-.704.011 3 3 0 0 1-1.888 0 1.19 1.19 0 0 0-1.295.376 1.21 1.21 0 0 0-.13 1.35zm0 0c.466 1.077.032 2.366-1.04 2.827l-.78.334.307-1.322a.88.88 0 0 0-.854-1.083h-1.376a.87.87 0 0 0-.857.69.9.9 0 0 0 .002.393l.308 1.322m-10.261 3.547a8.2 8.2 0 0 1-.052-4.524.89.89 0 0 1 .627-.622.88.88 0 0 1 .85.233l2.121 2.152m-3.286 8.17a6.9 6.9 0 0 1-2.513-2.35 6.9 6.9 0 0 1-1.066-3.28.85.85 0 0 1 .373-.759.84.84 0 0 1 .84-.055l12.74 6.317m22.304-5.309a8.2 8.2 0 0 0 .044-4.497.89.89 0 0 0-.627-.622.88.88 0 0 0-.85.233l-9.202 9.335m13.694-3.18c.136-.477.22-.968.251-1.463a.85.85 0 0 0-.373-.758.84.84 0 0 0-.84-.056l-12.741 6.318M58.563 47.043v-.9"/><path d="M63.533 56.258v-2.24a4.5 4.5 0 0 0-1.308-3.175 4.46 4.46 0 0 0-3.157-1.315h-1.127a2.26 2.26 0 0 0-1.797.885 2.3 2.3 0 0 0-.407 1.97h1.855a2.06 2.06 0 0 1 1.723.926 2.09 2.09 0 0 1 .19 1.956l-.405.983m6.347-9.88c-.467 1.076-.034 2.365 1.04 2.826l.778.334-.307-1.322a.89.89 0 0 1 .473-.995.9.9 0 0 1 .382-.088h1.377a.87.87 0 0 1 .686.334.89.89 0 0 1 .167.75l-.306 1.321M68.5 47.043v-.9"/><path d="M63.533 54.018c0-1.19.47-2.333 1.307-3.175a4.45 4.45 0 0 1 3.156-1.315h1.127a2.26 2.26 0 0 1 1.797.884 2.3 2.3 0 0 1 .408 1.97h-1.855a2.06 2.06 0 0 0-1.724.927 2.09 2.09 0 0 0-.19 1.956l.41.993m-4.436-12.3V43"/></g><mask id="mask2_185_986" width="37" height="41" x="42" y="41" maskUnits="userSpaceOnUse" style="mask-type:luminance"><path fill="#fff" d="M42.753 41h35.793v41H42.753z"/></mask><g stroke-linecap="round" stroke-linejoin="round" stroke-miterlimit="10" stroke-width="1.2" mask="url(#mask2_185_986)"><path stroke="var(--main-color, #377cb5)" d="M64.847 68.889c1.679 1.554 4.365 4.345 4.365 6.274 0 1.89-2.73 1.82-2.73 1.82m-5.899 0s-2.73.07-2.73-1.82c0-1.85 2.701-4.683 4.377-6.263m-15.268-.634-.706-1.053m4.067 6.067-1.578-2.356m5.054 7.538-1.236-1.843"/><path stroke="var(--accent-color, #f58220)" d="M49.432 69.334a1.6 1.6 0 0 0-.625-1.07 1.584 1.584 0 0 0-2.5.94 1.6 1.6 0 0 0-.01.633c.07.415.3.786.64 1.031a1.58 1.58 0 0 0 2.207-.354c.248-.34.351-.764.29-1.18z"/><path stroke="var(--main-color, #377cb5)" d="M66.074 75.27c.249.72.38 1.477.387 2.24 0 .686-.52 1.073-1.046 1.289-.796.33-1.459.921-1.88 1.677l-.003.003a3.84 3.84 0 0 0-1.884-1.68c-.526-.215-1.044-.602-1.044-1.29 0-2.227 1.31-4.95 2.928-4.95.364 0 .712.138 1.033.377m-5.532-5.206c-1.577 0-2.855 1.036-2.855 2.314s1.278 2.314 2.855 2.314m.246-4.615a1.893 1.893 0 0 0 1.135 2.974m-8.238 2.473 4.215-2.096m2.028 2.231-5.128 1.8m-2.632.202a.99.99 0 0 1-1.096-.654 1.01 1.01 0 0 1 .44-1.203l.891-.518a.994.994 0 0 1 1.487.737 1.01 1.01 0 0 1-.49.999l-.89.517a1 1 0 0 1-.342.122"/><path stroke="var(--main-color, #377cb5)" d="M51.887 74.69a.99.99 0 0 1 1.362.366 1.01 1.01 0 0 1-.365 1.37l-.892.518a.994.994 0 0 1-1.522-.727 1.01 1.01 0 0 1 .526-1.01"/><path stroke="var(--accent-color, #f58220)" d="M78.169 75.126a2.84 2.84 0 0 0 1.516-1.232 2.86 2.86 0 0 0-.594-3.633 2.82 2.82 0 0 0-1.83-.679 2.82 2.82 0 0 0-2.359 1.273 2.86 2.86 0 0 0-.248 2.681"/><path stroke="var(--main-color, #377cb5)" d="M68.03 67.73c1.577 0 2.855 1.036 2.855 2.314s-1.278 2.314-2.855 2.314m-.246-4.615a1.892 1.892 0 0 1-1.116 2.97m7.874 2.542-3.892-2.17m-2.007 2.24 5.3 2.066m1.797.576a1.01 1.01 0 0 0 .746 1.036.99.99 0 0 0 1.152-.543l.434-.938a1.007 1.007 0 0 0-.483-1.332.99.99 0 0 0-1.094.17 1 1 0 0 0-.23.316l-.434.939q-.077.167-.09.352"/><path stroke="var(--main-color, #377cb5)" d="M76.262 74.68a1.007 1.007 0 0 0-.479-1.341.993.993 0 0 0-1.328.496l-.433.938a1.005 1.005 0 0 0 .86 1.424.99.99 0 0 0 .946-.578m-14.21-29.252h3.828l.454-.834a1.212 1.212 0 0 0-.72-1.736 1.2 1.2 0 0 0-.704.011 3 3 0 0 1-1.888 0 1.19 1.19 0 0 0-1.295.376 1.21 1.21 0 0 0-.13 1.35zm0 0c.466 1.077.032 2.366-1.04 2.827l-.78.334.307-1.322a.88.88 0 0 0-.854-1.083h-1.376a.87.87 0 0 0-.857.69.9.9 0 0 0 .002.393l.308 1.322m-4.746 2.783 5.127 5.2m-10.642-4.436a8.2 8.2 0 0 1-.052-4.524.89.89 0 0 1 .627-.622.88.88 0 0 1 .85.233l2.121 2.152m-3.286 8.17a6.9 6.9 0 0 1-2.513-2.35 6.9 6.9 0 0 1-1.066-3.28.85.85 0 0 1 .373-.759.84.84 0 0 1 .84-.055l12.74 6.317m-7.797 4.662a6.1 6.1 0 0 1-3.415-.776 6.17 6.17 0 0 1-2.44-2.527.903.903 0 0 1 .376-1.21.9.9 0 0 1 .45-.103l12.833.505m-3.233 6.932a6.49 6.49 0 0 1-6.401-.768.756.756 0 0 1-.16-1.055.75.75 0 0 1 .303-.245l9.478-4.196m-.414 8.64c-.947.63-2.081.9-3.912.578a.77.77 0 0 1-.566-.52.78.78 0 0 1 .163-.753l4.73-5.24m22.31-9.233a8.2 8.2 0 0 0 .043-4.497.89.89 0 0 0-.627-.622.88.88 0 0 0-.85.233l-9.202 9.335m13.694-3.18c.136-.477.22-.968.251-1.463a.85.85 0 0 0-.373-.758.84.84 0 0 0-.84-.056l-12.741 6.318m7.798 4.661c1.19.08 2.376-.19 3.416-.776a6.17 6.17 0 0 0 2.44-2.527.903.903 0 0 0-.376-1.21.9.9 0 0 0-.45-.103l-12.828.505m3.23 6.932a6.49 6.49 0 0 0 6.399-.768.756.756 0 0 0 .16-1.055.75.75 0 0 0-.303-.245l-9.485-4.2m.512 8.706c.993.626 2.145.837 3.82.516a.77.77 0 0 0 .567-.52.78.78 0 0 0-.163-.753l-4.737-5.247"/><path stroke="var(--accent-color, #f58220)" d="M58.564 47.043v-.9"/><path stroke="var(--main-color, #377cb5)" d="M63.533 56.258v-2.24a4.5 4.5 0 0 0-1.308-3.175 4.46 4.46 0 0 0-3.157-1.315h-1.127a2.26 2.26 0 0 0-1.797.884 2.3 2.3 0 0 0-.407 1.97h1.855a2.06 2.06 0 0 1 1.723.927 2.09 2.09 0 0 1 .19 1.956l-.405.983m6.347-9.881c-.467 1.077-.034 2.366 1.04 2.827l.778.334-.307-1.322a.89.89 0 0 1 .473-.996.9.9 0 0 1 .382-.087h1.377a.874.874 0 0 1 .855.69.9.9 0 0 1-.002.393l-.306 1.322"/><path stroke="var(--accent-color, #f58220)" d="M68.501 47.043v-.9"/><path stroke="var(--main-color, #377cb5)" d="M63.533 54.018c0-1.19.47-2.333 1.307-3.175a4.45 4.45 0 0 1 3.156-1.315h1.127a2.26 2.26 0 0 1 1.797.884 2.3 2.3 0 0 1 .408 1.97h-1.855a2.06 2.06 0 0 0-1.724.927 2.09 2.09 0 0 0-.19 1.956l.41.993"/><path stroke="var(--accent-color, #f58220)" d="M77.262 68.654v.907"/><path stroke="var(--main-color, #377cb5)" d="M68.153 67.73a5.3 5.3 0 0 0-3.749 1.542l-.872.865-.87-.865a5.3 5.3 0 0 0-3.75-1.543 1.2 1.2 0 0 1-.846-.35 1.2 1.2 0 0 1-.352-.852V57.47a1.2 1.2 0 0 1 1.196-1.202h9.246c.66 0 1.196.538 1.196 1.202v9.057c0 .665-.537 1.204-1.2 1.202z"/><path stroke="var(--accent-color, #f58220)" d="M60.105 60.717v-2.044h6.855v6.654a4.42 4.42 0 0 0-3.369 1.535l-.06.068-.059-.068a4.44 4.44 0 0 0-3.367-1.535V63.52m3.428-19.562V43"/></g></svg>