<svg xmlns="http://www.w3.org/2000/svg" id="self" fill="none" preserveAspectRatio="xMidYMid meet" viewBox="0 0 173 153"><path stroke="var(--main-color, #377cb5)" stroke-width="1.5" d="M52.226 28h71.721v96.471H53.22c-2.883 0-5.22-2.35-5.22-5.25V32.25c0-2.347 1.892-4.25 4.225-4.25Z"/><path stroke="var(--main-color, #377cb5)" stroke-width="1.5" d="M48.135 119.25c0-3.6.391-9 10.371-9 5.39 0 45.423.305 66.385.305M61.287 28.004v82.145M113.01 69.357c0 10.979-9.081 19.912-20.324 19.912S72.36 80.336 72.36 69.357c0-10.98 9.082-19.912 20.325-19.912s20.324 8.932 20.324 19.912ZM69.305 64.085c.225-2.24 1.183-5.598 3.687-9.007 2.554-3.477 5.794-5.298 6.847-5.828"/><path stroke="var(--accent-color, #f58220)" stroke-width="1.5" d="M86.91 63.311c0-2.545 1.082-6.06 5.407-6.06s5.53 3.151 5.53 6.06v5.94"/><path stroke="var(--accent-color, #f58220)" stroke-width="1.5" d="M92.38 79.5c3.706 0 6.71-3.022 6.71-6.75 0-3.727-3.004-6.75-6.71-6.75s-6.712 3.023-6.712 6.75c0 3.728 3.005 6.75 6.711 6.75Z"/><path fill="var(--accent-color, #f58220)" d="M92.378 74.25c.824 0 1.491-.671 1.491-1.5 0-.828-.667-1.5-1.49-1.5-.825 0-1.492.672-1.492 1.5 0 .829.667 1.5 1.491 1.5"/></svg>