<svg xmlns="http://www.w3.org/2000/svg" id="self" fill="none" preserveAspectRatio="xMidYMid meet" viewBox="0 0 173 153"><path stroke="var(--main-color, #377cb5)" stroke-width="1.5" d="M52.275 28h72.555v96.471H53.28c-2.916 0-5.28-2.35-5.28-5.25V32.25c0-2.347 1.914-4.25 4.275-4.25Z"/><path stroke="var(--main-color, #377cb5)" stroke-width="1.5" d="M48.357 119.014c0-3.67.394-9.176 10.42-9.176 5.415 0 45.633.31 66.692.31M61.442 28.004v82.145M92.895 88.5c9.86 0 17.854-7.947 17.854-17.75S102.755 53 92.895 53s-17.853 7.947-17.853 17.75S83.035 88.5 92.895 88.5Z"/><path stroke="var(--accent-color, #f58220)" stroke-width="1.5" d="M92.896 72.5c.972 0 1.76-.784 1.76-1.75S93.868 69 92.896 69s-1.76.784-1.76 1.75.788 1.75 1.76 1.75Z"/><path stroke="var(--accent-color, #f58220)" stroke-width="1.5" d="M92.393 61.75v10l5.029 5M91.89 54.25v4M92.896 83.25v4M109.491 70.75h-4.023M80.323 70.75H76.3"/><path stroke="var(--main-color, #377cb5)" stroke-width="1.5" d="M71.565 67.084c.228-2.239 1.197-5.598 3.73-9.006 2.583-3.477 5.861-5.299 6.927-5.828"/></svg>