<svg xmlns="http://www.w3.org/2000/svg" id="self" fill="none" preserveAspectRatio="xMidYMid meet" viewBox="0 0 173 153"><path stroke="var(--main-color, #377cb5)" stroke-width="1.5" d="M61.624 70H32.642c-4.451 0-4.451 6.162 0 6.162h28.982M77.936 70h39.198c5.338 0 16.263 3.187 16.263 15.138S122.877 101 117.134 101h-1.136M77.936 76.162h39.198c5.743 0 9.788 4.273 9.788 8.976s-4.045 9.428-9.788 9.429h-1.68m-15.769-.001H32.642c-1.214 0-3.642.532-3.642 3.321 0 2.788 2.428 3.113 3.642 3.113h67.043M61.142 63.774h-4.943c-5.742 0-9.788-4.572-9.788-9.124s4.046-8.687 9.789-8.687h84.492c4.451 0 4.451-5.963 0-5.963H56.2c-5.338 0-16.263 3.084-16.263 14.65S50.457 70 56.2 70h5.486m16.312-6.226h62.694c1.214 0 3.642.514 3.642 3.213S141.906 70 140.692 70H77.998M141.351 45v19M32.977 76v19M77.719 55h26.845"/><path stroke="var(--accent-color, #f58220)" stroke-width="1.5" d="M77.719 55H61.81v30l7.953-2.83L77.72 85z"/><path stroke="var(--main-color, #377cb5)" stroke-width="1.5" d="M99.592 85H84.678"/><path stroke="var(--accent-color, #f58220)" stroke-width="1.5" d="M99.592 85h16.903v29l-8.452-2.736L99.592 114z"/></svg>