<svg xmlns="http://www.w3.org/2000/svg" id="self" fill="none" preserveAspectRatio="xMidYMid meet" viewBox="0 0 173 153"><path stroke="var(--main-color, #377cb5)" stroke-width="1.5" d="m36.526 63.73 47.411-19.227A6.9 6.9 0 0 1 86.549 44c.9.002 1.788.177 2.609.514L135 63.358a5.64 5.64 0 0 1 2.501 1.976c.605.867.917 1.877.899 2.904a4.95 4.95 0 0 1-1.001 2.876 5.7 5.7 0 0 1-2.571 1.901L89.086 90.212a7 7 0 0 1-2.535.44 6.9 6.9 0 0 1-2.52-.506L36.518 70.81a4.17 4.17 0 0 1-1.835-1.431A3.63 3.63 0 0 1 34 67.27c0-.75.24-1.483.687-2.11a4.18 4.18 0 0 1 1.839-1.43Z"/><path stroke="var(--main-color, #377cb5)" stroke-width="1.5" d="M49.012 76.703v12.67c0 1.102.342 2.181.986 3.114a6.25 6.25 0 0 0 2.657 2.154l31.236 13.61a6.9 6.9 0 0 0 2.66.57 6.95 6.95 0 0 0 2.679-.491l29.643-11.856c1.139-.456 2.109-1.205 2.789-2.154a5.47 5.47 0 0 0 1.043-3.194V76.703m-36.164 32.702v-11.32M134.99 73.56V89.91"/><path stroke="var(--accent-color, #f58220)" stroke-width="1.5" d="M138.121 93.012c0-1.577-1.403-2.856-3.133-2.856s-3.134 1.279-3.134 2.856v11.404c0 1.577 1.404 2.855 3.134 2.855s3.133-1.278 3.133-2.855z"/></svg>