<svg xmlns="http://www.w3.org/2000/svg" id="self" fill="none" preserveAspectRatio="xMidYMid meet" viewBox="0 0 173 153"><path stroke="var(--main-color, #377cb5)" stroke-width="1.5" d="M52.495 28.212h72.15v97.4H52.496a4.5 4.5 0 0 1-3.179-1.307A4.46 4.46 0 0 1 48 121.146V32.678c0-2.467 2.01-4.466 4.495-4.466Z"/><path stroke="var(--main-color, #377cb5)" stroke-width="1.5" d="M61.487 28v82.938m-8.992.638h72.15v14.036H52.496a4.5 4.5 0 0 1-3.179-1.307A4.46 4.46 0 0 1 48 121.146v-5.104a4.44 4.44 0 0 1 1.316-3.16 4.5 4.5 0 0 1 3.179-1.306Z"/><mask id="mask0_185_631" width="8" height="11" x="78" y="55" maskUnits="userSpaceOnUse" style="mask-type:luminance"><path fill="#fff" fill-rule="evenodd" d="M84.493 65.392c.657 0 1.19-.53 1.19-1.182v-4.43c0-.653-.533-1.182-1.19-1.182h-2.875a1.83 1.83 0 0 1 1.987-.533l.763-2.192a4.2 4.2 0 0 0-2.908.07 4.16 4.16 0 0 0-2.154 1.943 4.1 4.1 0 0 0-.462 1.895v4.43c0 .652.533 1.182 1.19 1.182z" clip-rule="evenodd"/></mask><g mask="url(#mask0_185_631)"><path fill="var(--accent-color, #f58220)" d="m81.617 58.597-.86-.73a1.122 1.122 0 0 0 .86 1.856zm1.986-.533-.37 1.063c.284.097.594.078.864-.052s.477-.361.576-.643zm.765-2.192 1.069.368a1.12 1.12 0 0 0-.318-1.209 1.1 1.1 0 0 0-.381-.22zm-5.525 3.908h-1.134c0 .62.508 1.124 1.134 1.124zm0 0h1.132a1.12 1.12 0 0 0-.331-.796 1.13 1.13 0 0 0-.801-.329zm5.707 4.43a.057.057 0 0 1-.058.057v2.25a2.33 2.33 0 0 0 1.641-.675c.436-.433.68-1.02.682-1.63zm0-4.43v4.43l2.265.001V59.78zm-.058-.057c.032 0 .058.025.058.056h2.265a2.3 2.3 0 0 0-.68-1.632 2.32 2.32 0 0 0-1.643-.674zm-2.874 0h2.874v-2.25h-2.875zm-.33-2.339q-.293.211-.53.482l1.72 1.464a.7.7 0 0 1 .123-.113zm1.295-.515a3 3 0 0 0-1.295.515l1.313 1.833a.7.7 0 0 1 .305-.12zm1.39.132a3 3 0 0 0-1.39-.132l.323 2.227a.7.7 0 0 1 .327.031zm-.676-1.497-.764 2.192 2.14.736.764-2.192-2.142-.736zm-.723 1.296a3.05 3.05 0 0 1 1.421.135l.743-2.125a5.3 5.3 0 0 0-2.487-.236zm-1.328.528c.395-.279.85-.46 1.328-.528l-.323-2.226c-.837.12-1.63.435-2.318.921zm-.935 1.072c.221-.426.543-.794.935-1.072l-1.313-1.833a5.3 5.3 0 0 0-1.635 1.875zm-.336 1.38c0-.48.115-.953.336-1.38l-2.013-1.03a5.2 5.2 0 0 0-.589 2.41zm0 4.43v-4.43H77.71l.002 4.43zm.056.057a.06.06 0 0 1-.056-.057h-2.264a2.3 2.3 0 0 0 .68 1.632 2.32 2.32 0 0 0 1.642.674zm4.461 0h-4.46v2.25h4.46z"/></g><mask id="mask1_185_631" width="7" height="11" x="99" y="78" maskUnits="userSpaceOnUse" style="mask-type:luminance"><path fill="#fff" fill-rule="evenodd" d="M100.255 78.892c-.656 0-1.19.53-1.19 1.183v4.43c0 .652.533 1.181 1.19 1.181h2.875a1.83 1.83 0 0 1-1.986.535l-.763 2.191c.946.325 1.979.3 2.908-.07a4.16 4.16 0 0 0 2.155-1.943 4.1 4.1 0 0 0 .462-1.895l-.001-4.43c0-.653-.532-1.182-1.189-1.182z" clip-rule="evenodd"/></mask><g mask="url(#mask1_185_631)"><path fill="var(--accent-color, #f58220)" d="m103.13 85.687.859.731a1.12 1.12 0 0 0 .167-1.201 1.132 1.132 0 0 0-1.025-.656zm-1.986.533.37-1.063a1.14 1.14 0 0 0-1.44.695zm-.763 2.192-1.07-.368a1.12 1.12 0 0 0 .699 1.43zm5.524-3.908h1.132c0-.62-.507-1.124-1.132-1.124zm0 0h-1.133c0 .621.507 1.125 1.132 1.125zm-5.707-4.43c0-.032.025-.057.057-.057v-2.25a2.33 2.33 0 0 0-1.64.676 2.3 2.3 0 0 0-.681 1.631zm0 4.431v-4.431h-2.264v4.431zm.057.056a.06.06 0 0 1-.04-.016.05.05 0 0 1-.017-.04h-2.264a2.3 2.3 0 0 0 .68 1.63 2.32 2.32 0 0 0 1.64.675zm2.876 0h-2.876v2.25h2.875zm.328 2.339q.293-.21.53-.482l-1.718-1.464a.7.7 0 0 1-.125.113zm-1.295.515a3 3 0 0 0 1.295-.515l-1.313-1.833a.7.7 0 0 1-.305.121zm-1.39-.132c.445.153.922.198 1.39.132l-.323-2.227a.7.7 0 0 1-.327-.031zm.676 1.497.764-2.192-2.14-.736-.763 2.192zm.724-1.296a3.05 3.05 0 0 1-1.422-.135l-.742 2.126c.798.274 1.65.355 2.486.235zm1.327-.527a3.05 3.05 0 0 1-1.327.527l.322 2.226a5.3 5.3 0 0 0 2.317-.921zm.935-1.073a3.06 3.06 0 0 1-.935 1.073l1.312 1.832a5.3 5.3 0 0 0 1.635-1.875zm.336-1.38c0 .48-.115.953-.336 1.38l2.012 1.03a5.2 5.2 0 0 0 .589-2.41zm0-4.43v4.43h2.265v-4.43zm-.058-.057c.032 0 .058.025.058.057h2.265a2.3 2.3 0 0 0-.68-1.632 2.32 2.32 0 0 0-1.643-.674zm-4.459 0h4.459v-2.249l-4.459-.001z"/></g><mask id="mask2_185_631" width="8" height="11" x="69" y="55" maskUnits="userSpaceOnUse" style="mask-type:luminance"><path fill="#fff" fill-rule="evenodd" d="M75.274 65.392c.658 0 1.19-.53 1.19-1.182v-4.43c0-.653-.533-1.182-1.19-1.182h-2.875a1.83 1.83 0 0 1 1.986-.533l.764-2.192a4.2 4.2 0 0 0-2.909.069 4.16 4.16 0 0 0-2.154 1.944 4.1 4.1 0 0 0-.463 1.895v4.43c0 .652.533 1.182 1.19 1.182z" clip-rule="evenodd"/></mask><g mask="url(#mask2_185_631)"><path fill="var(--accent-color, #f58220)" d="m72.4 58.597-.86-.731a1.12 1.12 0 0 0 .248 1.68c.183.116.395.178.612.177zm1.985-.533-.37 1.063c.283.097.594.079.864-.052.27-.13.477-.361.575-.643zm.765-2.192 1.07.368a1.117 1.117 0 0 0-.701-1.43zm-5.525 3.908h-1.133c0 .62.507 1.124 1.133 1.124zm0 0h1.132a1.12 1.12 0 0 0-.699-1.04 1.1 1.1 0 0 0-.433-.085zm5.707 4.43q0 .024-.017.04a.06.06 0 0 1-.04.017v2.25a2.33 2.33 0 0 0 1.64-.675c.436-.433.682-1.019.683-1.631zm0-4.43v4.43l2.266.001-.001-4.431zm-.057-.057c.032 0 .058.025.058.056h2.263a2.3 2.3 0 0 0-.68-1.63 2.32 2.32 0 0 0-1.64-.675zm-2.875 0h2.875v-2.25H72.4zm-.33-2.339q-.296.211-.53.482l1.72 1.464a.7.7 0 0 1 .124-.113zm1.297-.515a3 3 0 0 0-1.297.515l1.314 1.833a.7.7 0 0 1 .305-.121zm1.388.132a3 3 0 0 0-1.388-.132l.322 2.227a.7.7 0 0 1 .326.03zm-.675-1.497-.765 2.192 2.142.736.763-2.192zm-.724 1.296a3.06 3.06 0 0 1 1.424.135l.74-2.126a5.3 5.3 0 0 0-2.485-.235zm-1.327.528c.394-.279.85-.46 1.327-.528l-.32-2.226a5.34 5.34 0 0 0-2.32.921zm-.935 1.072c.222-.426.542-.794.935-1.072l-1.313-1.833a5.3 5.3 0 0 0-1.635 1.875zm-.337 1.38c0-.48.115-.953.337-1.38l-2.013-1.03a5.2 5.2 0 0 0-.589 2.41zm0 4.43v-4.43h-2.265l.001 4.43zm.058.057a.06.06 0 0 1-.04-.017.06.06 0 0 1-.018-.04h-2.264a2.3 2.3 0 0 0 .68 1.631 2.32 2.32 0 0 0 1.64.675zm4.46 0h-4.46v2.25h4.46z"/></g><mask id="mask3_185_631" width="8" height="11" x="108" y="78" maskUnits="userSpaceOnUse" style="mask-type:luminance"><path fill="#fff" fill-rule="evenodd" d="M109.468 78.892c-.316 0-.618.126-.841.347a1.18 1.18 0 0 0-.348.836v4.43c0 .652.532 1.181 1.189 1.181h2.875a1.835 1.835 0 0 1-1.986.534l-.764 2.192a4.19 4.19 0 0 0 3.775-.54 4.15 4.15 0 0 0 1.286-1.473 4.1 4.1 0 0 0 .464-1.895l-.001-4.43c0-.313-.125-.614-.348-.835a1.2 1.2 0 0 0-.841-.347z" clip-rule="evenodd"/></mask><g mask="url(#mask3_185_631)"><path fill="var(--accent-color, #f58220)" d="m112.342 85.687.86.731a1.12 1.12 0 0 0-.248-1.68 1.13 1.13 0 0 0-.612-.177zm-1.985.533.371-1.063a1.14 1.14 0 0 0-1.218.316 1.1 1.1 0 0 0-.223.38zm-.764 2.192-1.07-.368a1.12 1.12 0 0 0 .7 1.43zm5.525-3.908h1.133c0-.62-.507-1.124-1.133-1.124zm0 0h-1.133c0 .621.507 1.125 1.132 1.125zm-5.708-4.43c0-.032.026-.057.057-.057v-2.25c-.615 0-1.205.243-1.641.676a2.3 2.3 0 0 0-.681 1.631zm0 4.431v-4.431h-2.265v4.431zm.057.056a.06.06 0 0 1-.04-.016.06.06 0 0 1-.017-.04h-2.265a2.3 2.3 0 0 0 .68 1.632 2.32 2.32 0 0 0 1.642.673zm2.875 0h-2.875v2.249l2.875.001zm.33 2.339q.295-.21.53-.482l-1.719-1.464a.7.7 0 0 1-.125.113zm-1.297.515a3 3 0 0 0 1.297-.515l-1.314-1.833a.7.7 0 0 1-.304.121zm-1.389-.132c.447.153.923.198 1.389.132l-.321-2.227a.7.7 0 0 1-.326-.031zm.677 1.497.764-2.192-2.14-.735-.764 2.191zm.722-1.296a3.05 3.05 0 0 1-1.422-.135l-.74 2.126a5.3 5.3 0 0 0 2.485.235zm1.327-.527a3.04 3.04 0 0 1-1.327.527l.323 2.226a5.3 5.3 0 0 0 2.318-.921zm.937-1.073a3 3 0 0 1-.937 1.073l1.314 1.832a5.3 5.3 0 0 0 1.636-1.875zm.336-1.38c0 .48-.115.953-.336 1.38l2.013 1.03a5.26 5.26 0 0 0 .589-2.41zm0-4.43v4.43h2.266l-.001-4.43zm-.058-.057c.032 0 .058.025.058.057h2.265a2.3 2.3 0 0 0-.681-1.632 2.332 2.332 0 0 0-1.642-.674zm-4.46 0h4.46v-2.249l-4.46-.001z"/></g><path stroke="var(--main-color, #377cb5)" stroke-linecap="round" stroke-width="1.322" d="M85.899 69.162h23.98m-35.969 0h9.42m17.128 5.955h9.421m-35.969 0H97.89"/><path fill="var(--accent-color, #f58220)" fill-rule="evenodd" d="M69.623 66.704v13.61a1.7 1.7 0 0 0 .501 1.204 1.7 1.7 0 0 0 1.212.498h26.547v-.85H71.336a.86.86 0 0 1-.606-.25.85.85 0 0 1-.251-.601v-13.61zm17.128-4.253h26.548a.853.853 0 0 1 .856.85v14.462h.857V63.302a1.701 1.701 0 0 0-1.058-1.573 1.7 1.7 0 0 0-.655-.129H86.751z" clip-rule="evenodd"/></svg>