<svg xmlns="http://www.w3.org/2000/svg" id="self" fill="none" preserveAspectRatio="xMidYMid meet" viewBox="0 0 173 153"><path stroke="var(--main-color, #377cb5)" stroke-width="1.5" d="M52.3 28h72.979v96.471H53.311c-2.933 0-5.311-2.35-5.311-5.25V32.25c0-2.347 1.925-4.25 4.3-4.25Z"/><path stroke="var(--main-color, #377cb5)" stroke-width="1.5" d="M48.36 119.014c0-3.67.395-9.176 10.48-9.176 5.447 0 45.899.31 67.082.31M61.522 28.004v82.145"/><path stroke="var(--accent-color, #f58220)" stroke-width="1.5" d="m82.903 67.051-4.464 4.412a6.943 6.943 0 0 0 0 9.9l1.431 1.414c2.766 2.733 7.25 2.733 10.015 0l5.008-4.95a6.943 6.943 0 0 0 0-9.9l-1.725-1.705"/><path stroke="var(--accent-color, #f58220)" stroke-width="1.5" d="m101.873 70.925 4.463-4.411a6.94 6.94 0 0 0 0-9.9l-1.431-1.414c-2.765-2.734-7.249-2.734-10.014 0l-5.008 4.95a6.943 6.943 0 0 0 0 9.9l1.725 1.704"/></svg>