<svg xmlns="http://www.w3.org/2000/svg" id="self" fill="none" preserveAspectRatio="xMidYMid meet" viewBox="0 0 173 153"><path stroke="var(--main-color, #377cb5)" stroke-width="1.5" d="M52.275 28h72.555v96.471H53.28c-2.916 0-5.28-2.35-5.28-5.25V32.25c0-2.347 1.914-4.25 4.275-4.25Z"/><path stroke="var(--main-color, #377cb5)" stroke-width="1.5" d="M48.137 119.25c0-3.6.395-9 10.492-9 5.453 0 45.95.305 67.156.305M61.443 28.004v82.145M92.894 87.5c10.415 0 18.859-8.394 18.859-18.75S103.309 50 92.894 50s-18.859 8.395-18.859 18.75S82.48 87.5 92.895 87.5ZM70.543 63.791c.217-2.13 1.14-5.325 3.548-8.567 2.458-3.308 5.576-5.04 6.59-5.543"/><path stroke="var(--accent-color, #f58220)" stroke-width="1.5" d="M100.342 60.652c-.541-.181-5.597-1.647-7.58 2.45-2.873-4.722-10.471-2.919-11.372 2.722-.607 3.803 3.412 7.44 4.856 8.71l6.786 5.716c.361-.363 2.022-1.579 6.57-5.716s5.072-6.533 4.801-8.71-1.624-4.356-4.061-5.172Z"/></svg>