<svg xmlns="http://www.w3.org/2000/svg" id="self" fill="none" preserveAspectRatio="xMidYMid meet" viewBox="0 0 173 153"><mask id="mask0_185_670" width="94" height="107" x="40" y="23" maskUnits="userSpaceOnUse" style="mask-type:luminance"><path fill="#fff" d="M133.256 40.785c.365.357.571.841.571 1.346v85.196c0 1.051-.873 1.903-1.949 1.903h-89.93c-1.076 0-1.948-.852-1.948-1.903V24.903c0-1.051.872-1.903 1.949-1.903h72.285c.517 0 1.013.2 1.378.557z"/></mask><g mask="url(#mask0_185_670)"><path fill="var(--main-color, #377cb5)" d="M133.827 42.13h-1.623v85.197h3.248V42.131zm-1.948 87.1v-1.586h-89.93v3.171h89.93zm-91.878-1.903h1.624V24.903h-3.248v102.424zM41.949 23v1.585h72.286v-3.17H41.949zm73.664.557-1.148 1.121 17.644 17.229 1.148-1.121 1.148-1.122-17.644-17.228zM114.235 23v1.585a.33.33 0 0 1 .23.093l1.148-1.12 1.148-1.122a3.62 3.62 0 0 0-2.526-1.021zm-74.234 1.903h1.624c0-.175.145-.317.324-.317v-3.171c-1.973 0-3.572 1.561-3.572 3.488zm1.948 104.327v-1.586a.32.32 0 0 1-.325-.317h-3.247c0 1.926 1.6 3.488 3.572 3.488zm91.878-1.903h-1.623a.32.32 0 0 1-.325.317v3.171c1.973 0 3.573-1.562 3.573-3.488zm0-85.196h1.625c0-.925-.377-1.813-1.047-2.467l-1.148 1.121-1.148 1.122c.061.059.095.14.095.224z"/></g><path stroke="var(--main-color, #377cb5)" stroke-width="1.859" d="M117.554 42.167c-1.793 0-3.247-1.42-3.247-3.17v-14.3c0-.282.348-.424.552-.226l17.726 17.154c.205.2.061.542-.229.542z"/><path stroke="var(--main-color, #377cb5)" stroke-linecap="round" stroke-width="2.231" d="M53.1 69.045h66.367M53.238 80.893h33.044M53.238 92.693h23.6M53.238 104.497h26.48"/><path fill="var(--main-color, #377cb5)" d="M53.531 52.367v-15.39h3.904c2.154 0 3.22.208 4.159.79 1.28.813 2.005 2.23 2.005 3.958 0 1.833-.832 3.416-2.197 4.165-.853.458-1.856.625-4.01.625h-.939v5.852zm2.922-8.58h.854c.853 0 1.535-.063 2.005-.209.831-.229 1.343-.916 1.343-1.79 0-.98-.512-1.708-1.365-1.937-.448-.105-.896-.146-1.855-.146h-.982zm9.305 8.58v-15.39h11.177v15.39h-2.922V39.705H68.68v12.662zm30.31 3.02H94.02l-.597-3.02h-12.03l-.597 3.02h-2.048V49.64h2.09l5.397-12.663h2.346l5.396 12.663h2.09zm-12.2-5.748h7.08l-3.54-8.435z"/><path stroke="var(--accent-color, #f58220)" stroke-width="1.74" d="M105.501 112.654c9.229 0 16.711-7.306 16.711-16.318 0-9.011-7.482-16.317-16.711-16.317-9.23 0-16.712 7.306-16.712 16.317 0 9.012 7.482 16.318 16.712 16.318Z"/><path stroke="var(--accent-color, #f58220)" stroke-linecap="round" stroke-width="1.74" d="M97.143 102.268c-.76-.989-2.28-3.709-2.28-6.675 0-2.967 1.52-5.192 2.28-5.934"/><path stroke="var(--accent-color, #f58220)" stroke-width="1.74" d="m119.228 107.027 8.37 8.171a2.92 2.92 0 0 1 0 4.196 3.09 3.09 0 0 1-4.298 0l-8.368-8.171z"/></svg>