<svg xmlns="http://www.w3.org/2000/svg" id="self" fill="none" preserveAspectRatio="xMidYMid meet" viewBox="0 0 173 153"><path stroke="var(--main-color, #377cb5)" stroke-width="1.5" d="M52.275 28h72.554v96.471H53.281c-2.917 0-5.281-2.35-5.281-5.25V32.25c0-2.347 1.914-4.25 4.275-4.25Z"/><path stroke="var(--main-color, #377cb5)" stroke-width="1.5" d="M48.357 119.014c0-3.67.393-9.176 10.42-9.176 5.415 0 45.633.31 66.692.31M61.443 28.004v82.145"/><path fill="var(--accent-color, #f58220)" d="M74.07 75.25v-12.6h1.339l7.984 10.098V62.65h1.394v12.6h-1.14l-8.184-10.332V75.25zm14.9-4.086q.146 1.422 1.068 2.268.942.828 2.227.828 1.684 0 2.951-1.314l.87.774q-1.575 1.746-3.857 1.746-1.974 0-3.331-1.35-1.34-1.368-1.34-3.51 0-2.034 1.285-3.438 1.285-1.422 3.205-1.422 2.01 0 3.186 1.404t1.177 3.528q0 .27-.018.486zm0-1.116H95q-.126-1.35-.905-2.232-.76-.9-2.082-.9-1.195 0-2.046.882t-.996 2.25m11.902 5.274-3.277-9.378h1.485l2.462 7.47 2.517-7.506h1.159l2.534 7.506 2.462-7.47h1.449l-3.295 9.378h-1.213l-2.517-7.344-2.535 7.344z"/></svg>