<svg xmlns="http://www.w3.org/2000/svg" id="self" fill="none" preserveAspectRatio="xMidYMid meet" viewBox="0 0 173 153"><path stroke="var(--main-color, #377cb5)" stroke-width="1.5" d="M53.869 89h77.249c4.07 0 4.07 5.565 0 5.565h-77.25c-5.25 0-8.949 3.86-8.949 8.108s3.7 8.516 8.95 8.516h77.249c1.11 0 3.33.48 3.33 2.999s-2.22 2.812-3.33 2.812h-77.25C48.619 117 39 113.468 39 102.673S48.989 89 53.869 89ZM62.862 60h-8.993C48.989 60 39 62.981 39 74.162 39 85.342 48.619 89 53.869 89h77.249c1.11 0 3.33-.304 3.33-2.913s-2.22-3.106-3.33-3.106h-77.25c-5.25 0-8.949-4.42-8.949-8.82s3.7-8.397 8.95-8.397h8.993M79.764 60h51.354c4.07 0 4.07 5.764 0 5.764H79.764M59.5 60c-4.43 0-12.546-3.027-12.546-12.28S55.382 36 59.5 36h65.179c3.434 0 3.434 4.77 0 4.77h-65.18c-4.429 0-7.55 3.309-7.55 6.95s3.121 7.3 7.55 7.3h3.363m16.902 0h44.915c.936 0 2.81.41 2.81 2.57 0 2.158-1.874 2.41-2.81 2.41H79.764"/><path stroke="var(--accent-color, #f58220)" stroke-width="1.5" d="M79.765 47H62.862v26.5l8.451-2.5 8.452 2.5z"/><path stroke="var(--main-color, #377cb5)" stroke-width="1.5" d="M131.466 94v17M131.466 66v16M123.512 41v13"/></svg>