<svg xmlns="http://www.w3.org/2000/svg" id="self" fill="none" preserveAspectRatio="xMidYMid meet" viewBox="0 0 173 153"><path stroke="var(--main-color, #377cb5)" stroke-width="1.5" d="M25 96.155 71.282 28c4.482 1.806 16.87 5.627 30.563 6.466s28.293 0 33.532-2.447L123.165 52.99M25 96.155c6.811 0 23.473.35 35.628 1.747s26.605 5.243 32.31 6.991l30.227-51.903M25 96.155c6.928 6.233 25.883 19.747 46.282 23.941 20.399 4.195 35.294 5.521 39.718 5.404L148 65c-3.5 2.777-9 7-17.862 4.339M25 96.155c6.637 2.912 23.927 9.716 39.994 13.631C81.062 113.7 97.411 114.641 103 114l37-61.01c-1.805.7-4.308 2.01-8.5 2.01s-7.757-1.31-8.335-2.01"/><path stroke="var(--accent-color, #f58220)" stroke-width="1.5" d="M76.301 39 71.5 46c1 1.487 11.695 3.803 20 5 6.644.958 14.783.943 18.022 1l5.978-8.5c-4.5.5-14.248-.053-20.468-.737S79.953 39.97 76.302 39Z"/><path stroke="var(--main-color, #377cb5)" stroke-width="1.5" d="M65 56c4 2 10.118 3.88 16.5 5S95 63 104 63M59 66c2.986 1.059 10.562 3.678 17.5 5C87 73 94 73 98 73"/></svg>