<svg xmlns="http://www.w3.org/2000/svg" id="self" fill="none" preserveAspectRatio="xMidYMid meet" viewBox="0 0 173 153"><path stroke="var(--main-color, #377cb5)" stroke-width="1.5" d="M120.88 40.255c3.254 0 3.254.024 6.196.528 2.942.503 5.349 2.092 5.349 2.092V116c-3.256-1.071-12.078-3.214-21.314-3.214S91.277 114.929 87.133 116m0 0c-2.96-1.071-11.367-3.214-21.314-3.214S45.097 114.929 40.953 116V42.875c4.144-1.34 11.838-4.018 23.09-4.018s18.945 2.679 23.09 4.018m0 73.125V42.875m0 73.125 33.747-12.391V26L87.133 42.875"/><path stroke="var(--accent-color, #f58220)" stroke-width="1.5" d="M50.565 55.941c2.349-1.059 8.281-3.176 13.215-3.176s10.278 1.411 12.334 2.117"/><path stroke="var(--main-color, #377cb5)" stroke-width="1.5" d="M50.565 78.177C52.914 77.117 58.846 75 63.78 75s10.278 1.412 12.334 2.118M50.565 67.059c2.349-1.059 8.281-3.177 13.215-3.177S74.058 65.294 76.114 66M50.565 89.294c2.349-1.059 8.281-3.176 13.215-3.176s10.278 1.411 12.334 2.117M50.565 100.412c2.349-1.059 8.281-3.177 13.215-3.177s10.278 1.412 12.334 2.118M95.277 49.588l17.566-7.941M95.277 60.706l17.566-7.941M95.277 71.824l17.566-7.942M95.277 82.941 112.843 75M95.277 94.059l17.566-7.941"/><path stroke="var(--main-color, #377cb5)" stroke-width="1.5" d="M39.007 49h-3.024A2.99 2.99 0 0 0 33 52v67.19c0 1.657 1.335 3 2.983 3h46.263c.25 1.585 1.58 4.81 5.195 4.81 3.754 0 5.068-3.513 5.318-4.81h44.638a2.99 2.99 0 0 0 2.983-3V52c0-1.657-1.336-3-2.983-3h-2.649"/></svg>