<svg xmlns="http://www.w3.org/2000/svg" id="self" fill="none" preserveAspectRatio="xMidYMid meet" viewBox="0 0 173 153"><path stroke="var(--main-color, #377cb5)" stroke-width="1.5" d="m35.02 58.209 56.903 11.956 50.433-28.583L86.214 30zm0 0c-1.46.622-4.302 3.063-3.997 7.846s3.68 7.846 5.328 8.78L65.09 81"/><path stroke="var(--main-color, #377cb5)" stroke-width="1.5" d="M35.922 76c-1.64.998-4.92 4.153-4.92 8.793s3.28 7.173 4.92 7.859L91.552 105l47.823-26.576m0 0 .994-.553c-1.325-.79-3.977-3.371-3.977-8.371s2.983-7.833 3.977-9.5m-.994 18.424c-1.491 1.192-4.176 4.876-2.983 10.076s3.149 6.5 3.977 6.5"/><path stroke="var(--main-color, #377cb5)" stroke-width="1.5" d="M91.65 70c-.829 1-2.486 4-2.486 8s1.657 7.333 2.486 8.5M91.65 87c-.994 1.09-2.982 4.364-2.982 8.727s1.988 8 2.983 9.273M91.65 105c-.994 1.091-2.982 4.364-2.982 8.727s1.988 8 2.983 9.273"/><path stroke="var(--main-color, #377cb5)" stroke-width="1.5" d="M35.367 93c-1.39.78-4.207 3.312-4.36 7.208-.15 3.896 1.96 7.727 3.033 9.156L92.037 123l48.33-28.247M78.727 84l12.596 3 49.047-27c-1.16-.167-3.48-1.9-3.48-7.5s2.32-8.667 3.48-9.5"/><path stroke="var(--accent-color, #f58220)" stroke-width="1.5" d="m90.879 41-11.16 6.519L98.589 52l10.957-6.722zM68.781 89.944V72l8.948 1.495V92l-4.569-4.486z"/></svg>