<svg xmlns="http://www.w3.org/2000/svg" id="self" fill="none" preserveAspectRatio="xMidYMid meet" viewBox="0 0 173 153"><path stroke="var(--main-color, #377cb5)" stroke-width="1.5" d="M101.46 48.156V29.097H49.029c-2.73 0-4.943 2.239-4.943 5v65.304c0 3.314 2.656 6 5.931 6h18.079"/><path stroke="var(--main-color, #377cb5)" stroke-width="1.5" d="M44.464 100.567c0-2.858 0-7.147 8.34-7.147 4.095 0-.63.242 15.293.242M54.82 29.684v63.978M72.755 47.847h53.543v73.862H73.744c-2.867 0-5.19-2.35-5.19-5.25V52.097c0-2.347 1.88-4.25 4.201-4.25Z"/><path stroke="var(--main-color, #377cb5)" stroke-width="1.5" d="M68.652 117.685c0-2.824.297-7.059 7.878-7.059 4.094 0 34.501.239 50.422.239M78.546 47.677v63.188"/><path stroke="var(--accent-color, #f58220)" stroke-linejoin="round" stroke-width="1.5" d="M97.139 98.713V56.424s.78-1.666 3.184-1.69 2.978 1.69 2.978 1.69v42.289m-6.162 0 3.349 6.393 2.813-6.393m-6.162 0c.395-.576 1.816-1.418 3.184-1.418 1.603 0 2.406.852 2.978 1.418"/><path stroke="var(--accent-color, #f58220)" stroke-width="1.5" d="m99.9 103.394 1.224-.018"/><path stroke="var(--main-color, #377cb5)" stroke-width="1.5" d="M108.257 30.942c1.664-1.318 6.266-3.285 11.357-.612s5.581 7.313 4.764 9.077"/><path stroke="var(--main-color, #377cb5)" stroke-width="1.5" d="m120.778 36.88 3.82 3.399 4.22-3.661M63.68 122.5c-1.776 1.2-6.537 2.849-11.378-.161-4.84-3.011-4.92-7.671-3.95-9.374"/><path stroke="var(--main-color, #377cb5)" stroke-width="1.5" d="m52.04 115.479-3.84-3.382-4.2 3.678"/></svg>