<svg xmlns="http://www.w3.org/2000/svg" id="self" fill="none" preserveAspectRatio="xMidYMid meet" viewBox="0 0 173 153"><path stroke="var(--accent-color, #f58220)" stroke-linejoin="round" stroke-width=".766" d="m95.729 88.388 1.175 3.605a.72.72 0 0 0 .683.494h3.803c.099 0 .14.127.06.185L98.373 94.9a.71.71 0 0 0-.26.8l1.175 3.605a.102.102 0 0 1-.158.114l-3.077-2.228a.72.72 0 0 0-.843 0l-3.077 2.228a.102.102 0 0 1-.158-.114L93.15 95.7a.71.71 0 0 0-.26-.8l-3.077-2.228a.102.102 0 0 1 .06-.185h3.803c.311 0 .587-.2.683-.494l1.175-3.605a.103.103 0 0 1 .195 0Z"/><path fill="var(--accent-color, #f58220)" stroke="var(--accent-color, #f58220)" stroke-width=".766" d="m43.466 47.857.068.015.005.002c1.337.563 2.886.933 4.176.995v.001l.044.002.035.001.044.004.046.013C60.562 54.546 68.45 61.547 70.888 69.1l.111.36c1.47 4.911.66 9.959-2.457 15.032l-.31.49a.18.18 0 0 1-.177.079l-.066-.026-.049-.046a.2.2 0 0 1-.027-.062v-.067a.2.2 0 0 1 .023-.063c3.183-4.947 4.161-9.92 2.86-14.77l-.133-.468c-2.297-7.68-10.248-14.68-22.826-20.309l-.066-.03-.072-.003-.51-.038a13.4 13.4 0 0 1-3.254-.775l-.533-.21-.005-.002-.058-.038-.038-.057-.014-.068q0-.033.014-.066l.039-.056a.18.18 0 0 1 .126-.05Z"/><path fill="var(--main-color, #377cb5)" d="M152.121 77.423c-.499-1.66-1.518-2.056-2.543-1.72-2.629.864-6.863 6.745-12.603 17.524a9.5 9.5 0 0 0-3.388-.092c-31.742-19.92-24.716-37.392-21.801-42.278q.309-.515.652-1.007a8.8 8.8 0 0 0 2.367-.327c5.326 5.503 12.968 10.826 19.702 7.16 1.506-.82 1.943-2.072.624-3.477-2.048-2.182-8.098-4.803-18.056-7.82.543-1.04.313-2.402-1.161-3.489-1.634-1.205-4.717-1.95-7.372-1.072-5.117-4.908-14.534-12.081-21.963-7.189-1.267.834-1.673 1.976-.674 3.14 2.216 2.584 10.692 4.96 18.476 6.67-.902 1.505-.04 3.107 1.362 4.22-11.764 12.244-33.137 5.826-41.858 2.46-3.64-1.404-7.222-3.085-10.117-4.746-.3-1.21-1.277-2.159-2.115-2.778 3.6-.033 16.74-.182 19.246-2.737.7-.713.78-1.742-.394-2.841-6.536-6.12-17.247-.32-21.838 2.68-3.222-1.569-7.664-.929-8.99 1.328-11.453-.533-15.723.286-17.399 1.108-1.429.702-1.75 1.964-.5 3.307 4.253 4.564 11.054 3.524 16.885 1.215-.206 2.257-.138 3.61.546 4.44 1.897 2.301 5.176 3.004 8.164 2.921 17.587 9.054 23.568 23.313 11.974 38.75-1.086-2.878-4.087-9.48-8.807-13.317-2.64-2.145-5.43-3.109-8.315-2.874-1.488.122-3.183.456-3.49 1.915-.561 2.683 4.8 8.048 15.933 15.95-.54.327-.952.728-1.225 1.185-2.946.993-2.917 2.673-3.209 4.818-.295 2.167-.537 4.35.39 5.58 3.356 4.437 12.885 4.772 13.926.271.007-.031.005-.025.1-.655 4.725 6.407 11.462 12.276 18.857 9.312 1.884-.755 2.206-2.103 1.389-3.5-2.151-3.684-12.928-8.991-16.815-10.86 8.773-5.126 10.335-3.37 12.87-.522 1.975 2.22 4.433 4.983 10.65 5.795 18.971 2.474 15.429-6.933 19.543-8.278 2.303-.753 7.177.825 15.751 5.113-4.885 4.124-9.497 10.008-7.079 16.405.72 1.908 2.211 2.317 4.082.567 2.796-2.616 6.302-9.581 7.977-13.044 3.451 2.736 11.499 3.354 12.496-.952l.883-3.876c.563-2.062-1.072-3.926-2.935-5.025-.273-.545-.686-1.072-1.221-1.554 5.461-3.367 13.426-9.825 11.023-17.804M87.194 34.565c6.899-4.542 16.005 2.623 20.819 7.3a.56.56 0 0 0 .622.106c3.81-1.466 9.21 1.234 7.145 3.309a.557.557 0 0 0 .26.957c11.397 3.41 16.759 6.068 18.285 7.692.723.77.615 1.249-.353 1.776-6.93 3.773-15.257-3.18-20.375-9.164a.55.55 0 0 0-.506-.189c-2.984.336-6.201-1.153-6.074-2.794.031-.402-.016-.692-.414-.776-3.14-.655-17.49-3.827-19.823-6.629-.556-.667-.329-1.099.415-1.588M22.598 44.689c-.679-.728-.657-1.147.24-1.578 1.774-.855 6.933-1.445 17.15-.95a.56.56 0 0 0 .429-.177c.193-.203.309-1.044 1.942-1.636 1.848-.669 4.279-.48 6.048.47.225.121.438.105.61-.008 4.204-2.793 14.64-8.672 20.725-2.975.766.717.652 1.076.135 1.454-1.512 1.11-7.192 2.168-19.372 2.207a.558.558 0 0 0-.5.798c1.33 2.744-4.683 4.315-8.193 2.03-.266-.173-.491-.06-.63.006-6.124 2.848-13.973 5.309-18.584.359m40.859 61.382c-.799 3.312-9.045 3.116-11.94-.711-.563-.746-.478-2.322-.283-3.93 1.101 1.517 3.143 2.584 4.974 3.123a.56.56 0 0 0 .686-.379.555.555 0 0 0-.37-.689c-2.48-.731-4.984-2.377-4.985-4.392.034-1.056.797-1.706 1.517-2.087-.036 3.594 5.516 5.804 9.283 5.235q.664 1.062 1.377 2.095zm19.634 7.853c-8.024 3.217-15.468-5.239-20.003-12.59a.56.56 0 0 0-.608-.248c-1.075.214-2.294.178-3.527-.106-3.016-.693-4.686-2.447-4.777-3.821-.069-1.036.787-1.72 1.756-2.089a.555.555 0 0 0 .136-.998C45.45 86.602 39.38 80.865 39.829 78.725c.177-.847 1.902-1.007 2.772-1.05 10.233-.508 15.953 16.14 16.1 16.61a.56.56 0 0 0 .488.443c.97.1 1.92.35 2.812.742 1.812.8 3.86 2.487 2.903 4.21a.556.556 0 0 0 .213.749c.164.093 16.583 7.506 18.847 11.647.516.943.146 1.44-.874 1.848m27.705-17.39c-5.168 1.69-.464 10.656-19.05 8.232-5.803-.757-8.108-3.348-9.96-5.43-3.047-3.426-5.26-5.088-14.916.683l-.745-.35c.307-.913.12-1.817-.412-2.649 17.76-15.42 33.577-17.34 52.809-6.43a.56.56 0 0 0 .619-.045.5.5 0 0 0 .142-.164.566.566 0 0 0-.043-.617.6.6 0 0 0-.166-.143c-20.421-11.583-36.898-8.354-54.064 6.534-1.098-1.105-2.869-2.065-4.982-2.433 12.406-16.245 6.023-31.39-12.265-40.752-.146-.075-.272-.064-.434-.06-3.274.086-5.848-.807-7.256-2.515-.49-.594-.463-2.055-.24-4.218.35-.151.8-.344 1.649-.755 3.486 2.033 8.991 1.189 9.739-1.75.67.533 1.362 1.277 1.499 2.15a.56.56 0 0 0 .27.395c2.982 1.73 6.708 3.487 10.493 4.948 14.54 5.61 33.08 8.286 43.511-3.205a.55.55 0 0 0 .062-.666.55.55 0 0 0-.165-.17c-1.335-.891-2.396-2.277-1.312-3.42l.322.069c.034.678.362 1.332.962 1.908 1.16 1.114 3.5 2.006 6.075 1.801q.487.563.989 1.11a8 8 0 0 1-1.756.142.56.56 0 0 0-.467.227q-.468.642-.876 1.325c-1.768 2.963-4.367 9.171-1.904 17.452 2.668 8.967 10.472 17.639 23.2 25.789-2.721 1.073-3.406 3.862-1.174 6.13a49 49 0 0 0-3.111 2.275c-9.375-4.72-14.325-6.287-17.043-5.398m29.135 7.15a.56.56 0 0 0-.524.575.558.558 0 0 0 .562.538c1.499-.051 2.753-.388 3.676-.959l-.362 1.595c-.761 3.286-8.103 2.658-10.911.161a188 188 0 0 0 1.831-3.98c3.529 1.173 8.474.376 8.511-3.21 2.847 2.323 1.615 5.132-2.783 5.28m-.087-9a.554.554 0 0 0-.242.657q.042.122.133.213c.089.09.808.542 1.331 1.295.987 1.42.542 2.849-.867 3.582-1.662.865-4.459.682-6.068-.03a.55.55 0 0 0-.632.13c-.161.172-.494 1.15-2.292 4.914-.014.024-4.968 10.638-8.142 13.52-1.244 1.128-1.798.826-2.203-.247-3.681-9.736 11.074-18.215 11.423-18.638a.56.56 0 0 0-.08-.784c-1.126-.917-1.644-1.995-1.422-2.956.511-2.206 4.079-2.515 6.345-1.936a.57.57 0 0 0 .634-.28c6.348-11.97 10.299-16.746 12.071-17.352.689-.236.986.197 1.22.971 2.286 7.595-6.041 13.873-11.209 16.94"/></svg>