<svg xmlns="http://www.w3.org/2000/svg" id="self" fill="none" preserveAspectRatio="xMidYMid meet" viewBox="0 0 173 153"><path stroke="var(--main-color, #377cb5)" stroke-width="1.5" d="M102.704 49.059V30H49.971C47.226 30 45 32.239 45 35v65.304c0 3.314 2.67 6 5.965 6h18.183"/><path stroke="var(--main-color, #377cb5)" stroke-width="1.5" d="M45.379 101.47c0-2.859 0-7.147 8.389-7.147 4.118 0-.634.242 15.38.242M55.795 30.587v63.978M73.833 48.75h53.851v73.862H74.827c-2.882 0-5.22-2.35-5.22-5.25V53c0-2.347 1.892-4.25 4.226-4.25Z"/><path stroke="var(--main-color, #377cb5)" stroke-width="1.5" d="M69.707 118.588c0-2.824.299-7.059 7.923-7.059 4.118 0 34.699.239 50.712.239M79.657 48.58v63.188"/><path stroke="var(--accent-color, #f58220)" stroke-linejoin="round" stroke-width="1.5" d="M102.343 66.159a.248.248 0 0 1 .473 0l2.849 8.82c.233.72.901 1.209 1.655 1.209h9.22c.241 0 .341.31.146.452l-7.459 5.45a1.755 1.755 0 0 0-.632 1.957l2.849 8.82c.075.23-.188.422-.383.28l-7.458-5.451a1.73 1.73 0 0 0-2.047 0l-7.458 5.45c-.195.143-.457-.049-.383-.279l2.85-8.82a1.755 1.755 0 0 0-.633-1.956l-7.459-5.451c-.195-.142-.095-.452.146-.452h9.22c.754 0 1.422-.489 1.655-1.21z"/></svg>