<svg xmlns="http://www.w3.org/2000/svg" id="self" fill="none" preserveAspectRatio="xMidYMid meet" viewBox="0 0 173 153"><path stroke="var(--main-color, #377cb5)" stroke-width="1.5" d="M61.565 32.784H46.004c-1.229 0-2.225 1.007-2.225 2.25v85.442c0 1.242.996 2.25 2.225 2.25h15.561c1.229 0 2.224-1.008 2.224-2.25V35.034c0-1.243-.995-2.25-2.224-2.25Z"/><path stroke="var(--main-color, #377cb5)" stroke-width="1.5" d="M81.438 32.784H65.877c-1.229 0-2.225 1.007-2.225 2.25v85.442c0 1.243.996 2.25 2.225 2.25h15.561c1.229 0 2.224-1.007 2.224-2.25V35.034c0-1.243-.995-2.25-2.224-2.25Z"/><path stroke="var(--accent-color, #f58220)" stroke-width="1.5" d="M101.005 31.109 86.19 35.928c-1.17.38-1.812 1.648-1.436 2.83l25.858 81.34a2.22 2.22 0 0 0 2.799 1.453l14.814-4.819c1.17-.38 1.813-1.648 1.437-2.831l-25.858-81.34a2.22 2.22 0 0 0-2.799-1.452Z"/><path stroke="var(--main-color, #377cb5)" stroke-width="1.5" d="M43 48.66h19.913M43 56.333h19.913M43 64.007h19.913M63.86 67.843h19.912M63.86 75.517h19.912M63.86 48.66h19.912"/><path stroke="var(--accent-color, #f58220)" stroke-width="1.5" d="m88.828 51.58 18.972-6.118M91.988 60.533l18.973-6.118"/></svg>