<svg xmlns="http://www.w3.org/2000/svg" id="self" fill="none" preserveAspectRatio="xMidYMid meet" viewBox="0 0 173 153"><path stroke="var(--main-color, #377cb5)" stroke-width="1.5" d="M129.949 101v17M129.949 73v16M53.784 96h76.808a2.793 2.793 0 0 1 0 5.565H53.784c-5.22 0-8.898 3.86-8.898 8.108s3.678 8.516 8.898 8.516h76.808c1.104 0 3.311.48 3.311 2.999S131.696 124 130.592 124H53.784C48.564 124 39 120.468 39 109.673S48.932 96 53.784 96Z"/><path stroke="var(--main-color, #377cb5)" stroke-width="1.5" d="M92.383 68h38.209a2.793 2.793 0 0 1 0 5.565H53.784c-5.22 0-8.898 3.86-8.898 8.108s3.678 8.516 8.898 8.516h76.808c1.104 0 3.311.48 3.311 2.999S131.696 96 130.592 96H53.784C48.564 96 39 92.468 39 81.673S48.932 68 53.784 68h13.885"/><path stroke="var(--accent-color, #f58220)" stroke-linecap="round" stroke-linejoin="round" stroke-width="1.5" d="M80.21 41.3c.219-1.47.24-4.973-1.427-7.232S74.58 30.414 73.518 30m7.24 37.287c-1.207.301-4.103.858-6.033.678-2.413-.226-10.201-8.362-8.885-17.627 1.053-7.412 5.557-9.114 7.678-9.039.585.113 2.04.475 3.181 1.017 1.426.678 2.304 1.243 3.51 1.243.965 0 3.254-1.13 4.278-1.695.731-.377 2.589-1.017 4.168-.565 1.975.565 6.582 3.503 6.691 10.056.088 5.243-2.376 9.793-3.62 11.412-1.133 1.733-3.839 5.198-5.594 5.198s-4.314-.452-5.374-.678"/></svg>