<svg xmlns="http://www.w3.org/2000/svg" id="self" fill="none" preserveAspectRatio="xMidYMid meet" viewBox="0 0 173 153"><path stroke="var(--main-color, #377cb5)" stroke-width="1.5" d="M69.766 38.03a27 27 0 0 0-2.812-.144c-12.21 0-21.323 7.978-25.003 11.967v63.829c4.005-3.591 11.625-10.771 23.054-10.771 11.43 0 21.43 7.18 24.678 10.771 3.68-3.325 10.845-10.133 23.054-10.771s22.405 6.914 23.704 10.771V49.853c-3.139-3.989-12.274-11.967-23.704-11.967-1.297 0-2.563.102-3.795.29M89.568 75.462v37.821"/><path stroke="var(--main-color, #377cb5)" stroke-width="1.5" d="M41.952 56.237H36v62.458h48.36c.249 1.371 1.999 4.162 5.58 4.162 3.72 0 4.589-3.04 4.837-4.162h47.616V56.237h-5.579"/><path stroke="var(--main-color, #377cb5)" stroke-width="1.5" d="M113.356 51.75c0 13.103-10.719 23.75-23.973 23.75S65.41 64.853 65.41 51.75 76.13 28 89.383 28s23.973 10.647 23.973 23.75Z"/><path stroke="var(--accent-color, #f58220)" stroke-width="1.5" d="M96.737 48.995c0 5.42-4.128 9.75-9.144 9.75-5.017 0-9.145-4.33-9.145-9.75s4.128-9.75 9.145-9.75 9.144 4.33 9.144 9.75Z"/><path stroke="var(--accent-color, #f58220)" stroke-width="1.5" d="m92.536 57.067 5.085 5.142c.7.71 1.839.71 2.541 0a1.833 1.833 0 0 0 0-2.571l-5.084-5.143"/><path stroke="var(--accent-color, #f58220)" stroke-linecap="round" stroke-width="1.5" d="M82.65 45.495c-.33.462-.989 1.754-.989 3.23 0 1.478.66 2.462.989 2.77"/></svg>