<svg xmlns="http://www.w3.org/2000/svg" id="self" fill="none" preserveAspectRatio="xMidYMid meet" viewBox="0 0 173 153"><path stroke="var(--main-color, #377cb5)" stroke-width="1.5" d="M52.25 28h72.136v97.105H53.25c-2.9 0-5.25-2.365-5.25-5.284V32.278C48 29.915 49.903 28 52.25 28Z"/><path stroke="var(--main-color, #377cb5)" stroke-width="1.5" d="M48.135 119.85c0-3.624.393-9.059 10.431-9.059 5.422 0 45.685.307 66.769.307M61.363 28.004v82.685"/><path fill="var(--accent-color, #f58220)" d="M74.491 76.568h-1.847l5.341-14.642h1.819l5.34 14.641h-1.846L78.95 64.244h-.113zm.682-5.72h7.443v1.573h-7.443zm12.237 5.72V61.926h8.779V63.5h-7.017v4.575h3.693q1.562 0 2.635.515 1.08.515 1.633 1.451.561.937.561 2.21t-.56 2.244q-.555.972-1.634 1.523-1.073.55-2.635.55zm1.761-1.545h3.694q.995 0 1.683-.4a2.77 2.77 0 0 0 1.413-2.402q0-1.05-.802-1.809-.803-.765-2.294-.765h-3.693zm11.423 1.544v-14.64h5.085q1.52 0 2.507.528.987.522 1.47 1.409.483.879.483 1.951 0 .944-.334 1.559-.326.615-.866.972a4 4 0 0 1-1.158.53v.142q.668.043 1.342.472.675.429 1.13 1.23t.454 1.959q0 1.1-.497 1.98t-1.57 1.394-2.791.514zm1.761-1.572h3.494q1.727 0 2.451-.672.73-.68.731-1.644 0-.744-.376-1.373a2.73 2.73 0 0 0-1.073-1.015q-.696-.386-1.648-.386h-3.579zm0-6.635h3.267q.796 0 1.435-.314a2.5 2.5 0 0 0 1.022-.887q.384-.57.384-1.344 0-.965-.668-1.637-.667-.68-2.116-.679h-3.324z"/></svg>