<svg xmlns="http://www.w3.org/2000/svg" id="self" fill="none" preserveAspectRatio="xMidYMid meet" viewBox="0 0 173 153"><path stroke="var(--main-color, #377cb5)" stroke-width="1.5" d="M52.226 28h71.721v97.749H53.22c-2.883 0-5.22-2.381-5.22-5.32V32.306C48 29.928 49.892 28 52.226 28Z"/><path stroke="var(--main-color, #377cb5)" stroke-width="1.5" d="M48.135 120.458c0-3.647.391-9.119 10.371-9.119 5.39 0 45.422.309 66.385.309M61.288 28.004v83.233"/><path stroke="var(--main-color, #377cb5)" stroke-linecap="round" stroke-width="1.5" d="M77.963 66.757V80.95c1.754 1.787 7.231 5.058 15.103 5.058s12.434-3.43 13.73-5.217V66.757"/><path stroke="var(--main-color, #377cb5)" stroke-width="1.5" d="m70.28 61.653 21.728-8.93a.98.98 0 0 1 .743 0l21.729 8.93c.826.34.831 1.53.008 1.876l-21.729 9.147a.98.98 0 0 1-.759 0L70.272 63.53c-.823-.346-.818-1.537.008-1.876Z"/><path stroke="var(--accent-color, #f58220)" stroke-linecap="round" stroke-width="1.5" d="m92.876 59.664 19.254 7.698c.38.152.631.526.631.943v3.011"/><path stroke="var(--accent-color, #f58220)" stroke-width="1.5" d="m109.963 85.848 1.407-8.96h2.585l1.578 8.94a1.006 1.006 0 0 1-.978 1.193h-3.61a1.007 1.007 0 0 1-.982-1.173ZM112.761 76.13c1.236 0 2.237-1.021 2.237-2.28 0-1.26-1.001-2.28-2.237-2.28-1.235 0-2.237 1.02-2.237 2.28s1.002 2.28 2.237 2.28Z"/></svg>