<svg xmlns="http://www.w3.org/2000/svg" id="self" fill="none" preserveAspectRatio="xMidYMid meet" viewBox="0 0 173 153"><path stroke="var(--main-color, #377cb5)" stroke-width="1.5" d="M51.3 28h72.98v97.749H52.311a5.315 5.315 0 0 1-5.311-5.32V32.306A4.303 4.303 0 0 1 51.3 28Z"/><path stroke="var(--main-color, #377cb5)" stroke-width="1.5" d="M47.138 120.458c0-3.647.398-9.119 10.553-9.119 5.485 0 46.219.309 67.55.309M60.522 28.004v83.233M92.06 88.288c10.476 0 18.969-8.506 18.969-18.998s-8.493-18.999-18.97-18.999-18.97 8.506-18.97 18.999 8.494 18.998 18.97 18.998ZM69.577 64.265c.218-2.158 1.146-5.396 3.57-8.68 2.47-3.352 5.607-5.108 6.627-5.618"/><path fill="var(--accent-color, #f58220)" d="M83.855 75.057q-2.25 0-4.046-1.8l.841-.924q1.603 1.557 3.221 1.557 1.215 0 1.975-.713.76-.714.761-1.832 0-1.055-.793-1.719-.777-.665-2.023-.665-1.165 0-2.38.649l-.858-.568.324-5.528H87.4v1.184h-5.406l-.243 3.631q1.149-.502 2.234-.502 1.7 0 2.8.956 1.117.94 1.117 2.545 0 1.654-1.133 2.691-1.133 1.038-2.914 1.038m7.905-.195v-10.1l-2.137.665-.308-1.037 2.768-.957h.94v11.43zm3.68 0v-.988l4.113-3.632q1.326-1.168 1.845-1.945.518-.779.518-1.621 0-.973-.664-1.573t-1.618-.6q-.923 0-1.635.47-.697.47-1.41 1.476l-.938-.681q.825-1.233 1.749-1.816.923-.6 2.33-.6 1.522 0 2.51.924 1.003.908 1.003 2.318 0 1.168-.631 2.076-.631.907-2.234 2.334l-3.027 2.691h6.006v1.168z"/><path fill="var(--accent-color, #f58220)" d="m79.808 73.258-.15-.137-.13.143.137.137zm.842-.925.14-.145-.15-.145-.14.154zm5.163-2.707-.131.154.002.001zm-4.403-.016-.11.169.1.066.106-.056zm-.857-.568-.202-.011-.007.116.097.064zm.323-5.528v-.203h-.19l-.012.191zm6.524 0h.202v-.203H87.4zm0 1.184v.202h.202v-.202zm-5.407 0v-.203h-.189l-.013.19zm-.242 3.631-.202-.013-.023.332.305-.133zm5.034.454-.133.153.002.002zm-2.93 6.071c-1.44 0-2.739-.573-3.904-1.74l-.286.287c1.23 1.232 2.63 1.859 4.19 1.859zm-3.898-1.46.842-.924-.299-.273-.841.924zm.552-.915c1.091 1.06 2.213 1.613 3.362 1.613v-.405c-1.01 0-2.035-.484-3.08-1.5zm3.362 1.613c.852 0 1.562-.251 2.113-.768l-.276-.296c-.464.435-1.07.66-1.837.66zm2.113-.768c.551-.516.825-1.182.825-1.98h-.405c0 .695-.233 1.25-.697 1.685zm.825-1.98c0-.76-.29-1.391-.866-1.873l-.26.31c.482.404.721.92.721 1.563zm-.864-1.872c-.562-.48-1.287-.713-2.155-.713v.405c.794 0 1.418.21 1.892.616zm-2.155-.713c-.816 0-1.641.227-2.475.672l.19.358c.786-.42 1.547-.625 2.285-.625zm-2.268.682-.858-.568-.223.338.858.568zm-.767-.387.323-5.528-.404-.024-.323 5.529zm.121-5.337H87.4v-.405h-6.524zm6.321-.203v1.184h.405v-1.184zm.203.981h-5.407v.405H87.4zm-5.609.19-.242 3.63.403.028.243-3.632zm.04 3.83q1.117-.487 2.153-.486v-.405q-1.133.001-2.314.52zm2.153-.486c1.093 0 1.977.307 2.668.907l.265-.306c-.776-.675-1.76-1.006-2.933-1.006zm2.67.91c.695.583 1.045 1.373 1.045 2.39h.405c0-1.124-.394-2.032-1.19-2.701zm1.045 2.39c0 1.05-.357 1.89-1.067 2.54l.273.3c.8-.733 1.199-1.686 1.199-2.84zm-1.067 2.54c-.712.653-1.632.985-2.777.985v.406c1.229 0 2.251-.36 3.05-1.091zm5.127.993h-.202v.203h.202zm0-10.1h.202v-.275l-.262.082zm-2.137.665-.194.058.059.197.195-.061zm-.307-1.037-.066-.192-.183.063.055.186zm2.768-.957v-.203h-.034l-.032.012zm.939 0h.202v-.203h-.202zm0 11.43v.202h.202v-.203zm-1.06 0v-10.1h-.405v10.1zm-.263-10.294-2.137.665.12.387 2.137-.665zm-1.883.8-.307-1.037-.388.115.307 1.038zm-.435-.788 2.768-.956-.132-.383-2.768.956zm2.702-.945h.939v-.406h-.94zm.736-.203v11.43h.405v-11.43zm.203 11.227h-1.263v.405h1.263zm2.418.203h-.202v.202h.202zm0-.99-.134-.151-.068.06v.092zm4.112-3.63-.133-.153h-.001zm-1.554-5.27-.112-.169-.001.001zm-1.408 1.475-.12.165.166.12.119-.167zm-.94-.68-.168-.113-.108.162.158.115zm1.749-1.816.108.171.002-.001zm4.84.324-.138.148.003.002zm-4.89 9.42-.133-.152-.398.354h.532zm6.007 0h.203v-.203h-.203zm0 1.166v.203h.203v-.203zm-7.714 0v-.988h-.404v.989zm-.068-.836 4.112-3.632-.268-.304-4.112 3.632zm4.112-3.632c.888-.781 1.519-1.444 1.88-1.985l-.337-.225c-.33.496-.929 1.13-1.81 1.906zm1.88-1.985c.365-.548.552-1.127.552-1.734h-.405q.002.776-.484 1.51zm.552-1.734c0-.7-.242-1.28-.731-1.722l-.271.3c.396.358.597.826.597 1.422zm-.731-1.722c-.482-.436-1.071-.653-1.754-.653v.406c.59 0 1.081.183 1.483.547zm-1.754-.653c-.651 0-1.237.167-1.747.504l.224.338q.656-.436 1.523-.436zm-1.748.505c-.492.332-.978.845-1.46 1.526l.33.235c.466-.659.919-1.13 1.356-1.425zm-1.177 1.48-.939-.681-.237.328.939.68zm-.89-.404c.54-.806 1.105-1.388 1.689-1.758l-.216-.343c-.646.41-1.248 1.038-1.809 1.875zm1.69-1.76c.575-.372 1.31-.566 2.222-.566v-.406c-.967 0-1.785.206-2.441.633zm2.222-.566c.97 0 1.755.293 2.371.87l.276-.297c-.7-.656-1.588-.979-2.647-.979zm2.374.872c.624.565.937 1.282.937 2.167h.404c0-.994-.357-1.823-1.07-2.468zm.937 2.167c0 .74-.2 1.39-.596 1.96l.333.231c.445-.64.667-1.373.667-2.19zm-.596 1.96c-.407.585-1.136 1.35-2.202 2.299l.268.303c1.072-.954 1.832-1.745 2.267-2.37zm-2.202 2.299-3.027 2.69.269.304 3.026-2.691zm-2.893 3.045h6.006v-.405H97.35zm5.804-.203v1.168h.405v-1.168zm.202.965H95.44v.405h7.916z"/></svg>