<svg xmlns="http://www.w3.org/2000/svg" id="self" fill="none" preserveAspectRatio="xMidYMid meet" viewBox="0 0 173 153"><path stroke="var(--main-color, #377cb5)" stroke-width="1.5" d="M52.25 29h72.136v95.844H53.25c-2.9 0-5.25-2.334-5.25-5.216V33.222C48 30.89 49.903 29 52.25 29Z"/><path stroke="var(--main-color, #377cb5)" stroke-width="1.5" d="M48.135 119.657c0-3.576.393-8.941 10.431-8.941 5.422 0 45.685.303 66.769.303M61.363 29.003v81.612"/><path stroke="var(--accent-color, #f58220)" stroke-width="1.5" d="M92.635 65.76a2.74 2.74 0 0 1 2.75 2.732 2.74 2.74 0 0 1-2.75 2.732 2.74 2.74 0 0 1-2.75-2.732 2.74 2.74 0 0 1 2.75-2.733Z"/><path stroke="var(--main-color, #377cb5)" stroke-width="1.5" d="M116.385 69.513c0 1.11-.55 2.239-1.697 3.34-1.148 1.104-2.849 2.132-5.013 3.012-4.323 1.757-10.347 2.86-17.04 2.86s-12.717-1.103-17.04-2.86c-2.164-.88-3.865-1.908-5.013-3.012-1.147-1.101-1.697-2.23-1.697-3.34s.55-2.239 1.697-3.34c1.148-1.104 2.85-2.132 5.013-3.011 4.323-1.758 10.347-2.861 17.04-2.861s12.717 1.103 17.04 2.86c2.164.88 3.865 1.908 5.013 3.012 1.147 1.101 1.697 2.23 1.697 3.34Z"/><path stroke="var(--accent-color, #f58220)" stroke-width="1.5" d="M108.423 51.65c.785.694 1.233 1.808 1.266 3.361.033 1.556-.356 3.475-1.161 5.644-1.607 4.332-4.818 9.51-9.27 14.48C94.806 80.102 90 83.871 85.856 85.96c-2.075 1.046-3.948 1.652-5.507 1.8-1.557.147-2.723-.166-3.507-.86s-1.233-1.807-1.266-3.361.356-3.474 1.16-5.643c1.608-4.333 4.82-9.51 9.271-14.48 4.452-4.969 9.257-8.737 13.402-10.826 2.075-1.045 3.948-1.651 5.507-1.8 1.557-.147 2.723.166 3.507.86Z"/><path stroke="var(--main-color, #377cb5)" stroke-width="1.5" d="M83.91 46.225c.972-.363 2.177-.223 3.6.52 1.422.743 2.98 2.05 4.574 3.856 3.184 3.609 6.399 9.09 8.86 15.591s3.677 12.729 3.675 17.528c-.001 2.402-.307 4.405-.885 5.895-.577 1.49-1.39 2.384-2.362 2.747-.971.363-2.176.223-3.6-.52-1.421-.743-2.98-2.05-4.573-3.856-3.184-3.609-6.4-9.09-8.86-15.59-2.46-6.502-3.677-12.73-3.675-17.529 0-2.402.307-4.405.885-5.895.577-1.49 1.39-2.384 2.362-2.747Z"/><path stroke="var(--main-color, #377cb5)" stroke-width="1.5" d="M83.91 46.225c.972-.363 2.177-.223 3.6.52 1.422.743 2.98 2.05 4.574 3.856 3.184 3.609 6.399 9.09 8.86 15.591s3.677 12.729 3.675 17.528c-.001 2.402-.307 4.405-.885 5.895-.577 1.49-1.39 2.384-2.362 2.747-.971.363-2.176.223-3.6-.52-1.421-.743-2.98-2.05-4.573-3.856-3.184-3.609-6.4-9.09-8.86-15.59-2.46-6.502-3.677-12.73-3.675-17.529 0-2.402.307-4.405.885-5.895.577-1.49 1.39-2.384 2.362-2.747Z"/></svg>