<svg xmlns="http://www.w3.org/2000/svg" id="self" fill="none" preserveAspectRatio="xMidYMid meet" viewBox="0 0 173 153"><path stroke="var(--main-color, #377cb5)" stroke-width="1.5" d="M104.566 35.956c-2.874 0-4.959.723-6.449 1.587-1.622.94-3.872.89-5.515-.012-5.557-3.048-14.882-1.434-14.881 9.425 0 11.79 7.764 18 11.496 18 1.71 0 3.056-.26 4.146-.681 1.257-.486 2.69-.442 3.946.044 1.007.39 2.345.622 4.438.604 4.807-.044 11.73-10.708 11.73-17.648 0-5.819-2.866-11.319-8.911-11.319Z"/><path stroke="var(--main-color, #377cb5)" stroke-linejoin="round" stroke-width="1.5" d="M98.598 27.956c-2.486 3.5-2.817 7.167-2.983 9 .339-3.064 3.702-8.517 7.76-10.999.679-.415.687-1.602-.05-1.9a.68.68 0 0 0-.509-.014c-.806.326-2.446 1.418-4.218 3.913Z"/><path stroke="var(--main-color, #377cb5)" stroke-width="1.5" d="M61.624 98.956H32.642c-4.451 0-4.451 6.162 0 6.162h84.492c5.742 0 9.788 4.273 9.788 8.976s-4.046 9.428-9.788 9.429h-1.681M77.936 98.956h39.198c5.338 0 16.263 3.187 16.263 15.138s-10.521 15.862-16.263 15.862H32.642c-1.214 0-3.642-.325-3.642-3.113 0-2.789 2.428-3.321 3.642-3.321h83.355"/><path stroke="var(--accent-color, #f58220)" stroke-width="1.5" d="M78.17 92.73H56.2c-5.742 0-9.788-4.572-9.788-9.124 0-4.551 4.046-8.687 9.789-8.687h84.491c4.451 0 4.451-5.963 0-5.963H56.201c-5.338 0-16.263 3.084-16.263 14.65s10.52 15.35 16.262 15.35h22.513M78 92.73h62.693c1.214 0 3.642.515 3.642 3.213s-2.428 3.013-3.642 3.013H77.999M141.352 73.956v19"/><path stroke="var(--main-color, #377cb5)" stroke-width="1.5" d="M32.979 104.956v19M58.828 83.956h45.736M99.594 113.956H46.898"/></svg>