<svg xmlns="http://www.w3.org/2000/svg" id="self" fill="none" preserveAspectRatio="xMidYMid meet" viewBox="0 0 173 153"><path stroke="var(--accent-color, #f58220)" stroke-width="1.5" d="m112.993 29.109-13.339 4.314a2.253 2.253 0 0 0-1.444 2.83l23.896 74.741a2.233 2.233 0 0 0 2.814 1.453l13.34-4.314a2.25 2.25 0 0 0 1.444-2.831l-23.896-74.74a2.235 2.235 0 0 0-2.815-1.453ZM101.873 47.904l17.634-5.654M104.811 56.178l17.635-5.654"/><path stroke="var(--main-color, #377cb5)" stroke-width="1.5" d="M53.378 31.666H37.616a2.244 2.244 0 0 0-2.237 2.25v78.051a2.243 2.243 0 0 0 2.237 2.25h15.762a2.243 2.243 0 0 0 2.237-2.25V33.916a2.244 2.244 0 0 0-2.237-2.25Z"/><path stroke="var(--main-color, #377cb5)" stroke-width="1.5" d="M73.435 31.666H57.673a2.244 2.244 0 0 0-2.238 2.25v78.051a2.243 2.243 0 0 0 2.238 2.25h15.762a2.243 2.243 0 0 0 2.237-2.25V33.916a2.244 2.244 0 0 0-2.237-2.25ZM34.633 52.77h20.056"/><path stroke="var(--main-color, #377cb5)" stroke-width="1.5" d="M93.492 31.666H77.729a2.244 2.244 0 0 0-2.237 2.25v78.051a2.243 2.243 0 0 0 2.237 2.25h15.763a2.243 2.243 0 0 0 2.237-2.25V33.916a2.244 2.244 0 0 0-2.237-2.25ZM74.746 52.77h20.056M74.746 61.175h20.056M54.691 71.26h20.057M54.691 46.045h20.057M54.691 62.855h20.057"/><mask id="mask0_185_592" width="124" height="11" x="25" y="113" maskUnits="userSpaceOnUse" style="mask-type:luminance"><path fill="#fff" d="M148.287 122.372v-7.789c0-.552-.445-1-.994-1H25.994a.997.997 0 0 0-.994 1v7.789c0 .553.445 1 .994 1h121.299a.997.997 0 0 0 .994-1"/></mask><g mask="url(#mask0_185_592)"><path stroke="var(--main-color, #377cb5)" stroke-width="3" d="M148.285 122.372v-7.789c0-.552-.445-1-.994-1H25.992a.997.997 0 0 0-.994 1v7.789c0 .553.445 1 .994 1h121.299a.997.997 0 0 0 .994-1Z"/></g></svg>