<svg xmlns="http://www.w3.org/2000/svg" id="self" fill="none" preserveAspectRatio="xMidYMid meet" viewBox="0 0 173 153"><path stroke="var(--main-color, #377cb5)" stroke-width="1.5" d="M130.66 53H43a1 1 0 0 0-.989 1.148l9.88 66a1 1 0 0 0 .988.852h66.862a1 1 0 0 0 .986-.837l10.92-66A1 1 0 0 0 130.66 53Z"/><path stroke="var(--accent-color, #f58220)" stroke-width="1.5" d="M59.84 84h30M58.84 78h43"/><path stroke="var(--main-color, #377cb5)" stroke-width="1.5" d="M62.34 94h38.5M49.544 53l-1.526-9.847A1 1 0 0 1 49.006 42h76.605a1 1 0 0 1 .979 1.202L124.566 53M56.242 42 55 33.139A1 1 0 0 1 55.99 32h62.646a1 1 0 0 1 .983 1.184L117.968 42"/></svg>