<svg xmlns="http://www.w3.org/2000/svg" id="self" fill="none" preserveAspectRatio="xMidYMid meet" viewBox="0 0 173 153"><path stroke="var(--main-color, #377cb5)" stroke-width="1.5" d="M85.604 54.443v76.683M86.187 53.853 32 37.927v77.863l54.187 15.927 54.769-15.927V37.927z"/><path stroke="var(--main-color, #377cb5)" stroke-width="1.5" d="M41.322 40.286V29.668l43.7 23.595 47.193-23.595v10.618"/><path stroke="var(--main-color, #377cb5)" stroke-width="1.5" d="M48.898 33.208V22l36.125 30.673 40.203-28.903v8.848"/><path stroke="var(--main-color, #377cb5)" stroke-linecap="round" stroke-width="1.5" d="M36.662 58.573v16.835c0 .218.295.28.381.08l6.23-14.416c.086-.2.381-.137.381.081V77.45"/><path fill="var(--main-color, #377cb5)" d="M47.896 62.112a.75.75 0 0 0-.746-.755.75.75 0 0 0-.746.755zm-1.492 16.516a.75.75 0 0 0 .746.755.75.75 0 0 0 .746-.755zm7.318-14.898a.75.75 0 0 0-.745-.755.75.75 0 0 0-.746.755zm-1.491 16.668a.75.75 0 0 0 .745.755.75.75 0 0 0 .746-.755zm-5.827-18.286v7.55h1.492v-7.55zm0 7.55v8.966h1.492v-8.966zm.549.728 5.575 1.549.394-1.457-5.575-1.548zm6.77.626V63.73H52.23v7.286zM52.23 63.73v16.668h1.491V63.73zm.297 8.209a.947.947 0 0 0 1.194-.923h-1.491c0-.365.343-.63.691-.534z"/><path stroke="var(--main-color, #377cb5)" stroke-linecap="round" stroke-width="1.5" d="M59.969 65.651v17.107"/><path stroke="var(--main-color, #377cb5)" stroke-width="1.5" d="M56.053 68.533c0-1.518 1.446-2.606 2.881-2.168l2.65.807a3.27 3.27 0 0 1 2.3 3.132v5.442c0 1.518-1.446 2.606-2.882 2.169l-2.65-.808a3.27 3.27 0 0 1-2.3-3.132z"/><path stroke="var(--main-color, #377cb5)" stroke-linecap="round" stroke-width="1.5" d="M66.96 66.83v17.697M66.96 67.42l1.51.325c1.837.394 3.152 2.036 3.152 3.938v4.258c0 1.964-1.823 3.406-3.706 2.93l-.955-.242M72.203 86.297l4.745-16.317c.06-.202.346-.188.386.018l3.609 18.658M73.951 80.987l4.661 1.18"/><path stroke="var(--main-color, #377cb5)" stroke-width="1.5" d="M128.427 84.51c-4.849 9.923-15.161 14.474-22.913 10.591-7.752-3.882-10.434-14.943-5.585-24.866 4.85-9.923 15.161-14.475 22.914-10.592 7.752 3.883 10.433 14.944 5.584 24.867ZM94.928 70.213c.623-2.16 2.053-5.299 4.725-8.23 2.725-2.992 5.67-4.244 6.615-4.59"/><path stroke="var(--accent-color, #f58220)" stroke-linecap="round" stroke-width="1.5" d="m107.746 86.296 2.258-17.149a.198.198 0 0 1 .365-.081l3.597 5.722a.198.198 0 0 0 .346-.018l3.639-7.369c.087-.176.346-.134.375.06l2.238 15.296"/></svg>