<svg xmlns="http://www.w3.org/2000/svg" id="self" fill="none" preserveAspectRatio="xMidYMid meet" viewBox="0 0 173 153"><path stroke="var(--main-color, #377cb5)" stroke-width="1.5" d="M48.624 79.51H19.642c-4.451 0-4.451 6.082 0 6.082h84.491c5.743 0 9.789 4.218 9.789 8.86 0 4.644-4.046 9.307-9.789 9.307h-1.68m-37.517-24.25h39.197c5.338 0 16.263 3.147 16.263 14.944s-10.52 15.657-16.263 15.657H19.642c-1.214 0-3.642-.321-3.642-3.073 0-2.753 2.428-3.278 3.642-3.278h83.355"/><path stroke="var(--main-color, #377cb5)" stroke-width="1.5" d="M49.308 73.364H43.2c-5.742 0-9.788-4.513-9.788-9.006s4.046-8.575 9.789-8.575h84.491c4.451 0 4.451-5.886 0-5.886H43.201c-5.338 0-16.263 3.044-16.263 14.46S37.457 79.51 43.2 79.51h84.491c1.214 0 3.642-.31 3.642-2.975 0-2.663-2.428-3.171-3.642-3.171H48.687M128.351 54.832v18.755M19.977 85.432v18.755M48.81 64.703h42.753M86.592 94.316H47.816"/><path stroke="var(--accent-color, #f58220)" stroke-width="1.5" d="m143.776 111.126-4.383-8.705a1 1 0 0 1-.105-.441V51.377a.99.99 0 0 1 .994-.987h7.954a.99.99 0 0 1 .994.987v50.642a1 1 0 0 1-.073.374l-3.572 8.665c-.323.785-1.426.826-1.809.068ZM139.288 102.213h10.44M139.288 58.78h9.942"/><path stroke="var(--accent-color, #f58220)" stroke-linecap="round" stroke-linejoin="round" stroke-width="1.5" d="M156.688 78.523V64.21l-6.96-4.936"/><path stroke="var(--accent-color, #f58220)" stroke-width="1.5" d="M142.271 49.897v-6.91c0-.545.446-.987.995-.987h1.988a.99.99 0 0 1 .994.987v6.91"/></svg>