<svg xmlns="http://www.w3.org/2000/svg" id="self" fill="none" preserveAspectRatio="xMidYMid meet" viewBox="0 0 173 153"><path stroke="var(--main-color, #377cb5)" stroke-width="1.5" d="M53.498 105.956c2.334 0 4.226-1.903 4.226-4.25s-1.892-4.25-4.226-4.25-4.225 1.903-4.225 4.25 1.891 4.25 4.225 4.25Z"/><path stroke="var(--main-color, #377cb5)" stroke-width="1.5" d="M62.436 35H45.237A2.244 2.244 0 0 0 43 37.25v78.051a2.243 2.243 0 0 0 2.237 2.25h17.199a2.243 2.243 0 0 0 2.237-2.25V37.25A2.244 2.244 0 0 0 62.436 35Z"/><path stroke="var(--main-color, #377cb5)" stroke-width="1.5" d="M58.613 39.456H48.81c-.686 0-1.243.56-1.243 1.25v46c0 .69.557 1.25 1.243 1.25h9.803c.686 0 1.243-.56 1.243-1.25v-46c0-.69-.557-1.25-1.243-1.25ZM83.818 35h-17.2a2.244 2.244 0 0 0-2.236 2.25v78.051a2.243 2.243 0 0 0 2.237 2.25h17.198a2.243 2.243 0 0 0 2.238-2.25V37.25A2.244 2.244 0 0 0 83.817 35ZM47.882 83.706h11.66M47.882 75.706h11.66M47.882 79.706h11.66"/><path stroke="var(--main-color, #377cb5)" stroke-width="1.5" d="M79.678 101.706c0 2.303-1.994 4.25-4.554 4.25s-4.555-1.947-4.555-4.25 1.994-4.25 4.555-4.25 4.554 1.947 4.554 4.25ZM80.342 39.456H70.54c-.687 0-1.243.56-1.243 1.25v46c0 .69.556 1.25 1.243 1.25h9.802c.687 0 1.243-.56 1.243-1.25v-46c0-.69-.556-1.25-1.243-1.25ZM69.082 83.706h11.66M69.082 75.706h11.66M69.082 79.706h11.66M127.073 35h-17.198a2.243 2.243 0 0 0-2.237 2.25v78.051a2.243 2.243 0 0 0 2.237 2.25h17.198a2.244 2.244 0 0 0 2.238-2.25V37.25a2.244 2.244 0 0 0-2.238-2.25Z"/><path stroke="var(--main-color, #377cb5)" stroke-width="1.5" d="M123.069 101.706c0 2.303-1.993 4.25-4.554 4.25s-4.554-1.947-4.554-4.25 1.993-4.25 4.554-4.25 4.554 1.947 4.554 4.25ZM123.416 39.456h-9.803c-.686 0-1.243.56-1.243 1.25v46c0 .69.557 1.25 1.243 1.25h9.803c.686 0 1.243-.56 1.243-1.25v-46c0-.69-.557-1.25-1.243-1.25ZM113.215 83.706h11.66M113.215 75.706h11.66M113.215 79.706h11.66"/><path stroke="var(--accent-color, #f58220)" stroke-width="1.5" d="M105.496 35H88.298a2.244 2.244 0 0 0-2.237 2.25v78.051a2.243 2.243 0 0 0 2.236 2.25h17.199a2.243 2.243 0 0 0 2.237-2.25V37.25a2.243 2.243 0 0 0-2.237-2.25Z"/><path stroke="var(--accent-color, #f58220)" stroke-width="1.5" d="M101.196 101.706c0 2.303-1.994 4.25-4.555 4.25s-4.554-1.947-4.554-4.25 1.993-4.25 4.554-4.25 4.555 1.947 4.555 4.25ZM101.542 39.456h-9.803c-.687 0-1.243.56-1.243 1.25v46c0 .69.556 1.25 1.243 1.25h9.803c.686 0 1.243-.56 1.243-1.25v-46c0-.69-.557-1.25-1.243-1.25ZM91.34 83.706h11.661M91.34 75.706h11.661M91.34 79.706h11.661"/></svg>