<svg xmlns="http://www.w3.org/2000/svg" id="self" fill="none" preserveAspectRatio="xMidYMid meet" viewBox="0 0 173 153"><path stroke="var(--main-color, #377cb5)" stroke-width="1.5" d="M52.25 29h72.135v95.844H53.25c-2.9 0-5.25-2.335-5.25-5.216V33.222C48 30.89 49.903 29 52.25 29Z"/><path stroke="var(--main-color, #377cb5)" stroke-width="1.5" d="M48.354 119.423c0-3.646.39-9.117 10.359-9.117 5.384 0 45.369.309 66.307.309M61.363 29.004v81.61"/><path stroke="var(--accent-color, #f58220)" stroke-linejoin="round" stroke-width="1.5" d="M92.373 55.238 95.24 64a1.75 1.75 0 0 0 1.664 1.201h9.274c.242 0 .343.308.147.45l-7.503 5.415a1.73 1.73 0 0 0-.635 1.944l2.865 8.762c.075.229-.188.42-.384.278l-7.503-5.415a1.76 1.76 0 0 0-2.057 0l-7.502 5.415c-.196.141-.46-.049-.385-.278l2.865-8.762a1.73 1.73 0 0 0-.635-1.944l-7.503-5.416c-.196-.14-.095-.449.147-.449h9.274c.758 0 1.43-.485 1.664-1.201l2.866-8.763c.075-.228.4-.228.475 0Z"/></svg>