<svg xmlns="http://www.w3.org/2000/svg" id="self" fill="none" preserveAspectRatio="xMidYMid meet" viewBox="0 0 173 153"><path stroke="var(--main-color, #377cb5)" stroke-width="1.5" d="M63.174 63H36.368c-4.117 0-4.117 5.565 0 5.565h26.806M78.262 63h36.254c4.937 0 15.042 2.879 15.042 13.673S119.828 91 114.516 91H36.368C35.246 91 33 90.707 33 88.188s2.246-2.999 3.368-2.999h78.148c5.312 0 9.055-4.267 9.055-8.516s-3.743-8.108-9.055-8.108H78.262M36.018 68v17M62.672 57.19H58.1c-5.31-.001-9.053-4.268-9.053-8.517s3.742-8.108 9.053-8.108h78.148c4.117 0 4.117-5.565 0-5.565H58.1c-4.937 0-15.041 2.879-15.041 13.673S52.789 63 58.1 63h5.075m15.087-5.811h57.986c1.123 0 3.369.48 3.369 2.999S137.371 63 136.248 63H78.262M136.6 40v17M78.262 49H102.4"/><path stroke="var(--accent-color, #f58220)" stroke-width="1.5" d="M78.263 49H63.176v27l7.543-2.547L78.263 76z"/><path stroke="var(--main-color, #377cb5)" stroke-width="1.5" d="M58.1 91h78.148c4.117 0 4.117 5.565 0 5.565H58.1c-5.31 0-9.053 3.86-9.053 8.108s3.742 8.516 9.053 8.516h78.148c1.123 0 3.369.48 3.369 2.999S137.371 119 136.248 119H58.1c-5.31 0-15.041-3.532-15.041-14.327S53.164 91 58.1 91ZM136.6 96v17"/></svg>