<svg xmlns="http://www.w3.org/2000/svg" id="self" preserveAspectRatio="xMidYMid meet" style="background:0 0" viewBox="0 0 100 100"><rect width="4" height="23" x="48" y="13.5" fill="currentColor" opacity="calc(mod((var(--spinner-opacity) - 11), 12) / 12)" rx="0" ry="0"/><rect width="4" height="23" x="48" y="13.5" fill="currentColor" opacity="calc(mod((var(--spinner-opacity) - 10), 12) / 12)" rx="0" ry="0" transform="rotate(30 50 50)"/><rect width="4" height="23" x="48" y="13.5" fill="currentColor" opacity="calc(mod((var(--spinner-opacity) - 9), 12) / 12)" rx="0" ry="0" transform="rotate(60 50 50)"/><rect width="4" height="23" x="48" y="13.5" fill="currentColor" opacity="calc(mod((var(--spinner-opacity) - 8), 12) / 12)" rx="0" ry="0" transform="rotate(90 50 50)"/><rect width="4" height="23" x="48" y="13.5" fill="currentColor" opacity="calc(mod((var(--spinner-opacity) - 7), 12) / 12)" rx="0" ry="0" transform="rotate(120 50 50)"/><rect width="4" height="23" x="48" y="13.5" fill="currentColor" opacity="calc(mod((var(--spinner-opacity) - 6), 12) / 12)" rx="0" ry="0" transform="rotate(150 50 50)"/><rect width="4" height="23" x="48" y="13.5" fill="currentColor" opacity="calc(mod((var(--spinner-opacity) - 5), 12) / 12)" rx="0" ry="0" transform="rotate(180 50 50)"/><rect width="4" height="23" x="48" y="13.5" fill="currentColor" opacity="calc(mod((var(--spinner-opacity) - 4), 12) / 12)" rx="0" ry="0" transform="rotate(210 50 50)"/><rect width="4" height="23" x="48" y="13.5" fill="currentColor" opacity="calc(mod((var(--spinner-opacity) - 3), 12) / 12)" rx="0" ry="0" transform="rotate(240 50 50)"/><rect width="4" height="23" x="48" y="13.5" fill="currentColor" opacity="calc(mod((var(--spinner-opacity) - 2), 12) / 12)" rx="0" ry="0" transform="rotate(270 50 50)"/><rect width="4" height="23" x="48" y="13.5" fill="currentColor" opacity="calc(mod((var(--spinner-opacity) - 1), 12) / 12)" rx="0" ry="0" transform="rotate(300 50 50)"/><rect width="4" height="23" x="48" y="13.5" fill="currentColor" opacity="calc(mod((var(--spinner-opacity)), 12) / 12)" rx="0" ry="0" transform="rotate(330 50 50)"/></svg>