<svg xmlns="http://www.w3.org/2000/svg" id="self" fill="none" preserveAspectRatio="xMidYMid meet" viewBox="0 0 135 131"><path stroke="var(--main-color, #377CB5)" stroke-width="1.5" d="M30.97 50.893 67.967 34.43a4.98 4.98 0 0 1 4.074.01l35.773 16.133a4.5 4.5 0 0 1 2.653 4.179 4.5 4.5 0 0 1-2.787 4.09L71.985 73.566a5 5 0 0 1-3.945-.057L30.965 56.955a3.318 3.318 0 0 1 .005-6.062Z"/><path stroke="var(--main-color, #377CB5)" stroke-width="1.5" d="M40.714 62v10.848a5 5 0 0 0 2.843 4.511l24.375 11.653a5 5 0 0 0 4.166.067L95.23 78.928a5 5 0 0 0 2.99-4.579V62M70 90v-9.692m37.806-21v14"/><path stroke="var(--accent-color, #F58220)" stroke-width="1.5" d="M110.25 75.964a2.445 2.445 0 0 0-4.89 0v9.764a2.445 2.445 0 0 0 4.89 0z"/></svg>