<svg xmlns="http://www.w3.org/2000/svg" id="self" fill="none" preserveAspectRatio="xMidYMid meet" viewBox="0 0 135 131"><path stroke="var(--main-color, #377CB5)" stroke-width="1.5" d="m100.822 38.316 2.31.938a1.002 1.002 0 0 1 .624.927v52.09c0 .696-.694 1.186-1.36.985-2.735-.828-7.635-1.933-12.726-1.933-5.871 0-12.576 1.47-15.516 2.289-.216.06-.442.048-.652-.031-2.195-.824-7.522-2.258-13.766-2.258-5.717 0-11.848 1.202-15.15 2.037a1.028 1.028 0 0 1-1.284-.985V40.209c0-.421.26-.797.66-.932 3.072-1.04 9.374-2.748 14.6-2.748s11.529 1.708 14.6 2.748c.4.135.66.51.66.932v46.546a1 1 0 0 0 1.434.902l20.303-9.76a1 1 0 0 0 .567-.9v-48.39a1 1 0 0 0-1.441-.898l-17.928 8.82"/><path stroke="var(--accent-color, #F58220)" stroke-width="1.5" d="M36.938 45v53a1 1 0 0 0 1 1h71.182a1 1 0 0 0 1-1V45"/><path stroke="var(--accent-color, #F58220)" stroke-width="1.5" d="M49.666 50.294c1.56-.705 5.5-2.117 8.777-2.117s6.827.94 8.193 1.412"/><path stroke="var(--main-color, #377CB5)" stroke-width="1.5" d="M49.666 65.118c1.56-.706 5.5-2.118 8.777-2.118s6.827.941 8.193 1.412"/><path stroke="var(--accent-color, #F58220)" stroke-width="1.5" d="M49.666 57.706c1.56-.706 5.5-2.118 8.777-2.118s6.827.941 8.193 1.412"/><path stroke="var(--main-color, #377CB5)" stroke-width="1.5" d="M49.666 72.53c1.56-.706 5.5-2.118 8.777-2.118s6.827.941 8.193 1.412m-16.97 8.116c1.56-.705 5.5-2.117 8.777-2.117s6.827.941 8.193 1.412m12.726-33.176 11.667-5.294M79.362 53.47l11.667-5.293M79.362 60.882l11.667-5.294M79.362 68.294 91.03 63M79.362 75.706l11.667-5.294"/></svg>