<svg xmlns="http://www.w3.org/2000/svg" id="self" fill="none" preserveAspectRatio="xMidYMid meet" viewBox="0 0 135 131"><path stroke="var(--main-color, #377CB5)" stroke-linecap="round" stroke-width="1.5" d="M60.999 40h-10.12a10 10 0 0 0-9.996 9.742L39.999 84m46-44h10.12a10 10 0 0 1 9.996 9.742L106.999 84"/><path stroke="var(--main-color, #377CB5)" stroke-width="1.5" d="M51.999 98.25c6.765 0 12.25-5.484 12.25-12.25s-5.484-12.25-12.25-12.25-12.25 5.484-12.25 12.25 5.484 12.25 12.25 12.25ZM94.999 98.25c6.766 0 12.25-5.484 12.25-12.25s-5.484-12.25-12.25-12.25c-6.765 0-12.25 5.484-12.25 12.25s5.485 12.25 12.25 12.25ZM63.999 86h19"/><path stroke="var(--accent-color, #F58220)" stroke-linecap="round" stroke-width="1.5" d="M44.5 89c-.334-1.167-.6-4.1 1-6.5s3.332-3 4-3m38 9.5c-.334-1.167-.6-4.1 1-6.5s3.332-3 4-3"/></svg>