<svg preserveAspectRatio="xMidYMid meet" viewBox="0 0 135 131" fill="none" xmlns="http://www.w3.org/2000/svg" id="self">
	<path d="M30.9701 50.893L67.9672 34.43C68.6086 34.1445 69.3031 33.9978 70.0052 33.9995C70.7073 34.0013 71.4011 34.1514 72.0411 34.44L107.814 50.573C108.616 50.9343 109.295 51.5225 109.766 52.2651C110.238 53.0077 110.481 53.8721 110.467 54.7516C110.453 55.631 110.181 56.4871 109.686 57.214C109.191 57.9409 108.493 58.5069 107.68 58.842L71.9851 73.566C71.3581 73.8246 70.685 73.9529 70.0068 73.9431C69.3286 73.9333 68.6595 73.7856 68.0401 73.509L30.9651 56.955C30.3794 56.6937 29.882 56.2682 29.533 55.73C29.1841 55.1919 28.9986 54.5641 28.999 53.9227C28.9994 53.2813 29.1858 52.6538 29.5354 52.1161C29.8851 51.5784 30.3841 51.1535 30.9701 50.893Z" stroke="var(--main-color, #377CB5)" stroke-width="1.5" />
	<path d="M40.7139 62V72.848C40.7138 73.7916 40.9808 74.7159 41.4839 75.5141C41.9869 76.3123 42.7056 76.952 43.5569 77.359L67.9319 89.012C68.5806 89.3221 69.2886 89.4886 70.0076 89.5001C70.7265 89.5117 71.4395 89.368 72.0979 89.079L95.2299 78.928C96.1191 78.5376 96.8754 77.8967 97.4064 77.0835C97.9374 76.2704 98.22 75.3202 98.2199 74.349V62M69.9999 90V80.308M107.806 59.308V73.308" stroke="var(--main-color, #377CB5)" stroke-width="1.5" />
	<path d="M110.25 75.964C110.25 74.6137 109.155 73.519 107.805 73.519C106.455 73.519 105.36 74.6137 105.36 75.964V85.728C105.36 87.0783 106.455 88.173 107.805 88.173C109.155 88.173 110.25 87.0783 110.25 85.728V75.964Z" stroke="var(--accent-color, #F58220)" stroke-width="1.5" />
</svg>