<svg id="self" preserveAspectRatio="xMidYMid meet" viewBox="0 0 173 153" fill="none" xmlns="http://www.w3.org/2000/svg">
	<path d="M117.475 114.127H43.5401C40.1165 114.125 36.7484 113.264 33.7465 111.623C30.7384 109.958 28.1867 107.583 26.3157 104.705C24.203 100.928 22.5609 96.9087 21.4264 92.7352C21.3791 92.5387 21.412 92.3316 21.5179 92.1594C21.6239 91.9871 21.794 91.8638 21.9911 91.8167C22.1882 91.7695 22.396 91.8024 22.5688 91.9079C22.7415 92.0135 22.8652 92.1832 22.9125 92.3796C24.0175 96.3897 25.599 100.254 27.6236 103.89C29.3577 106.575 31.7385 108.786 34.5489 110.32C37.3322 111.841 40.4547 112.641 43.6293 112.646H117.475C120.612 112.635 123.697 111.853 126.457 110.37C129.218 108.886 131.569 106.747 133.303 104.142C134.388 102.256 135.293 100.272 136.008 98.2164C136.825 96.0979 137.612 93.7721 138.132 92.2907C138.211 92.1273 138.347 91.9982 138.514 91.9279C138.683 91.8577 138.87 91.8511 139.042 91.9095C139.214 91.9679 139.359 92.0873 139.449 92.2449C139.539 92.4025 139.568 92.5875 139.53 92.7648C139.01 94.2462 138.221 96.5572 137.404 98.6904C136.639 100.847 135.68 102.929 134.536 104.912C132.674 107.73 130.141 110.046 127.165 111.653C124.189 113.261 120.86 114.11 117.475 114.127ZM117.475 110.912H43.5401C40.625 110.909 37.7576 110.174 35.2021 108.776C32.6465 107.378 30.485 105.361 28.9165 102.912C27.9855 101.124 27.1568 99.2838 26.4346 97.4016C25.7213 95.6683 25.0971 93.9944 24.6958 92.7796C24.6367 92.5832 24.6583 92.3714 24.7559 92.1908C24.8534 92.0102 25.0189 91.8756 25.216 91.8167C25.4131 91.7578 25.6256 91.7793 25.8067 91.8765C25.9879 91.9738 26.1229 92.1387 26.182 92.3352C26.5535 93.5055 27.1778 95.1498 27.8614 96.7794C28.5523 98.5788 29.341 100.339 30.2243 102.053C31.6595 104.293 33.6366 106.137 35.9739 107.416C38.3111 108.695 40.9333 109.367 43.5995 109.371H117.475C120.07 109.362 122.621 108.715 124.906 107.49C127.228 106.244 129.208 104.447 130.672 102.261C132.207 98.9991 133.562 95.6559 134.729 92.2463C134.797 92.0617 134.934 91.9112 135.113 91.8278C135.291 91.7445 135.495 91.7352 135.681 91.8019C135.866 91.8688 136.017 92.0062 136.1 92.1839C136.184 92.3618 136.193 92.5653 136.126 92.75C134.908 96.2799 133.499 99.742 131.905 103.12C130.31 105.505 128.151 107.464 125.619 108.824C123.118 110.177 120.321 110.895 117.475 110.912ZM96.6694 77.6693H43.8373C43.6402 77.6693 43.4512 77.5913 43.3118 77.4524C43.1725 77.3134 43.0942 77.125 43.0942 76.9286V70.84C43.0942 70.6436 43.1725 70.4552 43.3118 70.3163C43.4512 70.1774 43.6402 70.0994 43.8373 70.0994H96.6694C96.8664 70.0994 97.0554 70.1774 97.1947 70.3163C97.3342 70.4552 97.4124 70.6436 97.4124 70.84V76.9286C97.4086 77.1239 97.3291 77.31 97.1905 77.4481C97.052 77.5862 96.8652 77.6655 96.6694 77.6693ZM44.6546 76.1879H95.8965V71.5808H44.6546V76.1879Z" fill="var(--main-color, #377CB5)" />
	<path d="M141.625 90.3353H20.5944C20.4911 90.3379 20.3883 90.318 20.2933 90.2771C20.1984 90.2362 20.1135 90.1752 20.0446 90.0983C19.9723 90.0222 19.9186 89.9305 19.8876 89.8302C19.8567 89.73 19.8494 89.6241 19.8663 89.5206L20.7282 82.1876C21.0823 80.4452 22.0533 78.8879 23.4639 77.8C24.8745 76.7121 26.6306 76.1661 28.4115 76.262H115.558C120.607 76.2374 125.57 77.5623 129.929 80.0988L141.997 87.1355C142.109 87.2001 142.202 87.2929 142.268 87.4047C142.333 87.5165 142.368 87.6432 142.369 87.7725V89.5354C142.377 89.6375 142.364 89.7402 142.33 89.8371C142.296 89.9339 142.243 90.0227 142.173 90.0979C142.102 90.1731 142.018 90.233 141.924 90.2738C141.829 90.3148 141.728 90.3356 141.625 90.3353ZM21.4267 88.8539H140.883V88.2466L129.172 81.2988C125.04 78.898 120.34 77.6447 115.558 77.6693H28.4115C26.9844 77.574 25.5705 77.995 24.4295 78.8549C23.2884 79.7146 22.4967 80.9558 22.1995 82.3506L21.4267 88.8539ZM77.766 52.5299H43.8376C43.6405 52.5299 43.4515 52.4519 43.3122 52.313C43.1728 52.1742 43.0945 51.9857 43.0945 51.7893V51.2115C43.0945 49.691 43.7005 48.2328 44.7791 47.1576C45.8576 46.0825 47.3205 45.4785 48.8458 45.4785H72.7578C74.2831 45.4785 75.7459 46.0825 76.8245 47.1576C77.9031 48.2328 78.5091 49.691 78.5091 51.2115V51.7893C78.5091 51.9857 78.4308 52.1742 78.2914 52.313C78.1521 52.4519 77.963 52.5299 77.766 52.5299ZM44.655 51.0485H77.023C76.977 49.9507 76.5079 48.9128 75.7133 48.1511C74.9188 47.3894 73.8601 46.9627 72.7578 46.9599H48.8458C47.7565 46.9816 46.7163 47.4166 45.9376 48.1764C45.1588 48.9361 44.7001 49.9633 44.655 51.0485ZM141.759 69.3586H99.1961C98.999 69.3586 98.81 69.2806 98.6707 69.1418C98.5313 69.0029 98.453 68.8144 98.453 68.618V63.8627C98.453 63.6662 98.5313 63.4779 98.6707 63.339C98.81 63.2 98.999 63.122 99.1961 63.122H141.759C141.956 63.122 142.145 63.2 142.284 63.339C142.423 63.4779 142.502 63.6662 142.502 63.8627V68.618C142.502 68.8144 142.423 69.0029 142.284 69.1418C142.145 69.2806 141.956 69.3586 141.759 69.3586ZM99.9389 67.8773H141.016V64.6034H99.9389V67.8773Z" fill="var(--main-color, #377CB5)" />
	<path d="M97.7253 71.5809H39.6769C39.3098 71.5796 38.9488 71.4867 38.627 71.3108C38.3051 71.1348 38.0325 70.8814 37.8341 70.5735L32.2611 62.0851C32.025 61.7239 31.9009 61.3014 31.9044 60.8703V53.2708C31.9044 52.684 32.1372 52.121 32.5521 51.7047C32.967 51.2884 33.5301 51.0526 34.1187 51.0486H83.4732C83.8848 51.0471 84.2876 51.1655 84.6325 51.3894L98.8993 60.2778C99.2203 60.4795 99.4843 60.7595 99.6663 61.0914C99.8488 61.4231 99.9425 61.7958 99.9395 62.174V69.3587C99.9395 69.9456 99.7073 70.5085 99.2919 70.9248C98.8771 71.3412 98.3139 71.5769 97.7253 71.5809ZM34.1187 52.53C33.9243 52.5339 33.7391 52.6137 33.603 52.7522C33.4668 52.8907 33.3906 53.0768 33.3906 53.2708V60.8703C33.3934 61.0166 33.4344 61.1594 33.5095 61.2851L39.0675 69.7587C39.1333 69.8609 39.2233 69.9455 39.3296 70.0049C39.4358 70.0643 39.5551 70.0968 39.6769 70.0995H97.7253C97.9198 70.0956 98.105 70.0158 98.2411 69.8773C98.3773 69.7388 98.4535 69.5527 98.4535 69.3587V62.1444C98.4621 62.0218 98.4394 61.899 98.3873 61.7876C98.3353 61.6762 98.2559 61.5798 98.1563 61.5073L83.8894 52.6189C83.7805 52.5426 83.6509 52.5013 83.5179 52.5004L34.1187 52.53ZM152.029 71.5809H142.874C142.38 71.5769 141.908 71.3786 141.56 71.0289C141.212 70.6793 141.017 70.2068 141.017 69.7143V62.4406C141.017 61.9482 141.212 61.4756 141.56 61.1259C141.908 60.7763 142.38 60.578 142.874 60.574H152.029C152.522 60.578 152.995 60.7763 153.344 61.1259C153.691 61.4756 153.887 61.9482 153.887 62.4406V69.7143C153.887 70.2068 153.691 70.6793 153.344 71.0289C152.995 71.3786 152.522 71.5769 152.029 71.5809ZM142.874 62.0555C142.774 62.0593 142.68 62.1016 142.61 62.1734C142.542 62.2452 142.503 62.341 142.503 62.4406V69.7143C142.503 69.8139 142.542 69.9097 142.61 69.9816C142.68 70.0534 142.774 70.0956 142.874 70.0995H152.029C152.129 70.0956 152.223 70.0534 152.292 69.9816C152.362 69.9097 152.401 69.8139 152.4 69.7143V62.4406C152.401 62.341 152.362 62.2452 152.292 62.1734C152.223 62.1016 152.129 62.0593 152.029 62.0555H142.874ZM33.7026 100.172C31.8015 100.152 29.9858 99.3815 28.6539 98.0292C27.3222 96.6767 26.583 94.8527 26.5989 92.9575V92.4687C26.6226 92.2722 26.7236 92.0931 26.8796 91.9709C27.0357 91.8487 27.2341 91.7933 27.4311 91.8168C27.6283 91.8404 27.8079 91.941 27.9304 92.0966C28.0531 92.2522 28.1088 92.45 28.085 92.6464C28.0777 92.7499 28.0777 92.854 28.085 92.9575C28.085 94.4466 28.6785 95.8746 29.7347 96.9275C30.791 97.9805 32.2236 98.572 33.7175 98.572C35.2113 98.572 36.6439 97.9805 37.7002 96.9275C38.7566 95.8746 39.3499 94.4466 39.3499 92.9575C39.357 92.849 39.357 92.7401 39.3499 92.6316C39.3396 92.5343 39.3489 92.4358 39.377 92.342C39.4051 92.2482 39.4517 92.1609 39.5139 92.0852C39.5761 92.0094 39.6527 91.9467 39.7393 91.9006C39.826 91.8546 39.9209 91.8261 40.0187 91.8168C40.2143 91.8038 40.4077 91.8654 40.5595 91.9892C40.7113 92.113 40.8101 92.2898 40.8361 92.4835V92.9575C40.8479 94.8566 40.1035 96.6827 38.7662 98.0353C37.4288 99.3875 35.6078 100.156 33.7026 100.172ZM126.898 100.172C124.997 100.152 123.181 99.3815 121.849 98.0292C120.518 96.6767 119.778 94.8527 119.794 92.9575V92.4687C119.818 92.2722 119.919 92.0931 120.075 91.9709C120.231 91.8487 120.429 91.7933 120.627 91.8168C120.824 91.8404 121.003 91.941 121.126 92.0966C121.248 92.2522 121.304 92.45 121.28 92.6464C121.273 92.7499 121.273 92.854 121.28 92.9575C121.28 93.6949 121.426 94.4249 121.709 95.106C121.992 95.7873 122.408 96.4062 122.93 96.9275C123.453 97.4489 124.074 97.8625 124.758 98.1447C125.441 98.4268 126.173 98.572 126.913 98.572C127.652 98.572 128.385 98.4268 129.068 98.1447C129.752 97.8625 130.373 97.4489 130.895 96.9275C131.419 96.4062 131.833 95.7873 132.116 95.106C132.399 94.4249 132.546 93.6949 132.546 92.9575C132.553 92.849 132.553 92.7401 132.546 92.6316C132.535 92.5343 132.544 92.4358 132.573 92.342C132.601 92.2482 132.648 92.1609 132.709 92.0852C132.771 92.0094 132.848 91.9467 132.935 91.9006C133.021 91.8546 133.116 91.8261 133.215 91.8168C133.41 91.8038 133.603 91.8654 133.755 91.9892C133.906 92.113 134.006 92.2898 134.032 92.4835V92.9575C134.044 94.8566 133.299 96.6827 131.962 98.0353C130.624 99.3875 128.803 100.156 126.898 100.172Z" fill="var(--main-color, #377CB5)" />
	<path d="M111.977 110.038C109.381 110.011 106.904 108.958 105.087 107.111C103.271 105.264 102.263 102.773 102.287 100.187C102.29 98.5514 102.698 96.9421 103.476 95.5024C104.254 94.0626 105.377 92.8371 106.745 91.9352C106.911 91.8251 107.114 91.7852 107.308 91.8241C107.504 91.863 107.675 91.9775 107.786 92.1425C107.896 92.3076 107.936 92.5095 107.897 92.704C107.859 92.8985 107.743 93.0696 107.577 93.1796C106.421 93.9481 105.474 94.9904 104.821 96.2132C104.167 97.4359 103.828 98.8011 103.833 100.187C103.736 101.315 103.876 102.451 104.243 103.523C104.609 104.594 105.195 105.579 105.964 106.413C106.732 107.247 107.666 107.913 108.707 108.369C109.746 108.825 110.871 109.059 112.007 109.059C113.143 109.059 114.266 108.825 115.307 108.369C116.346 107.913 117.28 107.247 118.049 106.413C118.817 105.579 119.403 104.594 119.77 103.523C120.138 102.451 120.277 101.315 120.18 100.187C120.188 98.8022 119.852 97.4374 119.201 96.2146C118.55 94.9917 117.604 93.9489 116.45 93.1796C116.368 93.1251 116.297 93.0551 116.243 92.9734C116.188 92.8918 116.15 92.8003 116.13 92.704C116.111 92.6077 116.111 92.5086 116.13 92.4123C116.149 92.3159 116.187 92.2243 116.242 92.1425C116.296 92.0609 116.367 91.9906 116.449 91.936C116.531 91.8814 116.622 91.8434 116.719 91.8241C116.816 91.8049 116.915 91.8048 117.012 91.8238C117.109 91.8429 117.2 91.8807 117.282 91.9352C118.638 92.8447 119.747 94.0736 120.512 95.513C121.277 96.9524 121.674 98.5578 121.667 100.187C121.69 102.773 120.683 105.264 118.866 107.111C117.05 108.958 114.571 110.011 111.977 110.038ZM91.1263 110.038C88.5313 110.011 86.0535 108.958 84.2367 107.111C82.42 105.264 81.4128 102.773 81.4367 100.187C81.4353 98.5506 81.8419 96.9399 82.6202 95.4995C83.3985 94.0591 84.5239 92.8342 85.8951 91.9352C85.977 91.8807 86.0689 91.8429 86.1656 91.8238C86.2623 91.8048 86.3617 91.8049 86.4583 91.8241C86.5549 91.8434 86.6467 91.8814 86.7286 91.936C86.8105 91.9906 86.8807 92.0609 86.9353 92.1425C86.99 92.2243 87.0279 92.3159 87.0471 92.4123C87.0662 92.5086 87.0661 92.6077 87.0468 92.704C87.0274 92.8003 86.9893 92.8918 86.9344 92.9734C86.8796 93.0551 86.8093 93.1251 86.7273 93.1796C85.2415 94.1385 84.1066 95.5508 83.4922 97.2056C82.8779 98.8602 82.8169 100.669 83.3185 102.361C83.82 104.053 84.8572 105.538 86.275 106.594C87.693 107.65 89.4156 108.222 91.1857 108.222C92.9558 108.222 94.6784 107.65 96.0963 106.594C97.5142 105.538 98.5514 104.053 99.053 102.361C99.5545 100.669 99.4935 98.8602 98.8792 97.2056C98.2648 95.5508 97.13 94.1385 95.6441 93.1796C95.5621 93.1251 95.4917 93.0551 95.4369 92.9734C95.3821 92.8918 95.3439 92.8003 95.3246 92.704C95.3053 92.6077 95.3052 92.5086 95.3243 92.4123C95.3434 92.3159 95.3814 92.2243 95.436 92.1425C95.4906 92.0609 95.5609 91.9906 95.6428 91.936C95.7247 91.8814 95.8165 91.8434 95.9131 91.8241C96.0097 91.8049 96.1092 91.8048 96.2058 91.8238C96.3024 91.8429 96.3943 91.8807 96.4764 91.9352C97.8319 92.8447 98.9413 94.0736 99.7057 95.513C100.471 96.9524 100.868 98.5578 100.861 100.187C100.872 101.471 100.63 102.745 100.146 103.937C99.6631 105.127 98.9489 106.211 98.0446 107.127C97.1403 108.042 96.0637 108.77 94.8765 109.27C93.6893 109.769 92.4149 110.03 91.1263 110.038ZM70.2758 110.038C67.6809 110.011 65.203 108.958 63.3863 107.111C61.5695 105.264 60.5624 102.773 60.5862 100.187C60.5887 98.5514 60.9971 96.9421 61.775 95.5024C62.553 94.0626 63.6762 92.8371 65.0446 91.9352C65.2101 91.8251 65.4127 91.7852 65.6079 91.8241C65.8029 91.863 65.9746 91.9775 66.0849 92.1425C66.1952 92.3076 66.2353 92.5095 66.1963 92.704C66.1573 92.8985 66.0423 93.0696 65.8768 93.1796C64.7204 93.9481 63.7731 94.9904 63.1196 96.2132C62.466 97.4359 62.1267 98.8011 62.1318 100.187C62.0352 101.315 62.1747 102.451 62.5416 103.523C62.9085 104.594 63.4947 105.579 64.2632 106.413C65.0316 107.247 65.9654 107.913 67.0055 108.369C68.0457 108.825 69.1694 109.059 70.3055 109.059C71.4417 109.059 72.5653 108.825 73.6054 108.369C74.6456 107.913 75.5795 107.247 76.3479 106.413C77.1163 105.579 77.7025 104.594 78.0694 103.523C78.4363 102.451 78.5759 101.315 78.4792 100.187C78.4873 98.8022 78.1508 97.4374 77.4998 96.2146C76.8487 94.9917 75.9037 93.9489 74.749 93.1796C74.6671 93.1251 74.5966 93.0551 74.5418 92.9734C74.487 92.8918 74.4489 92.8003 74.4296 92.704C74.4103 92.6077 74.4102 92.5086 74.4293 92.4123C74.4483 92.3159 74.4863 92.2243 74.541 92.1425C74.5956 92.0609 74.6659 91.9906 74.7477 91.936C74.8296 91.8814 74.9215 91.8434 75.018 91.8241C75.1146 91.8049 75.2141 91.8048 75.3108 91.8238C75.4073 91.8429 75.4993 91.8807 75.5813 91.9352C76.9368 92.8447 78.0463 94.0736 78.811 95.513C79.5758 96.9524 79.9723 98.5578 79.9654 100.187C79.9892 102.773 78.982 105.264 77.1653 107.111C75.3485 108.958 72.8707 110.011 70.2758 110.038ZM49.4253 110.038C46.8304 110.011 44.3526 108.958 42.5358 107.111C40.719 105.264 39.7119 102.773 39.7358 100.187C39.7343 98.5506 40.141 96.9399 40.9193 95.4995C41.6975 94.0591 42.823 92.8342 44.1941 91.9352C44.3597 91.8251 44.5623 91.7852 44.7573 91.8241C44.9525 91.863 45.1241 91.9775 45.2344 92.1425C45.3448 92.3076 45.3848 92.5095 45.3459 92.704C45.3068 92.8985 45.1919 93.0696 45.0263 93.1796C43.5405 94.1385 42.4057 95.5508 41.7913 97.2056C41.177 98.8602 41.116 100.669 41.6175 102.361C42.1191 104.053 43.1563 105.538 44.5741 106.594C45.9921 107.65 47.7147 108.222 49.4848 108.222C51.2549 108.222 52.9775 107.65 54.3953 106.594C55.8133 105.538 56.8505 104.053 57.352 102.361C57.8536 100.669 57.7926 98.8602 57.1783 97.2056C56.5638 95.5508 55.429 94.1385 53.9431 93.1796C53.7776 93.0696 53.6627 92.8985 53.6237 92.704C53.5846 92.5095 53.6248 92.3076 53.7351 92.1425C53.8455 91.9775 54.0171 91.863 54.2121 91.8241C54.4073 91.7852 54.6099 91.8251 54.7754 91.9352C56.131 92.8447 57.2404 94.0736 58.0051 95.513C58.77 96.9524 59.1664 98.5578 59.1595 100.187C59.1712 101.471 58.9286 102.745 58.4454 103.937C57.9622 105.127 57.248 106.211 56.3436 107.127C55.4394 108.042 54.3628 108.77 53.1756 109.27C51.9885 109.769 50.714 110.03 49.4253 110.038Z" fill="var(--main-color, #377CB5)" />
	<path d="M141.625 93.2983H20.5944C20.0032 93.2983 19.4363 93.0641 19.0182 92.6474C18.6002 92.2307 18.3652 91.6655 18.3652 91.0762C18.3652 90.4869 18.6002 89.9216 19.0182 89.5049C19.4363 89.0882 20.0032 88.854 20.5944 88.854H141.625C142.216 88.854 142.783 89.0882 143.202 89.5049C143.62 89.9216 143.855 90.4869 143.855 91.0762C143.855 91.6655 143.62 92.2307 143.202 92.6474C142.783 93.0641 142.216 93.2983 141.625 93.2983ZM20.5944 90.3354C20.3974 90.3354 20.2084 90.4135 20.0691 90.5524C19.9296 90.6913 19.8514 90.8797 19.8514 91.0762C19.8514 91.2726 19.9296 91.461 20.0691 91.5999C20.2084 91.7388 20.3974 91.8169 20.5944 91.8169H141.625C141.822 91.8169 142.011 91.7388 142.15 91.5999C142.29 91.461 142.369 91.2726 142.369 91.0762C142.369 90.8797 142.29 90.6913 142.15 90.5524C142.011 90.4135 141.822 90.3354 141.625 90.3354H20.5944ZM55.0579 64.5887H43.0351C42.838 64.5887 42.649 64.5106 42.5096 64.3717C42.3703 64.2328 42.292 64.0445 42.292 63.848C42.292 63.6515 42.3703 63.4632 42.5096 63.3242C42.649 63.1853 42.838 63.1073 43.0351 63.1073H55.0579C55.255 63.1073 55.4439 63.1853 55.5834 63.3242C55.7227 63.4632 55.8009 63.6515 55.8009 63.848C55.8009 64.0445 55.7227 64.2328 55.5834 64.3717C55.4439 64.5106 55.255 64.5887 55.0579 64.5887ZM55.0579 61.6259H43.0351C42.838 61.6259 42.649 61.5478 42.5096 61.4089C42.3703 61.27 42.292 61.0816 42.292 60.8852C42.292 60.6887 42.3703 60.5003 42.5096 60.3615C42.649 60.2226 42.838 60.1445 43.0351 60.1445H55.0579C55.255 60.1445 55.4439 60.2226 55.5834 60.3615C55.7227 60.5003 55.8009 60.6887 55.8009 60.8852C55.8009 61.0816 55.7227 61.27 55.5834 61.4089C55.4439 61.5478 55.255 61.6259 55.0579 61.6259ZM55.0579 58.6631H43.0351C42.838 58.6631 42.649 58.5851 42.5096 58.4462C42.3703 58.3072 42.292 58.1188 42.292 57.9224C42.292 57.726 42.3703 57.5375 42.5096 57.3986C42.649 57.2597 42.838 57.1816 43.0351 57.1816H55.0579C55.255 57.1816 55.4439 57.2597 55.5834 57.3986C55.7227 57.5375 55.8009 57.726 55.8009 57.9224C55.8009 58.1188 55.7227 58.3072 55.5834 58.4462C55.4439 58.5851 55.255 58.6631 55.0579 58.6631Z" fill="var(--accent-color, #F58220)" />
</svg>