<svg id="self" preserveAspectRatio="xMidYMid meet" viewBox="0 0 173 153" fill="none" xmlns="http://www.w3.org/2000/svg">
	<path d="M52.25 28H124.386V125.749H59.9813H53.25C50.3505 125.749 48 123.368 48 120.43V32.3063C48 29.928 49.9028 28 52.25 28Z" stroke="var(--main-color, #377CB5)" stroke-width="1.5" />
	<path d="M48.1348 120.459C48.1348 116.812 48.5283 111.34 58.566 111.34C63.9876 111.34 104.251 111.649 125.335 111.649" stroke="var(--main-color, #377CB5)" stroke-width="1.5" />
	<path d="M61.3633 28.0037V111.238" stroke="var(--main-color, #377CB5)" stroke-width="1.5" />
	<path d="M73.2578 65.7603V64.5975C73.2578 63.4783 74.1533 62.571 75.2578 62.571H85.6611C86.4187 62.571 87.1112 63.0046 87.45 63.6912L88.471 65.7603" stroke="var(--main-color, #377CB5)" stroke-width="1.5" stroke-linecap="round" />
	<path d="M77.4531 62.0398V60.8771C77.4531 59.7579 78.3486 58.8506 79.4531 58.8506H89.8564C90.6138 58.8506 91.3068 59.2843 91.6448 59.9708L92.6658 62.0398" stroke="var(--main-color, #377CB5)" stroke-width="1.5" stroke-linecap="round" />
	<path d="M81.6504 57.9897V56.827C81.6504 55.7077 82.5458 54.8005 83.6504 54.8005H94.0538C94.8108 54.8005 95.5038 55.2341 95.8428 55.9207L96.8638 57.9897" stroke="var(--main-color, #377CB5)" stroke-width="1.5" stroke-linecap="round" />
	<path d="M71.3848 66.7736C71.3848 66.6337 71.4967 66.5203 71.6348 66.5203H102.258C103.501 66.5203 104.508 67.541 104.508 68.8001V83.9822C104.508 85.2412 103.501 86.262 102.258 86.262H73.6348C72.3922 86.262 71.3848 85.2412 71.3848 83.9822V66.7736Z" stroke="var(--accent-color, #F58220)" stroke-width="1.5" />
	<path d="M88.9961 62.571H105.931C107.588 62.571 108.931 63.932 108.931 65.6107V80.1118C108.931 81.5796 107.756 82.7695 106.308 82.7695" stroke="var(--accent-color, #F58220)" stroke-width="1.5" stroke-linecap="round" />
	<path d="M93.1934 58.3184H110.127C111.784 58.3184 113.127 59.6793 113.127 61.3581V75.8592C113.127 77.327 111.953 78.5168 110.504 78.5168" stroke="var(--accent-color, #F58220)" stroke-width="1.5" stroke-linecap="round" />
	<path d="M100.635 76.8892V80.9422C100.635 81.5018 100.187 81.9554 99.6348 81.9554H95.1348" stroke="var(--main-color, #377CB5)" stroke-width="1.5" stroke-linecap="round" />
</svg>