<svg id="self" preserveAspectRatio="xMidYMid meet" viewBox="0 0 173 153" fill="none" xmlns="http://www.w3.org/2000/svg">
	<path d="M121.866 47.508L124.826 48.6035C125.062 48.691 125.265 48.8408 125.408 49.0336C125.55 49.2265 125.626 49.4537 125.626 49.6862V110.524C125.626 111.337 124.737 111.909 123.883 111.675C120.378 110.708 114.099 109.417 107.575 109.417C100.051 109.417 91.4591 111.134 87.6915 112.09C87.4147 112.16 87.1251 112.146 86.856 112.054C84.0432 111.092 77.2167 109.417 69.2151 109.417C61.8889 109.417 54.0321 110.821 49.8007 111.796C49.6072 111.841 49.405 111.846 49.2092 111.81C49.0134 111.773 48.8292 111.697 48.6707 111.586C48.5122 111.475 48.3834 111.333 48.2941 111.17C48.2049 111.007 48.1573 110.828 48.1553 110.646V49.7189C48.1553 49.2272 48.4885 48.7881 49.0011 48.6304C52.9378 47.4158 61.0137 45.4209 67.7107 45.4209C74.4077 45.4209 82.4849 47.4158 86.4203 48.6304C86.9329 48.7881 87.2661 49.2261 87.2661 49.7189V104.082C87.2658 104.28 87.3207 104.474 87.4255 104.647C87.5303 104.82 87.6817 104.966 87.8653 105.072C88.0489 105.177 88.2589 105.238 88.4756 105.249C88.6921 105.26 88.9083 105.221 89.1037 105.135L115.122 93.7362C115.339 93.641 115.523 93.4919 115.651 93.3059C115.78 93.12 115.848 92.9049 115.848 92.6851V36.1685C115.848 35.9701 115.793 35.7749 115.687 35.6013C115.582 35.4278 115.429 35.2817 115.245 35.1767C115.06 35.0718 114.849 35.0114 114.631 35.0015C114.414 34.9914 114.197 35.0322 114.002 35.1197L91.0272 45.4209" stroke="var(--main-color, #377CB5)" stroke-width="1.5" />
	<path d="M40 55.3145V117.215C40 117.525 40.1349 117.822 40.3753 118.041C40.6156 118.26 40.9416 118.383 41.2815 118.383H132.5C132.839 118.383 133.166 118.26 133.406 118.041C133.647 117.822 133.781 117.525 133.781 117.215V55.3145" stroke="var(--accent-color, #F58220)" stroke-width="1.5" />
	<path d="M56.3115 61.4977C58.3106 60.6743 63.3597 59.0251 67.5591 59.0251C71.7585 59.0251 76.3078 60.123 78.0583 60.6743" stroke="var(--accent-color, #F58220)" stroke-width="1.5" />
	<path d="M56.3115 78.8111C58.3106 77.9865 63.3597 76.3374 67.5591 76.3374C71.7585 76.3374 76.3078 77.4364 78.0583 77.9865" stroke="var(--main-color, #377CB5)" stroke-width="1.5" />
	<path d="M56.3115 70.1544C58.3106 69.3298 63.3597 67.6807 67.5591 67.6807C71.7585 67.6807 76.3078 68.7797 78.0583 69.3298" stroke="var(--accent-color, #F58220)" stroke-width="1.5" />
	<path d="M56.3115 87.468C58.3106 86.6434 63.3597 84.9943 67.5591 84.9943C71.7585 84.9943 76.3078 86.0933 78.0583 86.6434M56.3115 96.1224C58.3106 95.299 63.3597 93.6499 67.5591 93.6499C71.7585 93.6499 76.3078 94.7489 78.0583 95.299M94.3664 56.5515L109.317 50.3684M94.3664 65.2071L109.317 59.0252M94.3664 73.8638L109.317 67.6808M94.3664 82.5206L109.319 76.3375M94.3664 91.1774L109.317 84.9943" stroke="var(--main-color, #377CB5)" stroke-width="1.5" />
</svg>