<svg id="self" preserveAspectRatio="xMidYMid meet" viewBox="0 0 173 153" fill="none" xmlns="http://www.w3.org/2000/svg">
	<path d="M134.869 76.3353C134.869 100.8 114.068 120.67 88.3602 120.67C62.6531 120.67 41.8516 100.8 41.8516 76.3353C41.8516 51.8703 62.6531 32 88.3602 32C114.068 32 134.869 51.8703 134.869 76.3353Z" stroke="var(--main-color, #377CB5)" stroke-width="1.5" />
	<path d="M38 65.9035C38.5072 61.0052 40.6626 53.6566 46.2945 46.199C52.0391 38.5919 59.3288 34.6081 61.6986 33.449" stroke="var(--main-color, #377CB5)" stroke-width="1.5" />
	<path d="M77.6953 64.8616C77.6953 59.9447 79.8045 53.1536 88.24 53.1536C96.6756 53.1536 99.0237 59.2411 99.0237 64.8616V76.3354" stroke="var(--accent-color, #F58220)" stroke-width="1.5" />
	<path d="M88.3598 96.3296C95.722 96.3296 101.691 90.4915 101.691 83.2898C101.691 76.0881 95.722 70.25 88.3598 70.25C80.9976 70.25 75.0293 76.0881 75.0293 83.2898C75.0293 90.4915 80.9976 96.3296 88.3598 96.3296Z" stroke="var(--accent-color, #F58220)" stroke-width="1.5" />
	<path d="M88.36 85.6081C89.6689 85.6081 90.7299 84.5702 90.7299 83.2899C90.7299 82.0096 89.6689 80.9717 88.36 80.9717C87.0512 80.9717 85.9902 82.0096 85.9902 83.2899C85.9902 84.5702 87.0512 85.6081 88.36 85.6081Z" fill="var(--accent-color, #F58220)" />
</svg>