<svg id="self" preserveAspectRatio="xMidYMid meet" viewBox="0 0 173 153" fill="none" xmlns="http://www.w3.org/2000/svg">
	<path d="M70.2314 42H57.2628C53.9216 42.0002 50.7125 43.1898 48.3196 45.3152C45.9267 47.4406 44.5394 50.3338 44.4531 53.3781L43.3203 93.3893M102.268 42H115.237C118.578 42.0002 121.788 43.1898 124.181 45.3152C126.573 47.4406 127.961 50.3338 128.047 53.3781L129.18 93.3893" stroke="var(--main-color, #377CB5)" stroke-width="1.5" stroke-linecap="round" />
	<path d="M58.6981 110.032C67.368 110.032 74.3963 103.627 74.3963 95.7252C74.3963 87.8235 67.368 81.418 58.6981 81.418C50.0283 81.418 43 87.8235 43 95.7252C43 103.627 50.0283 110.032 58.6981 110.032Z" stroke="var(--main-color, #377CB5)" stroke-width="1.5" />
	<path d="M113.802 110.032C122.472 110.032 129.5 103.627 129.5 95.7252C129.5 87.8235 122.472 81.418 113.802 81.418C105.132 81.418 98.1035 87.8235 98.1035 95.7252C98.1035 103.627 105.132 110.032 113.802 110.032Z" stroke="var(--main-color, #377CB5)" stroke-width="1.5" />
	<path d="M74.0762 95.7253H98.4243" stroke="var(--main-color, #377CB5)" stroke-width="1.5" />
	<path d="M49.0875 99.229C48.6608 97.866 48.3186 94.4404 50.369 91.6374C52.4194 88.8343 54.6402 88.1335 55.4949 88.1335M104.191 99.229C103.764 97.866 103.422 94.4404 105.473 91.6374C107.523 88.8343 109.744 88.1335 110.599 88.1335" stroke="var(--accent-color, #F58220)" stroke-width="1.5" stroke-linecap="round" />
</svg>