<svg id="self" preserveAspectRatio="xMidYMid meet" viewBox="0 0 173 153" fill="none" xmlns="http://www.w3.org/2000/svg">
	<path d="M52.495 28.212H124.645V125.612H52.496C51.9058 125.613 51.3212 125.497 50.7758 125.273C50.2303 125.049 49.7347 124.72 49.3171 124.305C48.8996 123.891 48.5683 123.398 48.3424 122.856C48.1164 122.314 48 121.733 48 121.146V32.678C48 30.211 50.0107 28.212 52.495 28.212Z" stroke="var(--main-color, #377CB5)" stroke-width="1.5" />
	<path d="M61.487 28V110.938M52.495 111.576H124.645V125.612H52.496C51.9058 125.613 51.3212 125.497 50.7758 125.273C50.2303 125.049 49.7347 124.72 49.3171 124.305C48.8996 123.891 48.5684 123.398 48.3424 122.856C48.1164 122.314 48 121.733 48 121.146V116.042C47.9998 115.455 48.1159 114.874 48.3418 114.332C48.5677 113.789 48.8989 113.297 49.3165 112.882C49.7341 112.467 50.2299 112.138 50.7755 111.914C51.3211 111.69 51.9047 111.575 52.495 111.576Z" stroke="var(--main-color, #377CB5)" stroke-width="1.5" />
	<mask id="mask0_185_631" style="mask-type:luminance" maskUnits="userSpaceOnUse" x="78" y="55" width="8" height="11">
		<path fill-rule="evenodd" clip-rule="evenodd" d="M84.4934 65.3921C85.1502 65.3921 85.6833 64.8621 85.6833 64.2101V59.7801C85.6833 59.1271 85.1502 58.5981 84.4934 58.5981H81.6177C81.8571 58.3213 82.1746 58.1225 82.529 58.0275C82.8834 57.9324 83.2584 57.9455 83.6052 58.0651L84.3676 55.873C83.4215 55.5481 82.3893 55.5727 81.4599 55.9423C80.5305 56.312 79.766 57.002 79.3064 57.886C79.0022 58.4719 78.8437 59.1217 78.8438 59.7811V64.2111C78.8438 64.8631 79.3768 65.3931 80.0336 65.3931L84.4934 65.3921Z" fill="white" />
	</mask>
	<g mask="url(#mask0_185_631)">
		<path d="M81.6166 58.5971L80.7576 57.8661C80.6164 58.0294 80.5253 58.2296 80.4951 58.4429C80.465 58.6562 80.4972 58.8736 80.5878 59.0692C80.6784 59.2648 80.8236 59.4305 81.0062 59.5464C81.1888 59.6623 81.401 59.7237 81.6176 59.7231L81.6166 58.5971ZM83.6031 58.0641L83.2329 59.1271C83.5167 59.2242 83.8275 59.2055 84.0974 59.0753C84.3674 58.945 84.5744 58.7138 84.6733 58.4321L83.6031 58.0641ZM84.3675 55.8721L85.4367 56.2401C85.4854 56.1006 85.506 55.9529 85.4972 55.8055C85.4884 55.658 85.4505 55.5138 85.3855 55.3809C85.3206 55.2481 85.2299 55.1293 85.1188 55.0314C85.0076 54.9334 84.8781 54.8582 84.7376 54.8101L84.3675 55.8721ZM78.8426 59.7801H77.709C77.709 60.4001 78.217 60.9041 78.8426 60.9041V59.7801ZM78.8426 59.7801H79.9751C79.9754 59.6322 79.9463 59.4857 79.8894 59.349C79.8326 59.2124 79.7492 59.0882 79.6439 58.9837C79.5387 58.8791 79.4137 58.7963 79.2762 58.7399C79.1387 58.6835 78.9913 58.6547 78.8426 58.6551V59.7801ZM84.5496 64.2101C84.5496 64.2252 84.5435 64.2397 84.5328 64.2504C84.522 64.2611 84.5074 64.2671 84.4922 64.2671V66.5171C85.1076 66.5168 85.6977 66.2739 86.1331 65.8416C86.5685 65.4093 86.8136 64.8229 86.8147 64.2111L84.5496 64.2101ZM84.5496 59.7791V64.2101L86.8147 64.2111V59.7791H84.5496ZM84.4922 59.7231C84.5244 59.7231 84.5496 59.7481 84.5496 59.7791H86.8147C86.8148 59.476 86.7548 59.1758 86.6381 58.8958C86.5214 58.6158 86.3503 58.3614 86.1345 58.1472C85.9188 57.933 85.6627 57.7632 85.3809 57.6475C85.0991 57.5318 84.7971 57.4726 84.4922 57.4731V59.7231ZM81.6176 59.7231H84.4922V57.4731H81.6166L81.6176 59.7231ZM81.2877 57.3841C81.0916 57.5241 80.9156 57.6861 80.7576 57.8661L82.4776 59.3301C82.5141 59.2876 82.5556 59.2496 82.6013 59.2171L81.2877 57.3841ZM82.5832 56.8691C82.1163 56.9358 81.6721 57.1123 81.2877 57.3841L82.6013 59.2171C82.6918 59.1533 82.7963 59.1118 82.9061 59.0961L82.5832 56.8691ZM83.9732 57.0011C83.5271 56.8477 83.0505 56.8024 82.5832 56.8691L82.9061 59.0961C83.0163 59.0803 83.1277 59.0909 83.2329 59.1271L83.9732 57.0011ZM83.2973 55.5041L82.5329 57.6961L84.6733 58.4321L85.4367 56.2401L83.2953 55.5041H83.2973ZM82.5741 56.8001C83.0519 56.7321 83.5397 56.7781 83.9954 56.9351L84.7376 54.8101C83.9395 54.536 83.0871 54.4544 82.2513 54.5741L82.5741 56.8001ZM81.2465 57.3281C81.6407 57.0491 82.0954 56.8681 82.5741 56.8001L82.2513 54.5741C81.4144 54.6941 80.6209 55.0091 79.9329 55.4951L81.2465 57.3281ZM80.3111 58.4001C80.5323 57.9741 80.8542 57.6061 81.2465 57.3281L79.9329 55.4951C79.2455 55.9816 78.6851 56.6245 78.2984 57.3701L80.3111 58.4001ZM79.9751 59.7801C79.9751 59.3001 80.0898 58.8271 80.3111 58.4001L78.2984 57.3701C77.9114 58.1152 77.7093 58.9415 77.709 59.7801H79.9751ZM79.9751 64.2101V59.7801H77.709L77.711 64.2101H79.9751ZM80.0314 64.2671C80.0164 64.2668 80.0021 64.2607 79.9916 64.2501C79.981 64.2394 79.9751 64.2251 79.9751 64.2101H77.711C77.7109 64.5133 77.7699 64.8136 77.8867 65.0937C78.0035 65.3738 78.1747 65.6282 78.3905 65.8424C78.6063 66.0566 78.8625 66.2264 79.1445 66.342C79.4264 66.4576 79.7285 66.5168 80.0335 66.5161L80.0314 64.2671ZM84.4922 64.2671H80.0314L80.0324 66.5171H84.4922V64.2671Z" fill="var(--accent-color, #F58220)" />
	</g>
	<mask id="mask1_185_631" style="mask-type:luminance" maskUnits="userSpaceOnUse" x="99" y="78" width="7" height="11">
		<path fill-rule="evenodd" clip-rule="evenodd" d="M100.255 78.892C99.5986 78.892 99.0645 79.422 99.0645 80.075V84.505C99.0645 85.157 99.5976 85.686 100.255 85.686H103.13C102.891 85.963 102.574 86.1622 102.22 86.2576C101.866 86.353 101.491 86.3402 101.144 86.221L100.381 88.412C101.327 88.737 102.36 88.7125 103.289 88.3428C104.219 87.9732 104.984 87.2832 105.444 86.399C105.748 85.813 105.906 85.163 105.906 84.504L105.905 80.074C105.905 79.421 105.373 78.892 104.716 78.892H100.255Z" fill="white" />
	</mask>
	<g mask="url(#mask1_185_631)">
		<path d="M103.13 85.687L103.989 86.418C104.129 86.2542 104.219 86.0543 104.248 85.8416C104.278 85.6289 104.246 85.4123 104.156 85.217C104.066 85.0218 103.921 84.8563 103.739 84.7401C103.558 84.6239 103.347 84.5617 103.131 84.561L103.13 85.687ZM101.144 86.22L101.514 85.157C101.23 85.0597 100.92 85.0782 100.65 85.2084C100.38 85.3387 100.173 85.5702 100.074 85.852L101.144 86.22ZM100.381 88.412L99.3105 88.044C99.2127 88.3258 99.2314 88.6347 99.3624 88.9028C99.4935 89.1709 99.7262 89.3763 100.01 89.474L100.381 88.412ZM105.905 84.504H107.037C107.037 83.884 106.53 83.38 105.905 83.38V84.504ZM105.905 84.504H104.772C104.772 85.125 105.279 85.629 105.904 85.629L105.905 84.504ZM100.198 80.074C100.198 80.042 100.223 80.017 100.255 80.017V77.767C99.6396 77.7675 99.0496 78.0107 98.6144 78.4432C98.1792 78.8757 97.9344 79.4622 97.9336 80.074H100.198ZM100.198 84.505V80.074H97.9336V84.505H100.198ZM100.255 84.561C100.24 84.561 100.225 84.5551 100.215 84.5446C100.204 84.5342 100.198 84.5199 100.198 84.505H97.9336C97.9336 84.8078 97.9936 85.1077 98.1102 85.3875C98.2269 85.6673 98.3978 85.9215 98.6133 86.1356C98.8288 86.3496 99.0846 86.5194 99.3661 86.6351C99.6477 86.7508 99.9493 86.8102 100.254 86.81V84.562L100.255 84.561ZM103.131 84.561H100.255V86.811H103.13L103.131 84.561ZM103.459 86.9C103.654 86.76 103.832 86.6 103.989 86.418L102.271 84.954C102.234 84.9965 102.192 85.0344 102.146 85.067L103.459 86.9ZM102.164 87.415C102.631 87.3483 103.075 87.1717 103.459 86.9L102.146 85.067C102.056 85.1311 101.951 85.1726 101.841 85.188L102.164 87.415ZM100.774 87.283C101.219 87.436 101.696 87.481 102.164 87.415L101.841 85.188C101.731 85.2038 101.619 85.1932 101.514 85.157L100.774 87.283ZM101.45 88.78L102.214 86.588L100.074 85.852L99.3105 88.044L101.45 88.78ZM102.174 87.484C101.695 87.552 101.208 87.506 100.752 87.349L100.01 89.475C100.808 89.7491 101.66 89.8297 102.496 89.71L102.174 87.484ZM103.501 86.957C103.106 87.235 102.653 87.416 102.174 87.484L102.496 89.71C103.331 89.59 104.125 89.275 104.813 88.789L103.501 86.957ZM104.436 85.884C104.214 86.31 103.892 86.678 103.501 86.957L104.813 88.789C105.5 88.3025 106.061 87.6596 106.448 86.914L104.436 85.884ZM104.772 84.504C104.772 84.984 104.657 85.457 104.436 85.884L106.448 86.914C106.835 86.1689 107.037 85.3425 107.037 84.504H104.772ZM104.772 80.074V84.504H107.037V80.074H104.772ZM104.714 80.017C104.746 80.017 104.772 80.042 104.772 80.074H107.037C107.037 79.7709 106.977 79.4707 106.86 79.1907C106.743 78.9106 106.572 78.6562 106.357 78.442C106.141 78.2278 105.885 78.058 105.603 77.9424C105.321 77.8267 105.019 77.7675 104.714 77.768V80.017ZM100.255 80.017H104.714V77.768L100.255 77.767V80.017Z" fill="var(--accent-color, #F58220)" />
	</g>
	<mask id="mask2_185_631" style="mask-type:luminance" maskUnits="userSpaceOnUse" x="69" y="55" width="8" height="11">
		<path fill-rule="evenodd" clip-rule="evenodd" d="M75.2738 65.392C75.9316 65.392 76.4636 64.862 76.4636 64.21V59.78C76.4636 59.127 75.9306 58.598 75.2738 58.598H72.3991C72.638 58.3214 72.9551 58.1226 73.3092 58.0275C73.6633 57.9325 74.038 57.9455 74.3845 58.065L75.149 55.873C74.2026 55.5475 73.1699 55.5718 72.24 55.9415C71.3102 56.3112 70.5454 57.0015 70.0857 57.886C69.7816 58.472 69.623 59.1217 69.623 59.781V64.211C69.623 64.863 70.1561 65.393 70.8139 65.393L75.2738 65.392Z" fill="white" />
	</mask>
	<g mask="url(#mask2_185_631)">
		<path d="M72.3998 58.597L71.5398 57.866C71.3985 58.0293 71.3074 58.2295 71.2773 58.4428C71.2472 58.656 71.2793 58.8734 71.3699 59.0691C71.4605 59.2647 71.6058 59.4304 71.7883 59.5463C71.9709 59.6622 72.1831 59.7236 72.3998 59.723V58.597ZM74.3852 58.064L74.0141 59.127C74.2978 59.2243 74.6088 59.2058 74.8788 59.0755C75.1488 58.9452 75.3558 58.7138 75.4544 58.432L74.3852 58.064ZM75.1497 55.872L76.2198 56.24C76.2686 56.1004 76.2892 55.9525 76.2804 55.8049C76.2715 55.6574 76.2334 55.513 76.1683 55.3801C76.1031 55.2472 76.0122 55.1285 75.9008 55.0306C75.7893 54.9328 75.6595 54.8578 75.5188 54.81L75.1497 55.872ZM69.6247 59.78H68.4922C68.4922 60.4 68.9991 60.904 69.6247 60.904V59.78ZM69.6247 59.78H70.7573C70.7574 59.6321 70.7282 59.4857 70.6713 59.3491C70.6144 59.2125 70.531 59.0884 70.4258 58.9839C70.3206 58.8794 70.1957 58.7965 70.0582 58.7401C69.9207 58.6836 69.7734 58.6547 69.6247 58.655V59.78ZM75.3317 64.21C75.3317 64.2251 75.3257 64.2396 75.3149 64.2503C75.3042 64.261 75.2896 64.267 75.2744 64.267V66.517C75.8899 66.517 76.4803 66.2742 76.9159 65.8418C77.3515 65.4095 77.5967 64.823 77.5978 64.211L75.3317 64.21ZM75.3317 59.78V64.21L77.5978 64.211L77.5968 59.78H75.3317ZM75.2754 59.723C75.3066 59.723 75.3327 59.748 75.3327 59.779H77.5958C77.5958 59.4762 77.5358 59.1764 77.4192 58.8967C77.3027 58.617 77.1318 58.3628 76.9164 58.1488C76.701 57.9347 76.4453 57.7649 76.1639 57.6492C75.8825 57.5334 75.5809 57.4739 75.2764 57.474L75.2754 59.723ZM72.3998 59.723H75.2754L75.2744 57.473H72.3998V59.723ZM72.0699 57.384C71.8727 57.524 71.6957 57.686 71.5398 57.866L73.2597 59.33C73.2965 59.2874 73.3384 59.2495 73.3844 59.217L72.0699 57.384ZM73.3674 56.869C72.8998 56.9354 72.4549 57.112 72.0699 57.384L73.3844 59.217C73.4749 59.1531 73.5794 59.1116 73.6892 59.096L73.3674 56.869ZM74.7554 57.001C74.3098 56.8479 73.834 56.8026 73.3674 56.869L73.6892 59.096C73.7987 59.0802 73.9104 59.0905 74.0151 59.126L74.7554 57.001ZM74.0795 55.504L73.315 57.696L75.4574 58.432L76.2198 56.24L74.0795 55.504ZM73.3563 56.8C73.8351 56.732 74.3219 56.778 74.7795 56.935L75.5198 54.809C74.7223 54.5352 73.8706 54.4547 73.0354 54.574L73.3563 56.8ZM72.0286 57.328C72.4229 57.049 72.8785 56.868 73.3563 56.8L73.0354 54.574C72.2006 54.694 71.404 55.009 70.716 55.495L72.0286 57.328ZM71.0942 58.4C71.3155 57.974 71.6363 57.606 72.0286 57.328L70.716 55.495C70.0283 55.9814 69.4675 56.6243 69.0806 57.37L71.0942 58.4ZM70.7573 59.78C70.7573 59.3 70.8719 58.827 71.0942 58.4L69.0806 57.37C68.6939 58.1152 68.4921 58.9415 68.4922 59.78H70.7573ZM70.7573 64.21V59.78H68.4922L68.4932 64.21H70.7573ZM70.8146 64.267C70.8071 64.267 70.7996 64.2655 70.7927 64.2627C70.7857 64.2598 70.7794 64.2556 70.7741 64.2503C70.7687 64.245 70.7645 64.2387 70.7616 64.2318C70.7587 64.2249 70.7573 64.2175 70.7573 64.21H68.4932C68.4929 64.5129 68.5537 64.8129 68.6702 65.0928C68.7867 65.3727 68.9575 65.627 69.1729 65.8412C69.3884 66.0554 69.6442 66.2252 69.9257 66.341C70.2072 66.4568 70.5089 66.5163 70.8136 66.516L70.8146 64.267ZM75.2744 64.267H70.8146V66.517H75.2744V64.267Z" fill="var(--accent-color, #F58220)" />
	</g>
	<mask id="mask3_185_631" style="mask-type:luminance" maskUnits="userSpaceOnUse" x="108" y="78" width="8" height="11">
		<path fill-rule="evenodd" clip-rule="evenodd" d="M109.468 78.892C109.152 78.8928 108.85 79.0177 108.627 79.2394C108.405 79.4611 108.279 79.7616 108.279 80.075V84.505C108.279 85.157 108.811 85.686 109.468 85.686H112.343C112.104 85.9622 111.786 86.1608 111.432 86.256C111.078 86.3511 110.704 86.3386 110.357 86.22L109.593 88.412C110.22 88.6275 110.89 88.691 111.546 88.5972C112.203 88.5034 112.828 88.255 113.368 87.8727C113.909 87.4904 114.349 86.9852 114.654 86.3992C114.958 85.8133 115.118 85.1635 115.118 84.504L115.117 80.074C115.117 79.7606 114.992 79.4601 114.769 79.2385C114.546 79.0169 114.244 78.8922 113.928 78.892H109.468Z" fill="white" />
	</mask>
	<g mask="url(#mask3_185_631)">
		<path d="M112.342 85.687L113.202 86.418C113.343 86.2551 113.435 86.055 113.465 85.8419C113.495 85.6287 113.463 85.4114 113.372 85.216C113.282 85.02 113.137 84.8539 112.954 84.7378C112.771 84.6216 112.559 84.5602 112.342 84.561V85.687ZM110.357 86.22L110.728 85.157C110.516 85.0845 110.287 85.0758 110.071 85.132C109.854 85.1882 109.659 85.3068 109.51 85.473C109.411 85.583 109.336 85.713 109.287 85.853L110.357 86.22ZM109.593 88.412L108.523 88.044C108.425 88.3259 108.444 88.6349 108.575 88.903C108.706 89.1712 108.939 89.3765 109.223 89.474L109.593 88.412ZM115.118 84.504H116.251C116.251 83.884 115.744 83.38 115.118 83.38V84.504ZM115.118 84.504H113.985C113.985 85.125 114.492 85.629 115.117 85.629L115.118 84.504ZM109.41 80.074C109.41 80.042 109.436 80.017 109.467 80.017V77.767C108.852 77.7672 108.262 78.0103 107.826 78.4429C107.391 78.8754 107.146 79.462 107.145 80.074H109.41ZM109.41 84.505V80.074H107.145V84.505H109.41ZM109.467 84.561C109.452 84.561 109.438 84.5553 109.427 84.545C109.417 84.5343 109.41 84.52 109.41 84.505H107.145C107.145 84.8081 107.205 85.1082 107.322 85.3881C107.438 85.6681 107.609 85.9225 107.825 86.1366C108.041 86.3507 108.297 86.5204 108.579 86.6359C108.861 86.7515 109.163 86.8106 109.467 86.81V84.561ZM112.342 84.561H109.467V86.81L112.342 86.811V84.561ZM112.672 86.9C112.868 86.76 113.046 86.6 113.202 86.418L111.483 84.954C111.446 84.9966 111.404 85.0345 111.358 85.067L112.672 86.9ZM111.375 87.415C111.843 87.3485 112.287 87.172 112.672 86.9L111.358 85.067C111.268 85.1308 111.163 85.1723 111.054 85.188L111.375 87.415ZM109.986 87.283C110.433 87.436 110.909 87.481 111.375 87.415L111.054 85.188C110.944 85.2037 110.832 85.1931 110.728 85.157L109.986 87.283ZM110.663 88.78L111.427 86.588L109.287 85.853L108.523 88.044L110.663 88.78ZM111.385 87.484C110.908 87.552 110.42 87.506 109.963 87.349L109.223 89.475C110.021 89.748 110.872 89.83 111.708 89.71L111.385 87.484ZM112.712 86.957C112.319 87.235 111.864 87.416 111.385 87.484L111.708 89.71C112.544 89.591 113.338 89.2752 114.026 88.789L112.712 86.957ZM113.649 85.884C113.427 86.31 113.106 86.679 112.712 86.957L114.026 88.789C114.714 88.3025 115.275 87.6597 115.662 86.914L113.649 85.884ZM113.985 84.504C113.985 84.984 113.87 85.457 113.649 85.884L115.662 86.914C116.048 86.1685 116.25 85.3424 116.251 84.504H113.985ZM113.985 80.074V84.504H116.251L116.25 80.074H113.985ZM113.927 80.017C113.959 80.017 113.985 80.042 113.985 80.074H116.25C116.25 79.7709 116.19 79.4707 116.073 79.1907C115.956 78.9106 115.785 78.6562 115.569 78.442C115.354 78.2278 115.098 78.058 114.816 77.9424C114.534 77.8267 114.232 77.7675 113.927 77.768V80.017ZM109.467 80.017H113.927V77.768L109.467 77.767V80.017Z" fill="var(--accent-color, #F58220)" />
	</g>
	<path d="M85.8985 69.162H109.879M73.9102 69.162H83.3297M100.458 75.117H109.879M73.9102 75.117H97.8888" stroke="var(--main-color, #377CB5)" stroke-width="1.322" stroke-linecap="round" />
	<path fill-rule="evenodd" clip-rule="evenodd" d="M69.623 66.704V80.314C69.6227 80.5377 69.6669 80.7592 69.7529 80.9659C69.8389 81.1725 69.965 81.3603 70.1242 81.5184C70.2833 81.6765 70.4722 81.8019 70.6802 81.8873C70.8881 81.9726 71.1109 82.0164 71.3359 82.016H97.8833V81.166H71.3359C71.1088 81.166 70.891 81.0764 70.7303 80.9168C70.5696 80.7572 70.4793 80.5408 70.479 80.315V66.705L69.623 66.704ZM86.751 62.451H113.299C113.526 62.4513 113.743 62.5409 113.904 62.7002C114.064 62.8595 114.154 63.0755 114.155 63.301V77.763H115.012V63.302C115.012 63.0784 114.968 62.857 114.881 62.6504C114.795 62.4439 114.669 62.2562 114.51 62.0981C114.351 61.9401 114.162 61.8147 113.954 61.7293C113.747 61.6438 113.524 61.5999 113.299 61.6H86.751V62.451Z" fill="var(--accent-color, #F58220)" />
</svg>