<svg id="self" preserveAspectRatio="xMidYMid meet" viewBox="0 0 173 153" fill="none" xmlns="http://www.w3.org/2000/svg">
	<path d="M52.2747 28H124.829V124.471H60.051H53.2805C50.3642 124.471 48 122.121 48 119.221V32.25C48 29.9028 49.9139 28 52.2747 28Z" stroke="var(--main-color, #377CB5)" stroke-width="1.5" />
	<path d="M48.3574 119.014C48.3574 115.344 48.7504 109.838 58.7767 109.838C64.1922 109.838 104.41 110.148 125.469 110.148" stroke="var(--main-color, #377CB5)" stroke-width="1.5" />
	<path d="M61.4434 28.0035V110.149" stroke="var(--main-color, #377CB5)" stroke-width="1.5" />
	<path d="M74.0693 75.25V62.65H75.409L83.3932 72.748V62.65H84.7872V75.25H83.6466L75.4633 64.918V75.25H74.0693ZM88.9701 71.164C89.0666 72.112 89.4227 72.868 90.0383 73.432C90.6659 73.984 91.4082 74.26 92.2651 74.26C93.3876 74.26 94.3713 73.822 95.2162 72.946L96.0852 73.72C95.0352 74.884 93.7497 75.466 92.2289 75.466C90.9133 75.466 89.8029 75.016 88.8977 74.116C88.0045 73.204 87.5579 72.034 87.5579 70.606C87.5579 69.25 87.9864 68.104 88.8434 67.168C89.7003 66.22 90.7685 65.746 92.0479 65.746C93.3876 65.746 94.4498 66.214 95.2343 67.15C96.0188 68.086 96.4111 69.262 96.4111 70.678C96.4111 70.858 96.4051 71.02 96.393 71.164H88.9701ZM88.9701 70.048H94.9989C94.9145 69.148 94.6127 68.404 94.0937 67.816C93.5868 67.216 92.8928 66.916 92.0117 66.916C91.2151 66.916 90.5331 67.21 89.9658 67.798C89.3986 68.386 89.0666 69.136 88.9701 70.048ZM100.872 75.322L97.5952 65.944H99.0798L101.542 73.414L104.059 65.908H105.218L107.752 73.414L110.214 65.944H111.663L108.368 75.322H107.155L104.638 67.978L102.103 75.322H100.872Z" fill="var(--accent-color, #F58220)" />
</svg>