<svg id="self" preserveAspectRatio="xMidYMid meet" viewBox="0 0 173 153" fill="none" xmlns="http://www.w3.org/2000/svg">
	<path d="M129.949 101V118" stroke="var(--main-color, #377CB5)" stroke-width="1.5" />
	<path d="M129.949 73V89" stroke="var(--main-color, #377CB5)" stroke-width="1.5" />
	<path d="M53.784 96H130.592C134.639 96 134.639 101.565 130.592 101.565L53.784 101.565C48.5639 101.565 44.8855 105.425 44.8855 109.673C44.8855 113.922 48.5639 118.189 53.784 118.189H130.592C131.696 118.189 133.903 118.669 133.903 121.188C133.903 123.707 131.696 124 130.592 124H53.784C48.5639 124 39 120.468 39 109.673C39 98.8786 48.9317 96 53.784 96Z" stroke="var(--main-color, #377CB5)" stroke-width="1.5" />
	<path d="M92.3829 68H130.592C134.639 68 134.639 73.5652 130.592 73.5652L53.784 73.5655C48.5639 73.5655 44.8855 77.4251 44.8855 81.6734C44.8855 85.9217 48.5639 90.189 53.784 90.1893L130.592 90.189C131.696 90.189 133.903 90.669 133.903 93.1878C133.903 95.7066 131.696 96 130.592 96H53.784C48.5639 96 39 92.4682 39 81.6734C39 70.8786 48.9317 68 53.784 68H67.6686" stroke="var(--main-color, #377CB5)" stroke-width="1.5" />
	<path d="M80.2092 41.2991C80.4285 39.8302 80.4505 36.3274 78.7833 34.0676C77.1159 31.8078 74.5785 30.4143 73.5182 30M80.7576 67.2868C79.5511 67.5881 76.6554 68.1455 74.7248 67.9647C72.3117 67.7387 64.5238 59.6034 65.8401 50.3383C66.893 42.9261 71.3975 41.2237 73.5182 41.2991C74.1032 41.412 75.5583 41.7736 76.6992 42.3159C78.1251 42.9939 79.0026 43.5588 80.2092 43.5588C81.1744 43.5588 83.4633 42.4289 84.487 41.864C85.2183 41.4874 87.0757 40.8471 88.6551 41.2991C90.6296 41.864 95.2365 44.8017 95.3462 51.3551C95.434 56.5978 92.9696 61.1476 91.7264 62.7671C90.593 64.4996 87.8873 67.9647 86.1323 67.9647C84.3773 67.9647 81.818 67.5127 80.7576 67.2868Z" stroke="var(--accent-color, #F58220)" stroke-width="1.5" stroke-linecap="round" stroke-linejoin="round" />
</svg>