<svg id="self" preserveAspectRatio="xMidYMid meet" viewBox="0 0 173 153" fill="none" xmlns="http://www.w3.org/2000/svg">
	<path d="M69.7664 38.0298C68.8577 37.9357 67.9201 37.8857 66.9536 37.8857C54.7446 37.8857 45.6313 45.8642 41.9512 49.8535V113.682C45.9559 110.091 53.5757 102.911 65.0053 102.911C76.435 102.911 86.4358 110.091 89.6829 113.682C93.363 110.357 100.528 103.549 112.737 102.911C124.946 102.272 135.142 109.825 136.441 113.682V49.8535C133.302 45.8642 124.167 37.8857 112.737 37.8857C111.44 37.8857 110.174 37.9884 108.942 38.1762" stroke="var(--main-color, #377CB5)" stroke-width="1.5" />
	<path d="M89.5684 75.4617C89.5684 75.4617 89.5684 88.2009 89.5684 113.283" stroke="var(--main-color, #377CB5)" stroke-width="1.5" />
	<path d="M41.9521 56.2368H36V118.695H84.3607C84.6087 120.066 86.3587 122.857 89.9408 122.857C93.6608 122.857 94.5288 119.817 94.7768 118.695H142.393V56.2368H136.814" stroke="var(--main-color, #377CB5)" stroke-width="1.5" />
	<path d="M113.356 51.75C113.356 64.8526 102.637 75.5 89.3831 75.5C76.129 75.5 65.4102 64.8526 65.4102 51.75C65.4102 38.6474 76.129 28 89.3831 28C102.637 28 113.356 38.6474 113.356 51.75Z" stroke="var(--main-color, #377CB5)" stroke-width="1.5" />
	<path d="M96.7371 48.9951C96.7371 54.4148 92.6094 58.7451 87.5928 58.7451C82.5762 58.7451 78.4485 54.4148 78.4485 48.9951C78.4485 43.5754 82.5762 39.2451 87.5928 39.2451C92.6094 39.2451 96.7371 43.5754 96.7371 48.9951Z" stroke="var(--accent-color, #F58220)" stroke-width="1.5" />
	<path d="M92.5364 57.0665L97.6209 62.2094C98.3219 62.9195 99.4599 62.9195 100.162 62.2094C100.864 61.4993 100.864 60.348 100.162 59.638L95.0784 54.4951" stroke="var(--accent-color, #F58220)" stroke-width="1.5" />
	<path d="M82.65 45.4951C82.3205 45.9566 81.6614 47.2489 81.6614 48.7259C81.6614 50.2028 82.3205 51.1874 82.65 51.4951" stroke="var(--accent-color, #F58220)" stroke-width="1.5" stroke-linecap="round" />
</svg>