<svg id="self" preserveAspectRatio="xMidYMid meet" viewBox="0 0 173 153" fill="none" xmlns="http://www.w3.org/2000/svg">
	<path d="M52.2256 28H123.947V125.749H59.9125H53.2199C50.337 125.749 48 123.368 48 120.429V32.3063C48 29.928 49.8919 28 52.2256 28Z" stroke="var(--main-color, #377CB5)" stroke-width="1.5" />
	<path d="M48.1348 120.458C48.1348 116.811 48.526 111.339 58.506 111.339C63.8965 111.339 103.928 111.648 124.891 111.648" stroke="var(--main-color, #377CB5)" stroke-width="1.5" />
	<path d="M61.2881 28.0037V111.237" stroke="var(--main-color, #377CB5)" stroke-width="1.5" />
	<path d="M77.9629 66.7566V80.9496C79.7174 82.7367 85.1941 86.0082 93.0656 86.0082C100.938 86.0082 105.5 82.5781 106.796 80.791V66.7566" stroke="var(--main-color, #377CB5)" stroke-width="1.5" stroke-linecap="round" />
	<path d="M70.2797 61.653L92.0078 52.7239C92.2464 52.6259 92.5129 52.6259 92.7515 52.7239L114.48 61.653C115.306 61.9925 115.311 63.1827 114.488 63.5292L92.7592 72.6762C92.5162 72.7785 92.2431 72.7785 92 72.6762L70.2719 63.5292C69.4486 63.1827 69.4536 61.9925 70.2797 61.653Z" stroke="var(--main-color, #377CB5)" stroke-width="1.5" />
	<path d="M92.876 59.6638L112.13 67.3615C112.51 67.5137 112.761 67.888 112.761 68.3048V71.3161" stroke="var(--accent-color, #F58220)" stroke-width="1.5" stroke-linecap="round" />
	<path d="M109.963 85.848L111.37 76.8889H113.955L115.533 85.8286C115.644 86.4501 115.175 87.0213 114.555 87.0213H110.945C110.333 87.0213 109.866 86.4637 109.963 85.848Z" stroke="var(--accent-color, #F58220)" stroke-width="1.5" />
	<path d="M112.761 76.1292C113.997 76.1292 114.998 75.1085 114.998 73.8494C114.998 72.5903 113.997 71.5696 112.761 71.5696C111.526 71.5696 110.524 72.5903 110.524 73.8494C110.524 75.1085 111.526 76.1292 112.761 76.1292Z" stroke="var(--accent-color, #F58220)" stroke-width="1.5" />
</svg>