<svg id="self" preserveAspectRatio="xMidYMid meet" viewBox="0 0 173 153" fill="none" xmlns="http://www.w3.org/2000/svg">
	<path d="M51.2997 28H124.28V125.749H59.1214H52.3114C49.378 125.749 47 123.368 47 120.429V32.3063C47 29.928 48.925 28 51.2997 28Z" stroke="var(--main-color, #377CB5)" stroke-width="1.5" />
	<path d="M47.1377 120.458C47.1377 116.811 47.5358 111.339 57.6909 111.339C63.1759 111.339 103.91 111.648 125.241 111.648" stroke="var(--main-color, #377CB5)" stroke-width="1.5" />
	<path d="M60.5215 28.0037V111.237" stroke="var(--main-color, #377CB5)" stroke-width="1.5" />
	<path d="M92.0591 88.288C102.536 88.288 111.029 79.7822 111.029 69.2897C111.029 58.7972 102.536 50.2913 92.0591 50.2913C81.5827 50.2913 73.0898 58.7972 73.0898 69.2897C73.0898 79.7822 81.5827 88.288 92.0591 88.288Z" stroke="var(--main-color, #377CB5)" stroke-width="1.5" />
	<path d="M69.5771 64.2648C69.7951 62.1068 70.723 58.8694 73.1461 55.5841C75.6178 52.2328 78.7542 50.4775 79.7738 49.9673" stroke="var(--main-color, #377CB5)" stroke-width="1.5" />
	<path d="M83.8553 75.0571C82.3553 75.0571 81.0064 74.4573 79.8086 73.2576L80.6503 72.3335C81.7186 73.3711 82.7924 73.8898 83.8715 73.8898C84.6809 73.8898 85.3392 73.6521 85.8464 73.1766C86.3535 72.701 86.6072 72.0904 86.6072 71.3446C86.6072 70.6421 86.3428 70.0692 85.814 69.6261C85.296 69.1831 84.6215 68.9614 83.7906 68.9614C83.0136 68.9614 82.2204 69.1775 81.4111 69.6098L80.5532 69.0424L80.8769 63.5142H87.4003V64.6977H81.9938L81.751 68.3291C82.5172 67.994 83.2618 67.8266 83.9848 67.8266C85.1179 67.8266 86.0514 68.1455 86.7852 68.7831C87.5298 69.41 87.9021 70.2583 87.9021 71.3283C87.9021 72.4307 87.5245 73.3277 86.769 74.0195C86.0136 74.7112 85.0424 75.0571 83.8553 75.0571ZM91.7596 74.8625V64.7626L89.6229 65.4272L89.3154 64.3896L92.0834 63.4332H93.0222V74.8625H91.7596ZM95.4406 74.8625V73.8736L99.5527 70.2421C100.437 69.4639 101.052 68.8155 101.398 68.2968C101.743 67.778 101.916 67.2375 101.916 66.6755C101.916 66.027 101.695 65.5029 101.252 65.103C100.809 64.7031 100.27 64.5032 99.6337 64.5032C99.0187 64.5032 98.4727 64.6599 97.9987 64.9733C97.5337 65.2867 97.0647 65.7785 96.5897 66.4486L95.651 65.7677C96.2014 64.9463 96.7837 64.3411 97.3997 63.952C98.0147 63.552 98.7917 63.3521 99.7307 63.3521C100.745 63.3521 101.581 63.6601 102.24 64.2761C102.909 64.8813 103.243 65.6541 103.243 66.5944C103.243 67.3726 103.033 68.0643 102.612 68.6695C102.191 69.2748 101.447 70.053 100.378 71.0042L97.3507 73.6953H103.357V74.8625H95.4406Z" fill="var(--accent-color, #F58220)" />
	<path d="M79.808 73.2575L79.6586 73.1209L79.5283 73.2639L79.665 73.4008L79.808 73.2575ZM80.6497 72.3334L80.7906 72.1879L80.6408 72.0425L80.5003 72.1969L80.6497 72.3334ZM85.8134 69.6261L85.682 69.7802L85.6836 69.7815L85.8134 69.6261ZM81.4105 69.6098L81.2991 69.779L81.3995 69.8454L81.5057 69.7887L81.4105 69.6098ZM80.5526 69.0424L80.3507 69.0306L80.3438 69.1472L80.4411 69.2115L80.5526 69.0424ZM80.8764 63.5142V63.3115H80.6856L80.6744 63.5023L80.8764 63.5142ZM87.3998 63.5142H87.6021V63.3115H87.3998V63.5142ZM87.3998 64.6976V64.9003H87.6021V64.6976H87.3998ZM81.9933 64.6976V64.495H81.8041L81.7914 64.6841L81.9933 64.6976ZM81.7505 68.3291L81.5486 68.3155L81.5264 68.6483L81.8314 68.5148L81.7505 68.3291ZM86.7847 68.783L86.652 68.9361L86.6545 68.9382L86.7847 68.783ZM83.8548 74.8544C82.4156 74.8544 81.1163 74.2813 79.9511 73.1143L79.665 73.4008C80.8954 74.6331 82.2941 75.2597 83.8548 75.2597V74.8544ZM79.9575 73.3941L80.7993 72.47L80.5003 72.1969L79.6586 73.1209L79.9575 73.3941ZM80.5089 72.4789C81.6004 73.539 82.722 74.0924 83.871 74.0924V73.6871C82.8617 73.6871 81.8358 73.203 80.7906 72.1879L80.5089 72.4789ZM83.871 74.0924C84.7226 74.0924 85.4333 73.8409 85.9841 73.3244L85.7075 73.0285C85.244 73.4632 84.6381 73.6871 83.871 73.6871V74.0924ZM85.9841 73.3244C86.5354 72.8075 86.809 72.1418 86.809 71.3445H86.4043C86.4043 72.0387 86.1707 72.5943 85.7075 73.0285L85.9841 73.3244ZM86.809 71.3445C86.809 70.5832 86.5189 69.953 85.9433 69.4706L85.6836 69.7815C86.1655 70.1854 86.4043 70.7008 86.4043 71.3445H86.809ZM85.9449 69.4719C85.3827 68.9911 84.6582 68.7587 83.7901 68.7587V69.164C84.5838 69.164 85.2083 69.3749 85.682 69.7802L85.9449 69.4719ZM83.7901 68.7587C82.9743 68.7587 82.1487 68.9859 81.3153 69.431L81.5057 69.7887C82.2911 69.3692 83.0518 69.164 83.7901 69.164V68.7587ZM81.522 69.4407L80.6641 68.8733L80.4411 69.2115L81.2991 69.779L81.522 69.4407ZM80.7547 69.0543L81.0784 63.526L80.6744 63.5023L80.3507 69.0306L80.7547 69.0543ZM80.8764 63.7168H87.3998V63.3115H80.8764V63.7168ZM87.1974 63.5142V64.6976H87.6021V63.5142H87.1974ZM87.3998 64.495H81.9933V64.9003H87.3998V64.495ZM81.7914 64.6841L81.5486 68.3155L81.9524 68.3427L82.1952 64.7112L81.7914 64.6841ZM81.8314 68.5148C82.576 68.1892 83.2932 68.0292 83.9843 68.0292V67.6239C83.2294 67.6239 82.4572 67.7989 81.6695 68.1434L81.8314 68.5148ZM83.9843 68.0292C85.0772 68.0292 85.961 68.3356 86.652 68.9361L86.9173 68.6299C86.1407 67.9551 85.1576 67.6239 83.9843 67.6239V68.0292ZM86.6545 68.9382C87.3485 69.5224 87.6992 70.3115 87.6992 71.3283H88.1039C88.1039 70.2051 87.7101 69.2974 86.9149 68.6279L86.6545 68.9382ZM87.6992 71.3283C87.6992 72.3786 87.342 73.2197 86.632 73.8699L86.9051 74.169C87.7058 73.4359 88.1039 72.4828 88.1039 71.3283H87.6992ZM86.632 73.8699C85.9198 74.5221 84.9999 74.8544 83.8548 74.8544V75.2597C85.0838 75.2597 86.1064 74.9003 86.9051 74.169L86.632 73.8699ZM91.7591 74.8625H91.5567V75.0652H91.7591V74.8625ZM91.7591 64.7625H91.9614V64.4874L91.6991 64.569L91.7591 64.7625ZM89.6224 65.4272L89.4284 65.4848L89.4867 65.6816L89.6824 65.6207L89.6224 65.4272ZM89.3148 64.3896L89.2489 64.198L89.0657 64.2613L89.1209 64.4473L89.3148 64.3896ZM92.0828 63.4331V63.2305H92.0489L92.0169 63.2415L92.0828 63.4331ZM93.0217 63.4331H93.224V63.2305H93.0217V63.4331ZM93.0217 74.8625V75.0652H93.224V74.8625H93.0217ZM91.9614 74.8625V64.7625H91.5567V74.8625H91.9614ZM91.6991 64.569L89.5624 65.2336L89.6824 65.6207L91.8191 64.956L91.6991 64.569ZM89.8163 65.3695L89.5088 64.332L89.1209 64.4473L89.4284 65.4848L89.8163 65.3695ZM89.3808 64.5812L92.1488 63.6247L92.0169 63.2415L89.2489 64.198L89.3808 64.5812ZM92.0828 63.6358H93.0217V63.2305H92.0828V63.6358ZM92.8193 63.4331V74.8625H93.224V63.4331H92.8193ZM93.0217 74.6599H91.7591V75.0652H93.0217V74.6599ZM95.44 74.8625H95.2377V75.0652H95.44V74.8625ZM95.44 73.8736L95.3062 73.7216L95.2377 73.7821V73.8736H95.44ZM99.5517 70.2421L99.4187 70.0898L99.4177 70.0901L99.5517 70.2421ZM97.9977 64.9732L97.8857 64.804L97.8847 64.8052L97.9977 64.9732ZM96.5897 66.4485L96.4706 66.6127L96.6357 66.7326L96.7547 66.5658L96.5897 66.4485ZM95.6505 65.7676L95.4824 65.6547L95.3737 65.8171L95.5318 65.9318L95.6505 65.7676ZM97.3987 63.9519L97.5067 64.1232L97.5087 64.1219L97.3987 63.9519ZM102.239 64.2761L102.101 64.4243L102.104 64.4265L102.239 64.2761ZM97.3497 73.6952L97.2157 73.5437L96.8177 73.8979H97.3497V73.6952ZM103.356 73.6952H103.559V73.4926H103.356V73.6952ZM103.356 74.8625V75.0652H103.559V74.8625H103.356ZM95.6424 74.8625V73.8736H95.2377V74.8625H95.6424ZM95.5738 74.0256L99.6857 70.3941L99.4177 70.0901L95.3062 73.7216L95.5738 74.0256ZM99.6857 70.3941C100.574 69.6127 101.205 68.9504 101.566 68.409L101.229 68.1843C100.899 68.6805 100.3 69.3149 99.4187 70.0898L99.6857 70.3941ZM101.566 68.409C101.931 67.8608 102.118 67.2818 102.118 66.6755H101.713C101.713 67.1932 101.554 67.695 101.229 68.1843L101.566 68.409ZM102.118 66.6755C102.118 65.9752 101.876 65.3943 101.387 64.9525L101.116 65.2534C101.512 65.6113 101.713 66.0788 101.713 66.6755H102.118ZM101.387 64.9525C100.905 64.5166 100.316 64.3004 99.6327 64.3004V64.7057C100.223 64.7057 100.714 64.8895 101.116 65.2534L101.387 64.9525ZM99.6327 64.3004C98.9817 64.3004 98.3957 64.467 97.8857 64.804L98.1097 65.1425C98.5487 64.8527 99.0537 64.7057 99.6327 64.7057V64.3004ZM97.8847 64.8052C97.3927 65.1371 96.9067 65.6497 96.4243 66.3312L96.7547 66.5658C97.2207 65.9071 97.6737 65.4363 98.1107 65.1412L97.8847 64.8052ZM96.7077 66.2844L95.7691 65.6035L95.5318 65.9318L96.4706 66.6127L96.7077 66.2844ZM95.8184 65.8805C96.3584 65.0747 96.9227 64.4929 97.5067 64.1232L97.2907 63.7805C96.6447 64.1891 96.0432 64.8178 95.4824 65.6547L95.8184 65.8805ZM97.5087 64.1219C98.0827 63.7485 98.8187 63.5547 99.7297 63.5547V63.1494C98.7627 63.1494 97.9447 63.3555 97.2887 63.7819L97.5087 64.1219ZM99.7297 63.5547C100.7 63.5547 101.485 63.8478 102.101 64.4243L102.377 64.1281C101.677 63.4724 100.789 63.1494 99.7297 63.1494V63.5547ZM102.104 64.4265C102.728 64.9916 103.041 65.7088 103.041 66.5944H103.445C103.445 65.5995 103.088 64.7712 102.375 64.1258L102.104 64.4265ZM103.041 66.5944C103.041 67.3336 102.841 67.9844 102.445 68.5537L102.778 68.7854C103.223 68.1442 103.445 67.4116 103.445 66.5944H103.041ZM102.445 68.5537C102.038 69.1388 101.309 69.9042 100.243 70.8526L100.511 71.1557C101.583 70.2019 102.343 69.4108 102.778 68.7854L102.445 68.5537ZM100.243 70.8526L97.2157 73.5437L97.4847 73.8468L100.511 71.1557L100.243 70.8526ZM97.3497 73.8979H103.356V73.4926H97.3497V73.8979ZM103.154 73.6952V74.8625H103.559V73.6952H103.154ZM103.356 74.6599H95.44V75.0652H103.356V74.6599Z" fill="var(--accent-color, #F58220)" />
</svg>