<svg id="self" preserveAspectRatio="xMidYMid meet" viewBox="0 0 173 153" fill="none" xmlns="http://www.w3.org/2000/svg">
	<path d="M52.25 29H124.386V124.844H59.9813H53.25C50.3505 124.844 48 122.51 48 119.628V33.2224C48 30.8905 49.9028 29 52.25 29Z" stroke="var(--main-color, #377CB5)" stroke-width="1.5" />
	<path d="M48.1348 119.657C48.1348 116.081 48.5283 110.716 58.566 110.716C63.9876 110.716 104.251 111.019 125.335 111.019" stroke="var(--main-color, #377CB5)" stroke-width="1.5" />
	<path d="M61.3633 29.0034V110.615" stroke="var(--main-color, #377CB5)" stroke-width="1.5" />
	<path d="M92.6348 65.7595C94.1538 65.7595 95.3848 66.9827 95.3848 68.4917C95.3848 70.0006 94.1538 71.2238 92.6348 71.2238C91.116 71.2238 89.8848 70.0006 89.8848 68.4917C89.8848 66.9827 91.116 65.7595 92.6348 65.7595Z" stroke="var(--accent-color, #F58220)" stroke-width="1.5" />
	<path d="M116.385 69.513C116.385 70.6233 115.835 71.7519 114.688 72.8534C113.54 73.957 111.839 74.9852 109.675 75.8645C105.352 77.6215 99.3278 78.7255 92.6348 78.7255C85.9421 78.7255 79.9179 77.6215 75.5947 75.8645C73.4312 74.9852 71.73 73.957 70.5815 72.8534C69.4353 71.7519 68.8848 70.6233 68.8848 69.513C68.8848 68.4028 69.4353 67.2742 70.5815 66.1727C71.73 65.0691 73.4312 64.0408 75.5947 63.1616C79.9179 61.4044 85.9421 60.3005 92.6348 60.3005C99.3278 60.3005 105.352 61.4044 109.675 63.1616C111.839 64.0408 113.54 65.0691 114.688 66.1727C115.835 67.2742 116.385 68.4028 116.385 69.513Z" stroke="var(--main-color, #377CB5)" stroke-width="1.5" />
	<path d="M108.423 51.6503C109.208 52.344 109.656 53.4576 109.689 55.0115C109.722 56.5668 109.333 58.4859 108.528 60.6546C106.921 64.9871 103.71 70.1653 99.2577 75.1343C94.8057 80.1034 90.0014 83.8719 85.8561 85.9604C83.7813 87.0056 81.9076 87.6119 80.349 87.7597C78.7917 87.9075 77.6263 87.594 76.8419 86.9002C76.0574 86.2065 75.6089 85.0928 75.5761 83.539C75.5434 81.9838 75.9323 80.0646 76.7369 77.896C78.3445 73.5633 81.5552 68.3852 86.0072 63.4161C90.4591 58.4471 95.2637 54.6786 99.4087 52.5902C101.484 51.5449 103.357 50.9387 104.916 50.7907C106.473 50.643 107.639 50.9565 108.423 51.6503Z" stroke="var(--accent-color, #F58220)" stroke-width="1.5" />
	<path d="M83.9107 46.2251C84.8821 45.8622 86.0866 46.0025 87.5096 46.7455C88.9318 47.4882 90.4905 48.7945 92.0843 50.6011C95.2678 54.21 98.4828 59.691 100.944 66.1921C103.404 72.6931 104.621 78.921 104.619 83.7198C104.618 86.1221 104.312 88.1253 103.734 89.6148C103.157 91.1053 102.344 91.9992 101.372 92.3621C100.401 92.725 99.1958 92.5847 97.7728 91.8417C96.3508 91.099 94.7918 89.7926 93.1988 87.9861C90.0147 84.3772 86.7994 78.8962 84.3389 72.3952C81.8785 65.8941 80.6624 59.6663 80.6641 54.8673C80.6649 52.465 80.9712 50.462 81.5485 48.9724C82.1262 47.4819 82.9392 46.588 83.9107 46.2251Z" stroke="var(--main-color, #377CB5)" stroke-width="1.5" />
	<path d="M83.9107 46.2251C84.8821 45.8622 86.0866 46.0025 87.5096 46.7455C88.9318 47.4882 90.4905 48.7945 92.0843 50.6011C95.2678 54.21 98.4828 59.691 100.944 66.1921C103.404 72.6931 104.621 78.921 104.619 83.7198C104.618 86.1221 104.312 88.1253 103.734 89.6148C103.157 91.1053 102.344 91.9992 101.372 92.3621C100.401 92.725 99.1958 92.5847 97.7728 91.8417C96.3508 91.099 94.7918 89.7926 93.1988 87.9861C90.0147 84.3772 86.7994 78.8962 84.3389 72.3952C81.8785 65.8941 80.6624 59.6663 80.6641 54.8673C80.6649 52.465 80.9712 50.462 81.5485 48.9724C82.1262 47.4819 82.9392 46.588 83.9107 46.2251Z" stroke="var(--main-color, #377CB5)" stroke-width="1.5" />
</svg>