<svg id="self" preserveAspectRatio="xMidYMid meet" viewBox="0 0 173 153" fill="none" xmlns="http://www.w3.org/2000/svg">
	<path d="M112.993 29.1086L99.6544 33.423C98.4784 33.8035 97.8315 35.0708 98.2095 36.2538L122.106 110.994C122.484 112.177 123.744 112.828 124.92 112.447L138.26 108.133C139.436 107.752 140.083 106.485 139.704 105.302L115.808 30.5617C115.43 29.3788 114.17 28.7282 112.993 29.1086Z" stroke="var(--accent-color, #F58220)" stroke-width="1.5" />
	<path d="M101.873 47.904L119.507 42.2501" stroke="var(--accent-color, #F58220)" stroke-width="1.5" />
	<path d="M104.811 56.1784L122.446 50.5244" stroke="var(--accent-color, #F58220)" stroke-width="1.5" />
	<path d="M53.3782 31.666H37.616C36.3805 31.666 35.3789 32.6734 35.3789 33.916V111.967C35.3789 113.21 36.3805 114.217 37.616 114.217H53.3782C54.6137 114.217 55.6153 113.21 55.6153 111.967V33.916C55.6153 32.6734 54.6137 31.666 53.3782 31.666Z" stroke="var(--main-color, #377CB5)" stroke-width="1.5" />
	<path d="M73.4347 31.666H57.6726C56.4371 31.666 55.4355 32.6734 55.4355 33.916V111.967C55.4355 113.21 56.4371 114.217 57.6726 114.217H73.4347C74.6702 114.217 75.6719 113.21 75.6719 111.967V33.916C75.6719 32.6734 74.6702 31.666 73.4347 31.666Z" stroke="var(--main-color, #377CB5)" stroke-width="1.5" />
	<path d="M34.6328 52.7692H54.6891" stroke="var(--main-color, #377CB5)" stroke-width="1.5" />
	<path d="M93.4915 31.666H77.7293C76.4938 31.666 75.4922 32.6734 75.4922 33.916V111.967C75.4922 113.21 76.4938 114.217 77.7293 114.217H93.4915C94.727 114.217 95.7286 113.21 95.7286 111.967V33.916C95.7286 32.6734 94.727 31.666 93.4915 31.666Z" stroke="var(--main-color, #377CB5)" stroke-width="1.5" />
	<path d="M74.7461 52.7692H94.8024" stroke="var(--main-color, #377CB5)" stroke-width="1.5" />
	<path d="M74.7461 61.1746H94.8024" stroke="var(--main-color, #377CB5)" stroke-width="1.5" />
	<path d="M54.6914 71.2605H74.7476" stroke="var(--main-color, #377CB5)" stroke-width="1.5" />
	<path d="M54.6914 46.0453H74.7476" stroke="var(--main-color, #377CB5)" stroke-width="1.5" />
	<path d="M54.6914 62.8551H74.7476" stroke="var(--main-color, #377CB5)" stroke-width="1.5" />
	<mask id="mask0_185_592" style="mask-type:luminance" maskUnits="userSpaceOnUse" x="25" y="113" width="124" height="11">
		<path d="M148.287 122.372V114.583C148.287 114.031 147.842 113.583 147.293 113.583H25.9943C25.4451 113.583 25 114.031 25 114.583V122.372C25 122.925 25.4451 123.372 25.9943 123.372H147.293C147.842 123.372 148.287 122.925 148.287 122.372Z" fill="white" />
	</mask>
	<g mask="url(#mask0_185_592)">
		<path d="M148.285 122.372V114.583C148.285 114.031 147.84 113.583 147.291 113.583H25.9923C25.4432 113.583 24.998 114.031 24.998 114.583V122.372C24.998 122.925 25.4432 123.372 25.9923 123.372H147.291C147.84 123.372 148.285 122.925 148.285 122.372Z" stroke="var(--main-color, #377CB5)" stroke-width="3" />
	</g>
</svg>