<svg id="self" preserveAspectRatio="xMidYMid meet" viewBox="0 0 173 153" fill="none" xmlns="http://www.w3.org/2000/svg">
	<path d="M48.6239 79.5098H19.6417C15.1906 79.5098 15.1906 85.5918 19.6417 85.5918H64.9359L104.133 85.5921C109.876 85.5921 113.922 89.8102 113.922 94.4529C113.922 99.0956 109.876 103.759 104.133 103.759L102.453 103.759M64.9359 79.5098H104.133C109.471 79.5098 120.396 82.6557 120.396 94.4529C120.396 106.25 109.876 110.11 104.133 110.11H102.997H19.6417C18.4278 110.11 16 109.789 16 107.037C16 104.284 18.4278 103.759 19.6417 103.759L102.997 103.759" stroke="var(--main-color, #377CB5)" stroke-width="1.5" />
	<path d="M49.3082 73.3641H43.2005C37.4581 73.3638 33.4116 68.8507 33.4116 64.3577C33.4116 59.8647 37.4581 55.7827 43.2005 55.7827L127.692 55.7824C132.143 55.7824 132.143 49.8967 127.692 49.8967H43.2005C37.8627 49.8967 26.9375 52.9411 26.9375 64.3577C26.9375 75.7743 37.4581 79.5096 43.2005 79.5096H48.6867H127.692C128.906 79.5096 131.334 79.1993 131.334 76.5354C131.334 73.8716 128.906 73.3638 127.692 73.3638L48.6867 73.3639" stroke="var(--main-color, #377CB5)" stroke-width="1.5" />
	<path d="M128.351 54.8323V73.5872" stroke="var(--main-color, #377CB5)" stroke-width="1.5" />
	<path d="M19.9766 85.4324V104.187" stroke="var(--main-color, #377CB5)" stroke-width="1.5" />
	<path d="M48.8105 64.7034H91.5634" stroke="var(--main-color, #377CB5)" stroke-width="1.5" />
	<path d="M86.5922 94.3162H47.8164" stroke="var(--main-color, #377CB5)" stroke-width="1.5" />
	<path d="M143.776 111.126L139.393 102.421C139.324 102.284 139.288 102.133 139.288 101.98V51.3775C139.288 50.8323 139.733 50.3904 140.282 50.3904H148.236C148.785 50.3904 149.23 50.8323 149.23 51.3775V102.019C149.23 102.147 149.206 102.274 149.157 102.393L145.585 111.058C145.262 111.843 144.159 111.884 143.776 111.126Z" stroke="var(--accent-color, #F58220)" stroke-width="1.5" />
	<path d="M139.288 102.213H149.728" stroke="var(--accent-color, #F58220)" stroke-width="1.5" />
	<path d="M139.288 58.7808H149.23" stroke="var(--accent-color, #F58220)" stroke-width="1.5" />
	<path d="M156.688 78.5226V64.2097L149.728 59.2742" stroke="var(--accent-color, #F58220)" stroke-width="1.5" stroke-linecap="round" stroke-linejoin="round" />
	<path d="M142.271 49.8968V42.9871C142.271 42.442 142.717 42 143.266 42H145.254C145.803 42 146.248 42.442 146.248 42.9871V49.8968" stroke="var(--accent-color, #F58220)" stroke-width="1.5" />
</svg>