<svg id="self" preserveAspectRatio="xMidYMid meet" viewBox="0 0 173 153" fill="none" xmlns="http://www.w3.org/2000/svg">
	<path d="M53.498 105.956C55.8318 105.956 57.7236 104.053 57.7236 101.706C57.7236 99.3589 55.8318 97.4561 53.498 97.4561C51.1643 97.4561 49.2725 99.3589 49.2725 101.706C49.2725 104.053 51.1643 105.956 53.498 105.956Z" stroke="var(--main-color, #377CB5)" stroke-width="1.5" />
	<path d="M62.4357 35H45.2371C44.0016 35 43 36.0074 43 37.25V115.301C43 116.544 44.0016 117.551 45.2371 117.551H62.4357C63.6712 117.551 64.6727 116.544 64.6727 115.301V37.25C64.6727 36.0074 63.6712 35 62.4357 35Z" stroke="var(--main-color, #377CB5)" stroke-width="1.5" />
	<path d="M58.6129 39.4561H48.8102C48.1238 39.4561 47.5674 40.0157 47.5674 40.7061V86.7061C47.5674 87.3965 48.1238 87.9561 48.8102 87.9561H58.6129C59.2993 87.9561 59.8558 87.3965 59.8558 86.7061V40.7061C59.8558 40.0157 59.2993 39.4561 58.6129 39.4561Z" stroke="var(--main-color, #377CB5)" stroke-width="1.5" />
	<path d="M83.8175 35H66.6189C65.3834 35 64.3818 36.0074 64.3818 37.25V115.301C64.3818 116.544 65.3834 117.551 66.6189 117.551H83.8175C85.053 117.551 86.0546 116.544 86.0546 115.301V37.25C86.0546 36.0074 85.053 35 83.8175 35Z" stroke="var(--main-color, #377CB5)" stroke-width="1.5" />
	<path d="M47.8818 83.7061H59.5416" stroke="var(--main-color, #377CB5)" stroke-width="1.5" />
	<path d="M47.8818 75.7061H59.5416" stroke="var(--main-color, #377CB5)" stroke-width="1.5" />
	<path d="M47.8818 79.7061H59.5416" stroke="var(--main-color, #377CB5)" stroke-width="1.5" />
	<path d="M79.6778 101.706C79.6778 104.009 77.6844 105.956 75.1235 105.956C72.5626 105.956 70.5693 104.009 70.5693 101.706C70.5693 99.4034 72.5626 97.4561 75.1235 97.4561C77.6844 97.4561 79.6778 99.4034 79.6778 101.706Z" stroke="var(--main-color, #377CB5)" stroke-width="1.5" />
	<path d="M80.3424 39.4561H70.5397C69.8533 39.4561 69.2969 40.0157 69.2969 40.7061V86.7061C69.2969 87.3965 69.8533 87.9561 70.5397 87.9561H80.3424C81.0288 87.9561 81.5853 87.3965 81.5853 86.7061V40.7061C81.5853 40.0157 81.0288 39.4561 80.3424 39.4561Z" stroke="var(--main-color, #377CB5)" stroke-width="1.5" />
	<path d="M69.082 83.7061H80.7418" stroke="var(--main-color, #377CB5)" stroke-width="1.5" />
	<path d="M69.082 75.7061H80.7418" stroke="var(--main-color, #377CB5)" stroke-width="1.5" />
	<path d="M69.082 79.7061H80.7418" stroke="var(--main-color, #377CB5)" stroke-width="1.5" />
	<path d="M127.073 35H109.875C108.639 35 107.638 36.0074 107.638 37.25V115.301C107.638 116.544 108.639 117.551 109.875 117.551H127.073C128.309 117.551 129.311 116.544 129.311 115.301V37.25C129.311 36.0074 128.309 35 127.073 35Z" stroke="var(--main-color, #377CB5)" stroke-width="1.5" />
	<path d="M123.069 101.706C123.069 104.009 121.076 105.956 118.515 105.956C115.954 105.956 113.961 104.009 113.961 101.706C113.961 99.4034 115.954 97.4561 118.515 97.4561C121.076 97.4561 123.069 99.4034 123.069 101.706Z" stroke="var(--main-color, #377CB5)" stroke-width="1.5" />
	<path d="M123.416 39.4561H113.613C112.927 39.4561 112.37 40.0157 112.37 40.7061V86.7061C112.37 87.3965 112.927 87.9561 113.613 87.9561H123.416C124.102 87.9561 124.659 87.3965 124.659 86.7061V40.7061C124.659 40.0157 124.102 39.4561 123.416 39.4561Z" stroke="var(--main-color, #377CB5)" stroke-width="1.5" />
	<path d="M113.215 83.7061H124.875" stroke="var(--main-color, #377CB5)" stroke-width="1.5" />
	<path d="M113.215 75.7061H124.875" stroke="var(--main-color, #377CB5)" stroke-width="1.5" />
	<path d="M113.215 79.7061H124.875" stroke="var(--main-color, #377CB5)" stroke-width="1.5" />
	<path d="M105.496 35H88.2975C87.062 35 86.0605 36.0074 86.0605 37.25V115.301C86.0605 116.544 87.062 117.551 88.2975 117.551H105.496C106.732 117.551 107.733 116.544 107.733 115.301V37.25C107.733 36.0074 106.732 35 105.496 35Z" stroke="var(--accent-color, #F58220)" stroke-width="1.5" />
	<path d="M101.196 101.706C101.196 104.009 99.2019 105.956 96.6409 105.956C94.0803 105.956 92.0869 104.009 92.0869 101.706C92.0869 99.4034 94.0803 97.4561 96.6409 97.4561C99.2019 97.4561 101.196 99.4034 101.196 101.706Z" stroke="var(--accent-color, #F58220)" stroke-width="1.5" />
	<path d="M101.542 39.4561H91.7389C91.0525 39.4561 90.4961 40.0157 90.4961 40.7061V86.7061C90.4961 87.3965 91.0525 87.9561 91.7389 87.9561H101.542C102.228 87.9561 102.785 87.3965 102.785 86.7061V40.7061C102.785 40.0157 102.228 39.4561 101.542 39.4561Z" stroke="var(--accent-color, #F58220)" stroke-width="1.5" />
	<path d="M91.3408 83.7061H103.001" stroke="var(--accent-color, #F58220)" stroke-width="1.5" />
	<path d="M91.3408 75.7061H103.001" stroke="var(--accent-color, #F58220)" stroke-width="1.5" />
	<path d="M91.3408 79.7061H103.001" stroke="var(--accent-color, #F58220)" stroke-width="1.5" />
</svg>