<svg id="self" preserveAspectRatio="xMidYMid meet" viewBox="0 0 173 153" fill="none" xmlns="http://www.w3.org/2000/svg">
	<path d="M52.25 29H124.385V124.844H59.9813H53.25C50.3505 124.844 48 122.509 48 119.628V33.2224C48 30.8905 49.9028 29 52.25 29Z" stroke="var(--main-color, #377CB5)" stroke-width="1.5" />
	<path d="M48.3535 119.423C48.3535 115.777 48.7442 110.306 58.7125 110.306C64.0967 110.306 104.082 110.615 125.02 110.615" stroke="var(--main-color, #377CB5)" stroke-width="1.5" />
	<path d="M61.3633 29.0037V110.614" stroke="var(--main-color, #377CB5)" stroke-width="1.5" />
	<path d="M92.3733 55.2375L95.239 63.9999C95.4733 64.7162 96.1452 65.2012 96.9034 65.2012H106.177C106.419 65.2012 106.52 65.5091 106.324 65.6505L98.8214 71.066C98.208 71.5087 97.9514 72.2935 98.1857 73.0099L101.051 81.7722C101.126 82.001 100.863 82.1914 100.667 82.0499L93.1642 76.6345C92.5508 76.1918 91.7203 76.1917 91.1069 76.6345L83.6045 82.0499C83.4086 82.1914 83.1449 82.001 83.2198 81.7722L86.0855 73.0099C86.3197 72.2935 86.0631 71.5087 85.4497 71.066L77.9473 65.6505C77.7513 65.5091 77.852 65.2012 78.0942 65.2012H87.3678C88.1259 65.2012 88.7978 64.7162 89.0321 63.9999L91.8978 55.2375C91.9726 55.0087 92.2985 55.0087 92.3733 55.2375Z" stroke="var(--accent-color, #F58220)" stroke-width="1.5" stroke-linejoin="round" />
</svg>